<svg width="240" height="52" viewBox="0 0 240 52" fill="none" xmlns="http://www.w3.org/2000/svg">
<path d="M38.6785 36.6903H32.8761C32.6624 36.6903 32.4724 36.5795 32.3616 36.4053C32.2508 36.2233 32.2428 36.0016 32.3378 35.8116C32.3537 35.78 33.834 32.8036 34.1506 31.3391C34.5068 29.6689 34.8076 27.3891 34.2693 23.1541C34.1981 22.6237 34.111 21.9983 34.0002 21.3176H27.8416L28.6332 36.0491C28.6411 36.2153 28.5857 36.3816 28.467 36.5003C28.3482 36.619 28.1899 36.6903 28.0237 36.6903H26.9629C26.8917 36.6903 26.8284 36.6824 26.765 36.6586C26.4247 36.5399 23.4403 35.4475 23.1158 33.5635C22.8308 31.9328 23.092 23.4945 23.1079 23.1303C23.1079 23.0195 23.1475 22.9166 23.2029 22.8216C23.2266 22.782 25.8626 18.6657 25.736 16.196C25.6251 14.027 25.5143 9.76033 25.4747 8.19298H22.245C22.5458 9.71284 22.7833 11.486 22.7279 13.1879C22.6567 15.4994 21.6434 17.7 20.5273 19.4494C21.2635 21.2305 22.2688 22.7979 22.2846 22.8216C22.3479 22.9166 22.3796 23.0195 22.3796 23.1303C22.3875 23.4865 22.6567 31.9249 22.3717 33.5635C22.2371 34.3393 21.6513 35.0596 20.6302 35.7166C20.5035 35.8037 20.3452 35.8354 20.1869 35.8037C19.4032 35.6612 18.5958 35.495 18.0496 35.2733C17.0601 34.8696 16.4189 33.7772 16.4189 32.4869V22.782C16.4189 22.6158 16.4902 22.4496 16.6089 22.3387C16.6327 22.315 17.915 21.1038 19.1578 19.2911C18.762 18.2145 18.485 17.0905 18.5325 16.1326C18.667 13.4729 18.8095 7.63095 18.8095 7.56762C18.8095 7.23515 19.0866 6.97393 19.4191 6.97393H20.7173C20.4956 6.08734 20.2819 5.37491 20.1473 4.95537H11.7564C11.3686 6.15859 10.292 9.84741 10.3949 13.1404C10.5453 17.8346 15.2474 22.2912 15.2949 22.3308C15.4136 22.4496 15.4848 22.6079 15.4848 22.7741V32.479C15.4848 33.7693 14.8437 34.8617 13.8542 35.2654C13.2526 35.5108 12.3106 35.685 11.3923 35.8512L10.8936 35.9462C10.5611 36.0095 10.2445 35.7958 10.1812 35.4633C10.1179 35.1309 10.3316 34.8142 10.6641 34.7509L11.1707 34.6559C11.986 34.5055 12.9043 34.3393 13.395 34.1334C13.9967 33.8881 14.2658 33.1281 14.2658 32.4711V23.0195C13.3159 22.0775 9.32626 17.8504 9.17586 13.1642C9.04129 8.95291 10.672 4.32209 10.7432 4.1242C10.8303 3.8788 11.0598 3.72048 11.3132 3.72048H20.5827C20.836 3.72048 21.0656 3.8788 21.1526 4.1242C21.1843 4.21919 21.5801 5.34325 21.968 6.95018H26.0526C26.3851 6.95018 26.6542 7.2114 26.6621 7.54387C26.6621 7.59929 26.8046 13.4492 26.9392 16.1089C27.0738 18.7132 24.8019 22.5129 24.3032 23.3124C24.224 25.8376 24.0895 32.107 24.3032 33.3339C24.4536 34.2047 26.0368 35.0834 27.0658 35.4633H27.3746L26.583 20.7318C26.5751 20.5656 26.6305 20.3993 26.7492 20.2806C26.8679 20.1619 27.0263 20.0906 27.1925 20.0906H33.7865C33.549 18.7291 33.2719 17.225 32.9949 15.7448C32.4328 12.7288 31.9104 9.88699 31.8075 8.58877C31.6492 6.60979 31.6729 0.847004 31.6729 0.60161C31.6729 0.269141 31.942 0 32.2824 0H45.3437C45.6762 0 45.9532 0.269141 45.9532 0.60161C45.9532 0.847004 45.9691 6.60979 45.8187 8.58877C45.7395 9.55452 45.4308 11.3831 45.0429 13.4966H54.4391C54.6607 13.4966 54.8665 13.6154 54.9774 13.8133C55.0882 14.0112 55.0724 14.2487 54.9536 14.4386L48.2172 24.6898V34.5847L51.526 35.2733C51.8585 35.3446 52.0643 35.6612 52.001 35.9937C51.9297 36.3182 51.6131 36.532 51.2806 36.4686L47.4889 35.685C47.2039 35.6296 47.006 35.3763 47.006 35.0913V24.5235C47.006 24.4048 47.0377 24.286 47.1089 24.1911L53.3309 14.7315H44.8371C44.7738 15.0719 44.7104 15.4202 44.6471 15.7685C44.3463 17.4071 44.0297 19.0853 43.7843 20.5497L46.1749 24.1831C46.2382 24.286 46.2778 24.3969 46.2778 24.5156V35.0834C46.2778 35.3683 46.072 35.6216 45.7949 35.6771L44.5363 35.9383C44.2592 35.9937 43.9822 35.8591 43.8634 35.6058C43.2856 34.3788 42.5415 32.6848 42.3119 31.5924C41.7736 29.0831 41.734 26.5104 42.1773 23.0037C42.2565 22.3783 42.3673 21.6342 42.5098 20.811L38.3223 14.4466C38.2035 14.2566 38.1877 14.0191 38.2985 13.8212C38.4094 13.6233 38.6073 13.5046 38.8368 13.5046H43.8318C44.2276 11.3356 44.5521 9.45161 44.6313 8.5017C44.75 6.94226 44.7658 2.7864 44.7658 1.21905H32.9157C32.9157 2.77849 32.9236 6.94226 33.0503 8.5017C33.1453 9.73658 33.6677 12.5547 34.2218 15.531C34.5068 17.0905 34.8076 18.6737 35.0451 20.0985H39.5255C39.6917 20.0985 39.85 20.1698 39.9688 20.2885C40.0875 20.4072 40.1429 20.5735 40.135 20.7397L39.3118 36.1124C39.2959 36.437 39.0268 36.6903 38.7022 36.6903H38.6785ZM33.8419 35.4792H38.1006L38.8606 21.3176H35.2192C35.3221 21.935 35.4013 22.505 35.4646 23.0037C35.9079 26.5104 35.8683 29.0831 35.3301 31.5924C35.0926 32.6928 34.3247 34.4263 33.834 35.4792H33.8419ZM43.4835 22.3229C43.436 22.6237 43.3964 22.9008 43.3647 23.162C42.8264 27.397 43.1193 29.6768 43.4835 31.347C43.6734 32.2336 44.2909 33.6664 44.7421 34.6638L45.0429 34.6005V24.7056L43.4835 22.3308V22.3229ZM17.6301 23.0432V32.4949C17.6301 33.144 17.8992 33.9118 18.5008 34.1572C18.8729 34.3076 19.5061 34.4501 20.1632 34.5688C20.7489 34.1572 21.1051 33.7297 21.1685 33.3577C21.3822 32.1307 21.2397 25.8613 21.1685 23.3361C20.931 22.9562 20.2977 21.9034 19.7119 20.621C18.8254 21.8163 18.0021 22.6712 17.638 23.0353L17.6301 23.0432ZM39.9371 14.7236L42.7869 19.0615C42.9848 17.9296 43.2143 16.7263 43.428 15.539C43.4755 15.2619 43.531 14.9928 43.5784 14.7236H39.9292H39.9371ZM20.0048 8.19298C19.9653 9.76033 19.8544 14.027 19.7436 16.196C19.7199 16.7263 19.8149 17.328 19.989 17.9533C20.7964 16.5126 21.4535 14.8503 21.5009 13.1483C21.5564 11.4702 21.303 9.68909 20.9864 8.19298H20.0048Z" fill="#199A68"/>
<path d="M31.6302 51.7587C30.1024 51.7587 29.2238 51.1492 28.3055 50.508C27.9335 50.2468 27.5535 49.9855 27.0944 49.7322C23.3422 47.682 0.853098 42.4417 0.623536 42.3863C0.18816 42.2834 -0.080981 41.848 0.021926 41.4126C0.124833 40.9772 0.560209 40.7081 0.995584 40.811C1.92966 41.0247 23.928 46.1622 27.8781 48.3153C28.4163 48.6082 28.8517 48.909 29.2396 49.1781C30.0708 49.756 30.6249 50.1439 31.646 50.1439C32.6672 50.1439 33.2134 49.7639 34.0525 49.1781C34.4403 48.909 34.8757 48.6003 35.414 48.3153C39.3561 46.1622 61.3545 41.0326 62.2965 40.811C62.7318 40.7081 63.1672 40.9772 63.2701 41.4126C63.373 41.848 63.1039 42.2834 62.6685 42.3863C62.439 42.4417 39.9498 47.682 36.1977 49.7322C35.7386 49.9855 35.3586 50.2468 34.9865 50.508C34.0604 51.1492 33.1896 51.7587 31.6619 51.7587H31.6302Z" fill="#199A68"/>
<path d="M29.2534 45.1737C29.1822 45.1737 29.103 45.1579 29.0318 45.1342C21.9629 42.3636 10.4848 39.1181 3.89873 37.7011C3.57417 37.6299 3.36044 37.3053 3.43169 36.9808C3.50293 36.6562 3.82748 36.4425 4.15204 36.5137C10.7856 37.9386 22.3507 41.2079 29.4751 44.0022C29.7838 44.1209 29.9421 44.4771 29.8155 44.7859C29.7205 45.0233 29.4909 45.1737 29.2534 45.1737Z" fill="#199A68"/>
<path d="M29.0506 47.2887C28.9793 47.2887 28.9081 47.2729 28.8369 47.2492C21.5146 44.4786 9.62492 41.233 2.80932 39.8161C2.48476 39.7449 2.27103 39.4282 2.33436 39.0958C2.4056 38.7633 2.72224 38.5575 3.05471 38.6208C9.91781 40.0457 21.8946 43.3149 29.2643 46.1093C29.581 46.228 29.7393 46.5763 29.6205 46.8929C29.5255 47.1383 29.296 47.2887 29.0506 47.2887Z" fill="#199A68"/>
<path d="M34.0059 45.1741C33.7605 45.1741 33.531 45.0316 33.4439 44.7862C33.3251 44.4775 33.4756 44.1213 33.7843 44.0025C40.9086 41.2082 52.4738 37.9389 59.1073 36.5141C59.4398 36.4428 59.7564 36.6486 59.8277 36.9811C59.8989 37.3057 59.6931 37.6302 59.3606 37.7015C52.7746 39.1184 41.2886 42.3639 34.2276 45.1345C34.1563 45.1662 34.0772 45.1741 34.0059 45.1741Z" fill="#199A68"/>
<path d="M34.2109 47.291C33.9655 47.291 33.736 47.1406 33.641 46.8952C33.5222 46.5786 33.6806 46.2303 33.9972 46.1115C41.3748 43.3172 53.3437 40.0479 60.2068 38.6231C60.5314 38.5518 60.8559 38.7656 60.9272 39.098C60.9984 39.4226 60.7847 39.7471 60.4522 39.8184C53.6366 41.2353 41.739 44.4809 34.4247 47.2514C34.3534 47.2752 34.2822 47.291 34.2109 47.291Z" fill="#199A68"/>
<path d="M88.6734 2.30469V4.88528H100.231V7.85375H88.6734V9.38152H97.6184V20.3372H90.7394C93.6208 22.6169 96.146 23.7885 101.276 25.5933C100.341 26.4957 99.5973 27.4852 99.1461 28.7201C95.576 27.4852 92.1485 25.8704 88.6654 22.6882V29.4721H85.2458V22.7436C83.148 24.4534 80.5041 26.6145 75.3667 28.8705C74.7968 27.7306 74.1081 26.6778 73.0869 25.72C76.2375 24.7305 79.388 23.1711 82.871 20.3451H76.9578V9.38944H85.2458V7.86166H74.0764V4.89319H85.2458V2.3126H88.6654L88.6734 2.30469ZM80.2033 12.0017V13.4741H85.2458V12.0017H80.2033ZM80.2033 16.023V17.6141H85.2458V16.023H80.2033ZM88.6734 12.0017V13.4741H94.1987V12.0017H88.6734ZM88.6734 16.023V17.6141H94.1987V16.023H88.6734Z" fill="#383838"/>
<path d="M134.522 9.23748V12.8392H123.74C125.244 17.4621 128.094 21.3093 131.577 24.0957C132.384 24.6973 133.35 25.386 135.329 26.4388C134.221 27.3095 133.231 28.4494 132.384 29.7081C129.804 28.0853 124.761 24.7527 121.453 16.4093C118.722 24.0957 114.122 27.3412 109.531 29.8585C108.874 28.6552 108.09 27.5153 107.069 26.5892C110.069 25.2672 112.927 23.3437 115.239 20.4068C117.431 17.5571 118.12 14.6441 118.484 12.8392H108.336V9.23748H118.904C119.054 7.31391 119.054 5.06579 119.054 2.42188H123.17C123.107 5.00247 123.02 7.37724 122.901 9.23748H134.522Z" fill="#383838"/>
<path d="M87.624 51.552L89.8009 40.3984H90.2205L93.751 48.2748L97.3052 40.3984H97.7168L99.6721 51.552H97.9622L96.8382 44.9343L93.8697 51.552H93.4185L90.4817 44.9105L89.3339 51.552H87.624Z" fill="#383838"/>
<path d="M109.074 44.6118H110.689V51.5461H109.074V50.8258C108.369 51.649 107.491 51.7598 107 51.7598C104.863 51.7598 103.644 49.9788 103.644 48.071C103.644 45.815 105.195 44.4297 107.016 44.4297C107.53 44.4297 108.417 44.5643 109.074 45.4192V44.6118ZM105.282 48.1027C105.282 49.3059 106.042 50.3112 107.206 50.3112C108.227 50.3112 109.169 49.5671 109.169 48.1185C109.169 46.6699 108.235 45.8783 107.206 45.8783C106.042 45.8783 105.282 46.8678 105.282 48.1027Z" fill="#383838"/>
<path d="M115.039 44.6118H116.654V45.2371C116.836 45.0234 117.097 44.7938 117.327 44.6592C117.643 44.4772 117.952 44.4297 118.316 44.4297C118.712 44.4297 119.14 44.493 119.583 44.7622L118.926 46.2266C118.562 45.997 118.269 45.9812 118.103 45.9812C117.762 45.9812 117.414 46.0287 117.097 46.3612C116.654 46.8361 116.654 47.5011 116.654 47.9602V51.554H115.039V44.6197V44.6118Z" fill="#383838"/>
<path d="M124.426 44.6172V48.5831C124.426 48.9947 124.442 49.4696 124.727 49.8338C124.941 50.1108 125.321 50.3087 125.78 50.3087C126.239 50.3087 126.619 50.1108 126.833 49.8338C127.118 49.4696 127.134 48.9947 127.134 48.5831V44.6172H128.748V48.6385C128.748 49.5251 128.646 50.2692 128.004 50.9103C127.379 51.5357 126.524 51.7653 125.748 51.7653C125.044 51.7653 124.181 51.5515 123.556 50.9103C122.914 50.2692 122.812 49.5251 122.812 48.6385V44.6172H124.426Z" fill="#383838"/>
<path d="M133.081 44.6118H134.696V45.2529C135.385 44.4772 136.176 44.4297 136.572 44.4297C137.854 44.4297 138.401 45.0709 138.614 45.3717C138.876 45.7516 139.042 46.2266 139.042 47.2953V51.5461H137.427V47.691C137.427 45.9258 136.77 45.8783 136.153 45.8783C135.432 45.8783 134.688 45.9812 134.688 48.2214V51.5461H133.073V44.6118H133.081Z" fill="#383838"/>
<path d="M150.436 48.0868C150.436 50.2083 148.821 51.7598 146.731 51.7598C144.641 51.7598 143.019 50.2162 143.019 48.0868C143.019 45.9575 144.633 44.4297 146.731 44.4297C148.829 44.4297 150.436 45.9416 150.436 48.0868ZM148.789 48.1027C148.789 46.5195 147.752 45.8783 146.731 45.8783C145.71 45.8783 144.673 46.5195 144.673 48.1027C144.673 49.4325 145.465 50.3112 146.731 50.3112C147.998 50.3112 148.789 49.4405 148.789 48.1027Z" fill="#383838"/>
<path d="M156.045 44.6172V48.5831C156.045 48.9947 156.06 49.4696 156.345 49.8338C156.559 50.1108 156.939 50.3087 157.398 50.3087C157.857 50.3087 158.237 50.1108 158.451 49.8338C158.736 49.4696 158.752 48.9947 158.752 48.5831V44.6172H160.367V48.6385C160.367 49.5251 160.264 50.2692 159.623 50.9103C158.997 51.5357 158.142 51.7653 157.366 51.7653C156.662 51.7653 155.799 51.5515 155.174 50.9103C154.533 50.2692 154.43 49.5251 154.43 48.6385V44.6172H156.045Z" fill="#383838"/>
<path d="M170.082 46.7331C169.338 46.0128 168.617 45.8782 168.119 45.8782C167.359 45.8782 166.884 46.1948 166.583 46.4877C166.29 46.7885 165.989 47.311 165.989 48.0867C165.989 48.8625 166.306 49.4404 166.615 49.7491C166.979 50.0974 167.485 50.3111 168.079 50.3111C168.736 50.3111 169.512 50.0499 170.074 49.4245V51.2214C169.678 51.4668 169.037 51.7676 167.968 51.7676C166.82 51.7676 165.989 51.4431 165.332 50.7465C164.841 50.232 164.343 49.4166 164.343 48.1422C164.343 46.8677 164.889 45.9653 165.396 45.4587C165.942 44.9125 166.813 44.4375 168.182 44.4375C168.712 44.4375 169.338 44.5167 170.074 44.9283V46.741L170.082 46.7331Z" fill="#383838"/>
<path d="M173.94 39.5391H175.554V45.2069C176.243 44.5023 177.003 44.4311 177.415 44.4311C178.681 44.4311 179.259 45.0881 179.457 45.3731C179.884 45.9985 179.9 46.8059 179.9 47.2967V51.5475H178.285V47.4471C178.285 47.0354 178.285 46.5921 177.969 46.2438C177.787 46.046 177.478 45.8797 177.066 45.8797C176.52 45.8797 176.093 46.1409 175.879 46.4576C175.649 46.79 175.546 47.3125 175.546 48.207V51.5475H173.932V39.5391H173.94Z" fill="#383838"/>
<path d="M185.056 40.7109C185.649 40.7109 186.093 41.1542 186.093 41.7479C186.093 42.3416 185.649 42.7849 185.056 42.7849C184.462 42.7849 184.019 42.3416 184.019 41.7479C184.019 41.1542 184.462 40.7109 185.056 40.7109ZM185.863 44.6135V51.5478H184.248V44.6135H185.863Z" fill="#383838"/>
<path d="M78.3583 40.3986C75.1524 40.3986 72.833 42.7576 72.833 46.0031C72.833 49.2486 75.0257 51.5918 78.1604 51.5918C79.1182 51.5918 80.1711 51.3701 80.931 51.006L81.0181 50.9664L80.5035 49.969L80.4244 50.0086C79.8465 50.2856 78.9758 50.4598 78.1604 50.4598C75.7461 50.4598 73.9887 48.5837 73.9887 46.0031C73.9887 43.4225 75.8648 41.5227 78.3504 41.5227C80.836 41.5227 82.6013 43.193 82.6013 45.5757C82.6013 47.1905 82.1105 48.2354 81.2318 48.2592C80.931 48.2592 80.7489 47.9029 80.7489 47.5467V43.3275H79.514V43.945C79.0074 43.288 78.3267 43.185 77.9309 43.185C76.5297 43.185 75.3344 44.2458 75.3344 45.9794C75.3344 47.4517 76.2685 48.8133 77.915 48.8133C78.2633 48.8133 78.8412 48.7183 79.3557 48.2275C79.4745 48.1008 79.5853 47.9979 79.617 47.9267C79.7357 48.7499 80.2661 49.2961 81.2318 49.2961C82.3875 49.2961 83.7649 48.5362 83.7649 45.5677C83.7649 42.5993 81.5405 40.3828 78.3504 40.3828L78.3583 40.3986ZM78.0892 47.713C77.1947 47.713 76.6089 46.9372 76.6089 46.0189C76.6089 45.1007 77.1947 44.3091 78.0892 44.3091C78.8729 44.3091 79.5932 44.8711 79.5932 46.0348C79.5932 47.1984 78.8729 47.7209 78.0892 47.7209V47.713Z" fill="#383838"/>
<path d="M163.716 22.1703L168.679 6.14844H172.977L165.679 29.4608H162.211L157.312 13.6369L152.412 29.4608H148.913L141.614 6.14844H145.913L150.876 22.1703L155.673 6.91628H158.934L163.7 22.1703H163.716Z" fill="#383838"/>
<path d="M193.217 26.6016C190.954 29.1347 188.191 29.8313 185.587 29.8313C179.523 29.8313 175.897 25.897 175.897 21.1079C175.897 16.3188 179.792 12.25 185.12 12.25C189.687 12.25 193.977 15.1156 193.977 21.6066H179.99C179.99 24.2743 182.151 26.372 185.784 26.372C187.882 26.372 189.45 25.6042 190.882 24.3059L193.217 26.6016ZM180.196 18.844H189.79C189.157 16.2475 186.861 15.5114 185.127 15.5114C183.394 15.5114 181.067 16.2475 180.196 18.844Z" fill="#383838"/>
<path d="M216.375 26.6016C214.111 29.1347 211.348 29.8313 208.744 29.8313C202.68 29.8313 199.055 25.897 199.055 21.1079C199.055 16.3188 202.949 12.25 208.285 12.25C212.844 12.25 217.143 15.1156 217.143 21.6066H203.155C203.155 24.2743 205.316 26.372 208.95 26.372C211.047 26.372 212.615 25.6042 214.047 24.3059L216.383 26.6016H216.375ZM203.353 18.844H212.947C212.314 16.2475 210.018 15.5114 208.285 15.5114C206.551 15.5114 204.224 16.2475 203.353 18.844Z" fill="#383838"/>
<path d="M232.719 12.6179H237.246V13.1166L231.381 20.3438L233.914 24.278C234.777 25.5446 235.315 26.1462 236.542 26.1462C236.906 26.1462 237.888 26.0195 238.553 25.5208C238.553 25.5208 238.743 26.3124 239.162 27.1673C239.582 28.0222 240.001 28.3785 240.001 28.3785C238.6 29.74 236.803 29.8429 235.972 29.8429C233.407 29.8429 231.974 28.4418 230.811 26.7794L227.415 21.3175V29.4788H223.314V5.39062H227.415V19.5839L232.711 12.6258L232.719 12.6179Z" fill="#383838"/>
</svg>
