<svg width="320" height="254" viewBox="0 0 320 254" fill="none" xmlns="http://www.w3.org/2000/svg">
<path d="M275.047 62.2658H265.225C264.876 62.2658 264.543 62.0827 264.343 61.783C264.16 61.4834 264.143 61.1005 264.293 60.7842C264.326 60.7343 266.84 55.6902 267.373 53.2097C267.989 50.3797 268.472 46.5176 267.573 39.3593C267.456 38.4603 267.306 37.3949 267.107 36.2463H256.669L258.001 61.2004C258.001 61.4834 257.917 61.7664 257.718 61.9661C257.518 62.1659 257.251 62.2824 256.968 62.2824H255.171C255.054 62.2824 254.937 62.2658 254.838 62.2325C254.272 62.0327 249.211 60.1849 248.661 56.9886C248.179 54.2252 248.628 39.9253 248.661 39.326C248.661 39.1429 248.728 38.9598 248.828 38.8099C248.878 38.7433 253.339 31.7682 253.123 27.5898C252.94 23.9107 252.74 16.6859 252.673 14.039H247.213C247.729 16.6193 248.129 19.6158 248.029 22.4957C247.896 26.4078 246.198 30.1368 244.3 33.1C245.548 36.1131 247.246 38.76 247.28 38.8099C247.38 38.9598 247.43 39.1429 247.446 39.326C247.463 39.9253 247.912 54.2252 247.446 56.9886C247.213 58.3038 246.231 59.519 244.5 60.6344C244.283 60.7842 244.017 60.8341 243.751 60.7842C242.419 60.5345 241.054 60.2681 240.121 59.8852C238.44 59.2027 237.358 57.3549 237.358 55.1575V38.7101C237.358 38.4271 237.475 38.1607 237.691 37.9609C237.741 37.9276 239.905 35.8634 242.003 32.8003C241.337 30.9858 240.871 29.0713 240.954 27.4566C241.187 22.9452 241.42 13.0568 241.42 12.9569C241.42 12.3909 241.886 11.9581 242.452 11.9581H244.649C244.267 10.4598 243.9 9.24458 243.684 8.5454H229.467C228.818 10.593 226.987 16.8357 227.153 22.4125C227.403 30.3698 235.377 37.911 235.444 37.9776C235.643 38.1773 235.777 38.4437 235.777 38.7267V55.1741C235.777 57.3715 234.695 59.2194 233.013 59.9019C231.981 60.3181 230.4 60.6177 228.851 60.9007L228.002 61.0672C227.436 61.1671 226.904 60.8008 226.804 60.2515C226.704 59.6855 227.07 59.1528 227.619 59.0529L228.485 58.8864C229.867 58.6367 231.415 58.3371 232.247 58.0041C233.263 57.5879 233.729 56.2895 233.729 55.1907V39.1928C232.131 37.6113 225.355 30.4364 225.106 22.4957C224.873 15.3541 227.636 7.51327 227.753 7.19698C227.902 6.7808 228.285 6.51444 228.718 6.51444H244.416C244.849 6.51444 245.232 6.7808 245.382 7.19698C245.432 7.36345 246.114 9.26123 246.764 11.9914H253.689C254.255 11.9914 254.704 12.4408 254.721 12.9902C254.721 13.0901 254.954 22.9951 255.187 27.4899C255.42 31.9014 251.575 38.3438 250.726 39.6922C250.593 43.9706 250.359 54.5914 250.726 56.6557C250.975 58.1373 253.656 59.6189 255.404 60.2515H255.936L254.604 35.2974C254.604 35.0144 254.688 34.7314 254.888 34.5316C255.087 34.3319 255.354 34.2153 255.637 34.2153H266.807C266.407 31.918 265.941 29.371 265.475 26.8573C264.526 21.7466 263.644 16.9356 263.461 14.7381C263.194 11.3921 263.228 1.62018 263.228 1.204C263.228 0.637996 263.694 0.171875 264.26 0.171875H286.384C286.95 0.171875 287.416 0.637996 287.416 1.204C287.416 1.62018 287.449 11.3754 287.183 14.7381C287.05 16.3696 286.534 19.4659 285.868 23.0451H301.783C302.165 23.0451 302.515 23.2448 302.682 23.5778C302.848 23.9107 302.848 24.3103 302.632 24.6266L291.228 41.9895V58.7532L296.838 59.9185C297.388 60.0351 297.754 60.5844 297.637 61.1338C297.521 61.6831 296.972 62.0494 296.422 61.9328L289.996 60.6011C289.514 60.5012 289.181 60.085 289.181 59.5856V41.6733C289.181 41.4735 289.247 41.2737 289.347 41.1072L299.885 25.0927H285.502C285.402 25.6753 285.285 26.258 285.169 26.8573C284.653 29.6374 284.12 32.4674 283.704 34.9644L287.749 41.1239C287.866 41.2904 287.915 41.4901 287.915 41.6899V59.6022C287.915 60.085 287.566 60.5178 287.1 60.6177L284.969 61.0505C284.503 61.1504 284.037 60.9174 283.837 60.4845C282.855 58.4036 281.606 55.5403 281.207 53.6925C280.291 49.4475 280.224 45.0859 280.99 39.1429C281.123 38.0775 281.323 36.8123 281.556 35.4306L274.465 24.6432C274.265 24.3269 274.232 23.9274 274.415 23.5944C274.598 23.2615 274.947 23.0617 275.314 23.0617H283.787C284.453 19.3827 285.002 16.2031 285.135 14.5883C285.335 11.9414 285.368 4.89967 285.352 2.25277H265.275C265.275 4.89967 265.292 11.9414 265.492 14.5883C265.658 16.6859 266.541 21.4469 267.473 26.491C267.956 29.1213 268.455 31.8181 268.871 34.2153H276.462C276.745 34.2153 277.012 34.3319 277.211 34.5316C277.411 34.7314 277.511 35.0144 277.494 35.2974L276.096 61.3335C276.063 61.8829 275.613 62.2991 275.064 62.2991L275.047 62.2658ZM266.857 60.2015H274.065L275.347 36.213H269.187C269.354 37.2618 269.504 38.2273 269.604 39.0763C270.353 45.0193 270.286 49.3809 269.387 53.6259C268.988 55.4904 267.689 58.4369 266.857 60.2015ZM283.188 37.911C283.121 38.4104 283.055 38.8932 282.988 39.326C282.072 46.5009 282.572 50.3464 283.188 53.1764C283.504 54.6747 284.553 57.1052 285.319 58.7865L285.835 58.6866V41.923L283.188 37.8943V37.911ZM239.406 39.1262V55.1242C239.406 56.2229 239.855 57.5214 240.887 57.9375C241.52 58.1872 242.585 58.4203 243.701 58.6367C244.683 57.9375 245.282 57.2217 245.399 56.5891C245.765 54.5082 245.532 43.904 245.399 39.6256C244.999 38.9764 243.934 37.1952 242.935 35.031C241.437 37.0453 240.038 38.5103 239.422 39.1262H239.406ZM277.195 25.0427L282.022 32.4008C282.372 30.4864 282.738 28.4388 283.121 26.4411C283.204 25.975 283.288 25.5089 283.371 25.0594H277.195V25.0427ZM243.434 13.9724C243.368 16.6193 243.185 23.8441 242.985 27.5232C242.935 28.4221 243.101 29.4376 243.401 30.503C244.766 28.0725 245.881 25.2425 245.965 22.3625C246.048 19.5159 245.632 16.5027 245.099 13.9724H243.434Z" fill="#199A68"/>
<path d="M263.06 89.3496C260.313 89.3496 258.732 88.2509 257.067 87.1022C256.401 86.6361 255.718 86.1533 254.886 85.7038C248.127 82.0248 207.641 72.5692 207.242 72.486C206.46 72.3029 205.977 71.5205 206.16 70.738C206.343 69.9556 207.125 69.4728 207.908 69.656C209.589 70.0555 249.193 79.2947 256.284 83.1568C257.25 83.6895 258.032 84.2389 258.732 84.7217C260.23 85.7704 261.212 86.453 263.06 86.453C264.908 86.453 265.89 85.7704 267.388 84.7217C268.087 84.2389 268.87 83.6895 269.835 83.1568C276.927 79.278 316.531 70.0389 318.212 69.656C318.994 69.4728 319.777 69.9556 319.96 70.738C320.143 71.5205 319.66 72.3029 318.878 72.486C318.462 72.5859 277.976 82.0248 271.234 85.7038C270.418 86.1533 269.719 86.6361 269.053 87.1022C267.388 88.2675 265.807 89.3496 263.06 89.3496Z" fill="#199A68"/>
<path d="M258.788 77.4999C258.654 77.4999 258.521 77.4832 258.388 77.4167C245.67 72.4225 224.994 66.5794 213.141 64.0323C212.558 63.8992 212.176 63.3165 212.309 62.7339C212.442 62.1512 213.025 61.7683 213.607 61.9015C225.543 64.4652 246.369 70.3583 259.187 75.3857C259.753 75.6021 260.02 76.2347 259.803 76.8007C259.637 77.2335 259.22 77.4999 258.788 77.4999Z" fill="#199A68"/>
<path d="M258.424 81.2889C258.291 81.2889 258.157 81.2723 258.041 81.2223C244.856 76.2282 223.465 70.385 211.179 67.838C210.58 67.7215 210.214 67.1388 210.33 66.5395C210.447 65.9402 211.029 65.5573 211.629 65.6905C223.981 68.2542 245.539 74.1473 258.807 79.1747C259.373 79.3911 259.656 80.0237 259.439 80.5897C259.273 81.0226 258.857 81.2889 258.424 81.2889Z" fill="#199A68"/>
<path d="M267.367 77.495C266.934 77.495 266.518 77.2286 266.351 76.7958C266.135 76.2298 266.401 75.5972 266.967 75.3808C279.786 70.3534 300.611 64.4603 312.547 61.8966C313.147 61.7801 313.713 62.1463 313.846 62.7289C313.979 63.3116 313.596 63.8943 313.013 64.0274C301.161 66.5744 280.485 72.4176 267.766 77.4117C267.633 77.4617 267.5 77.495 267.367 77.495Z" fill="#199A68"/>
<path d="M267.712 81.2889C267.263 81.2889 266.863 81.0226 266.697 80.5897C266.48 80.0237 266.763 79.3911 267.329 79.1747C280.614 74.1473 302.155 68.2542 314.507 65.6905C315.09 65.5573 315.673 65.9402 315.806 66.5395C315.922 67.1222 315.556 67.7048 314.957 67.838C302.688 70.385 281.28 76.2282 268.095 81.2223C267.962 81.2723 267.829 81.2889 267.712 81.2889Z" fill="#199A68"/>
<path d="M47.5776 0.921875V8.79598H82.8529V17.8687H47.5776V22.5465H74.879V55.9907H53.8869C62.6932 62.9492 70.3842 66.5284 86.0492 72.0219C83.2025 74.7687 80.9219 77.7985 79.5402 81.5607C68.6363 77.7985 58.1819 72.8543 47.561 63.1323V83.8414H37.1065V63.3154C30.6974 68.5427 22.6235 75.1349 6.95852 82.0102C5.22721 78.531 3.11302 75.3181 0 72.3882C9.62206 69.3584 19.2441 64.5973 29.8817 55.9907H11.8361V22.5632H37.1232V17.8853H3.04643V8.81263H37.1398V0.921875H47.5942H47.5776ZM21.7412 30.5205V35.0153H37.1398V30.5205H21.7412ZM21.7412 42.8061V47.6671H37.1398V42.8061H21.7412ZM47.5776 30.5205V35.0153H64.4412V30.5205H47.5776ZM47.5776 42.8061V47.6671H64.4412V42.8061H47.5776Z" fill="#383838"/>
<path d="M187.513 22.0912V33.095H154.618C159.196 47.2118 167.902 58.9314 178.54 67.4548C181.02 69.2859 183.95 71.4001 189.993 74.5964C186.597 77.2599 183.584 80.7392 181.02 84.5847C173.146 79.6405 157.747 69.4691 147.659 43.9823C139.319 67.4381 125.302 77.3432 111.285 85.0342C109.271 81.3718 106.89 77.8925 103.777 75.0459C112.95 71.0172 121.64 65.1408 128.698 56.168C135.39 47.4615 137.505 38.5719 138.603 33.0784H107.623V22.0746H139.885C140.351 16.2148 140.351 9.3395 140.351 1.26562H152.903C152.72 9.13973 152.437 16.3813 152.071 22.0746H187.529L187.513 22.0912Z" fill="#383838"/>
<path d="M44.9151 252.956L50.7582 223.008H51.8902L61.3625 244.166L70.918 223.008H72.0333L77.2938 252.956H72.6992L69.6861 235.177L61.7121 252.956H60.4968L52.6061 235.127L49.5097 252.956H44.8984H44.9151Z" fill="#383838"/>
<path d="M102.54 234.334H106.868V252.962H102.54V251.015C100.642 253.229 98.295 253.529 96.9632 253.529C91.2199 253.529 87.9404 248.751 87.9404 243.623C87.9404 237.564 92.1022 233.852 97.0131 233.852C98.3782 233.852 100.775 234.201 102.54 236.498V234.334ZM92.3519 243.723C92.3519 246.953 94.3995 249.65 97.5292 249.65C100.276 249.65 102.79 247.652 102.79 243.757C102.79 239.861 100.276 237.73 97.5292 237.73C94.3995 237.73 92.3519 240.394 92.3519 243.707V243.723Z" fill="#383838"/>
<path d="M118.567 234.334H122.896V236.016C123.378 235.45 124.094 234.817 124.71 234.467C125.559 233.985 126.392 233.852 127.374 233.852C128.439 233.852 129.588 234.035 130.786 234.734L129.022 238.663C128.056 238.047 127.257 237.997 126.808 237.997C125.892 237.997 124.96 238.13 124.111 239.012C122.912 240.294 122.912 242.059 122.912 243.307V252.946H118.584V234.318L118.567 234.334Z" fill="#383838"/>
<path d="M143.754 234.328V244.999C143.754 246.114 143.804 247.38 144.553 248.362C145.119 249.111 146.135 249.644 147.383 249.644C148.632 249.644 149.647 249.111 150.213 248.362C150.962 247.38 151.012 246.098 151.012 244.999V234.328H155.34V245.132C155.34 247.513 155.074 249.51 153.359 251.242C151.678 252.923 149.364 253.539 147.3 253.539C145.402 253.539 143.088 252.973 141.407 251.242C139.692 249.51 139.426 247.529 139.426 245.132V234.328H143.754Z" fill="#383838"/>
<path d="M167.027 234.334H171.356V236.066C173.22 233.985 175.351 233.852 176.4 233.852C179.846 233.852 181.311 235.583 181.877 236.382C182.592 237.397 183.025 238.679 183.025 241.559V252.979H178.697V242.625C178.697 237.897 176.932 237.764 175.284 237.764C173.337 237.764 171.356 238.03 171.356 244.056V252.996H167.027V234.368V234.334Z" fill="#383838"/>
<path d="M213.663 243.673C213.663 249.383 209.318 253.529 203.708 253.529C198.098 253.529 193.753 249.367 193.753 243.673C193.753 237.98 198.098 233.852 203.708 233.852C209.318 233.852 213.663 237.913 213.663 243.673ZM209.235 243.723C209.235 239.478 206.455 237.747 203.708 237.747C200.961 237.747 198.181 239.478 198.181 243.723C198.181 247.302 200.295 249.65 203.708 249.65C207.121 249.65 209.235 247.302 209.235 243.723Z" fill="#383838"/>
<path d="M228.7 234.328V244.999C228.7 246.114 228.75 247.38 229.499 248.362C230.065 249.111 231.081 249.644 232.329 249.644C233.578 249.644 234.593 249.111 235.159 248.362C235.909 247.38 235.959 246.098 235.959 244.999V234.328H240.287V245.132C240.287 247.513 240.02 249.51 238.306 251.242C236.624 252.923 234.31 253.539 232.246 253.539C230.348 253.539 228.034 252.973 226.353 251.242C224.638 249.51 224.372 247.529 224.372 245.132V234.328H228.7Z" fill="#383838"/>
<path d="M266.403 240.044C264.422 238.097 262.475 237.747 261.143 237.747C259.112 237.747 257.83 238.596 257.031 239.378C256.249 240.177 255.45 241.592 255.45 243.673C255.45 245.754 256.299 247.302 257.131 248.135C258.097 249.067 259.478 249.633 261.076 249.633C262.841 249.633 264.922 248.917 266.42 247.253V252.08C265.355 252.746 263.64 253.545 260.76 253.545C257.664 253.545 255.45 252.663 253.685 250.798C252.353 249.433 251.021 247.219 251.021 243.807C251.021 240.394 252.486 237.963 253.851 236.598C255.316 235.133 257.664 233.852 261.326 233.852C262.741 233.852 264.422 234.068 266.42 235.183V240.044H266.403Z" fill="#383838"/>
<path d="M276.779 220.695H281.108V235.911C282.972 234.013 285.003 233.83 286.118 233.83C289.531 233.83 291.063 235.595 291.595 236.36C292.744 238.042 292.794 240.206 292.794 241.538V252.958H288.466V241.937C288.466 240.838 288.466 239.64 287.617 238.708C287.134 238.175 286.285 237.725 285.186 237.725C283.721 237.725 282.573 238.441 282.007 239.274C281.391 240.156 281.124 241.571 281.124 243.968V252.958H276.796V220.695H276.779Z" fill="#383838"/>
<path d="M306.649 223.844C308.231 223.844 309.429 225.042 309.429 226.624C309.429 228.205 308.231 229.404 306.649 229.404C305.068 229.404 303.869 228.205 303.869 226.624C303.869 225.042 305.051 223.844 306.649 223.844ZM308.813 234.331V252.96H304.485V234.331H308.813Z" fill="#383838"/>
<path d="M20.0026 223.008C11.396 223.008 5.15332 229.334 5.15332 238.073C5.15332 246.813 11.0464 253.073 19.4699 253.073C22.0335 253.073 24.8802 252.473 26.9112 251.491L27.1442 251.375L25.7792 248.711L25.5627 248.811C23.9979 249.56 21.6673 250.026 19.4865 250.026C12.9941 250.026 8.28299 244.982 8.28299 238.057C8.28299 231.132 13.3271 226.021 20.0026 226.021C26.6781 226.021 31.4225 230.499 31.4225 236.908C31.4225 241.253 30.1074 244.05 27.7435 244.116C26.9278 244.116 26.445 243.168 26.445 242.202V230.882H23.1323V232.547C21.7672 230.782 19.936 230.499 18.8706 230.499C15.0917 230.499 11.8954 233.362 11.8954 238.007C11.8954 241.952 14.4091 245.631 18.8373 245.631C19.7695 245.631 21.3177 245.365 22.6994 244.066C23.0157 243.734 23.3154 243.451 23.3986 243.267C23.7149 245.481 25.1466 246.946 27.7269 246.946C30.8399 246.946 34.5356 244.899 34.5356 236.925C34.5356 228.951 28.5592 223.008 20.0026 223.008ZM19.2868 242.668C16.8729 242.668 15.3081 240.587 15.3081 238.107C15.3081 235.626 16.8729 233.512 19.2868 233.512C21.401 233.512 23.332 235.01 23.332 238.14C23.332 241.27 21.401 242.668 19.2868 242.668Z" fill="#383838"/>
<path d="M72.6106 170.413L87.9426 120.954H101.21L78.6868 192.936H67.9993L52.8837 144.094L37.7681 192.936H26.964L4.44043 120.938H17.7082L33.0403 170.396L47.8562 123.301H57.9278L72.6272 170.396L72.6106 170.413Z" fill="#383838"/>
<path d="M163.71 184.074C156.718 191.881 148.178 194.045 140.154 194.045C121.443 194.045 110.223 181.909 110.223 167.093C110.223 152.278 122.259 139.742 138.706 139.742C152.789 139.742 166.057 148.582 166.057 168.642H122.858C122.858 176.865 129.55 183.341 140.754 183.341C147.229 183.341 152.074 180.977 156.485 176.965L163.677 184.057L163.71 184.074ZM123.507 160.118H153.122C151.175 152.094 144.066 149.83 138.723 149.83C133.379 149.83 126.171 152.094 123.507 160.118Z" fill="#383838"/>
<path d="M235.181 184.074C228.189 191.881 219.649 194.045 211.625 194.045C192.914 194.045 181.693 181.909 181.693 167.093C181.693 152.278 193.729 139.742 210.177 139.742C224.26 139.742 237.528 148.582 237.528 168.642H194.329C194.329 176.865 201.021 183.341 212.224 183.341C218.7 183.341 223.544 180.977 227.956 176.965L235.147 184.057L235.181 184.074ZM194.978 160.118H224.593C222.645 152.094 215.537 149.83 210.193 149.83C204.85 149.83 197.641 152.094 194.978 160.118Z" fill="#383838"/>
<path d="M285.693 140.892H299.676V142.44L281.581 164.764L289.405 176.9C292.085 180.812 293.717 182.66 297.529 182.66C298.661 182.66 301.691 182.277 303.755 180.729C303.755 180.729 304.338 183.176 305.636 185.806C306.935 188.42 308.233 189.552 308.233 189.552C303.921 193.763 298.361 194.08 295.781 194.08C287.857 194.08 283.445 189.768 279.833 184.624L269.345 167.761V192.964H256.693V118.602H269.345V162.417L285.693 140.925V140.892Z" fill="#383838"/>
</svg>
