<svg width="27" height="123" viewBox="0 0 27 123" fill="none" xmlns="http://www.w3.org/2000/svg">
<path d="M10 44.566H20.276V47.506C20.276 49.802 19.492 51.342 17.252 51.342C15.082 51.342 14.074 49.816 14.074 47.562V45.868H10V44.566ZM15.124 45.868V47.394C15.124 49.2 15.782 50.054 17.252 50.054C18.736 50.054 19.212 49.144 19.212 47.338V45.868H15.124ZM15.74 54.4104L14.172 53.9064V57.0144L15.74 56.5244C16.902 56.1464 18.022 55.8244 19.212 55.4884V55.4324C18.008 55.1104 16.902 54.7744 15.74 54.4104ZM10 51.2744L20.276 54.7604V56.2024L10 59.6884V58.3164L13.136 57.3364V53.5844L10 52.5904V51.2744ZM9.818 65.0179C9.818 62.3299 11.792 60.3979 15.124 60.3979C18.442 60.3979 20.458 62.3859 20.458 65.1019C20.458 66.5299 19.814 67.4679 19.184 68.0559L18.344 67.3559C18.89 66.8379 19.324 66.1799 19.324 65.1299C19.324 63.0719 17.728 61.7279 15.166 61.7279C12.576 61.7279 10.952 62.9459 10.952 65.1579C10.952 65.8859 11.176 66.5999 11.554 67.0059H14.242V64.8359H15.32V68.1959H11.008C10.322 67.5379 9.818 66.4039 9.818 65.0179ZM10 70.6383H20.276V76.5603H19.17V71.9403H15.95V75.8323H14.844V71.9403H11.106V76.7143H10L10 70.6383ZM10 84.1416H19.17V81.0336H20.276V88.5516H19.17V85.4436H10V84.1416ZM9.818 93.7917C9.818 91.2157 11.876 89.4097 15.166 89.4097C18.456 89.4097 20.458 91.2157 20.458 93.7917C20.458 96.3677 18.456 98.1737 15.166 98.1737C11.876 98.1737 9.818 96.3677 9.818 93.7917ZM10.952 93.7917C10.952 95.6257 12.604 96.8437 15.166 96.8437C17.742 96.8437 19.324 95.6257 19.324 93.7917C19.324 91.9437 17.742 90.7397 15.166 90.7397C12.604 90.7397 10.952 91.9437 10.952 93.7917ZM10 100.388H20.276V103.328C20.276 105.624 19.492 107.164 17.252 107.164C15.082 107.164 14.074 105.638 14.074 103.384V101.69H10V100.388ZM15.124 101.69V103.216C15.124 105.022 15.782 105.876 17.252 105.876C18.736 105.876 19.212 104.966 19.212 103.16V101.69H15.124Z" fill="#383838"/>
<path d="M1.5 122.5V0.5L12.5 21" stroke="#308ECA" stroke-width="2"/>
</svg>
