<svg width="191" height="206" viewBox="0 0 191 206" fill="none" xmlns="http://www.w3.org/2000/svg">
<path d="M155.974 147.887L120.189 180.573L36.6172 205.84L72.402 173.153L155.974 147.887Z" fill="url(#paint0_linear_7_6385)"/>
<path d="M72.4043 173.153L36.6195 205.84L0 116.981L35.7848 84.3125L72.4043 173.153Z" fill="url(#paint1_linear_7_6385)"/>
<path d="M119.38 59.0273L155.98 147.886L72.4086 173.153L35.7891 84.3123L119.38 59.0273Z" fill="url(#paint2_linear_7_6385)"/>
<path d="M179.157 5.96484L190.369 32.077L173.368 59.1225L162.156 33.0215L179.157 5.96484Z" fill="url(#paint3_linear_7_6385)"/>
<path d="M162.156 33.0249L173.368 59.1259L141.844 53.159L130.633 27.0469L162.156 33.0249Z" fill="url(#paint4_linear_7_6385)"/>
<path d="M130.633 27.0455L147.633 0L179.157 5.96692L162.156 33.0236L130.633 27.0455Z" fill="url(#paint5_linear_7_6385)"/>
<defs>
<linearGradient id="paint0_linear_7_6385" x1="36.6172" y1="176.863" x2="155.974" y2="176.863" gradientUnits="userSpaceOnUse">
<stop stop-color="#E2C060"/>
<stop offset="1" stop-color="#F6A532"/>
</linearGradient>
<linearGradient id="paint1_linear_7_6385" x1="0" y1="145.067" x2="72.4043" y2="145.067" gradientUnits="userSpaceOnUse">
<stop stop-color="#7BDEC6"/>
<stop offset="0.99" stop-color="#E2E758"/>
</linearGradient>
<linearGradient id="paint2_linear_7_6385" x1="35.7891" y1="116.09" x2="155.98" y2="116.09" gradientUnits="userSpaceOnUse">
<stop stop-color="#F8C64C"/>
<stop offset="0.22" stop-color="#F8A443"/>
<stop offset="1" stop-color="#FA3526"/>
</linearGradient>
<linearGradient id="paint3_linear_7_6385" x1="189.946" y1="34.8285" x2="162.664" y2="30.2239" gradientUnits="userSpaceOnUse">
<stop stop-color="#FC674B"/>
<stop offset="1" stop-color="#FF5E48"/>
</linearGradient>
<linearGradient id="paint4_linear_7_6385" x1="175.448" y1="47.023" x2="128.63" y2="39.1212" gradientUnits="userSpaceOnUse">
<stop stop-color="#F9A050"/>
<stop offset="1" stop-color="#3BA0DE"/>
</linearGradient>
<linearGradient id="paint5_linear_7_6385" x1="176.8" y1="20.1824" x2="133.072" y2="12.8021" gradientUnits="userSpaceOnUse">
<stop stop-color="#046FB0"/>
<stop offset="1" stop-color="#80C7F9"/>
</linearGradient>
</defs>
</svg>
