<svg width="293" height="327" viewBox="0 0 293 327" fill="none" xmlns="http://www.w3.org/2000/svg">
<path d="M223.865 206.429L229.604 248.668L149.478 289.226L143.738 246.987L223.865 206.429Z" fill="url(#paint0_linear_7_6394)"/>
<path d="M143.737 246.986L149.477 289.225L106.54 218.985L100.805 176.738L143.737 246.986Z" fill="url(#paint1_linear_7_6394)"/>
<path d="M180.927 136.175L223.868 206.426L143.741 246.985L100.808 176.737L180.927 136.175Z" fill="url(#paint2_linear_7_6394)"/>
<path style="mix-blend-mode:multiply" opacity="0.64" d="M107.2 208.883C135.857 221.304 164.294 219.363 170.715 204.549C177.136 189.734 159.109 167.656 130.452 155.235C101.794 142.815 73.3574 144.756 66.9367 159.57C60.5159 174.385 78.5424 196.463 107.2 208.883Z" fill="url(#paint3_radial_7_6394)"/>
<path d="M174.461 47.5469L183.682 104.209L140.317 192.283L131.101 135.614L174.461 47.5469Z" fill="url(#paint4_linear_7_6394)"/>
<path d="M131.11 135.614L140.326 192.284L42.951 156.35L33.7228 99.6845L131.11 135.614Z" fill="url(#paint5_linear_7_6394)"/>
<path d="M174.469 47.5477L131.109 135.615L33.7222 99.6849L77.09 11.622L174.469 47.5477Z" fill="url(#paint6_linear_7_6394)"/>
<path style="mix-blend-mode:multiply" opacity="0.64" d="M117.964 244.719C125.48 241.733 126.89 227.525 121.114 212.986C115.337 198.446 104.562 189.08 97.046 192.066C89.5302 195.052 88.1203 209.259 93.8967 223.799C99.6732 238.339 110.449 247.705 117.964 244.719Z" fill="url(#paint7_radial_7_6394)"/>
<path d="M49.8071 244.8L41.6786 212.394L78.855 187.134L86.9871 219.551L49.8071 244.8Z" fill="url(#paint8_linear_7_6394)"/>
<path d="M86.9837 219.55L78.8516 187.133L107.933 209.317L116.065 241.734L86.9837 219.55Z" fill="url(#paint9_linear_7_6394)"/>
<path d="M78.8848 266.992L49.8076 244.801L86.9876 219.552L116.069 241.735L78.8848 266.992Z" fill="url(#paint10_linear_7_6394)"/>
<path style="mix-blend-mode:multiply" opacity="0.64" d="M179.787 136.784C187.644 132.946 189.305 120.198 183.498 108.311C177.691 96.4239 166.614 89.8992 158.757 93.7375C150.9 97.5759 149.239 110.324 155.046 122.211C160.854 134.098 171.931 140.623 179.787 136.784Z" fill="url(#paint11_radial_7_6394)"/>
<path d="M207.216 94.9217L205.588 116.748L184.354 129.179L185.978 107.359L207.216 94.9217Z" fill="url(#paint12_linear_7_6394)"/>
<path d="M185.98 107.359L184.356 129.178L164.942 113.889L166.57 92.0625L185.98 107.359Z" fill="url(#paint13_linear_7_6394)"/>
<path d="M166.568 92.0627L187.802 79.6326L207.216 94.9212L185.978 107.359L166.568 92.0627Z" fill="url(#paint14_linear_7_6394)"/>
<path style="mix-blend-mode:overlay" d="M156.849 221.366C180.532 189.895 174.218 145.183 142.747 121.5C111.276 97.8174 66.5647 104.131 42.8818 135.602C19.1988 167.073 25.5124 211.785 56.9836 235.468C88.4549 259.151 133.166 252.837 156.849 221.366Z" fill="url(#paint15_radial_7_6394)"/>
<path style="mix-blend-mode:overlay" d="M160.048 292.633C196.019 311.361 240.361 297.382 259.089 261.411C277.816 225.439 263.837 181.097 227.866 162.37C191.895 143.642 147.553 157.621 128.825 193.593C110.098 229.564 124.077 273.906 160.048 292.633Z" fill="url(#paint16_radial_7_6394)"/>
<path style="mix-blend-mode:overlay" d="M233.489 180.019C251.398 159.507 249.287 128.361 228.774 110.452C208.262 92.5439 177.116 94.655 159.207 115.167C141.299 135.68 143.41 166.826 163.922 184.735C184.435 202.643 215.581 200.532 233.489 180.019Z" fill="url(#paint17_radial_7_6394)"/>
<defs>
<linearGradient id="paint0_linear_7_6394" x1="152.551" y1="230.059" x2="220.795" y2="265.588" gradientUnits="userSpaceOnUse">
<stop stop-color="#89FEC6"/>
<stop offset="1" stop-color="#F3B25D"/>
</linearGradient>
<linearGradient id="paint1_linear_7_6394" x1="82.957" y1="211.02" x2="167.325" y2="254.943" gradientUnits="userSpaceOnUse">
<stop stop-color="#FC674B"/>
<stop offset="1" stop-color="#FF5E48"/>
</linearGradient>
<linearGradient id="paint2_linear_7_6394" x1="107.847" y1="163.217" x2="216.825" y2="219.954" gradientUnits="userSpaceOnUse">
<stop stop-color="#E2C060"/>
<stop offset="1" stop-color="#F6A532"/>
</linearGradient>
<radialGradient id="paint3_radial_7_6394" cx="0" cy="0" r="1" gradientUnits="userSpaceOnUse" gradientTransform="translate(119.989 182.002) rotate(-156.568) scale(50.4108 24.8176)">
<stop stop-color="#897465"/>
<stop offset="0.14" stop-color="#907D6F" stop-opacity="0.94"/>
<stop offset="0.35" stop-color="#A6968B" stop-opacity="0.78"/>
<stop offset="0.61" stop-color="#C9C0B9" stop-opacity="0.51"/>
<stop offset="0.89" stop-color="#FAF9F9" stop-opacity="0.13"/>
<stop offset="0.92" stop-color="white" stop-opacity="0.1"/>
</radialGradient>
<linearGradient id="paint4_linear_7_6394" x1="155.558" y1="93.8995" x2="164.03" y2="214.085" gradientUnits="userSpaceOnUse">
<stop stop-color="#F8C64C"/>
<stop offset="0.22" stop-color="#F8A443"/>
<stop offset="1" stop-color="#FA3526"/>
</linearGradient>
<linearGradient id="paint5_linear_7_6394" x1="26.1269" y1="114.275" x2="147.926" y2="177.686" gradientUnits="userSpaceOnUse">
<stop stop-color="#046FB0"/>
<stop offset="1" stop-color="#699FC6"/>
</linearGradient>
<linearGradient id="paint6_linear_7_6394" x1="77.5744" y1="6.5771" x2="128.694" y2="135.805" gradientUnits="userSpaceOnUse">
<stop stop-color="#49C2FF"/>
<stop offset="0.35" stop-color="#8693D8"/>
<stop offset="1" stop-color="#F8E74C"/>
</linearGradient>
<radialGradient id="paint7_radial_7_6394" cx="0" cy="0" r="1" gradientUnits="userSpaceOnUse" gradientTransform="translate(107.414 217.282) rotate(68.3225) scale(25.2499 12.4307)">
<stop stop-color="#897465"/>
<stop offset="0.14" stop-color="#907D6F" stop-opacity="0.94"/>
<stop offset="0.35" stop-color="#A6968B" stop-opacity="0.78"/>
<stop offset="0.61" stop-color="#C9C0B9" stop-opacity="0.51"/>
<stop offset="0.89" stop-color="#FAF9F9" stop-opacity="0.13"/>
<stop offset="0.92" stop-color="white" stop-opacity="0.1"/>
</radialGradient>
<linearGradient id="paint8_linear_7_6394" x1="86.4756" y1="227.621" x2="45.4078" y2="206.014" gradientUnits="userSpaceOnUse">
<stop stop-color="#49C2FF"/>
<stop offset="0.35" stop-color="#8693D8"/>
<stop offset="1" stop-color="#F8EB4C"/>
</linearGradient>
<linearGradient id="paint9_linear_7_6394" x1="108.203" y1="210.002" x2="86.6794" y2="218.846" gradientUnits="userSpaceOnUse">
<stop stop-color="#017FCB"/>
<stop offset="1" stop-color="#48D8FE"/>
</linearGradient>
<linearGradient id="paint10_linear_7_6394" x1="111.807" y1="231.397" x2="54.0353" y2="255.135" gradientUnits="userSpaceOnUse">
<stop stop-color="#046FB0"/>
<stop offset="1" stop-color="#80C7F9"/>
</linearGradient>
<radialGradient id="paint11_radial_7_6394" cx="0" cy="0" r="1" gradientUnits="userSpaceOnUse" gradientTransform="translate(169.066 112.898) rotate(-116.038) scale(21.7154 13.9599)">
<stop stop-color="#897465"/>
<stop offset="0.14" stop-color="#907D6F" stop-opacity="0.94"/>
<stop offset="0.35" stop-color="#A6968B" stop-opacity="0.78"/>
<stop offset="0.61" stop-color="#C9C0B9" stop-opacity="0.51"/>
<stop offset="0.89" stop-color="#FAF9F9" stop-opacity="0.13"/>
<stop offset="0.92" stop-color="white" stop-opacity="0.1"/>
</radialGradient>
<linearGradient id="paint12_linear_7_6394" x1="204.321" y1="118.478" x2="187.32" y2="105.629" gradientUnits="userSpaceOnUse">
<stop stop-color="#FC674B"/>
<stop offset="1" stop-color="#FF5E48"/>
</linearGradient>
<linearGradient id="paint13_linear_7_6394" x1="190.082" y1="121.649" x2="160.908" y2="99.5991" gradientUnits="userSpaceOnUse">
<stop stop-color="#F9A050"/>
<stop offset="1" stop-color="#3BA0DE"/>
</linearGradient>
<linearGradient id="paint14_linear_7_6394" x1="200.549" y1="103.794" x2="173.301" y2="83.1996" gradientUnits="userSpaceOnUse">
<stop stop-color="#046FB0"/>
<stop offset="1" stop-color="#80C7F9"/>
</linearGradient>
<radialGradient id="paint15_radial_7_6394" cx="0" cy="0" r="1" gradientUnits="userSpaceOnUse" gradientTransform="translate(99.8365 178.507) rotate(27.5025) scale(71.3161)">
<stop stop-color="white"/>
<stop offset="0.07" stop-color="white" stop-opacity="0.88"/>
<stop offset="0.24" stop-color="white" stop-opacity="0.62"/>
<stop offset="0.4" stop-color="white" stop-opacity="0.4"/>
<stop offset="0.55" stop-color="white" stop-opacity="0.22"/>
<stop offset="0.68" stop-color="white" stop-opacity="0.1"/>
<stop offset="0.79" stop-color="white" stop-opacity="0.03"/>
<stop offset="0.87" stop-color="white" stop-opacity="0"/>
</radialGradient>
<radialGradient id="paint16_radial_7_6394" cx="0" cy="0" r="1" gradientUnits="userSpaceOnUse" gradientTransform="translate(193.957 227.502) rotate(27.5025) scale(73.43)">
<stop stop-color="white"/>
<stop offset="0.07" stop-color="white" stop-opacity="0.88"/>
<stop offset="0.24" stop-color="white" stop-opacity="0.62"/>
<stop offset="0.4" stop-color="white" stop-opacity="0.4"/>
<stop offset="0.55" stop-color="white" stop-opacity="0.22"/>
<stop offset="0.68" stop-color="white" stop-opacity="0.1"/>
<stop offset="0.79" stop-color="white" stop-opacity="0.03"/>
<stop offset="0.87" stop-color="white" stop-opacity="0"/>
</radialGradient>
<radialGradient id="paint17_radial_7_6394" cx="0" cy="0" r="1" gradientUnits="userSpaceOnUse" gradientTransform="translate(196.321 147.608) rotate(27.5025) scale(49.3042 49.3042)">
<stop stop-color="white"/>
<stop offset="0.07" stop-color="white" stop-opacity="0.88"/>
<stop offset="0.24" stop-color="white" stop-opacity="0.62"/>
<stop offset="0.4" stop-color="white" stop-opacity="0.4"/>
<stop offset="0.55" stop-color="white" stop-opacity="0.22"/>
<stop offset="0.68" stop-color="white" stop-opacity="0.1"/>
<stop offset="0.79" stop-color="white" stop-opacity="0.03"/>
<stop offset="0.87" stop-color="white" stop-opacity="0"/>
</radialGradient>
</defs>
</svg>
