<svg width="686" height="441" viewBox="0 0 686 441" fill="none" xmlns="http://www.w3.org/2000/svg">
<path style="mix-blend-mode:hard-light" d="M234.266 69.5508H149.594V154.223H234.266V69.5508Z" fill="url(#paint0_linear_254_501)"/>
<path d="M246.874 47.5312H202.859V91.546H246.874V47.5312Z" fill="url(#paint1_linear_254_501)"/>
<path d="M598.502 256.078L636.195 309.431L555.982 421.265L518.289 367.912L598.502 256.078Z" fill="url(#paint2_linear_254_501)"/>
<path d="M518.288 367.909L555.982 421.262L447.912 356.171L410.219 302.805L518.288 367.909Z" fill="url(#paint3_linear_254_501)"/>
<path d="M490.418 190.973L598.501 256.077L518.288 367.91L410.219 302.806L490.418 190.973Z" fill="url(#paint4_linear_254_501)"/>
<path style="mix-blend-mode:multiply" opacity="0.64" d="M441.643 341.976C489.386 338.579 526.666 315.817 524.91 291.136C523.154 266.456 483.026 249.202 435.283 252.599C387.54 255.996 350.26 278.758 352.016 303.439C353.772 328.12 393.899 345.373 441.643 341.976Z" fill="url(#paint5_radial_254_501)"/>
<path d="M418.914 75.0703L471.546 145.565L474.929 295.97L422.298 225.463L418.914 75.0703Z" fill="url(#paint6_linear_254_501)"/>
<path d="M422.295 225.461L474.926 295.968L317.137 316.035L264.492 245.54L422.295 225.461Z" fill="url(#paint7_linear_254_501)"/>
<path d="M418.914 75.0703L422.298 225.463L264.496 245.542L261.125 95.1497L418.914 75.0703Z" fill="url(#paint8_linear_254_501)"/>
<path style="mix-blend-mode:multiply" opacity="0.64" d="M330.655 261.174C336.637 213.686 321.586 172.681 297.036 169.589C272.487 166.496 247.736 202.486 241.754 249.975C235.772 297.464 250.823 338.468 275.372 341.561C299.921 344.653 324.672 308.663 330.655 261.174Z" fill="url(#paint9_radial_254_501)"/>
<path style="mix-blend-mode:multiply" opacity="0.64" d="M309.967 212.709C315.95 165.221 300.898 124.216 276.349 121.124C251.8 118.031 227.049 154.021 221.066 201.51C215.084 248.999 230.135 290.003 254.685 293.096C279.234 296.188 303.985 260.198 309.967 212.709Z" fill="url(#paint10_radial_254_501)"/>
<path style="mix-blend-mode:multiply" opacity="0.64" d="M481.632 383.072C489.735 373.695 481.598 353.385 463.457 337.709C445.315 322.034 424.04 316.928 415.937 326.306C407.834 335.683 415.972 355.993 434.113 371.668C452.254 387.344 473.529 392.45 481.632 383.072Z" fill="url(#paint11_radial_254_501)"/>
<path d="M296.934 220.926L284.684 305.414L172.312 328.995L184.562 244.507L296.934 220.926Z" fill="url(#paint12_linear_254_501)"/>
<path d="M184.566 244.509L172.316 328.997L125.141 248.352L137.39 163.863L184.566 244.509Z" fill="url(#paint13_linear_254_501)"/>
<path d="M249.762 140.281L296.938 220.927L184.566 244.508L137.391 163.862L249.762 140.281Z" fill="url(#paint14_linear_254_501)"/>
<path d="M389.044 431.414L355.062 393.118L387.719 332.473L421.714 370.782L389.044 431.414Z" fill="url(#paint15_linear_254_501)"/>
<path d="M421.713 370.782L387.719 332.473L442.947 342.047L476.942 380.356L421.713 370.782Z" fill="url(#paint16_linear_254_501)"/>
<path d="M444.275 441L389.047 431.413L421.717 370.781L476.945 380.355L444.275 441Z" fill="url(#paint17_linear_254_501)"/>
<path style="mix-blend-mode:multiply" opacity="0.64" d="M255.83 331.376C286.748 314.909 304.91 288.604 296.398 272.621C287.885 256.638 255.921 257.03 225.004 273.497C194.087 289.964 175.924 316.269 184.437 332.252C192.949 348.235 224.913 347.843 255.83 331.376Z" fill="url(#paint18_radial_254_501)"/>
<path d="M335.149 328.363L309.85 351.472L250.766 369.335L276.065 346.226L335.149 328.363Z" fill="url(#paint19_linear_254_501)"/>
<path d="M276.064 346.227L250.764 369.336L224.875 306.514L250.174 283.418L276.064 346.227Z" fill="url(#paint20_linear_254_501)"/>
<path d="M309.269 265.543L335.146 328.365L276.061 346.228L250.172 283.419L309.269 265.543Z" fill="url(#paint21_linear_254_501)"/>
<path style="mix-blend-mode:multiply" opacity="0.64" d="M489.296 192.608C497.259 181.831 490.496 163.327 474.19 151.279C457.884 139.231 438.21 138.201 430.247 148.978C422.284 159.755 429.047 178.259 445.353 190.307C461.659 202.355 481.333 203.386 489.296 192.608Z" fill="url(#paint22_radial_254_501)"/>
<path d="M496.949 116.293L510.182 147.114L490.116 179.036L476.883 148.229L496.949 116.293Z" fill="url(#paint23_linear_254_501)"/>
<path d="M476.88 148.228L490.113 179.036L452.905 171.993L439.672 141.172L476.88 148.228Z" fill="url(#paint24_linear_254_501)"/>
<path d="M439.672 141.173L459.738 109.25L496.946 116.293L476.88 148.229L439.672 141.173Z" fill="url(#paint25_linear_254_501)"/>
<path style="mix-blend-mode:overlay" d="M517.975 323.806C527.896 264.268 487.673 207.961 428.135 198.04C368.597 188.12 312.289 228.343 302.369 287.881C292.448 347.419 332.671 403.726 392.209 413.646C451.747 423.567 508.055 383.344 517.975 323.806Z" fill="url(#paint26_radial_254_501)"/>
<path style="mix-blend-mode:overlay" d="M203.012 291.858C240.386 254.485 240.386 193.89 203.012 156.517C165.639 119.143 105.044 119.143 67.6708 156.517C30.2972 193.89 30.2972 254.485 67.6708 291.858C105.044 329.232 165.639 329.232 203.012 291.858Z" fill="url(#paint27_radial_254_501)"/>
<path style="mix-blend-mode:overlay" d="M266.435 201.293C322.021 201.293 367.082 156.232 367.082 100.646C367.082 45.0609 322.021 0 266.435 0C210.85 0 165.789 45.0609 165.789 100.646C165.789 156.232 210.85 201.293 266.435 201.293Z" fill="url(#paint28_radial_254_501)"/>
<path style="mix-blend-mode:overlay" d="M572.748 418.417C634.895 418.417 685.276 368.036 685.276 305.888C685.276 243.74 634.895 193.359 572.748 193.359C510.6 193.359 460.219 243.74 460.219 305.888C460.219 368.036 510.6 418.417 572.748 418.417Z" fill="url(#paint29_radial_254_501)"/>
<path style="mix-blend-mode:overlay" d="M592.891 213.371C602.717 172.816 577.807 131.973 537.251 122.147C496.696 112.32 455.853 137.231 446.027 177.787C436.2 218.342 461.111 259.185 501.667 269.011C542.222 278.837 583.065 253.927 592.891 213.371Z" fill="url(#paint30_radial_254_501)"/>
<defs>
<linearGradient id="paint0_linear_254_501" x1="128.255" y1="54.9142" x2="272.051" y2="183.562" gradientUnits="userSpaceOnUse">
<stop stop-color="#F8C64C"/>
<stop offset="0.22" stop-color="#F8A443"/>
<stop offset="1" stop-color="#FA3526"/>
</linearGradient>
<linearGradient id="paint1_linear_254_501" x1="191.764" y1="39.9244" x2="266.521" y2="106.812" gradientUnits="userSpaceOnUse">
<stop stop-color="#89FEC6"/>
<stop offset="1" stop-color="#F3B25D"/>
</linearGradient>
<linearGradient id="paint2_linear_254_501" x1="518.289" y1="338.665" x2="636.195" y2="338.665" gradientUnits="userSpaceOnUse">
<stop stop-color="#89FEC6"/>
<stop offset="1" stop-color="#F3B25D"/>
</linearGradient>
<linearGradient id="paint3_linear_254_501" x1="410.219" y1="362.033" x2="555.982" y2="362.033" gradientUnits="userSpaceOnUse">
<stop stop-color="#FC674B"/>
<stop offset="1" stop-color="#FF5E48"/>
</linearGradient>
<linearGradient id="paint4_linear_254_501" x1="410.219" y1="279.448" x2="598.501" y2="279.448" gradientUnits="userSpaceOnUse">
<stop stop-color="#E2C060"/>
<stop offset="1" stop-color="#F6A532"/>
</linearGradient>
<radialGradient id="paint5_radial_254_501" cx="0" cy="0" r="1" gradientUnits="userSpaceOnUse" gradientTransform="translate(440.003 296.386) rotate(175.93) scale(77.2527 38.0321)">
<stop stop-color="#897465"/>
<stop offset="0.14" stop-color="#907D6F" stop-opacity="0.94"/>
<stop offset="0.35" stop-color="#A6968B" stop-opacity="0.78"/>
<stop offset="0.61" stop-color="#C9C0B9" stop-opacity="0.51"/>
<stop offset="0.89" stop-color="#FAF9F9" stop-opacity="0.13"/>
<stop offset="0.92" stop-color="white" stop-opacity="0.1"/>
</radialGradient>
<linearGradient id="paint6_linear_254_501" x1="426.023" y1="151.454" x2="522.59" y2="308.823" gradientUnits="userSpaceOnUse">
<stop stop-color="#F8C64C"/>
<stop offset="0.22" stop-color="#F8A443"/>
<stop offset="1" stop-color="#FA3526"/>
</linearGradient>
<linearGradient id="paint7_linear_254_501" x1="264.492" y1="270.748" x2="474.926" y2="270.748" gradientUnits="userSpaceOnUse">
<stop stop-color="#046FB0"/>
<stop offset="1" stop-color="#699FC6"/>
</linearGradient>
<linearGradient id="paint8_linear_254_501" x1="258.213" y1="87.9495" x2="419.151" y2="227.43" gradientUnits="userSpaceOnUse">
<stop stop-color="#49C2FF"/>
<stop offset="0.35" stop-color="#8693D8"/>
<stop offset="1" stop-color="#F8E74C"/>
</linearGradient>
<radialGradient id="paint9_radial_254_501" cx="0" cy="0" r="1" gradientUnits="userSpaceOnUse" gradientTransform="translate(286.162 257.69) rotate(-82.82) scale(77.2527 38.0321)">
<stop stop-color="#897465"/>
<stop offset="0.14" stop-color="#907D6F" stop-opacity="0.94"/>
<stop offset="0.35" stop-color="#A6968B" stop-opacity="0.78"/>
<stop offset="0.61" stop-color="#C9C0B9" stop-opacity="0.51"/>
<stop offset="0.89" stop-color="#FAF9F9" stop-opacity="0.13"/>
<stop offset="0.92" stop-color="white" stop-opacity="0.1"/>
</radialGradient>
<radialGradient id="paint10_radial_254_501" cx="0" cy="0" r="1" gradientUnits="userSpaceOnUse" gradientTransform="translate(265.584 209.428) rotate(-82.82) scale(77.2527 38.0321)">
<stop stop-color="#897465"/>
<stop offset="0.14" stop-color="#907D6F" stop-opacity="0.94"/>
<stop offset="0.35" stop-color="#A6968B" stop-opacity="0.78"/>
<stop offset="0.61" stop-color="#C9C0B9" stop-opacity="0.51"/>
<stop offset="0.89" stop-color="#FAF9F9" stop-opacity="0.13"/>
<stop offset="0.92" stop-color="white" stop-opacity="0.1"/>
</radialGradient>
<radialGradient id="paint11_radial_254_501" cx="0" cy="0" r="1" gradientUnits="userSpaceOnUse" gradientTransform="translate(447.875 353.244) rotate(40.82) scale(38.6946 19.0496)">
<stop stop-color="#897465"/>
<stop offset="0.14" stop-color="#907D6F" stop-opacity="0.94"/>
<stop offset="0.35" stop-color="#A6968B" stop-opacity="0.78"/>
<stop offset="0.61" stop-color="#C9C0B9" stop-opacity="0.51"/>
<stop offset="0.89" stop-color="#FAF9F9" stop-opacity="0.13"/>
<stop offset="0.92" stop-color="white" stop-opacity="0.1"/>
</radialGradient>
<linearGradient id="paint12_linear_254_501" x1="250.643" y1="244.206" x2="200.423" y2="281.036" gradientUnits="userSpaceOnUse">
<stop stop-color="#017FCB"/>
<stop offset="1" stop-color="#48D8FE"/>
</linearGradient>
<linearGradient id="paint13_linear_254_501" x1="125.141" y1="246.424" x2="184.566" y2="246.424" gradientUnits="userSpaceOnUse">
<stop stop-color="#046FB0"/>
<stop offset="1" stop-color="#80C7F9"/>
</linearGradient>
<linearGradient id="paint14_linear_254_501" x1="137.391" y1="192.388" x2="296.938" y2="192.388" gradientUnits="userSpaceOnUse">
<stop stop-color="#6EBB97"/>
<stop offset="1" stop-color="#F8A443"/>
</linearGradient>
<linearGradient id="paint15_linear_254_501" x1="426.729" y1="382.113" x2="355.616" y2="381.806" gradientUnits="userSpaceOnUse">
<stop stop-color="#49C2FF"/>
<stop offset="0.35" stop-color="#8693D8"/>
<stop offset="1" stop-color="#F8EB4C"/>
</linearGradient>
<linearGradient id="paint16_linear_254_501" x1="443.8" y1="342.788" x2="420.802" y2="370.041" gradientUnits="userSpaceOnUse">
<stop stop-color="#017FCB"/>
<stop offset="1" stop-color="#48D8FE"/>
</linearGradient>
<linearGradient id="paint17_linear_254_501" x1="463.836" y1="369.319" x2="402.107" y2="442.468" gradientUnits="userSpaceOnUse">
<stop stop-color="#046FB0"/>
<stop offset="1" stop-color="#80C7F9"/>
</linearGradient>
<radialGradient id="paint18_radial_254_501" cx="0" cy="0" r="1" gradientUnits="userSpaceOnUse" gradientTransform="translate(238.913 303.66) rotate(-28.04) scale(56.5372 27.8337)">
<stop stop-color="#897465"/>
<stop offset="0.14" stop-color="#907D6F" stop-opacity="0.94"/>
<stop offset="0.35" stop-color="#A6968B" stop-opacity="0.78"/>
<stop offset="0.61" stop-color="#C9C0B9" stop-opacity="0.51"/>
<stop offset="0.89" stop-color="#FAF9F9" stop-opacity="0.13"/>
<stop offset="0.92" stop-color="white" stop-opacity="0.1"/>
</radialGradient>
<linearGradient id="paint19_linear_254_501" x1="250.766" y1="348.849" x2="335.149" y2="348.849" gradientUnits="userSpaceOnUse">
<stop stop-color="#E2C060"/>
<stop offset="1" stop-color="#F6A532"/>
</linearGradient>
<linearGradient id="paint20_linear_254_501" x1="224.875" y1="326.37" x2="276.064" y2="326.37" gradientUnits="userSpaceOnUse">
<stop stop-color="#7BDEC6"/>
<stop offset="0.99" stop-color="#E2E758"/>
</linearGradient>
<linearGradient id="paint21_linear_254_501" x1="250.172" y1="305.885" x2="335.146" y2="305.885" gradientUnits="userSpaceOnUse">
<stop stop-color="#F8C64C"/>
<stop offset="0.22" stop-color="#F8A443"/>
<stop offset="1" stop-color="#FA3526"/>
</linearGradient>
<radialGradient id="paint22_radial_254_501" cx="0" cy="0" r="1" gradientUnits="userSpaceOnUse" gradientTransform="translate(457.819 167.728) rotate(-143.54) scale(33.2781 21.3931)">
<stop stop-color="#897465"/>
<stop offset="0.14" stop-color="#907D6F" stop-opacity="0.94"/>
<stop offset="0.35" stop-color="#A6968B" stop-opacity="0.78"/>
<stop offset="0.61" stop-color="#C9C0B9" stop-opacity="0.51"/>
<stop offset="0.89" stop-color="#FAF9F9" stop-opacity="0.13"/>
<stop offset="0.92" stop-color="white" stop-opacity="0.1"/>
</radialGradient>
<linearGradient id="paint23_linear_254_501" x1="509.684" y1="150.361" x2="477.482" y2="144.927" gradientUnits="userSpaceOnUse">
<stop stop-color="#FC674B"/>
<stop offset="1" stop-color="#FF5E48"/>
</linearGradient>
<linearGradient id="paint24_linear_254_501" x1="492.568" y1="164.75" x2="437.308" y2="155.423" gradientUnits="userSpaceOnUse">
<stop stop-color="#F9A050"/>
<stop offset="1" stop-color="#3BA0DE"/>
</linearGradient>
<linearGradient id="paint25_linear_254_501" x1="494.164" y1="133.072" x2="442.551" y2="124.361" gradientUnits="userSpaceOnUse">
<stop stop-color="#046FB0"/>
<stop offset="1" stop-color="#80C7F9"/>
</linearGradient>
<radialGradient id="paint26_radial_254_501" cx="0" cy="0" r="1" gradientUnits="userSpaceOnUse" gradientTransform="translate(410.149 305.895) scale(109.289)">
<stop stop-color="white"/>
<stop offset="0.07" stop-color="white" stop-opacity="0.88"/>
<stop offset="0.24" stop-color="white" stop-opacity="0.62"/>
<stop offset="0.4" stop-color="white" stop-opacity="0.4"/>
<stop offset="0.55" stop-color="white" stop-opacity="0.22"/>
<stop offset="0.68" stop-color="white" stop-opacity="0.1"/>
<stop offset="0.79" stop-color="white" stop-opacity="0.03"/>
<stop offset="0.87" stop-color="white" stop-opacity="0"/>
</radialGradient>
<radialGradient id="paint27_radial_254_501" cx="0" cy="0" r="1" gradientUnits="userSpaceOnUse" gradientTransform="translate(135.34 224.178) scale(95.701)">
<stop stop-color="white"/>
<stop offset="0.07" stop-color="white" stop-opacity="0.88"/>
<stop offset="0.24" stop-color="white" stop-opacity="0.62"/>
<stop offset="0.4" stop-color="white" stop-opacity="0.4"/>
<stop offset="0.55" stop-color="white" stop-opacity="0.22"/>
<stop offset="0.68" stop-color="white" stop-opacity="0.1"/>
<stop offset="0.79" stop-color="white" stop-opacity="0.03"/>
<stop offset="0.87" stop-color="white" stop-opacity="0"/>
</radialGradient>
<radialGradient id="paint28_radial_254_501" cx="0" cy="0" r="1" gradientUnits="userSpaceOnUse" gradientTransform="translate(266.435 100.646) scale(100.646)">
<stop stop-color="white"/>
<stop offset="0.07" stop-color="white" stop-opacity="0.88"/>
<stop offset="0.24" stop-color="white" stop-opacity="0.62"/>
<stop offset="0.4" stop-color="white" stop-opacity="0.4"/>
<stop offset="0.55" stop-color="white" stop-opacity="0.22"/>
<stop offset="0.68" stop-color="white" stop-opacity="0.1"/>
<stop offset="0.79" stop-color="white" stop-opacity="0.03"/>
<stop offset="0.87" stop-color="white" stop-opacity="0"/>
</radialGradient>
<radialGradient id="paint29_radial_254_501" cx="0" cy="0" r="1" gradientUnits="userSpaceOnUse" gradientTransform="translate(572.748 305.888) scale(112.529 112.529)">
<stop stop-color="white"/>
<stop offset="0.07" stop-color="white" stop-opacity="0.88"/>
<stop offset="0.24" stop-color="white" stop-opacity="0.62"/>
<stop offset="0.4" stop-color="white" stop-opacity="0.4"/>
<stop offset="0.55" stop-color="white" stop-opacity="0.22"/>
<stop offset="0.68" stop-color="white" stop-opacity="0.1"/>
<stop offset="0.79" stop-color="white" stop-opacity="0.03"/>
<stop offset="0.87" stop-color="white" stop-opacity="0"/>
</radialGradient>
<radialGradient id="paint30_radial_254_501" cx="0" cy="0" r="1" gradientUnits="userSpaceOnUse" gradientTransform="translate(519.432 195.618) scale(75.5569 75.5569)">
<stop stop-color="white"/>
<stop offset="0.07" stop-color="white" stop-opacity="0.88"/>
<stop offset="0.24" stop-color="white" stop-opacity="0.62"/>
<stop offset="0.4" stop-color="white" stop-opacity="0.4"/>
<stop offset="0.55" stop-color="white" stop-opacity="0.22"/>
<stop offset="0.68" stop-color="white" stop-opacity="0.1"/>
<stop offset="0.79" stop-color="white" stop-opacity="0.03"/>
<stop offset="0.87" stop-color="white" stop-opacity="0"/>
</radialGradient>
</defs>
</svg>
