<svg width="521" height="590" viewBox="0 0 521 590" fill="none" xmlns="http://www.w3.org/2000/svg">
<path d="M298.63 366.536L267.43 347.603L231.467 292.567L262.668 311.5L298.63 366.536Z" fill="url(#paint0_linear_254_842)"/>
<path d="M262.667 311.5L231.466 292.567L287.917 247.28L319.105 266.217L262.667 311.5Z" fill="url(#paint1_linear_254_842)"/>
<path d="M355.084 321.266L298.629 366.539L262.666 311.503L319.104 266.22L355.084 321.266Z" fill="url(#paint2_linear_254_842)"/>
<path d="M92.3038 182.918L134.842 182.061L162.795 220.871L120.272 221.734L92.3038 182.918Z" fill="url(#paint3_linear_254_842)"/>
<path d="M120.272 221.736L162.795 220.873L136.772 261.249L94.2344 262.105L120.272 221.736Z" fill="url(#paint4_linear_254_842)"/>
<path d="M94.2332 262.106L66.2804 223.297L92.3029 182.92L120.271 221.737L94.2332 262.106Z" fill="url(#paint5_linear_254_842)"/>
<path d="M370.03 587.478L317.711 506.298L359.415 406.004L411.734 487.184L370.03 587.478Z" fill="url(#paint6_linear_254_842)"/>
<path d="M411.733 487.184L359.414 406.004L468.472 408.195L520.829 489.375L411.733 487.184Z" fill="url(#paint7_linear_254_842)"/>
<path d="M520.831 489.375L479.089 589.669L370.031 587.478L411.735 487.184L520.831 489.375Z" fill="url(#paint8_linear_254_842)"/>
<path d="M88.083 28.4137L98.2277 67.7047L68.3116 102.221L58.1874 62.8981L88.083 28.4137Z" fill="url(#paint9_linear_254_842)"/>
<path d="M58.1845 62.8988L68.3087 102.222L25.0956 86.9238L14.9714 47.601L58.1845 62.8988Z" fill="url(#paint10_linear_254_842)"/>
<path d="M58.1828 62.8994L88.0785 28.4151L44.8654 13.1173L14.9697 47.6017L58.1828 62.8994Z" fill="url(#paint11_linear_254_842)"/>
<defs>
<linearGradient id="paint0_linear_254_842" x1="252.405" y1="286.428" x2="277.692" y2="372.675" gradientUnits="userSpaceOnUse">
<stop stop-color="#E2C060"/>
<stop offset="1" stop-color="#F6A532"/>
</linearGradient>
<linearGradient id="paint1_linear_254_842" x1="267.622" y1="253.231" x2="282.962" y2="305.55" gradientUnits="userSpaceOnUse">
<stop stop-color="#7BDEC6"/>
<stop offset="0.99" stop-color="#E2E758"/>
</linearGradient>
<linearGradient id="paint2_linear_254_842" x1="296.141" y1="272.952" x2="321.605" y2="359.803" gradientUnits="userSpaceOnUse">
<stop stop-color="#F8C64C"/>
<stop offset="0.22" stop-color="#F8A443"/>
<stop offset="1" stop-color="#FA3526"/>
</linearGradient>
<linearGradient id="paint3_linear_254_842" x1="138.421" y1="184.196" x2="116.677" y2="219.454" gradientUnits="userSpaceOnUse">
<stop stop-color="#FC674B"/>
<stop offset="1" stop-color="#FF5E48"/>
</linearGradient>
<linearGradient id="paint4_linear_254_842" x1="147.174" y1="211.175" x2="109.859" y2="271.68" gradientUnits="userSpaceOnUse">
<stop stop-color="#F9A050"/>
<stop offset="1" stop-color="#3BA0DE"/>
</linearGradient>
<linearGradient id="paint5_linear_254_842" x1="110.698" y1="194.192" x2="75.8453" y2="250.705" gradientUnits="userSpaceOnUse">
<stop stop-color="#046FB0"/>
<stop offset="1" stop-color="#80C7F9"/>
</linearGradient>
<linearGradient id="paint6_linear_254_842" x1="397.711" y1="402.224" x2="269.742" y2="464.99" gradientUnits="userSpaceOnUse">
<stop stop-color="#046FB0"/>
<stop offset="1" stop-color="#80C7F9"/>
</linearGradient>
<linearGradient id="paint7_linear_254_842" x1="359.414" y1="447.692" x2="520.829" y2="447.692" gradientUnits="userSpaceOnUse">
<stop stop-color="#E2C060"/>
<stop offset="1" stop-color="#F6A532"/>
</linearGradient>
<linearGradient id="paint8_linear_254_842" x1="464.817" y1="509.26" x2="414.993" y2="555.885" gradientUnits="userSpaceOnUse">
<stop stop-color="#017FCB"/>
<stop offset="1" stop-color="#48D8FE"/>
</linearGradient>
<linearGradient id="paint9_linear_254_842" x1="70.3533" y1="99.5554" x2="46.5505" y2="58.1431" gradientUnits="userSpaceOnUse">
<stop stop-color="#F9A050"/>
<stop offset="1" stop-color="#3BA0DE"/>
</linearGradient>
<linearGradient id="paint10_linear_254_842" x1="8.93958" y1="77.4618" x2="61.3363" y2="48.6581" gradientUnits="userSpaceOnUse">
<stop stop-color="#046FB0"/>
<stop offset="1" stop-color="#80C7F9"/>
</linearGradient>
<linearGradient id="paint11_linear_254_842" x1="72.9901" y1="51.84" x2="30.0535" y2="24.1839" gradientUnits="userSpaceOnUse">
<stop stop-color="#7BDEC6"/>
<stop offset="0.99" stop-color="#E2E758"/>
</linearGradient>
</defs>
</svg>
