<svg width="131" height="157" viewBox="0 0 131 157" fill="none" xmlns="http://www.w3.org/2000/svg">
<path d="M55.7818 155.473L30 115.47L50.551 66.0469L76.3328 106.051L55.7818 155.473Z" fill="url(#paint0_linear_266_196)"/>
<path d="M76.3287 106.051L50.5469 66.0469L104.288 67.1265L130.089 107.13L76.3287 106.051Z" fill="url(#paint1_linear_266_196)"/>
<path d="M130.092 107.13L109.523 156.553L55.7812 155.474L76.3322 106.051L130.092 107.13Z" fill="url(#paint2_linear_266_196)"/>
<path d="M14.6873 41.0478L0 27.4775L3.18317 5.19531L17.8704 18.7843L14.6873 41.0478Z" fill="url(#paint3_linear_266_196)"/>
<path d="M17.8748 18.7826L3.1875 5.19361L25.1718 0L39.8591 13.589L17.8748 18.7826Z" fill="url(#paint4_linear_266_196)"/>
<path d="M17.8707 18.7835L14.6875 41.047L36.6718 35.8534L39.855 13.5898L17.8707 18.7835Z" fill="url(#paint5_linear_266_196)"/>
<defs>
<linearGradient id="paint0_linear_266_196" x1="69.4226" y1="64.1841" x2="6.36201" y2="95.114" gradientUnits="userSpaceOnUse">
<stop stop-color="#046FB0"/>
<stop offset="1" stop-color="#80C7F9"/>
</linearGradient>
<linearGradient id="paint1_linear_266_196" x1="50.5469" y1="86.5901" x2="130.089" y2="86.5901" gradientUnits="userSpaceOnUse">
<stop stop-color="#E2C060"/>
<stop offset="1" stop-color="#F6A532"/>
</linearGradient>
<linearGradient id="paint2_linear_266_196" x1="102.49" y1="116.93" x2="77.9373" y2="139.905" gradientUnits="userSpaceOnUse">
<stop stop-color="#017FCB"/>
<stop offset="1" stop-color="#48D8FE"/>
</linearGradient>
<linearGradient id="paint3_linear_266_196" x1="3.04862" y1="6.84435" x2="23.9602" y2="17.6489" gradientUnits="userSpaceOnUse">
<stop stop-color="#F9A050"/>
<stop offset="1" stop-color="#3BA0DE"/>
</linearGradient>
<linearGradient id="paint4_linear_266_196" x1="34.3898" y1="-0.39125" x2="20.3691" y2="25.5232" gradientUnits="userSpaceOnUse">
<stop stop-color="#046FB0"/>
<stop offset="1" stop-color="#80C7F9"/>
</linearGradient>
<linearGradient id="paint5_linear_266_196" x1="14.6875" y1="27.3163" x2="39.855" y2="27.3163" gradientUnits="userSpaceOnUse">
<stop stop-color="#7BDEC6"/>
<stop offset="0.99" stop-color="#E2E758"/>
</linearGradient>
</defs>
</svg>
