<svg width="206" height="268" viewBox="0 0 206 268" fill="none" xmlns="http://www.w3.org/2000/svg">
<path d="M183.688 169.172L188.392 203.787L122.727 237.024L118.024 202.409L183.688 169.172Z" fill="url(#paint0_linear_254_889)"/>
<path d="M118.019 202.408L122.723 237.023L87.5364 179.461L82.8359 144.84L118.019 202.408Z" fill="url(#paint1_linear_254_889)"/>
<path d="M148.494 111.598L183.684 169.169L118.02 202.407L82.8362 144.839L148.494 111.598Z" fill="url(#paint2_linear_254_889)"/>
<path style="mix-blend-mode:multiply" opacity="0.64" d="M88.0779 171.18C111.563 181.359 134.867 179.768 140.129 167.628C145.39 155.487 130.618 137.394 107.133 127.215C83.6477 117.037 60.3438 118.627 55.082 130.768C49.8201 142.908 64.5929 161.001 88.0779 171.18Z" fill="url(#paint3_radial_254_889)"/>
<path d="M143.203 38.9648L150.759 85.3996L115.222 157.577L107.669 111.136L143.203 38.9648Z" fill="url(#paint4_linear_254_889)"/>
<path d="M107.671 111.137L115.224 157.578L35.4243 128.13L27.8618 81.6922L107.671 111.137Z" fill="url(#paint5_linear_254_889)"/>
<path d="M143.204 38.9655L107.67 111.137L27.8608 81.6922L63.4008 9.52427L143.204 38.9655Z" fill="url(#paint6_linear_254_889)"/>
<path style="mix-blend-mode:multiply" opacity="0.64" d="M96.8966 200.55C103.056 198.103 104.211 186.46 99.4775 174.545C94.7436 162.63 85.913 154.954 79.7538 157.401C73.5946 159.848 72.4391 171.491 77.1729 183.407C81.9068 195.322 90.7374 202.997 96.8966 200.55Z" fill="url(#paint7_radial_254_889)"/>
<path d="M41.0447 200.615L34.3834 174.059L64.8495 153.357L71.5138 179.924L41.0447 200.615Z" fill="url(#paint8_linear_254_889)"/>
<path d="M71.508 179.926L64.8438 153.359L88.6759 171.539L95.3401 198.105L71.508 179.926Z" fill="url(#paint9_linear_254_889)"/>
<path d="M64.8717 218.801L41.0428 200.615L71.512 179.923L95.3441 198.103L64.8717 218.801Z" fill="url(#paint10_linear_254_889)"/>
<path style="mix-blend-mode:multiply" opacity="0.64" d="M147.564 112.097C154.003 108.952 155.365 98.5045 150.605 88.7631C145.846 79.0216 136.769 73.6745 130.33 76.8201C123.891 79.9657 122.53 90.4126 127.289 100.154C132.048 109.896 141.126 115.243 147.564 112.097Z" fill="url(#paint11_radial_254_889)"/>
<path d="M170.034 77.7873L168.7 95.6745L151.298 105.861L152.629 87.98L170.034 77.7873Z" fill="url(#paint12_linear_254_889)"/>
<path d="M152.633 87.9805L151.302 105.861L135.392 93.3324L136.727 75.4453L152.633 87.9805Z" fill="url(#paint13_linear_254_889)"/>
<path d="M136.726 75.4465L154.127 65.26L170.037 77.789L152.633 87.9817L136.726 75.4465Z" fill="url(#paint14_linear_254_889)"/>
<path style="mix-blend-mode:overlay" d="M128.765 181.409C148.173 155.619 142.999 118.978 117.208 99.5693C91.4177 80.161 54.7766 85.3351 35.3684 111.126C15.9601 136.917 21.1341 173.558 46.9249 192.966C72.7157 212.374 109.357 207.2 128.765 181.409Z" fill="url(#paint15_radial_254_889)"/>
<path style="mix-blend-mode:overlay" d="M131.392 239.813C160.871 255.161 197.209 243.705 212.557 214.226C227.904 184.748 216.448 148.409 186.969 133.062C157.491 117.715 121.152 129.171 105.805 158.649C90.458 188.128 101.914 224.466 131.392 239.813Z" fill="url(#paint16_radial_254_889)"/>
<path style="mix-blend-mode:overlay" d="M191.573 147.529C206.249 130.719 204.519 105.195 187.709 90.5189C170.899 75.8429 145.374 77.5729 130.698 94.383C116.022 111.193 117.752 136.718 134.562 151.393C151.372 166.069 176.897 164.339 191.573 147.529Z" fill="url(#paint17_radial_254_889)"/>
<defs>
<linearGradient id="paint0_linear_254_889" x1="125.246" y1="188.537" x2="181.172" y2="217.653" gradientUnits="userSpaceOnUse">
<stop stop-color="#89FEC6"/>
<stop offset="1" stop-color="#F3B25D"/>
</linearGradient>
<linearGradient id="paint1_linear_254_889" x1="68.2097" y1="172.934" x2="137.349" y2="208.929" gradientUnits="userSpaceOnUse">
<stop stop-color="#FC674B"/>
<stop offset="1" stop-color="#FF5E48"/>
</linearGradient>
<linearGradient id="paint2_linear_254_889" x1="88.6045" y1="133.759" x2="177.912" y2="180.255" gradientUnits="userSpaceOnUse">
<stop stop-color="#E2C060"/>
<stop offset="1" stop-color="#F6A532"/>
</linearGradient>
<radialGradient id="paint3_radial_254_889" cx="0" cy="0" r="1" gradientUnits="userSpaceOnUse" gradientTransform="translate(98.5583 149.151) rotate(-156.568) scale(41.3119 20.3381)">
<stop stop-color="#897465"/>
<stop offset="0.14" stop-color="#907D6F" stop-opacity="0.94"/>
<stop offset="0.35" stop-color="#A6968B" stop-opacity="0.78"/>
<stop offset="0.61" stop-color="#C9C0B9" stop-opacity="0.51"/>
<stop offset="0.89" stop-color="#FAF9F9" stop-opacity="0.13"/>
<stop offset="0.92" stop-color="white" stop-opacity="0.1"/>
</radialGradient>
<linearGradient id="paint4_linear_254_889" x1="127.712" y1="76.951" x2="134.655" y2="175.443" gradientUnits="userSpaceOnUse">
<stop stop-color="#F8C64C"/>
<stop offset="0.22" stop-color="#F8A443"/>
<stop offset="1" stop-color="#FA3526"/>
</linearGradient>
<linearGradient id="paint5_linear_254_889" x1="21.6369" y1="93.6489" x2="121.452" y2="145.615" gradientUnits="userSpaceOnUse">
<stop stop-color="#046FB0"/>
<stop offset="1" stop-color="#699FC6"/>
</linearGradient>
<linearGradient id="paint6_linear_254_889" x1="63.7979" y1="5.38997" x2="105.691" y2="111.293" gradientUnits="userSpaceOnUse">
<stop stop-color="#49C2FF"/>
<stop offset="0.35" stop-color="#8693D8"/>
<stop offset="1" stop-color="#F8E74C"/>
</linearGradient>
<radialGradient id="paint7_radial_254_889" cx="0" cy="0" r="1" gradientUnits="userSpaceOnUse" gradientTransform="translate(88.2507 178.066) rotate(68.3225) scale(20.6924 10.187)">
<stop stop-color="#897465"/>
<stop offset="0.14" stop-color="#907D6F" stop-opacity="0.94"/>
<stop offset="0.35" stop-color="#A6968B" stop-opacity="0.78"/>
<stop offset="0.61" stop-color="#C9C0B9" stop-opacity="0.51"/>
<stop offset="0.89" stop-color="#FAF9F9" stop-opacity="0.13"/>
<stop offset="0.92" stop-color="white" stop-opacity="0.1"/>
</radialGradient>
<linearGradient id="paint8_linear_254_889" x1="71.0947" y1="186.537" x2="37.4394" y2="168.83" gradientUnits="userSpaceOnUse">
<stop stop-color="#49C2FF"/>
<stop offset="0.35" stop-color="#8693D8"/>
<stop offset="1" stop-color="#F8EB4C"/>
</linearGradient>
<linearGradient id="paint9_linear_254_889" x1="88.8975" y1="172.101" x2="71.2587" y2="179.349" gradientUnits="userSpaceOnUse">
<stop stop-color="#017FCB"/>
<stop offset="1" stop-color="#48D8FE"/>
</linearGradient>
<linearGradient id="paint10_linear_254_889" x1="91.8514" y1="189.631" x2="44.5075" y2="209.084" gradientUnits="userSpaceOnUse">
<stop stop-color="#046FB0"/>
<stop offset="1" stop-color="#80C7F9"/>
</linearGradient>
<radialGradient id="paint11_radial_254_889" cx="0" cy="0" r="1" gradientUnits="userSpaceOnUse" gradientTransform="translate(138.778 92.5225) rotate(-116.038) scale(17.7959 11.4402)">
<stop stop-color="#897465"/>
<stop offset="0.14" stop-color="#907D6F" stop-opacity="0.94"/>
<stop offset="0.35" stop-color="#A6968B" stop-opacity="0.78"/>
<stop offset="0.61" stop-color="#C9C0B9" stop-opacity="0.51"/>
<stop offset="0.89" stop-color="#FAF9F9" stop-opacity="0.13"/>
<stop offset="0.92" stop-color="white" stop-opacity="0.1"/>
</radialGradient>
<linearGradient id="paint12_linear_254_889" x1="167.661" y1="97.0918" x2="153.729" y2="86.5618" gradientUnits="userSpaceOnUse">
<stop stop-color="#FC674B"/>
<stop offset="1" stop-color="#FF5E48"/>
</linearGradient>
<linearGradient id="paint13_linear_254_889" x1="155.994" y1="99.6917" x2="132.086" y2="81.6216" gradientUnits="userSpaceOnUse">
<stop stop-color="#F9A050"/>
<stop offset="1" stop-color="#3BA0DE"/>
</linearGradient>
<linearGradient id="paint14_linear_254_889" x1="164.574" y1="85.0607" x2="142.244" y2="68.1831" gradientUnits="userSpaceOnUse">
<stop stop-color="#046FB0"/>
<stop offset="1" stop-color="#80C7F9"/>
</linearGradient>
<radialGradient id="paint15_radial_254_889" cx="0" cy="0" r="1" gradientUnits="userSpaceOnUse" gradientTransform="translate(82.043 146.286) rotate(27.5025) scale(58.4438)">
<stop stop-color="white"/>
<stop offset="0.07" stop-color="white" stop-opacity="0.88"/>
<stop offset="0.24" stop-color="white" stop-opacity="0.62"/>
<stop offset="0.4" stop-color="white" stop-opacity="0.4"/>
<stop offset="0.55" stop-color="white" stop-opacity="0.22"/>
<stop offset="0.68" stop-color="white" stop-opacity="0.1"/>
<stop offset="0.79" stop-color="white" stop-opacity="0.03"/>
<stop offset="0.87" stop-color="white" stop-opacity="0"/>
</radialGradient>
<radialGradient id="paint16_radial_254_889" cx="0" cy="0" r="1" gradientUnits="userSpaceOnUse" gradientTransform="translate(159.181 186.438) rotate(27.5025) scale(60.1762 60.1762)">
<stop stop-color="white"/>
<stop offset="0.07" stop-color="white" stop-opacity="0.88"/>
<stop offset="0.24" stop-color="white" stop-opacity="0.62"/>
<stop offset="0.4" stop-color="white" stop-opacity="0.4"/>
<stop offset="0.55" stop-color="white" stop-opacity="0.22"/>
<stop offset="0.68" stop-color="white" stop-opacity="0.1"/>
<stop offset="0.79" stop-color="white" stop-opacity="0.03"/>
<stop offset="0.87" stop-color="white" stop-opacity="0"/>
</radialGradient>
<radialGradient id="paint17_radial_254_889" cx="0" cy="0" r="1" gradientUnits="userSpaceOnUse" gradientTransform="translate(161.113 120.968) rotate(27.5025) scale(40.405 40.405)">
<stop stop-color="white"/>
<stop offset="0.07" stop-color="white" stop-opacity="0.88"/>
<stop offset="0.24" stop-color="white" stop-opacity="0.62"/>
<stop offset="0.4" stop-color="white" stop-opacity="0.4"/>
<stop offset="0.55" stop-color="white" stop-opacity="0.22"/>
<stop offset="0.68" stop-color="white" stop-opacity="0.1"/>
<stop offset="0.79" stop-color="white" stop-opacity="0.03"/>
<stop offset="0.87" stop-color="white" stop-opacity="0"/>
</radialGradient>
</defs>
</svg>
