<svg width="241" height="369" viewBox="0 0 241 369" fill="none" xmlns="http://www.w3.org/2000/svg">
<path d="M166.957 99.0889L172.981 143.417L88.892 185.981L82.8684 141.653L166.957 99.0889Z" fill="url(#paint0_linear_267_198)"/>
<path d="M82.8602 141.651L88.8838 185.979L43.8241 112.265L37.8047 67.9297L82.8602 141.651Z" fill="url(#paint1_linear_267_198)"/>
<path d="M121.887 25.3621L166.95 99.0875L82.8615 141.652L37.8059 67.9303L121.887 25.3621Z" fill="url(#paint2_linear_267_198)"/>
<path d="M223.082 254.841L198.065 258.19L178.98 237.175L203.998 233.827L223.082 254.841Z" fill="url(#paint3_linear_267_198)"/>
<path d="M203.994 233.827L178.977 237.176L191.62 211.625L216.641 208.268L203.994 233.827Z" fill="url(#paint4_linear_267_198)"/>
<path d="M216.644 208.268L235.724 229.292L223.081 254.842L203.996 233.828L216.644 208.268Z" fill="url(#paint5_linear_267_198)"/>
<path d="M79.0269 355.302L48.3214 338.138L54.8298 291.448L85.5467 308.617L79.0269 355.302Z" fill="url(#paint6_linear_267_198)"/>
<path d="M85.9501 308.544L55.0547 291.266L92.7456 284.972L123.641 302.251L85.9501 308.544Z" fill="url(#paint7_linear_267_198)"/>
<path d="M116.762 348.783L79.1396 355.05L85.6848 308.2L123.304 301.925L116.762 348.783Z" fill="url(#paint8_linear_267_198)"/>
<defs>
<linearGradient id="paint0_linear_267_198" x1="92.1174" y1="123.888" x2="163.736" y2="161.174" gradientUnits="userSpaceOnUse">
<stop stop-color="#89FEC6"/>
<stop offset="1" stop-color="#F3B25D"/>
</linearGradient>
<linearGradient id="paint1_linear_267_198" x1="19.0745" y1="103.906" x2="107.614" y2="150.002" gradientUnits="userSpaceOnUse">
<stop stop-color="#FC674B"/>
<stop offset="1" stop-color="#FF5E48"/>
</linearGradient>
<linearGradient id="paint2_linear_267_198" x1="45.1927" y1="53.7419" x2="159.56" y2="113.284" gradientUnits="userSpaceOnUse">
<stop stop-color="#E2C060"/>
<stop offset="1" stop-color="#F6A532"/>
</linearGradient>
<linearGradient id="paint3_linear_267_198" x1="182.344" y1="227.697" x2="182.962" y2="264.943" gradientUnits="userSpaceOnUse">
<stop stop-color="#046FB0"/>
<stop offset="1" stop-color="#80C7F9"/>
</linearGradient>
<linearGradient id="paint4_linear_267_198" x1="188.837" y1="241.811" x2="206.783" y2="203.633" gradientUnits="userSpaceOnUse">
<stop stop-color="#E2C060"/>
<stop offset="1" stop-color="#F6A532"/>
</linearGradient>
<linearGradient id="paint5_linear_267_198" x1="215.119" y1="223.728" x2="220.607" y2="240.696" gradientUnits="userSpaceOnUse">
<stop stop-color="#017FCB"/>
<stop offset="1" stop-color="#48D8FE"/>
</linearGradient>
<linearGradient id="paint6_linear_267_198" x1="91.4187" y1="314.833" x2="46.1532" y2="331.093" gradientUnits="userSpaceOnUse">
<stop stop-color="#49C2FF"/>
<stop offset="0.35" stop-color="#8693D8"/>
<stop offset="1" stop-color="#F8EB4C"/>
</linearGradient>
<linearGradient id="paint7_linear_267_198" x1="93.4684" y1="285.262" x2="84.6967" y2="308.078" gradientUnits="userSpaceOnUse">
<stop stop-color="#017FCB"/>
<stop offset="1" stop-color="#48D8FE"/>
</linearGradient>
<linearGradient id="paint8_linear_267_198" x1="112.298" y1="297.711" x2="88.8346" y2="358.794" gradientUnits="userSpaceOnUse">
<stop stop-color="#046FB0"/>
<stop offset="1" stop-color="#80C7F9"/>
</linearGradient>
</defs>
</svg>
