<svg width="251" height="293" viewBox="0 0 251 293" fill="none" xmlns="http://www.w3.org/2000/svg">
<path style="mix-blend-mode:overlay" d="M129.605 232.312C154.459 199.285 147.833 152.363 114.806 127.509C81.7785 102.655 34.8563 109.28 10.0023 142.308C-14.8518 175.335 -8.22597 222.258 24.8015 247.112C57.8289 271.966 104.751 265.34 129.605 232.312Z" fill="url(#paint0_radial_267_197)"/>
<path d="M250.169 215.227L229.942 233.702L182.703 247.984L202.93 229.508L250.169 215.227Z" fill="url(#paint1_linear_267_197)"/>
<path d="M202.926 229.509L182.699 247.985L162 197.758L182.227 179.293L202.926 229.509Z" fill="url(#paint2_linear_267_197)"/>
<path d="M229.475 165L250.164 215.227L202.925 229.509L182.227 179.292L229.475 165Z" fill="url(#paint3_linear_267_197)"/>
<path d="M148.094 49.8984L157.77 109.362L112.262 201.792L102.589 142.32L148.094 49.8984Z" fill="url(#paint4_linear_267_197)"/>
<path d="M102.587 142.321L112.26 201.793L10.0691 164.083L0.384507 104.615L102.587 142.321Z" fill="url(#paint5_linear_267_197)"/>
<path d="M148.095 49.8989L102.591 142.321L0.387839 104.614L45.9001 12.1967L148.095 49.8989Z" fill="url(#paint6_linear_267_197)"/>
<defs>
<radialGradient id="paint0_radial_267_197" cx="0" cy="0" r="1" gradientUnits="userSpaceOnUse" gradientTransform="translate(69.7735 187.334) rotate(27.5025) scale(74.8427)">
<stop stop-color="white"/>
<stop offset="0.07" stop-color="white" stop-opacity="0.88"/>
<stop offset="0.24" stop-color="white" stop-opacity="0.62"/>
<stop offset="0.4" stop-color="white" stop-opacity="0.4"/>
<stop offset="0.55" stop-color="white" stop-opacity="0.22"/>
<stop offset="0.68" stop-color="white" stop-opacity="0.1"/>
<stop offset="0.79" stop-color="white" stop-opacity="0.03"/>
<stop offset="0.87" stop-color="white" stop-opacity="0"/>
</radialGradient>
<linearGradient id="paint1_linear_267_197" x1="182.703" y1="231.605" x2="250.169" y2="231.605" gradientUnits="userSpaceOnUse">
<stop stop-color="#E2C060"/>
<stop offset="1" stop-color="#F6A532"/>
</linearGradient>
<linearGradient id="paint2_linear_267_197" x1="162" y1="213.634" x2="202.926" y2="213.634" gradientUnits="userSpaceOnUse">
<stop stop-color="#7BDEC6"/>
<stop offset="0.99" stop-color="#E2E758"/>
</linearGradient>
<linearGradient id="paint3_linear_267_197" x1="182.227" y1="197.254" x2="250.164" y2="197.254" gradientUnits="userSpaceOnUse">
<stop stop-color="#F8C64C"/>
<stop offset="0.22" stop-color="#F8A443"/>
<stop offset="1" stop-color="#FA3526"/>
</linearGradient>
<linearGradient id="paint4_linear_267_197" x1="128.256" y1="98.5432" x2="137.147" y2="224.671" gradientUnits="userSpaceOnUse">
<stop stop-color="#F8C64C"/>
<stop offset="0.22" stop-color="#F8A443"/>
<stop offset="1" stop-color="#FA3526"/>
</linearGradient>
<linearGradient id="paint5_linear_267_197" x1="-7.58704" y1="119.926" x2="120.235" y2="186.473" gradientUnits="userSpaceOnUse">
<stop stop-color="#046FB0"/>
<stop offset="1" stop-color="#699FC6"/>
</linearGradient>
<linearGradient id="paint6_linear_267_197" x1="46.4086" y1="6.90234" x2="100.056" y2="142.52" gradientUnits="userSpaceOnUse">
<stop stop-color="#49C2FF"/>
<stop offset="0.35" stop-color="#8693D8"/>
<stop offset="1" stop-color="#F8E74C"/>
</linearGradient>
</defs>
</svg>
