<svg width="211" height="59" viewBox="0 0 211 59" fill="none" xmlns="http://www.w3.org/2000/svg">
<path opacity="0.15" d="M41.38 58.116C41.152 58.116 41 58.116 40.772 58.04C40.468 57.584 40.316 57.052 40.316 56.52C40.316 55.38 40.772 54.088 41.152 53.328V47.856C40.468 45.5 38.872 44.056 38.568 41.32C37.048 38.888 33.932 36.988 33.476 35.088C32.944 34.404 31.652 34.556 31.652 33.264C31.424 33.34 31.272 33.34 31.12 33.34C30.056 33.34 29.752 32.58 28.688 32.504C26.712 32.732 26.18 34.404 25.04 35.468C23.824 36.228 22.912 37.444 22.152 38.736C20.252 39.724 18.58 41.016 17.744 43.144C18.2 46.108 19.416 48.312 21.088 50.06C21.544 50.972 23.976 50.212 23.976 51.884C23.976 52.112 23.14 53.1 22.912 53.1C21.62 53.1 20.48 51.808 19.264 51.808C19.188 51.808 19.036 51.884 18.884 51.884C18.428 50.972 17.592 50.44 16.68 50.06C16.072 48.464 15.008 47.324 14.476 45.652C12.424 45.652 12.348 47.628 10.828 48.236C10.524 48.616 9.612 50.06 9.308 50.06C9.156 50.06 8.928 49.984 8.776 49.984C8.396 49.984 8.472 50.972 7.94 51.504C6.952 52.416 4.748 54.468 4.14 54.468C3.76 54.468 3.304 54.392 2.924 54.392C2.392 54.392 2.62 54.772 2.164 54.772C1.024 54.772 0.568 53.1 0.568 52.796C0.568 51.124 1.48 50.364 2.468 49.68C3.684 49.376 3.988 47.096 5.356 47.096C6.724 44.816 9.688 44.208 10.828 41.624C12.576 41.092 13.488 39.648 14.856 38.736C14.78 38.508 14.78 38.28 14.78 38.052C14.78 36.076 16.3 35.544 16.3 33.644C17.972 33.644 18.808 30.68 20.328 29.996C22.456 29.616 23.976 28.552 26.56 28.552C28.612 25.816 31.956 24.524 34.16 21.94C36.896 19.888 39.48 17.76 42.216 15.784C43.28 13.96 45.484 13.2 46.624 11.376C49.588 10.464 50.956 8.032 54.528 8.032C54.756 8.032 55.06 8.108 55.44 8.108C56.504 8.108 57.188 6.36 58.024 6.36C58.176 6.36 58.404 6.436 58.632 6.664H58.86C60.076 6.664 60.532 9.552 60.532 9.476C60.532 12.44 58.252 14.72 58.252 17.836V18.292C56.048 22.32 54.908 27.336 52.4 31.06V33.264C50.88 34.252 50.272 37.368 49.132 40.18C47.992 42.916 45.864 47.096 45.864 50.06C45.864 51.504 45.408 52.72 45.408 53.556C45.408 54.164 45.56 54.848 45.56 55.456C45.56 55.988 45.408 56.444 45.104 56.596C45.18 56.748 45.18 56.9 45.18 56.976C45.18 57.28 44.952 57.356 44.648 57.356C44.42 57.356 44.116 57.28 43.888 57.28C43.28 57.28 42.52 58.116 41.38 58.116ZM55.364 12.82C54.68 14.036 53.084 14.036 51.868 14.568C51.488 16.012 49.892 16.468 48.904 17.152C47.764 17.912 46.852 18.748 45.636 19.28C44.496 19.812 44.344 21.636 42.596 21.56H42.216C41.456 23.156 39.404 23.46 38.568 24.904C37.048 25.36 36.44 26.652 34.92 27.032V27.336C34.92 28.324 32.032 28.476 32.032 30.376C35.072 31.592 36.44 34.86 39.328 36.532C39.632 37.9 40.924 38.356 41.456 39.496C42.064 40.864 42.9 43.752 44.04 43.828C43.964 43.6 43.964 43.448 43.964 43.296C43.964 41.776 45.332 41.548 45.484 40.18C45.94 38.052 47.156 36.76 47.308 34.328C48.22 33.72 48.22 32.124 49.132 31.44C49.284 29.388 49.892 27.792 50.956 26.728C50.956 24.752 51.716 23.612 52.4 22.32C52.704 20.572 54.072 19.204 54.072 17.76C54.072 17 54.756 16.392 54.984 15.784C55.212 14.948 54.984 13.884 55.744 13.2C55.668 13.048 55.668 12.82 55.44 12.82H55.364ZM94.596 33.796C94.596 34.784 93.532 35.772 93 36.76C92.544 37.064 91.176 37.216 90.416 37.216C89.96 37.216 90.112 37.444 89.428 37.672C88.592 38.356 88.516 39.724 88.288 41.016C87.452 41.472 87.148 42.46 86.844 43.524C84.944 45.728 82.588 47.552 80.688 49.756C78.94 49.908 78.56 51.352 77.04 51.58C76.204 52.644 74.304 52.492 73.696 53.784C69.364 54.468 66.78 56.368 62.676 56.368C59.408 56.368 57.736 54.164 56.976 51.2C57.28 50.212 57.052 49.148 57.28 48.312C57.356 48.084 57.964 47.704 58.04 47.552C58.268 46.868 58.04 45.956 58.42 45.348C58.724 44.664 59.636 42.536 60.624 40.636C60.776 40.256 61.232 40.104 61.308 39.876C65.26 31.972 66.856 29.54 69.744 25.284C70.504 23.916 71.72 23.004 72.632 21.636C75.368 17.38 79.016 14.872 82.132 10.692C82.436 10.312 82.968 10.16 82.968 9.704C82.968 9.552 82.892 9.476 82.816 9.248C84.108 8.944 84.184 7.424 85.4 7.044C85.704 5.752 86.844 5.372 87.984 4.84C88.592 3.548 89.884 0.507999 91.708 0.507999C92.848 0.507999 93.836 2.484 93.836 2.56C93.836 6.588 79.928 19.128 80.916 19.128C80.764 19.128 80.612 19.052 80.46 19.052C79.852 19.052 76.28 22.016 76.28 23.536C76.28 23.688 76.356 23.764 76.508 23.764C77.42 23.764 77.572 23.08 78.56 23.08C79.396 23.08 80.156 23.46 81.22 23.46C81.6 23.46 84.64 26.12 86.16 27.108C87.452 29.008 88.364 30.68 89.048 32.96C89.808 33.036 90.416 33.112 91.024 33.036C92.012 32.96 93.152 33.34 94.368 33.036C94.52 33.34 94.596 33.568 94.596 33.796ZM84.64 32.58C84.108 31.82 83.804 30.984 83.196 30.376C82.816 29.692 82.36 29.236 81.752 28.248C80.612 28.248 80.232 27.488 79.092 27.488C78.18 27.488 77.42 27.868 76.28 27.868C76.052 29.008 74.456 28.78 74.456 30.148C74.456 31.668 79.396 33.036 81.98 33.036C82.664 33.036 84.336 33.264 84.64 32.58ZM61.232 50.364C61.232 51.96 62.98 52.264 63.968 52.264C66.324 52.264 68.908 50.44 71.568 50.44C72.708 49.3 74.456 48.768 76.28 48.312C77.952 46.716 80.08 45.5 81.372 43.524C81.524 43.448 83.956 41.168 83.956 41.016C83.956 39.344 85.172 38.812 85.4 37.368C80.308 37.368 76.584 36.456 73.012 35.164C72.024 33.416 70.048 32.352 70.048 32.2C69.592 32.276 69.668 33.036 69.364 33.34C66.4 36.836 64.652 41.472 62.448 45.728C62.068 47.324 61.232 48.388 61.232 50.364ZM97.3956 37.672C97.6996 36.836 98.0036 35.62 98.1556 34.556C98.4596 34.404 99.1436 33.568 99.9796 33.112C102.184 32.808 103.096 31.212 105.072 30.604C106.288 29.692 106.972 28.324 108.036 27.26C110.088 26.956 111.38 25.816 113.812 25.816C115.028 26.728 117.612 27.716 117.536 29.844C118.144 31.136 118.22 32.58 118.448 33.796C118.524 33.948 118.904 34.1 119.512 33.948C120.576 33.72 119.588 34.024 120.652 33.644C121.944 33.112 123.768 33.416 123.768 33.492C123.844 34.1 122.324 36.38 121.944 36.684C121.792 36.76 121.488 36.836 120.88 37.064C119.664 37.52 120.424 37.14 119.284 37.596C118.068 38.052 117.916 38.204 117.916 38.28C117.004 41.244 115.028 42.612 113.508 44.816C113.052 45.272 111.152 46.336 111.38 47.02C110.468 47.172 110.772 47.856 109.86 48.844C107.276 50.972 104.388 52.796 101.12 54.316C98.5356 54.848 94.8876 54.468 93.0636 53.936C92.0756 52.34 92.3036 49.528 92.3036 47.02C92.6836 46.184 92.9876 45.196 93.4436 44.436C93.5956 44.132 94.3556 43.98 94.5076 43.676C94.8116 43.22 94.6596 42.688 94.8876 42.232C95.7996 40.636 96.1036 38.888 97.3956 37.672ZM111.684 30.604C111.608 31.06 111.152 31.06 111.304 31.668C110.848 32.58 109.784 32.884 108.72 33.112C108.492 33.872 106.668 34.936 107.656 35.696C107.732 35.088 108.188 35.696 108.036 36.38C110.24 36.532 113.28 36.076 114.648 35.316C114.496 33.872 114.952 31.82 114.268 30.908C113.812 30.908 112.216 30.452 111.684 30.604ZM102.564 37.9C102.488 38.356 102.032 38.356 102.184 38.964C101.272 39.04 101.12 39.876 100.74 40.408C99.2196 42.308 98.1556 44.664 96.7116 46.26C96.7116 47.856 95.6476 48.388 95.9516 50.288H99.6756C100.436 50.212 103.096 48.692 103.324 48.464C103.628 48.16 103.628 48.312 104.084 48.084C105.224 47.4 105.908 46.108 107.352 45.88C108.036 45.044 108.72 44.132 109.556 43.372C110.316 42.536 111.076 41.776 112.064 41.168C112.596 40.256 113.204 40.256 113.204 39.04C111.988 39.8 109.556 39.952 108.036 40.028C107.504 39.572 106.44 39.724 105.452 39.724C104.464 39.116 103.78 38.204 102.564 37.9ZM157.415 44.36C158.555 43.448 160.911 42.08 161.139 41.928C161.291 41.852 162.431 45.196 162.431 45.196C162.431 45.196 157.643 48.388 157.415 48.312C157.187 48.236 152.399 52.036 148.827 52.796C147.915 52.948 146.775 53.024 145.863 53.48C144.191 53.48 142.443 52.72 140.771 52.72C139.631 52.188 139.175 50.972 138.567 49.832C136.591 50.364 135.071 51.428 133.855 52.72C131.119 53.328 128.155 55.152 125.115 55.684C124.507 55.76 123.823 55.608 123.291 55.684C122.303 55.76 120.707 56.064 119.263 55.304C117.667 54.848 117.591 52.796 116.679 51.656C117.135 50.288 117.287 48.616 117.819 47.248C118.731 46.108 125.191 36 126.483 35.24C126.331 34.1 130.207 30.908 130.359 29.996C130.739 29.464 130.663 28.4 131.803 28.552C133.475 28.172 133.855 29.16 134.691 29.692C134.995 33.188 132.791 34.252 131.043 35.848C130.815 37.216 129.447 38.28 128.611 39.04C127.927 39.952 124.507 45.196 123.443 45.652C122.987 47.932 120.479 48.388 121.087 51.656C124.811 52.948 127.775 50.44 130.891 49.832C132.563 48.692 134.311 47.932 136.059 46.944C137.579 45.956 138.947 44.588 140.771 43.98C142.215 41.168 146.699 36.76 148.903 34.404C149.587 33.644 149.967 32.58 151.107 32.2C151.107 31.136 151.943 30.908 152.551 30.376C153.311 29.996 153.919 29.388 154.375 28.552C154.755 28.324 156.047 27.184 156.579 28.248C158.099 28.4 157.795 31.06 157.263 31.896C157.111 32.048 156.959 31.82 156.883 32.2C156.883 32.808 156.579 33.036 156.199 33.72C154.375 35.772 152.627 37.976 150.727 39.876C148.827 41.776 143.963 45.652 143.355 48.768C144.647 49.528 146.167 49.68 147.307 49.528C150.803 48.844 154.831 46.26 157.415 44.36ZM189.832 46.032C190.972 46.944 189.528 47.628 190.212 48.464C188.388 49.3 187.552 50.288 186.336 50.896C185.576 51.276 184.284 52.416 183.068 52.796C182.84 52.796 181.7 53.328 181.472 53.48C181.016 53.632 180.94 53.936 180.028 54.164C179.572 54.316 178.204 54.772 177.52 54.924C176.38 55.228 177.596 54.696 176 55.076C175.24 55.228 174.556 55.38 173.796 55.836C172.2 55.152 169.464 55.532 167.26 55.456C166.804 54.696 165.664 54.62 164.676 54.316C163.764 52.796 161.788 51.428 161.408 48.844C161.104 46.944 161.636 45.044 162.168 43.068C163.08 41.168 163.612 37.824 164.676 36.836C166.5 33.872 167.716 30.3 169.844 27.716C169.312 27.108 168.02 27.184 166.88 27.336C166.044 27.488 164.22 27.868 162.548 28.096C160.192 28.324 157.076 29.464 156.316 26.956C156.164 25.512 158.216 26.196 158.9 25.512C159.584 24.904 161.256 25.208 161.788 24.448C165.588 24.22 169.084 23.688 172.732 23.308C173.34 23.232 173.872 22.624 174.176 22.244C174.404 21.94 174.328 21.484 174.556 21.18C175.088 20.496 176.684 19.28 177.444 18.216C178.964 16.392 180.104 14.34 181.472 12.364C182.764 11.452 182.612 9.172 185.12 9.476C186.64 9.476 185.424 12.06 186.26 12.744C184.436 16.316 181.244 18.444 180.028 22.624C180.18 23.384 181.852 22.776 182.612 23.004C191.048 22.244 200.016 21.864 208.452 21.18C209.364 21.636 210.656 22.244 209.744 23.384C207.844 23.536 206.248 23.764 206.324 23.688C204.196 23.612 202.828 24.296 200.472 24.068C198.876 24.98 197.432 24.372 195.38 25.132C193.936 25.208 192.644 25.132 191.732 24.828C189.224 25.968 189.072 24.752 186.564 25.512C185.5 25.816 185.5 25.816 184.436 25.512C183.752 25.816 183.068 26.12 182.232 26.272C181.32 26.424 179.496 24.752 178.204 26.272C178.28 27.032 176.912 26.424 176.38 26.652C175.544 28.78 173.568 29.844 172.732 32.124C170.908 33.416 171.06 35.62 169.084 36.836C169.16 37.824 168.096 38.28 167.64 39.04C167.108 39.8 167.108 41.016 166.196 41.548C165.74 44.436 164.524 46.792 165.816 49.604C166.652 50.212 167.184 50.82 168.02 51.048C168.324 51.124 168.248 51.352 168.324 51.428C170.756 52.568 174.1 51.428 176.76 51.048C177.9 50.744 179.724 50.44 180.94 49.376C181.016 49.3 182.992 48.312 183.068 48.312C183.676 48.008 184.132 47.476 184.816 47.172C185.424 46.944 186.412 46.944 187.02 46.792C187.4 45.956 188.768 46.184 189.832 46.032Z" fill="#383838"/>
</svg>
