<svg width="253" height="60" viewBox="0 0 253 60" fill="none" xmlns="http://www.w3.org/2000/svg">
<path opacity="0.15" d="M41.38 59.116C41.152 59.116 41 59.116 40.772 59.04C40.468 58.584 40.316 58.052 40.316 57.52C40.316 56.38 40.772 55.088 41.152 54.328V48.856C40.468 46.5 38.872 45.056 38.568 42.32C37.048 39.888 33.932 37.988 33.476 36.088C32.944 35.404 31.652 35.556 31.652 34.264C31.424 34.34 31.272 34.34 31.12 34.34C30.056 34.34 29.752 33.58 28.688 33.504C26.712 33.732 26.18 35.404 25.04 36.468C23.824 37.228 22.912 38.444 22.152 39.736C20.252 40.724 18.58 42.016 17.744 44.144C18.2 47.108 19.416 49.312 21.088 51.06C21.544 51.972 23.976 51.212 23.976 52.884C23.976 53.112 23.14 54.1 22.912 54.1C21.62 54.1 20.48 52.808 19.264 52.808C19.188 52.808 19.036 52.884 18.884 52.884C18.428 51.972 17.592 51.44 16.68 51.06C16.072 49.464 15.008 48.324 14.476 46.652C12.424 46.652 12.348 48.628 10.828 49.236C10.524 49.616 9.612 51.06 9.308 51.06C9.156 51.06 8.928 50.984 8.776 50.984C8.396 50.984 8.472 51.972 7.94 52.504C6.952 53.416 4.748 55.468 4.14 55.468C3.76 55.468 3.304 55.392 2.924 55.392C2.392 55.392 2.62 55.772 2.164 55.772C1.024 55.772 0.568 54.1 0.568 53.796C0.568 52.124 1.48 51.364 2.468 50.68C3.684 50.376 3.988 48.096 5.356 48.096C6.724 45.816 9.688 45.208 10.828 42.624C12.576 42.092 13.488 40.648 14.856 39.736C14.78 39.508 14.78 39.28 14.78 39.052C14.78 37.076 16.3 36.544 16.3 34.644C17.972 34.644 18.808 31.68 20.328 30.996C22.456 30.616 23.976 29.552 26.56 29.552C28.612 26.816 31.956 25.524 34.16 22.94C36.896 20.888 39.48 18.76 42.216 16.784C43.28 14.96 45.484 14.2 46.624 12.376C49.588 11.464 50.956 9.032 54.528 9.032C54.756 9.032 55.06 9.108 55.44 9.108C56.504 9.108 57.188 7.36 58.024 7.36C58.176 7.36 58.404 7.436 58.632 7.664H58.86C60.076 7.664 60.532 10.552 60.532 10.476C60.532 13.44 58.252 15.72 58.252 18.836V19.292C56.048 23.32 54.908 28.336 52.4 32.06V34.264C50.88 35.252 50.272 38.368 49.132 41.18C47.992 43.916 45.864 48.096 45.864 51.06C45.864 52.504 45.408 53.72 45.408 54.556C45.408 55.164 45.56 55.848 45.56 56.456C45.56 56.988 45.408 57.444 45.104 57.596C45.18 57.748 45.18 57.9 45.18 57.976C45.18 58.28 44.952 58.356 44.648 58.356C44.42 58.356 44.116 58.28 43.888 58.28C43.28 58.28 42.52 59.116 41.38 59.116ZM55.364 13.82C54.68 15.036 53.084 15.036 51.868 15.568C51.488 17.012 49.892 17.468 48.904 18.152C47.764 18.912 46.852 19.748 45.636 20.28C44.496 20.812 44.344 22.636 42.596 22.56H42.216C41.456 24.156 39.404 24.46 38.568 25.904C37.048 26.36 36.44 27.652 34.92 28.032V28.336C34.92 29.324 32.032 29.476 32.032 31.376C35.072 32.592 36.44 35.86 39.328 37.532C39.632 38.9 40.924 39.356 41.456 40.496C42.064 41.864 42.9 44.752 44.04 44.828C43.964 44.6 43.964 44.448 43.964 44.296C43.964 42.776 45.332 42.548 45.484 41.18C45.94 39.052 47.156 37.76 47.308 35.328C48.22 34.72 48.22 33.124 49.132 32.44C49.284 30.388 49.892 28.792 50.956 27.728C50.956 25.752 51.716 24.612 52.4 23.32C52.704 21.572 54.072 20.204 54.072 18.76C54.072 18 54.756 17.392 54.984 16.784C55.212 15.948 54.984 14.884 55.744 14.2C55.668 14.048 55.668 13.82 55.44 13.82H55.364ZM82.816 44.904C83.956 43.916 86.692 42.168 86.692 42.092C86.692 42.016 87.68 44.98 87.68 44.98C87.68 44.98 85.02 47.792 84.944 47.64C80.992 50.148 77.268 53.416 72.176 54.556C69.744 54.784 67.008 54.404 65.26 54.176C64.5 54.1 64.272 54.176 63.436 53.796C63.284 53.72 63.436 53.492 63.056 53.416C62.068 53.416 61.536 52.048 60.852 51.212C60.7 49.54 61.384 48.628 61.612 47.26C63.664 44.828 64.804 42.168 67.084 39.964C66.932 38.368 66.628 36.164 65.944 35.176C63.74 35.708 57.432 44.752 55.304 45.36C55.304 45.36 52.568 43.384 52.644 43.46C53.784 42.472 55.836 39.812 56.824 39.052C57.812 37.912 61.536 32.82 62.904 32.136C62.98 31.3 65.412 29.78 66.02 29.248C66.4 28.792 66.096 27.348 67.768 27.88C69.516 28.336 69.288 30.692 69.592 32.668C70.2 33.58 70.428 34.948 71.036 35.936C70.732 37.684 72.176 38.444 72.176 39.964C71.492 39.964 71.644 41.028 71.416 41.408C71.112 41.864 70.58 42.168 70.352 42.472C69.516 44.6 68.224 45.436 67.084 47.26C66.704 48.324 65.26 48.324 65.64 50.148C67.084 50.984 69.364 51.136 71.796 50.908C76.052 50.452 79.928 47.032 82.816 44.904ZM126.247 41.484C127.539 40.724 128.755 40.724 127.767 43.992C127.235 45.74 123.207 48.476 121.383 48.856C120.319 49.464 119.027 50.148 117.887 50.68C117.735 50.756 117.279 51.516 117.203 51.516C116.443 51.744 115.227 51.82 114.999 52.884C113.479 52.428 113.555 53.644 112.415 53.568C111.199 54.404 109.299 54.556 108.235 55.62C107.627 55.848 106.107 55.164 106.107 56C105.879 56.608 104.359 55.924 104.283 56.684C101.547 56.532 99.6471 57.064 97.6711 57.672C94.6311 57.596 91.4391 57.824 88.9311 57.292C87.7911 56.456 86.8791 55.468 85.2831 55.088C85.0551 54.024 84.8271 52.884 83.8391 52.504C83.9151 50.072 83.3831 50.376 83.6111 47.792C83.7631 46.272 85.0551 44.144 85.3591 42.624C87.4111 40.42 88.8551 37.608 91.1351 35.708C95.2391 31.68 100.407 26.968 108.691 28.412C110.363 30.844 111.047 34.264 111.959 37.532C111.199 37.456 111.807 38.824 111.579 39.356C110.591 40.268 108.767 42.32 106.487 40.42C106.563 39.812 106.335 39.204 106.487 38.596C106.715 37.38 108.083 36.62 107.931 34.568C107.931 33.808 107.551 33.352 107.247 32.44C105.575 31.3 103.751 30.996 101.775 32.06C102.155 32.82 102.155 32.82 101.395 32.44C100.635 32.06 100.863 33.048 100.635 33.124C100.407 33.276 99.8751 33.048 99.5711 33.124C99.1151 33.428 98.6591 34.188 97.7471 33.884C97.5191 34.416 96.7591 34.568 96.3031 34.948C95.9991 35.252 96.0751 36.696 94.8591 36.088C94.8591 37.304 94.0231 37.684 93.3391 38.292C92.9591 40.116 90.7551 40.192 90.4511 42.244C89.5391 42.472 89.1591 43.156 88.6271 43.688C87.8671 46.652 86.0431 47.032 87.1071 50.68C87.8671 52.732 89.8431 53.568 91.8191 54.328C95.8471 54.1 100.255 54.252 103.143 52.884C104.283 52.428 105.803 52.352 106.791 51.82C109.375 51.212 111.123 49.236 113.707 48.628C115.759 47.488 118.039 46.348 120.319 45.512C122.371 44.448 123.967 42.32 126.247 41.484ZM144.773 34.416C146.065 32.972 148.801 29.78 148.801 28.944C145.533 29.78 144.621 33.048 141.125 33.656C140.365 35.176 137.097 38.368 137.097 38.444C136.793 38.672 136.185 38.672 135.653 39.128C134.589 40.116 133.677 41.332 132.385 42.092C131.397 43.764 129.345 44.372 129.117 46.804C126.913 47.412 126.001 49.616 124.709 51.212C124.177 51.896 122.885 52.656 122.885 53.416C122.885 53.948 120.757 55.924 120.605 55.924C119.389 55.924 119.313 57.064 118.021 57.064C117.337 57.064 117.033 55.544 117.033 54.784C117.033 52.2 119.617 50.756 120.681 48.628C122.201 46.728 123.493 42.852 124.709 42.776C124.861 41.94 125.089 41.256 125.849 40.952C128.509 37.228 131.093 33.352 134.209 30.008C135.653 29.4 135.653 27.348 137.097 26.74C139.377 24.08 141.353 21.496 144.393 18C144.697 17.696 145.305 17.544 145.533 17.24C145.761 16.936 145.609 16.48 145.837 16.176C146.825 15.112 148.193 14.276 149.181 13.288C150.245 12.148 151.005 10.78 152.069 9.64C154.881 6.6 158.377 3.636 161.949 0.823999C162.253 1.052 162.481 1.128 162.709 1.128C163.165 1.128 163.621 0.899998 164.001 0.899998C164.305 0.899998 164.837 0.975997 164.837 1.508C164.837 3.104 163.545 3.408 163.013 4.472C161.113 5.308 161.569 8.272 158.301 8.5C157.313 9.944 153.741 13.136 153.741 13.44C153.665 13.44 153.513 13.364 153.437 13.364C153.285 13.364 152.753 13.44 152.753 13.82C152.753 13.972 152.829 14.2 152.829 14.276C152.829 14.352 148.497 19.444 147.433 19.444C147.129 19.444 147.129 20.356 146.977 20.584C146.749 20.812 145.837 21.116 145.837 21.344C145.837 21.496 145.913 21.724 145.913 21.876C145.913 22.256 144.013 22.332 144.013 23.548C144.013 23.7 144.089 23.776 144.089 23.852C143.025 24.156 142.493 24.992 142.189 26.056C140.137 26.36 140.213 28.868 138.237 29.324C138.161 31.3 135.425 34.34 134.969 34.416C134.285 34.72 133.829 34.948 133.829 35.86C133.981 35.936 134.209 36.012 134.285 36.012C134.361 36.012 138.541 33.124 140.061 30.768C140.213 30.844 140.289 30.844 140.441 30.844C141.505 30.844 141.885 29.02 142.949 28.944C144.013 28.868 144.925 27.044 146.217 26.74C148.345 25.6 149.789 23.7 152.449 23.092C152.981 23.928 153.665 24.536 154.273 25.296C154.197 26.968 152.829 27.88 152.829 28.868C152.829 30.16 149.789 33.352 149.485 33.656C149.181 34.112 147.813 35.48 147.357 37.304C145.685 38.14 145.381 40.952 143.329 42.776C142.189 44.828 140.973 46.804 139.681 48.628C139.605 48.78 139.529 48.932 139.529 49.008C139.529 49.464 139.985 49.768 139.985 49.92C139.985 49.996 139.909 50.072 139.681 50.072C139.301 50.376 139.149 50.756 138.921 51.212C139.453 52.2 140.441 52.428 141.353 52.428C142.417 52.428 143.329 52.124 144.545 52.124C145.001 51.592 147.129 51.212 148.649 50.452C150.397 49.92 151.841 48.248 153.817 47.412C155.033 46.88 156.173 46.044 157.389 44.828C157.921 44.144 160.429 42.244 161.265 42.244C161.873 42.244 162.709 42.928 162.709 43.916C162.709 46.12 159.593 47.716 157.997 49.084C157.541 49.692 155.717 50.908 154.425 51.44C150.093 53.264 145.381 56.076 140.061 56.076C137.705 56.076 135.197 55.468 135.197 53.036C135.197 51.44 135.653 50.528 135.653 48.628C136.717 48.4 136.261 46.576 137.477 46.424C137.401 46.348 137.401 46.196 137.401 46.12C137.401 44.752 139.073 43.688 139.681 42.776C140.441 41.56 139.681 41.028 141.885 39.128C142.417 37.152 144.089 36.24 144.773 34.416ZM179.258 48.096C178.27 49.236 175.002 49.008 174.166 50.604C174.014 50.072 171.658 51.212 171.582 51.668C169.758 52.656 167.326 53.036 165.35 53.872C164.97 54.708 164.286 54.024 163.526 54.252C163.374 54.328 162.614 54.936 162.462 55.012C160.562 55.316 158.586 54.936 156.99 55.316C156.762 54.328 155.47 54.404 155.546 53.188C155.242 51.82 155.47 50.528 155.774 49.844C156.458 48.4 158.358 45.284 159.574 44.372C161.93 42.396 164.59 37.76 167.098 35.936C167.326 35.1 168.162 34.796 168.922 34.492C168.998 33.428 170.062 33.428 170.366 32.668C171.05 32.212 171.582 31.68 172.19 31.148C172.874 30.844 172.646 29.704 174.014 30.084C175.534 29.932 175.002 31.756 175.838 32.288C175.458 34.568 173.178 34.948 172.57 37C170.67 37.684 170.29 39.964 168.846 41.028C166.946 41.788 165.198 45.512 163.526 46.576C162.614 48.172 160.562 48.704 160.258 50.984C161.778 51.972 164.058 50.68 165.046 49.844C167.782 49.616 169.91 48.4 171.962 47.336C173.938 46.272 175.762 45.436 177.738 44.296C179.258 43.688 179.258 42.624 180.55 41.864C182.146 41.408 183.666 40.04 185.566 39.888C186.402 42.244 185.034 44.524 181.614 46.272C181.082 47.032 179.866 47.412 179.258 48.096ZM185.794 13.364C185.718 10.248 185.718 7.208 189.442 7.892C190.202 9.336 190.43 11.312 190.582 13.364C189.594 14.656 187.01 13.972 185.794 13.364ZM226.303 41.408C226.303 41.788 227.139 44.828 227.291 44.676C227.443 44.524 223.035 46.652 220.831 46.576C218.019 46.88 216.727 46.88 213.611 46.728C212.699 46.12 211.179 46.044 210.267 45.284C210.267 45.208 209.887 44.904 209.963 44.904C209.583 44.676 208.899 44.828 208.443 44.524C207.911 44.144 207.379 43.384 206.999 43.08C206.391 42.548 206.011 42.244 205.555 41.636C203.579 42.32 202.971 44.372 201.527 45.588C200.691 46.196 200.387 47.108 199.703 47.792C199.171 48.476 197.879 48.856 197.879 49.996C196.055 50.68 194.839 52.276 193.167 53.264C192.331 53.796 191.495 54.252 190.583 54.708C189.823 55.164 188.455 55.164 188.075 56.228C185.643 56.152 184.199 57.52 181.843 56.608C181.463 55.468 179.867 53.644 181.083 52.2C180.323 50.68 181.387 49.464 181.083 47.488C182.375 45.132 182.831 42.092 184.731 40.496C184.807 39.356 185.795 39.128 185.491 37.608C186.859 36.544 187.771 35.024 188.379 33.2C190.659 33.048 190.431 30.388 193.167 30.692C192.939 31.832 194.307 31.528 193.851 32.896C193.699 33.58 193.091 34.036 192.787 34.72C191.799 35.176 191.495 36.316 190.963 37.228C190.431 38.14 189.671 38.9 189.139 39.812C189.063 39.888 189.215 40.42 189.139 40.496C188.075 41.332 187.619 44.068 186.251 45.284C186.403 47.944 184.047 49.768 185.111 52.2C187.087 52.656 186.783 50.984 188.379 51.06C189.367 50.604 190.203 49.996 191.343 49.616C193.015 48.552 194.307 47.032 196.055 45.968C196.283 45.816 196.283 45.436 196.435 45.284C196.663 45.056 197.879 44.6 197.879 43.84C197.955 42.852 199.627 42.32 200.083 41.256C200.691 39.812 202.059 39.052 202.971 37.608C203.275 37.152 203.047 36.544 203.731 36.544C204.035 34.644 204.795 33.2 205.555 31.756C206.999 30.996 208.823 31.452 209.583 32.516C210.647 34.796 208.443 35.024 208.823 37.608C210.191 43.308 216.347 43.992 222.275 42.244C223.491 42.168 226.303 41.028 226.303 41.408ZM252.719 43.916C252.719 44.068 252.719 46.652 252.491 47.032C251.351 48.856 241.243 54.86 235.543 55.24C230.755 55.544 226.347 54.404 223.459 52.428C221.711 52.2 221.103 50.148 221.255 48.78C220.951 47.26 220.495 45.36 220.951 43.612C220.951 43.612 221.255 43.46 221.255 43.232C221.483 42.472 222.699 38.824 223.611 38.444C223.991 37.38 224.371 36.24 225.435 35.86C226.271 33.808 228.323 32.896 229.387 31.148C231.439 30.236 233.415 29.324 234.859 27.804C237.519 28.032 238.583 26.664 241.091 26.74C242.155 27.576 242.231 28.564 242.155 30.008C242.155 30.616 242.003 30.464 241.851 30.768C241.547 31.3 241.699 32.592 241.091 33.276C241.091 36.24 238.279 39.508 238.051 42.168C236.987 42.7 236.227 44.296 235.543 45.132C234.859 45.968 233.795 46.272 233.339 47.26C231.591 47.868 230.679 49.236 228.931 49.844C230.071 50.832 231.895 51.288 232.959 51.592H233.719C237.747 51.364 243.751 48.856 246.943 46.5C247.627 45.968 249.147 45.208 249.831 44.904C250.515 44.676 251.959 43.916 252.719 43.916ZM237.823 31.148C236.835 31.832 235.847 31.528 235.239 31.832C233.035 33.048 231.819 35.328 229.767 36.24C228.399 38.748 224.979 43.08 224.903 46.956C226.043 47.032 227.411 46.424 227.867 46.196C228.779 45.664 229.311 45.36 230.071 44.752C232.351 42.928 235.315 37.684 236.683 35.48C237.367 34.416 238.203 33.276 238.203 31.832C238.127 31.604 238.127 31.148 237.823 31.148Z" fill="#383838"/>
</svg>
