<svg width="299" height="73" viewBox="0 0 299 73" fill="none" xmlns="http://www.w3.org/2000/svg">
<path opacity="0.15" d="M62.144 52.232C64.576 50.256 66.324 47.748 68.224 45.24C68.224 45.62 68.756 48.964 66.78 51.852C64.272 55.424 59.18 59.3 58.8 59.376V59.528C58.724 60.288 57.356 59.3 57.356 59.984C57.356 60.668 51.504 61.96 51.048 62.644C50.744 63.86 48.692 63.252 48.464 64.468C45.196 64.468 45.044 66.292 42.612 66.292C41.244 66.52 40.18 67.432 38.812 67.432C37.672 67.432 37.748 68.724 36.76 68.876C31.288 69.788 25.74 72.22 17.912 72.22C15.024 72.22 11.756 71.84 8.716 71.08C7.728 70.168 6.74 69.408 5.448 68.876C3.244 66.444 1.572 63.48 0.66 59.756C0.736 55.424 0.432 51.852 1.42 48.052C1.42 47.9 2.104 47.444 2.104 47.368C3.776 42.428 5.828 35.588 9.4 31.256C10.388 28.976 12.364 27.684 13.428 25.48C15.176 24.492 15.784 22.44 17.836 21.832C18.292 20.996 18.748 19.932 19.66 19.248C19.888 19.096 20.8 19.096 20.8 18.716C20.8 18.564 20.724 18.336 20.724 18.26C20.724 18.032 21.788 17.88 22.168 17.424C23.156 16.588 23.84 15.448 25.132 14.536C26.576 13.472 28.476 12.408 29.844 10.888C33.188 8.988 36.38 6.936 39.724 5.036C41.776 4.504 42.992 3.212 45.196 2.832C45.12 2.68 45.12 2.604 45.12 2.452C45.12 2.148 45.348 2.148 45.652 2.148H46.26C46.944 2.148 47.096 1.616 47.704 1.388C49.3 0.855997 50.516 0.931996 52.872 0.627995C53.48 0.551996 54.012 0.323999 54.544 0.323999C56.368 0.323999 58.192 1.464 59.788 1.768C62.068 3.668 61.232 6.86 62.676 7.924V9.748C62.676 12.104 62.448 14.156 61.992 15.98C60.7 17.652 59.56 19.4 58.344 21.072C58.04 22.288 56.9 22.592 56.52 23.656C53.708 27.988 51.428 28.596 51.352 29.128C51.2 29.584 50.972 29.812 50.44 29.812H50.288C49.756 31.104 48.084 32.092 46.336 32.092C45.652 32.092 44.36 32.016 44.36 31.104C44.36 28.9 46.26 28.444 47.704 27.608C49.376 25.024 51.732 23.124 53.936 21.072C54.088 19.172 56.14 19.248 56.14 17.044C57.508 16.36 57.812 14.688 59.028 13.776C59.256 12.712 59.408 11.344 59.408 10.128C59.408 4.276 55.76 5.416 53.176 3.592C51.884 3.972 50.212 3.972 48.844 4.276C47.704 4.352 47.4 5.34 46.64 5.796C46.26 5.72 46.032 5.644 45.728 5.644C44.588 5.644 44.208 6.48 42.992 6.48C42.156 6.708 42.232 7.62 41.244 7.62C41.168 7.62 40.94 7.62 40.788 7.544C39.42 8.912 38.128 10.052 36.456 10.888C35.924 11.344 34.632 11.04 34.632 11.952C32.276 13.244 30.224 15.22 28.02 16.664C26.804 17.196 26.652 18.716 25.132 18.868C23.156 21.376 20.268 23.124 18.216 25.48C16.24 27.304 14.036 30.344 12.364 32.396C12.364 33.308 12.136 33.84 11.452 33.84H11.224C11.072 34.448 11.148 35.284 10.388 35.284C9.248 35.284 8.564 41.136 7.272 41.516C7.804 42.808 6.056 42.96 6.056 43.948C6.056 45.392 5.676 46.684 4.688 47.672C4.384 50.636 3.928 53.448 3.244 56.108C4.308 62.036 5.676 64.468 11.224 68.116C12.592 68.116 13.808 68.268 14.568 68.876C19.128 68.192 24.448 68.344 28.78 67.432C29.388 66.976 30.604 66.444 31.516 66.444C31.896 66.444 32.2 66.52 32.428 66.672C33.492 65.228 34.784 66.824 36.76 64.848C38.356 64.392 39.952 64.164 41.548 63.784C44.74 62.112 48.236 60.744 51.732 59.376C55.152 57.172 59.332 54.588 62.144 52.232ZM67.2057 47.672C67.5097 46.836 67.8137 45.62 67.9657 44.556C68.2697 44.404 68.9537 43.568 69.7897 43.112C71.9937 42.808 72.9057 41.212 74.8817 40.604C76.0977 39.692 76.7817 38.324 77.8457 37.26C79.8977 36.956 81.1897 35.816 83.6217 35.816C84.8377 36.728 87.4217 37.716 87.3457 39.844C87.9537 41.136 88.0297 42.58 88.2577 43.796C88.3337 43.948 88.7137 44.1 89.3217 43.948C90.3857 43.72 89.3977 44.024 90.4617 43.644C91.7537 43.112 93.5777 43.416 93.5777 43.492C93.6537 44.1 92.1337 46.38 91.7537 46.684C91.6017 46.76 91.2977 46.836 90.6897 47.064C89.4737 47.52 90.2337 47.14 89.0937 47.596C87.8777 48.052 87.7257 48.204 87.7257 48.28C86.8137 51.244 84.8377 52.612 83.3177 54.816C82.8617 55.272 80.9617 56.336 81.1897 57.02C80.2777 57.172 80.5817 57.856 79.6697 58.844C77.0857 60.972 74.1977 62.796 70.9297 64.316C68.3457 64.848 64.6977 64.468 62.8737 63.936C61.8857 62.34 62.1137 59.528 62.1137 57.02C62.4937 56.184 62.7977 55.196 63.2537 54.436C63.4057 54.132 64.1657 53.98 64.3177 53.676C64.6217 53.22 64.4697 52.688 64.6977 52.232C65.6097 50.636 65.9137 48.888 67.2057 47.672ZM81.4937 40.604C81.4177 41.06 80.9617 41.06 81.1137 41.668C80.6577 42.58 79.5937 42.884 78.5297 43.112C78.3017 43.872 76.4777 44.936 77.4657 45.696C77.5417 45.088 77.9977 45.696 77.8457 46.38C80.0497 46.532 83.0897 46.076 84.4577 45.316C84.3057 43.872 84.7617 41.82 84.0777 40.908C83.6217 40.908 82.0257 40.452 81.4937 40.604ZM72.3737 47.9C72.2977 48.356 71.8417 48.356 71.9937 48.964C71.0817 49.04 70.9297 49.876 70.5497 50.408C69.0297 52.308 67.9657 54.664 66.5217 56.26C66.5217 57.856 65.4577 58.388 65.7617 60.288H69.4857C70.2457 60.212 72.9057 58.692 73.1337 58.464C73.4377 58.16 73.4377 58.312 73.8937 58.084C75.0337 57.4 75.7177 56.108 77.1617 55.88C77.8457 55.044 78.5297 54.132 79.3657 53.372C80.1257 52.536 80.8857 51.776 81.8737 51.168C82.4057 50.256 83.0137 50.256 83.0137 49.04C81.7977 49.8 79.3657 49.952 77.8457 50.028C77.3137 49.572 76.2497 49.724 75.2617 49.724C74.2737 49.116 73.5897 48.204 72.3737 47.9ZM134.142 53.068C132.622 54.36 129.734 55.956 128.062 56.716C126.77 57.172 126.466 57.78 124.414 58.692C123.122 59.832 122.438 59.528 121.07 60.592C118.258 62.568 114.762 62.796 111.798 64.62C109.67 64.696 106.858 65.608 105.186 63.86C105.11 62.036 105.718 60.592 106.326 59.528C106.402 59.376 106.174 58.844 106.326 58.768C106.706 58.464 106.402 58.16 106.706 57.704C106.782 57.476 107.238 57.628 107.39 57.324C107.77 56.716 107.77 56.336 108.15 55.88C108.378 55.5 108.91 55.196 109.214 54.74C109.29 54.664 109.138 54.132 109.214 54.056C109.594 53.752 109.67 53.676 109.974 53.296C110.734 52.232 113.09 47.748 114.002 46.076C110.962 47.14 104.35 52.08 102.07 54.132C101.386 54.816 100.246 55.576 99.7895 56.412C98.1175 57.476 97.5855 59.452 95.9895 60.592C94.7735 60.668 94.9255 62.188 93.7855 62.416C93.0255 62.948 92.4175 63.708 91.5815 64.24C89.6815 64.012 89.2255 65.228 88.2375 63.86C88.0855 62.036 89.0735 61.352 89.6815 60.212C90.6695 59.528 91.2015 58.312 91.8855 57.324C93.0255 55.12 96.1415 50.864 97.0535 48.28C97.3575 46.988 98.7255 40.604 99.1055 39.692C99.6375 38.4 100.474 38.552 102.298 38.856C103.59 40.072 102.298 46.76 101.386 48.28C101.918 48.508 101.386 48.66 101.386 49.04H101.006C101.234 50.104 101.614 48.508 102.146 48.66C102.83 48.66 102.374 47.672 103.362 47.976C103.742 46.988 104.806 46.684 105.186 45.772C106.022 46 106.326 45.392 107.01 45.012C107.998 44.48 108.834 44.024 109.898 43.188C110.278 42.96 110.658 42.352 111.038 42.124C112.786 40.908 115.598 39.996 117.27 38.476C118.562 37.868 121.678 36.348 123.502 37.336C124.566 39.692 123.198 41.972 121.678 42.808C121.83 44.252 120.158 43.948 120.234 45.392C119.17 45.544 119.398 46.988 118.41 47.216C117.878 49.268 115.218 53.068 114.002 54.36C113.546 55.348 113.09 56.184 112.482 56.944C111.418 57.096 111.798 58.692 111.038 59.148C111.646 60.136 112.406 58.312 113.242 58.388C114.002 58.084 115.218 58.616 115.826 58.084C116.814 58.008 116.814 57.628 117.65 57.4C121.602 55.728 122.818 56.032 126.086 53.676C127.682 53.068 127.53 53.22 128.822 52.308C129.734 51.7 130.19 51.168 130.722 50.636C131.33 50.408 132.394 49.496 132.926 49.268C134.37 48.508 135.51 47.292 137.714 47.216C138.094 50.788 137.258 52.232 136.118 52.308C135.434 52.308 134.218 52.764 134.142 53.068ZM163.647 56.032C164.787 56.944 163.343 57.628 164.027 58.464C162.203 59.3 161.367 60.288 160.151 60.896C159.391 61.276 158.099 62.416 156.883 62.796C156.655 62.796 155.515 63.328 155.287 63.48C154.831 63.632 154.755 63.936 153.843 64.164C153.387 64.316 152.019 64.772 151.335 64.924C150.195 65.228 151.411 64.696 149.815 65.076C149.055 65.228 148.371 65.38 147.611 65.836C146.015 65.152 143.279 65.532 141.075 65.456C140.619 64.696 139.479 64.62 138.491 64.316C137.579 62.796 135.603 61.428 135.223 58.844C134.919 56.944 135.451 55.044 135.983 53.068C136.895 51.168 137.427 47.824 138.491 46.836C140.315 43.872 141.531 40.3 143.659 37.716C143.127 37.108 141.835 37.184 140.695 37.336C139.859 37.488 138.035 37.868 136.363 38.096C134.007 38.324 130.891 39.464 130.131 36.956C129.979 35.512 132.031 36.196 132.715 35.512C133.399 34.904 135.071 35.208 135.603 34.448C139.403 34.22 142.899 33.688 146.547 33.308C147.155 33.232 147.687 32.624 147.991 32.244C148.219 31.94 148.143 31.484 148.371 31.18C148.903 30.496 150.499 29.28 151.259 28.216C152.779 26.392 153.919 24.34 155.287 22.364C156.579 21.452 156.427 19.172 158.935 19.476C160.455 19.476 159.239 22.06 160.075 22.744C158.251 26.316 155.059 28.444 153.843 32.624C153.995 33.384 155.667 32.776 156.427 33.004C164.863 32.244 173.831 31.864 182.267 31.18C183.179 31.636 184.471 32.244 183.559 33.384C181.659 33.536 180.063 33.764 180.139 33.688C178.011 33.612 176.643 34.296 174.287 34.068C172.691 34.98 171.247 34.372 169.195 35.132C167.751 35.208 166.459 35.132 165.547 34.828C163.039 35.968 162.887 34.752 160.379 35.512C159.315 35.816 159.315 35.816 158.251 35.512C157.567 35.816 156.883 36.12 156.047 36.272C155.135 36.424 153.311 34.752 152.019 36.272C152.095 37.032 150.727 36.424 150.195 36.652C149.359 38.78 147.383 39.844 146.547 42.124C144.723 43.416 144.875 45.62 142.899 46.836C142.975 47.824 141.911 48.28 141.455 49.04C140.923 49.8 140.923 51.016 140.011 51.548C139.555 54.436 138.339 56.792 139.631 59.604C140.467 60.212 140.999 60.82 141.835 61.048C142.139 61.124 142.063 61.352 142.139 61.428C144.571 62.568 147.915 61.428 150.575 61.048C151.715 60.744 153.539 60.44 154.755 59.376C154.831 59.3 156.807 58.312 156.883 58.312C157.491 58.008 157.947 57.476 158.631 57.172C159.239 56.944 160.227 56.944 160.835 56.792C161.215 55.956 162.583 56.184 163.647 56.032ZM209.07 49.572C209.07 49.572 209.982 52.232 210.21 52.156C208.918 52.84 207.474 54.74 206.258 55.348C204.966 55.956 205.27 56.488 203.978 57.172C202.686 57.856 201.698 58.844 200.406 59.528C199.722 59.832 198.886 59.832 198.202 60.212C197.442 60.668 197.29 61.048 196.378 60.972C195.086 62.264 192.73 61.884 191.666 63.404C189.006 63.708 187.182 63.556 184.674 64.012C184.674 63.252 183.154 63.86 182.546 63.632C182.47 62.72 181.102 63.1 181.026 62.188C180.342 62.112 180.95 60.592 179.962 60.744C178.898 60.592 178.594 61.656 177.758 61.808C176.77 62.112 175.326 62.872 174.11 63.632C173.578 64.012 171.602 64.392 170.462 65.152C169.93 65.456 166.966 66.292 165.75 66.216C165.902 66.216 164.686 65.456 163.926 65.836C162.178 64.24 161.266 61.808 162.102 58.54C163.014 57.552 163.546 56.108 163.926 54.512C165.066 53.524 165.75 52.004 166.814 50.864C168.638 48.584 171.07 46.836 173.046 44.708C174.338 43.872 175.554 43.036 176.314 41.744C178.214 41.668 178.746 40.3 179.962 39.616C181.406 38.932 183.23 38.704 183.99 37.412C187.334 36.956 189.462 35.284 192.73 34.828C195.39 35.36 196.53 38.02 195.618 41.06C195.01 41.744 194.554 42.58 193.49 42.884C193.642 43.644 192.73 43.416 192.73 43.948C192.654 44.48 191.818 44.252 191.286 44.328C189.918 42.428 192.274 41.592 192.35 39.92C190.526 39.008 189.234 40.68 186.878 40.3C185.814 41.06 184.37 41.212 183.23 41.744C182.166 42.352 181.558 43.34 180.342 43.568C178.29 44.784 176.922 46.76 174.49 47.596C173.502 49.04 172.362 50.332 171.222 51.624C170.31 51.928 170.082 52.916 169.398 53.448C168.714 53.98 168.638 55.12 167.574 55.272C166.966 57.628 165.598 59.072 165.37 61.808C167.574 63.1 169.55 61.2 171.602 61.124C171.602 60.44 172.21 60.668 172.666 60.364C173.122 60.136 173.35 59.908 173.73 59.68C174.414 59.3 176.01 59.3 175.934 58.16C176.846 58.236 177.682 58.236 178.138 57.78C178.974 57.704 178.822 56.564 179.962 56.716C180.266 55.196 181.254 54.36 181.406 52.688C182.166 51.852 183.23 51.32 183.23 49.8C186.194 48.812 186.27 45.012 190.526 45.392C191.438 45.772 191.438 46.988 191.97 47.596C192.198 49.876 190.222 49.952 190.146 52.004C189.006 52.612 188.322 53.828 187.638 54.892C186.65 55.272 186.118 56.032 185.434 56.716C184.902 57.248 183.458 57.476 183.99 58.92C183.61 60.212 185.586 59.3 185.814 59.984C186.422 59.68 187.334 59.832 188.018 59.68C189.234 59.3 190.146 59.604 191.286 58.996C192.426 58.464 193.794 58.084 194.934 57.552C197.138 56.564 199.266 55.652 201.47 54.664C202.382 53.6 203.446 53.068 204.51 52.46C206.03 51.624 207.322 50.56 209.07 49.572ZM249.334 50.484C250.626 49.724 251.842 49.724 250.854 52.992C250.322 54.74 246.294 57.476 244.47 57.856C243.406 58.464 242.114 59.148 240.974 59.68C240.822 59.756 240.366 60.516 240.29 60.516C239.53 60.744 238.314 60.82 238.086 61.884C236.566 61.428 236.642 62.644 235.502 62.568C234.286 63.404 232.386 63.556 231.322 64.62C230.714 64.848 229.194 64.164 229.194 65C228.966 65.608 227.446 64.924 227.37 65.684C224.634 65.532 222.734 66.064 220.758 66.672C217.718 66.596 214.526 66.824 212.018 66.292C210.878 65.456 209.966 64.468 208.37 64.088C208.142 63.024 207.914 61.884 206.926 61.504C207.002 59.072 206.47 59.376 206.698 56.792C206.85 55.272 208.142 53.144 208.446 51.624C210.498 49.42 211.942 46.608 214.222 44.708C218.326 40.68 223.494 35.968 231.778 37.412C233.45 39.844 234.134 43.264 235.046 46.532C234.286 46.456 234.894 47.824 234.666 48.356C233.678 49.268 231.854 51.32 229.574 49.42C229.65 48.812 229.422 48.204 229.574 47.596C229.802 46.38 231.17 45.62 231.018 43.568C231.018 42.808 230.638 42.352 230.334 41.44C228.662 40.3 226.838 39.996 224.862 41.06C225.242 41.82 225.242 41.82 224.482 41.44C223.722 41.06 223.95 42.048 223.722 42.124C223.494 42.276 222.962 42.048 222.658 42.124C222.202 42.428 221.746 43.188 220.834 42.884C220.606 43.416 219.846 43.568 219.39 43.948C219.086 44.252 219.162 45.696 217.946 45.088C217.946 46.304 217.11 46.684 216.426 47.292C216.046 49.116 213.842 49.192 213.538 51.244C212.626 51.472 212.246 52.156 211.714 52.688C210.954 55.652 209.13 56.032 210.194 59.68C210.954 61.732 212.93 62.568 214.906 63.328C218.934 63.1 223.342 63.252 226.23 61.884C227.37 61.428 228.89 61.352 229.878 60.82C232.462 60.212 234.21 58.236 236.794 57.628C238.846 56.488 241.126 55.348 243.406 54.512C245.458 53.448 247.054 51.32 249.334 50.484ZM277.436 56.032C278.576 56.944 277.132 57.628 277.816 58.464C275.992 59.3 275.156 60.288 273.94 60.896C273.18 61.276 271.888 62.416 270.672 62.796C270.444 62.796 269.304 63.328 269.076 63.48C268.62 63.632 268.544 63.936 267.632 64.164C267.176 64.316 265.808 64.772 265.124 64.924C263.984 65.228 265.2 64.696 263.604 65.076C262.844 65.228 262.16 65.38 261.4 65.836C259.804 65.152 257.068 65.532 254.864 65.456C254.408 64.696 253.268 64.62 252.28 64.316C251.368 62.796 249.392 61.428 249.012 58.844C248.708 56.944 249.24 55.044 249.772 53.068C250.684 51.168 251.216 47.824 252.28 46.836C254.104 43.872 255.32 40.3 257.448 37.716C256.916 37.108 255.624 37.184 254.484 37.336C253.648 37.488 251.824 37.868 250.152 38.096C247.796 38.324 244.68 39.464 243.92 36.956C243.768 35.512 245.82 36.196 246.504 35.512C247.188 34.904 248.86 35.208 249.392 34.448C253.192 34.22 256.688 33.688 260.336 33.308C260.944 33.232 261.476 32.624 261.78 32.244C262.008 31.94 261.932 31.484 262.16 31.18C262.692 30.496 264.288 29.28 265.048 28.216C266.568 26.392 267.708 24.34 269.076 22.364C270.368 21.452 270.216 19.172 272.724 19.476C274.244 19.476 273.028 22.06 273.864 22.744C272.04 26.316 268.848 28.444 267.632 32.624C267.784 33.384 269.456 32.776 270.216 33.004C278.652 32.244 287.62 31.864 296.056 31.18C296.968 31.636 298.26 32.244 297.348 33.384C295.448 33.536 293.852 33.764 293.928 33.688C291.8 33.612 290.432 34.296 288.076 34.068C286.48 34.98 285.036 34.372 282.984 35.132C281.54 35.208 280.248 35.132 279.336 34.828C276.828 35.968 276.676 34.752 274.168 35.512C273.104 35.816 273.104 35.816 272.04 35.512C271.356 35.816 270.672 36.12 269.836 36.272C268.924 36.424 267.1 34.752 265.808 36.272C265.884 37.032 264.516 36.424 263.984 36.652C263.148 38.78 261.172 39.844 260.336 42.124C258.512 43.416 258.664 45.62 256.688 46.836C256.764 47.824 255.7 48.28 255.244 49.04C254.712 49.8 254.712 51.016 253.8 51.548C253.344 54.436 252.128 56.792 253.42 59.604C254.256 60.212 254.788 60.82 255.624 61.048C255.928 61.124 255.852 61.352 255.928 61.428C258.36 62.568 261.704 61.428 264.364 61.048C265.504 60.744 267.328 60.44 268.544 59.376C268.62 59.3 270.596 58.312 270.672 58.312C271.28 58.008 271.736 57.476 272.42 57.172C273.028 56.944 274.016 56.944 274.624 56.792C275.004 55.956 276.372 56.184 277.436 56.032Z" fill="#383838"/>
</svg>
