<svg width="177" height="93" viewBox="0 0 177 93" fill="none" xmlns="http://www.w3.org/2000/svg">
<path opacity="0.15" d="M31.884 85.476C31.352 86.54 30.972 87.452 30.364 88.364C28.16 88.364 29.224 85.704 29.68 84.412C30.288 83.044 30.212 80.992 31.124 80.004C31.656 76.584 33.328 74.38 33.708 70.884C32.492 70.352 31.124 70.808 30.06 71.264C29.604 71.416 29.148 71.416 28.54 71.568C26.792 72.176 22.764 72.024 19.572 71.872C19.344 71.872 19.04 71.948 18.888 71.872C18.66 71.796 18.432 71.492 18.508 71.492C18.052 71.492 17.824 71.872 17.748 71.872C14.252 71.72 11.212 70.884 7.944 70.428C7.26 69.516 6.12 69.06 4.98 68.604C3.916 67.236 2.852 65.868 1.712 64.576C1.636 63.664 1.484 62.828 0.952 62.372C0.952 60.624 1.18 57.052 0.648 55.76C1.104 55.684 1.256 52.112 1.332 51.732C1.712 50.06 2.396 47.856 3.384 46.26C4.828 44.588 5.284 42.308 7.184 41.168C7.792 38.584 10.3 37.52 11.212 35.24C12.048 34.556 13.036 33.948 13.72 33.112C14.48 32.352 15.468 31.896 15.924 30.908C17.9 30.148 19.42 29.008 20.712 27.64C22.612 26.956 24.284 26.12 25.804 25.056C28.692 24.98 30.516 23.764 32.72 22.852C35.076 22.776 36.976 22.32 39.636 22.548C41.232 22.624 41.536 23.992 42.904 24.372C43.588 25.284 44.652 24.98 45.488 25.436C46.172 25.816 46.628 26.804 47.312 27.26C47.692 27.488 47.768 27.336 48.072 27.64C48.376 27.944 48.832 28.02 49.136 28.324C49.44 28.628 49.896 28.78 50.2 29.084C50.352 29.236 50.884 29.768 51.72 29.844C52.404 31.136 53.468 32.428 54.608 33.796C54.684 33.948 55.292 34.1 55.368 34.176C55.596 34.708 55.596 35.012 56.052 35.62C56.584 36.304 57.116 36.836 57.496 37.444C57.572 37.596 57.42 38.128 57.496 38.204C58.028 38.584 58.484 40.104 58.636 41.472C58.864 43.904 58.18 48.692 57.876 51.732C56.736 53.1 55.596 56.064 54.988 57.964C52.936 59.104 51.872 61.232 49.516 61.992C49.136 63.208 47.616 63.284 46.552 63.816C45.944 64.728 44.728 64.88 44.044 65.64C41.764 66.248 40.092 67.92 38.42 69.06C37.584 71.264 36.596 73.316 36.216 75.976C35.38 76.66 35.456 78.332 34.392 78.864C34.316 80.232 34.012 81.372 33.328 82.208C32.264 82.892 33.176 83.88 32.568 85.096C32.492 85.248 31.884 85.324 31.884 85.476ZM38.952 26.88C37.736 25.892 35.228 26.196 33.1 26.12C31.124 27.108 29.072 27.564 27.248 28.324C25.348 29.16 23.828 30.452 21.776 30.908C18.584 34.024 14.556 36.684 11.896 40.408C8.704 43.524 6.5 50.212 4.296 54.316C4.372 57.204 3.688 60.244 4.6 62.372C5.056 63.208 5.816 63.588 6.12 64.576C7.184 65.336 8.324 66.02 9.388 66.78C11.972 66.932 14.556 67.996 17.368 68.224C21.776 68.528 26.26 68.224 30.364 67.92C30.592 67.236 32.112 67.692 32.188 66.856C33.1 66.704 34.392 66.856 34.392 65.792C35.228 65.716 34.544 64.196 34.772 63.588V61.004C34.24 60.548 34.088 59.788 34.012 58.8C33.1 58.8 33.328 57.508 32.948 57.052C32.796 56.824 32.036 56.9 31.884 56.672C31.58 56.368 31.884 55.684 31.504 55.532C30.364 55.76 30.668 54.468 29.3 54.848C29.224 54.392 28.692 54.392 28.236 54.468C28.236 53.86 28.16 53.328 27.856 53.024C28.084 51.428 30.136 51.656 31.504 51.2C31.58 51.96 33.1 51.276 33.328 51.884C33.404 52.644 34.316 52.644 34.392 53.328C36.52 54.088 37.28 56.064 38.04 57.736C38.876 59.56 38.268 62.372 38.8 64.348C40.32 64.652 40.472 63.588 41.688 63.588C42.372 62.904 42.98 62.372 43.664 61.992C43.816 61.916 44.12 61.46 44.424 61.308C44.728 61.08 45.108 61.156 45.488 60.928C46.02 60.624 46.324 59.788 46.932 59.484C47.616 59.028 48.376 59.028 49.136 58.724C50.732 56.672 52.86 55.228 53.848 52.492C54.304 51.58 55.216 49.68 55.368 48.464C56.888 42.764 53.088 36.912 51.34 33.492C49.972 32.352 48.756 31.136 47.312 30.148C45.792 28.932 44.424 27.64 42.22 27.64C41.612 28.096 41.764 29.388 40.776 29.464C40.472 30.3 39.56 30.452 39.256 31.288C38.496 32.2 37.736 33.492 36.064 32.352C36.596 31.06 36.9 31.06 37.128 29.464C37.736 29.16 40.548 26.804 38.952 26.88ZM149.227 1.04C150.975 0.735996 151.279 1.876 151.811 2.864C151.507 4.76399 149.227 4.688 148.163 5.828C146.719 6.816 145.275 7.576 143.755 8.716C143.299 9.096 143.071 9.552 142.691 9.856C142.159 10.16 141.399 10.16 140.867 10.54C140.411 10.844 140.183 11.376 139.727 11.68C139.651 11.756 139.119 11.528 139.043 11.68C138.663 12.136 137.979 13.2 136.839 13.124C136.459 14.416 134.863 14.568 134.635 16.012C133.267 16.392 132.811 17.608 131.747 18.216C130.227 20.116 127.643 20.952 126.959 23.688C127.035 24.828 128.783 24.296 129.923 24.448C130.911 25.284 132.127 26.044 133.191 26.956C134.179 27.792 135.775 28.476 135.699 30.224C135.623 31.516 134.635 31.82 133.571 32.048C132.127 32.352 132.127 31.288 131.747 30.604C129.315 27.488 118.827 27.336 114.951 29.92C113.203 29.616 112.595 30.452 110.923 30.224C110.163 30.908 108.871 30.908 108.035 31.364C107.807 31.44 107.123 31.516 106.895 31.668C106.743 31.82 106.667 32.352 106.515 32.428C105.983 32.732 105.223 32.808 104.691 33.188C103.855 33.796 102.715 34.556 102.563 35.696C102.715 37.672 105.223 37.368 106.211 38.66C109.479 39.344 114.723 38.128 116.015 40.788C116.243 42.992 114.039 42.688 113.127 43.752C108.871 43.828 104.539 43.828 100.359 44.132C95.6468 44.436 91.5428 45.804 87.5908 46.64C82.2708 48.92 77.4068 51.58 72.2388 53.936C71.6308 54.544 70.9468 55.076 70.4148 55.76C69.5028 56.064 69.6548 57.432 68.2108 57.28C68.2868 59.332 66.7668 60.244 66.7668 61.992C66.8428 65.336 69.5788 66.4 72.2388 67.844C75.6588 68.148 79.0028 68.604 82.1188 69.288C85.3108 67.312 87.9708 64.652 90.4788 61.992C92.5308 62.372 91.9988 60.32 93.8228 60.548C94.5068 61.004 94.8868 61.84 95.2668 62.676C95.0388 64.272 93.3668 64.5 92.3028 65.26C91.6948 66.476 90.4028 67.008 89.7948 68.148C90.7068 69.212 94.0508 67.768 94.5068 69.288C94.8108 70.504 93.1388 69.896 93.0628 70.732C92.6068 71.188 91.6948 71.188 91.2388 70.732C89.7188 71.036 88.2748 71.416 86.4508 71.492C84.5508 72.024 84.3228 74.152 82.1188 74.38C81.5868 76.204 79.3828 76.28 78.8508 78.028C77.3308 77.8 77.9388 79.548 76.6468 79.472C76.4948 80.536 75.3548 80.688 74.8228 81.296C73.3788 82.208 72.6188 83.728 71.1748 84.564C70.4148 86.54 69.0468 87.832 67.5268 88.972C66.9188 90.036 67.4508 92.316 65.3228 91.86C64.3348 90.416 65.7028 88.82 65.7028 87.148C66.9188 86.312 67.2988 84.716 68.2108 83.5C68.4388 83.272 68.5908 83.576 68.5908 83.12C68.6668 82.664 69.1228 83.044 69.3508 82.74C69.5788 82.436 69.4268 81.98 69.7308 81.676C70.1868 81.22 70.7948 80.612 71.5548 80.612C71.4788 80.08 71.4788 79.548 71.8588 79.472C72.9228 78.256 74.3668 77.344 75.2028 75.824C75.5828 75.14 76.7988 75.292 76.6468 74C77.7108 74 78.0148 73.164 78.4708 72.556C78.0908 71.72 76.1908 72.404 75.2028 72.176C74.3668 71.568 73.0748 71.416 71.5548 71.492C69.9588 70.428 67.8308 69.82 66.0828 68.908C65.5508 68.148 65.2468 67.312 64.2588 67.084C63.7268 65.412 62.8908 64.044 62.7388 61.992C62.5868 60.548 63.4228 60.168 63.1188 58.724C64.0308 57.888 64.3348 56.444 64.9428 55.38C65.3228 55.38 65.2468 55 65.3228 54.696C66.3108 54.848 66.6148 53.708 67.1468 53.252C68.6668 51.96 70.7188 50.972 72.6188 49.604C75.2028 48.008 78.0148 46.792 80.9788 45.576C83.8668 44.436 86.8308 43.296 89.7948 42.308C92.9868 41.548 96.3308 40.788 99.5988 40.104C99.5228 38.356 97.6988 38.356 97.7748 36.456C98.3828 35.848 97.6988 35.088 98.1548 33.872C100.359 31.364 103.095 29.388 106.515 28.096C107.503 27.412 109.175 27.564 109.859 26.576C112.671 26.272 115.331 25.816 117.459 24.752C120.119 24.98 121.563 23.992 124.071 24.068V21.104C125.135 21.256 125.135 19.736 125.515 19.28C125.971 18.748 126.807 18.672 127.339 18.216C127.491 18.14 127.263 17.608 127.339 17.456C127.643 17.152 128.403 17.304 128.783 17.076C129.163 15.86 129.695 14.872 130.987 14.568C131.063 13.124 132.431 13.124 133.191 12.364C133.951 11.604 134.559 10.54 135.395 9.856C135.471 9.704 136.003 9.932 136.079 9.856C136.383 9.476 136.459 9.4 136.839 9.096C137.219 8.792 137.523 8.336 137.903 8.032C138.891 7.272 139.803 6.816 140.867 6.208C141.247 5.904 141.551 5.296 141.931 5.068C142.463 4.688 143.223 5.068 143.375 4.38399C144.135 4.76399 143.907 3.69999 144.135 3.624C144.819 3.244 145.807 3.31999 146.643 2.864C147.023 1.8 148.695 2.028 149.227 1.04ZM157.814 77.116C157.586 77.116 157.434 77.116 157.206 77.04C156.902 76.584 156.75 76.052 156.75 75.52C156.75 74.38 157.206 73.088 157.586 72.328V66.856C156.902 64.5 155.306 63.056 155.002 60.32C153.482 57.888 150.366 55.988 149.91 54.088C149.378 53.404 148.086 53.556 148.086 52.264C147.858 52.34 147.706 52.34 147.554 52.34C146.49 52.34 146.186 51.58 145.122 51.504C143.146 51.732 142.614 53.404 141.474 54.468C140.258 55.228 139.346 56.444 138.586 57.736C136.686 58.724 135.014 60.016 134.178 62.144C134.634 65.108 135.85 67.312 137.522 69.06C137.978 69.972 140.41 69.212 140.41 70.884C140.41 71.112 139.574 72.1 139.346 72.1C138.054 72.1 136.914 70.808 135.698 70.808C135.622 70.808 135.47 70.884 135.318 70.884C134.862 69.972 134.026 69.44 133.114 69.06C132.506 67.464 131.442 66.324 130.91 64.652C128.858 64.652 128.782 66.628 127.262 67.236C126.958 67.616 126.046 69.06 125.742 69.06C125.59 69.06 125.362 68.984 125.21 68.984C124.83 68.984 124.906 69.972 124.374 70.504C123.386 71.416 121.182 73.468 120.574 73.468C120.194 73.468 119.738 73.392 119.358 73.392C118.826 73.392 119.054 73.772 118.598 73.772C117.458 73.772 117.002 72.1 117.002 71.796C117.002 70.124 117.914 69.364 118.902 68.68C120.118 68.376 120.422 66.096 121.79 66.096C123.158 63.816 126.122 63.208 127.262 60.624C129.01 60.092 129.922 58.648 131.29 57.736C131.214 57.508 131.214 57.28 131.214 57.052C131.214 55.076 132.734 54.544 132.734 52.644C134.406 52.644 135.242 49.68 136.762 48.996C138.89 48.616 140.41 47.552 142.994 47.552C145.046 44.816 148.39 43.524 150.594 40.94C153.33 38.888 155.914 36.76 158.65 34.784C159.714 32.96 161.918 32.2 163.058 30.376C166.022 29.464 167.39 27.032 170.962 27.032C171.19 27.032 171.494 27.108 171.874 27.108C172.938 27.108 173.622 25.36 174.458 25.36C174.61 25.36 174.838 25.436 175.066 25.664H175.294C176.51 25.664 176.966 28.552 176.966 28.476C176.966 31.44 174.686 33.72 174.686 36.836V37.292C172.482 41.32 171.342 46.336 168.834 50.06V52.264C167.314 53.252 166.706 56.368 165.566 59.18C164.426 61.916 162.298 66.096 162.298 69.06C162.298 70.504 161.842 71.72 161.842 72.556C161.842 73.164 161.994 73.848 161.994 74.456C161.994 74.988 161.842 75.444 161.538 75.596C161.614 75.748 161.614 75.9 161.614 75.976C161.614 76.28 161.386 76.356 161.082 76.356C160.854 76.356 160.55 76.28 160.322 76.28C159.714 76.28 158.954 77.116 157.814 77.116ZM171.798 31.82C171.114 33.036 169.518 33.036 168.302 33.568C167.922 35.012 166.326 35.468 165.338 36.152C164.198 36.912 163.286 37.748 162.07 38.28C160.93 38.812 160.778 40.636 159.03 40.56H158.65C157.89 42.156 155.838 42.46 155.002 43.904C153.482 44.36 152.874 45.652 151.354 46.032V46.336C151.354 47.324 148.466 47.476 148.466 49.376C151.506 50.592 152.874 53.86 155.762 55.532C156.066 56.9 157.358 57.356 157.89 58.496C158.498 59.864 159.334 62.752 160.474 62.828C160.398 62.6 160.398 62.448 160.398 62.296C160.398 60.776 161.766 60.548 161.918 59.18C162.374 57.052 163.59 55.76 163.742 53.328C164.654 52.72 164.654 51.124 165.566 50.44C165.718 48.388 166.326 46.792 167.39 45.728C167.39 43.752 168.15 42.612 168.834 41.32C169.138 39.572 170.506 38.204 170.506 36.76C170.506 36 171.19 35.392 171.418 34.784C171.646 33.948 171.418 32.884 172.178 32.2C172.102 32.048 172.102 31.82 171.874 31.82H171.798Z" fill="#383838"/>
</svg>
