<svg width="195" height="64" viewBox="0 0 195 64" fill="none" xmlns="http://www.w3.org/2000/svg">
<path opacity="0.15" d="M77.924 3.164C77.696 2.024 76.784 1.72 76.784 0.275998C79.596 0.275998 79.064 2.708 80.052 2.784C80.128 3.392 80.128 4 80.128 4.532C80.128 7.952 79.064 10.308 78.988 13.728C78.912 13.804 76.48 18.516 76.708 18.516C75.568 18.516 76.556 20.644 75.34 20.644C74.96 21.404 74.884 22.392 74.58 23.228C73.364 24.14 72.756 25.812 71.692 26.876V27.104C71.692 28.168 70.248 27.94 70.248 28.852C70.248 29.764 69.488 29.916 69.488 30.904C67.816 30.98 67.892 32.956 66.22 33.108C65.612 34.704 63.56 36.68 62.268 37.668C60.368 40.252 54.82 43.672 54.288 45.192C52.844 45.648 52.616 47.244 51.324 47.776C50.564 48.992 49.044 49.372 48.436 50.664C47.828 50.816 45.852 53.096 45.852 53.476V53.628C45.7 53.628 45.624 53.552 45.472 53.552C44.408 53.552 43.952 55.376 42.964 55.452C42.052 55.452 40.988 57.048 40 57.656C36.58 58.568 34.604 61 30.196 61C27.612 61 27.46 59.404 26.168 58.34V57.732C26.168 56.82 25.712 56.136 25.712 55.224C25.712 51.652 26.624 48.916 26.928 45.572C27.84 44.128 28.372 42.228 28.372 39.72C29.208 38.96 29.056 37.06 29.816 36.072C30.12 34.856 30.728 33.868 31.26 32.804C31.108 32.728 30.956 32.652 30.804 32.652C29.74 32.652 25.712 37.212 23.584 40.1C22.368 40.936 21.608 42 20.316 43.064C18.796 44.356 19.024 44.432 18.492 45.192C17.96 45.876 15.984 47.472 15.984 47.396C14.54 50.36 11.12 53.096 8.992 56.896C6.104 58.796 5.496 62.444 3.216 62.748C2.684 62.976 2 63.432 1.392 63.432C0.48 63.432 0.48 62.596 0.48 61.988C0.48 59.784 2.304 57.808 3.52 56.516H3.672C4.508 56.516 3.9 55.148 4.66 55.072C4.736 54.54 6.864 53.476 6.864 52.792C6.864 52.716 6.788 52.488 6.788 52.336C6.788 52.26 6.788 52.184 6.864 52.184C8.764 50.588 10.588 47.548 12.64 45.572C13.324 44.508 14.388 43.9 15.224 43.064C15.832 42.076 16.592 41.24 17.428 40.48C17.884 39.264 19.252 38.884 19.632 37.592C21.076 36.452 21.988 34.856 23.28 33.564C23.888 32.88 24.8 32.804 25.408 32.12C28.296 29.232 34.376 20.72 37.112 20.416C38.024 20.872 38.86 22.164 38.86 23.304C38.86 24.064 38.556 24.748 37.872 25.128C37.72 27.484 36.58 28.776 36.048 30.6C35.06 32.196 34.452 34.02 33.844 35.768C33.236 37.44 32.324 39.036 32.4 41.088C32.4 41.392 32.476 41.772 32.476 41.924C32.476 42.608 31.26 41.924 31.26 42.684C31.108 46.788 29.132 50.208 29.132 54.16C29.132 55.528 28.904 57.276 31.108 57.276C32.628 57.276 34.528 55.452 34.908 55.452C35.592 55.452 37.492 53.78 38.556 53.248C39.088 52.944 39.924 52.792 40.38 52.488C40.988 52.184 41.672 50.816 43.344 50.36C44.104 50.056 44.636 48.08 45.32 48.08C45.472 48.08 45.7 48.156 45.776 48.156C46.308 48.156 53.3 41.392 53.908 40.86C57.632 37.136 62.116 33.184 65.84 29.46C68.5 26.724 70.02 22.924 72.756 20.34C73.82 16.844 75.188 14.488 76.1 11.904C76.176 11.6 76.708 11.448 76.784 11.22C77.088 10.384 76.632 8.94 77.544 8.256V7.496C77.544 6.736 77.468 5.976 77.468 5.216C77.468 4.38 77.544 3.62 77.924 3.164ZM96.0233 48.916C96.0233 49.068 96.0233 51.652 95.7953 52.032C94.6553 53.856 84.5473 59.86 78.8473 60.24C74.0593 60.544 69.6513 59.404 66.7633 57.428C65.0153 57.2 64.4073 55.148 64.5593 53.78C64.2553 52.26 63.7993 50.36 64.2553 48.612C64.2553 48.612 64.5593 48.46 64.5593 48.232C64.7873 47.472 66.0033 43.824 66.9153 43.444C67.2953 42.38 67.6753 41.24 68.7393 40.86C69.5753 38.808 71.6273 37.896 72.6913 36.148C74.7433 35.236 76.7193 34.324 78.1633 32.804C80.8233 33.032 81.8873 31.664 84.3953 31.74C85.4593 32.576 85.5353 33.564 85.4593 35.008C85.4593 35.616 85.3073 35.464 85.1553 35.768C84.8513 36.3 85.0033 37.592 84.3953 38.276C84.3953 41.24 81.5833 44.508 81.3553 47.168C80.2913 47.7 79.5313 49.296 78.8473 50.132C78.1633 50.968 77.0993 51.272 76.6433 52.26C74.8953 52.868 73.9833 54.236 72.2353 54.844C73.3753 55.832 75.1993 56.288 76.2633 56.592H77.0233C81.0513 56.364 87.0553 53.856 90.2473 51.5C90.9313 50.968 92.4513 50.208 93.1353 49.904C93.8193 49.676 95.2633 48.916 96.0233 48.916ZM81.1273 36.148C80.1393 36.832 79.1513 36.528 78.5433 36.832C76.3393 38.048 75.1233 40.328 73.0713 41.24C71.7033 43.748 68.2833 48.08 68.2073 51.956C69.3473 52.032 70.7153 51.424 71.1713 51.196C72.0833 50.664 72.6153 50.36 73.3753 49.752C75.6553 47.928 78.6193 42.684 79.9873 40.48C80.6713 39.416 81.5073 38.276 81.5073 36.832C81.4313 36.604 81.4313 36.148 81.1273 36.148ZM164.122 40.784C165.11 40.784 164.654 42.532 164.882 43.52C162.83 46.636 160.398 45.648 157.358 46.94C154.47 47.396 152.494 48.156 149.758 48.764C148.922 48.916 147.782 48.688 147.174 49.524C146.338 49.22 145.35 49.144 144.666 48.764C143.222 49.676 142.462 52.488 141.322 53.856C138.51 57.276 131.974 61.988 126.502 61.988C123.462 61.988 122.398 58.948 122.398 55.984C122.398 53.248 123.538 50.36 123.842 48.004C122.17 48.156 121.562 49.448 120.574 50.208C119.51 51.044 118.446 51.88 117.306 52.412C115.938 53.78 114.874 55.376 112.898 56.06C111.91 57.656 109.706 57.96 108.49 59.328C105.07 60.164 101.65 62.824 97.8502 62.824C96.9382 62.824 96.0262 62.672 95.0382 62.292C94.2022 61 93.8222 59.632 93.8222 58.264C93.8222 57.352 93.9742 56.516 94.2782 55.68C94.9622 54.996 94.5062 54.312 95.0382 53.172C95.1142 52.944 95.6462 52.564 95.7222 52.412C96.0262 51.804 95.8742 51.424 96.1022 50.968C96.2542 50.664 96.7862 50.436 96.8622 50.208C97.1662 49.524 96.9382 48.46 97.5462 48.004C98.0022 46.864 98.7622 45.952 99.3702 44.736C99.5222 44.508 99.5222 43.976 99.7502 43.672C99.8262 43.52 100.434 43.444 100.51 43.292C100.738 42.76 100.814 42.456 101.194 41.848C101.574 41.316 102.334 40.86 102.334 40.024C102.41 40.1 102.562 40.1 102.638 40.1C103.626 40.1 106.666 35.084 109.326 35.084C110.162 35.084 111.454 35.844 111.454 36.756C111.454 37.516 109.478 39.644 109.25 39.644C108.642 40.024 105.374 42.608 104.158 44.052C103.322 44.964 103.094 46.256 101.954 46.94C100.814 51.044 98.3062 53.78 97.5462 58.264C98.0782 58.72 98.6102 58.872 99.2182 58.872C100.814 58.872 102.41 57.352 104.158 57.124C105.754 56.516 106.742 55.148 108.87 54.996C110.238 54.16 111.378 53.02 112.898 52.412C113.582 51.5 117.458 48.004 117.838 48.004C118.598 48.004 124.222 43.216 125.286 41.468C126.73 39.112 129.542 35.616 131.518 35.616C131.518 36.3 132.278 35.768 132.278 36.148C132.278 36.3 132.202 36.528 132.202 36.68C132.202 37.06 132.81 37.364 132.81 37.972C132.81 39.112 131.822 39.568 131.138 40.708C128.326 47.244 126.35 51.272 126.35 55.908C126.35 57.276 126.426 58.188 128.554 58.188C130.53 58.188 129.998 57.352 130.758 56.82C131.214 56.516 131.746 56.744 132.202 56.44C132.43 56.288 133.038 55.528 133.342 55.3C136.686 53.172 140.258 50.056 142.082 45.876C142.006 44.584 141.626 43.52 141.626 42.076C141.626 40.556 142.31 39.112 143.146 38.2C143.298 36.908 143.754 35.844 144.97 35.616C146.642 35.996 147.022 37.06 147.022 38.504C147.022 40.176 146.49 42.304 146.49 44.052C146.946 44.812 147.63 45.04 148.39 45.04C152.038 45.04 154.85 43.368 159.182 42.532C160.474 42 162.45 40.784 164.122 40.784ZM150.715 54.844C149.803 55.376 148.663 55.908 148.663 55.604C148.663 54.16 148.663 52.032 148.511 52.032C151.551 51.196 155.123 47.472 157.707 46.104C160.899 44.052 165.231 40.176 168.651 38.428C170.475 37.364 172.071 36.072 173.819 35.008C175.339 34.096 176.859 32.728 178.911 32.5C179.291 33.108 179.823 33.716 180.355 34.324C180.735 35.616 179.747 36.68 179.291 37.592C178.531 39.036 177.619 40.328 176.707 41.696C176.631 41.848 176.859 42.304 176.707 42.38C176.023 42.988 172.603 49.296 172.223 50.74C171.235 51.652 170.019 52.412 169.715 54.008C170.551 55.072 171.843 53.476 173.363 54.008C176.555 53.248 179.975 52.336 183.167 51.5C186.815 49.828 190.691 48.156 194.035 46.18C194.035 47.776 194.339 49.752 193.807 49.296C192.971 49.6 191.831 50.892 191.071 51.196C190.843 51.272 190.159 51.88 189.931 51.88C189.475 52.032 189.247 52.032 188.867 52.26C187.651 52.792 187.119 53.628 186.131 54.16C185.751 54.388 185.371 54.464 184.991 54.54C184.231 54.844 183.319 55.3 182.483 55.528C181.647 55.756 181.419 55.984 180.279 56.288C179.291 56.516 176.631 57.124 175.187 58.036C171.083 58.492 166.599 60.62 162.039 60.164C160.595 60.088 159.227 59.176 157.631 59.1C156.643 58.112 155.579 57.048 153.983 56.516C153.603 55.528 153.603 54.388 153.983 53.4C152.843 53.096 152.843 53.932 152.159 54.084C151.931 54.616 150.791 54.16 150.715 54.844ZM162.723 55.072C164.167 54.54 165.079 53.552 165.687 52.184C166.827 51.196 170.247 46.864 170.475 45.04C171.463 44.66 171.767 42.076 172.679 41.696C172.603 40.86 172.755 40.328 173.439 40.252C173.363 39.796 173.287 39.34 172.679 39.492C172.603 40.024 172.071 40.1 171.995 40.556C169.335 41.24 168.955 44.052 166.219 44.66C164.471 46.256 158.695 50.664 156.567 51.956C158.391 53.476 159.531 55.452 162.723 55.072Z" fill="#383838"/>
</svg>
