<svg width="321" height="56" viewBox="0 0 321 56" fill="none" xmlns="http://www.w3.org/2000/svg">
<path opacity="0.15" d="M36.52 3.448C37.736 1.776 40.472 0.863996 43.056 0.483997V0.407998C43.056 0.103997 44.196 0.179996 44.728 0.179996C47.692 0.179996 50.048 0.711998 52.936 0.863996C54.304 2.308 55.596 3.676 56.888 5.272C57.572 6.184 58.028 7.324 59.092 7.78V8.16C59.092 9.68 59.928 10.288 60.536 11.124V11.428C60.536 12.872 61.448 13.48 62.056 14.392C62.284 15.76 62.36 17.052 62.36 18.268C62.36 22.22 61.372 25.488 60.46 28.908C59.624 29.896 59.016 30.884 58.256 31.872C57.496 32.784 56.28 33.392 56.052 34.76C54.76 34.912 54.456 36.128 53.468 36.584C52.328 36.736 52.404 38.104 51.188 38.104C51.036 38.104 50.808 38.104 50.58 38.028C50.048 38.104 50.428 39.168 49.82 39.168H49.592C49.44 39.168 48.756 39.548 48.756 39.624C48.756 40.156 45.944 41.98 46.552 41.676C45.792 42.284 44.348 42.512 43.664 43.88C40.928 44.488 39.256 46.084 37.052 47.148C35.456 48.668 32.416 48.82 31.276 50.796C31.124 50.872 30.972 50.872 30.896 50.872C30.516 50.872 30.136 50.796 29.832 50.796C29.148 50.796 29.072 51.404 28.692 51.556C26.64 52.316 24.588 53.228 21.776 53.76C20.864 54.596 19.268 54.824 17.52 54.824H16.684C15.62 55.812 13.492 55.812 11.516 55.964C8.932 55.888 7.488 54.672 4.98 54.444C3.688 53.304 2.472 52.088 1.332 50.796V50.34C1.332 49.352 0.8 48.972 0.572 48.288C0.8 44.032 1.484 40.156 2.396 37.344C2.472 37.04 3.156 37.268 3.156 36.812V36.356C3.156 36.128 3.916 35.292 3.916 34.988C3.916 34.76 3.84 34.532 3.84 34.38C3.84 33.544 5.74 31.948 5.74 29.972V29.668C7.944 27.844 8.856 24.804 10.832 22.752C11.668 22.372 12.124 21.612 12.276 20.548C13.264 20.168 13.872 19.484 14.1 18.344C15.088 18.116 15.772 17.66 16.304 16.9C18.508 13.328 21.928 11.96 22.156 11.808C22.84 11.276 23.524 10.212 24.284 9.604C24.588 9.376 25.044 9.452 25.424 9.224C28.084 7.248 31.2 5.728 35.38 5.272C36.216 4.892 35.988 4.056 36.52 3.448ZM48.908 4.512C47.464 4.512 45.792 4.74 44.5 4.892C43.74 5.5 43.056 6.108 41.992 6.336C38.952 6.564 37.584 8.16 34.316 8.16C33.328 9.376 29.908 11.048 28.92 11.048H28.464C28.084 11.048 28.236 11.656 27.932 11.808C26.488 12.796 25.348 13.784 23.6 13.936C23.372 15.76 21.244 15.532 21.016 17.28C19.192 17.508 19.192 19.56 17.368 19.788C16.912 21.384 15.544 22.144 14.48 23.056C13.568 24.272 13.112 25.868 11.516 26.4C11.212 28.224 10.3 29.516 9.008 30.428V30.732C9.008 33.012 6.272 36.204 6.044 36.584C5.74 37.268 5.892 38.484 4.98 38.788V39.32C4.98 40.384 4.524 40.916 4.524 41.904C4.524 42.056 4.6 42.284 4.6 42.436C3.992 43.044 3.536 43.728 3.536 44.944C3.536 47.224 4.6 48.288 4.98 50.112H5.208C5.74 50.112 5.74 50.644 6.044 50.796C6.652 51.1 7.184 50.948 7.868 51.176C9.084 51.708 9.996 52.316 11.744 52.316C16.076 52.316 21.092 50.948 25.424 49.352C27.628 48.592 29.832 47.3 32.34 46.844C33.252 45.476 34.772 44.944 36.368 44.26C37.888 43.576 38.876 42.132 41.08 42.056C41.46 41.144 42.524 40.764 43.284 40.232C45.792 38.408 47.844 36.432 50.58 35.14C51.34 34 52.48 33.164 53.848 32.556C54.608 31.872 54.684 30.504 55.672 30.048C56.28 29.972 56.432 29.592 56.432 28.984V28.604C56.508 28.604 56.584 28.68 56.66 28.68C57.724 28.68 58.94 23.436 59.7 21.308C59.168 15.76 57.268 12.112 55.292 8.464C53.544 8.464 54.608 9.604 51.34 9.604C50.732 9.604 51.34 10.82 50.732 10.82C50.276 10.82 50.276 10.44 50.276 10.136C50.276 8.692 52.176 8.16 52.176 5.272C51.34 4.664 50.2 4.512 48.908 4.512ZM103.667 38.408C103.667 38.788 104.503 41.828 104.655 41.676C104.807 41.524 100.399 43.652 98.1952 43.576C95.3832 43.88 94.0912 43.88 90.9752 43.728C90.0632 43.12 88.5432 43.044 87.6312 42.284C87.6312 42.208 87.2512 41.904 87.3272 41.904C86.9472 41.676 86.2632 41.828 85.8072 41.524C85.2752 41.144 84.7432 40.384 84.3632 40.08C83.7552 39.548 83.3752 39.244 82.9192 38.636C80.9432 39.32 80.3352 41.372 78.8912 42.588C78.0552 43.196 77.7512 44.108 77.0672 44.792C76.5352 45.476 75.2432 45.856 75.2432 46.996C73.4192 47.68 72.2032 49.276 70.5312 50.264C69.6952 50.796 68.8592 51.252 67.9472 51.708C67.1872 52.164 65.8192 52.164 65.4392 53.228C63.0072 53.152 61.5632 54.52 59.2072 53.608C58.8272 52.468 57.2312 50.644 58.4472 49.2C57.6872 47.68 58.7512 46.464 58.4472 44.488C59.7392 42.132 60.1952 39.092 62.0952 37.496C62.1712 36.356 63.1592 36.128 62.8552 34.608C64.2232 33.544 65.1352 32.024 65.7432 30.2C68.0232 30.048 67.7952 27.388 70.5312 27.692C70.3032 28.832 71.6712 28.528 71.2152 29.896C71.0632 30.58 70.4552 31.036 70.1512 31.72C69.1632 32.176 68.8592 33.316 68.3272 34.228C67.7952 35.14 67.0352 35.9 66.5032 36.812C66.4272 36.888 66.5792 37.42 66.5032 37.496C65.4392 38.332 64.9832 41.068 63.6152 42.284C63.7672 44.944 61.4112 46.768 62.4752 49.2C64.4512 49.656 64.1472 47.984 65.7432 48.06C66.7312 47.604 67.5672 46.996 68.7072 46.616C70.3792 45.552 71.6712 44.032 73.4192 42.968C73.6472 42.816 73.6472 42.436 73.7992 42.284C74.0272 42.056 75.2432 41.6 75.2432 40.84C75.3192 39.852 76.9912 39.32 77.4472 38.256C78.0552 36.812 79.4232 36.052 80.3352 34.608C80.6392 34.152 80.4112 33.544 81.0952 33.544C81.3992 31.644 82.1592 30.2 82.9192 28.756C84.3632 27.996 86.1872 28.452 86.9472 29.516C88.0112 31.796 85.8072 32.024 86.1872 34.608C87.5552 40.308 93.7112 40.992 99.6392 39.244C100.855 39.168 103.667 38.028 103.667 38.408ZM130.083 40.916C130.083 41.068 130.083 43.652 129.855 44.032C128.715 45.856 118.607 51.86 112.907 52.24C108.119 52.544 103.711 51.404 100.823 49.428C99.0751 49.2 98.4671 47.148 98.6191 45.78C98.3151 44.26 97.8591 42.36 98.3151 40.612C98.3151 40.612 98.6191 40.46 98.6191 40.232C98.8471 39.472 100.063 35.824 100.975 35.444C101.355 34.38 101.735 33.24 102.799 32.86C103.635 30.808 105.687 29.896 106.751 28.148C108.803 27.236 110.779 26.324 112.223 24.804C114.883 25.032 115.947 23.664 118.455 23.74C119.519 24.576 119.595 25.564 119.519 27.008C119.519 27.616 119.367 27.464 119.215 27.768C118.911 28.3 119.063 29.592 118.455 30.276C118.455 33.24 115.643 36.508 115.415 39.168C114.351 39.7 113.591 41.296 112.907 42.132C112.223 42.968 111.159 43.272 110.703 44.26C108.955 44.868 108.043 46.236 106.295 46.844C107.435 47.832 109.259 48.288 110.323 48.592H111.083C115.111 48.364 121.115 45.856 124.307 43.5C124.991 42.968 126.511 42.208 127.195 41.904C127.879 41.676 129.323 40.916 130.083 40.916ZM115.187 28.148C114.199 28.832 113.211 28.528 112.603 28.832C110.399 30.048 109.183 32.328 107.131 33.24C105.763 35.748 102.343 40.08 102.267 43.956C103.407 44.032 104.775 43.424 105.231 43.196C106.143 42.664 106.675 42.36 107.435 41.752C109.715 39.928 112.679 34.684 114.047 32.48C114.731 31.416 115.567 30.276 115.567 28.832C115.491 28.604 115.491 28.148 115.187 28.148ZM157.75 41.904C158.89 40.916 161.626 39.168 161.626 39.092C161.626 39.016 162.614 41.98 162.614 41.98C162.614 41.98 159.954 44.792 159.878 44.64C155.926 47.148 152.202 50.416 147.11 51.556C144.678 51.784 141.942 51.404 140.194 51.176C139.434 51.1 139.206 51.176 138.37 50.796C138.218 50.72 138.37 50.492 137.99 50.416C137.002 50.416 136.47 49.048 135.786 48.212C135.634 46.54 136.318 45.628 136.546 44.26C138.598 41.828 139.738 39.168 142.018 36.964C141.866 35.368 141.562 33.164 140.878 32.176C138.674 32.708 132.366 41.752 130.238 42.36C130.238 42.36 127.502 40.384 127.578 40.46C128.718 39.472 130.77 36.812 131.758 36.052C132.746 34.912 136.47 29.82 137.838 29.136C137.914 28.3 140.346 26.78 140.954 26.248C141.334 25.792 141.03 24.348 142.702 24.88C144.45 25.336 144.222 27.692 144.526 29.668C145.134 30.58 145.362 31.948 145.97 32.936C145.666 34.684 147.11 35.444 147.11 36.964C146.426 36.964 146.578 38.028 146.35 38.408C146.046 38.864 145.514 39.168 145.286 39.472C144.45 41.6 143.158 42.436 142.018 44.26C141.638 45.324 140.194 45.324 140.574 47.148C142.018 47.984 144.298 48.136 146.73 47.908C150.986 47.452 154.862 44.032 157.75 41.904ZM204.753 38.408C204.753 38.788 205.589 41.828 205.741 41.676C205.893 41.524 201.485 43.652 199.281 43.576C196.469 43.88 195.177 43.88 192.061 43.728C191.149 43.12 189.629 43.044 188.717 42.284C188.717 42.208 188.337 41.904 188.413 41.904C188.033 41.676 187.349 41.828 186.893 41.524C186.361 41.144 185.829 40.384 185.449 40.08C184.841 39.548 184.461 39.244 184.005 38.636C182.029 39.32 181.421 41.372 179.977 42.588C179.141 43.196 178.837 44.108 178.153 44.792C177.621 45.476 176.329 45.856 176.329 46.996C174.505 47.68 173.289 49.276 171.617 50.264C170.781 50.796 169.945 51.252 169.033 51.708C168.273 52.164 166.905 52.164 166.525 53.228C164.093 53.152 162.649 54.52 160.293 53.608C159.913 52.468 158.317 50.644 159.533 49.2C158.773 47.68 159.837 46.464 159.533 44.488C160.825 42.132 161.281 39.092 163.181 37.496C163.257 36.356 164.245 36.128 163.941 34.608C165.309 33.544 166.221 32.024 166.829 30.2C169.109 30.048 168.881 27.388 171.617 27.692C171.389 28.832 172.757 28.528 172.301 29.896C172.149 30.58 171.541 31.036 171.237 31.72C170.249 32.176 169.945 33.316 169.413 34.228C168.881 35.14 168.121 35.9 167.589 36.812C167.513 36.888 167.665 37.42 167.589 37.496C166.525 38.332 166.069 41.068 164.701 42.284C164.853 44.944 162.497 46.768 163.561 49.2C165.537 49.656 165.233 47.984 166.829 48.06C167.817 47.604 168.653 46.996 169.793 46.616C171.465 45.552 172.757 44.032 174.505 42.968C174.733 42.816 174.733 42.436 174.885 42.284C175.113 42.056 176.329 41.6 176.329 40.84C176.405 39.852 178.077 39.32 178.533 38.256C179.141 36.812 180.509 36.052 181.421 34.608C181.725 34.152 181.497 33.544 182.181 33.544C182.485 31.644 183.245 30.2 184.005 28.756C185.449 27.996 187.273 28.452 188.033 29.516C189.097 31.796 186.893 32.024 187.273 34.608C188.641 40.308 194.797 40.992 200.725 39.244C201.941 39.168 204.753 38.028 204.753 38.408ZM219.161 45.096C218.173 46.236 214.905 46.008 214.069 47.604C213.917 47.072 211.561 48.212 211.485 48.668C209.661 49.656 207.229 50.036 205.253 50.872C204.873 51.708 204.189 51.024 203.429 51.252C203.277 51.328 202.517 51.936 202.365 52.012C200.465 52.316 198.489 51.936 196.893 52.316C196.665 51.328 195.373 51.404 195.449 50.188C195.145 48.82 195.373 47.528 195.677 46.844C196.361 45.4 198.261 42.284 199.477 41.372C201.833 39.396 204.493 34.76 207.001 32.936C207.229 32.1 208.065 31.796 208.825 31.492C208.901 30.428 209.965 30.428 210.269 29.668C210.953 29.212 211.485 28.68 212.093 28.148C212.777 27.844 212.549 26.704 213.917 27.084C215.437 26.932 214.905 28.756 215.741 29.288C215.361 31.568 213.081 31.948 212.473 34C210.573 34.684 210.193 36.964 208.749 38.028C206.849 38.788 205.101 42.512 203.429 43.576C202.517 45.172 200.465 45.704 200.161 47.984C201.681 48.972 203.961 47.68 204.949 46.844C207.685 46.616 209.813 45.4 211.865 44.336C213.841 43.272 215.665 42.436 217.641 41.296C219.161 40.688 219.161 39.624 220.453 38.864C222.049 38.408 223.569 37.04 225.469 36.888C226.305 39.244 224.937 41.524 221.517 43.272C220.985 44.032 219.769 44.412 219.161 45.096ZM225.697 10.364C225.621 7.248 225.621 4.208 229.345 4.892C230.105 6.336 230.333 8.312 230.485 10.364C229.497 11.656 226.913 10.972 225.697 10.364ZM253.286 40.916C253.286 41.068 253.286 43.652 253.058 44.032C251.918 45.856 241.81 51.86 236.11 52.24C231.322 52.544 226.914 51.404 224.026 49.428C222.278 49.2 221.67 47.148 221.822 45.78C221.518 44.26 221.062 42.36 221.518 40.612C221.518 40.612 221.822 40.46 221.822 40.232C222.05 39.472 223.266 35.824 224.178 35.444C224.558 34.38 224.938 33.24 226.002 32.86C226.838 30.808 228.89 29.896 229.954 28.148C232.006 27.236 233.982 26.324 235.426 24.804C238.086 25.032 239.15 23.664 241.658 23.74C242.722 24.576 242.798 25.564 242.722 27.008C242.722 27.616 242.57 27.464 242.418 27.768C242.114 28.3 242.266 29.592 241.658 30.276C241.658 33.24 238.846 36.508 238.618 39.168C237.554 39.7 236.794 41.296 236.11 42.132C235.426 42.968 234.362 43.272 233.906 44.26C232.158 44.868 231.246 46.236 229.498 46.844C230.638 47.832 232.462 48.288 233.526 48.592H234.286C238.314 48.364 244.318 45.856 247.51 43.5C248.194 42.968 249.714 42.208 250.398 41.904C251.082 41.676 252.526 40.916 253.286 40.916ZM238.39 28.148C237.402 28.832 236.414 28.528 235.806 28.832C233.602 30.048 232.386 32.328 230.334 33.24C228.966 35.748 225.546 40.08 225.47 43.956C226.61 44.032 227.978 43.424 228.434 43.196C229.346 42.664 229.878 42.36 230.638 41.752C232.918 39.928 235.882 34.684 237.25 32.48C237.934 31.416 238.77 30.276 238.77 28.832C238.694 28.604 238.694 28.148 238.39 28.148ZM319.865 32.784C320.853 32.784 320.397 34.532 320.625 35.52C318.573 38.636 316.141 37.648 313.101 38.94C310.213 39.396 308.237 40.156 305.501 40.764C304.665 40.916 303.525 40.688 302.917 41.524C302.081 41.22 301.093 41.144 300.409 40.764C298.965 41.676 298.205 44.488 297.065 45.856C294.253 49.276 287.717 53.988 282.245 53.988C279.205 53.988 278.141 50.948 278.141 47.984C278.141 45.248 279.281 42.36 279.585 40.004C277.913 40.156 277.305 41.448 276.317 42.208C275.253 43.044 274.189 43.88 273.049 44.412C271.681 45.78 270.617 47.376 268.641 48.06C267.653 49.656 265.449 49.96 264.233 51.328C260.813 52.164 257.393 54.824 253.593 54.824C252.681 54.824 251.769 54.672 250.781 54.292C249.945 53 249.565 51.632 249.565 50.264C249.565 49.352 249.717 48.516 250.021 47.68C250.705 46.996 250.249 46.312 250.781 45.172C250.857 44.944 251.389 44.564 251.465 44.412C251.769 43.804 251.617 43.424 251.845 42.968C251.997 42.664 252.529 42.436 252.605 42.208C252.909 41.524 252.681 40.46 253.289 40.004C253.745 38.864 254.505 37.952 255.113 36.736C255.265 36.508 255.265 35.976 255.493 35.672C255.569 35.52 256.177 35.444 256.253 35.292C256.481 34.76 256.557 34.456 256.937 33.848C257.317 33.316 258.077 32.86 258.077 32.024C258.153 32.1 258.305 32.1 258.381 32.1C259.369 32.1 262.409 27.084 265.069 27.084C265.905 27.084 267.197 27.844 267.197 28.756C267.197 29.516 265.221 31.644 264.993 31.644C264.385 32.024 261.117 34.608 259.901 36.052C259.065 36.964 258.837 38.256 257.697 38.94C256.557 43.044 254.049 45.78 253.289 50.264C253.821 50.72 254.353 50.872 254.961 50.872C256.557 50.872 258.153 49.352 259.901 49.124C261.497 48.516 262.485 47.148 264.613 46.996C265.981 46.16 267.121 45.02 268.641 44.412C269.325 43.5 273.201 40.004 273.581 40.004C274.341 40.004 279.965 35.216 281.029 33.468C282.473 31.112 285.285 27.616 287.261 27.616C287.261 28.3 288.021 27.768 288.021 28.148C288.021 28.3 287.945 28.528 287.945 28.68C287.945 29.06 288.553 29.364 288.553 29.972C288.553 31.112 287.565 31.568 286.881 32.708C284.069 39.244 282.093 43.272 282.093 47.908C282.093 49.276 282.169 50.188 284.297 50.188C286.273 50.188 285.741 49.352 286.501 48.82C286.957 48.516 287.489 48.744 287.945 48.44C288.173 48.288 288.781 47.528 289.085 47.3C292.429 45.172 296.001 42.056 297.825 37.876C297.749 36.584 297.369 35.52 297.369 34.076C297.369 32.556 298.053 31.112 298.889 30.2C299.041 28.908 299.497 27.844 300.713 27.616C302.385 27.996 302.765 29.06 302.765 30.504C302.765 32.176 302.233 34.304 302.233 36.052C302.689 36.812 303.373 37.04 304.133 37.04C307.781 37.04 310.593 35.368 314.925 34.532C316.217 34 318.193 32.784 319.865 32.784Z" fill="#383838"/>
</svg>
