<svg width="288" height="104" viewBox="0 0 288 104" fill="none" xmlns="http://www.w3.org/2000/svg">
<path opacity="0.15" d="M24.116 41.368C23.28 40.456 22.444 39.62 21.608 38.784C20.544 40.456 19.328 41.9 18.264 43.496C17.96 43.876 17.504 44.256 17.2 44.636C16.972 44.94 15.908 45.624 15.756 46.08C15.604 46.384 15.68 47.752 14.616 47.524C14.236 49.804 12.032 50.336 11.728 52.616C11.5 53.148 10.968 53.3 10.284 53.376C10.208 53.984 10.436 54.744 9.904 54.82C9.98 56.112 8.612 55.96 8.08 56.644C8.232 59.304 6.18 59.608 5.876 61.736C5.268 62.344 4.812 63.104 4.432 63.94C3.52 63.636 2.456 65.08 1.848 63.94C1.088 64.092 1.164 63.408 1.164 62.876C0.556 59.912 2.684 56.644 4.052 54.44C4.128 53.3 5.116 53.072 5.496 52.312C5.724 51.324 6.028 50.564 6.636 50.108C7.168 48.208 8.536 46.688 9.524 45.016C10.436 43.42 11.196 41.748 12.108 39.848C12.64 38.784 12.944 37.492 13.932 36.58C15.3 33.388 17.276 30.728 19.024 27.84C19.632 27.232 19.708 26.092 20.468 25.636C21.152 23.964 22.52 23.052 23.052 21.304C23.66 20.772 24.496 20.544 24.496 19.48C25.94 18.568 26.7 16.972 27.764 15.832C28.828 15.604 28.676 14.236 29.588 14.008C30.12 13.248 30.804 12.792 31.412 12.184C31.944 11.576 32.4 10.968 32.856 10.36C34.072 10.436 33.692 8.916 34.68 8.84C38.252 5.572 42.204 2.76 47.144 0.859997C47.6 0.707999 47.676 0.175996 48.208 0.0999973H54.06C55.048 0.707999 56.036 1.24 57.328 1.544C58.468 2.76 59.228 4.28 60.596 5.192C60.748 6.636 61.128 7.852 61.736 8.84C62.192 13.248 60.672 15.68 60.596 19.48C59.532 20.924 58.696 22.672 58.392 24.952C57.176 26.016 56.568 27.688 55.884 29.284C53.832 31.564 51.4 33.312 49.652 35.896C47.98 36.2 46.84 37.188 45.624 38.024C44.864 38.252 44.636 38.936 43.496 38.784C42.888 39.164 42.736 40 41.672 39.848C37.796 41.52 33.54 42.736 27.764 42.432C27.84 41.672 26.472 42.28 25.94 42.052C25.94 41.292 25.028 41.292 24.116 41.368ZM23.736 36.96C25.636 38.86 29.512 38.708 33.236 38.784C36.504 37.872 39.544 37.188 42.356 35.896C45.092 34.604 47.296 32.704 49.652 31.108C52.388 27.536 55.58 24.42 56.568 19.1C57.784 18.036 57.86 15.908 58.392 14.312C58.696 13.096 58.012 12.792 57.708 12.184C59 12.108 58.468 10.436 58.392 9.98C58.316 8.004 56.188 5.724 55.504 4.508C54.364 4.052 52.996 3.824 52.236 3.064C50.488 3.216 49.804 3.52 48.208 3.064C47.676 3.216 47.296 3.596 47.144 4.128C45.7 4.432 44.94 5.344 43.8 5.952C42.432 6.332 41.748 7.548 40.152 7.776C36.504 12.488 30.88 15.3 27.764 20.544C26.168 22.444 24.496 24.268 23.736 27.08C22.292 28.296 21.152 29.892 20.088 31.488C19.024 33.236 18.34 35.212 16.82 36.58C16.972 38.556 15.832 39.24 15.376 40.608C16.592 40.608 16.364 39.164 17.2 38.784C17.656 38.024 18.264 37.416 19.024 36.96C19.784 35.288 21 34.072 21.608 32.248C22.292 31.944 22.9 31.26 23.432 30.728C24.04 30.196 24.876 29.74 25.256 28.904C26.168 27.46 27.84 26.7 28.524 24.952C30.044 24.116 30.272 22.064 32.172 21.608C33.312 20.392 34.148 18.796 36.2 18.34C36.504 19.024 37.492 18.948 37.644 19.784C37.492 22.368 35.744 23.204 34.376 24.192C33.692 26.016 31.868 26.928 30.728 28.22C29.436 29.512 28.676 31.26 27.08 32.248C26.928 33.388 25.94 33.768 25.256 34.376C25.256 35.744 23.356 35.212 23.736 36.96ZM81.5667 47.904C82.7067 46.916 85.4427 45.168 85.4427 45.092C85.4427 45.016 86.4307 47.98 86.4307 47.98C86.4307 47.98 83.7707 50.792 83.6947 50.64C79.7427 53.148 76.0187 56.416 70.9267 57.556C68.4947 57.784 65.7587 57.404 64.0107 57.176C63.2507 57.1 63.0227 57.176 62.1867 56.796C62.0347 56.72 62.1867 56.492 61.8067 56.416C60.8187 56.416 60.2867 55.048 59.6027 54.212C59.4507 52.54 60.1347 51.628 60.3627 50.26C62.4147 47.828 63.5547 45.168 65.8347 42.964C65.6827 41.368 65.3787 39.164 64.6947 38.176C62.4907 38.708 56.1827 47.752 54.0547 48.36C54.0547 48.36 51.3187 46.384 51.3947 46.46C52.5347 45.472 54.5867 42.812 55.5747 42.052C56.5627 40.912 60.2867 35.82 61.6547 35.136C61.7307 34.3 64.1627 32.78 64.7707 32.248C65.1507 31.792 64.8467 30.348 66.5187 30.88C68.2667 31.336 68.0387 33.692 68.3427 35.668C68.9507 36.58 69.1787 37.948 69.7867 38.936C69.4827 40.684 70.9267 41.444 70.9267 42.964C70.2427 42.964 70.3947 44.028 70.1667 44.408C69.8627 44.864 69.3307 45.168 69.1027 45.472C68.2667 47.6 66.9747 48.436 65.8347 50.26C65.4547 51.324 64.0107 51.324 64.3907 53.148C65.8347 53.984 68.1147 54.136 70.5467 53.908C74.8027 53.452 78.6787 50.032 81.5667 47.904ZM87.0737 41.672C87.3777 40.836 87.6817 39.62 87.8337 38.556C88.1377 38.404 88.8217 37.568 89.6577 37.112C91.8617 36.808 92.7737 35.212 94.7497 34.604C95.9657 33.692 96.6497 32.324 97.7137 31.26C99.7657 30.956 101.058 29.816 103.49 29.816C104.706 30.728 107.29 31.716 107.214 33.844C107.822 35.136 107.898 36.58 108.126 37.796C108.202 37.948 108.582 38.1 109.19 37.948C110.254 37.72 109.266 38.024 110.33 37.644C111.622 37.112 113.446 37.416 113.446 37.492C113.522 38.1 112.002 40.38 111.622 40.684C111.47 40.76 111.166 40.836 110.558 41.064C109.342 41.52 110.102 41.14 108.962 41.596C107.746 42.052 107.594 42.204 107.594 42.28C106.682 45.244 104.706 46.612 103.186 48.816C102.73 49.272 100.83 50.336 101.058 51.02C100.146 51.172 100.45 51.856 99.5377 52.844C96.9537 54.972 94.0657 56.796 90.7977 58.316C88.2137 58.848 84.5657 58.468 82.7417 57.936C81.7537 56.34 81.9817 53.528 81.9817 51.02C82.3617 50.184 82.6657 49.196 83.1217 48.436C83.2737 48.132 84.0337 47.98 84.1857 47.676C84.4897 47.22 84.3377 46.688 84.5657 46.232C85.4777 44.636 85.7817 42.888 87.0737 41.672ZM101.362 34.604C101.286 35.06 100.83 35.06 100.982 35.668C100.526 36.58 99.4617 36.884 98.3977 37.112C98.1697 37.872 96.3457 38.936 97.3337 39.696C97.4097 39.088 97.8657 39.696 97.7137 40.38C99.9177 40.532 102.958 40.076 104.326 39.316C104.174 37.872 104.63 35.82 103.946 34.908C103.49 34.908 101.894 34.452 101.362 34.604ZM92.2417 41.9C92.1657 42.356 91.7097 42.356 91.8617 42.964C90.9497 43.04 90.7977 43.876 90.4177 44.408C88.8977 46.308 87.8337 48.664 86.3897 50.26C86.3897 51.856 85.3257 52.388 85.6297 54.288H89.3537C90.1137 54.212 92.7737 52.692 93.0017 52.464C93.3057 52.16 93.3057 52.312 93.7617 52.084C94.9017 51.4 95.5857 50.108 97.0297 49.88C97.7137 49.044 98.3977 48.132 99.2337 47.372C99.9937 46.536 100.754 45.776 101.742 45.168C102.274 44.256 102.882 44.256 102.882 43.04C101.666 43.8 99.2337 43.952 97.7137 44.028C97.1817 43.572 96.1177 43.724 95.1297 43.724C94.1417 43.116 93.4577 42.204 92.2417 41.9ZM161.306 38.556C161.458 39.62 160.242 40.456 160.698 41.596C158.342 42.356 156.67 43.572 154.39 44.484H154.086C153.326 44.484 153.022 45.092 152.186 44.864C152.034 45.548 151.502 45.396 151.046 45.852C149.83 46.232 148.842 46.004 148.158 47.068C146.562 47.98 140.938 50.488 139.57 51.4C137.442 52.312 136.15 52.236 134.174 53.452C133.718 54.44 133.414 55.2 132.35 55.96C132.578 56.188 132.73 56.416 132.73 56.72C132.73 57.48 132.198 58.012 132.35 58.924C131.59 58.924 130.222 62.344 129.462 63.256C129.462 64.32 128.474 66.296 128.018 67.284C127.562 67.436 127.182 67.892 127.258 68.424C126.574 71.084 124.902 73.364 123.99 76.024V76.328C123.99 77.24 122.698 77.088 122.926 78.228C122.014 79.824 121.558 81.648 120.342 83.016C120.418 83.7 115.478 90.616 114.87 92.136C113.73 93.276 112.742 94.644 111.982 96.088C110.31 97.456 108.106 100.268 106.13 100.876C105.674 102.244 100.354 103.156 99.0615 103.156L98.0735 103.08C97.9215 102.624 97.5415 102.32 97.0095 102.32C95.7175 100.648 95.6415 98.368 94.8055 96.468V96.164C94.8055 94.872 95.3375 93.808 95.1855 92.44C95.9455 91.072 96.4015 89.628 96.6295 88.108C99.2135 84.004 100.962 79.292 104.686 76.024C104.762 74.884 105.75 74.504 106.51 73.896C107.574 71.768 109.55 70.4 111.222 68.728C111.222 68.196 113.502 65.916 114.11 65.84C115.934 63.028 119.582 60.52 122.166 58.392L123.23 58.088C124.37 57.252 125.51 56.492 126.574 55.504L127.182 54.744L128.018 53.452C126.574 53.528 124.75 53.984 123.61 54.896C121.558 54.896 119.506 55.656 117.454 55.656C116.542 55.656 116.086 55.048 114.87 55.276C113.806 54.516 113.046 53.376 111.982 52.692V52.388C111.982 51.476 111.526 50.64 111.526 49.728C111.526 47.22 112.97 45.168 113.806 42.888C115.402 41.368 116.922 39.62 118.138 37.72L127.638 31.944H128.702C132.046 30.424 132.806 29.74 136.758 29.74C138.658 29.74 140.862 29.892 142.61 30.804C143.218 32.096 144.586 32.78 145.118 34.072V36.276C145.118 38.024 142.762 39.24 141.47 39.924C141.014 40.76 140.786 41.672 140.406 42.508C139.646 42.812 139.342 44.332 139.342 45.168V45.472L140.254 45.928C140.786 45.928 141.242 46.46 141.394 45.928C143.826 44.94 145.954 43.8 148.538 43.116C148.994 42.736 149.222 42.736 149.602 42.28C150.742 42.052 151.578 41.748 152.566 41.292C153.098 40.38 159.786 38.328 161.154 38.328C161.23 38.328 161.306 38.404 161.306 38.556ZM141.166 35.972C141.166 34.148 137.366 33.388 135.998 33.388C135.162 33.388 130.602 34.604 130.222 35.212C128.018 34.984 123.61 38.708 121.406 39.544C120.874 40.76 119.962 41.748 118.898 42.508C118.29 43.8 117.378 44.864 116.314 45.776C116.162 47.144 115.25 48.36 115.25 49.728C115.25 50.26 115.478 50.792 115.63 51.248C116.466 51.552 117.15 52.008 118.062 52.008C120.494 52.008 122.774 50.26 125.054 50.488C125.89 49.728 126.878 49.348 128.018 49.424C129.386 47.752 131.21 46.688 133.11 45.776C134.706 42.432 136.074 38.708 138.962 36.276C139.874 36.048 140.254 36.048 141.166 36.276V35.972ZM127.866 58.088C126.574 58.088 112.742 69.868 112.286 71.312C110.842 72.984 109.398 74.732 107.574 76.024C106.206 78.912 102.33 83.7 100.278 87.348C99.4415 88.792 99.6695 90.996 98.4535 92.136C98.6055 92.44 98.7575 92.82 98.7575 93.124V97.836C98.7575 98.596 99.9735 97.988 99.5175 99.052C99.7455 99.204 99.9735 99.28 100.278 99.28C101.418 99.28 102.482 98.748 103.546 98.292L103.926 97.608C106.282 96.088 107.954 94.188 110.158 92.44C110.462 91.376 115.402 84.156 115.934 84.08C116.542 83.776 115.858 82.256 117.074 82.636C117.53 80.66 123.23 69.716 124.37 68.044C125.282 66.448 125.814 65.08 126.194 63.864C126.27 61.888 128.018 60.444 128.018 58.392C128.018 58.24 128.094 58.088 127.866 58.088ZM179.577 47.904C180.717 46.916 183.453 45.168 183.453 45.092C183.453 45.016 184.441 47.98 184.441 47.98C184.441 47.98 181.781 50.792 181.705 50.64C177.753 53.148 174.029 56.416 168.937 57.556C166.505 57.784 163.769 57.404 162.021 57.176C161.261 57.1 161.033 57.176 160.197 56.796C160.045 56.72 160.197 56.492 159.817 56.416C158.829 56.416 158.297 55.048 157.613 54.212C157.461 52.54 158.145 51.628 158.373 50.26C160.425 47.828 161.565 45.168 163.845 42.964C163.693 41.368 163.389 39.164 162.705 38.176C160.501 38.708 154.193 47.752 152.065 48.36C152.065 48.36 149.329 46.384 149.405 46.46C150.545 45.472 152.597 42.812 153.585 42.052C154.573 40.912 158.297 35.82 159.665 35.136C159.741 34.3 162.173 32.78 162.781 32.248C163.161 31.792 162.857 30.348 164.529 30.88C166.277 31.336 166.049 33.692 166.353 35.668C166.961 36.58 167.189 37.948 167.797 38.936C167.493 40.684 168.937 41.444 168.937 42.964C168.253 42.964 168.405 44.028 168.177 44.408C167.873 44.864 167.341 45.168 167.113 45.472C166.277 47.6 164.985 48.436 163.845 50.26C163.465 51.324 162.021 51.324 162.401 53.148C163.845 53.984 166.125 54.136 168.557 53.908C172.813 53.452 176.689 50.032 179.577 47.904ZM226.124 43.572C226.124 43.572 227.036 46.232 227.264 46.156C225.972 46.84 224.528 48.74 223.312 49.348C222.02 49.956 222.324 50.488 221.032 51.172C219.74 51.856 218.752 52.844 217.46 53.528C216.776 53.832 215.94 53.832 215.256 54.212C214.496 54.668 214.344 55.048 213.432 54.972C212.14 56.264 209.784 55.884 208.72 57.404C206.06 57.708 204.236 57.556 201.728 58.012C201.728 57.252 200.208 57.86 199.6 57.632C199.524 56.72 198.156 57.1 198.08 56.188C197.396 56.112 198.004 54.592 197.016 54.744C195.952 54.592 195.648 55.656 194.812 55.808C193.824 56.112 192.38 56.872 191.164 57.632C190.632 58.012 188.656 58.392 187.516 59.152C186.984 59.456 184.02 60.292 182.804 60.216C182.956 60.216 181.74 59.456 180.98 59.836C179.232 58.24 178.32 55.808 179.156 52.54C180.068 51.552 180.6 50.108 180.98 48.512C182.12 47.524 182.804 46.004 183.868 44.864C185.692 42.584 188.124 40.836 190.1 38.708C191.392 37.872 192.608 37.036 193.368 35.744C195.268 35.668 195.8 34.3 197.016 33.616C198.46 32.932 200.284 32.704 201.044 31.412C204.388 30.956 206.516 29.284 209.784 28.828C212.444 29.36 213.584 32.02 212.672 35.06C212.064 35.744 211.608 36.58 210.544 36.884C210.696 37.644 209.784 37.416 209.784 37.948C209.708 38.48 208.872 38.252 208.34 38.328C206.972 36.428 209.328 35.592 209.404 33.92C207.58 33.008 206.288 34.68 203.932 34.3C202.868 35.06 201.424 35.212 200.284 35.744C199.22 36.352 198.612 37.34 197.396 37.568C195.344 38.784 193.976 40.76 191.544 41.596C190.556 43.04 189.416 44.332 188.276 45.624C187.364 45.928 187.136 46.916 186.452 47.448C185.768 47.98 185.692 49.12 184.628 49.272C184.02 51.628 182.652 53.072 182.424 55.808C184.628 57.1 186.604 55.2 188.656 55.124C188.656 54.44 189.264 54.668 189.72 54.364C190.176 54.136 190.404 53.908 190.784 53.68C191.468 53.3 193.064 53.3 192.988 52.16C193.9 52.236 194.736 52.236 195.192 51.78C196.028 51.704 195.876 50.564 197.016 50.716C197.32 49.196 198.308 48.36 198.46 46.688C199.22 45.852 200.284 45.32 200.284 43.8C203.248 42.812 203.324 39.012 207.58 39.392C208.492 39.772 208.492 40.988 209.024 41.596C209.252 43.876 207.276 43.952 207.2 46.004C206.06 46.612 205.376 47.828 204.692 48.892C203.704 49.272 203.172 50.032 202.488 50.716C201.956 51.248 200.512 51.476 201.044 52.92C200.664 54.212 202.64 53.3 202.868 53.984C203.476 53.68 204.388 53.832 205.072 53.68C206.288 53.3 207.2 53.604 208.34 52.996C209.48 52.464 210.848 52.084 211.988 51.552C214.192 50.564 216.32 49.652 218.524 48.664C219.436 47.6 220.5 47.068 221.564 46.46C223.084 45.624 224.376 44.56 226.124 43.572ZM286.527 46.08C284.399 47.372 280.523 52.16 278.015 53.072C274.291 53.984 273.911 55.656 270.263 56.644C267.071 57.328 262.739 59.532 259.319 57.708C257.343 55.884 258.635 52.312 258.939 49.728C259.699 49.576 259.319 48.36 260.079 48.208C260.155 47.6 259.699 46.384 260.763 46.764C260.535 45.092 261.371 44.408 261.903 43.496C262.435 42.66 262.663 41.368 263.347 40.608C263.879 39.62 264.639 38.936 264.791 37.644C262.663 37.72 261.903 39.468 260.383 40.608C257.343 42.888 255.215 46.08 252.403 48.968C251.491 49.88 250.579 50.792 249.439 51.552C248.147 53.908 246.399 55.732 244.727 57.708C242.675 57.252 242.523 58.696 240.699 58.468C240.471 57.404 239.407 56.644 240.699 55.884C240.851 54.82 240.927 53.68 241.839 53.376C242.675 51.628 243.815 50.26 244.347 48.208C245.715 47.068 246.095 44.788 247.311 43.496C247.615 41.368 248.375 39.696 248.755 37.644C247.159 36.808 245.487 38.708 244.347 39.468C242.903 40.152 241.763 41.216 240.699 42.432C239.103 43.116 238.115 44.408 237.051 45.7C235.227 46.004 235.075 48.056 233.023 48.208C231.503 50.108 229.983 52.008 227.931 53.376C228.007 54.06 227.171 54.44 226.867 54.82C226.487 55.276 226.487 56.188 225.727 56.264C225.423 57.632 224.131 58.088 223.599 59.152C221.547 58.848 219.875 60.216 218.811 58.848C218.887 58.468 218.811 58.088 218.811 57.708C218.887 57.024 219.039 56.796 219.571 56.264C221.319 54.44 221.927 50.716 223.599 48.208C224.207 46.308 225.423 44.94 226.107 43.116C226.563 42.28 227.019 41.52 227.095 40.76C227.551 38.632 228.159 37.644 229.071 34.072C229.755 32.4 227.627 33.616 227.931 32.248C227.627 30.5 229.527 30.88 229.451 29.36C230.743 29.208 230.515 27.536 231.275 26.776C231.351 26.396 231.959 26.548 231.959 26.092H232.719C236.291 27.308 234.467 33.54 232.339 35.592C232.339 36.428 231.959 37.34 231.959 38.176C231.351 39.392 231.503 39.392 231.123 40.76C231.275 41.824 230.135 42.888 230.135 44.56C230.363 45.472 231.123 43.876 231.959 44.256C232.263 43.572 233.327 43.648 233.403 42.736C234.923 42.356 235.911 41.368 236.671 40.228C238.039 39.62 239.179 38.784 240.319 38.024C241.383 37.112 242.979 36.732 243.663 35.44C246.931 34.984 248.299 32.552 251.643 32.172C254.303 34.528 252.403 39.012 252.023 42.432C252.099 43.268 253.011 41.976 253.467 42.052C253.695 41.52 254.075 41.14 254.607 40.912C255.063 39.848 256.203 39.392 257.115 38.784C258.407 36.96 260.839 36.428 261.903 34.376C264.715 33.54 266.159 31.336 268.819 30.348C271.631 31.868 270.415 36.428 268.819 38.404C267.831 42.28 265.171 44.484 264.031 48.208C263.347 49.88 262.435 51.476 262.587 54.06C265.399 55.352 267.299 52.768 269.883 52.616C270.263 52.388 270.263 51.78 271.023 51.856C271.479 51.4 272.239 51.4 272.847 51.172C274.139 50.564 274.595 50.564 276.115 49.652C278.015 48.588 277.483 47.524 279.687 46.84C281.739 45.168 287.591 38.252 286.527 46.08Z" fill="#383838"/>
</svg>
