<svg width="480" height="125" viewBox="0 0 480 125" fill="none" xmlns="http://www.w3.org/2000/svg">
<path opacity="0.15" d="M24.116 41.368C23.28 40.456 22.444 39.62 21.608 38.784C20.544 40.456 19.328 41.9 18.264 43.496C17.96 43.876 17.504 44.256 17.2 44.636C16.972 44.94 15.908 45.624 15.756 46.08C15.604 46.384 15.68 47.752 14.616 47.524C14.236 49.804 12.032 50.336 11.728 52.616C11.5 53.148 10.968 53.3 10.284 53.376C10.208 53.984 10.436 54.744 9.904 54.82C9.98 56.112 8.612 55.96 8.08 56.644C8.232 59.304 6.18 59.608 5.876 61.736C5.268 62.344 4.812 63.104 4.432 63.94C3.52 63.636 2.456 65.08 1.848 63.94C1.088 64.092 1.164 63.408 1.164 62.876C0.556 59.912 2.684 56.644 4.052 54.44C4.128 53.3 5.116 53.072 5.496 52.312C5.724 51.324 6.028 50.564 6.636 50.108C7.168 48.208 8.536 46.688 9.524 45.016C10.436 43.42 11.196 41.748 12.108 39.848C12.64 38.784 12.944 37.492 13.932 36.58C15.3 33.388 17.276 30.728 19.024 27.84C19.632 27.232 19.708 26.092 20.468 25.636C21.152 23.964 22.52 23.052 23.052 21.304C23.66 20.772 24.496 20.544 24.496 19.48C25.94 18.568 26.7 16.972 27.764 15.832C28.828 15.604 28.676 14.236 29.588 14.008C30.12 13.248 30.804 12.792 31.412 12.184C31.944 11.576 32.4 10.968 32.856 10.36C34.072 10.436 33.692 8.916 34.68 8.84C38.252 5.572 42.204 2.76 47.144 0.859997C47.6 0.707999 47.676 0.175996 48.208 0.0999973H54.06C55.048 0.707999 56.036 1.24 57.328 1.544C58.468 2.76 59.228 4.28 60.596 5.192C60.748 6.636 61.128 7.852 61.736 8.84C62.192 13.248 60.672 15.68 60.596 19.48C59.532 20.924 58.696 22.672 58.392 24.952C57.176 26.016 56.568 27.688 55.884 29.284C53.832 31.564 51.4 33.312 49.652 35.896C47.98 36.2 46.84 37.188 45.624 38.024C44.864 38.252 44.636 38.936 43.496 38.784C42.888 39.164 42.736 40 41.672 39.848C37.796 41.52 33.54 42.736 27.764 42.432C27.84 41.672 26.472 42.28 25.94 42.052C25.94 41.292 25.028 41.292 24.116 41.368ZM23.736 36.96C25.636 38.86 29.512 38.708 33.236 38.784C36.504 37.872 39.544 37.188 42.356 35.896C45.092 34.604 47.296 32.704 49.652 31.108C52.388 27.536 55.58 24.42 56.568 19.1C57.784 18.036 57.86 15.908 58.392 14.312C58.696 13.096 58.012 12.792 57.708 12.184C59 12.108 58.468 10.436 58.392 9.98C58.316 8.004 56.188 5.724 55.504 4.508C54.364 4.052 52.996 3.824 52.236 3.064C50.488 3.216 49.804 3.52 48.208 3.064C47.676 3.216 47.296 3.596 47.144 4.128C45.7 4.432 44.94 5.344 43.8 5.952C42.432 6.332 41.748 7.548 40.152 7.776C36.504 12.488 30.88 15.3 27.764 20.544C26.168 22.444 24.496 24.268 23.736 27.08C22.292 28.296 21.152 29.892 20.088 31.488C19.024 33.236 18.34 35.212 16.82 36.58C16.972 38.556 15.832 39.24 15.376 40.608C16.592 40.608 16.364 39.164 17.2 38.784C17.656 38.024 18.264 37.416 19.024 36.96C19.784 35.288 21 34.072 21.608 32.248C22.292 31.944 22.9 31.26 23.432 30.728C24.04 30.196 24.876 29.74 25.256 28.904C26.168 27.46 27.84 26.7 28.524 24.952C30.044 24.116 30.272 22.064 32.172 21.608C33.312 20.392 34.148 18.796 36.2 18.34C36.504 19.024 37.492 18.948 37.644 19.784C37.492 22.368 35.744 23.204 34.376 24.192C33.692 26.016 31.868 26.928 30.728 28.22C29.436 29.512 28.676 31.26 27.08 32.248C26.928 33.388 25.94 33.768 25.256 34.376C25.256 35.744 23.356 35.212 23.736 36.96ZM75.4867 47.904C76.6267 46.916 79.3627 45.168 79.3627 45.092C79.3627 45.016 80.3507 47.98 80.3507 47.98C80.3507 47.98 77.6907 50.792 77.6147 50.64C73.6627 53.148 69.9387 56.416 64.8467 57.556C62.4147 57.784 59.6787 57.404 57.9307 57.176C57.1707 57.1 56.9427 57.176 56.1067 56.796C55.9547 56.72 56.1067 56.492 55.7267 56.416C54.7387 56.416 54.2067 55.048 53.5227 54.212C53.3707 52.54 54.0547 51.628 54.2827 50.26C56.3347 47.828 57.4747 45.168 59.7547 42.964C59.6027 41.368 59.2987 39.164 58.6147 38.176C56.4107 38.708 50.1027 47.752 47.9747 48.36C47.9747 48.36 45.2387 46.384 45.3147 46.46C46.4547 45.472 48.5067 42.812 49.4947 42.052C50.4827 40.912 54.2067 35.82 55.5747 35.136C55.6507 34.3 58.0827 32.78 58.6907 32.248C59.0707 31.792 58.7667 30.348 60.4387 30.88C62.1867 31.336 61.9587 33.692 62.2627 35.668C62.8707 36.58 63.0987 37.948 63.7067 38.936C63.4027 40.684 64.8467 41.444 64.8467 42.964C64.1627 42.964 64.3147 44.028 64.0867 44.408C63.7827 44.864 63.2507 45.168 63.0227 45.472C62.1867 47.6 60.8947 48.436 59.7547 50.26C59.3747 51.324 57.9307 51.324 58.3107 53.148C59.7547 53.984 62.0347 54.136 64.4667 53.908C68.7227 53.452 72.5987 50.032 75.4867 47.904ZM96.8017 51.096C95.8137 52.236 92.5457 52.008 91.7097 53.604C91.5577 53.072 89.2017 54.212 89.1257 54.668C87.3017 55.656 84.8697 56.036 82.8937 56.872C82.5137 57.708 81.8297 57.024 81.0697 57.252C80.9177 57.328 80.1577 57.936 80.0057 58.012C78.1057 58.316 76.1297 57.936 74.5337 58.316C74.3057 57.328 73.0137 57.404 73.0897 56.188C72.7857 54.82 73.0137 53.528 73.3177 52.844C74.0017 51.4 75.9017 48.284 77.1177 47.372C79.4737 45.396 82.1337 40.76 84.6417 38.936C84.8697 38.1 85.7057 37.796 86.4657 37.492C86.5417 36.428 87.6057 36.428 87.9097 35.668C88.5937 35.212 89.1257 34.68 89.7337 34.148C90.4177 33.844 90.1897 32.704 91.5577 33.084C93.0777 32.932 92.5457 34.756 93.3817 35.288C93.0017 37.568 90.7217 37.948 90.1137 40C88.2137 40.684 87.8337 42.964 86.3897 44.028C84.4897 44.788 82.7417 48.512 81.0697 49.576C80.1577 51.172 78.1057 51.704 77.8017 53.984C79.3217 54.972 81.6017 53.68 82.5897 52.844C85.3257 52.616 87.4537 51.4 89.5057 50.336C91.4817 49.272 93.3057 48.436 95.2817 47.296C96.8017 46.688 96.8017 45.624 98.0937 44.864C99.6897 44.408 101.21 43.04 103.11 42.888C103.946 45.244 102.578 47.524 99.1577 49.272C98.6257 50.032 97.4097 50.412 96.8017 51.096ZM103.338 16.364C103.262 13.248 103.262 10.208 106.986 10.892C107.746 12.336 107.974 14.312 108.126 16.364C107.138 17.656 104.554 16.972 103.338 16.364ZM143.087 44.408C143.087 44.788 143.923 47.828 144.075 47.676C144.227 47.524 139.819 49.652 137.615 49.576C134.803 49.88 133.511 49.88 130.395 49.728C129.483 49.12 127.963 49.044 127.051 48.284C127.051 48.208 126.671 47.904 126.747 47.904C126.367 47.676 125.683 47.828 125.227 47.524C124.695 47.144 124.163 46.384 123.783 46.08C123.175 45.548 122.795 45.244 122.339 44.636C120.363 45.32 119.755 47.372 118.311 48.588C117.475 49.196 117.171 50.108 116.487 50.792C115.955 51.476 114.663 51.856 114.663 52.996C112.839 53.68 111.623 55.276 109.951 56.264C109.115 56.796 108.279 57.252 107.367 57.708C106.607 58.164 105.239 58.164 104.859 59.228C102.427 59.152 100.983 60.52 98.6269 59.608C98.2469 58.468 96.6509 56.644 97.8669 55.2C97.1069 53.68 98.1709 52.464 97.8669 50.488C99.1589 48.132 99.6149 45.092 101.515 43.496C101.591 42.356 102.579 42.128 102.275 40.608C103.643 39.544 104.555 38.024 105.163 36.2C107.443 36.048 107.215 33.388 109.951 33.692C109.723 34.832 111.091 34.528 110.635 35.896C110.483 36.58 109.875 37.036 109.571 37.72C108.583 38.176 108.279 39.316 107.747 40.228C107.215 41.14 106.455 41.9 105.923 42.812C105.847 42.888 105.999 43.42 105.923 43.496C104.859 44.332 104.403 47.068 103.035 48.284C103.187 50.944 100.831 52.768 101.895 55.2C103.871 55.656 103.567 53.984 105.163 54.06C106.151 53.604 106.987 52.996 108.127 52.616C109.799 51.552 111.091 50.032 112.839 48.968C113.067 48.816 113.067 48.436 113.219 48.284C113.447 48.056 114.663 47.6 114.663 46.84C114.739 45.852 116.411 45.32 116.867 44.256C117.475 42.812 118.843 42.052 119.755 40.608C120.059 40.152 119.831 39.544 120.515 39.544C120.819 37.644 121.579 36.2 122.339 34.756C123.783 33.996 125.607 34.452 126.367 35.516C127.431 37.796 125.227 38.024 125.607 40.608C126.975 46.308 133.131 46.992 139.059 45.244C140.275 45.168 143.087 44.028 143.087 44.408ZM181.967 43.572C181.967 43.572 182.879 46.232 183.107 46.156C181.815 46.84 180.371 48.74 179.155 49.348C177.863 49.956 178.167 50.488 176.875 51.172C175.583 51.856 174.595 52.844 173.303 53.528C172.619 53.832 171.783 53.832 171.099 54.212C170.339 54.668 170.187 55.048 169.275 54.972C167.983 56.264 165.627 55.884 164.563 57.404C161.903 57.708 160.079 57.556 157.571 58.012C157.571 57.252 156.051 57.86 155.443 57.632C155.367 56.72 153.999 57.1 153.923 56.188C153.239 56.112 153.847 54.592 152.859 54.744C151.795 54.592 151.491 55.656 150.655 55.808C149.667 56.112 148.223 56.872 147.007 57.632C146.475 58.012 144.499 58.392 143.359 59.152C142.827 59.456 139.863 60.292 138.647 60.216C138.799 60.216 137.583 59.456 136.823 59.836C135.075 58.24 134.163 55.808 134.999 52.54C135.911 51.552 136.443 50.108 136.823 48.512C137.963 47.524 138.647 46.004 139.711 44.864C141.535 42.584 143.967 40.836 145.943 38.708C147.235 37.872 148.451 37.036 149.211 35.744C151.111 35.668 151.643 34.3 152.859 33.616C154.303 32.932 156.127 32.704 156.887 31.412C160.231 30.956 162.359 29.284 165.627 28.828C168.287 29.36 169.427 32.02 168.515 35.06C167.907 35.744 167.451 36.58 166.387 36.884C166.539 37.644 165.627 37.416 165.627 37.948C165.551 38.48 164.715 38.252 164.183 38.328C162.815 36.428 165.171 35.592 165.247 33.92C163.423 33.008 162.131 34.68 159.775 34.3C158.711 35.06 157.267 35.212 156.127 35.744C155.063 36.352 154.455 37.34 153.239 37.568C151.187 38.784 149.819 40.76 147.387 41.596C146.399 43.04 145.259 44.332 144.119 45.624C143.207 45.928 142.979 46.916 142.295 47.448C141.611 47.98 141.535 49.12 140.471 49.272C139.863 51.628 138.495 53.072 138.267 55.808C140.471 57.1 142.447 55.2 144.499 55.124C144.499 54.44 145.107 54.668 145.563 54.364C146.019 54.136 146.247 53.908 146.627 53.68C147.311 53.3 148.907 53.3 148.831 52.16C149.743 52.236 150.579 52.236 151.035 51.78C151.871 51.704 151.719 50.564 152.859 50.716C153.163 49.196 154.151 48.36 154.303 46.688C155.063 45.852 156.127 45.32 156.127 43.8C159.091 42.812 159.167 39.012 163.423 39.392C164.335 39.772 164.335 40.988 164.867 41.596C165.095 43.876 163.119 43.952 163.043 46.004C161.903 46.612 161.219 47.828 160.535 48.892C159.547 49.272 159.015 50.032 158.331 50.716C157.799 51.248 156.355 51.476 156.887 52.92C156.507 54.212 158.483 53.3 158.711 53.984C159.319 53.68 160.231 53.832 160.915 53.68C162.131 53.3 163.043 53.604 164.183 52.996C165.323 52.464 166.691 52.084 167.831 51.552C170.035 50.564 172.163 49.652 174.367 48.664C175.279 47.6 176.343 47.068 177.407 46.46C178.927 45.624 180.219 44.56 181.967 43.572ZM219.19 44.484C220.482 43.724 221.698 43.724 220.71 46.992C220.178 48.74 216.15 51.476 214.326 51.856C213.262 52.464 211.97 53.148 210.83 53.68C210.678 53.756 210.222 54.516 210.146 54.516C209.386 54.744 208.17 54.82 207.942 55.884C206.422 55.428 206.498 56.644 205.358 56.568C204.142 57.404 202.242 57.556 201.178 58.62C200.57 58.848 199.05 58.164 199.05 59C198.822 59.608 197.302 58.924 197.226 59.684C194.49 59.532 192.59 60.064 190.614 60.672C187.574 60.596 184.382 60.824 181.874 60.292C180.734 59.456 179.822 58.468 178.226 58.088C177.998 57.024 177.77 55.884 176.782 55.504C176.858 53.072 176.326 53.376 176.554 50.792C176.706 49.272 177.998 47.144 178.302 45.624C180.354 43.42 181.798 40.608 184.078 38.708C188.182 34.68 193.35 29.968 201.634 31.412C203.306 33.844 203.99 37.264 204.902 40.532C204.142 40.456 204.75 41.824 204.522 42.356C203.534 43.268 201.71 45.32 199.43 43.42C199.506 42.812 199.278 42.204 199.43 41.596C199.658 40.38 201.026 39.62 200.874 37.568C200.874 36.808 200.494 36.352 200.19 35.44C198.518 34.3 196.694 33.996 194.718 35.06C195.098 35.82 195.098 35.82 194.338 35.44C193.578 35.06 193.806 36.048 193.578 36.124C193.35 36.276 192.818 36.048 192.514 36.124C192.058 36.428 191.602 37.188 190.69 36.884C190.462 37.416 189.702 37.568 189.246 37.948C188.942 38.252 189.018 39.696 187.802 39.088C187.802 40.304 186.966 40.684 186.282 41.292C185.902 43.116 183.698 43.192 183.394 45.244C182.482 45.472 182.102 46.156 181.57 46.688C180.81 49.652 178.986 50.032 180.05 53.68C180.81 55.732 182.786 56.568 184.762 57.328C188.79 57.1 193.198 57.252 196.086 55.884C197.226 55.428 198.746 55.352 199.734 54.82C202.318 54.212 204.066 52.236 206.65 51.628C208.702 50.488 210.982 49.348 213.262 48.512C215.314 47.448 216.91 45.32 219.19 44.484ZM212.712 57.024C211.572 54.44 213.168 52.312 213.7 50.26C214.232 49.88 215.068 47.22 215.6 46.764C216.056 46.384 218.032 43.8 217.956 42.964C218.412 42.812 218.792 42.508 219.096 42.204C219.248 42.052 219.324 41.596 219.4 41.52C219.552 41.368 220.008 41.596 220.16 41.52C220.768 40.912 221.452 40.152 221.604 39.316C222.364 39.468 222.744 38.708 223.048 38.556C223.352 38.404 223.884 37.492 224.188 37.34C224.34 37.264 224.416 36.656 224.568 36.656C225.176 36.352 226.012 35.516 227.836 35.896C228.368 36.58 228.824 37.34 229.28 38.1C228.216 41.064 225.404 42.204 223.808 44.636C222.896 45.7 220.92 48.36 220.008 49.424C219.4 50.792 217.728 51.096 217.804 53.072C218.564 53.756 220.16 53.3 220.692 52.692C223.656 51.856 226.468 50.944 228.748 49.424C229.432 49.348 230.344 48.892 230.952 48.284C231.256 47.98 231.712 47.828 232.016 47.6C232.32 47.296 232.776 47.144 233.08 46.84C233.612 46.308 235.132 45.624 236.044 45.016C236.424 44.788 236.728 44.56 237.108 44.256C239.008 42.888 240.756 40.38 242.58 38.48C243.036 37.34 243.796 36.504 244.784 35.896C245.696 35.288 245.544 33.768 247.368 34.072C248.736 33.844 248.28 35.592 249.192 35.896C248.204 39.696 245.316 41.52 243.34 44.256C240.756 46.46 239.692 50.184 237.108 52.312C236.88 53.984 236.5 55.58 234.904 55.96C235.208 57.328 234.296 57.556 234.6 58.848C233.004 59.608 232.7 61.584 232.016 63.256C231.636 64.016 231.256 64.7 230.952 65.46C231.028 66.676 229.28 65.992 229.812 67.664C230.8 68.728 232.168 67.132 233.08 66.904C234.144 66.372 235.512 65.612 236.728 65.308C241.592 63.408 246.304 60.748 251.7 59.304C253.296 58.848 255.348 58.924 256.792 57.86C259.68 58.316 260.82 56.416 262.644 57.86C262.948 60.292 261.276 60.824 259.376 61.128C256.64 61.432 254.056 62.268 251.7 62.952C250.408 63.256 248.128 63.864 246.608 64.776C246.38 65.46 244.556 64.7 244.404 65.46C241.364 66.752 238.324 68.576 235.284 69.792C232.32 71.084 229.584 72.756 226.924 74.2C225.784 75.34 225.632 77.544 224.34 78.608C223.884 80.432 223.048 81.876 222.136 83.32C221.604 85.068 220.54 86.284 220.008 88.032C218.488 88.716 218.488 90.92 217.424 92.06C215.828 95.1 214.08 97.988 212.332 100.8C212.028 101.408 211.8 102.092 211.192 102.624C211.192 102.7 210.888 103.004 210.888 103.004C210.508 103.536 210.584 105.056 209.368 104.828C209.368 106.956 207.164 106.956 207.24 109.236C206.252 109.616 205.872 110.528 204.656 110.68C204.428 111.516 204.352 112.504 203.896 113.264C201.996 114.708 200.856 116.988 198.424 117.976C198.044 118.66 197.512 119.268 197.36 120.18C195.308 120.332 194.624 121.852 193.332 122.688C190.748 123.22 187.632 124.284 185.352 123.068C184.364 120.712 183.68 118.204 183.832 114.708C184.212 112.808 185.2 111.668 185.352 109.616C187.176 107.488 187.86 104.296 189.684 102.32C189.912 100.572 191.28 99.964 191.888 98.672C192.42 97.38 193.256 96.316 194.472 95.708C194.776 94.72 195.308 93.884 195.536 92.82C197.892 92.212 198.12 89.552 199.944 88.412C200.78 87.424 201.616 86.664 202.452 85.524C203.516 84.08 205.72 83.016 206.86 81.116C209.216 79.976 211.116 78.228 213.396 76.784C214.156 76.252 214.84 75.72 215.6 75.264C215.904 75.112 216.436 74.732 216.664 74.58C217.044 74.352 217.728 74.428 218.184 74.2C218.488 73.972 218.564 73.288 218.868 73.136C219.324 72.832 219.856 72.984 220.312 72.756C221.908 71.92 223.352 71.236 224.72 70.172C226.468 66.448 228.216 62.724 229.812 58.848C229.964 57.936 230.952 57.784 230.952 56.72C232.016 56.644 231.408 54.972 232.016 54.516C232.928 54.288 232.852 53.148 233.08 52.312C231.788 52.008 231.104 53.3 230.192 53.756C229.356 54.212 228.216 54.44 227.304 54.896C227.076 54.972 227.304 55.2 226.924 55.2C226.62 55.276 225.1 56.036 224.34 56.34C223.428 56.644 222.364 56.948 221.452 57.404C220.692 57.252 220.464 57.632 220.008 57.784C217.348 57.784 214.384 58.012 212.712 57.024ZM221.452 76.024C220.92 76.1 220.768 76.556 220.008 76.404C218.944 77.164 217.576 77.62 216.664 78.608C214.46 79.976 211.952 81.192 210.128 82.94C206.936 85.296 204.048 88.032 201.388 90.996C200.172 91.604 199.716 92.972 198.804 93.884C198.576 94.644 197.816 94.872 197.36 95.328C196.904 95.86 196.676 96.62 195.916 96.848C194.852 99.356 193.18 101.484 191.888 103.764C190.52 106.12 189.228 108.552 188.24 111.44C187.784 114.176 187.1 117.064 188.62 119.04C191.508 119.344 192.496 117.596 194.776 117.216C195.536 115.164 197.968 114.784 198.804 112.884C200.096 112.656 200.248 111.136 200.628 110.68C201.236 109.92 202.224 109.236 202.832 108.476C204.048 106.956 205.264 105.284 206.1 103.384C207.544 102.624 207.848 101.028 208.684 99.736C209.444 98.52 210.432 97.38 211.192 96.088C212.028 94.796 212.636 93.428 213.396 92.06C214.156 90.768 215.372 89.324 215.6 87.728C217.12 86.436 217.348 83.852 218.868 82.56C219.628 80.432 220.616 78.456 221.832 76.784C221.756 76.48 221.756 76.024 221.452 76.024ZM331.831 36.428L334.339 36.58C334.491 36.58 329.855 41.596 329.779 41.596C328.715 42.052 316.099 47.98 315.947 48.436C314.655 48.664 313.591 49.348 312.679 50.26C310.703 51.248 308.119 52.692 305.915 54.136C305.155 54.288 304.471 54.592 303.787 54.896C303.635 55.808 301.735 55.2 301.507 56.036H298.923C297.555 56.036 296.187 56.036 294.895 55.656C293.071 53.832 292.083 51.324 290.867 49.12C289.043 51.096 283.419 59.912 281.747 60.444C282.051 61.584 280.987 61.888 281.063 62.952C279.011 64.092 273.767 73.212 271.943 75.72C271.487 75.872 271.107 76.328 271.183 76.86C270.195 78.38 268.827 79.596 267.915 81.192C265.863 84.612 257.883 97.988 253.627 97.988H253.323C252.107 96.62 252.639 93.2 252.563 91.452C253.247 89.476 254.159 87.652 254.463 85.6C255.299 85.068 254.615 83.472 255.527 83.016C255.527 82.18 256.287 81.648 256.287 80.812L256.211 80.128C257.199 79.9 257.047 78.456 258.035 78.304C257.883 77.24 260.467 72.224 261.379 71.768C260.467 69.412 271.563 56.796 272.627 53.832C273.311 53.452 279.163 47.524 279.239 47.296C280.531 45.7 289.271 37.568 290.867 37.416C291.551 35.364 305.003 27.536 307.663 27.536C310.095 27.536 311.235 29.208 312.755 30.88C312.527 31.336 312.831 31.944 313.135 32.324V32.628C313.135 33.54 312.755 34.376 312.755 35.288L313.135 35.972V36.732C313.135 39.468 312.603 42.128 312.071 44.712C312.223 44.864 312.451 44.94 312.603 44.94C314.275 44.94 329.551 37.568 331.831 36.428ZM305.839 31.26H305.459C305.383 31.716 304.927 31.944 304.775 32.324C302.951 32.096 302.495 33.844 300.747 33.768C300.063 34.908 299.075 35.972 297.935 36.732C297.631 38.632 295.427 42.28 294.363 44.028C293.755 44.788 293.223 45.472 293.071 46.536C294.819 47.676 295.351 50.716 298.011 50.716C299.987 50.716 302.191 49.424 304.471 49.424C304.395 48.588 305.763 48.208 306.371 47.98C308.575 45.168 309.715 40.076 309.715 36.58C309.715 34.984 309.487 33.388 308.803 31.944C307.815 31.564 306.903 31.26 305.839 31.26ZM289.423 41.824C289.119 42.052 288.739 42.204 288.359 42.204C287.599 42.812 287.219 43.648 286.155 43.648C285.699 45.396 283.799 45.852 282.887 47.296C281.291 48.132 280.759 50.032 279.239 50.944C278.251 51.02 278.555 52.464 277.795 52.768C277.567 53.756 276.275 53.756 276.275 54.972C274.983 55.124 274.071 58.164 272.627 58.62C272.551 58.772 267.307 66.372 266.851 66.98C266.319 68.88 264.419 69.64 264.267 71.768C262.899 72.984 262.747 74.884 261.379 76.1V77.924C260.239 78.684 260.011 80.204 259.175 81.192C259.327 82.94 258.567 84.004 258.035 85.6C258.415 86.74 257.579 86.664 257.351 87.424C257.199 87.5 256.971 87.576 256.971 87.728C256.971 88.26 257.503 88.64 257.503 89.096C257.503 89.324 257.427 89.476 257.351 89.628C258.643 89.324 259.099 88.108 259.555 87.044C260.619 86.36 261.379 85.372 261.683 84.156C263.279 83.092 263.583 80.888 265.027 79.748V79.064C265.559 78.076 266.547 76.708 267.155 75.72L267.915 75.416C268.219 74.96 267.687 73.82 268.675 73.896C270.043 71.616 271.943 69.64 273.387 67.36C273.311 66.676 273.843 66.144 274.451 65.916C274.907 65.232 274.755 64.396 275.211 63.712H275.971V62.952C278.783 59.608 280.835 54.592 284.331 52.008C284.407 50.564 285.851 50.032 286.155 48.74C287.067 47.448 289.879 43.572 289.879 42.052C289.879 41.824 289.803 41.748 289.423 41.824ZM326.681 41.672C326.985 40.836 327.289 39.62 327.441 38.556C327.745 38.404 328.429 37.568 329.265 37.112C331.469 36.808 332.381 35.212 334.357 34.604C335.573 33.692 336.257 32.324 337.321 31.26C339.373 30.956 340.665 29.816 343.097 29.816C344.313 30.728 346.897 31.716 346.821 33.844C347.429 35.136 347.505 36.58 347.733 37.796C347.809 37.948 348.189 38.1 348.797 37.948C349.861 37.72 348.873 38.024 349.937 37.644C351.229 37.112 353.053 37.416 353.053 37.492C353.129 38.1 351.609 40.38 351.229 40.684C351.077 40.76 350.773 40.836 350.165 41.064C348.949 41.52 349.709 41.14 348.569 41.596C347.353 42.052 347.201 42.204 347.201 42.28C346.289 45.244 344.313 46.612 342.793 48.816C342.337 49.272 340.437 50.336 340.665 51.02C339.753 51.172 340.057 51.856 339.145 52.844C336.561 54.972 333.673 56.796 330.405 58.316C327.821 58.848 324.173 58.468 322.349 57.936C321.361 56.34 321.589 53.528 321.589 51.02C321.969 50.184 322.273 49.196 322.729 48.436C322.881 48.132 323.641 47.98 323.793 47.676C324.097 47.22 323.945 46.688 324.173 46.232C325.085 44.636 325.389 42.888 326.681 41.672ZM340.969 34.604C340.893 35.06 340.437 35.06 340.589 35.668C340.133 36.58 339.069 36.884 338.005 37.112C337.777 37.872 335.953 38.936 336.941 39.696C337.017 39.088 337.473 39.696 337.321 40.38C339.525 40.532 342.565 40.076 343.933 39.316C343.781 37.872 344.237 35.82 343.553 34.908C343.097 34.908 341.501 34.452 340.969 34.604ZM331.849 41.9C331.773 42.356 331.317 42.356 331.469 42.964C330.557 43.04 330.405 43.876 330.025 44.408C328.505 46.308 327.441 48.664 325.997 50.26C325.997 51.856 324.933 52.388 325.237 54.288H328.961C329.721 54.212 332.381 52.692 332.609 52.464C332.913 52.16 332.913 52.312 333.369 52.084C334.509 51.4 335.193 50.108 336.637 49.88C337.321 49.044 338.005 48.132 338.841 47.372C339.601 46.536 340.361 45.776 341.349 45.168C341.881 44.256 342.489 44.256 342.489 43.04C341.273 43.8 338.841 43.952 337.321 44.028C336.789 43.572 335.725 43.724 334.737 43.724C333.749 43.116 333.065 42.204 331.849 41.9ZM376.213 43.724C376.441 43.8 375.681 48.132 375.681 47.828C375.681 47.676 372.261 51.78 371.121 52.312C370.133 52.768 369.373 54.288 368.385 54.288C367.473 54.896 364.889 57.176 364.585 57.176C364.129 57.176 362.761 58.62 361.849 58.62C361.697 58.62 361.469 58.544 361.393 58.544C360.709 58.544 357.897 59.836 356.833 60.064C354.781 60.064 354.477 60.444 353.565 60.444C351.437 60.368 349.385 59.608 347.713 58.62C347.181 57.252 346.573 56.036 346.573 54.212C346.573 50.564 348.701 46.308 350.981 42.584C351.437 41.824 351.817 40.608 352.425 39.62C355.389 34.756 358.657 29.74 361.925 25.028C362.305 24.344 362.837 23.736 363.065 22.824C363.977 22.368 366.181 19.86 366.713 17.732C370.893 14.312 371.349 11.5 377.961 5.344C380.013 3.444 384.193 2.076 384.193 0.935996C385.105 0.935996 385.409 1.392 386.245 1.392C386.397 1.392 386.549 1.392 386.777 1.316C387.081 2.38 387.537 3.292 387.537 4.66C387.537 6.636 386.397 11.12 385.257 13.4C384.877 14.084 384.193 14.312 384.193 15.224C381.609 22.216 377.961 27.08 372.869 32.324C371.349 33.92 369.373 35.288 368.537 37.416C366.561 38.328 363.521 40.228 363.065 41.444C362.381 41.444 362.381 41.672 362.305 42.204C360.633 42.66 359.265 43.572 357.897 44.408C356.985 45.624 355.009 45.852 354.629 47.676C353.033 47.904 352.653 49.348 350.981 49.5C350.677 50.716 350.221 52.236 350.221 53.756C350.221 56.188 351.893 56.416 353.413 56.416C359.417 56.416 364.889 52.388 368.005 50.26C371.425 47.904 374.237 45.852 376.213 43.724ZM383.281 5.496C382.141 5.496 381.305 6.788 380.545 7.548C378.873 9.6 376.517 11.576 375.073 13.4C374.237 14.464 371.425 16.972 371.425 17.352C371.425 18.568 370.361 18.568 370.361 19.936C367.701 21.152 367.017 23.736 367.017 24.344C364.509 25.712 363.597 28.904 363.065 29.436C362.761 29.664 362.077 29.36 361.925 29.816C361.469 33.008 360.101 32.932 360.101 33.692C360.101 34.072 359.341 33.92 359.341 34.3C359.341 34.604 358.201 36.732 357.669 36.732C357.669 36.732 356.757 39.012 356.757 38.708C356.757 39.468 354.629 42.584 354.021 43.116C356.757 43.116 362.761 36.428 365.041 35.212C365.193 35.212 365.421 35.288 365.497 35.288C366.333 35.288 369.069 31.792 369.981 30.88C372.945 27.916 375.453 24.496 378.341 21.38C378.873 19.328 380.013 17.504 380.925 15.528C381.381 15.756 381.305 15.3 381.305 14.996C381.305 14.008 382.825 11.044 383.813 9.752C383.737 9.524 383.737 9.296 383.737 9.068C383.737 7.928 384.421 7.168 384.421 6.408C384.421 5.724 383.813 5.496 383.281 5.496ZM393.208 51.096C392.22 52.236 388.952 52.008 388.116 53.604C387.964 53.072 385.608 54.212 385.532 54.668C383.708 55.656 381.276 56.036 379.3 56.872C378.92 57.708 378.236 57.024 377.476 57.252C377.324 57.328 376.564 57.936 376.412 58.012C374.512 58.316 372.536 57.936 370.94 58.316C370.712 57.328 369.42 57.404 369.496 56.188C369.192 54.82 369.42 53.528 369.724 52.844C370.408 51.4 372.308 48.284 373.524 47.372C375.88 45.396 378.54 40.76 381.048 38.936C381.276 38.1 382.112 37.796 382.872 37.492C382.948 36.428 384.012 36.428 384.316 35.668C385 35.212 385.532 34.68 386.14 34.148C386.824 33.844 386.596 32.704 387.964 33.084C389.484 32.932 388.952 34.756 389.788 35.288C389.408 37.568 387.128 37.948 386.52 40C384.62 40.684 384.24 42.964 382.796 44.028C380.896 44.788 379.148 48.512 377.476 49.576C376.564 51.172 374.512 51.704 374.208 53.984C375.728 54.972 378.008 53.68 378.996 52.844C381.732 52.616 383.86 51.4 385.912 50.336C387.888 49.272 389.712 48.436 391.688 47.296C393.208 46.688 393.208 45.624 394.5 44.864C396.096 44.408 397.616 43.04 399.516 42.888C400.352 45.244 398.984 47.524 395.564 49.272C395.032 50.032 393.816 50.412 393.208 51.096ZM399.744 16.364C399.668 13.248 399.668 10.208 403.392 10.892C404.152 12.336 404.38 14.312 404.532 16.364C403.544 17.656 400.96 16.972 399.744 16.364ZM435.921 44.484C437.213 43.724 438.429 43.724 437.441 46.992C436.909 48.74 432.881 51.476 431.057 51.856C429.993 52.464 428.701 53.148 427.561 53.68C427.409 53.756 426.953 54.516 426.877 54.516C426.117 54.744 424.901 54.82 424.673 55.884C423.153 55.428 423.229 56.644 422.089 56.568C420.873 57.404 418.973 57.556 417.909 58.62C417.301 58.848 415.781 58.164 415.781 59C415.553 59.608 414.033 58.924 413.957 59.684C411.221 59.532 409.321 60.064 407.345 60.672C404.305 60.596 401.113 60.824 398.605 60.292C397.465 59.456 396.553 58.468 394.957 58.088C394.729 57.024 394.501 55.884 393.513 55.504C393.589 53.072 393.057 53.376 393.285 50.792C393.437 49.272 394.729 47.144 395.033 45.624C397.085 43.42 398.529 40.608 400.809 38.708C404.913 34.68 410.081 29.968 418.365 31.412C420.037 33.844 420.721 37.264 421.633 40.532C420.873 40.456 421.481 41.824 421.253 42.356C420.265 43.268 418.441 45.32 416.161 43.42C416.237 42.812 416.009 42.204 416.161 41.596C416.389 40.38 417.757 39.62 417.605 37.568C417.605 36.808 417.225 36.352 416.921 35.44C415.249 34.3 413.425 33.996 411.449 35.06C411.829 35.82 411.829 35.82 411.069 35.44C410.309 35.06 410.537 36.048 410.309 36.124C410.081 36.276 409.549 36.048 409.245 36.124C408.789 36.428 408.333 37.188 407.421 36.884C407.193 37.416 406.433 37.568 405.977 37.948C405.673 38.252 405.749 39.696 404.533 39.088C404.533 40.304 403.697 40.684 403.013 41.292C402.633 43.116 400.429 43.192 400.125 45.244C399.213 45.472 398.833 46.156 398.301 46.688C397.541 49.652 395.717 50.032 396.781 53.68C397.541 55.732 399.517 56.568 401.493 57.328C405.521 57.1 409.929 57.252 412.817 55.884C413.957 55.428 415.477 55.352 416.465 54.82C419.049 54.212 420.797 52.236 423.381 51.628C425.433 50.488 427.713 49.348 429.993 48.512C432.045 47.448 433.641 45.32 435.921 44.484ZM429.443 57.024C428.303 54.44 429.899 52.312 430.431 50.26C430.963 49.88 431.799 47.22 432.331 46.764C432.787 46.384 434.763 43.8 434.687 42.964C435.143 42.812 435.523 42.508 435.827 42.204C435.979 42.052 436.055 41.596 436.131 41.52C436.283 41.368 436.739 41.596 436.891 41.52C437.499 40.912 438.183 40.152 438.335 39.316C439.095 39.468 439.475 38.708 439.779 38.556C440.083 38.404 440.615 37.492 440.919 37.34C441.071 37.264 441.147 36.656 441.299 36.656C441.907 36.352 442.743 35.516 444.567 35.896C445.099 36.58 445.555 37.34 446.011 38.1C444.947 41.064 442.135 42.204 440.539 44.636C439.627 45.7 437.651 48.36 436.739 49.424C436.131 50.792 434.459 51.096 434.535 53.072C435.295 53.756 436.891 53.3 437.423 52.692C440.387 51.856 443.199 50.944 445.479 49.424C446.163 49.348 447.075 48.892 447.683 48.284C447.987 47.98 448.443 47.828 448.747 47.6C449.051 47.296 449.507 47.144 449.811 46.84C450.343 46.308 451.863 45.624 452.775 45.016C453.155 44.788 453.459 44.56 453.839 44.256C455.739 42.888 457.487 40.38 459.311 38.48C459.767 37.34 460.527 36.504 461.515 35.896C462.427 35.288 462.275 33.768 464.099 34.072C465.467 33.844 465.011 35.592 465.923 35.896C464.935 39.696 462.047 41.52 460.071 44.256C457.487 46.46 456.423 50.184 453.839 52.312C453.611 53.984 453.231 55.58 451.635 55.96C451.939 57.328 451.027 57.556 451.331 58.848C449.735 59.608 449.431 61.584 448.747 63.256C448.367 64.016 447.987 64.7 447.683 65.46C447.759 66.676 446.011 65.992 446.543 67.664C447.531 68.728 448.899 67.132 449.811 66.904C450.875 66.372 452.243 65.612 453.459 65.308C458.323 63.408 463.035 60.748 468.431 59.304C470.027 58.848 472.079 58.924 473.523 57.86C476.411 58.316 477.551 56.416 479.375 57.86C479.679 60.292 478.007 60.824 476.107 61.128C473.371 61.432 470.787 62.268 468.431 62.952C467.139 63.256 464.859 63.864 463.339 64.776C463.111 65.46 461.287 64.7 461.135 65.46C458.095 66.752 455.055 68.576 452.015 69.792C449.051 71.084 446.315 72.756 443.655 74.2C442.515 75.34 442.363 77.544 441.071 78.608C440.615 80.432 439.779 81.876 438.867 83.32C438.335 85.068 437.271 86.284 436.739 88.032C435.219 88.716 435.219 90.92 434.155 92.06C432.559 95.1 430.811 97.988 429.063 100.8C428.759 101.408 428.531 102.092 427.923 102.624C427.923 102.7 427.619 103.004 427.619 103.004C427.239 103.536 427.315 105.056 426.099 104.828C426.099 106.956 423.895 106.956 423.971 109.236C422.983 109.616 422.603 110.528 421.387 110.68C421.159 111.516 421.083 112.504 420.627 113.264C418.727 114.708 417.587 116.988 415.155 117.976C414.775 118.66 414.243 119.268 414.091 120.18C412.039 120.332 411.355 121.852 410.063 122.688C407.479 123.22 404.363 124.284 402.083 123.068C401.095 120.712 400.411 118.204 400.563 114.708C400.943 112.808 401.931 111.668 402.083 109.616C403.907 107.488 404.591 104.296 406.415 102.32C406.643 100.572 408.011 99.964 408.619 98.672C409.151 97.38 409.987 96.316 411.203 95.708C411.507 94.72 412.039 93.884 412.267 92.82C414.623 92.212 414.851 89.552 416.675 88.412C417.511 87.424 418.347 86.664 419.183 85.524C420.247 84.08 422.451 83.016 423.591 81.116C425.947 79.976 427.847 78.228 430.127 76.784C430.887 76.252 431.571 75.72 432.331 75.264C432.635 75.112 433.167 74.732 433.395 74.58C433.775 74.352 434.459 74.428 434.915 74.2C435.219 73.972 435.295 73.288 435.599 73.136C436.055 72.832 436.587 72.984 437.043 72.756C438.639 71.92 440.083 71.236 441.451 70.172C443.199 66.448 444.947 62.724 446.543 58.848C446.695 57.936 447.683 57.784 447.683 56.72C448.747 56.644 448.139 54.972 448.747 54.516C449.659 54.288 449.583 53.148 449.811 52.312C448.519 52.008 447.835 53.3 446.923 53.756C446.087 54.212 444.947 54.44 444.035 54.896C443.807 54.972 444.035 55.2 443.655 55.2C443.351 55.276 441.831 56.036 441.071 56.34C440.159 56.644 439.095 56.948 438.183 57.404C437.423 57.252 437.195 57.632 436.739 57.784C434.079 57.784 431.115 58.012 429.443 57.024ZM438.183 76.024C437.651 76.1 437.499 76.556 436.739 76.404C435.675 77.164 434.307 77.62 433.395 78.608C431.191 79.976 428.683 81.192 426.859 82.94C423.667 85.296 420.779 88.032 418.119 90.996C416.903 91.604 416.447 92.972 415.535 93.884C415.307 94.644 414.547 94.872 414.091 95.328C413.635 95.86 413.407 96.62 412.647 96.848C411.583 99.356 409.911 101.484 408.619 103.764C407.251 106.12 405.959 108.552 404.971 111.44C404.515 114.176 403.831 117.064 405.351 119.04C408.239 119.344 409.227 117.596 411.507 117.216C412.267 115.164 414.699 114.784 415.535 112.884C416.827 112.656 416.979 111.136 417.359 110.68C417.967 109.92 418.955 109.236 419.563 108.476C420.779 106.956 421.995 105.284 422.831 103.384C424.275 102.624 424.579 101.028 425.415 99.736C426.175 98.52 427.163 97.38 427.923 96.088C428.759 94.796 429.367 93.428 430.127 92.06C430.887 90.768 432.103 89.324 432.331 87.728C433.851 86.436 434.079 83.852 435.599 82.56C436.359 80.432 437.347 78.456 438.563 76.784C438.487 76.48 438.487 76.024 438.183 76.024Z" fill="#383838"/>
</svg>
