<svg width="250" height="66" viewBox="0 0 250 66" fill="none" xmlns="http://www.w3.org/2000/svg">
<path opacity="0.15" d="M24.116 41.368C23.28 40.456 22.444 39.62 21.608 38.784C20.544 40.456 19.328 41.9 18.264 43.496C17.96 43.876 17.504 44.256 17.2 44.636C16.972 44.94 15.908 45.624 15.756 46.08C15.604 46.384 15.68 47.752 14.616 47.524C14.236 49.804 12.032 50.336 11.728 52.616C11.5 53.148 10.968 53.3 10.284 53.376C10.208 53.984 10.436 54.744 9.904 54.82C9.98 56.112 8.612 55.96 8.08 56.644C8.232 59.304 6.18 59.608 5.876 61.736C5.268 62.344 4.812 63.104 4.432 63.94C3.52 63.636 2.456 65.08 1.848 63.94C1.088 64.092 1.164 63.408 1.164 62.876C0.556 59.912 2.684 56.644 4.052 54.44C4.128 53.3 5.116 53.072 5.496 52.312C5.724 51.324 6.028 50.564 6.636 50.108C7.168 48.208 8.536 46.688 9.524 45.016C10.436 43.42 11.196 41.748 12.108 39.848C12.64 38.784 12.944 37.492 13.932 36.58C15.3 33.388 17.276 30.728 19.024 27.84C19.632 27.232 19.708 26.092 20.468 25.636C21.152 23.964 22.52 23.052 23.052 21.304C23.66 20.772 24.496 20.544 24.496 19.48C25.94 18.568 26.7 16.972 27.764 15.832C28.828 15.604 28.676 14.236 29.588 14.008C30.12 13.248 30.804 12.792 31.412 12.184C31.944 11.576 32.4 10.968 32.856 10.36C34.072 10.436 33.692 8.916 34.68 8.84C38.252 5.572 42.204 2.76 47.144 0.859997C47.6 0.707999 47.676 0.175996 48.208 0.0999973H54.06C55.048 0.707999 56.036 1.24 57.328 1.544C58.468 2.76 59.228 4.28 60.596 5.192C60.748 6.636 61.128 7.852 61.736 8.84C62.192 13.248 60.672 15.68 60.596 19.48C59.532 20.924 58.696 22.672 58.392 24.952C57.176 26.016 56.568 27.688 55.884 29.284C53.832 31.564 51.4 33.312 49.652 35.896C47.98 36.2 46.84 37.188 45.624 38.024C44.864 38.252 44.636 38.936 43.496 38.784C42.888 39.164 42.736 40 41.672 39.848C37.796 41.52 33.54 42.736 27.764 42.432C27.84 41.672 26.472 42.28 25.94 42.052C25.94 41.292 25.028 41.292 24.116 41.368ZM23.736 36.96C25.636 38.86 29.512 38.708 33.236 38.784C36.504 37.872 39.544 37.188 42.356 35.896C45.092 34.604 47.296 32.704 49.652 31.108C52.388 27.536 55.58 24.42 56.568 19.1C57.784 18.036 57.86 15.908 58.392 14.312C58.696 13.096 58.012 12.792 57.708 12.184C59 12.108 58.468 10.436 58.392 9.98C58.316 8.004 56.188 5.724 55.504 4.508C54.364 4.052 52.996 3.824 52.236 3.064C50.488 3.216 49.804 3.52 48.208 3.064C47.676 3.216 47.296 3.596 47.144 4.128C45.7 4.432 44.94 5.344 43.8 5.952C42.432 6.332 41.748 7.548 40.152 7.776C36.504 12.488 30.88 15.3 27.764 20.544C26.168 22.444 24.496 24.268 23.736 27.08C22.292 28.296 21.152 29.892 20.088 31.488C19.024 33.236 18.34 35.212 16.82 36.58C16.972 38.556 15.832 39.24 15.376 40.608C16.592 40.608 16.364 39.164 17.2 38.784C17.656 38.024 18.264 37.416 19.024 36.96C19.784 35.288 21 34.072 21.608 32.248C22.292 31.944 22.9 31.26 23.432 30.728C24.04 30.196 24.876 29.74 25.256 28.904C26.168 27.46 27.84 26.7 28.524 24.952C30.044 24.116 30.272 22.064 32.172 21.608C33.312 20.392 34.148 18.796 36.2 18.34C36.504 19.024 37.492 18.948 37.644 19.784C37.492 22.368 35.744 23.204 34.376 24.192C33.692 26.016 31.868 26.928 30.728 28.22C29.436 29.512 28.676 31.26 27.08 32.248C26.928 33.388 25.94 33.768 25.256 34.376C25.256 35.744 23.356 35.212 23.736 36.96ZM91.8267 43.572C91.8267 43.572 92.7387 46.232 92.9667 46.156C91.6747 46.84 90.2307 48.74 89.0147 49.348C87.7227 49.956 88.0267 50.488 86.7347 51.172C85.4427 51.856 84.4547 52.844 83.1627 53.528C82.4787 53.832 81.6427 53.832 80.9587 54.212C80.1987 54.668 80.0467 55.048 79.1347 54.972C77.8427 56.264 75.4867 55.884 74.4227 57.404C71.7627 57.708 69.9387 57.556 67.4307 58.012C67.4307 57.252 65.9107 57.86 65.3027 57.632C65.2267 56.72 63.8587 57.1 63.7827 56.188C63.0987 56.112 63.7067 54.592 62.7187 54.744C61.6547 54.592 61.3507 55.656 60.5147 55.808C59.5267 56.112 58.0827 56.872 56.8667 57.632C56.3347 58.012 54.3587 58.392 53.2187 59.152C52.6867 59.456 49.7227 60.292 48.5067 60.216C48.6587 60.216 47.4427 59.456 46.6827 59.836C44.9347 58.24 44.0227 55.808 44.8587 52.54C45.7707 51.552 46.3027 50.108 46.6827 48.512C47.8227 47.524 48.5067 46.004 49.5707 44.864C51.3947 42.584 53.8267 40.836 55.8027 38.708C57.0947 37.872 58.3107 37.036 59.0707 35.744C60.9707 35.668 61.5027 34.3 62.7187 33.616C64.1627 32.932 65.9867 32.704 66.7467 31.412C70.0907 30.956 72.2187 29.284 75.4867 28.828C78.1467 29.36 79.2867 32.02 78.3747 35.06C77.7667 35.744 77.3107 36.58 76.2467 36.884C76.3987 37.644 75.4867 37.416 75.4867 37.948C75.4107 38.48 74.5747 38.252 74.0427 38.328C72.6747 36.428 75.0307 35.592 75.1067 33.92C73.2827 33.008 71.9907 34.68 69.6347 34.3C68.5707 35.06 67.1267 35.212 65.9867 35.744C64.9227 36.352 64.3147 37.34 63.0987 37.568C61.0467 38.784 59.6787 40.76 57.2467 41.596C56.2587 43.04 55.1187 44.332 53.9787 45.624C53.0667 45.928 52.8387 46.916 52.1547 47.448C51.4707 47.98 51.3947 49.12 50.3307 49.272C49.7227 51.628 48.3547 53.072 48.1267 55.808C50.3307 57.1 52.3067 55.2 54.3587 55.124C54.3587 54.44 54.9667 54.668 55.4227 54.364C55.8787 54.136 56.1067 53.908 56.4867 53.68C57.1707 53.3 58.7667 53.3 58.6907 52.16C59.6027 52.236 60.4387 52.236 60.8947 51.78C61.7307 51.704 61.5787 50.564 62.7187 50.716C63.0227 49.196 64.0107 48.36 64.1627 46.688C64.9227 45.852 65.9867 45.32 65.9867 43.8C68.9507 42.812 69.0267 39.012 73.2827 39.392C74.1947 39.772 74.1947 40.988 74.7267 41.596C74.9547 43.876 72.9787 43.952 72.9027 46.004C71.7627 46.612 71.0787 47.828 70.3947 48.892C69.4067 49.272 68.8747 50.032 68.1907 50.716C67.6587 51.248 66.2147 51.476 66.7467 52.92C66.3667 54.212 68.3427 53.3 68.5707 53.984C69.1787 53.68 70.0907 53.832 70.7747 53.68C71.9907 53.3 72.9027 53.604 74.0427 52.996C75.1827 52.464 76.5507 52.084 77.6907 51.552C79.8947 50.564 82.0227 49.652 84.2267 48.664C85.1387 47.6 86.2027 47.068 87.2667 46.46C88.7867 45.624 90.0787 44.56 91.8267 43.572ZM116.586 47.904C117.726 46.916 120.462 45.168 120.462 45.092C120.462 45.016 121.45 47.98 121.45 47.98C121.45 47.98 118.79 50.792 118.714 50.64C114.762 53.148 111.038 56.416 105.946 57.556C103.514 57.784 100.778 57.404 99.03 57.176C98.27 57.1 98.042 57.176 97.206 56.796C97.054 56.72 97.206 56.492 96.826 56.416C95.838 56.416 95.306 55.048 94.622 54.212C94.47 52.54 95.154 51.628 95.382 50.26C97.434 47.828 98.574 45.168 100.854 42.964C100.702 41.368 100.398 39.164 99.714 38.176C97.51 38.708 91.202 47.752 89.074 48.36C89.074 48.36 86.338 46.384 86.414 46.46C87.554 45.472 89.606 42.812 90.594 42.052C91.582 40.912 95.306 35.82 96.674 35.136C96.75 34.3 99.182 32.78 99.79 32.248C100.17 31.792 99.866 30.348 101.538 30.88C103.286 31.336 103.058 33.692 103.362 35.668C103.97 36.58 104.198 37.948 104.806 38.936C104.502 40.684 105.946 41.444 105.946 42.964C105.262 42.964 105.414 44.028 105.186 44.408C104.882 44.864 104.35 45.168 104.122 45.472C103.286 47.6 101.994 48.436 100.854 50.26C100.474 51.324 99.03 51.324 99.41 53.148C100.854 53.984 103.134 54.136 105.566 53.908C109.822 53.452 113.698 50.032 116.586 47.904ZM147.097 50.032C148.237 50.944 146.793 51.628 147.477 52.464C145.653 53.3 144.817 54.288 143.601 54.896C142.841 55.276 141.549 56.416 140.333 56.796C140.105 56.796 138.965 57.328 138.737 57.48C138.281 57.632 138.205 57.936 137.293 58.164C136.837 58.316 135.469 58.772 134.785 58.924C133.645 59.228 134.861 58.696 133.265 59.076C132.505 59.228 131.821 59.38 131.061 59.836C129.465 59.152 126.729 59.532 124.525 59.456C124.069 58.696 122.929 58.62 121.941 58.316C121.029 56.796 119.053 55.428 118.673 52.844C118.369 50.944 118.901 49.044 119.433 47.068C120.345 45.168 120.877 41.824 121.941 40.836C123.765 37.872 124.981 34.3 127.109 31.716C126.577 31.108 125.285 31.184 124.145 31.336C123.309 31.488 121.485 31.868 119.813 32.096C117.457 32.324 114.341 33.464 113.581 30.956C113.429 29.512 115.481 30.196 116.165 29.512C116.849 28.904 118.521 29.208 119.053 28.448C122.853 28.22 126.349 27.688 129.997 27.308C130.605 27.232 131.137 26.624 131.441 26.244C131.669 25.94 131.593 25.484 131.821 25.18C132.353 24.496 133.949 23.28 134.709 22.216C136.229 20.392 137.369 18.34 138.737 16.364C140.029 15.452 139.877 13.172 142.385 13.476C143.905 13.476 142.689 16.06 143.525 16.744C141.701 20.316 138.509 22.444 137.293 26.624C137.445 27.384 139.117 26.776 139.877 27.004C148.313 26.244 157.281 25.864 165.717 25.18C166.629 25.636 167.921 26.244 167.009 27.384C165.109 27.536 163.513 27.764 163.589 27.688C161.461 27.612 160.093 28.296 157.737 28.068C156.141 28.98 154.697 28.372 152.645 29.132C151.201 29.208 149.909 29.132 148.997 28.828C146.489 29.968 146.337 28.752 143.829 29.512C142.765 29.816 142.765 29.816 141.701 29.512C141.017 29.816 140.333 30.12 139.497 30.272C138.585 30.424 136.761 28.752 135.469 30.272C135.545 31.032 134.177 30.424 133.645 30.652C132.809 32.78 130.833 33.844 129.997 36.124C128.173 37.416 128.325 39.62 126.349 40.836C126.425 41.824 125.361 42.28 124.905 43.04C124.373 43.8 124.373 45.016 123.461 45.548C123.005 48.436 121.789 50.792 123.081 53.604C123.917 54.212 124.449 54.82 125.285 55.048C125.589 55.124 125.513 55.352 125.589 55.428C128.021 56.568 131.365 55.428 134.025 55.048C135.165 54.744 136.989 54.44 138.205 53.376C138.281 53.3 140.257 52.312 140.333 52.312C140.941 52.008 141.397 51.476 142.081 51.172C142.689 50.944 143.677 50.944 144.285 50.792C144.665 49.956 146.033 50.184 147.097 50.032ZM186.669 47.068C185.149 48.36 182.261 49.956 180.589 50.716C179.297 51.172 178.993 51.78 176.941 52.692C175.649 53.832 174.965 53.528 173.597 54.592C170.785 56.568 167.289 56.796 164.325 58.62C162.197 58.696 159.385 59.608 157.713 57.86C157.637 56.036 158.245 54.592 158.853 53.528C158.929 53.376 158.701 52.844 158.853 52.768C159.233 52.464 158.929 52.16 159.233 51.704C159.309 51.476 159.765 51.628 159.917 51.324C160.297 50.716 160.297 50.336 160.677 49.88C160.905 49.5 161.437 49.196 161.741 48.74C161.817 48.664 161.665 48.132 161.741 48.056C162.121 47.752 162.197 47.676 162.501 47.296C163.261 46.232 165.617 41.748 166.529 40.076C163.489 41.14 156.877 46.08 154.597 48.132C153.913 48.816 152.773 49.576 152.317 50.412C150.645 51.476 150.113 53.452 148.517 54.592C147.301 54.668 147.453 56.188 146.313 56.416C145.553 56.948 144.945 57.708 144.109 58.24C142.209 58.012 141.753 59.228 140.765 57.86C140.613 56.036 141.601 55.352 142.209 54.212C143.197 53.528 143.729 52.312 144.413 51.324C145.553 49.12 148.669 44.864 149.581 42.28C149.885 40.988 151.253 34.604 151.633 33.692C152.165 32.4 153.001 32.552 154.825 32.856C156.117 34.072 154.825 40.76 153.913 42.28C154.445 42.508 153.913 42.66 153.913 43.04H153.533C153.761 44.104 154.141 42.508 154.673 42.66C155.357 42.66 154.901 41.672 155.889 41.976C156.269 40.988 157.333 40.684 157.713 39.772C158.549 40 158.853 39.392 159.537 39.012C160.525 38.48 161.361 38.024 162.425 37.188C162.805 36.96 163.185 36.352 163.565 36.124C165.313 34.908 168.125 33.996 169.797 32.476C171.089 31.868 174.205 30.348 176.029 31.336C177.093 33.692 175.725 35.972 174.205 36.808C174.357 38.252 172.685 37.948 172.761 39.392C171.697 39.544 171.925 40.988 170.937 41.216C170.405 43.268 167.745 47.068 166.529 48.36C166.073 49.348 165.617 50.184 165.009 50.944C163.945 51.096 164.325 52.692 163.565 53.148C164.173 54.136 164.933 52.312 165.769 52.388C166.529 52.084 167.745 52.616 168.353 52.084C169.341 52.008 169.341 51.628 170.177 51.4C174.129 49.728 175.345 50.032 178.613 47.676C180.209 47.068 180.057 47.22 181.349 46.308C182.261 45.7 182.717 45.168 183.249 44.636C183.857 44.408 184.921 43.496 185.453 43.268C186.897 42.508 188.037 41.292 190.241 41.216C190.621 44.788 189.785 46.232 188.645 46.308C187.961 46.308 186.745 46.764 186.669 47.068ZM217.466 46.916C217.466 47.068 217.466 49.652 217.238 50.032C216.098 51.856 205.99 57.86 200.29 58.24C195.502 58.544 191.094 57.404 188.206 55.428C186.458 55.2 185.85 53.148 186.002 51.78C185.698 50.26 185.242 48.36 185.698 46.612C185.698 46.612 186.002 46.46 186.002 46.232C186.23 45.472 187.446 41.824 188.358 41.444C188.738 40.38 189.118 39.24 190.182 38.86C191.018 36.808 193.07 35.896 194.134 34.148C196.186 33.236 198.162 32.324 199.606 30.804C202.266 31.032 203.33 29.664 205.838 29.74C206.902 30.576 206.978 31.564 206.902 33.008C206.902 33.616 206.75 33.464 206.598 33.768C206.294 34.3 206.446 35.592 205.838 36.276C205.838 39.24 203.026 42.508 202.798 45.168C201.734 45.7 200.974 47.296 200.29 48.132C199.606 48.968 198.542 49.272 198.086 50.26C196.338 50.868 195.426 52.236 193.678 52.844C194.818 53.832 196.642 54.288 197.706 54.592H198.466C202.494 54.364 208.498 51.856 211.69 49.5C212.374 48.968 213.894 48.208 214.578 47.904C215.262 47.676 216.706 46.916 217.466 46.916ZM202.57 34.148C201.582 34.832 200.594 34.528 199.986 34.832C197.782 36.048 196.566 38.328 194.514 39.24C193.146 41.748 189.726 46.08 189.65 49.956C190.79 50.032 192.158 49.424 192.614 49.196C193.526 48.664 194.058 48.36 194.818 47.752C197.098 45.928 200.062 40.684 201.43 38.48C202.114 37.416 202.95 36.276 202.95 34.832C202.874 34.604 202.874 34.148 202.57 34.148ZM245.133 47.904C246.273 46.916 249.009 45.168 249.009 45.092C249.009 45.016 249.997 47.98 249.997 47.98C249.997 47.98 247.337 50.792 247.261 50.64C243.309 53.148 239.585 56.416 234.493 57.556C232.061 57.784 229.325 57.404 227.577 57.176C226.817 57.1 226.589 57.176 225.753 56.796C225.601 56.72 225.753 56.492 225.373 56.416C224.385 56.416 223.853 55.048 223.169 54.212C223.017 52.54 223.701 51.628 223.929 50.26C225.981 47.828 227.121 45.168 229.401 42.964C229.249 41.368 228.945 39.164 228.261 38.176C226.057 38.708 219.749 47.752 217.621 48.36C217.621 48.36 214.885 46.384 214.961 46.46C216.101 45.472 218.153 42.812 219.141 42.052C220.129 40.912 223.853 35.82 225.221 35.136C225.297 34.3 227.729 32.78 228.337 32.248C228.717 31.792 228.413 30.348 230.085 30.88C231.833 31.336 231.605 33.692 231.909 35.668C232.517 36.58 232.745 37.948 233.353 38.936C233.049 40.684 234.493 41.444 234.493 42.964C233.809 42.964 233.961 44.028 233.733 44.408C233.429 44.864 232.897 45.168 232.669 45.472C231.833 47.6 230.541 48.436 229.401 50.26C229.021 51.324 227.577 51.324 227.957 53.148C229.401 53.984 231.681 54.136 234.113 53.908C238.369 53.452 242.245 50.032 245.133 47.904Z" fill="#383838"/>
</svg>
