<svg width="197" height="56" viewBox="0 0 197 56" fill="none" xmlns="http://www.w3.org/2000/svg">
<path opacity="0.15" d="M76.58 1.256C77.492 1.864 79.696 1.332 79.468 3.08C78.556 4.676 76.808 4.296 75.136 4.524C71.716 4.98 66.776 4.6 62.748 4.904C60.468 5.056 58.036 5.74 55.756 5.968C54.54 6.12 53.324 6.196 52.108 6.348C50.436 6.576 48.916 6.576 46.636 6.728C46.332 6.728 45.876 6.652 45.572 6.728C45.268 6.804 43.444 6.728 42.304 7.108C41.012 7.488 37.288 7.868 35.008 8.172C30.828 8.78 26.8 9.236 22.924 9.996C22.62 10.072 22.164 9.92 21.86 9.996C21.252 10.224 19.276 10.528 17.832 10.756C15.172 11.212 11.676 12.2 8.332 12.58C7.116 13.036 6.28 13.872 5.064 14.404C4.228 14.936 3.088 16.532 1.796 15.468C0.656 14.176 2.48 13.492 2.86 12.58C3.468 11.592 4.304 10.756 5.064 9.996C5.52 10.072 5.748 9.92 5.824 9.616C8.18 9.312 10.384 8.78 12.74 8.172C17.072 7.184 21.936 6.348 26.952 5.664C29.308 5.284 31.816 5.208 34.248 4.904C37.82 4.448 41.468 3.384 45.192 3.08C47.168 2.928 49.068 2.928 51.044 2.7C52.944 2.548 54.92 2.168 56.896 2.32C62.292 0.951999 70.576 0.951999 76.58 1.256ZM38.656 14.404H40.1C41.544 17.368 39.188 19.496 37.896 20.94C37.288 21.928 36.376 22.612 35.692 23.524C35.616 24.284 34.4 23.828 34.248 24.588C34.552 25.576 33.564 25.348 33.564 26.032C32.044 26.792 31.284 28.16 29.916 28.996C29.308 29.756 28.852 30.592 28.396 31.504C26.42 32.112 25.736 33.936 24.444 35.152C23.152 36.444 21.86 37.736 20.796 39.18C18.896 41.232 16.996 43.208 15.628 45.792C15.02 46.324 15.096 47.616 13.804 47.616C13.956 49.06 13.196 49.592 13.5 51.264C12.208 51.872 10.688 53.848 8.712 52.708C7.496 50.504 9.548 48.756 10.156 47.236C10.764 45.944 11.6 44.728 12.36 43.588C12.816 42.98 13.5 42.676 13.804 42.144C14.108 41.688 14.26 40.7 14.564 40.32C14.944 39.712 15.628 39.332 16.008 38.8C16.996 37.66 18.516 35.912 19.276 34.088C21.252 33.252 22.392 31.504 23.684 30.06C25.052 28.616 26.42 27.172 27.712 25.728C30.828 23.296 33.792 20.636 35.692 16.912C36.452 16.304 37.516 16.076 37.896 15.088C37.972 14.708 38.656 14.86 38.656 14.404ZM69.6361 41.916C69.6361 42.068 69.6361 44.652 69.4081 45.032C68.2681 46.856 58.1601 52.86 52.4601 53.24C47.6721 53.544 43.2641 52.404 40.3761 50.428C38.6281 50.2 38.0201 48.148 38.1721 46.78C37.8681 45.26 37.4121 43.36 37.8681 41.612C37.8681 41.612 38.1721 41.46 38.1721 41.232C38.4001 40.472 39.6161 36.824 40.5281 36.444C40.9081 35.38 41.2881 34.24 42.3521 33.86C43.1881 31.808 45.2401 30.896 46.3041 29.148C48.3561 28.236 50.3321 27.324 51.7761 25.804C54.4361 26.032 55.5001 24.664 58.0081 24.74C59.0721 25.576 59.1481 26.564 59.0721 28.008C59.0721 28.616 58.9201 28.464 58.7681 28.768C58.4641 29.3 58.6161 30.592 58.0081 31.276C58.0081 34.24 55.1961 37.508 54.9681 40.168C53.9041 40.7 53.1441 42.296 52.4601 43.132C51.7761 43.968 50.7121 44.272 50.2561 45.26C48.5081 45.868 47.5961 47.236 45.8481 47.844C46.9881 48.832 48.8121 49.288 49.8761 49.592H50.6361C54.6641 49.364 60.6681 46.856 63.8601 44.5C64.5441 43.968 66.0641 43.208 66.7481 42.904C67.4321 42.676 68.8761 41.916 69.6361 41.916ZM54.7401 29.148C53.7521 29.832 52.7641 29.528 52.1561 29.832C49.9521 31.048 48.7361 33.328 46.6841 34.24C45.3161 36.748 41.8961 41.08 41.8201 44.956C42.9601 45.032 44.3281 44.424 44.7841 44.196C45.6961 43.664 46.2281 43.36 46.9881 42.752C49.2681 40.928 52.2321 35.684 53.6001 33.48C54.2841 32.416 55.1201 31.276 55.1201 29.832C55.0441 29.604 55.0441 29.148 54.7401 29.148ZM98.0631 42.904C99.2031 41.916 101.939 40.168 101.939 40.092C101.939 40.016 102.927 42.98 102.927 42.98C102.927 42.98 100.267 45.792 100.191 45.64C96.2391 48.148 92.5151 51.416 87.4231 52.556C84.9911 52.784 82.2551 52.404 80.5071 52.176C79.7471 52.1 79.5191 52.176 78.6831 51.796C78.5311 51.72 78.6831 51.492 78.3031 51.416C77.3151 51.416 76.7831 50.048 76.0991 49.212C75.9471 47.54 76.6311 46.628 76.8591 45.26C78.9111 42.828 80.0511 40.168 82.3311 37.964C82.1791 36.368 81.8751 34.164 81.1911 33.176C78.9871 33.708 72.6791 42.752 70.5511 43.36C70.5511 43.36 67.8151 41.384 67.8911 41.46C69.0311 40.472 71.0831 37.812 72.0711 37.052C73.0591 35.912 76.7831 30.82 78.1511 30.136C78.2271 29.3 80.6591 27.78 81.2671 27.248C81.6471 26.792 81.3431 25.348 83.0151 25.88C84.7631 26.336 84.5351 28.692 84.8391 30.668C85.4471 31.58 85.6751 32.948 86.2831 33.936C85.9791 35.684 87.4231 36.444 87.4231 37.964C86.7391 37.964 86.8911 39.028 86.6631 39.408C86.3591 39.864 85.8271 40.168 85.5991 40.472C84.7631 42.6 83.4711 43.436 82.3311 45.26C81.9511 46.324 80.5071 46.324 80.8871 48.148C82.3311 48.984 84.6111 49.136 87.0431 48.908C91.2991 48.452 95.1751 45.032 98.0631 42.904ZM163.914 41.08C161.786 42.372 157.91 47.16 155.402 48.072C151.678 48.984 151.298 50.656 147.65 51.644C144.458 52.328 140.126 54.532 136.706 52.708C134.73 50.884 136.022 47.312 136.326 44.728C137.086 44.576 136.706 43.36 137.466 43.208C137.542 42.6 137.086 41.384 138.15 41.764C137.922 40.092 138.758 39.408 139.29 38.496C139.822 37.66 140.05 36.368 140.734 35.608C141.266 34.62 142.026 33.936 142.178 32.644C140.05 32.72 139.29 34.468 137.77 35.608C134.73 37.888 132.602 41.08 129.79 43.968C128.878 44.88 127.966 45.792 126.826 46.552C125.534 48.908 123.786 50.732 122.114 52.708C120.062 52.252 119.91 53.696 118.086 53.468C117.858 52.404 116.794 51.644 118.086 50.884C118.238 49.82 118.314 48.68 119.226 48.376C120.062 46.628 121.202 45.26 121.734 43.208C123.102 42.068 123.482 39.788 124.698 38.496C125.002 36.368 125.762 34.696 126.142 32.644C124.546 31.808 122.874 33.708 121.734 34.468C120.29 35.152 119.15 36.216 118.086 37.432C116.49 38.116 115.502 39.408 114.438 40.7C112.614 41.004 112.462 43.056 110.41 43.208C108.89 45.108 107.37 47.008 105.318 48.376C105.394 49.06 104.558 49.44 104.254 49.82C103.874 50.276 103.874 51.188 103.114 51.264C102.81 52.632 101.518 53.088 100.986 54.152C98.9341 53.848 97.2621 55.216 96.1981 53.848C96.2741 53.468 96.1981 53.088 96.1981 52.708C96.2741 52.024 96.4261 51.796 96.9581 51.264C98.7061 49.44 99.3141 45.716 100.986 43.208C101.594 41.308 102.81 39.94 103.494 38.116C103.95 37.28 104.406 36.52 104.482 35.76C104.938 33.632 105.546 32.644 106.458 29.072C107.142 27.4 105.014 28.616 105.318 27.248C105.014 25.5 106.914 25.88 106.838 24.36C108.13 24.208 107.902 22.536 108.662 21.776C108.738 21.396 109.346 21.548 109.346 21.092H110.106C113.678 22.308 111.854 28.54 109.726 30.592C109.726 31.428 109.346 32.34 109.346 33.176C108.738 34.392 108.89 34.392 108.51 35.76C108.662 36.824 107.522 37.888 107.522 39.56C107.75 40.472 108.51 38.876 109.346 39.256C109.65 38.572 110.714 38.648 110.79 37.736C112.31 37.356 113.298 36.368 114.058 35.228C115.426 34.62 116.566 33.784 117.706 33.024C118.77 32.112 120.366 31.732 121.05 30.44C124.318 29.984 125.686 27.552 129.03 27.172C131.69 29.528 129.79 34.012 129.41 37.432C129.486 38.268 130.398 36.976 130.854 37.052C131.082 36.52 131.462 36.14 131.994 35.912C132.45 34.848 133.59 34.392 134.502 33.784C135.794 31.96 138.226 31.428 139.29 29.376C142.102 28.54 143.546 26.336 146.206 25.348C149.018 26.868 147.802 31.428 146.206 33.404C145.218 37.28 142.558 39.484 141.418 43.208C140.734 44.88 139.822 46.476 139.974 49.06C142.786 50.352 144.686 47.768 147.27 47.616C147.65 47.388 147.65 46.78 148.41 46.856C148.866 46.4 149.626 46.4 150.234 46.172C151.526 45.564 151.982 45.564 153.502 44.652C155.402 43.588 154.87 42.524 157.074 41.84C159.126 40.168 164.978 33.252 163.914 41.08ZM153.217 47.844C152.305 48.376 151.165 48.908 151.165 48.604C151.165 47.16 151.165 45.032 151.013 45.032C154.053 44.196 157.625 40.472 160.209 39.104C163.401 37.052 167.733 33.176 171.153 31.428C172.977 30.364 174.573 29.072 176.321 28.008C177.841 27.096 179.361 25.728 181.413 25.5C181.793 26.108 182.325 26.716 182.857 27.324C183.237 28.616 182.249 29.68 181.793 30.592C181.033 32.036 180.121 33.328 179.209 34.696C179.133 34.848 179.361 35.304 179.209 35.38C178.525 35.988 175.105 42.296 174.725 43.74C173.737 44.652 172.521 45.412 172.217 47.008C173.053 48.072 174.345 46.476 175.865 47.008C179.057 46.248 182.477 45.336 185.669 44.5C189.317 42.828 193.193 41.156 196.537 39.18C196.537 40.776 196.841 42.752 196.309 42.296C195.473 42.6 194.333 43.892 193.573 44.196C193.345 44.272 192.661 44.88 192.433 44.88C191.977 45.032 191.749 45.032 191.369 45.26C190.153 45.792 189.621 46.628 188.633 47.16C188.253 47.388 187.873 47.464 187.493 47.54C186.733 47.844 185.821 48.3 184.985 48.528C184.149 48.756 183.921 48.984 182.781 49.288C181.793 49.516 179.133 50.124 177.689 51.036C173.585 51.492 169.101 53.62 164.541 53.164C163.097 53.088 161.729 52.176 160.133 52.1C159.145 51.112 158.081 50.048 156.485 49.516C156.105 48.528 156.105 47.388 156.485 46.4C155.345 46.096 155.345 46.932 154.661 47.084C154.433 47.616 153.293 47.16 153.217 47.844ZM165.225 48.072C166.669 47.54 167.581 46.552 168.189 45.184C169.329 44.196 172.749 39.864 172.977 38.04C173.965 37.66 174.269 35.076 175.181 34.696C175.105 33.86 175.257 33.328 175.941 33.252C175.865 32.796 175.789 32.34 175.181 32.492C175.105 33.024 174.573 33.1 174.497 33.556C171.837 34.24 171.457 37.052 168.721 37.66C166.973 39.256 161.197 43.664 159.069 44.956C160.893 46.476 162.033 48.452 165.225 48.072Z" fill="#383838"/>
</svg>
