<svg width="177" height="59" viewBox="0 0 177 59" fill="none" xmlns="http://www.w3.org/2000/svg">
<path opacity="0.15" d="M55.684 0.607997C56.368 0.607997 56.444 1.064 57.128 0.987996C56.824 3.952 54.924 5.32 54.24 7.904C51.884 8.816 51.124 11.4 49.148 12.692C48.084 14.82 46.184 16.34 45.12 18.468C42.536 20.216 41.016 22.876 38.204 24.32C37.292 25.992 35.544 26.752 34.556 28.348C33.34 29.64 31.82 30.78 30.908 32.376C29.54 33.516 27.716 34.352 26.88 36.024C25.36 37.012 24.448 38.684 22.852 39.672C22.776 40.888 21.408 40.812 21.408 42.18C20.192 42.18 20.04 43.32 19.584 44.004C18.064 44.992 16.924 46.436 15.556 47.652C14.036 49.172 12.212 50.388 10.464 52.06C9.856 52.668 9.552 53.276 8.64 53.884C7.196 54.796 4.688 55.48 1.344 55.328C0.888 51.984 2.788 50.996 2.408 47.652C3.928 45.448 4.156 42.104 5.752 40.052V37.848C6.588 37.468 6.892 36.556 6.816 35.264C7.728 35.036 7.652 33.896 7.88 33.06C8.564 32.376 8.412 31.388 8.64 30.552C8.792 30.096 9.856 29.412 9.4 27.968C9.932 27.36 10.464 26.448 10.844 25.46C11.072 24.7 11.148 23.788 11.528 22.496C11.68 22.192 12.82 21.964 12.288 20.672C13.276 19.76 11.224 19.912 11.224 18.848C11.68 16.72 11.68 14.288 12.288 12.312C13.656 11.704 13.428 9.5 15.176 9.348C17 9.424 16.696 11.552 17.76 12.312C17.076 14.06 17.912 17.328 16.316 18.164C17.228 19.912 15.86 21.204 15.936 23.256C14.644 25.232 14.264 27.664 13.428 29.792C13.124 30.552 12.668 31.084 12.288 31.996C12.212 32.148 12.364 32.68 12.288 32.756C11.072 33.744 10.692 37.544 9.704 39.672C9.476 40.204 8.868 40.204 8.64 40.736C8.412 41.192 8.488 42.028 8.26 42.56C7.5 44.688 6.892 46.968 6.056 49.172C6.284 49.704 6.588 49.02 7.196 49.172C7.348 48.64 7.804 48.564 7.88 48.032C10.388 46.968 11.3 44.384 14.112 43.7C16.164 41.496 18.216 39.216 20.344 37.088C22.472 34.96 24.828 33.136 26.5 30.552C27.64 30.324 27.64 29.032 29.084 29.108C29.236 28.044 30.3 27.816 30.528 26.904C31.364 26.448 31.744 25.688 32.732 25.46C33.416 23.788 35.088 23.18 36 21.812C38.432 19.532 40.788 17.328 43.296 15.2C43.904 14.212 44.208 12.92 45.12 12.312C45.804 11.4 46.64 10.64 46.944 9.348C49.148 9.12 48.844 6.384 50.972 6.08C51.58 4.408 52.796 3.344 53.48 1.748C54.62 1.748 54.924 0.911997 55.684 0.607997ZM67.7567 44.916C67.7567 45.068 67.7567 47.652 67.5287 48.032C66.3887 49.856 56.2807 55.86 50.5807 56.24C45.7927 56.544 41.3847 55.404 38.4967 53.428C36.7487 53.2 36.1407 51.148 36.2927 49.78C35.9887 48.26 35.5327 46.36 35.9887 44.612C35.9887 44.612 36.2927 44.46 36.2927 44.232C36.5207 43.472 37.7367 39.824 38.6487 39.444C39.0287 38.38 39.4087 37.24 40.4727 36.86C41.3087 34.808 43.3607 33.896 44.4247 32.148C46.4767 31.236 48.4527 30.324 49.8967 28.804C52.5567 29.032 53.6207 27.664 56.1287 27.74C57.1927 28.576 57.2687 29.564 57.1927 31.008C57.1927 31.616 57.0407 31.464 56.8887 31.768C56.5847 32.3 56.7367 33.592 56.1287 34.276C56.1287 37.24 53.3167 40.508 53.0887 43.168C52.0247 43.7 51.2647 45.296 50.5807 46.132C49.8967 46.968 48.8327 47.272 48.3767 48.26C46.6287 48.868 45.7167 50.236 43.9687 50.844C45.1087 51.832 46.9327 52.288 47.9967 52.592H48.7567C52.7847 52.364 58.7887 49.856 61.9807 47.5C62.6647 46.968 64.1847 46.208 64.8687 45.904C65.5527 45.676 66.9967 44.916 67.7567 44.916ZM52.8607 32.148C51.8727 32.832 50.8847 32.528 50.2767 32.832C48.0727 34.048 46.8567 36.328 44.8047 37.24C43.4367 39.748 40.0167 44.08 39.9407 47.956C41.0807 48.032 42.4487 47.424 42.9047 47.196C43.8167 46.664 44.3487 46.36 45.1087 45.752C47.3887 43.928 50.3527 38.684 51.7207 36.48C52.4047 35.416 53.2407 34.276 53.2407 32.832C53.1647 32.604 53.1647 32.148 52.8607 32.148ZM108.192 45.068C106.672 46.36 103.784 47.956 102.112 48.716C100.82 49.172 100.516 49.78 98.4637 50.692C97.1717 51.832 96.4877 51.528 95.1197 52.592C92.3077 54.568 88.8117 54.796 85.8477 56.62C83.7197 56.696 80.9077 57.608 79.2357 55.86C79.1597 54.036 79.7677 52.592 80.3757 51.528C80.4517 51.376 80.2237 50.844 80.3757 50.768C80.7557 50.464 80.4517 50.16 80.7557 49.704C80.8317 49.476 81.2877 49.628 81.4397 49.324C81.8197 48.716 81.8197 48.336 82.1997 47.88C82.4277 47.5 82.9597 47.196 83.2637 46.74C83.3397 46.664 83.1877 46.132 83.2637 46.056C83.6437 45.752 83.7197 45.676 84.0237 45.296C84.7837 44.232 87.1397 39.748 88.0517 38.076C85.0117 39.14 78.3997 44.08 76.1197 46.132C75.4357 46.816 74.2957 47.576 73.8397 48.412C72.1677 49.476 71.6357 51.452 70.0397 52.592C68.8237 52.668 68.9757 54.188 67.8357 54.416C67.0757 54.948 66.4677 55.708 65.6317 56.24C63.7317 56.012 63.2757 57.228 62.2877 55.86C62.1357 54.036 63.1237 53.352 63.7317 52.212C64.7197 51.528 65.2517 50.312 65.9357 49.324C67.0757 47.12 70.1917 42.864 71.1037 40.28C71.4077 38.988 72.7757 32.604 73.1557 31.692C73.6877 30.4 74.5237 30.552 76.3477 30.856C77.6397 32.072 76.3477 38.76 75.4357 40.28C75.9677 40.508 75.4357 40.66 75.4357 41.04H75.0557C75.2837 42.104 75.6637 40.508 76.1957 40.66C76.8797 40.66 76.4237 39.672 77.4117 39.976C77.7917 38.988 78.8557 38.684 79.2357 37.772C80.0717 38 80.3757 37.392 81.0597 37.012C82.0477 36.48 82.8837 36.024 83.9477 35.188C84.3277 34.96 84.7077 34.352 85.0877 34.124C86.8357 32.908 89.6477 31.996 91.3197 30.476C92.6117 29.868 95.7277 28.348 97.5517 29.336C98.6157 31.692 97.2477 33.972 95.7277 34.808C95.8797 36.252 94.2077 35.948 94.2837 37.392C93.2197 37.544 93.4477 38.988 92.4597 39.216C91.9277 41.268 89.2677 45.068 88.0517 46.36C87.5957 47.348 87.1397 48.184 86.5317 48.944C85.4677 49.096 85.8477 50.692 85.0877 51.148C85.6957 52.136 86.4557 50.312 87.2917 50.388C88.0517 50.084 89.2677 50.616 89.8757 50.084C90.8637 50.008 90.8637 49.628 91.6997 49.4C95.6517 47.728 96.8677 48.032 100.136 45.676C101.732 45.068 101.58 45.22 102.872 44.308C103.784 43.7 104.24 43.168 104.772 42.636C105.38 42.408 106.444 41.496 106.976 41.268C108.42 40.508 109.56 39.292 111.764 39.216C112.144 42.788 111.308 44.232 110.168 44.308C109.484 44.308 108.268 44.764 108.192 45.068ZM143.245 46.36C144.385 45.448 146.741 44.08 146.969 43.928C147.121 43.852 148.261 47.196 148.261 47.196C148.261 47.196 143.473 50.388 143.245 50.312C143.017 50.236 138.229 54.036 134.657 54.796C133.745 54.948 132.605 55.024 131.693 55.48C130.021 55.48 128.273 54.72 126.601 54.72C125.461 54.188 125.005 52.972 124.397 51.832C122.421 52.364 120.901 53.428 119.685 54.72C116.949 55.328 113.985 57.152 110.945 57.684C110.337 57.76 109.653 57.608 109.121 57.684C108.133 57.76 106.537 58.064 105.093 57.304C103.497 56.848 103.421 54.796 102.509 53.656C102.965 52.288 103.117 50.616 103.649 49.248C104.561 48.108 111.021 38 112.313 37.24C112.161 36.1 116.037 32.908 116.189 31.996C116.569 31.464 116.493 30.4 117.633 30.552C119.305 30.172 119.685 31.16 120.521 31.692C120.825 35.188 118.621 36.252 116.873 37.848C116.645 39.216 115.277 40.28 114.441 41.04C113.757 41.952 110.337 47.196 109.273 47.652C108.817 49.932 106.309 50.388 106.917 53.656C110.641 54.948 113.605 52.44 116.721 51.832C118.393 50.692 120.141 49.932 121.889 48.944C123.409 47.956 124.777 46.588 126.601 45.98C128.045 43.168 132.529 38.76 134.733 36.404C135.417 35.644 135.797 34.58 136.937 34.2C136.937 33.136 137.773 32.908 138.381 32.376C139.141 31.996 139.749 31.388 140.205 30.552C140.585 30.324 141.877 29.184 142.409 30.248C143.929 30.4 143.625 33.06 143.093 33.896C142.941 34.048 142.789 33.82 142.713 34.2C142.713 34.808 142.409 35.036 142.029 35.72C140.205 37.772 138.457 39.976 136.557 41.876C134.657 43.776 129.793 47.652 129.185 50.768C130.477 51.528 131.997 51.68 133.137 51.528C136.633 50.844 140.661 48.26 143.245 46.36ZM176.953 44.916C176.953 45.068 176.953 47.652 176.725 48.032C175.585 49.856 165.477 55.86 159.777 56.24C154.989 56.544 150.581 55.404 147.693 53.428C145.945 53.2 145.337 51.148 145.489 49.78C145.185 48.26 144.729 46.36 145.185 44.612C145.185 44.612 145.489 44.46 145.489 44.232C145.717 43.472 146.933 39.824 147.845 39.444C148.225 38.38 148.605 37.24 149.669 36.86C150.505 34.808 152.557 33.896 153.621 32.148C155.673 31.236 157.649 30.324 159.093 28.804C161.753 29.032 162.817 27.664 165.325 27.74C166.389 28.576 166.465 29.564 166.389 31.008C166.389 31.616 166.237 31.464 166.085 31.768C165.781 32.3 165.933 33.592 165.325 34.276C165.325 37.24 162.513 40.508 162.285 43.168C161.221 43.7 160.461 45.296 159.777 46.132C159.093 46.968 158.029 47.272 157.573 48.26C155.825 48.868 154.913 50.236 153.165 50.844C154.305 51.832 156.129 52.288 157.193 52.592H157.953C161.981 52.364 167.985 49.856 171.177 47.5C171.861 46.968 173.381 46.208 174.065 45.904C174.749 45.676 176.193 44.916 176.953 44.916ZM162.057 32.148C161.069 32.832 160.081 32.528 159.473 32.832C157.269 34.048 156.053 36.328 154.001 37.24C152.633 39.748 149.213 44.08 149.137 47.956C150.277 48.032 151.645 47.424 152.101 47.196C153.013 46.664 153.545 46.36 154.305 45.752C156.585 43.928 159.549 38.684 160.917 36.48C161.601 35.416 162.437 34.276 162.437 32.832C162.361 32.604 162.361 32.148 162.057 32.148Z" fill="#383838"/>
</svg>
