<svg width="190" height="40" viewBox="0 0 190 40" fill="none" xmlns="http://www.w3.org/2000/svg">
<path d="M30.6153 28.3493H26.0223C25.8532 28.3493 25.7028 28.2637 25.6151 28.1291C25.5273 27.9884 25.5211 27.8172 25.5963 27.6704C25.6088 27.6459 26.7805 25.3462 27.0312 24.2146C27.3131 22.9241 27.5512 21.1626 27.1251 17.8903C27.0687 17.4805 26.9998 16.9973 26.9121 16.4713H22.0372L22.6638 27.8539C22.6701 27.9823 22.6262 28.1108 22.5322 28.2025C22.4382 28.2942 22.3129 28.3493 22.1813 28.3493H21.3417C21.2853 28.3493 21.2352 28.3432 21.185 28.3248C20.9156 28.2331 18.5533 27.389 18.2964 25.9333C18.0709 24.6734 18.2776 18.1533 18.2902 17.872C18.2902 17.7864 18.3215 17.7068 18.3654 17.6334C18.3842 17.6029 20.4707 14.4224 20.3705 12.5141C20.2827 10.8382 20.195 7.54146 20.1637 6.33043H17.6072C17.8453 7.50477 18.0333 8.87483 17.9894 10.1898C17.933 11.9758 17.131 13.6762 16.2475 15.0279C16.8302 16.4041 17.626 17.6151 17.6385 17.6334C17.6886 17.7068 17.7137 17.7864 17.7137 17.872C17.72 18.1472 17.933 24.6673 17.7074 25.9333C17.6009 26.5327 17.1372 27.0893 16.3289 27.597C16.2287 27.6643 16.1033 27.6887 15.978 27.6643C15.3577 27.5542 14.7186 27.4257 14.2862 27.2545C13.503 26.9425 12.9954 26.0985 12.9954 25.1015V17.6029C12.9954 17.4744 13.0518 17.346 13.1458 17.2603C13.1646 17.242 14.1797 16.3062 15.1635 14.9056C14.8502 14.0737 14.6309 13.2052 14.6684 12.4651C14.775 10.41 14.8878 5.89616 14.8878 5.84723C14.8878 5.59035 15.1071 5.38851 15.3702 5.38851H16.3978C16.2224 4.70348 16.0532 4.153 15.9467 3.82884H9.3048C8.99777 4.75852 8.1456 7.60874 8.22706 10.1531C8.34611 13.7801 12.0681 17.2236 12.1057 17.2542C12.1997 17.346 12.2561 17.4683 12.2561 17.5967V25.0954C12.2561 26.0924 11.7485 26.9364 10.9653 27.2484C10.4891 27.438 9.74342 27.5725 9.01657 27.701L8.62181 27.7744C8.35864 27.8233 8.10801 27.6581 8.05788 27.4013C8.00775 27.1444 8.17693 26.8997 8.4401 26.8508L8.84112 26.7774C9.48651 26.6612 10.2134 26.5327 10.6019 26.3737C11.0781 26.1841 11.2911 25.5969 11.2911 25.0893V17.7864C10.5392 17.0585 7.38116 13.7924 7.2621 10.1715C7.15558 6.9176 8.44637 3.33953 8.50276 3.18662C8.57169 2.99701 8.7534 2.87469 8.95391 2.87469H16.2913C16.4918 2.87469 16.6735 2.99701 16.7425 3.18662C16.7675 3.26002 17.0808 4.12854 17.3879 5.37016H20.6211C20.8843 5.37016 21.0973 5.572 21.1036 5.82889C21.1036 5.8717 21.2164 10.3917 21.3229 12.4468C21.4294 14.4591 19.6311 17.3949 19.2363 18.0127C19.1737 19.9638 19.0671 24.8079 19.2363 25.756C19.3554 26.4288 20.6086 27.1077 21.4231 27.4013H21.6675L21.0409 16.0187C21.0346 15.8903 21.0785 15.7618 21.1725 15.6701C21.2665 15.5784 21.3918 15.5233 21.5234 15.5233H26.7429C26.5549 14.4713 26.3356 13.3092 26.1163 12.1654C25.6714 9.8351 25.2579 7.63933 25.1764 6.63624C25.0511 5.10716 25.0699 0.65445 25.0699 0.464843C25.0699 0.207956 25.283 0 25.5524 0H35.8912C36.1544 0 36.3737 0.207956 36.3737 0.464843C36.3737 0.65445 36.3862 5.10716 36.2672 6.63624C36.2045 7.38244 35.9601 8.79532 35.6531 10.4284H43.0908C43.2662 10.4284 43.4291 10.5201 43.5168 10.673C43.6046 10.8259 43.592 11.0094 43.498 11.1562L38.1657 19.0769V26.7223L40.7849 27.2545C41.0481 27.3095 41.211 27.5542 41.1609 27.8111C41.1045 28.0618 40.8538 28.227 40.5907 28.178L37.5893 27.5725C37.3637 27.5297 37.207 27.334 37.207 27.1138V18.9485C37.207 18.8567 37.2321 18.765 37.2885 18.6916L42.2135 11.3825H35.4902C35.44 11.6455 35.3899 11.9147 35.3398 12.1838C35.1017 13.4499 34.851 14.7465 34.6568 15.8781L36.5491 18.6855C36.5992 18.765 36.6306 18.8506 36.6306 18.9423V27.1077C36.6306 27.3279 36.4677 27.5236 36.2484 27.5664L35.2521 27.7682C35.0328 27.8111 34.8135 27.7071 34.7195 27.5114C34.262 26.5633 33.673 25.2544 33.4913 24.4104C33.0653 22.4715 33.0339 20.4837 33.3848 17.7741C33.4475 17.2909 33.5352 16.716 33.648 16.0799L30.3333 11.1623C30.2393 11.0156 30.2268 10.8321 30.3145 10.6792C30.4022 10.5262 30.5589 10.4345 30.7406 10.4345H34.6944C35.0077 8.75862 35.2646 7.30293 35.3273 6.56896C35.4212 5.36404 35.4338 2.15296 35.4338 0.941918H26.0537C26.0537 2.14684 26.0599 5.36404 26.1602 6.56896C26.2354 7.52311 26.6489 9.70054 27.0875 12.0003C27.3131 13.2052 27.5512 14.4285 27.7392 15.5294H31.2857C31.4173 15.5294 31.5426 15.5845 31.6366 15.6762C31.7306 15.768 31.7745 15.8964 31.7682 16.0248L31.1165 27.9028C31.104 28.1536 30.891 28.3493 30.6341 28.3493H30.6153ZM26.7868 27.4135H30.1579L30.7594 16.4713H27.8771C27.9585 16.9484 28.0212 17.3888 28.0713 17.7741C28.4222 20.4837 28.3909 22.4715 27.9648 24.4104C27.7768 25.2605 27.169 26.6 26.7805 27.4135H26.7868ZM34.4187 17.2481C34.3811 17.4805 34.3498 17.6946 34.3247 17.8965C33.8986 21.1687 34.1305 22.9302 34.4187 24.2208C34.5691 24.9058 35.0578 26.0128 35.415 26.7835L35.6531 26.7346V19.0891L34.4187 17.2542V17.2481ZM13.9541 17.8047V25.1076C13.9541 25.6092 14.1672 26.2025 14.6434 26.3921C14.9379 26.5083 15.4392 26.6184 15.9592 26.7101C16.4229 26.3921 16.7049 26.0618 16.755 25.7743C16.9242 24.8263 16.8114 19.9821 16.755 18.031C16.567 17.7374 16.0658 16.924 15.6021 15.9331C14.9003 16.8567 14.2486 17.5172 13.9604 17.7986L13.9541 17.8047ZM31.6116 11.3764L33.8673 14.7282C34.0239 13.8535 34.2057 12.9239 34.3748 12.0064C34.4124 11.7923 34.4563 11.5844 34.4939 11.3764H31.6053H31.6116ZM15.8339 6.33043C15.8026 7.54146 15.7149 10.8382 15.6271 12.5141C15.6083 12.9239 15.6835 13.3887 15.8214 13.8719C16.4605 12.7587 16.9806 11.4743 17.0182 10.1593C17.062 8.8626 16.8615 7.48642 16.6109 6.33043H15.8339Z" fill="#198E61"/>
<path d="M25.0373 39.9943C23.8279 39.9943 23.1324 39.5233 22.4056 39.0279C22.1111 38.8261 21.8103 38.6242 21.4469 38.4285C18.4768 36.8444 0.67528 32.7953 0.493567 32.7525C0.148941 32.673 -0.0641015 32.3366 0.0173558 32.0002C0.098813 31.6638 0.44344 31.4559 0.788067 31.5354C1.52745 31.7005 18.9405 35.67 22.0672 37.3337C22.4933 37.56 22.8379 37.7924 23.145 38.0004C23.8029 38.4469 24.2415 38.7466 25.0498 38.7466C25.8581 38.7466 26.2905 38.453 26.9546 38.0004C27.2617 37.7924 27.6063 37.5539 28.0324 37.3337C31.1528 35.67 48.5659 31.7066 49.3115 31.5354C49.6562 31.4559 50.0008 31.6638 50.0822 32.0002C50.1637 32.3366 49.9507 32.673 49.606 32.7525C49.4243 32.7953 31.6228 36.8444 28.6527 38.4285C28.2893 38.6242 27.9885 38.8261 27.694 39.0279C26.9609 39.5233 26.2717 39.9943 25.0623 39.9943H25.0373Z" fill="#198E61"/>
<path d="M23.1574 34.9061C23.101 34.9061 23.0383 34.8938 22.9819 34.8755C17.3865 32.7347 8.30084 30.227 3.08758 29.1322C2.83068 29.0772 2.6615 28.8264 2.71789 28.5756C2.77428 28.3249 3.03119 28.1597 3.28809 28.2148C8.53895 29.3157 17.6935 31.8418 23.3328 34.0008C23.5772 34.0926 23.7025 34.3678 23.6023 34.6064C23.5271 34.7898 23.3454 34.9061 23.1574 34.9061Z" fill="#198E61"/>
<path d="M22.9943 36.538C22.9379 36.538 22.8815 36.5258 22.8251 36.5074C17.0291 34.3667 7.61763 31.859 2.22265 30.7641C1.96574 30.7091 1.79656 30.4644 1.84669 30.2076C1.90308 29.9507 2.15372 29.7916 2.41689 29.8406C7.84947 30.9415 17.3298 33.4676 23.1634 35.6266C23.4141 35.7184 23.5394 35.9875 23.4454 36.2322C23.3702 36.4218 23.1885 36.538 22.9943 36.538Z" fill="#198E61"/>
<path d="M26.9204 34.9063C26.7261 34.9063 26.5444 34.7962 26.4755 34.6066C26.3815 34.3681 26.5005 34.0929 26.7449 34.0011C32.3843 31.842 41.5388 29.316 46.7897 28.215C47.0528 28.16 47.3035 28.319 47.3599 28.5759C47.4162 28.8267 47.2533 29.0774 46.9902 29.1325C41.7769 30.2273 32.685 32.735 27.0958 34.8757C27.0394 34.9002 26.9767 34.9063 26.9204 34.9063Z" fill="#198E61"/>
<path d="M27.082 36.5383C26.8877 36.5383 26.706 36.4221 26.6308 36.2325C26.5368 35.9878 26.6621 35.7187 26.9128 35.627C32.7526 33.4679 42.2267 30.9419 47.6593 29.8409C47.9162 29.7859 48.1731 29.951 48.2295 30.2079C48.2859 30.4587 48.1167 30.7094 47.8536 30.7645C42.4586 31.8593 33.0409 34.367 27.2511 36.5077C27.1948 36.5261 27.1384 36.5383 27.082 36.5383Z" fill="#198E61"/>
<path d="M70.1872 1.78088V3.77481H79.3355V6.06845H70.1872V7.2489H77.2678V15.7139H71.8227C74.1035 17.4754 76.1023 18.3807 80.1626 19.7752C79.4232 20.4725 78.8342 21.237 78.4771 22.1912C75.6511 21.237 72.938 19.9893 70.181 17.5305V22.7722H67.4741V17.5733C65.8136 18.8944 63.7208 20.5642 59.6542 22.3074C59.2031 21.4266 58.6579 20.6131 57.8496 19.8731C60.3435 19.1085 62.8373 17.9036 65.5943 15.7201H60.9137V7.25502H67.4741V6.07456H58.6329V3.78093H67.4741V1.787H70.181L70.1872 1.78088ZM63.4827 9.27342V10.4111H67.4741V9.27342H63.4827ZM63.4827 12.3805V13.6099H67.4741V12.3805H63.4827ZM70.1872 9.27342V10.4111H74.5609V9.27342H70.1872ZM70.1872 12.3805V13.6099H74.5609V12.3805H70.1872Z" fill="#111111"/>
<path d="M106.486 7.13709V9.92003H97.9519C99.1425 13.492 101.398 16.4645 104.155 18.6175C104.794 19.0823 105.559 19.6144 107.125 20.4279C106.248 21.1007 105.465 21.9815 104.794 22.954C102.752 21.7001 98.7602 19.1251 96.1411 12.6785C93.9793 18.6175 90.3388 21.1252 86.7046 23.0702C86.1845 22.1405 85.5642 21.2597 84.7559 20.5441C87.1307 19.5227 89.3927 18.0364 91.2223 15.7673C92.958 13.5654 93.5031 11.3146 93.7913 9.92003H85.7584V7.13709H94.1234C94.2425 5.65082 94.2425 3.91377 94.2425 1.87091H97.5008C97.4507 3.86484 97.3817 5.69975 97.2877 7.13709H106.486Z" fill="#111111"/>
<path d="M69.3672 39.8298L71.0903 31.2119H71.4224L74.217 37.2976L77.0304 31.2119H77.3563L78.904 39.8298H77.5505L76.6607 34.7165L74.311 39.8298H73.9539L71.6292 34.6982L70.7206 39.8298H69.3672Z" fill="#111111"/>
<path d="M86.3395 34.4722H87.6177V39.8302H86.3395V39.2736C85.7818 39.9097 85.0863 39.9953 84.6978 39.9953C83.006 39.9953 82.041 38.6191 82.041 37.1451C82.041 35.4019 83.2691 34.3316 84.7103 34.3316C85.1176 34.3316 85.8194 34.4356 86.3395 35.0961V34.4722ZM83.3381 37.1696C83.3381 38.0992 83.9396 38.876 84.8607 38.876C85.669 38.876 86.4146 38.3011 86.4146 37.1818C86.4146 36.0625 85.6753 35.4509 84.8607 35.4509C83.9396 35.4509 83.3381 36.2154 83.3381 37.1696Z" fill="#111111"/>
<path d="M91.0625 34.4722H92.3407V34.9554C92.4849 34.7903 92.6916 34.6129 92.8734 34.5089C93.124 34.3683 93.3684 34.3316 93.6566 34.3316C93.9699 34.3316 94.3083 34.3805 94.6592 34.5885L94.1391 35.72C93.8508 35.5426 93.619 35.5304 93.4874 35.5304C93.218 35.5304 92.9423 35.5671 92.6916 35.824C92.3407 36.1909 92.3407 36.7047 92.3407 37.0595V39.8363H91.0625V34.4784V34.4722Z" fill="#111111"/>
<path d="M98.4872 34.4717V37.536C98.4872 37.8541 98.4998 38.2211 98.7254 38.5024C98.8945 38.7165 99.1953 38.8694 99.5587 38.8694C99.9221 38.8694 100.223 38.7165 100.392 38.5024C100.618 38.2211 100.63 37.8541 100.63 37.536V34.4717H101.908V37.5788C101.908 38.2639 101.827 38.8388 101.319 39.3342C100.824 39.8174 100.148 39.9948 99.5337 39.9948C98.976 39.9948 98.293 39.8297 97.798 39.3342C97.2904 38.8388 97.209 38.2639 97.209 37.5788V34.4717H98.4872Z" fill="#111111"/>
<path d="M105.342 34.4722H106.62V34.9677C107.166 34.3683 107.792 34.3316 108.105 34.3316C109.121 34.3316 109.553 34.827 109.722 35.0594C109.929 35.353 110.06 35.72 110.06 36.5457V39.8302H108.782V36.8515C108.782 35.4876 108.262 35.4509 107.773 35.4509C107.203 35.4509 106.614 35.5304 106.614 37.2613V39.8302H105.336V34.4722H105.342Z" fill="#111111"/>
<path d="M119.086 37.1573C119.086 38.7965 117.808 39.9953 116.154 39.9953C114.499 39.9953 113.215 38.8026 113.215 37.1573C113.215 35.512 114.493 34.3316 116.154 34.3316C117.814 34.3316 119.086 35.4998 119.086 37.1573ZM117.783 37.1696C117.783 35.9463 116.962 35.4509 116.154 35.4509C115.345 35.4509 114.524 35.9463 114.524 37.1696C114.524 38.1971 115.151 38.876 116.154 38.876C117.156 38.876 117.783 38.2032 117.783 37.1696Z" fill="#111111"/>
<path d="M123.517 34.4717V37.536C123.517 37.8541 123.529 38.2211 123.755 38.5024C123.924 38.7165 124.225 38.8694 124.588 38.8694C124.951 38.8694 125.252 38.7165 125.421 38.5024C125.647 38.2211 125.659 37.8541 125.659 37.536V34.4717H126.938V37.5788C126.938 38.2639 126.856 38.8388 126.349 39.3342C125.854 39.8174 125.177 39.9948 124.563 39.9948C124.005 39.9948 123.322 39.8297 122.827 39.3342C122.32 38.8388 122.238 38.2639 122.238 37.5788V34.4717H123.517Z" fill="#111111"/>
<path d="M134.633 36.11C134.044 35.5534 133.473 35.4494 133.079 35.4494C132.477 35.4494 132.101 35.6941 131.863 35.9204C131.631 36.1528 131.393 36.5565 131.393 37.1559C131.393 37.7553 131.644 38.2018 131.888 38.4403C132.176 38.7095 132.577 38.8746 133.047 38.8746C133.567 38.8746 134.182 38.6728 134.626 38.1896V39.578C134.313 39.7676 133.806 40 132.96 40C132.051 40 131.393 39.7492 130.873 39.211C130.485 38.8134 130.09 38.1835 130.09 37.1987C130.09 36.214 130.522 35.5167 130.923 35.1253C131.356 34.7033 132.045 34.3363 133.129 34.3363C133.549 34.3363 134.044 34.3974 134.626 34.7155V36.1161L134.633 36.11Z" fill="#111111"/>
<path d="M137.68 30.549H138.958V34.9283C139.503 34.384 140.105 34.3289 140.431 34.3289C141.433 34.3289 141.891 34.8366 142.047 35.0568C142.386 35.54 142.398 36.1638 142.398 36.543V39.8275H141.12V36.6592C141.12 36.3412 141.12 35.9987 140.869 35.7296C140.725 35.5767 140.481 35.4482 140.155 35.4482C139.723 35.4482 139.384 35.6501 139.215 35.8947C139.034 36.1516 138.952 36.5553 138.952 37.2464V39.8275H137.674V30.549H137.68Z" fill="#111111"/>
<path d="M146.489 31.4556C146.959 31.4556 147.31 31.7981 147.31 32.2568C147.31 32.7156 146.959 33.0581 146.489 33.0581C146.019 33.0581 145.668 32.7156 145.668 32.2568C145.668 31.7981 146.019 31.4556 146.489 31.4556ZM147.128 34.471V39.8289H145.85V34.471H147.128Z" fill="#111111"/>
<path d="M62.026 31.2123C59.4883 31.2123 57.6523 33.035 57.6523 35.5427C57.6523 38.0504 59.388 39.8609 61.8693 39.8609C62.6275 39.8609 63.4609 39.6896 64.0624 39.4082L64.1313 39.3777L63.724 38.607L63.6614 38.6376C63.204 38.8517 62.5147 38.9862 61.8693 38.9862C59.9582 38.9862 58.5672 37.5366 58.5672 35.5427C58.5672 33.5488 60.0522 32.0809 62.0197 32.0809C63.9872 32.0809 65.3845 33.3714 65.3845 35.2124C65.3845 36.4602 64.996 37.2675 64.3005 37.2859C64.0624 37.2859 63.9183 37.0106 63.9183 36.7354V33.4754H62.9408V33.9525C62.5398 33.4448 62.0009 33.3653 61.6876 33.3653C60.5785 33.3653 59.6324 34.1849 59.6324 35.5244C59.6324 36.662 60.3718 37.714 61.6751 37.714C61.9508 37.714 62.4082 37.6406 62.8155 37.2614C62.9095 37.1635 62.9972 37.084 63.0223 37.029C63.1162 37.6651 63.5361 38.0871 64.3005 38.0871C65.2153 38.0871 66.3056 37.4999 66.3056 35.2063C66.3056 32.9127 64.5449 31.2001 62.0197 31.2001L62.026 31.2123ZM61.8129 36.8638C61.1049 36.8638 60.6412 36.2644 60.6412 35.5549C60.6412 34.8454 61.1049 34.2338 61.8129 34.2338C62.4333 34.2338 63.0035 34.6681 63.0035 35.5672C63.0035 36.4663 62.4333 36.87 61.8129 36.87V36.8638Z" fill="#111111"/>
<path d="M129.59 17.1329L133.519 4.75345H136.921L131.144 22.7661H128.4L124.521 10.5395L120.642 22.7661H117.873L112.096 4.75345H115.498L119.427 17.1329L123.224 5.34673H125.806L129.578 17.1329H129.59Z" fill="#111111"/>
<path d="M152.948 20.5569C151.156 22.5141 148.969 23.0524 146.908 23.0524C142.108 23.0524 139.238 20.0125 139.238 16.3122C139.238 12.6118 142.321 9.46796 146.538 9.46796C150.154 9.46796 153.55 11.6821 153.55 16.6975H142.478C142.478 18.7587 144.188 20.3795 147.064 20.3795C148.725 20.3795 149.966 19.7862 151.1 18.7832L152.948 20.5569ZM142.641 14.5629H150.235C149.734 12.5567 147.917 11.9879 146.544 11.9879C145.172 11.9879 143.33 12.5567 142.641 14.5629Z" fill="#111111"/>
<path d="M171.272 20.5569C169.48 22.5141 167.294 23.0524 165.232 23.0524C160.432 23.0524 157.562 20.0125 157.562 16.3122C157.562 12.6118 160.645 9.46796 164.869 9.46796C168.478 9.46796 171.88 11.6821 171.88 16.6975H160.808C160.808 18.7587 162.519 20.3795 165.395 20.3795C167.055 20.3795 168.296 19.7862 169.43 18.7832L171.279 20.5569H171.272ZM160.965 14.5629H168.559C168.058 12.5567 166.241 11.9879 164.869 11.9879C163.496 11.9879 161.654 12.5567 160.965 14.5629Z" fill="#111111"/>
<path d="M184.208 9.74982H187.792V10.1351L183.149 15.7194L185.154 18.7592C185.837 19.7378 186.263 20.2027 187.234 20.2027C187.522 20.2027 188.299 20.1048 188.826 19.7195C188.826 19.7195 188.976 20.3311 189.308 20.9917C189.64 21.6522 189.972 21.9275 189.972 21.9275C188.863 22.9795 187.441 23.059 186.783 23.059C184.753 23.059 183.619 21.9764 182.698 20.692L180.009 16.4717V22.7777H176.764V4.16559H180.009V15.1322L184.201 9.75593L184.208 9.74982Z" fill="#111111"/>
</svg>
