<svg width="261" height="244" viewBox="0 0 261 244" fill="none" xmlns="http://www.w3.org/2000/svg">
<path d="M10.439 242.067C14.8012 241.366 17.7688 237.261 17.0673 232.899C16.3657 228.536 12.2608 225.569 7.89852 226.27C3.53629 226.972 0.568701 231.077 1.27023 235.439C1.97176 239.801 6.07675 242.769 10.439 242.067Z" fill="#FCCA65"/>
<path d="M243 103.432C247.797 103.432 251.686 108.552 251.686 114.864C251.686 108.552 255.576 103.432 260.373 103.432C255.576 103.432 251.686 98.3126 251.686 92C251.686 98.3126 247.797 103.432 243 103.432Z" fill="#FFBBD0"/>
<path d="M93.7117 70.86C93.7117 70.86 122.085 96.3833 133.066 132.729C144.047 169.077 58.3865 127.005 58.3865 127.005C58.3865 127.005 41.1203 94.9835 39.429 82.7231C37.2545 66.9625 42.3676 58.941 55.8586 49.0756C69.3481 39.2103 93.7117 70.86 93.7117 70.86Z" fill="#2E1616"/>
<path d="M60.8142 57.9987C58.8541 59.7489 56.9031 61.5202 55.1439 63.4758C53.4269 65.3845 51.8897 67.485 50.8492 69.8422C50.3086 71.0639 49.9145 72.3505 49.6865 73.6673C49.4192 75.2045 49.3769 76.775 49.4464 78.3304C49.5158 79.8903 49.7001 81.4426 49.9009 82.989C50.1063 84.57 50.3192 86.1511 50.5276 87.7306C50.9504 90.9259 51.3732 94.1212 51.796 97.3166C51.8489 97.7182 51.9018 98.1184 51.9546 98.5201C51.9803 98.7119 51.6783 98.7104 51.6526 98.5201C51.2237 95.2855 50.7964 92.0494 50.3675 88.8148L49.7303 84.0022C49.5234 82.4393 49.3135 80.8764 49.2002 79.3029C48.9843 76.3371 49.161 73.3517 50.2316 70.552C51.1482 68.154 52.5888 65.9991 54.2424 64.0481C55.9578 62.0261 57.9013 60.211 59.8704 58.4396C60.1135 58.2207 60.3567 58.0032 60.6013 57.7858C60.7463 57.6574 60.9607 57.8688 60.8142 57.9987Z" fill="#B37152"/>
<path d="M71.4409 69.6972C68.1534 68.1298 65.4217 65.5928 63.3061 62.6527C60.9519 59.3789 59.3935 55.6112 58.276 51.756C57.6025 49.4335 57.0846 47.0687 56.624 44.6964C56.5877 44.5061 56.8777 44.4246 56.9154 44.6164C57.7218 48.7661 58.7049 52.9188 60.3856 56.8133C61.864 60.2366 63.901 63.447 66.6297 66.0111C68.1021 67.3944 69.7677 68.5677 71.5934 69.4375C71.7685 69.5206 71.616 69.7818 71.4409 69.6987V69.6972Z" fill="#B37152"/>
<path d="M85.0877 108.517C84.5849 105.864 84.0292 103.222 83.4161 100.593C82.803 97.9644 82.1355 95.3474 81.4137 92.7471C80.6919 90.1452 79.9142 87.56 79.0837 84.9913C78.2561 82.4348 77.3773 79.8948 76.444 77.3745C75.5063 74.8421 74.5172 72.3308 73.4737 69.8407C73.3393 69.5191 73.2034 69.1959 73.066 68.8758C72.9905 68.6991 73.2502 68.5451 73.3273 68.7233C74.3843 71.2089 75.39 73.7141 76.3414 76.2419C77.2927 78.7683 78.1927 81.3143 79.0369 83.8784C79.8855 86.4546 80.6813 89.0474 81.4213 91.6568C82.1582 94.2541 82.8392 96.8666 83.4674 99.4926C84.0971 102.131 84.6709 104.782 85.1904 107.443C85.2553 107.774 85.3188 108.106 85.3807 108.437C85.4169 108.627 85.1255 108.709 85.0892 108.517H85.0877Z" fill="#B37152"/>
<path d="M140.18 25.0201C140.18 25.0201 138.135 29.3918 145.71 29.7195C157.236 30.2193 173.445 34.1063 170.223 51.1414C166.72 69.6701 140.77 72.8669 132.122 68.305C125.818 64.9798 112.789 40.3278 112.94 38.5368C113.091 36.7444 140.178 25.0201 140.178 25.0201H140.18Z" fill="#452121"/>
<path d="M145.743 65.3618C148.349 64.6883 150.761 63.3368 152.718 61.4915C154.716 59.6099 156.218 57.224 156.973 54.5798C157.783 51.7469 157.763 48.6845 156.915 45.8637C156.104 43.1637 154.512 40.7657 152.359 38.949C150.299 37.2109 147.764 36.0255 145.097 35.6193C144.763 35.568 144.428 35.5317 144.091 35.5061C143.899 35.491 143.896 35.1889 144.091 35.204C146.848 35.4154 149.512 36.4423 151.737 38.0777C154.014 39.7524 155.799 42.0311 156.822 44.6692C157.911 47.4749 158.145 50.5993 157.538 53.5439C156.963 56.3345 155.593 58.9077 153.65 60.9841C151.779 62.9834 149.402 64.5131 146.8 65.3663C146.478 65.472 146.152 65.5671 145.823 65.6517C145.634 65.7 145.554 65.4086 145.743 65.3603V65.3618Z" fill="#B37152"/>
<path d="M132.479 33.9568C134.677 33.0809 137.004 32.5509 139.358 32.3304C141.747 32.1069 144.162 32.2066 146.528 32.5962C148.883 32.9843 151.188 33.6698 153.366 34.6484C155.418 35.571 157.359 36.7534 159.044 38.2499C160.587 39.6226 161.914 41.2474 162.917 43.0535C163.885 44.7961 164.554 46.7078 164.84 48.683C165.126 50.6703 165.03 52.7013 164.541 54.6478C164.012 56.7589 163.032 58.7432 161.741 60.4918C160.356 62.3658 158.627 63.965 156.696 65.2637C154.752 66.5699 152.606 67.5726 150.374 68.2823C149.828 68.456 149.275 68.6115 148.719 68.7504C148.531 68.7973 148.451 68.5058 148.639 68.459C150.877 67.9018 153.046 67.0622 155.053 65.9236C157.06 64.785 158.902 63.3489 160.438 61.6229C161.902 59.9754 163.085 58.0621 163.823 55.9812C164.491 54.0982 164.787 52.0958 164.679 50.0995C164.574 48.1379 164.081 46.2005 163.266 44.414C162.431 42.5838 161.27 40.9092 159.871 39.464C158.366 37.9071 156.602 36.6432 154.69 35.6314C152.612 34.5321 150.382 33.7272 148.09 33.2078C145.785 32.6853 143.415 32.4542 141.053 32.5267C138.717 32.5977 136.387 32.9692 134.156 33.6744C133.616 33.845 133.083 34.0368 132.557 34.2452C132.376 34.3177 132.297 34.0247 132.477 33.9537L132.479 33.9568Z" fill="#B37152"/>
<path d="M23.0202 49.1768C24.9863 44.4231 29.207 40.2507 32.9474 37.0388C41.4386 29.7451 49.972 22.5058 58.8815 15.715C64.9445 11.0942 72.7198 4.29581 79.9425 1.57767C94.1795 -3.77857 104.243 5.45253 114.354 15.0355C117.036 17.5784 119.614 20.2286 122.083 22.9755C129.552 25.452 136.894 28.3846 143.946 31.8472C149.148 34.4007 152.798 37.5855 152.908 43.9414C153.023 50.6053 150.04 56.5777 145.723 61.2015C141.901 65.2954 138.953 70.2182 135.664 74.7364C134.159 76.8036 132.638 78.8981 130.766 80.6558C129.917 81.4532 128.86 82.483 127.753 82.8983C127.457 83.0086 127.14 83.0493 126.847 83.0146C126.861 83.0433 126.874 83.072 126.889 83.1007C127.321 83.9674 126.02 84.7346 125.586 83.8633C122.43 77.5194 122.67 70.567 124.46 63.9544C123.969 65.7665 114.988 71.017 104.386 64.9964C104.386 64.9964 93.5362 71.1877 82.4553 67.2705C70.9425 63.1994 63.3483 60.6926 62.6446 48.014C58.0932 52.0037 51.4459 58.0711 51.0699 58.3611C45.7695 62.4564 39.3834 66.8085 32.3298 65.9568C24.0606 64.9586 19.9366 56.6426 23.0232 49.1783L23.0202 49.1768Z" fill="#FFA982"/>
<path d="M52.767 20.4854C53.2925 36.2083 62.6414 48.0126 62.6414 48.0126C63.3451 60.6912 72.3074 65.6397 83.6526 70.1564C89.637 72.5393 104.383 64.9949 104.383 64.9949C114.517 71.3327 123.286 66.1456 124.364 64.1719L124.456 63.953C129.376 66.9278 134.725 68.6206 139.258 69.5856C139.507 69.6384 142.239 66.4673 142.505 66.1245C145.75 61.9234 149.462 57.736 151.532 52.7693C153.222 48.7163 153.767 44.1574 152.606 39.9171C151.558 36.0875 147.352 33.4509 143.982 31.7959C136.928 28.3348 129.551 25.4551 122.081 22.977C119.612 20.2302 117.034 17.58 114.352 15.0371C104.243 5.45412 94.1794 -3.77698 79.9408 1.57926C72.7197 4.2974 64.9443 11.0958 58.8813 15.7166C58.3679 16.1077 57.8545 16.5018 57.3425 16.896C56.8306 17.2916 56.3202 17.6872 55.8113 18.0844C55.3704 18.4287 54.9309 18.773 54.4915 19.1203C54.3949 19.1958 54.2967 19.2713 54.2001 19.3498C53.7924 19.6715 53.3861 19.9946 52.9799 20.3178C52.909 20.3722 52.838 20.428 52.767 20.4869V20.4854Z" fill="#6687D4"/>
<path d="M123.1 36.3064C121.008 36.6643 118.819 36.2944 116.954 35.2781C115.121 34.2799 113.684 32.6536 112.867 30.7358C112.414 29.6742 112.157 28.5371 112.115 27.3834C112.107 27.1886 112.409 27.1886 112.417 27.3834C112.489 29.3782 113.241 31.3353 114.513 32.874C115.804 34.437 117.604 35.5046 119.582 35.9319C120.71 36.1766 121.883 36.2068 123.02 36.0135C123.211 35.9818 123.292 36.2717 123.1 36.3049V36.3064Z" fill="#2E1616"/>
<path d="M58.2428 25.1439C57.4984 22.5798 57.1496 19.9085 57.2145 17.2402C57.219 17.0469 57.521 17.0454 57.5165 17.2402C57.4531 19.8843 57.7959 22.524 58.5343 25.0639C58.5887 25.2512 58.2972 25.3312 58.2428 25.1439Z" fill="#2E1616"/>
<path d="M62.6403 48.0125L83.3147 27.936L88.082 16.7509C88.082 16.7509 85.9151 13.7262 82.3015 13.4393C79.7676 13.2385 77.96 13.5254 73.0402 15.4522C62.5436 19.5657 54.2986 25.0624 47.0668 29.0731C47.0668 29.0731 51.8387 48.3583 62.6403 48.0125Z" fill="#FFA982"/>
<path d="M124.482 35.633C130.305 36.5979 131.641 31.5709 131.546 26.3958C128.422 25.1697 125.263 24.0311 122.079 22.9755C120.518 21.2389 118.914 19.5401 117.267 17.8835C115.052 22.9242 112.13 33.5838 124.482 35.633Z" fill="#FFA982"/>
<path d="M121.079 17.3927L117.472 20.964C117.472 20.964 116.952 25.902 119.175 26.8186C121.398 27.7352 123.42 22.1057 123.42 22.1057L121.079 17.3927Z" fill="#FFA982"/>
<path d="M126.316 9.86504C128.12 8.35647 133.182 7.21032 137.018 10.9976C140.48 14.4164 143.102 20.0958 139.615 25.6861C136.61 30.5033 135.021 32.0843 131.636 35.411C129.209 37.7939 125.414 39.9563 122.322 37.202C118.809 34.0746 119.478 28.972 119.845 25.9458C120.212 22.9196 119.419 15.635 126.317 9.86504H126.316Z" fill="#FFA982"/>
<path d="M134.717 31.2582C134.879 31.4892 134.986 31.6523 135.138 31.829C135.81 31.4666 136.275 30.9577 136.505 30.2027C136.289 29.8221 135.982 29.434 135.578 29.0701C134.306 27.927 133.435 28.084 133.071 28.8874C132.656 29.8055 133.965 30.183 134.717 31.2582Z" fill="#452121"/>
<path d="M131.056 31.1979C130.179 32.1522 129.656 33.611 130.198 34.8613C130.709 36.0377 132.015 36.4771 133.205 36.1902C134.552 35.864 135.688 34.7556 136.088 33.4343C136.447 32.2489 136.153 30.8536 134.999 30.2284C133.661 29.5021 132.023 30.174 131.055 31.1994C130.92 31.3413 130.707 31.1269 130.842 30.9865C131.805 29.9656 133.336 29.3073 134.729 29.7844C136.064 30.242 136.696 31.6101 136.503 32.9541C136.286 34.4702 135.153 35.8051 133.732 36.3442C132.47 36.8244 130.947 36.5813 130.155 35.411C129.209 34.0142 129.783 32.1386 130.842 30.9865C130.973 30.843 131.186 31.0574 131.055 31.1994L131.056 31.1979Z" fill="#F5E3D9"/>
<path d="M128 27.8108C128.874 28.5054 127.772 29.6818 127.214 30.0669C126.852 30.3175 126.332 30.5395 125.943 30.2194C125.372 29.7528 125.952 28.9343 126.304 28.5296C126.696 28.0781 127.427 27.3563 128 27.8123V27.8108Z" fill="#2E1616"/>
<path d="M132.995 31.8638C133.869 32.5584 132.767 33.7348 132.209 34.1198C131.847 34.3705 131.328 34.5925 130.938 34.2723C130.367 33.8057 130.947 32.9873 131.299 32.5826C131.692 32.1311 132.422 31.4092 132.995 31.8653V31.8638Z" fill="#2E1616"/>
<path d="M131.285 30.0366C131.054 30.5108 130.822 30.9849 130.591 31.4576C130.376 31.8955 130.188 32.3651 129.922 32.7744C129.72 33.0855 129.437 33.3512 129.055 33.395C128.735 33.4313 128.391 33.3089 128.244 33.0069C128.16 32.8333 128.421 32.6792 128.505 32.8544C128.628 33.1066 128.943 33.1504 129.186 33.0583C129.519 32.9329 129.709 32.569 129.858 32.27C130.256 31.4787 130.638 30.6784 131.026 29.8826C131.112 29.7074 131.372 29.8614 131.287 30.0351L131.285 30.0366Z" fill="#2E1616"/>
<path d="M126.76 34.4793C126.249 33.6593 125.978 32.7064 125.976 31.74C125.976 31.5452 126.278 31.5452 126.278 31.74C126.278 32.6551 126.536 33.5506 127.019 34.3267C127.122 34.4928 126.861 34.6439 126.758 34.4793H126.76Z" fill="#2E1616"/>
<path d="M119.871 34.1455C119.429 32.7306 119.161 31.2673 119.086 29.7874C119.075 29.5926 119.377 29.5942 119.388 29.7874C119.462 31.2416 119.729 32.6762 120.162 34.0655C120.22 34.2512 119.928 34.3313 119.871 34.1455Z" fill="#2E1616"/>
<path d="M53.21 25.7012C50.3861 27.4121 47.5774 29.1502 44.7777 30.8988C41.9222 32.6838 39.0757 34.4807 36.2322 36.2838C34.6798 37.2683 33.1275 38.2544 31.5751 39.242C31.4105 39.3462 31.2595 39.085 31.4226 38.9808C34.2087 37.2094 36.9963 35.4381 39.7899 33.6759C42.6379 31.8789 45.4905 30.0909 48.3551 28.3196C49.9195 27.3532 51.487 26.3913 53.059 25.4384C53.2251 25.3372 53.3776 25.5985 53.2115 25.6996L53.21 25.7012Z" fill="#2E1616"/>
<path d="M131.837 17.0968C131.837 17.0968 130.4 24.6532 137.644 28.8723C137.644 28.8723 140.349 25.5864 141.057 22.6342C141.765 19.6805 140.826 14.1778 137.806 10.8224C134.786 7.46699 130.222 7.21028 127.604 8.44552C124.987 9.68076 122.302 12.5665 120.959 16.5939L118.897 19.5521C118.897 19.5521 118.297 24.478 121.53 22.4832C122.433 21.926 126.127 22.3654 126.127 22.3654C126.127 22.3654 128.939 22.6342 131.837 17.0968Z" fill="#452121"/>
<path d="M130.534 7.93666C130.685 10.3286 130.288 12.7266 129.374 14.9419C128.541 16.9654 127.333 18.9194 125.722 20.4159C124.856 21.2193 123.86 21.8777 122.742 22.2658C122.558 22.3292 122.479 22.0378 122.662 21.9743C124.648 21.2842 126.205 19.7137 127.374 18.0134C128.639 16.1711 129.554 14.0766 129.986 11.881C130.241 10.5823 130.317 9.25495 130.234 7.93515C130.222 7.74035 130.524 7.74186 130.536 7.93515L130.534 7.93666Z" fill="#B37152"/>
<path d="M121.749 20.7707C121.749 20.7707 121.749 31.0483 112.94 28.9916C106.149 27.4075 106.469 7.93658 106.469 7.93658C106.469 7.93658 109.161 9.99633 111.934 12.3807C114.9 14.9313 117.142 17.3776 119.019 17.3912C120.297 17.4002 121.66 14.8407 121.66 14.8407L121.751 20.7707H121.749Z" fill="#452121"/>
<path d="M126.273 9.65356C125.666 11.8492 124.893 14.0071 123.904 16.0608C122.971 17.9998 121.838 19.8813 120.369 21.4639C119.727 22.1555 119.019 22.8184 118.193 23.285C117.33 23.7713 116.317 24.1624 115.316 24.1745C114.298 24.188 113.389 23.6157 112.773 22.835C112.038 21.9018 111.733 20.73 111.512 19.5838C111.062 17.2462 110.84 14.8573 110.719 12.4819C110.706 12.2056 110.694 11.9292 110.683 11.6529C110.676 11.4581 110.978 11.4581 110.985 11.6529C111.071 13.9482 111.263 16.2496 111.63 18.5177C111.814 19.6608 112.004 20.8568 112.534 21.8988C112.994 22.8033 113.776 23.6172 114.801 23.8302C115.737 24.025 116.79 23.6474 117.622 23.2458C118.468 22.8365 119.177 22.2521 119.836 21.5877C121.296 20.1169 122.422 18.335 123.357 16.4942C124.355 14.5281 125.139 12.4532 125.766 10.3406C125.841 10.0869 125.914 9.83175 125.985 9.57503C126.036 9.38779 126.328 9.46782 126.276 9.65507L126.273 9.65356Z" fill="#B37152"/>
<path d="M121.323 26.6132C119.894 25.1849 119.894 22.8692 121.323 21.4409C122.751 20.0126 125.067 20.0126 126.495 21.4409C127.923 22.8692 127.923 25.1849 126.495 26.6132C125.067 28.0415 122.751 28.0415 121.323 26.6132Z" fill="#FFA982"/>
<path d="M131.326 27.4136C130.323 28.0871 130.02 26.7492 128.721 26.1693C127.528 25.6347 126.925 25.0005 127.321 24.4629C127.8 23.8136 129.32 23.8226 130.743 24.9688C132.075 26.0409 132.057 26.9243 131.324 27.4151L131.326 27.4136Z" fill="#452121"/>
<path d="M124.717 22.4379C124.17 22.2416 123.554 22.2778 123.046 22.5693C122.59 22.832 122.258 23.2745 122.121 23.7804C122.069 23.9676 121.778 23.8876 121.829 23.7003C121.986 23.1205 122.371 22.6101 122.894 22.308C123.466 21.9788 124.178 21.9245 124.797 22.1465C124.978 22.2114 124.899 22.5044 124.717 22.4379Z" fill="#2E1616"/>
<path d="M128.525 51.1414C128.524 53.1543 128.353 55.1763 127.885 57.1364C127.447 58.9697 126.74 60.744 125.715 62.3296C125.129 63.2356 124.445 64.0752 123.683 64.8378C123.545 64.9752 123.331 64.7623 123.47 64.6249C124.797 63.2975 125.86 61.7361 126.614 60.0176C127.37 58.2916 127.813 56.4342 128.033 54.5663C128.168 53.4307 128.223 52.2861 128.223 51.1429C128.223 50.9481 128.525 50.9481 128.525 51.1429V51.1414Z" fill="#2E1616"/>
<path d="M142.255 66.3373C140.174 65.8919 138.137 65.2501 136.145 64.5056C134.062 63.7279 132.019 62.8309 130.049 61.8011C129.019 61.2635 128.007 60.6881 127.03 60.06C126.867 59.9558 127.018 59.693 127.182 59.7987C128.954 60.9373 130.832 61.9098 132.75 62.7781C134.78 63.6977 136.867 64.5011 138.996 65.161C140.095 65.5023 141.208 65.8028 142.335 66.0444C142.525 66.0852 142.445 66.3766 142.255 66.3358V66.3373Z" fill="#2E1616"/>
<path d="M124.669 25.4883C123.729 26.5106 123.356 28.063 123.997 29.3405C124.605 30.5546 125.97 31.1526 127.286 30.9034C128.684 30.6376 129.844 29.5232 130.183 28.1445C130.51 26.8232 130.004 25.3811 128.794 24.6955C127.423 23.9178 125.709 24.3874 124.667 25.4883C124.533 25.6302 124.32 25.4158 124.454 25.2754C125.472 24.1987 127.086 23.6807 128.504 24.2274C129.907 24.7695 130.723 26.2131 130.567 27.693C130.404 29.2408 129.294 30.5969 127.816 31.0786C126.426 31.5316 124.854 31.1133 123.988 29.9083C122.961 28.4828 123.314 26.5166 124.454 25.2738C124.586 25.1304 124.799 25.3448 124.667 25.4868L124.669 25.4883Z" fill="#F5E3D9"/>
<path d="M130.757 31.1058C130.419 30.6225 130.009 30.1922 129.549 29.8237C129.485 29.7724 129.496 29.6636 129.549 29.6108C129.612 29.5474 129.698 29.5594 129.762 29.6108C130.242 29.9959 130.663 30.4489 131.017 30.9532C131.063 31.0197 131.029 31.1209 130.962 31.1601C130.887 31.2039 130.802 31.1722 130.755 31.1058H130.757Z" fill="#F5E3D9"/>
<path d="M139.564 25.6076C137.856 23.9117 136.397 21.9426 135.36 19.7666C134.31 17.5649 133.723 15.1503 133.684 12.7085C133.661 11.3222 133.82 9.92993 134.203 8.59654C134.258 8.4108 134.549 8.48932 134.495 8.67657C133.821 11.0096 133.845 13.5209 134.35 15.8857C134.846 18.2142 135.858 20.3933 137.211 22.3458C137.969 23.4391 138.833 24.4569 139.777 25.3931C139.914 25.5305 139.701 25.7435 139.564 25.606V25.6076Z" fill="#B37152"/>
<path d="M140.724 22.5814C138.999 19.9659 137.929 16.9382 137.738 13.8048C137.685 12.9335 137.702 12.0591 137.784 11.1908C137.802 10.9991 138.104 10.9976 138.086 11.1908C137.799 14.2382 138.359 17.3218 139.665 20.0897C140.047 20.9006 140.491 21.6814 140.983 22.4288C141.091 22.5919 140.829 22.7429 140.722 22.5814H140.724Z" fill="#B37152"/>
<path d="M103.972 6.00225C103.972 6.00225 103.83 19.2275 111.108 28.0161C111.108 28.0161 102.572 21.0396 101.844 4.53143L103.972 6.00074V6.00225Z" fill="#452121"/>
<path d="M84.6393 57.8446L71.0984 38.2891C70.8613 37.9464 70.9459 37.4752 71.2887 37.2381L97.7346 18.9254C98.0774 18.6884 98.5486 18.7729 98.7857 19.1157L112.327 38.6712C112.564 39.014 112.479 39.4836 112.136 39.7222L85.6903 58.0349C85.3475 58.272 84.8763 58.1874 84.6393 57.8446Z" fill="#E6B99E"/>
<path d="M111.866 38.259C110.181 39.4157 108.497 40.5739 106.812 41.7306C104.973 42.9946 103.132 44.2585 101.293 45.5224C99.3977 46.8241 97.501 48.1273 95.6059 49.429C93.753 50.702 91.9016 51.9735 90.0488 53.2465C88.3394 54.4213 86.63 55.5946 84.9206 56.7695C84.7212 56.9069 84.5219 57.0443 84.3211 57.1802C84.161 57.2905 84.01 57.0292 84.1685 56.919C85.8538 55.7623 87.5375 54.604 89.2228 53.4473C91.062 52.1834 92.9028 50.9194 94.7421 49.6555C96.6372 48.3538 98.5339 47.0506 100.429 45.7489C102.282 44.4759 104.133 43.2045 105.986 41.9315C107.696 40.7566 109.405 39.5833 111.114 38.4085L111.714 37.9977C111.874 37.8875 112.025 38.1487 111.866 38.259Z" fill="#F5E3D9"/>
<path d="M82.8619 55.279L69.8043 36.4212C69.5672 36.0784 69.6518 35.6072 69.9946 35.3702L96.4405 17.0575C96.7833 16.8204 97.2545 16.9049 97.4915 17.2477L110.549 36.1056C110.786 36.4484 110.702 36.918 110.359 37.1566L83.9129 55.4693C83.5701 55.7064 83.099 55.6218 82.8619 55.279Z" fill="#F5E3D9"/>
<path d="M95.7601 22.3852L105.129 35.9163C105.425 36.3435 105.319 36.9295 104.892 37.2253L102.903 38.6025C102.476 38.8983 101.889 38.7918 101.594 38.3646L92.2243 24.8335C91.9285 24.4063 92.035 23.8203 92.4622 23.5245L94.4511 22.1473C94.8782 21.8515 95.4643 21.958 95.7601 22.3852Z" fill="#31876F"/>
<path d="M75.1359 44.1225L72.0176 39.618C73.3585 38.6229 74.7267 37.7802 76.353 37.4978C77.2893 37.3348 78.1651 37.3483 78.9503 36.7398C79.4804 36.326 79.9304 35.9002 80.4921 35.5861C80.0648 35.0228 79.657 34.4414 79.2735 33.845C79.0183 33.4478 79.2629 33.0854 79.6118 32.957C79.9621 32.8393 80.3351 32.945 80.6144 33.1669C81.744 34.0715 82.8025 34.3086 84.2401 34.3418C83.7282 33.7317 83.1755 33.1564 82.8373 32.4164C82.5851 31.8638 83.1121 31.3866 83.5621 31.4485C84.1631 31.6463 84.2175 31.7475 84.5603 31.894C85.2881 32.199 85.726 32.3228 86.4297 32.5342C86.9824 32.7003 87.5366 32.8528 88.0954 32.9903C87.7178 32.4285 87.3267 31.8773 86.9175 31.3352C86.466 30.7372 87.1712 29.955 87.6937 30.2616C87.9791 30.4111 88.1558 30.5877 88.4351 30.7976C89.1569 31.3458 89.696 31.5829 90.6127 31.6372C91.5232 31.6916 92.3976 31.524 93.287 31.8184C93.6524 31.9408 93.8971 32.1492 94.113 32.4919C94.1357 32.5267 95.5068 34.3644 95.7122 34.6483C95.9598 34.9926 96.0429 35.3143 96.0263 35.6993C95.9855 36.6341 95.5174 37.3937 95.2441 38.265C94.9707 39.1408 94.9994 39.7267 95.2546 40.5965C95.3543 40.9318 95.454 41.1628 95.4947 41.4799C95.5959 42.0779 94.6113 42.4615 94.2127 41.8257C93.8533 41.2504 93.4758 40.6886 93.0846 40.1344C93.0152 40.7068 92.9623 41.2791 92.9216 41.8559C92.8672 42.5883 92.8279 43.0413 92.8566 43.8296C92.8687 44.2026 92.9457 44.2887 92.917 44.9214C92.8128 45.3623 92.1816 45.6885 91.7543 45.2551C91.182 44.6752 90.8392 43.9549 90.4541 43.2588C89.9739 44.6148 89.8184 45.69 90.2623 47.0672C90.371 47.4055 90.3363 47.7935 90.1007 48.079C89.8591 48.3583 89.4348 48.458 89.1539 48.079C88.7311 47.5066 88.3324 46.9207 87.9579 46.3197C87.4657 46.7335 86.9054 47.0038 86.3301 47.3541C85.4829 47.8691 85.1854 48.6936 84.7007 49.512C83.8551 50.9375 82.6017 51.9251 81.1792 52.8493L77.771 47.9264C79.2961 46.8044 76.5403 43.1757 75.1359 44.1225Z" fill="#31876F"/>
<path d="M74.8237 20.65C74.9626 19.7937 75.4685 19.0161 76.0197 18.3033C76.8215 17.2659 77.7623 16.3659 78.8224 15.5927C79.8356 14.8543 81.0784 14.0388 82.365 13.9754C83.6274 13.912 84.7706 14.593 85.7733 15.2967C85.9197 15.2726 85.9786 14.7863 86.1327 14.889C88.6545 16.5592 89.9456 19.1686 91.2503 21.4201C92.8072 24.108 94.3082 26.8367 95.4257 29.7406C95.9391 31.0755 96.6443 32.6747 96.5854 34.1304C96.5386 35.2856 95.6854 36.3925 94.4502 36.3019C94.0621 36.2732 93.7283 36.1298 93.4354 35.9168C93.6876 37.208 93.8869 38.8554 92.7075 39.5773C91.2382 40.4758 89.5741 38.5987 88.6107 37.4632C88.6107 37.4949 88.6137 37.5266 88.6152 37.5598C88.6515 38.7105 88.5397 39.9684 87.5687 40.7325C85.2055 42.5929 83.5051 38.6757 82.5991 37.1581C79.6152 32.1522 76.8714 27.0059 74.3676 21.7448C74.1366 21.2585 74.4386 20.8055 74.8222 20.65H74.8237Z" fill="#FFA982"/>
<path d="M88.5244 38.1669C87.1366 35.2282 85.7474 32.2896 84.3596 29.351C83.9685 28.5235 83.5774 27.6945 83.1863 26.8669C83.1032 26.6918 83.3645 26.5393 83.4475 26.7144C84.8353 29.653 86.2246 32.5916 87.6123 35.5303C88.0034 36.3578 88.3945 37.1868 88.7857 38.0143C88.8687 38.1895 88.6075 38.342 88.5244 38.1669Z" fill="#2E1616"/>
<path d="M93.5814 36.2415C92.1816 33.4554 90.7817 30.6693 89.3819 27.8832C88.9832 27.0889 88.583 26.2946 88.1844 25.5003C88.0968 25.3267 88.358 25.1741 88.4456 25.3478C89.8455 28.1339 91.2453 30.92 92.6452 33.7061C93.0438 34.5004 93.444 35.2947 93.8426 36.089C93.9302 36.2626 93.669 36.4151 93.5814 36.2415Z" fill="#2E1616"/>
<path d="M129.856 109.957C129.856 109.957 129.602 102.333 131.263 99.2117C132.924 96.0904 135.088 92.4662 135.088 92.4662L148.427 96.6944C148.427 96.6944 148.452 100.571 147.193 104.295C145.935 108.02 143.824 110.572 143.824 110.572C143.824 110.572 133.682 113.705 129.854 109.956L129.856 109.957Z" fill="#FF9A78"/>
<path d="M158.52 102.073L163.227 81.6646C163.32 81.2584 163.067 80.8522 162.66 80.7586L125.514 72.1904C125.108 72.0968 124.702 72.3505 124.608 72.7567L119.901 93.1654C119.807 93.5716 120.061 93.9778 120.467 94.0714L157.614 102.64C158.02 102.733 158.426 102.48 158.52 102.073Z" fill="#FFD9C2"/>
<path d="M158.363 101.666C156.178 101.155 153.994 100.643 151.809 100.133C149.198 99.5213 146.586 98.9112 143.975 98.2996C141.196 97.6503 138.418 96.9994 135.638 96.3501C132.983 95.7295 130.328 95.1088 127.675 94.4867C125.43 93.9612 123.183 93.4357 120.937 92.9102C120.703 92.8558 120.469 92.7999 120.235 92.7456C120.046 92.7018 120.126 92.4103 120.315 92.4541C122.5 92.9645 124.684 93.4764 126.869 93.9868C129.48 94.5984 132.092 95.2085 134.703 95.8201C137.482 96.4694 140.262 97.1203 143.04 97.7696C145.695 98.3902 148.35 99.0109 151.003 99.633C153.248 100.159 155.495 100.684 157.741 101.21C157.975 101.264 158.209 101.32 158.443 101.374C158.632 101.418 158.552 101.709 158.363 101.666Z" fill="#DBB29A"/>
<path d="M159.142 99.3733L163.849 78.9646C163.942 78.5584 163.689 78.1522 163.282 78.0586L126.136 69.4904C125.73 69.3968 125.324 69.6505 125.23 70.0567L120.523 90.4653C120.43 90.8716 120.683 91.2778 121.089 91.3714L158.236 99.9396C158.642 100.033 159.048 99.7795 159.142 99.3733Z" fill="#31876F"/>
<path d="M151.294 94.2058C152.497 89.5699 153.512 84.8886 154.332 80.1696C154.498 79.2123 155.967 79.5641 155.801 80.52C154.981 85.239 153.967 89.9202 152.763 94.5561C152.52 95.4939 151.049 95.1496 151.294 94.2058Z" fill="#452121"/>
<path d="M155.299 91.8108C155.836 89.3116 156.372 86.814 156.91 84.3148C157.114 83.3649 158.583 83.7138 158.379 84.6651C157.841 87.1643 157.305 89.662 156.768 92.1611C156.564 93.111 155.095 92.7621 155.299 91.8108Z" fill="#452121"/>
<path d="M130.481 85.1287C130.949 85.0185 132.217 84.7059 132.148 84.0113C132.08 83.3332 130.746 83.4087 130.262 83.2442C129.492 82.9829 128.788 82.5873 128.273 81.9455C126.995 80.3508 127.613 78.3455 128.584 76.7991C128.918 76.2676 129.427 76.0003 129.801 76.2887C130.244 76.6285 130.425 77.5195 130.706 77.9906C131.121 78.6867 133.828 81.5876 133.658 79.3089C133.548 77.8335 132.776 76.331 131.506 75.5307C131.314 75.4099 131.103 75.2951 130.99 75.0988C130.325 73.9466 133.967 73.3275 134.484 73.2716C136.911 73.0134 139.398 73.4921 141.657 74.3755C141.66 74.3755 141.661 74.377 141.663 74.3785C145.747 75.659 149.009 78.732 151.492 82.246C151.906 82.8304 151.874 83.1128 151.235 83.1958C149.823 83.3816 148.494 82.6839 147.212 82.2082C145.87 81.7084 144.49 81.0636 143.066 80.8386C142.161 80.6951 141.287 80.8386 140.421 81.0606C141.039 81.1829 141.684 81.349 142.368 81.5785C145.512 82.6401 148.141 85.7403 148.141 85.7418C148.526 86.0831 148.176 87.1024 147.531 87.1734C142.397 87.7442 141.069 86.8412 139.435 86.4032C138.2 86.0725 139.147 87.4769 139.597 87.8242C140.906 88.8314 142.546 89.1833 144.145 89.4038C145.719 89.6197 147.51 89.6212 148.802 90.6737C149.302 91.0799 149.18 91.3367 148.522 91.6175C144.709 93.2439 140.375 94.1046 136.27 93.191C134.206 92.732 132.288 91.7489 130.586 90.5091C129.143 89.4581 127.412 88.1413 126.988 86.3066C126.831 85.624 126.873 84.94 127.747 84.94C128.055 84.94 128.356 85.0351 128.655 85.1076C129.262 85.2556 129.89 85.2677 130.475 85.1317L130.481 85.1287Z" fill="#452121"/>
<path d="M130.383 70.3587C130.383 70.3587 130.973 66.9972 133.048 63.7083C135.123 60.4193 138.48 59.2974 143.176 59.9316C148.042 60.5885 149.686 66.209 150.76 71.1077C151.818 75.9384 152.605 81.728 150.055 82.1312C148.061 82.4453 146.329 79.5475 145.86 75.6545C145.86 75.6545 146.287 81.6495 146.086 83.6413C145.86 85.8898 142.623 86.373 141.497 83.8769C140.861 82.468 140.771 81.4275 140.771 81.4275C140.771 81.4275 140.133 83.676 138.019 83.4752C135.905 83.2744 134.7 76.8973 133.814 71.227L130.383 70.3602V70.3587Z" fill="#FFA982"/>
<path d="M145.936 77.222C145.601 74.143 145.124 71.079 144.503 68.0438C144.328 67.1891 144.142 66.3359 143.946 65.4842C143.902 65.2954 144.194 65.2139 144.237 65.4042C144.941 68.447 145.504 71.523 145.921 74.6187C146.037 75.4854 146.143 76.3537 146.238 77.222C146.259 77.4153 145.957 77.4138 145.936 77.222Z" fill="#2E1616"/>
<path d="M140.619 81.426C140.391 77.4319 139.763 73.474 138.975 69.5553C138.751 68.4454 138.516 67.337 138.272 66.2316C138.23 66.0429 138.522 65.9613 138.564 66.1516C139.426 70.0823 140.199 74.0402 140.637 78.045C140.76 79.17 140.856 80.2965 140.92 81.4275C140.93 81.6223 140.628 81.6208 140.618 81.4275L140.619 81.426Z" fill="#2E1616"/>
<path d="M131.142 67.334C130.801 68.3276 130.461 69.3213 130.12 70.3164C130.058 70.4991 129.765 70.4206 129.829 70.2364C130.17 69.2427 130.51 68.2491 130.851 67.254C130.913 67.0713 131.206 67.1498 131.142 67.334Z" fill="#2E1616"/>
<path d="M130.079 118.994L129.854 109.956C134.467 110.589 139.678 107.387 144.349 107.315C146.818 115.164 153.443 142.743 154.074 147.151C154.698 151.501 155.08 155.971 154.704 160.362C154.353 164.441 153.248 168.517 150.753 171.825C148.518 174.793 145.358 176.878 141.643 177.384C133.632 178.476 126.817 173.094 122.729 166.709C120.138 162.664 118.333 158.139 116.755 153.621C115.322 149.52 129.87 118.643 130.08 118.995L130.079 118.994Z" fill="#FF9A78"/>
<path d="M130.407 139.18C130.612 142.136 130.784 145.094 130.953 148.052C131.122 151 131.287 153.948 131.48 156.892C131.589 158.556 131.708 160.22 131.841 161.884C131.856 162.078 131.554 162.078 131.539 161.884C131.305 158.943 131.115 155.998 130.94 153.054C130.765 150.103 130.604 147.152 130.426 144.201C130.327 142.527 130.219 140.854 130.103 139.18C130.09 138.987 130.392 138.987 130.405 139.18H130.407Z" fill="#2E1616"/>
<path d="M129.985 115.217L130.973 141.242L116.162 151.897C116.162 151.897 113.09 167.668 94.3654 174.916C75.6404 182.165 46.3449 177.526 46.3449 177.526L66.3837 142.229C66.3837 142.229 55.9596 137.337 41.8147 130.639C41.8147 130.639 50.6366 111.791 61.7583 106.616C75.8292 100.068 99.0813 102.132 114.647 105.925C123.237 108.018 128.042 111.661 129.985 115.217Z" fill="#F5E3D9"/>
<path d="M96.9782 103.112C94.9683 105.79 93.0837 108.561 91.1297 111.28C90.6148 111.997 90.0938 112.712 89.5638 113.417C89.449 113.571 89.1862 113.42 89.3025 113.264C91.3154 110.586 93.2 107.815 95.1556 105.093C95.6705 104.378 96.1885 103.665 96.7185 102.96C96.8333 102.806 97.096 102.957 96.9797 103.112H96.9782Z" fill="#2E1616"/>
<path d="M110.673 116.022C107.94 115.148 105.229 114.201 102.516 113.263C101.827 113.024 101.14 112.787 100.451 112.549C100.269 112.485 100.347 112.194 100.531 112.257C103.24 113.192 105.945 114.136 108.663 115.045C109.358 115.277 110.054 115.507 110.752 115.73C110.936 115.789 110.857 116.081 110.671 116.022H110.673Z" fill="#2E1616"/>
<path d="M100.492 112.389C97.5129 112.686 94.5336 112.982 91.5527 113.28C90.846 113.351 90.1392 113.42 89.434 113.491C89.2407 113.511 89.2422 113.209 89.434 113.189C92.4134 112.891 95.3928 112.596 98.3737 112.298C99.0804 112.227 99.7871 112.158 100.492 112.087C100.686 112.067 100.684 112.369 100.492 112.389Z" fill="#2E1616"/>
<path d="M101.23 110.854C100.351 113.227 99.4447 115.588 98.5085 117.938C97.5768 120.279 96.6179 122.607 95.6318 124.924C94.6412 127.251 93.6219 129.567 92.5754 131.87C91.5289 134.173 90.4552 136.464 89.3529 138.741C88.252 141.018 87.1225 143.282 85.9673 145.532C85.8238 145.81 85.6804 146.089 85.5369 146.367C85.4478 146.539 85.1866 146.387 85.2757 146.214C86.4324 143.978 87.5634 141.729 88.6658 139.466C89.7697 137.202 90.8448 134.927 91.8943 132.639C92.9484 130.339 93.9737 128.027 94.9719 125.703C95.97 123.379 96.9395 121.044 97.8803 118.698C98.818 116.362 99.7271 114.013 100.609 111.655C100.719 111.362 100.828 111.067 100.937 110.774C101.003 110.593 101.296 110.672 101.228 110.854H101.23Z" fill="#2E1616"/>
<path d="M96.652 103.12L100.303 112.901L108.48 104.588C104.174 103.586 103.097 103.238 96.652 103.121V103.12Z" fill="#FF9A78"/>
<path d="M118.71 130.68C118.069 133.542 117.323 136.379 116.472 139.183C115.62 141.989 114.663 144.762 113.604 147.496C113.014 149.02 112.392 150.53 111.738 152.028C111.661 152.206 111.399 152.052 111.476 151.876C112.642 149.2 113.708 146.48 114.672 143.726C115.631 140.98 116.488 138.2 117.242 135.392C117.668 133.803 118.059 132.205 118.418 130.6C118.461 130.41 118.752 130.491 118.71 130.68Z" fill="#2E1616"/>
<path d="M130.973 99.9758C130.973 99.9758 135.479 90.5197 137.438 89.1894C139.396 87.859 140.401 89.9791 140.017 92.1838C139.635 94.3885 137.402 101.724 137.402 101.724L130.973 99.9758Z" fill="#FF9A78"/>
<path d="M140.779 105.352C140.804 102.803 139.938 100.27 138.347 98.2769C138.226 98.1259 138.439 97.9115 138.56 98.064C140.203 100.121 141.107 102.718 141.081 105.353C141.08 105.548 140.778 105.548 140.779 105.353V105.352Z" fill="#2E1616"/>
<path d="M97.6758 130.59L85.2554 160.318L109.116 166.818L119.487 143.644C119.487 143.644 114.519 135.274 98.2269 130.33C98.005 130.262 97.7664 130.375 97.6773 130.59H97.6758Z" fill="white"/>
<path d="M94.7553 135.13L95.5919 133.062C95.6704 132.865 95.8742 132.75 96.0826 132.784C98.3115 133.136 110.498 135.387 119.487 143.646C119.487 143.646 98.2088 139.514 96.0615 138.188C93.9142 136.862 94.7553 135.13 94.7553 135.13Z" fill="white"/>
<path d="M119.128 143.529C118.012 142.332 116.719 141.322 115.359 140.419C114.021 139.532 112.625 138.732 111.2 137.998C108.275 136.491 105.205 135.26 102.064 134.283C100.338 133.747 98.5877 133.29 96.8194 132.923C96.6291 132.883 96.7092 132.592 96.8994 132.631C100.122 133.299 103.284 134.262 106.343 135.472C109.374 136.669 112.32 138.11 115.067 139.867C116.612 140.857 118.09 141.97 119.344 143.315C119.477 143.457 119.264 143.671 119.131 143.528L119.128 143.529Z" fill="#D8B09A"/>
<path d="M94.938 134.357C103.761 135.28 112.271 138.471 119.487 143.646L107.608 170.19C100.734 165.262 92.6608 162.119 84.2602 161.157C83.7619 161.099 83.4584 160.581 83.6502 160.118L94.1648 134.821C94.2932 134.513 94.6073 134.324 94.938 134.359V134.357Z" fill="#A17270"/>
<path d="M104.205 139.372C107.689 141.195 111.174 143.017 114.658 144.84C115.519 145.29 114.756 146.595 113.896 146.143C110.412 144.321 106.927 142.498 103.443 140.675C102.582 140.225 103.345 138.921 104.205 139.372Z" fill="#2E1616"/>
<path d="M108.115 145.044C109.818 145.897 111.523 146.752 113.227 147.605C114.095 148.04 113.332 149.343 112.464 148.908C110.761 148.055 109.056 147.2 107.352 146.347C106.484 145.912 107.247 144.609 108.115 145.044Z" fill="#2E1616"/>
<path d="M83.6499 160.118L94.1645 134.819C94.2929 134.513 94.607 134.322 94.9377 134.357C96.78 134.551 98.6102 134.842 100.416 135.23C100.706 136.129 100.857 137.086 100.85 138.028C100.847 138.522 100.794 139.017 100.708 139.504C100.622 139.996 100.221 140.766 100.481 141.217C100.767 141.716 101.253 142.152 101.582 142.629C101.925 143.122 102.225 143.641 102.465 144.192C102.935 145.266 103.165 146.427 103.083 147.601C102.912 150.067 101.697 152.295 100.486 154.393C100.478 154.407 100.469 154.417 100.462 154.429C103.168 156.282 105.689 158.964 105.178 162.185C104.969 163.494 104.389 164.76 103.909 165.986C103.719 166.472 103.526 166.957 103.326 167.44C97.4777 164.086 90.9737 161.924 84.2599 161.155C83.7616 161.098 83.4581 160.58 83.6499 160.118Z" fill="#2E1616"/>
<path d="M44.8609 132.082C44.8609 132.082 33.1578 152.064 30.34 163.138C27.5207 174.211 34.2662 186.997 50.5751 183.373C66.8839 179.749 84.4506 157.863 84.4506 157.863L93.7119 140.355C93.7119 140.355 86.8909 136.787 77.8304 141.518C70.1306 145.539 61.798 150.755 61.798 150.755L66.3841 142.229L44.8609 132.082Z" fill="#FF9A78"/>
<path d="M61.8352 150.902C57.7142 153.532 53.6158 156.201 49.5447 158.907C48.4076 159.662 47.272 160.42 46.1394 161.182C45.9779 161.291 45.8269 161.03 45.9869 160.921C50.046 158.195 54.1293 155.504 58.2367 152.853C59.3828 152.113 60.532 151.374 61.6827 150.64C61.8473 150.536 61.9983 150.797 61.8352 150.902Z" fill="#2E1616"/>
<path d="M93.7118 140.355C93.7118 140.355 106.396 146.024 107.907 148.339C109.417 150.654 108.058 151.762 106.547 152.366C106.547 152.366 108.865 153.414 108.565 155.738C108.258 158.105 106.232 158.355 106.232 158.355C106.232 158.355 106.549 163.037 102.269 162.029C98.0623 161.039 93.4445 159.814 89.8868 158.808C86.329 157.801 84.4505 157.863 84.4505 157.863C84.4505 157.863 82.4376 139.955 93.7118 140.355Z" fill="#FF9A78"/>
<path d="M106.067 158.502C103.899 157.626 101.721 156.77 99.5424 155.917C97.2018 155 94.8596 154.089 92.516 153.183C91.5178 152.797 90.5182 152.412 89.5185 152.03C89.3388 151.96 89.4173 151.669 89.5985 151.738C91.5783 152.496 93.5565 153.262 95.5331 154.03C97.9327 154.962 100.331 155.9 102.724 156.847C103.866 157.298 105.007 157.751 106.147 158.212C106.326 158.284 106.247 158.576 106.067 158.503V158.502Z" fill="#2E1616"/>
<path d="M106.57 152.445C104.402 151.569 102.224 150.713 100.045 149.86C97.7047 148.943 95.3626 148.032 93.0189 147.126C92.0208 146.74 91.0211 146.355 90.0214 145.973C89.8417 145.903 89.9203 145.612 90.1015 145.681C92.0812 146.439 94.0594 147.205 96.0361 147.974C98.4356 148.905 100.834 149.843 103.227 150.79C104.369 151.241 105.51 151.694 106.65 152.155C106.829 152.227 106.75 152.519 106.57 152.446V152.445Z" fill="#2E1616"/>
<path d="M73.4888 128.173C72.6054 130.082 71.716 131.988 70.7903 133.877C69.9809 135.531 69.1383 137.166 68.2745 138.792C67.675 139.922 67.0649 141.048 66.4549 142.173C66.3627 142.344 66.1015 142.192 66.1936 142.021C67.1978 140.173 68.196 138.321 69.1594 136.452C70.002 134.815 70.8129 133.163 71.6012 131.499C72.1493 130.342 72.69 129.182 73.2275 128.021C73.3091 127.844 73.5688 127.998 73.4888 128.173Z" fill="#2E1616"/>
<path d="M119.488 143.646C119.488 143.646 123.682 137.169 134.726 133.258C135.088 133.13 135.437 133.486 135.301 133.845L124.586 162.173L110.358 166.326L119.489 143.644L119.488 143.646Z" fill="white"/>
<path d="M131.062 137.048C131.062 137.048 133.523 136.193 136.403 135.535C136.758 135.454 137.06 135.802 136.929 136.141L128.042 158.91L125.357 158.306L131.062 137.048Z" fill="white"/>
<path d="M134.438 136.065C130.366 137.205 126.402 138.907 122.864 141.236C121.902 141.87 120.973 142.554 120.094 143.298C119.946 143.424 119.732 143.211 119.881 143.085C123.125 140.339 126.986 138.339 130.959 136.875C132.077 136.462 133.211 136.095 134.358 135.774C134.545 135.721 134.626 136.012 134.438 136.065Z" fill="#D8B09A"/>
<path d="M119.487 143.646C124.605 139.652 130.913 137.424 137.389 137.338C137.942 137.331 138.321 137.894 138.096 138.4L127.061 163.26C126.94 163.533 126.668 163.715 126.369 163.713C120.005 163.681 112.582 166.306 107.606 170.19L119.486 143.646H119.487Z" fill="#A17270"/>
<path d="M119.499 143.614C118.01 147.095 116.504 150.569 114.993 154.04C113.49 157.487 111.981 160.933 110.476 164.379C109.623 166.332 108.768 168.286 107.915 170.238C107.838 170.416 107.577 170.262 107.654 170.086C109.17 166.615 110.687 163.147 112.203 159.677C113.71 156.231 115.216 152.785 116.711 149.333C117.558 147.377 118.401 145.42 119.239 143.46C119.314 143.282 119.576 143.436 119.5 143.612L119.499 143.614Z" fill="#2E1616"/>
<path d="M83.9111 158.138C81.4723 157.191 79.3053 155.606 77.676 153.558C77.5567 153.407 77.7681 153.192 77.8889 153.345C79.485 155.35 81.6007 156.918 83.9911 157.846C84.1708 157.916 84.0923 158.209 83.9111 158.138Z" fill="#2E1616"/>
<path d="M108.518 104.521C109.107 107.436 109.744 110.341 110.341 113.254C110.517 114.113 110.689 114.974 110.857 115.835C110.895 116.025 110.603 116.106 110.566 115.915C109.998 113.005 109.368 110.107 108.761 107.205C108.58 106.336 108.4 105.469 108.225 104.6C108.187 104.409 108.477 104.329 108.516 104.52L108.518 104.521Z" fill="#2E1616"/>
<path d="M97.8326 91.2763L96.6532 103.121C96.6532 103.121 102.16 107.337 108.482 104.588L108.965 95.5151L97.8341 91.2763H97.8326Z" fill="#FF9A78"/>
<path d="M92.4374 83.4117C92.2471 81.0681 94.2359 76.2736 99.5423 75.3298C104.334 74.4781 110.335 75.6817 113.033 81.6933C115.653 87.5282 116.677 90.6178 117.068 94.9502C117.373 98.3373 116.481 101.53 112.446 102.463C107.864 103.523 104.085 100.032 101.827 97.984C99.568 95.9363 93.1638 92.3755 92.4374 83.4132V83.4117Z" fill="#FF9A78"/>
<path d="M111.1 85.1333C111.374 86.3112 112.564 85.6211 114.024 85.9925C114.315 86.0665 114.655 86.1722 114.897 86.219C115.359 85.5018 114.956 84.3209 113.985 83.8663C113.811 83.8241 113.668 83.7788 113.195 83.744C111.49 83.6172 110.901 84.2756 111.1 85.1333Z" fill="#963B24"/>
<path d="M108.337 85.6845C108.678 86.8442 107.312 86.7309 106.366 87.7956C105.498 88.7741 104.713 89.1561 104.319 88.617C103.843 87.9647 104.31 86.518 105.829 85.5048C107.251 84.5564 108.088 84.8388 108.337 85.6845Z" fill="#963B24"/>
<path d="M109.764 95.0499C111.252 96.3682 112.877 95.2477 113.521 93.188C112.173 93.3601 110.809 93.4085 109.447 93.3224C109.171 93.3043 108.889 93.2831 108.605 93.2559C108.851 93.94 109.215 94.5622 109.764 95.0499Z" fill="white"/>
<path d="M111.241 87.8741L111.942 88.913C112.169 89.2483 112.421 89.5775 112.608 89.9384C112.915 90.5288 112.871 91.2234 112.366 91.6931C112.224 91.826 112.01 91.6115 112.153 91.4802C112.363 91.2854 112.498 91.0226 112.511 90.7342C112.528 90.3959 112.363 90.0924 112.187 89.8161C111.799 89.212 111.383 88.6231 110.982 88.0266C110.873 87.865 111.134 87.714 111.243 87.8741H111.241Z" fill="#2E1616"/>
<path d="M108.266 102.72C106.945 102.227 105.714 101.537 104.603 100.67C104.45 100.551 104.664 100.338 104.815 100.458C105.883 101.29 107.078 101.956 108.345 102.428C108.526 102.496 108.447 102.788 108.264 102.72H108.266Z" fill="#2E1616"/>
<path d="M88.6696 81.0334C89.8097 79.2605 92.7392 79.9023 93.227 80.0246C93.2361 80.008 93.2451 79.9914 93.2527 79.9733C92.9356 79.4825 91.0464 76.4609 92.6109 76.2963C93.3856 76.2147 93.8824 76.9592 94.1919 77.7928C94.9153 76.399 96.0931 74.7001 97.7467 74.081C98.8551 73.6657 99.5618 73.8907 100.012 74.3377C101.579 73.4362 103.791 72.4516 106.001 72.4305C108.076 72.4108 108.447 73.3652 107.923 74.4328C113.275 74.3513 115.871 76.2615 114.996 77.6161C114.649 78.1537 114.182 78.4466 113.682 78.5901C113.827 78.6882 113.966 78.7879 114.093 78.8936C116.469 80.8582 114.62 82.5072 113.171 82.0059C112.554 81.7522 111.958 81.4622 111.381 81.1315C111.748 82.0436 111.189 83.0539 110.076 83.1263C108.799 83.2124 107.308 82.406 106.211 81.8352C106.087 81.7718 105.964 81.7038 105.842 81.6374C106.102 82.4891 106.27 83.4299 105.794 84.0762C104.984 85.1725 103.876 84.6591 102.848 83.679C102.911 84.1653 102.955 84.6545 102.976 85.1453C103.032 86.5572 103.047 88.2833 102.336 89.5532C101.907 90.3128 101.261 90.8443 100.527 91.1418C100.767 92.513 100.782 93.9189 100.567 95.3081C100.281 97.158 98.2057 97.8798 97.2272 97.3467L97.4054 94.2012C95.1176 91.8818 92.851 88.5279 92.4372 83.4117C92.4025 82.9874 92.4402 82.4831 92.555 81.9349C90.1283 82.7307 87.6533 82.6099 88.6696 81.0319V81.0334Z" fill="#963B24"/>
<path d="M102.768 83.9569C101.058 83.3453 99.5725 82.2188 98.52 80.7404C98.4068 80.5819 98.6695 80.4308 98.7813 80.5879C99.7855 81.9983 101.22 83.0825 102.849 83.6654C103.031 83.7304 102.952 84.0218 102.769 83.9569H102.768Z" fill="#2E1616"/>
<path d="M98.8096 83.8195C97.6408 84.5368 95.951 84.0822 95.3017 82.8742C95.2096 82.7035 95.4708 82.551 95.5629 82.7216C96.1367 83.7893 97.6242 84.1925 98.6586 83.5582C98.8247 83.4556 98.9772 83.7168 98.8111 83.8195H98.8096Z" fill="#2E1616"/>
<path d="M107.162 79.4221C107.493 79.2198 107.54 78.7985 107.434 78.4542C107.298 78.0163 106.912 77.7641 106.484 77.6508C105.456 77.379 104.385 77.8154 103.357 77.5089C103.244 77.4742 103.197 77.2899 103.321 77.2325C103.692 77.0634 103.796 76.6315 103.703 76.2585C103.585 75.7904 103.155 75.5216 102.711 75.4053C102.188 75.2694 101.616 75.2996 101.087 75.3872C100.501 75.4839 99.9367 75.6726 99.4097 75.9444C99.2376 76.0335 99.0835 75.7723 99.2572 75.6832C99.8809 75.3616 100.551 75.1501 101.247 75.061C101.862 74.9825 102.528 74.9765 103.108 75.2226C103.591 75.428 103.96 75.8176 104.025 76.3506C104.08 76.8022 103.908 77.296 103.473 77.4938C103.461 77.4017 103.449 77.3096 103.437 77.2174C104.607 77.5678 105.903 76.9335 107.025 77.5406C107.437 77.7641 107.715 78.1476 107.774 78.6143C107.828 79.0341 107.685 79.4569 107.313 79.6834C107.147 79.7846 106.995 79.5233 107.161 79.4221H107.162Z" fill="#2E1616"/>
<path d="M113.58 78.6565C112.403 78.0117 111.071 77.7052 109.73 77.7656C109.536 77.7747 109.537 77.4726 109.73 77.4636C111.123 77.4017 112.51 77.7263 113.732 78.3953C113.903 78.4889 113.75 78.7502 113.58 78.6565Z" fill="#2E1616"/>
<path d="M99.1305 94.2487C98.0209 92.5608 98.4897 90.293 100.178 89.1834C101.866 88.0739 104.133 88.5427 105.243 90.2306C106.352 91.9184 105.884 94.1862 104.196 95.2958C102.508 96.4054 100.24 95.9366 99.1305 94.2487Z" fill="#FF9A78"/>
<path d="M101.82 90.2826C101.237 90.5439 100.805 91.0573 100.626 91.6674C100.419 92.3665 100.555 93.1216 100.893 93.7573C100.985 93.9295 100.724 94.082 100.632 93.9098C100.256 93.2046 100.105 92.365 100.334 91.5873C100.535 90.9078 101.017 90.3128 101.668 90.0214C101.843 89.9429 101.997 90.2026 101.82 90.2826Z" fill="#2E1616"/>
<path d="M68.6445 137.657C65.5202 136.195 62.3988 134.724 59.2835 133.243C55.9886 131.675 52.6996 130.096 49.4227 128.492C47.7481 127.672 46.0779 126.848 44.4123 126.009C44.2387 125.922 44.3912 125.662 44.5648 125.748C47.6454 127.298 50.7441 128.809 53.8488 130.307C57.1362 131.893 60.4312 133.46 63.7307 135.019C65.4175 135.814 67.1057 136.607 68.7955 137.398C68.9707 137.48 68.8182 137.741 68.643 137.66L68.6445 137.657Z" fill="#2E1616"/>
<path d="M109.258 89.1017C109.1 89.5396 108.765 89.887 108.327 90.0501C107.869 90.2207 107.33 90.1407 106.93 89.8658C106.771 89.7556 106.922 89.4943 107.082 89.6046C107.413 89.8341 107.833 89.9021 108.216 89.7692C108.561 89.6499 108.843 89.363 108.965 89.0217C109.03 88.8405 109.323 88.919 109.257 89.1017H109.258Z" fill="#2E1616"/>
<path d="M112.947 88.6366C113.248 88.8858 113.601 88.9794 113.978 88.8601C114.32 88.7514 114.593 88.4932 114.739 88.1685C114.774 88.093 114.88 88.0764 114.946 88.1141C115.023 88.1579 115.034 88.247 115.001 88.321C114.818 88.7227 114.454 89.0353 114.03 89.1591C113.809 89.224 113.572 89.2376 113.347 89.1833C113.115 89.1289 112.914 88.999 112.731 88.8495C112.582 88.7257 112.796 88.5128 112.944 88.6366H112.947Z" fill="#2E1616"/>
</svg>
