<svg width="106" height="92" viewBox="0 0 106 92" fill="none" xmlns="http://www.w3.org/2000/svg">
<path d="M50.7353 64.3838H12.2988V62.9455C12.2988 60.797 14.0394 59.0552 16.1865 59.0552H50.7353V64.3838Z" fill="#4EBDF4"/>
<path d="M34.9221 83.6101L33.5156 87.9588L45.9932 91.9999C45.9932 91.9999 47.6857 90.363 44.735 86.7883C41.7842 83.2136 43.7048 80.8756 43.7048 80.8756C43.7048 80.8756 37.3699 78.4364 37.1863 78.7645C37.0028 79.0925 34.9221 83.6101 34.9221 83.6101Z" fill="#010100"/>
<path d="M46.2062 90.9929C46.1985 90.9929 46.1906 90.9917 46.1828 90.9892L34.0907 87.0729C34.0507 87.0599 34.0289 87.0169 34.0418 86.9769C34.0548 86.9369 34.0973 86.9151 34.1378 86.9279L46.2299 90.8443C46.2699 90.8572 46.2917 90.9002 46.2787 90.9403C46.2682 90.9723 46.2384 90.9929 46.2062 90.9929Z" fill="#C4A5A5"/>
<path d="M36.0423 87.7011C36.0356 87.7011 36.0286 87.7002 36.0218 87.6984C35.9812 87.6871 35.9576 87.645 35.9689 87.6045C36.677 85.0674 34.8934 83.6848 34.8751 83.6711C34.8415 83.6458 34.8348 83.5981 34.86 83.5644C34.8855 83.5307 34.933 83.5237 34.9667 83.5493C34.9856 83.5636 36.8523 85.0054 36.1155 87.6455C36.1063 87.679 36.0757 87.7011 36.0423 87.7011Z" fill="#C4A5A5"/>
<path d="M43.1406 89.9997C43.1235 89.9997 43.1061 89.9939 43.092 89.9821C43.0597 89.9553 43.0551 89.9073 43.0821 89.8748C44.6781 87.9484 45.6662 88.0591 45.7076 88.0648C45.7492 88.0704 45.7784 88.109 45.7726 88.1506C45.7669 88.192 45.7279 88.2208 45.6873 88.2158C45.6723 88.2137 44.7273 88.1277 43.1994 89.9721C43.1841 89.9902 43.1623 89.9997 43.1406 89.9997Z" fill="#C4A5A5"/>
<path d="M49.3694 83.0528L47.9629 87.4014L60.4405 91.4426C60.4405 91.4426 62.133 89.8057 59.1822 86.231C56.2314 82.6563 58.1521 80.3183 58.1521 80.3183C58.1521 80.3183 51.8172 77.8791 51.6336 78.2072C51.45 78.5351 49.3694 83.0528 49.3694 83.0528Z" fill="#010100"/>
<path d="M60.6555 90.4353C60.6477 90.4353 60.6398 90.4341 60.632 90.4316L48.5399 86.5153C48.4999 86.5023 48.4781 86.4593 48.491 86.4192C48.504 86.3793 48.5463 86.3573 48.587 86.3703L60.6791 90.2866C60.7191 90.2996 60.7409 90.3426 60.728 90.3827C60.7176 90.4148 60.6876 90.4353 60.6555 90.4353Z" fill="#C4A5A5"/>
<path d="M50.4915 87.1437C50.4848 87.1437 50.4778 87.1428 50.471 87.141C50.4305 87.1297 50.4069 87.0876 50.4181 87.0471C51.1273 84.5062 49.3426 83.1275 49.3243 83.1138C49.2907 83.0885 49.284 83.0408 49.3093 83.0071C49.3346 82.9732 49.3825 82.9667 49.4159 82.992C49.4348 83.0063 51.3015 84.4481 50.5647 87.0881C50.5554 87.1216 50.5248 87.1437 50.4915 87.1437Z" fill="#C4A5A5"/>
<path d="M57.5888 89.4423C57.5717 89.4423 57.5544 89.4365 57.5402 89.4248C57.5079 89.398 57.5033 89.3499 57.5303 89.3175C59.1274 87.3896 60.1144 87.5014 60.1558 87.5072C60.1974 87.5129 60.2267 87.5514 60.2209 87.5931C60.2152 87.6344 60.1759 87.6641 60.1356 87.6583C60.1261 87.6566 59.1795 87.5656 57.6474 89.4149C57.6324 89.4329 57.6106 89.4423 57.5888 89.4423Z" fill="#C4A5A5"/>
<path d="M42.7882 8.02199C42.5364 8.03495 42.273 8.04791 42.0439 7.94257C41.6225 7.74882 41.463 7.22397 41.4708 6.76009C41.4785 6.29622 41.6045 5.83372 41.5497 5.37304C41.436 4.41724 40.5679 3.71008 39.6593 3.39407C38.081 2.84483 36.217 3.22273 34.9766 4.34331C33.7363 5.4639 33.1708 7.28083 33.5559 8.90798C33.7325 9.65402 34.1164 10.3793 34.7477 10.8138C35.379 11.2482 36.2817 11.329 36.9034 10.8807C37.1317 10.7161 37.3138 10.4911 37.553 10.3426C37.7921 10.1941 38.1303 10.142 38.3392 10.3307C38.7998 10.747 38.0746 11.4796 38.1818 12.0914C38.2696 12.5925 38.8658 12.8069 39.176 13.2101C39.6502 13.8265 39.4118 14.8297 39.9768 15.3638C40.5845 15.9382 41.5698 15.5227 42.2827 15.0861C43.8116 14.1498 45.4978 13.3094 46.621 11.8673C47.0274 11.3456 47.3815 10.692 47.2296 10.01C47.0622 9.25843 46.3585 8.64227 45.6795 8.34608C44.7747 7.95157 43.7545 7.97199 42.7882 8.02199Z" fill="#010100"/>
<path d="M33.7938 44.1134C31.8847 45.9532 30.7364 48.5015 30.6472 51.0967C30.5581 53.6918 31.529 56.3071 33.3077 58.2636C35.3788 60.5417 38.4192 61.8553 41.5177 62.4C44.6163 62.9448 47.7998 62.783 50.9378 62.5176C47.543 68.5598 44.2721 74.8688 41.4578 81.1798C43.1269 82.6762 45.5231 83.2579 47.7859 83.5548C51.4701 84.0382 55.2212 84.0498 58.9085 83.5891C61.9117 77.2182 64.3462 70.5665 66.299 63.8298C67.1203 60.9967 67.8114 57.8222 66.3583 55.2331C65.1793 53.1325 62.8506 51.911 60.6476 50.8054C58.6729 49.8142 56.6981 48.823 54.7234 47.832C53.7583 47.3477 52.7879 46.8611 51.7531 46.5358C50.5051 46.1436 49.1908 45.9944 47.8866 45.8473C43.7019 45.3748 37.9788 44.5855 33.7938 44.1134Z" fill="#F4A21E"/>
<path d="M23.8494 42.2267C21.9403 44.2432 20.792 47.0363 20.7029 49.8807C20.6138 52.7251 21.5846 55.5917 23.3633 57.7361C25.4345 60.2329 28.4748 61.6727 31.5734 62.2698C34.6719 62.8669 37.8554 62.6896 40.9934 62.3989C37.5986 69.0214 34.3278 75.9365 31.5135 82.8536C33.1825 84.4937 35.5788 85.1314 37.8416 85.4567C41.5259 85.9864 45.2769 85.9992 48.9642 85.4942C51.9674 78.5114 54.4019 71.2206 56.3547 63.8369C57.1759 60.7317 57.8671 57.2522 56.4139 54.4146C55.235 52.1123 52.9062 50.7734 50.7033 49.5615C48.7285 48.4752 46.7538 47.3888 44.779 46.3025C43.8141 45.7717 42.8436 45.2383 41.8088 44.8819C40.5608 44.452 39.2464 44.2884 37.9423 44.1272C33.7576 43.6095 28.0344 42.7444 23.8494 42.2267Z" fill="#FFC94F"/>
<path d="M35.7478 19.9627C33.2826 19.4641 27.9126 21.1132 25.763 22.5893C24.1502 23.6966 21.7265 26.2887 20.7552 28.8033C19.264 32.664 18.4351 37.4211 20.7045 40.8037C21.3144 41.7129 22.1128 42.4557 22.9639 43.0958C25.7185 45.1672 30.7325 47.6525 34.8075 48.1367C34.877 48.1449 34.8906 46.739 34.96 46.7469C37.9131 47.0826 39.9727 47.1272 42.3944 46.9553C43.9992 46.8413 45.4533 47.264 47.0592 47.3583C47.7082 47.3964 48.3809 47.4306 48.9854 47.1708C50.1128 46.6862 51.8737 46.2367 51.0101 45.2554C46.1985 39.7874 53.107 31.5433 49.3397 26.4085C47.7626 24.2588 46.0986 22.6704 43.9051 21.4085C41.6312 20.1001 38.7087 20.5617 35.7478 19.9627Z" fill="#EFD7CE"/>
<path d="M47.3305 12.2306C47.4129 11.6876 47.4481 11.1277 47.3209 10.5937C47.1936 10.0595 46.886 9.55009 46.4105 9.27569C46.1008 9.09703 45.7387 9.02676 45.3815 9.01472C44.2634 8.97661 43.1259 9.53347 42.5285 10.4792C42.3601 10.746 42.159 10.9914 41.9075 11.182C41.8328 11.2384 41.7483 11.2829 41.6569 11.2765C41.3735 11.2567 41.349 10.8452 41.1676 10.6265C40.9564 10.3719 40.5236 10.4286 40.2846 10.6571C40.0456 10.8856 39.9528 11.2239 39.8786 11.5463C39.8015 11.881 39.7336 12.2295 39.8044 12.5658C39.8753 12.9019 40.1196 13.2245 40.458 13.2826C40.5681 13.3015 40.6854 13.2928 40.7869 13.3399C40.9965 13.4373 41.0372 13.739 40.9279 13.943C40.8187 14.1468 38.9235 18.1271 38.2451 18.3733C38.5029 19.1591 39.1121 20.3056 40.0972 20.9517C40.7238 21.3625 41.5699 20.9649 41.6761 20.223C41.8299 19.1492 41.9609 17.7648 42.1581 17.0006C42.757 17.4797 43.1389 17.6102 43.8697 17.4722C44.1861 17.4125 44.4917 17.3041 44.7642 17.1323C46.3757 16.1167 47.0504 14.0765 47.3305 12.2306Z" fill="#B3614C"/>
<path d="M44.7968 14.5415C44.7645 14.5415 44.7328 14.5405 44.7025 14.5394C44.6605 14.538 44.6276 14.5028 44.6289 14.4607C44.6305 14.4194 44.6641 14.3871 44.7051 14.3871C44.7059 14.3871 44.7068 14.3871 44.7077 14.3871C44.8003 14.3903 44.8958 14.3935 44.9792 14.3659C45.0588 14.3397 45.1186 14.2825 45.1311 14.2203C45.1393 14.1798 45.1298 14.1322 45.1201 14.0821L45.1164 14.0626C44.9935 13.4156 45.2643 12.715 45.7901 12.3191C45.8234 12.2939 45.8713 12.3005 45.8967 12.3342C45.922 12.3679 45.9153 12.4156 45.8816 12.4409C45.4011 12.8028 45.1538 13.443 45.266 14.0342L45.2695 14.053C45.2813 14.1126 45.2944 14.1802 45.2803 14.2505C45.2569 14.3674 45.1597 14.4671 45.0267 14.5109C44.9504 14.5359 44.8718 14.5415 44.7968 14.5415Z" fill="#6B0027"/>
<path d="M44.5833 15.0784C44.5734 15.0784 44.5634 15.0764 44.5538 15.0725C44.1614 14.9069 43.8366 14.5888 43.6629 14.1996C43.6457 14.161 43.6629 14.116 43.7013 14.0988C43.7397 14.0816 43.7848 14.099 43.8019 14.1374C43.96 14.4918 44.2555 14.7814 44.6129 14.9319C44.6516 14.9482 44.6699 14.9929 44.6536 15.0318C44.6412 15.0609 44.6132 15.0784 44.5833 15.0784Z" fill="#6B0027"/>
<path d="M43.9059 15.1775C43.8989 15.1775 43.8917 15.1766 43.8846 15.1744C43.7782 15.1435 43.6839 15.0772 43.619 14.9877C43.5944 14.9536 43.6018 14.906 43.6358 14.8813C43.6696 14.8568 43.7173 14.8639 43.7421 14.8981C43.7874 14.9604 43.8532 15.0064 43.9271 15.0281C43.9676 15.0398 43.9907 15.0822 43.979 15.1226C43.9693 15.1558 43.9389 15.1775 43.9059 15.1775Z" fill="#6B0027"/>
<path d="M42.274 17.176C42.2576 17.176 42.2408 17.1707 42.2268 17.1597C41.69 16.7365 41.3548 16.0487 41.3525 15.3649C41.3524 15.3226 41.3813 15.2851 41.4287 15.2883C41.4706 15.2883 41.5047 15.3223 41.5049 15.3643C41.5072 16.0028 41.8199 16.6449 42.3211 17.04C42.3542 17.0661 42.3598 17.114 42.3337 17.147C42.3188 17.1659 42.2966 17.176 42.274 17.176Z" fill="#6B0027"/>
<path d="M43.1846 12.089C43.1529 12.089 43.1234 12.0692 43.1126 12.0375C43.0988 11.9977 43.1202 11.9542 43.1599 11.9407C43.5891 11.794 44.0665 11.7783 44.504 11.8971C44.5447 11.9081 44.5686 11.95 44.5576 11.9905C44.5467 12.0311 44.5057 12.0559 44.4642 12.0442C44.0557 11.9335 43.6101 11.9478 43.2094 12.0849C43.2012 12.0876 43.1928 12.089 43.1846 12.089Z" fill="#010100"/>
<path d="M45.7266 13.0654C45.6976 13.0654 45.67 13.0488 45.6572 13.0207C45.6399 12.9825 45.6566 12.9372 45.695 12.9198C46.0219 12.7707 46.3958 12.7319 46.7468 12.8105C46.7879 12.8197 46.8135 12.8605 46.8045 12.9015C46.7952 12.9425 46.755 12.9686 46.7134 12.9591C46.3947 12.8881 46.0553 12.923 45.7581 13.0584C45.7479 13.0633 45.7371 13.0654 45.7266 13.0654Z" fill="#010100"/>
<path d="M44.1501 12.3529C44.0831 12.5375 43.941 12.6552 43.8324 12.6159C43.7239 12.5765 43.6901 12.395 43.7571 12.2102C43.8241 12.0256 43.9663 11.9079 44.0749 11.9473C44.1833 11.9868 44.217 12.1683 44.1501 12.3529Z" fill="#010100"/>
<path d="M46.4518 13.28C46.3849 13.4646 46.2427 13.5823 46.134 13.543C46.0256 13.5037 45.9919 13.322 46.0588 13.1374C46.1258 12.9528 46.2679 12.8351 46.3766 12.8744C46.485 12.9139 46.5187 13.0954 46.4518 13.28Z" fill="#010100"/>
<path d="M44.4204 11.3243C44.5238 11.2988 44.6341 11.2224 44.6277 11.116C44.6247 11.0642 44.5936 11.0182 44.5584 10.98C44.4079 10.8168 44.1677 10.7555 43.9482 10.7881C43.7286 10.8207 43.5286 10.9371 43.3606 11.082C43.2884 11.1444 43.2093 11.2403 43.2814 11.3339C43.3307 11.3979 43.4013 11.3686 43.4657 11.347C43.665 11.28 43.8609 11.3134 44.065 11.3343C44.1829 11.3465 44.304 11.3529 44.4204 11.3243Z" fill="#010100"/>
<path d="M46.2682 12.1773C46.2065 12.1373 46.1675 12.0577 46.2299 11.9795C46.2604 11.9414 46.3081 11.9132 46.3545 11.8918C46.5535 11.8004 46.7627 11.8033 46.9054 11.8723C47.0481 11.9414 47.131 12.069 47.1749 12.2116C47.1938 12.2729 47.1994 12.3609 47.0957 12.4162C47.0247 12.4542 46.9892 12.4179 46.9538 12.3885C46.8445 12.2979 46.6831 12.2831 46.5226 12.2572C46.4298 12.2421 46.3376 12.2225 46.2682 12.1773Z" fill="#010100"/>
<path d="M44.0806 13.378C44.0401 13.6015 43.7155 13.7295 43.3554 13.6641C42.9952 13.5987 42.7361 13.3647 42.7766 13.1414C42.8172 12.9181 43.1418 12.7899 43.5019 12.8553C43.862 12.9205 44.1212 13.1545 44.0806 13.378Z" fill="#D64747"/>
<path d="M46.46 14.2881C46.4195 14.5115 46.1814 14.6553 45.9282 14.6094C45.675 14.5635 45.5026 14.3451 45.543 14.1217C45.5833 13.8984 45.8214 13.7545 46.0748 13.8004C46.3281 13.8464 46.5006 14.0647 46.46 14.2881Z" fill="#D64747"/>
<path d="M38.9403 17.5977C38.9403 17.5977 37.8884 19.009 35.748 19.9627C35.748 19.9627 42.1727 32.2615 43.9054 21.4083C43.9054 21.4083 41.5262 20.4197 41.9633 18.0468C42.2352 16.57 38.9403 17.5977 38.9403 17.5977Z" fill="#B3614C"/>
<path d="M36.655 39.5437C36.655 39.5437 32.7715 44.123 34.8088 48.1368C34.8088 48.1368 38.7327 44.4271 36.655 39.5437Z" fill="#665048"/>
<path d="M35.1091 45.1024C36.3209 45.6014 37.5803 45.9846 38.8646 46.2453C39.1533 46.3038 39.4519 46.3563 39.7404 46.297C40.2054 46.2015 40.5643 45.8349 40.8497 45.4555C41.1352 45.0761 41.3866 44.6573 41.767 44.3733C42.1474 44.0893 42.7112 43.9779 43.0885 44.266C43.3622 44.475 43.4853 44.8491 43.783 45.0224C44.1375 45.2288 44.6323 45.0422 44.8392 44.6878C45.046 44.3334 45.0018 43.873 44.8137 43.5082C44.4292 42.7626 43.4416 42.3963 42.6644 42.711C43.5853 42.0274 44.9884 42.1555 45.6312 43.1056C45.7896 43.3399 45.9171 43.6207 46.1707 43.7456C46.5568 43.9357 47.0395 43.6358 47.2031 43.2375C47.3667 42.8393 47.3028 42.3885 47.2359 41.9632C47.3489 42.2132 47.5453 42.2088 47.8007 42.109C48.0562 42.0093 48.2273 41.7533 48.2849 41.485C48.3638 41.1169 48.2457 40.7122 47.9813 40.4445C47.7305 40.1907 47.3788 40.0698 47.0403 39.957C46.0438 39.625 45.0227 39.289 43.9728 39.3155C42.9231 39.342 41.821 39.8038 41.3124 40.7231C41.7796 39.9733 42.4983 39.271 43.3715 39.1391C43.7207 39.0864 44.0781 39.094 44.4234 39.0208C44.7688 38.9477 45.1172 38.7742 45.2847 38.4634C45.4523 38.1524 45.3588 37.6925 45.0322 37.5582C44.8463 37.4818 44.4921 37.4024 44.2914 37.3967C43.2961 37.3688 42.4734 37.4236 41.5554 37.8091C40.6374 38.1948 39.7851 39.3201 39.2347 40.1501C38.9992 40.5051 38.8101 40.9138 38.4561 41.1507C38.1535 41.3532 37.7751 41.3983 37.4118 41.4207C36.7874 41.4591 36.0881 41.3863 35.4659 41.3239C34.8206 42.3814 34.3788 43.8401 34.2788 44.7085C34.2569 44.8989 34.9321 45.0296 35.1091 45.1024Z" fill="#B3614C"/>
<path d="M41.8201 43.1194C42.4969 42.7081 43.409 42.5421 44.146 42.8981C44.4758 43.0574 44.7454 43.3219 44.8614 43.6746C44.9715 44.0098 44.9412 44.3726 44.7285 44.6601C44.6556 44.7588 44.8208 44.8539 44.8929 44.7563C45.3917 44.0819 45.0015 43.1493 44.325 42.7764C43.5187 42.3319 42.484 42.4931 41.724 42.9549C41.6193 43.0185 41.715 43.1833 41.8201 43.1194Z" fill="#6B0027"/>
<path d="M41.6964 41.6396C42.6904 41.017 43.8797 40.7335 45.0477 40.8589C45.6139 40.9197 46.211 41.0694 46.66 41.4377C47.0992 41.7978 47.3582 42.3888 47.1771 42.9473C47.1391 43.0643 47.323 43.1144 47.3606 42.9979C47.5355 42.4589 47.3463 41.874 46.9694 41.467C46.549 41.0129 45.9256 40.7995 45.3294 40.7054C44.0417 40.5022 42.7042 40.7838 41.6003 41.4751C41.4967 41.5399 41.5921 41.7048 41.6964 41.6396Z" fill="#6B0027"/>
<path d="M41.2401 40.8809C41.5675 40.4126 42.0466 40.0578 42.5888 39.8793C42.7047 39.8412 42.655 39.6571 42.5382 39.6956C41.9464 39.8906 41.4328 40.274 41.0758 40.7848C41.0052 40.8854 41.1702 40.9807 41.2401 40.8809Z" fill="#6B0027"/>
<path d="M43.9015 37.4565C43.9135 37.7466 44.1199 37.9823 44.3825 38.0868C44.6901 38.2094 45.0391 38.1222 45.3219 37.9765C45.4308 37.9202 45.3347 37.7557 45.2257 37.812C44.9962 37.9304 44.7197 38.0025 44.4669 37.9158C44.2718 37.8487 44.1006 37.6696 44.0917 37.4565C44.0869 37.3342 43.8963 37.3336 43.9015 37.4565Z" fill="#6B0027"/>
<path d="M47.2612 40.0569C47.1443 40.3787 47.2074 40.7499 47.4191 41.0176C47.6243 41.2767 47.9697 41.4174 48.2972 41.3817C48.3484 41.3763 48.3924 41.342 48.3924 41.2865C48.3924 41.2392 48.3487 41.1856 48.2972 41.1912C48.0215 41.2212 47.7412 41.1147 47.5652 40.8971C47.3877 40.6775 47.3495 40.3695 47.4447 40.1075C47.4868 39.9921 47.3027 39.9424 47.2612 40.0569Z" fill="#6B0027"/>
<path d="M46.8198 41.5447C46.5299 41.7891 46.3518 42.1563 46.344 42.5362C46.3359 42.9258 46.5119 43.3088 46.8044 43.5638C46.8964 43.644 47.0317 43.5098 46.939 43.429C46.6822 43.2051 46.5273 42.8792 46.5344 42.5362C46.5413 42.2034 46.7018 41.8923 46.9544 41.6795C47.0483 41.6004 46.913 41.4662 46.8198 41.5447Z" fill="#6B0027"/>
<path d="M44.7345 43.1731C44.5439 43.1516 44.3853 43.2901 44.2862 43.4386C44.1809 43.5962 44.1262 43.7895 44.127 43.9788C44.1285 44.3487 44.357 44.6938 44.6927 44.8458C44.8035 44.8959 44.9005 44.7317 44.7889 44.6813C44.5293 44.5638 44.3363 44.3157 44.3191 44.0261C44.3104 43.8811 44.3398 43.7343 44.4083 43.6058C44.4735 43.4837 44.5811 43.3462 44.7346 43.3634C44.856 43.3775 44.8551 43.1868 44.7345 43.1731Z" fill="#6B0027"/>
<path d="M39.7068 41.3999C39.6256 41.3999 39.5469 41.3735 39.4814 41.3234C39.4021 41.263 39.3513 41.1752 39.3383 41.0764C39.3109 40.8726 39.4545 40.6845 39.6582 40.6571C39.7568 40.644 39.8547 40.6697 39.9341 40.7303C40.0133 40.7908 40.0642 40.8784 40.0771 40.9772C40.0904 41.076 40.0644 41.1739 40.004 41.2531C39.9437 41.3324 39.856 41.3832 39.7574 41.3964C39.7403 41.3989 39.7236 41.3999 39.7068 41.3999ZM39.7079 40.8063C39.6981 40.8063 39.6882 40.8069 39.6783 40.8083C39.558 40.8245 39.473 40.9357 39.4891 41.0563C39.4971 41.1147 39.5271 41.1665 39.574 41.2022C39.6206 41.238 39.6782 41.2534 39.737 41.2455C39.7953 41.2377 39.8471 41.2075 39.8828 41.1607C39.9186 41.1139 39.9339 41.0559 39.9262 40.9976C39.9183 40.9392 39.8882 40.8874 39.8413 40.8516C39.8025 40.822 39.756 40.8063 39.7079 40.8063Z" fill="#6B0027"/>
<path d="M40.2889 42.1718C40.2077 42.1718 40.1289 42.1455 40.0634 42.0953C39.9842 42.035 39.9333 41.9472 39.9203 41.8484C39.8929 41.6446 40.0366 41.4564 40.2403 41.4292C40.339 41.4159 40.4368 41.442 40.5161 41.5023C40.5954 41.5628 40.6462 41.6505 40.6592 41.7493C40.6866 41.9531 40.5429 42.1412 40.3393 42.1685C40.3222 42.1708 40.3055 42.1718 40.2889 42.1718ZM40.2899 41.5783C40.28 41.5783 40.2701 41.5789 40.2602 41.5802C40.1399 41.5964 40.0549 41.7077 40.071 41.8281C40.0789 41.8865 40.1089 41.9383 40.1559 41.9741C40.2025 42.01 40.2602 42.0254 40.3189 42.0174C40.4394 42.0013 40.5242 41.8901 40.5081 41.7696C40.5001 41.7112 40.4701 41.6593 40.4232 41.6235C40.3845 41.594 40.3379 41.5783 40.2899 41.5783Z" fill="#6B0027"/>
<path d="M40.5377 43.1356C40.4565 43.1356 40.3779 43.1093 40.3124 43.059C40.2332 42.9984 40.1823 42.9108 40.1694 42.812C40.142 42.6082 40.2856 42.4201 40.4893 42.3928C40.6907 42.3661 40.8808 42.5089 40.9082 42.7129V42.7131C40.9356 42.9169 40.792 43.105 40.5881 43.1323C40.5711 43.1344 40.5543 43.1356 40.5377 43.1356ZM40.5386 42.5419C40.529 42.5419 40.5191 42.5425 40.5092 42.5439C40.3887 42.56 40.3039 42.6713 40.32 42.7917C40.328 42.8501 40.358 42.9019 40.4047 42.9378C40.4517 42.9736 40.5089 42.989 40.5677 42.9811C40.6882 42.9649 40.7732 42.8536 40.7571 42.733C40.742 42.6225 40.6473 42.5419 40.5386 42.5419Z" fill="#6B0027"/>
<path d="M40.8564 44.1159C40.6945 44.1159 40.5533 43.9958 40.5313 43.831C40.5196 43.7441 40.5423 43.6578 40.5956 43.588C40.6489 43.5182 40.7262 43.4734 40.813 43.4618C40.8991 43.4501 40.9861 43.4731 41.0558 43.5263C41.1255 43.5795 41.1702 43.6568 41.1818 43.7437C41.1935 43.8305 41.1707 43.9168 41.1174 43.9867C41.0642 44.0565 40.9871 44.1013 40.9001 44.1129C40.8855 44.115 40.8709 44.1159 40.8564 44.1159ZM40.857 43.6113C40.8491 43.6113 40.8412 43.612 40.8333 43.613C40.7867 43.6193 40.7454 43.6434 40.7167 43.6807C40.6883 43.7181 40.6759 43.7642 40.6821 43.8109C40.6951 43.9071 40.783 43.9748 40.8799 43.9621C40.9265 43.9559 40.9678 43.9318 40.9964 43.8944C41.0248 43.8571 41.0373 43.8109 41.031 43.7642C41.0248 43.7176 41.0007 43.6763 40.9634 43.6476C40.9323 43.6238 40.8953 43.6113 40.857 43.6113Z" fill="#6B0027"/>
<path d="M36.6818 39.4317C33.4597 37.5272 30.3343 35.4659 27.234 33.3707C26.3566 32.7778 25.4813 32.1821 24.6058 31.5865C24.5042 31.5174 24.4089 31.6824 24.5097 31.751C27.6037 33.8562 30.6989 35.9621 33.8727 37.9458C34.7702 38.5068 35.6742 39.0576 36.5855 39.5963C36.6915 39.6588 36.7873 39.494 36.6818 39.4317Z" fill="#665048"/>
<path d="M30.3622 21.4796C31.1896 22.5224 31.5617 23.8935 31.374 25.2118C31.357 25.3317 31.5404 25.3836 31.5576 25.2624C31.7559 23.8691 31.3714 22.4471 30.4969 21.3448C30.4206 21.2488 30.2867 21.3845 30.3622 21.4796Z" fill="#665048"/>
<path d="M31.1513 26.86C30.6324 29.4356 29.7862 31.9385 28.6327 34.2989C28.5791 34.4087 28.7433 34.5053 28.7971 34.3951C29.9577 32.0199 30.8126 29.5025 31.3348 26.9106C31.3589 26.7909 31.1755 26.7397 31.1513 26.86Z" fill="#665048"/>
<path d="M28.1521 33.2971C27.9579 32.927 27.7927 32.5432 27.6579 32.1474C27.6186 32.032 27.4346 32.0816 27.4743 32.198C27.6143 32.609 27.786 33.0089 27.9877 33.3933C28.0447 33.5019 28.2092 33.4057 28.1521 33.2971Z" fill="#665048"/>
<path d="M46.8803 26.2308C47.5814 28.1151 48.2556 30.0709 47.7813 32.0958C47.3934 33.7514 46.4992 35.2273 46.0017 36.8459C45.7346 37.7147 45.6053 38.6164 45.7436 39.5205C45.762 39.6414 45.9456 39.59 45.9272 39.4699C45.6638 37.7493 46.4396 36.1164 47.0982 34.5772C47.4287 33.8045 47.7531 33.0227 47.9511 32.2037C48.1658 31.3156 48.1907 30.413 48.0506 29.5107C47.8722 28.3622 47.4674 27.2648 47.0639 26.1802C47.0216 26.0663 46.8374 26.1155 46.8803 26.2308Z" fill="#665048"/>
<path d="M34.8156 48.1158C31.9402 47.3318 29.0323 46.5391 26.3742 45.1588C25.2869 44.5942 24.2305 43.9393 23.2509 43.2027C22.3355 42.5143 21.4834 41.7194 20.8251 40.7769C20.0435 39.6577 19.5857 38.3641 19.4692 37.0046C19.4588 36.8834 19.2682 36.8822 19.2787 37.0046C19.3829 38.2199 19.7434 39.3935 20.3771 40.438C20.9717 41.4181 21.7734 42.256 22.658 42.9783C24.7664 44.6996 27.2501 45.9254 29.8071 46.8204C31.4357 47.3904 33.1014 47.8458 34.7652 48.2995C34.8834 48.332 34.934 48.1481 34.8156 48.1158Z" fill="#665048"/>
<path d="M39.4875 65.6297C41.0282 62.4771 42.606 59.261 44.9543 56.6176C45.6011 55.8895 46.3043 55.2133 47.0652 54.6052C47.1609 54.5287 47.0254 54.3947 46.9305 54.4705C44.1699 56.6769 42.2812 59.7296 40.6731 62.83C40.2094 63.7242 39.7654 64.6284 39.3231 65.5335C39.2695 65.6432 39.4337 65.7399 39.4875 65.6297Z" fill="#9E4400"/>
<path d="M43.4088 58.5726C43.0881 57.7768 43.401 56.9351 43.7546 56.207C44.14 55.4137 44.5624 54.6369 44.9676 53.8535C45.0239 53.7448 44.8596 53.6483 44.8033 53.7573C44.3673 54.5998 43.8988 55.4334 43.5028 56.2956C43.1702 57.0194 42.9125 57.847 43.2252 58.623C43.2703 58.7355 43.4546 58.6864 43.4088 58.5726Z" fill="#9E4400"/>
<path d="M49.0576 85.5195C50.1585 82.8749 51.1776 80.1969 52.1401 77.4989C53.1041 74.7968 54.0122 72.0748 54.8915 69.344C55.3319 67.9764 55.7665 66.6069 56.1944 65.2354C56.6147 63.8883 57.0138 62.5293 57.2531 61.1366C57.4861 59.7814 57.5627 58.3942 57.343 57.0319C57.173 55.9773 56.8094 54.9568 56.293 54.0228C55.2623 52.1587 53.6152 50.6213 51.6548 49.7782C51.4177 49.6762 51.1769 49.5842 50.9322 49.5021C50.8158 49.4629 50.7659 49.6469 50.8816 49.6858C52.9152 50.3695 54.6654 51.7893 55.8166 53.5945C56.3938 54.4995 56.8207 55.4997 57.0563 56.5479C57.3537 57.8703 57.3366 59.2479 57.148 60.5845C56.9541 61.9589 56.5864 63.3022 56.1825 64.6276C55.7753 65.9642 55.348 67.295 54.9221 68.6255C54.0661 71.2989 53.1848 73.9644 52.2525 76.6123C51.3172 79.2689 50.3306 81.9078 49.2667 84.5156C49.1369 84.8337 49.0059 85.1514 48.8738 85.4686C48.8268 85.582 49.0109 85.6313 49.0576 85.5195Z" fill="#9E4400"/>
<path d="M66.8304 53.1211L46.2666 49.0598L58.6065 33.1151L79.1704 37.1765L66.8304 53.1211Z" fill="#010100"/>
<path d="M60.3979 51.8511L39.7061 47.7645L39.8171 47.2017C39.9678 46.4377 40.7089 45.9404 41.4726 46.0913L60.7819 49.9049L60.3979 51.8511Z" fill="#010100"/>
<path d="M20.7932 49.8479C22.0721 49.9792 23.2801 49.1683 24.2453 48.4218C25.2197 47.6683 26.065 46.7596 26.7532 45.7381C26.822 45.6362 26.657 45.5407 26.5889 45.642C25.9267 46.6249 25.1132 47.5019 24.1804 48.2328C23.2381 48.9714 22.0477 49.786 20.7932 49.6572C20.6713 49.6449 20.6723 49.8356 20.7932 49.8479Z" fill="#9E4400"/>
<path d="M25.1238 47.4476C26.9875 49.9552 29.8852 51.4285 32.8345 52.2607C34.6238 52.7654 36.4641 53.0583 38.3003 53.3302C39.2409 53.4695 40.1825 53.6032 41.1209 53.7567C41.9417 53.891 42.7792 54.0131 43.5753 54.261C44.3378 54.4985 45.0671 54.8958 45.5076 55.5853C45.9275 56.2429 46.0567 57.0484 45.9958 57.8168C45.9282 58.6705 45.6057 59.4842 45.2184 60.2396C44.8041 61.0481 44.3187 61.8205 43.8596 62.6039C41.9767 65.8164 40.1505 69.0629 38.4231 72.3619C36.6968 75.6589 35.0691 79.0087 33.5863 82.4226C33.4039 82.8424 33.2239 83.2633 33.0458 83.6851C32.9987 83.7967 33.1626 83.894 33.2101 83.7813C34.6718 80.3188 36.2848 76.922 38.0047 73.5808C39.7311 70.227 41.564 66.9289 43.4591 63.6679C43.9261 62.8641 44.4019 62.0655 44.87 61.2623C45.3072 60.5121 45.726 59.7397 45.9768 58.9043C46.3969 57.5048 46.2673 55.7811 45.0583 54.8022C44.4711 54.3266 43.7406 54.0811 43.0135 53.9141C42.1208 53.7089 41.2095 53.5746 40.3046 53.4362C38.4268 53.149 36.5396 52.9098 34.6799 52.5154C31.5242 51.8464 28.3052 50.6532 26.0444 48.254C25.7749 47.968 25.5224 47.6668 25.2882 47.3514C25.2159 47.254 25.0505 47.3489 25.1238 47.4476Z" fill="#9E4400"/>
<path d="M37.1037 3.52886C36.2838 5.52811 36.4645 7.8766 37.5729 9.73027C37.6358 9.83545 37.8005 9.73972 37.7373 9.63408C36.6525 7.81974 36.4857 5.53466 37.2874 3.57947C37.3338 3.46621 37.1496 3.41682 37.1037 3.52886Z" fill="#C4A5A5"/>
<path d="M36.639 5.06283C35.7143 6.7354 35.3746 8.68648 35.6724 10.5738C35.6914 10.6946 35.875 10.6433 35.856 10.5232C35.5664 8.68861 35.9053 6.78357 36.8033 5.15917C36.8628 5.05155 36.6984 4.95536 36.639 5.06283Z" fill="#C4A5A5"/>
<path d="M38.9372 3.26588C38.7306 3.93754 38.9605 4.68723 39.4496 5.17916C39.9652 5.69761 40.7203 5.91377 41.4375 5.87307C41.5594 5.86621 41.5601 5.6755 41.4375 5.68252C40.7812 5.71971 40.093 5.53647 39.6113 5.07092C39.1505 4.62549 38.93 3.93738 39.1209 3.31664C39.157 3.19896 38.9733 3.14881 38.9372 3.26588Z" fill="#C4A5A5"/>
<path d="M74.0044 26.101C73.856 26.1012 73.7069 26.0821 73.5596 26.044L52.2449 20.531C51.3022 20.2873 50.7337 19.3217 50.9773 18.3784L55.1239 2.32525C55.2418 1.86839 55.5306 1.48485 55.9369 1.24521C56.3433 1.00558 56.8189 0.938808 57.275 1.05695L78.5897 6.56994C79.5324 6.81369 80.1009 7.7794 79.8573 8.72255L75.7107 24.7757C75.5928 25.2326 75.304 25.6163 74.8977 25.8557C74.6226 26.0179 74.3156 26.101 74.0044 26.101ZM56.8305 1.15238C56.5461 1.15238 56.2658 1.22829 56.0143 1.37662C55.6431 1.59552 55.3792 1.94598 55.2715 2.36336L51.1249 18.4165C50.9023 19.2783 51.4218 20.1606 52.2829 20.3834L73.5977 25.8964C74.0151 26.0042 74.4491 25.9431 74.8203 25.7243C75.1916 25.5054 75.4554 25.155 75.5631 24.7374L79.7097 8.68428C79.9323 7.82254 79.4128 6.94022 78.5515 6.71735L57.237 1.20451C57.1023 1.16976 56.9658 1.15238 56.8305 1.15238Z" fill="#010100"/>
<path d="M54.9668 3.20952L54.9287 3.35712L79.5152 9.71498L79.5533 9.56739L54.9668 3.20952Z" fill="#010100"/>
<path d="M59.1037 3.04647C59.0402 3.29235 58.7896 3.44007 58.5439 3.3765C58.2981 3.31293 58.1505 3.06217 58.2139 2.81628C58.2774 2.57039 58.528 2.42268 58.7737 2.48625C59.0195 2.54982 59.1672 2.80073 59.1037 3.04647Z" fill="#369949"/>
<path d="M57.6457 2.66988C57.5822 2.91576 57.3316 3.06348 57.0859 2.99991C56.8401 2.93635 56.6925 2.68558 56.7559 2.4397C56.8194 2.19381 57.07 2.0461 57.3157 2.10966C57.5615 2.17323 57.7092 2.42399 57.6457 2.66988Z" fill="#4EBDF4"/>
<path d="M60.5607 3.42372C60.4972 3.66961 60.2466 3.81733 60.0009 3.75376C59.7552 3.69019 59.6076 3.43943 59.6709 3.19354C59.7345 2.94766 59.9851 2.79994 60.2308 2.86351C60.4765 2.92708 60.6243 3.17784 60.5607 3.42372Z" fill="#FFC94F"/>
<path d="M63.8293 8.18241L56.6992 6.33862L53.8233 17.4751L60.9534 19.3189L63.8293 8.18241Z" fill="#369949"/>
<path d="M61.1653 20.8228C60.8468 20.8228 60.5263 20.7823 60.2097 20.7004C58.1847 20.1766 56.9629 18.1019 57.4864 16.0755C58.0096 14.0492 60.0822 12.8263 62.1081 13.3504C63.089 13.6042 63.9127 14.2249 64.427 15.0984C64.9414 15.9719 65.0849 16.9937 64.8313 17.9753C64.5778 18.9568 63.9575 19.7809 63.0845 20.2957C62.4932 20.6443 61.8339 20.8228 61.1653 20.8228ZM61.1594 13.5342C59.6074 13.5342 58.1873 14.5801 57.7811 16.1519C57.2999 18.0155 58.4235 19.9236 60.2857 20.4053C61.1879 20.6387 62.1267 20.5065 62.9298 20.0332C63.7325 19.5599 64.3032 18.8019 64.5364 17.8992C64.7695 16.9964 64.6374 16.057 64.1645 15.2536C63.6914 14.4501 62.9341 13.8792 62.032 13.646C61.7402 13.5702 61.4474 13.5342 61.1594 13.5342Z" fill="#FFC94F"/>
<path d="M72.2343 10.4393C72.2281 10.4393 72.2217 10.4385 72.2153 10.4369L68.8101 9.55623C68.7692 9.54571 68.7449 9.50409 68.7554 9.46339C68.7659 9.42269 68.8073 9.39784 68.8481 9.40867L72.2533 10.2893C72.2942 10.2998 72.3185 10.3414 72.308 10.3821C72.2992 10.4166 72.2683 10.4393 72.2343 10.4393Z" fill="#010100"/>
<path d="M75.5354 12.374C75.5291 12.374 75.5227 12.3732 75.5163 12.3715L68.5474 10.5691C68.5067 10.5586 68.4822 10.517 68.4927 10.4763C68.5032 10.4354 68.5443 10.4104 68.5854 10.4215L75.5544 12.224C75.5952 12.2345 75.6196 12.2761 75.6091 12.3168C75.6003 12.3513 75.5693 12.374 75.5354 12.374Z" fill="#010100"/>
<path d="M74.966 14.5781C74.9598 14.5781 74.9534 14.5773 74.947 14.5756L67.978 12.7732C67.9373 12.7627 67.9128 12.7211 67.9233 12.6804C67.9338 12.6397 67.9753 12.6147 68.0161 12.6256L74.9851 14.4281C75.0259 14.4386 75.0503 14.4802 75.0398 14.5209C75.0308 14.5554 74.9998 14.5781 74.966 14.5781Z" fill="#010100"/>
<path d="M74.6897 15.6563C74.6834 15.6563 74.677 15.6556 74.6706 15.6539L67.7017 13.8515C67.6608 13.8409 67.6365 13.7993 67.647 13.7586C67.6575 13.7179 67.6986 13.6931 67.7397 13.7039L74.7087 15.5063C74.7495 15.5169 74.7739 15.5585 74.7634 15.5992C74.7546 15.6336 74.7236 15.6563 74.6897 15.6563Z" fill="#010100"/>
<path d="M74.4102 16.7344C74.404 16.7344 74.3976 16.7336 74.3912 16.732L67.4224 14.9295C67.3815 14.919 67.3572 14.8774 67.3677 14.8367C67.3782 14.796 67.4193 14.7711 67.4605 14.782L74.4293 16.5844C74.4701 16.5949 74.4945 16.6365 74.484 16.6772C74.4751 16.7115 74.4442 16.7344 74.4102 16.7344Z" fill="#010100"/>
<path d="M73.7696 19.213C73.7633 19.213 73.7569 19.2123 73.7505 19.2106L66.7817 17.4081C66.7411 17.3976 66.7165 17.356 66.727 17.3153C66.7376 17.2745 66.7787 17.2495 66.8198 17.2606L73.7886 19.063C73.8295 19.0735 73.8538 19.1152 73.8433 19.1559C73.8345 19.1903 73.8036 19.213 73.7696 19.213Z" fill="#010100"/>
<path d="M73.4904 20.2913C73.4842 20.2913 73.4778 20.2905 73.4714 20.2888L66.5024 18.4864C66.4616 18.4759 66.4372 18.4343 66.4478 18.3936C66.4583 18.3529 66.4996 18.3279 66.5405 18.3388L73.5095 20.1413C73.5503 20.1518 73.5747 20.1934 73.5642 20.2341C73.5553 20.2684 73.5244 20.2913 73.4904 20.2913Z" fill="#010100"/>
<path d="M73.2131 21.3693C73.2069 21.3693 73.2005 21.3685 73.1941 21.3668L66.2251 19.5644C66.1843 19.5539 66.1599 19.5123 66.1704 19.4716C66.1809 19.4309 66.2219 19.4059 66.2632 19.4168L73.2321 21.2193C73.273 21.2298 73.2973 21.2714 73.2868 21.3121C73.278 21.3466 73.2471 21.3693 73.2131 21.3693Z" fill="#010100"/>
<path d="M29.9191 6.45475C29.9398 6.25124 29.9552 6.02715 29.8356 5.86145C29.7289 5.71358 29.5421 5.65154 29.3675 5.5991C25.3173 4.38492 21.0961 3.7436 16.8681 3.7C16.3224 3.69436 15.7184 3.72104 15.3249 4.09924C15.0381 4.37501 14.9263 4.78202 14.8359 5.16968C14.4465 6.83798 14.2279 8.54607 14.1845 10.2587C14.1711 10.7847 14.1799 11.335 14.4248 11.8005C14.9517 12.8028 16.2863 12.9895 17.418 13.0075C19.9019 13.047 22.3891 12.8632 24.8402 12.4591C25.6579 12.3243 26.5872 12.1911 27.2377 12.7049C27.9256 13.2482 27.9648 14.2364 28.2478 15.0821C28.3371 15.3492 28.7233 15.3164 28.76 15.0371C29.0477 12.8466 29.8553 7.08249 29.9191 6.45475Z" fill="#FC4F4F"/>
<path d="M22.2934 8.47547C22.2637 8.83309 21.9501 9.09894 21.5927 9.06922C21.2353 9.03949 20.9696 8.72562 20.9993 8.36799C21.029 8.01037 21.3427 7.74452 21.7001 7.77424C22.0575 7.80397 22.3231 8.11784 22.2934 8.47547Z" fill="white"/>
<path d="M20.0239 8.28693C19.9942 8.64455 19.6805 8.91041 19.3232 8.88068C18.9658 8.85096 18.7001 8.53708 18.7298 8.17946C18.7595 7.82184 19.0732 7.55598 19.4306 7.5857C19.7879 7.61528 20.0536 7.9293 20.0239 8.28693Z" fill="white"/>
<path d="M24.5591 8.66345C24.5294 9.02108 24.2157 9.28694 23.8583 9.25721C23.5009 9.22749 23.2353 8.91361 23.265 8.55599C23.2947 8.19836 23.6083 7.9325 23.9657 7.96223C24.3231 7.9918 24.5888 8.30583 24.5591 8.66345Z" fill="white"/>
<path d="M55.6608 29.357C56.1509 29.357 56.1518 28.5948 55.6608 28.5948C55.1707 28.5948 55.17 29.357 55.6608 29.357Z" fill="#010100"/>
<path d="M33.2467 69.5846C33.6451 69.5846 34.0268 69.234 34.0084 68.8224C33.99 68.4094 33.6737 68.0602 33.2467 68.0602C32.8483 68.0602 32.4666 68.4108 32.485 68.8224C32.5034 69.2353 32.8197 69.5846 33.2467 69.5846Z" fill="#010100"/>
<path d="M26.0934 71.732C26.4917 71.732 26.8735 71.3814 26.8551 70.9698C26.8366 70.5569 26.5204 70.2076 26.0934 70.2076C25.695 70.2076 25.3133 70.5583 25.3317 70.9698C25.3503 71.3828 25.6664 71.732 26.0934 71.732Z" fill="#010100"/>
<path d="M76.8815 34.2717C77.2798 34.2717 77.6616 33.921 77.6432 33.5095C77.6247 33.0965 77.3085 32.7473 76.8815 32.7473C76.4831 32.7473 76.1013 33.0979 76.1198 33.5095C76.1382 33.9224 76.4543 34.2717 76.8815 34.2717Z" fill="#010100"/>
<path d="M5.74667 31.7982C2.57775 31.7982 0 29.2201 0 26.0515C0 22.8826 2.57802 20.3048 5.74667 20.3048C8.91558 20.3048 11.4933 22.8828 11.4933 26.0515C11.4936 29.2201 8.91558 31.7982 5.74667 31.7982ZM5.74667 21.6933C3.34378 21.6933 1.38874 23.6483 1.38874 26.0512C1.38874 28.4541 3.34378 30.4091 5.74667 30.4091C8.14956 30.4091 10.1046 28.4541 10.1046 26.0512C10.1049 23.6483 8.14982 21.6933 5.74667 21.6933Z" fill="#EA6E6E"/>
<path d="M5.74667 31.7982C2.57775 31.7982 0 29.2201 0 26.0515H1.38874C1.38874 28.4544 3.34378 30.4094 5.74667 30.4094C8.14956 30.4094 10.1046 28.4544 10.1046 26.0515C10.1046 23.6486 8.14956 21.6935 5.74667 21.6935V20.3048C8.91558 20.3048 11.4933 22.8828 11.4933 26.0515C11.4936 29.2201 8.91558 31.7982 5.74667 31.7982Z" fill="#79D3C2"/>
<path d="M14.6853 34.631C13.2214 34.631 12.0303 33.4399 12.0303 31.976C12.0303 30.5121 13.2214 29.321 14.6853 29.321C16.1492 29.321 17.3403 30.5121 17.3403 31.976C17.3403 33.4401 16.1494 34.631 14.6853 34.631ZM14.6853 30.6145C13.9345 30.6145 13.3238 31.2252 13.3238 31.976C13.3238 32.7268 13.9345 33.3375 14.6853 33.3375C15.4358 33.3375 16.0468 32.7268 16.0468 31.976C16.0468 31.2255 15.4361 30.6145 14.6853 30.6145Z" fill="#F8896B"/>
<path d="M13.045 39.5154C13.8012 39.5154 14.4142 38.9023 14.4142 38.1461C14.4142 37.3899 13.8012 36.7769 13.045 36.7769C12.2888 36.7769 11.6758 37.3899 11.6758 38.1461C11.6758 38.9023 12.2888 39.5154 13.045 39.5154Z" fill="#F8896B"/>
<path d="M102.032 6.59241C103.717 6.32143 104.863 4.73584 104.592 3.05088C104.321 1.36591 102.736 0.219648 101.051 0.490621C99.3659 0.761595 98.2197 2.3472 98.4906 4.03216C98.7616 5.71712 100.347 6.86338 102.032 6.59241Z" fill="#87E6C8"/>
</svg>
