<svg width="169" height="248" viewBox="0 0 169 248" fill="none" xmlns="http://www.w3.org/2000/svg">
<path d="M154.439 17.0673C158.801 16.3657 161.769 12.2608 161.067 7.89853C160.366 3.5363 156.261 0.568709 151.899 1.27024C147.536 1.97176 144.569 6.07676 145.27 10.439C145.972 14.8012 150.077 17.7688 154.439 17.0673Z" fill="#87E6C8"/>
<path d="M107.047 189.733H25.9502V186.698C25.9502 182.165 29.6227 178.49 34.1527 178.49H107.047V189.733Z" fill="#4EBDF4"/>
<path d="M73.6825 230.298L70.7148 239.474L97.0413 248C97.0413 248 100.612 244.546 94.3864 237.004C88.1606 229.462 92.213 224.529 92.213 224.529C92.213 224.529 78.847 219.383 78.4597 220.075C78.0724 220.767 73.6825 230.298 73.6825 230.298Z" fill="#010100"/>
<path d="M97.4909 245.875C97.4745 245.875 97.4578 245.873 97.4414 245.867L71.9284 237.604C71.8439 237.577 71.7979 237.486 71.8253 237.402C71.8526 237.318 71.9422 237.272 72.0277 237.299L97.5407 245.562C97.6252 245.589 97.6712 245.68 97.6438 245.764C97.6217 245.832 97.5587 245.875 97.4909 245.875Z" fill="#C4A5A5"/>
<path d="M76.0454 238.93C76.0312 238.93 76.0164 238.928 76.002 238.924C75.9165 238.9 75.8667 238.812 75.8904 238.726C77.3844 233.373 73.6213 230.456 73.5827 230.427C73.5117 230.374 73.4975 230.273 73.5509 230.202C73.6046 230.131 73.7048 230.116 73.7758 230.17C73.8157 230.2 77.7543 233.242 76.1996 238.813C76.1804 238.883 76.1158 238.93 76.0454 238.93Z" fill="#C4A5A5"/>
<path d="M91.0209 243.78C90.9849 243.78 90.9483 243.767 90.9184 243.743C90.8502 243.686 90.8406 243.585 90.8975 243.516C94.265 239.452 96.3497 239.685 96.4371 239.697C96.5248 239.709 96.5865 239.79 96.5743 239.878C96.5621 239.966 96.4798 240.027 96.3943 240.016C96.3625 240.011 94.3688 239.83 91.145 243.721C91.1128 243.76 91.0669 243.78 91.0209 243.78Z" fill="#C4A5A5"/>
<path d="M104.165 229.122L101.197 238.298L127.524 246.824C127.524 246.824 131.095 243.37 124.869 235.828C118.643 228.286 122.695 223.353 122.695 223.353C122.695 223.353 109.329 218.207 108.942 218.899C108.555 219.591 104.165 229.122 104.165 229.122Z" fill="#010100"/>
<path d="M127.976 244.699C127.96 244.699 127.943 244.696 127.927 244.691L102.414 236.428C102.329 236.401 102.283 236.31 102.311 236.225C102.338 236.141 102.427 236.095 102.513 236.122L128.026 244.385C128.111 244.412 128.157 244.503 128.129 244.588C128.107 244.656 128.044 244.699 127.976 244.699Z" fill="#C4A5A5"/>
<path d="M106.531 237.754C106.517 237.754 106.502 237.752 106.487 237.748C106.402 237.724 106.352 237.636 106.376 237.55C107.872 232.189 104.107 229.28 104.068 229.251C103.997 229.198 103.983 229.097 104.036 229.026C104.09 228.955 104.191 228.941 104.261 228.994C104.301 229.025 108.24 232.067 106.685 237.637C106.665 237.707 106.601 237.754 106.531 237.754Z" fill="#C4A5A5"/>
<path d="M121.506 242.604C121.47 242.604 121.434 242.591 121.404 242.567C121.336 242.51 121.326 242.409 121.383 242.34C124.753 238.273 126.835 238.509 126.922 238.521C127.01 238.533 127.072 238.614 127.06 238.702C127.048 238.789 126.965 238.852 126.88 238.84C126.86 238.836 124.862 238.644 121.63 242.546C121.598 242.584 121.552 242.604 121.506 242.604Z" fill="#C4A5A5"/>
<path d="M90.2778 70.8158C89.7465 70.8432 89.1908 70.8705 88.7074 70.6483C87.8184 70.2395 87.4819 69.1321 87.4983 68.1534C87.5147 67.1746 87.7804 66.1988 87.6647 65.2268C87.425 63.2102 85.5932 61.7181 83.6763 61.0514C80.3461 59.8926 76.4133 60.6899 73.7964 63.0542C71.1794 65.4185 69.9863 69.2521 70.7988 72.6851C71.1713 74.2592 71.9813 75.7895 73.3132 76.7062C74.6452 77.6228 76.5499 77.7933 77.8616 76.8474C78.3434 76.5 78.7275 76.0253 79.2321 75.712C79.7367 75.3987 80.4503 75.2888 80.8909 75.6869C81.8629 76.5653 80.3326 78.1111 80.5589 79.4018C80.744 80.459 82.0021 80.9115 82.6565 81.7622C83.657 83.0626 83.154 85.1792 84.3461 86.3062C85.6283 87.5182 87.7072 86.6414 89.2114 85.7202C92.4371 83.7448 95.9949 81.9716 98.3646 78.929C99.2222 77.8284 99.9691 76.4492 99.6487 75.0102C99.2955 73.4246 97.8108 72.1245 96.3783 71.4996C94.4691 70.6672 92.3166 70.7103 90.2778 70.8158Z" fill="#010100"/>
<path d="M71.3011 146.965C67.2731 150.846 64.8503 156.223 64.6623 161.699C64.4743 167.174 66.5227 172.692 70.2755 176.82C74.6454 181.627 81.0602 184.398 87.5978 185.547C94.1354 186.697 100.852 186.356 107.473 185.796C100.31 198.544 93.4093 211.855 87.4715 225.171C90.9929 228.328 96.0487 229.555 100.823 230.182C108.596 231.202 116.511 231.226 124.29 230.254C130.627 216.812 135.763 202.778 139.884 188.564C141.616 182.587 143.075 175.889 140.009 170.426C137.521 165.994 132.608 163.417 127.96 161.084C123.793 158.993 119.627 156.902 115.46 154.811C113.424 153.789 111.377 152.762 109.193 152.076C106.56 151.248 103.787 150.933 101.036 150.623C92.2062 149.626 80.131 147.961 71.3011 146.965Z" fill="#F4A21E"/>
<path d="M50.3187 142.984C46.2907 147.238 43.8679 153.132 43.6799 159.133C43.4918 165.134 45.5402 171.183 49.293 175.707C53.663 180.975 60.0778 184.013 66.6154 185.273C73.1529 186.533 79.8699 186.159 86.4907 185.545C79.328 199.518 72.4269 214.108 66.489 228.702C70.0105 232.163 75.0663 233.508 79.8406 234.195C87.614 235.312 95.5282 235.339 103.308 234.274C109.644 219.541 114.781 204.158 118.901 188.579C120.634 182.027 122.092 174.686 119.026 168.699C116.539 163.841 111.625 161.017 106.977 158.46C102.811 156.168 98.6443 153.875 94.4778 151.583C92.442 150.463 90.3943 149.338 88.2109 148.586C85.5779 147.679 82.8047 147.334 80.0531 146.994C71.2238 145.901 59.1486 144.076 50.3187 142.984Z" fill="#FFC94F"/>
<path d="M75.424 96.0094C70.2228 94.9573 58.8927 98.4367 54.3572 101.551C50.9544 103.887 45.8407 109.356 43.7913 114.662C40.645 122.808 38.8962 132.845 43.6843 139.982C44.9712 141.9 46.6558 143.467 48.4515 144.818C54.2633 149.188 64.8424 154.432 73.4402 155.453C73.5868 155.471 73.6154 152.504 73.7619 152.521C79.9926 153.229 84.3381 153.324 89.4476 152.961C92.8337 152.72 95.9016 153.612 99.29 153.811C100.659 153.891 102.079 153.964 103.354 153.415C105.733 152.393 109.448 151.445 107.626 149.374C97.474 137.837 112.05 120.443 104.102 109.609C100.774 105.074 97.2631 101.722 92.6351 99.0597C87.8373 96.2992 81.6713 97.2731 75.424 96.0094Z" fill="#EFD7CE"/>
<path d="M99.8616 79.6955C100.035 78.5498 100.11 77.3684 99.8413 76.2418C99.5726 75.1148 98.9237 74.0399 97.9205 73.4609C97.2671 73.084 96.5031 72.9357 95.7494 72.9103C93.3902 72.8299 90.9902 74.0048 89.7299 76.0002C89.3744 76.5631 88.9502 77.0809 88.4195 77.483C88.262 77.602 88.0836 77.6959 87.8908 77.6824C87.293 77.6405 87.2412 76.7725 86.8584 76.3109C86.4129 75.7738 85.4998 75.8934 84.9955 76.3756C84.4912 76.8577 84.2954 77.5714 84.1389 78.2517C83.9763 78.958 83.8329 79.6932 83.9824 80.4027C84.1318 81.1119 84.6474 81.7925 85.3613 81.915C85.5936 81.9549 85.8411 81.9366 86.0552 82.036C86.4975 82.2415 86.5833 82.878 86.3528 83.3083C86.1224 83.7384 82.1236 92.1365 80.6924 92.6559C81.2362 94.3139 82.5216 96.7329 84.6001 98.096C85.9221 98.9628 87.7073 98.124 87.9313 96.5586C88.2559 94.293 88.5323 91.372 88.9483 89.7596C90.2121 90.7705 91.0178 91.0458 92.5597 90.7548C93.2272 90.6287 93.872 90.4 94.447 90.0375C97.8469 87.8948 99.2705 83.5901 99.8616 79.6955Z" fill="#B3614C"/>
<path d="M94.5174 84.5713C94.4492 84.5713 94.3824 84.569 94.3184 84.5667C94.2297 84.5639 94.1603 84.4896 94.1632 84.4008C94.1664 84.3136 94.2374 84.2454 94.3239 84.2454C94.3255 84.2454 94.3274 84.2454 94.3293 84.2454C94.5248 84.2522 94.7263 84.2589 94.9021 84.2007C95.0702 84.1454 95.1962 84.0248 95.2226 83.8936C95.2399 83.808 95.22 83.7077 95.1994 83.6019L95.1917 83.5607C94.9323 82.1957 95.5038 80.7175 96.613 79.8822C96.6834 79.8291 96.7843 79.8429 96.838 79.914C96.8913 79.9851 96.8772 80.0858 96.8062 80.1392C95.7924 80.9027 95.2704 82.2536 95.5073 83.5009L95.5147 83.5404C95.5395 83.6662 95.5671 83.809 95.5375 83.9573C95.488 84.2039 95.283 84.4143 95.0024 84.5066C94.8413 84.5594 94.6755 84.5713 94.5174 84.5713Z" fill="#6B0027"/>
<path d="M94.0655 85.704C94.0446 85.704 94.0234 85.6998 94.0031 85.6915C93.1751 85.3422 92.4899 84.6709 92.1235 83.8498C92.0871 83.7684 92.1235 83.6736 92.2045 83.6372C92.2855 83.6009 92.3806 83.6375 92.4166 83.7186C92.7502 84.4664 93.3738 85.0775 94.1278 85.3949C94.2095 85.4293 94.248 85.5236 94.2136 85.6056C94.1876 85.667 94.1284 85.704 94.0655 85.704Z" fill="#6B0027"/>
<path d="M92.6359 85.9131C92.6211 85.9131 92.606 85.9112 92.5909 85.9067C92.3666 85.8414 92.1676 85.7015 92.0307 85.5127C91.9786 85.4406 91.9944 85.3403 92.066 85.2882C92.1374 85.2364 92.238 85.2515 92.2904 85.3236C92.3859 85.4551 92.5247 85.5522 92.6806 85.5979C92.7661 85.6227 92.8149 85.7121 92.7902 85.7973C92.7696 85.8674 92.7057 85.9131 92.6359 85.9131Z" fill="#6B0027"/>
<path d="M89.1942 90.1297C89.1595 90.1297 89.1242 90.1185 89.0946 90.0953C87.9619 89.2024 87.2548 87.7512 87.25 86.3084C87.2497 86.2193 87.3107 86.1402 87.4107 86.1469C87.4991 86.1469 87.5711 86.2187 87.5714 86.3071C87.5762 87.6544 88.2361 89.0091 89.2935 89.8428C89.3633 89.8978 89.3752 89.9988 89.3202 90.0686C89.2887 90.1085 89.2418 90.1297 89.1942 90.1297Z" fill="#6B0027"/>
<path d="M91.1149 79.3967C91.048 79.3967 90.9857 79.3549 90.9629 79.288C90.9339 79.2041 90.9789 79.1124 91.0628 79.0838C91.9683 78.7744 92.9756 78.7413 93.8987 78.9918C93.9845 79.015 94.0349 79.1034 94.0118 79.189C93.9887 79.2745 93.9022 79.3269 93.8148 79.3022C92.9527 79.0687 92.0126 79.0989 91.1673 79.3881C91.1499 79.3938 91.1322 79.3967 91.1149 79.3967Z" fill="#010100"/>
<path d="M96.4771 81.4568C96.416 81.4568 96.3579 81.4217 96.3309 81.3626C96.2942 81.2818 96.3296 81.1863 96.4106 81.1496C97.1003 80.8351 97.8891 80.7531 98.6296 80.919C98.7164 80.9383 98.7704 81.0245 98.7514 81.1111C98.7318 81.1976 98.647 81.2526 98.5592 81.2326C97.8868 81.0827 97.1707 81.1564 96.5436 81.442C96.5221 81.4523 96.4993 81.4568 96.4771 81.4568Z" fill="#010100"/>
<path d="M93.1529 79.9536C93.0115 80.3431 92.7116 80.5914 92.4824 80.5084C92.2536 80.4254 92.1822 80.0423 92.3236 79.6525C92.4651 79.263 92.7649 79.0147 92.9941 79.0977C93.223 79.181 93.294 79.5641 93.1529 79.9536Z" fill="#010100"/>
<path d="M98.0092 81.9097C97.8681 82.2992 97.5679 82.5475 97.3387 82.4645C97.1099 82.3815 97.0389 81.9981 97.18 81.6086C97.3214 81.2191 97.6213 80.9708 97.8504 81.0538C98.0793 81.1371 98.1503 81.5202 98.0092 81.9097Z" fill="#010100"/>
<path d="M93.722 77.7832C93.9403 77.7295 94.173 77.5683 94.1595 77.3438C94.153 77.2345 94.0875 77.1373 94.0132 77.0569C93.6957 76.7125 93.1888 76.5832 92.7256 76.652C92.2625 76.7208 91.8405 76.9662 91.4859 77.2721C91.3336 77.4037 91.1668 77.606 91.3188 77.8034C91.423 77.9385 91.5718 77.8768 91.7077 77.8311C92.1281 77.6899 92.5415 77.7603 92.9722 77.8044C93.2209 77.8301 93.4765 77.8436 93.722 77.7832Z" fill="#010100"/>
<path d="M97.6202 79.5831C97.49 79.4985 97.4077 79.3306 97.5395 79.1656C97.6038 79.0852 97.7044 79.0257 97.8024 78.9807C98.2222 78.7877 98.6635 78.7938 98.9647 78.9395C99.2658 79.0852 99.4407 79.3544 99.5332 79.6555C99.5731 79.7848 99.585 79.9704 99.3661 80.0871C99.2163 80.1672 99.1414 80.0906 99.0669 80.0286C98.8361 79.8375 98.4957 79.8063 98.1569 79.7516C97.9612 79.7198 97.7668 79.6783 97.6202 79.5831Z" fill="#010100"/>
<path d="M93.0052 82.1163C92.9197 82.5878 92.2348 82.858 91.475 82.72C90.7151 82.582 90.1684 82.0883 90.2539 81.6171C90.3394 81.146 91.0243 80.8755 91.7842 81.0134C92.544 81.1511 93.0907 81.6448 93.0052 82.1163Z" fill="#D64747"/>
<path d="M98.0254 84.0365C97.9399 84.508 97.4375 84.8113 96.9033 84.7145C96.3692 84.6176 96.0053 84.1567 96.0905 83.6856C96.1757 83.2144 96.678 82.9107 97.2125 83.0076C97.7471 83.1047 98.1109 83.5653 98.0254 84.0365Z" fill="#D64747"/>
<path d="M82.1601 91.0195C82.1601 91.0195 79.9407 93.9972 75.4248 96.0093C75.4248 96.0093 88.9802 121.959 92.6359 99.0593C92.6359 99.0593 87.6161 96.9735 88.5382 91.967C89.1119 88.851 82.1601 91.0195 82.1601 91.0195Z" fill="#B3614C"/>
<path d="M77.3376 137.323C77.3376 137.323 69.1438 146.985 73.4424 155.454C73.4424 155.454 81.7214 147.627 77.3376 137.323Z" fill="#665048"/>
<path d="M74.077 149.051C76.6339 150.104 79.291 150.913 82.0009 151.463C82.6099 151.586 83.2399 151.697 83.8487 151.572C84.8296 151.37 85.5869 150.597 86.1892 149.796C86.7915 148.996 87.3219 148.112 88.1244 147.513C88.927 146.914 90.1166 146.679 90.9127 147.287C91.4903 147.728 91.75 148.517 92.3781 148.883C93.126 149.318 94.1699 148.924 94.6064 148.177C95.0429 147.429 94.9497 146.457 94.5527 145.688C93.7415 144.115 91.6578 143.342 90.0179 144.006C91.9608 142.563 94.9214 142.834 96.2775 144.838C96.6117 145.333 96.8808 145.925 97.4159 146.189C98.2304 146.59 99.2489 145.957 99.5941 145.117C99.9393 144.276 99.8043 143.325 99.6632 142.428C99.9017 142.956 100.316 142.946 100.855 142.736C101.394 142.525 101.755 141.985 101.876 141.419C102.043 140.642 101.794 139.788 101.236 139.224C100.707 138.688 99.9647 138.433 99.2505 138.195C97.1482 137.495 94.9937 136.786 92.7785 136.842C90.5637 136.898 88.2385 137.872 87.1653 139.812C88.1511 138.229 89.6676 136.748 91.5099 136.469C92.2466 136.358 93.0006 136.374 93.7293 136.22C94.4579 136.066 95.193 135.7 95.5466 135.044C95.9001 134.388 95.7028 133.417 95.0137 133.134C94.6215 132.973 93.8743 132.805 93.4506 132.793C91.3508 132.734 89.6149 132.85 87.678 133.663C85.7412 134.477 83.9428 136.851 82.7816 138.603C82.2847 139.352 81.8858 140.214 81.1388 140.714C80.5005 141.141 79.7021 141.236 78.9355 141.283C77.618 141.364 76.1428 141.211 74.8298 141.079C73.4683 143.31 72.5362 146.388 72.3253 148.22C72.279 148.622 73.7036 148.898 74.077 149.051Z" fill="#B3614C"/>
<path d="M88.2358 144.868C89.6639 144 91.5882 143.65 93.1432 144.401C93.839 144.737 94.4079 145.295 94.6525 146.039C94.8849 146.746 94.821 147.512 94.3723 148.118C94.2183 148.326 94.5671 148.527 94.7191 148.321C95.7714 146.898 94.9482 144.931 93.5208 144.144C91.8196 143.206 89.6366 143.546 88.033 144.521C87.8122 144.655 88.014 145.002 88.2358 144.868Z" fill="#6B0027"/>
<path d="M87.9757 141.745C90.073 140.432 92.5823 139.833 95.0465 140.098C96.2412 140.226 97.5009 140.542 98.4484 141.319C99.375 142.079 99.9214 143.326 99.5393 144.504C99.4592 144.751 99.8472 144.857 99.9266 144.611C100.296 143.474 99.8964 142.24 99.1012 141.381C98.2141 140.423 96.8988 139.973 95.6408 139.774C92.9239 139.345 90.1019 139.939 87.7729 141.398C87.5544 141.535 87.7556 141.883 87.9757 141.745Z" fill="#6B0027"/>
<path d="M87.0119 140.144C87.7027 139.156 88.7135 138.408 89.8574 138.031C90.102 137.951 89.9972 137.562 89.7507 137.644C88.502 138.055 87.4185 138.864 86.6651 139.942C86.5163 140.154 86.8644 140.355 87.0119 140.144Z" fill="#6B0027"/>
<path d="M92.6272 132.919C92.6526 133.531 93.0881 134.029 93.6422 134.249C94.2911 134.508 95.0275 134.324 95.624 134.016C95.8538 133.898 95.651 133.551 95.4212 133.669C94.9369 133.919 94.3535 134.071 93.8203 133.888C93.4085 133.747 93.0472 133.369 93.0286 132.919C93.0183 132.661 92.6162 132.66 92.6272 132.919Z" fill="#6B0027"/>
<path d="M99.7162 138.406C99.4697 139.085 99.6027 139.868 100.049 140.433C100.482 140.98 101.211 141.277 101.902 141.201C102.01 141.19 102.103 141.117 102.103 141C102.103 140.901 102.011 140.787 101.902 140.799C101.32 140.863 100.729 140.638 100.358 140.179C99.9833 139.715 99.9026 139.066 100.103 138.513C100.192 138.269 99.8039 138.164 99.7162 138.406Z" fill="#6B0027"/>
<path d="M98.7836 141.545C98.172 142.061 97.7963 142.835 97.7799 143.637C97.7628 144.459 98.134 145.267 98.7512 145.805C98.9453 145.974 99.2307 145.691 99.0353 145.521C98.4934 145.048 98.1665 144.361 98.1816 143.637C98.1961 142.935 98.5348 142.278 99.0678 141.829C99.2657 141.662 98.9803 141.379 98.7836 141.545Z" fill="#6B0027"/>
<path d="M94.3853 144.981C93.9832 144.935 93.6486 145.228 93.4394 145.541C93.2173 145.874 93.1019 146.281 93.1035 146.681C93.1067 147.461 93.5889 148.189 94.2973 148.51C94.5309 148.616 94.7357 148.269 94.5001 148.163C93.9524 147.915 93.5452 147.392 93.5088 146.781C93.4905 146.475 93.5525 146.165 93.6972 145.894C93.8347 145.636 94.0617 145.346 94.3856 145.382C94.6418 145.412 94.6399 145.01 94.3853 144.981Z" fill="#6B0027"/>
<path d="M83.7777 141.24C83.6064 141.24 83.4403 141.184 83.302 141.078C83.1349 140.951 83.0276 140.765 83.0002 140.557C82.9424 140.127 83.2455 139.73 83.6752 139.672C83.8832 139.645 84.0898 139.699 84.2573 139.827C84.4244 139.954 84.5318 140.139 84.5591 140.348C84.5871 140.556 84.5321 140.763 84.4048 140.93C84.2775 141.097 84.0924 141.204 83.8844 141.232C83.8485 141.237 83.8131 141.24 83.7777 141.24ZM83.78 139.987C83.7594 139.987 83.7385 139.988 83.7176 139.991C83.4637 140.025 83.2844 140.26 83.3184 140.515C83.3352 140.638 83.3985 140.747 83.4975 140.822C83.5958 140.898 83.7173 140.93 83.8414 140.914C83.9645 140.897 84.0738 140.834 84.149 140.735C84.2245 140.636 84.257 140.514 84.2406 140.391C84.2239 140.268 84.1605 140.158 84.0615 140.083C83.9796 140.02 83.8816 139.987 83.78 139.987Z" fill="#6B0027"/>
<path d="M85.0053 142.868C84.834 142.868 84.6678 142.813 84.5296 142.707C84.3625 142.579 84.2551 142.394 84.2278 142.186C84.1699 141.756 84.473 141.359 84.9028 141.301C85.111 141.273 85.3174 141.328 85.4848 141.456C85.652 141.583 85.7593 141.768 85.7867 141.977C85.8445 142.407 85.5414 142.804 85.1117 142.861C85.0757 142.866 85.0403 142.868 85.0053 142.868ZM85.0075 141.616C84.9867 141.616 84.9658 141.617 84.9449 141.62C84.6909 141.654 84.5116 141.889 84.5457 142.143C84.5624 142.266 84.6257 142.376 84.7247 142.451C84.823 142.527 84.9449 142.559 85.0686 142.542C85.3229 142.508 85.5019 142.274 85.4678 142.019C85.4511 141.896 85.3878 141.787 85.2888 141.711C85.2071 141.649 85.1088 141.616 85.0075 141.616Z" fill="#6B0027"/>
<path d="M85.5294 144.902C85.3581 144.902 85.1922 144.846 85.054 144.74C84.8869 144.612 84.7795 144.427 84.7522 144.219C84.6943 143.789 84.9974 143.392 85.4272 143.334C85.8521 143.278 86.2532 143.579 86.3111 144.01V144.01C86.3689 144.44 86.0658 144.837 85.6358 144.895C85.5998 144.899 85.5644 144.902 85.5294 144.902ZM85.5313 143.649C85.5111 143.649 85.4902 143.65 85.4693 143.653C85.215 143.687 85.036 143.922 85.0701 144.176C85.0868 144.299 85.1501 144.409 85.2488 144.484C85.3478 144.56 85.4686 144.592 85.5927 144.576C85.8469 144.541 86.0263 144.307 85.9922 144.052C85.9604 143.819 85.7605 143.649 85.5313 143.649Z" fill="#6B0027"/>
<path d="M86.203 146.97C85.8614 146.97 85.5634 146.717 85.5171 146.369C85.4924 146.186 85.5402 146.003 85.6527 145.856C85.7652 145.709 85.9282 145.614 86.1114 145.59C86.293 145.565 86.4765 145.614 86.6237 145.726C86.7706 145.838 86.8651 146.001 86.8896 146.185C86.9143 146.368 86.8661 146.55 86.7536 146.697C86.6414 146.845 86.4788 146.939 86.2953 146.964C86.2644 146.968 86.2336 146.97 86.203 146.97ZM86.2043 145.905C86.1876 145.905 86.1709 145.907 86.1541 145.909C86.0558 145.922 85.9687 145.973 85.9083 146.052C85.8482 146.131 85.8221 146.228 85.8353 146.326C85.8626 146.529 86.0481 146.672 86.2525 146.645C86.3509 146.632 86.438 146.581 86.4984 146.503C86.5582 146.424 86.5845 146.326 86.5714 146.228C86.5582 146.13 86.5074 146.042 86.4286 145.982C86.3631 145.932 86.285 145.905 86.2043 145.905Z" fill="#6B0027"/>
<path d="M77.3953 137.087C70.597 133.069 64.0029 128.719 57.4614 124.299C55.6104 123.048 53.7636 121.791 51.9164 120.534C51.702 120.389 51.5008 120.737 51.7136 120.881C58.2415 125.323 64.772 129.766 71.4684 133.952C73.3622 135.135 75.2694 136.297 77.1921 137.434C77.4158 137.566 77.618 137.218 77.3953 137.087Z" fill="#665048"/>
<path d="M64.0618 99.2098C65.8074 101.41 66.5926 104.303 66.1967 107.084C66.1607 107.337 66.5477 107.447 66.584 107.191C67.0025 104.251 66.1912 101.251 64.346 98.9254C64.1849 98.7228 63.9024 99.0091 64.0618 99.2098Z" fill="#665048"/>
<path d="M65.726 110.562C64.6313 115.996 62.8458 121.277 60.412 126.257C60.2989 126.489 60.6454 126.693 60.7588 126.46C63.2077 121.449 65.0115 116.137 66.1133 110.669C66.1641 110.416 65.7771 110.308 65.726 110.562Z" fill="#665048"/>
<path d="M59.3968 124.144C58.987 123.363 58.6386 122.553 58.3542 121.718C58.2713 121.474 57.883 121.579 57.9669 121.825C58.2623 122.692 58.6245 123.535 59.05 124.346C59.1702 124.575 59.5174 124.373 59.3968 124.144Z" fill="#665048"/>
<path d="M98.9123 109.234C100.391 113.21 101.814 117.337 100.813 121.609C99.9948 125.102 98.1081 128.216 97.0583 131.631C96.4949 133.464 96.222 135.367 96.5139 137.274C96.5528 137.529 96.94 137.421 96.9012 137.167C96.3454 133.537 97.9824 130.092 99.3719 126.844C100.069 125.214 100.754 123.565 101.171 121.837C101.624 119.963 101.677 118.058 101.381 116.155C101.005 113.731 100.151 111.416 99.2996 109.128C99.2102 108.887 98.8216 108.991 98.9123 109.234Z" fill="#665048"/>
<path d="M73.4577 155.409C67.391 153.755 61.2556 152.083 55.6472 149.17C53.3533 147.979 51.1243 146.597 49.0576 145.043C47.1262 143.591 45.3282 141.914 43.9393 139.925C42.2902 137.564 41.3243 134.834 41.0784 131.966C41.0566 131.71 40.6545 131.708 40.6767 131.966C40.8965 134.53 41.657 137.006 42.9941 139.21C44.2486 141.278 45.9402 143.046 47.8066 144.57C52.255 148.202 57.4953 150.788 62.8903 152.676C66.3265 153.879 69.8409 154.84 73.3514 155.797C73.6008 155.865 73.7075 155.478 73.4577 155.409Z" fill="#665048"/>
<path d="M83.3145 192.362C86.5653 185.71 89.8942 178.924 94.8488 173.347C96.2135 171.811 97.6972 170.384 99.3027 169.101C99.5045 168.94 99.2188 168.657 99.0185 168.817C93.1938 173.472 89.2089 179.913 85.8161 186.455C84.8377 188.341 83.9008 190.249 82.9677 192.159C82.8546 192.39 83.2011 192.594 83.3145 192.362Z" fill="#9E4400"/>
<path d="M91.5886 177.472C90.912 175.793 91.5722 174.017 92.3182 172.481C93.1314 170.807 94.0227 169.168 94.8776 167.515C94.9962 167.286 94.6497 167.082 94.5308 167.312C93.6109 169.09 92.6226 170.849 91.7869 172.668C91.0853 174.195 90.5414 175.941 91.2013 177.578C91.2964 177.816 91.6853 177.712 91.5886 177.472Z" fill="#9E4400"/>
<path d="M103.505 234.327C105.828 228.747 107.978 223.097 110.009 217.404C112.043 211.703 113.959 205.96 115.814 200.198C116.743 197.313 117.66 194.424 118.563 191.53C119.45 188.688 120.292 185.82 120.797 182.882C121.289 180.022 121.45 177.096 120.987 174.221C120.628 171.996 119.861 169.843 118.771 167.872C116.597 163.939 113.121 160.696 108.985 158.917C108.485 158.701 107.977 158.508 107.461 158.334C107.215 158.252 107.11 158.64 107.354 158.722C111.644 160.164 115.337 163.16 117.766 166.969C118.984 168.878 119.885 170.988 120.382 173.2C121.009 175.99 120.973 178.897 120.575 181.717C120.166 184.617 119.39 187.451 118.538 190.247C117.679 193.068 116.777 195.875 115.879 198.683C114.073 204.323 112.213 209.947 110.246 215.534C108.273 221.139 106.191 226.707 103.947 232.209C103.673 232.88 103.396 233.55 103.118 234.22C103.018 234.459 103.407 234.563 103.505 234.327Z" fill="#9E4400"/>
<path d="M141.005 165.97L97.6172 157.401L123.653 123.759L167.04 132.329L141.005 165.97Z" fill="#010100"/>
<path d="M127.434 163.29L83.7764 154.668L84.0107 153.481C84.3286 151.869 85.8922 150.819 87.5035 151.138L128.244 159.184L127.434 163.29Z" fill="#010100"/>
<path d="M43.8708 159.064C46.5691 159.341 49.1179 157.63 51.1544 156.055C53.2102 154.465 54.9937 152.548 56.4459 150.393C56.5908 150.178 56.2427 149.976 56.0991 150.19C54.7019 152.264 52.9855 154.114 51.0175 155.656C49.0292 157.215 46.5177 158.933 43.8708 158.662C43.6137 158.636 43.6156 159.038 43.8708 159.064Z" fill="#9E4400"/>
<path d="M53.0093 153.999C56.9415 159.29 63.0555 162.399 69.2781 164.155C73.0534 165.22 76.9361 165.837 80.8104 166.411C82.7948 166.705 84.7815 166.987 86.7614 167.311C88.4932 167.594 90.2603 167.852 91.9401 168.375C93.5487 168.876 95.0877 169.714 96.0169 171.169C96.903 172.557 97.1756 174.256 97.047 175.877C96.9043 177.679 96.2239 179.395 95.4068 180.989C94.5326 182.695 93.5085 184.325 92.5398 185.978C88.5671 192.756 84.714 199.606 81.0695 206.566C77.4272 213.522 73.9929 220.59 70.8642 227.793C70.4795 228.679 70.0996 229.567 69.7239 230.457C69.6246 230.692 69.9704 230.897 70.0707 230.66C73.1546 223.354 76.5578 216.187 80.1866 209.138C83.8292 202.061 87.6964 195.103 91.6948 188.223C92.6803 186.527 93.684 184.842 94.6717 183.147C95.5942 181.564 96.4778 179.935 97.0068 178.172C97.8933 175.219 97.6198 171.582 95.069 169.517C93.83 168.513 92.2888 167.996 90.7547 167.643C88.8712 167.21 86.9485 166.927 85.0393 166.635C81.0772 166.029 77.0955 165.524 73.1717 164.692C66.5136 163.28 59.7218 160.763 54.9516 155.701C54.3831 155.097 53.8505 154.462 53.3561 153.796C53.2038 153.591 52.8547 153.791 53.0093 153.999Z" fill="#9E4400"/>
<path d="M78.2849 61.3357C76.555 65.5539 76.9362 70.509 79.2748 74.42C79.4076 74.6419 79.755 74.44 79.6216 74.2171C77.3328 70.389 76.9809 65.5678 78.6725 61.4425C78.7702 61.2035 78.3816 61.0993 78.2849 61.3357Z" fill="#C4A5A5"/>
<path d="M77.3039 64.5723C75.3529 68.1012 74.6362 72.2178 75.2646 76.1999C75.3047 76.4546 75.692 76.3466 75.6518 76.0931C75.0408 72.2223 75.756 68.2029 77.6507 64.7756C77.7761 64.5485 77.4293 64.3455 77.3039 64.5723Z" fill="#C4A5A5"/>
<path d="M82.1532 60.7809C81.7174 62.198 82.2024 63.7798 83.2345 64.8177C84.3221 65.9116 85.9154 66.3677 87.4286 66.2818C87.6857 66.2673 87.6873 65.8649 87.4286 65.8797C86.0439 65.9582 84.5918 65.5716 83.5755 64.5893C82.6032 63.6495 82.1381 62.1977 82.5409 60.888C82.617 60.6397 82.2294 60.5339 82.1532 60.7809Z" fill="#C4A5A5"/>
<path d="M156.14 108.961C155.827 108.961 155.512 108.921 155.202 108.84L110.23 97.2084C108.241 96.6941 107.042 94.6569 107.555 92.6667L116.304 58.7963C116.553 57.8323 117.163 57.0231 118.02 56.5175C118.877 56.0119 119.881 55.871 120.843 56.1203L165.815 67.7521C167.804 68.2664 169.003 70.3039 168.489 72.2939L159.74 106.164C159.492 107.128 158.882 107.938 158.025 108.443C157.444 108.785 156.797 108.961 156.14 108.961ZM119.905 56.3216C119.305 56.3216 118.714 56.4818 118.183 56.7948C117.4 57.2566 116.843 57.996 116.616 58.8767L107.867 92.7471C107.397 94.5652 108.493 96.4268 110.31 96.8971L155.282 108.529C156.163 108.756 157.078 108.627 157.862 108.166C158.645 107.704 159.202 106.964 159.429 106.084L168.178 72.2131C168.647 70.3949 167.551 68.5333 165.734 68.0631L120.763 56.4316C120.479 56.3583 120.191 56.3216 119.905 56.3216Z" fill="#010100"/>
<path d="M115.973 60.662L115.893 60.9734L167.767 74.3878L167.848 74.0764L115.973 60.662Z" fill="#010100"/>
<path d="M124.701 60.318C124.567 60.8368 124.039 61.1484 123.52 61.0143C123.002 60.8802 122.69 60.3511 122.824 59.8323C122.958 59.3135 123.487 59.0019 124.005 59.136C124.524 59.2701 124.835 59.7995 124.701 60.318Z" fill="#369949"/>
<path d="M121.626 59.5234C121.492 60.0422 120.963 60.3539 120.445 60.2198C119.927 60.0856 119.615 59.5566 119.749 59.0378C119.883 58.519 120.412 58.2073 120.93 58.3414C121.448 58.4756 121.76 59.0046 121.626 59.5234Z" fill="#4EBDF4"/>
<path d="M127.778 61.1139C127.643 61.6327 127.115 61.9444 126.596 61.8103C126.078 61.6762 125.766 61.1471 125.9 60.6283C126.034 60.1095 126.563 59.7978 127.081 59.9319C127.6 60.0661 127.912 60.5951 127.778 61.1139Z" fill="#FFC94F"/>
<path d="M134.673 71.1543L119.629 67.2641L113.561 90.7608L128.605 94.651L134.673 71.1543Z" fill="#369949"/>
<path d="M129.053 97.8241C128.381 97.8241 127.705 97.7385 127.037 97.5658C122.764 96.4607 120.186 92.0833 121.291 87.8078C122.395 83.5324 126.768 80.9523 131.042 82.058C133.112 82.5935 134.85 83.9032 135.935 85.7462C137.02 87.5891 137.323 89.745 136.788 91.816C136.253 93.887 134.944 95.6257 133.102 96.7119C131.855 97.4475 130.464 97.8241 129.053 97.8241ZM129.04 82.4459C125.766 82.4459 122.77 84.6526 121.913 87.969C120.897 91.9009 123.268 95.9268 127.197 96.9431C129.1 97.4356 131.081 97.1567 132.776 96.158C134.469 95.1594 135.673 93.5602 136.165 91.6555C136.657 89.7508 136.379 87.7686 135.381 86.0736C134.383 84.3783 132.785 83.1738 130.881 82.6817C130.266 82.5218 129.648 82.4459 129.04 82.4459Z" fill="#FFC94F"/>
<path d="M152.406 75.916C152.393 75.916 152.379 75.9144 152.366 75.9109L145.181 74.0528C145.095 74.0306 145.044 73.9428 145.066 73.857C145.088 73.7711 145.175 73.7187 145.261 73.7415L152.446 75.5996C152.532 75.6218 152.584 75.7096 152.561 75.7954C152.543 75.8681 152.478 75.916 152.406 75.916Z" fill="#010100"/>
<path d="M159.372 79.998C159.359 79.998 159.346 79.9964 159.332 79.9928L144.628 76.1899C144.543 76.1677 144.491 76.0799 144.513 75.994C144.535 75.9078 144.622 75.855 144.709 75.8785L159.412 79.6815C159.499 79.7037 159.55 79.7915 159.528 79.8774C159.509 79.9501 159.444 79.998 159.372 79.998Z" fill="#010100"/>
<path d="M158.17 84.6484C158.157 84.6484 158.143 84.6468 158.13 84.6433L143.426 80.8403C143.34 80.8181 143.289 80.7303 143.311 80.6444C143.333 80.5585 143.42 80.5058 143.507 80.529L158.21 84.3319C158.296 84.3541 158.348 84.4419 158.326 84.5278C158.307 84.6005 158.241 84.6484 158.17 84.6484Z" fill="#010100"/>
<path d="M157.586 86.9235C157.573 86.9235 157.559 86.9218 157.546 86.9183L142.842 83.1153C142.756 83.0931 142.705 83.0053 142.727 82.9195C142.749 82.8336 142.836 82.7812 142.923 82.804L157.626 86.607C157.712 86.6292 157.764 86.717 157.742 86.8028C157.723 86.8755 157.658 86.9235 157.586 86.9235Z" fill="#010100"/>
<path d="M156.998 89.1981C156.985 89.1981 156.971 89.1964 156.958 89.1929L142.254 85.3899C142.168 85.3677 142.117 85.2799 142.139 85.1941C142.161 85.1082 142.248 85.0558 142.335 85.0786L157.038 88.8816C157.124 88.9038 157.176 88.9916 157.154 89.0774C157.135 89.1498 157.07 89.1981 156.998 89.1981Z" fill="#010100"/>
<path d="M155.645 94.4277C155.632 94.4277 155.619 94.4261 155.605 94.4225L140.902 90.6195C140.816 90.5973 140.764 90.5095 140.786 90.4237C140.809 90.3375 140.895 90.2847 140.982 90.3082L155.686 94.1112C155.772 94.1334 155.823 94.2212 155.801 94.307C155.782 94.3797 155.717 94.4277 155.645 94.4277Z" fill="#010100"/>
<path d="M155.058 96.7027C155.045 96.7027 155.031 96.7011 155.018 96.6975L140.314 92.8946C140.228 92.8724 140.176 92.7846 140.199 92.6987C140.221 92.6128 140.308 92.5601 140.394 92.5832L155.098 96.3862C155.184 96.4084 155.236 96.4962 155.213 96.5821C155.195 96.6544 155.129 96.7027 155.058 96.7027Z" fill="#010100"/>
<path d="M154.471 98.9772C154.458 98.9772 154.444 98.9755 154.431 98.972L139.727 95.169C139.641 95.1468 139.589 95.059 139.612 94.9732C139.634 94.8873 139.72 94.8345 139.807 94.8577L154.511 98.6607C154.597 98.6829 154.649 98.7707 154.626 98.8565C154.608 98.9292 154.543 98.9772 154.471 98.9772Z" fill="#010100"/>
<path d="M63.1254 67.5091C63.1691 67.0797 63.2015 66.6069 62.9492 66.2573C62.7239 65.9453 62.3299 65.8144 61.9615 65.7038C53.4161 63.142 44.5097 61.7889 35.5891 61.6969C34.4378 61.685 33.1634 61.7413 32.3332 62.5392C31.728 63.1211 31.4921 63.9798 31.3015 64.7977C30.4799 68.3177 30.0187 71.9216 29.9271 75.5351C29.8988 76.6447 29.9174 77.8058 30.4339 78.7881C31.5457 80.9028 34.3616 81.2968 36.7494 81.3348C41.9901 81.4181 47.2378 81.0302 52.4094 80.1775C54.1348 79.8932 56.0954 79.6121 57.4678 80.6963C58.9193 81.8426 59.0019 83.9274 59.5991 85.7118C59.7875 86.2753 60.6022 86.2062 60.6797 85.617C61.2869 80.9951 62.9907 68.8336 63.1254 67.5091Z" fill="#FC4F4F"/>
<path d="M47.037 71.7725C46.9743 72.5271 46.3125 73.088 45.5584 73.0253C44.8044 72.9625 44.2439 72.3003 44.3065 71.5457C44.3692 70.7912 45.031 70.2303 45.785 70.293C46.5391 70.3557 47.0996 71.018 47.037 71.7725Z" fill="white"/>
<path d="M42.2489 71.3747C42.1862 72.1293 41.5244 72.6902 40.7704 72.6275C40.0163 72.5648 39.4558 71.9025 39.5185 71.148C39.5811 70.3934 40.2429 69.8325 40.997 69.8952C41.751 69.9576 42.3115 70.6202 42.2489 71.3747Z" fill="white"/>
<path d="M51.8163 72.1692C51.7536 72.9237 51.0918 73.4846 50.3378 73.4219C49.5837 73.3592 49.0232 72.697 49.0858 71.9424C49.1485 71.1879 49.8103 70.6269 50.5643 70.6897C51.3184 70.7521 51.8789 71.4146 51.8163 72.1692Z" fill="white"/>
<path d="M117.437 115.83C118.471 115.83 118.473 114.222 117.437 114.222C116.403 114.222 116.402 115.83 117.437 115.83Z" fill="#010100"/>
<path d="M70.1465 200.706C70.987 200.706 71.7925 199.966 71.7536 199.098C71.7147 198.227 71.0474 197.49 70.1465 197.49C69.306 197.49 68.5005 198.229 68.5394 199.098C68.5783 199.969 69.2456 200.706 70.1465 200.706Z" fill="#010100"/>
<path d="M55.0537 205.237C55.8942 205.237 56.6997 204.497 56.6608 203.629C56.6219 202.757 55.9547 202.021 55.0537 202.021C54.2132 202.021 53.4078 202.76 53.4467 203.629C53.4859 204.5 54.1528 205.237 55.0537 205.237Z" fill="#010100"/>
<path d="M162.211 126.2C163.051 126.2 163.857 125.46 163.818 124.592C163.779 123.72 163.112 122.983 162.211 122.983C161.37 122.983 160.565 123.723 160.604 124.592C160.643 125.463 161.31 126.2 162.211 126.2Z" fill="#010100"/>
<path d="M12.1248 120.981C5.43877 120.981 0 115.541 0 108.856C0 102.17 5.43934 96.7311 12.1248 96.7311C18.8109 96.7311 24.2497 102.17 24.2497 108.856C24.2502 115.541 18.8109 120.981 12.1248 120.981ZM12.1248 99.6607C7.055 99.6607 2.93009 103.786 2.93009 108.855C2.93009 113.925 7.055 118.05 12.1248 118.05C17.1947 118.05 21.3196 113.925 21.3196 108.855C21.3201 103.786 17.1952 99.6607 12.1248 99.6607Z" fill="#EA6E6E"/>
<path d="M12.1248 120.981C5.43877 120.981 0 115.541 0 108.856H2.93009C2.93009 113.926 7.055 118.051 12.1248 118.051C17.1947 118.051 21.3196 113.926 21.3196 108.856C21.3196 103.786 17.1947 99.6612 12.1248 99.6612V96.7311C18.8109 96.7311 24.2497 102.17 24.2497 108.856C24.2502 115.541 18.8109 120.981 12.1248 120.981Z" fill="#79D3C2"/>
<path d="M30.9836 126.958C27.895 126.958 25.3818 124.445 25.3818 121.356C25.3818 118.267 27.895 115.754 30.9836 115.754C34.0723 115.754 36.5855 118.267 36.5855 121.356C36.5855 124.445 34.0728 126.958 30.9836 126.958ZM30.9836 118.484C29.3996 118.484 28.1111 119.772 28.1111 121.356C28.1111 122.94 29.3996 124.229 30.9836 124.229C32.5672 124.229 33.8562 122.94 33.8562 121.356C33.8562 119.773 32.5677 118.484 30.9836 118.484Z" fill="#F8896B"/>
<path d="M27.5237 137.263C29.1192 137.263 30.4126 135.97 30.4126 134.374C30.4126 132.779 29.1192 131.485 27.5237 131.485C25.9282 131.485 24.6348 132.779 24.6348 134.374C24.6348 135.97 25.9282 137.263 27.5237 137.263Z" fill="#F8896B"/>
</svg>
