<svg width="344" height="234" viewBox="0 0 344 234" fill="none" xmlns="http://www.w3.org/2000/svg">
<path d="M51.906 31.8254C52.0233 29.3135 51.745 26.784 51.0958 24.328L56.9187 18.9965L53.4638 12.6895L46.2675 14.9711C46.1479 14.8283 46.0461 14.6762 45.9232 14.5356C44.2171 12.5849 42.2652 11.0071 40.1706 9.77469L40.8668 2.15773L34.184 0L30.4624 6.71495C27.8675 6.51462 25.2527 6.77416 22.7264 7.48749L18.136 1.93524L11.9949 5.41556L13.928 12.3419C13.7935 12.4625 13.6501 12.5649 13.5179 12.6889C11.6435 14.4481 10.1377 16.4703 8.96948 18.6457L1.60379 18.5538L0 25.6124L6.15379 28.6046C5.98223 31.3639 6.2789 34.1502 7.03374 36.8425L1.43997 42.2337L4.98058 48.4899L11.9457 46.0776C12.001 46.1429 12.0464 46.2127 12.1028 46.2768C13.7802 48.1949 15.6938 49.7555 17.7486 50.9791L17.6839 59.3669L24.5045 61L27.598 54.1008C30.2316 54.3 32.8846 54.0228 35.444 53.2812L40.6787 59.0183L46.6897 55.3022L44.356 48.2519C44.4052 48.2065 44.4595 48.1689 44.5087 48.1224C46.4484 46.3017 47.9896 44.1977 49.1728 41.9349L56.4809 42.5187L58.4472 35.5592L51.906 31.8254ZM39.879 42.6355C33.4446 48.6742 23.3811 48.0665 17.4459 41.2808C11.5107 34.4944 11.9163 24.0601 18.3507 18.0214C24.7851 11.9827 34.8486 12.5909 40.7838 19.3772C46.719 26.1641 46.3134 36.5968 39.879 42.6355Z" fill="#91C7F9"/>
<mask id="mask0_302_388" style="mask-type:alpha" maskUnits="userSpaceOnUse" x="79" y="32" width="265" height="202">
<rect x="79" y="32" width="264.087" height="202" fill="#D9D9D9"/>
</mask>
<g mask="url(#mask0_302_388)">
<path d="M250.223 160.843C247.65 154.969 242.996 150.111 237.669 146.645C235.593 145.294 233.636 147.544 234.073 149.444C234.043 149.588 234.022 149.737 234.016 149.897C233.716 157.47 233.331 165.044 233.116 172.62C233.047 175.074 233.685 177.864 236.541 178.298C238.128 178.539 239.552 177.829 240.995 177.261C242.608 176.626 244.246 176.034 245.833 175.334C251.736 172.731 252.618 166.31 250.223 160.843L250.223 160.843Z" fill="#1B1323"/>
<path d="M239.764 127.226C239.595 124.005 239.372 120.752 238.758 117.58C238.21 114.754 237.286 111.921 235.595 109.561C233.657 106.858 230.426 104.92 227.096 104.709C227.076 104.725 227.056 104.74 227.036 104.756C225.469 105.961 223.803 107.031 222.225 108.221C221.684 108.628 221.151 109.043 220.663 109.513C220.305 109.856 219.948 110.201 219.587 110.54C218.673 111.396 217.73 112.24 216.691 112.944C216.13 113.324 215.267 113.904 214.514 113.808C213.044 118.059 211.974 122.521 210.865 126.845C209.697 131.399 208.602 135.974 206.855 140.351C205.529 143.675 204.118 146.962 202.675 150.237C201.334 153.282 199.984 156.5 200.095 159.893C200.199 163.035 201.633 165.912 203.397 168.446C205.118 170.918 207.097 173.261 209.345 175.27C213.619 179.089 216.692 182.085 222.509 181.161C225.181 180.737 230.166 179.031 232.054 177.07C234.049 174.997 235.194 172.287 235.941 169.547C236.801 166.391 237.279 163.116 237.784 159.888C238.344 156.31 238.813 152.717 239.169 149.113C239.888 141.845 240.146 134.523 239.763 127.226H239.764Z" fill="#BAA17D"/>
<path d="M231.691 151.676C230.541 149.286 228.37 147.643 226.578 145.761C224.576 143.665 223.506 141.156 222.774 138.383C222.032 135.575 221.519 132.717 220.409 130.018C219.224 127.141 217.596 124.482 215.878 121.903C214.648 120.061 213.429 117.9 211.721 116.396C211.372 116.088 211.004 115.809 210.61 115.565C209.998 115.182 209.311 114.933 208.603 114.833C207.18 114.629 205.701 115.037 204.665 116.178C204.59 116.262 204.516 116.352 204.451 116.441C200.214 119.324 196.48 122.924 193.482 127.086C193.039 127.699 192.636 128.326 192.277 128.963C191.162 130.94 190.47 133.051 190.291 135.411C190.231 136.197 190.206 136.984 190.206 137.776C190.236 145.299 192.979 152.926 195.837 159.747C196.699 161.814 197.52 163.909 198.491 165.926C199.233 167.464 199.86 169.057 200.762 170.531C202.569 173.494 205.049 176.038 207.951 177.935C212.816 181.107 221.658 183.551 226.523 179.06C226.802 178.802 227.066 178.523 227.305 178.224C227.414 178.095 227.514 177.955 227.613 177.821C229.191 175.595 229.824 172.762 230.476 170.158C231.292 166.897 231.94 163.591 232.398 160.255C232.791 157.398 232.98 154.355 231.691 151.677L231.691 151.676Z" fill="#BAA17D"/>
<path d="M212.203 117.979C212.069 117.138 211.631 116.366 210.978 115.833C210.864 115.734 210.744 115.649 210.62 115.569C210.62 115.569 210.615 115.564 210.61 115.564C209.998 115.181 209.311 114.932 208.603 114.833C207.18 114.629 205.701 115.037 204.665 116.177C204.59 116.262 204.516 116.351 204.451 116.441C200.214 119.323 196.48 122.923 193.482 127.085C193.313 127.319 193.149 127.553 192.999 127.792C192.74 128.176 192.501 128.569 192.277 128.962C191.162 130.939 190.47 133.05 190.291 135.41C190.281 135.564 190.271 135.714 190.261 135.868C190.166 137.416 191.043 138.895 192.491 139.463C194.11 140.1 195.996 139.961 197.694 139.154C197.729 139.139 197.759 139.124 197.794 139.11C203.336 136.391 207.946 130.277 210.57 124.845C211.207 123.531 211.815 122.152 212.109 120.743C212.298 119.827 212.358 118.905 212.203 117.979Z" fill="#1B1323"/>
<path d="M226.061 153.063C226.824 157.644 226.905 162.259 225.994 166.825C225.896 167.314 226.646 167.523 226.744 167.032C227.684 162.321 227.598 157.581 226.811 152.856C226.729 152.363 225.98 152.572 226.061 153.063Z" fill="#1B1323"/>
<path d="M194.938 135.967C198.727 135.321 202.238 133.377 204.804 130.516C205.137 130.145 204.589 129.593 204.254 129.966C201.767 132.739 198.402 134.591 194.731 135.217C194.239 135.301 194.448 136.051 194.938 135.967Z" fill="#1B1323"/>
<path d="M210.823 117.182C210.872 116.685 210.927 116.236 210.977 115.833C211.276 113.473 211.47 112.423 210.504 109.366C209.623 106.573 207.089 104.292 206.521 101.414C205.689 97.1676 204.644 93.6226 202.239 94.4691C198.779 95.6889 198.211 102.365 199.122 105.671C199.167 105.826 199.197 105.98 199.222 106.134C197.708 105.148 196.1 104.481 194.427 103.715C192.366 102.769 191.111 101.524 189.916 99.6222C187.91 96.4406 186.361 93.1645 182.97 91.2128C181.546 90.3913 179.759 91.3372 179.376 92.8458C178.833 94.9767 179.52 96.819 180.401 98.6662C178.917 97.297 177.25 96.1915 175.382 95.9925C173.784 95.8231 172.28 96.7444 172.325 98.5166C172.33 98.5465 172.33 98.5714 172.33 98.5963C171.344 99.2188 170.613 100.264 170.404 101.469C169.965 103.959 171.494 106.732 172.35 108.987C174.128 113.667 176.035 118.955 180.257 121.997C182.363 123.515 184.803 124.411 187.183 125.392L192.998 127.792L194.114 128.255C195.304 131.889 196.499 135.519 197.693 139.154C197.728 139.138 197.758 139.124 197.793 139.109C203.335 136.39 207.945 130.276 210.569 124.845C211.206 123.53 211.814 122.151 212.108 120.742C211.705 119.547 211.276 118.362 210.823 117.182L210.823 117.182Z" fill="#FF9A78"/>
<path d="M180.3 116.276C182.256 114.306 184.102 112.227 185.82 110.046C186.645 109 187.443 107.932 188.209 106.842C188.987 105.736 189.806 104.621 190.204 103.312C190.35 102.832 189.599 102.627 189.454 103.105C189.069 104.369 188.239 105.455 187.487 106.522C186.706 107.629 185.894 108.714 185.051 109.774C183.395 111.855 181.623 113.84 179.75 115.726C179.397 116.082 179.947 116.632 180.3 116.276Z" fill="#1B1323"/>
<path d="M172.61 99.4193C175.531 99.9724 176.695 103.544 177.817 105.878C179.066 108.479 180.867 110.7 183.218 112.385C183.625 112.677 184.014 112.003 183.61 111.714C182.357 110.815 181.231 109.732 180.297 108.505C179.417 107.35 178.757 106.075 178.149 104.762C177.055 102.397 175.698 99.2149 172.817 98.6689C172.328 98.5763 172.119 99.3256 172.611 99.419L172.61 99.4193Z" fill="#1B1323"/>
<path d="M180.557 99.2427C181.682 100.5 182.213 102.138 183.031 103.587C183.453 104.336 183.929 104.89 184.682 105.319C185.554 105.816 186.434 106.3 187.309 106.79C187.746 107.035 188.139 106.363 187.702 106.119C186.863 105.649 186.023 105.182 185.186 104.71C184.8 104.493 184.432 104.273 184.156 103.917C183.909 103.598 183.715 103.228 183.526 102.873C182.768 101.444 182.201 99.9145 181.107 98.6925C180.772 98.3188 180.224 98.8704 180.557 99.2425L180.557 99.2427Z" fill="#1B1323"/>
<path d="M190.441 114.489C193.529 114.424 196.814 114.583 199.589 116.087C201.88 117.328 203.811 119.546 204.033 122.224C204.074 122.72 204.852 122.724 204.811 122.224C204.574 119.364 202.663 116.962 200.232 115.555C197.293 113.854 193.758 113.642 190.441 113.711C189.941 113.721 189.939 114.499 190.441 114.488L190.441 114.489Z" fill="#1B1323"/>
<path d="M199.396 106.599C200.338 107.074 201.356 107.352 202.409 107.421C202.619 107.435 202.798 107.233 202.798 107.032C202.798 106.81 202.619 106.657 202.409 106.644C201.506 106.584 200.604 106.339 199.789 105.927C199.601 105.833 199.367 105.878 199.257 106.067C199.156 106.24 199.208 106.504 199.396 106.599Z" fill="#1B1323"/>
<path d="M252.718 59.3269C251.677 55.7475 247.864 53.3729 244.803 52.8275C240.994 52.1489 237.152 54.1871 233.596 55.4808C231.507 56.2406 229.54 57.3602 227.53 58.3021C225.379 59.3102 223.075 59.8571 221.708 61.9826C220.672 63.5942 220.492 65.748 220.667 67.6179C220.951 70.6441 221.928 74.5078 225.215 75.4794C226.206 75.7724 227.267 75.7499 228.257 75.4616C228.474 75.3984 228.664 75.3073 228.833 75.198C230.495 75.3216 231.905 74.6877 233.587 74.1452C235.608 73.4936 237.683 73.0725 239.686 72.347C241.32 71.7555 242.966 71.002 244.401 69.9182C245.093 69.3952 245.779 68.797 246.374 68.1348C246.628 67.854 246.863 67.5525 247.086 67.2394C246.993 67.4382 247.202 67.4694 247.72 67.3294C251.294 67.8725 253.7 62.707 252.717 59.3272L252.718 59.3269Z" fill="#AB4C3C"/>
<path d="M256.779 92.5859C255.554 93.1308 254.373 93.7644 253.223 94.4542C250.465 96.1091 247.854 97.9946 245.101 99.6642C244.426 100.072 243.748 100.486 243.078 100.909C242.219 97.5124 241.339 94.0354 240.437 90.5932C240 88.9329 239.556 87.2806 239.114 85.6547C238.191 82.2633 237.255 78.9634 236.31 75.8739C235.073 71.8258 239.447 71.1647 242.07 73.4239C242.133 73.4308 242.2 73.436 242.264 73.4477C243.198 70.4352 247.456 69.3694 248.792 73.254C251 79.6724 253.877 86.1989 256.779 92.5859Z" fill="#FF9A78"/>
<path d="M240.845 81.9471C239.954 82.8465 239.754 84.5822 239.117 85.6549C239.558 87.2807 240.003 88.9331 240.44 90.5933C241.219 88.0745 241.941 83.9607 242.073 81.3159C242.089 80.9499 241.063 81.7277 240.845 81.9469L240.845 81.9471Z" fill="#1B1323"/>
<path d="M247.967 67.951C247.766 66.2408 247.838 64.6811 246.732 63.3283C241.874 57.3765 232.893 56.1132 228.471 62.6987C227.197 64.5932 225.951 67.1009 226.113 70.0083C226.196 71.4889 227.09 73.0676 227.304 73.7679C226.822 74.1993 226.33 74.6292 225.905 75.1018C225.405 75.6598 225.095 76.3627 225.292 77.1125C225.486 77.8523 226.136 78.3821 226.748 78.7823C226.825 78.8334 226.907 78.8832 226.985 78.9345C227.313 79.1534 227.118 79.6923 227.164 80.0107C227.237 80.5114 227.875 80.4519 228.294 80.36C228.686 80.274 229.11 79.7568 229.476 80.0294C229.817 80.2835 229.817 80.8666 229.643 81.2197C229.487 81.5378 229.194 81.745 228.884 81.8991C228.603 82.0391 228.169 82.1063 227.96 82.3469C227.899 82.4168 227.859 82.5025 227.832 82.5909C227.625 83.247 228.029 83.8804 228.165 84.5055C228.281 85.0375 228.277 85.583 228.404 86.1158C228.636 87.0932 229.085 88.1669 229.958 88.7407C230.8 89.2944 231.852 89.2063 232.778 88.9387C235.192 88.241 237.36 86.9939 239.366 85.4848C241.275 84.049 243.626 81.023 243.58 78.4854C243.572 78.0452 243.172 78.2938 243.361 77.8872C243.427 77.7398 243.556 77.6318 243.681 77.5307C246.431 75.3043 248.415 71.8266 247.967 67.951H247.967Z" fill="#FF9A78"/>
<path d="M250.017 57.482C249.056 56.3307 247.884 55.462 246.457 54.983C245.028 54.5034 243.453 54.4687 241.962 54.5706C238.694 54.7938 235.571 55.863 232.643 57.2859C230.982 58.0928 229.38 59.0081 227.813 59.9852C226.35 60.8983 224.605 62.5549 225.982 64.3575C227.742 66.6604 230.362 63.5357 232.48 64.2975C233.088 64.5161 233.563 65.0137 233.883 65.5748C235.002 67.5365 234.974 70.2398 236.619 71.8979C237.285 72.5686 238.352 72.9347 239.2 72.517C240.531 71.8617 240.473 70.0926 241.025 68.9143C241.8 67.2586 243.469 69.1232 243.652 70.1255C244.088 72.517 244.323 74.9451 246.452 76.4995C247.639 77.366 249.165 77.7553 250.622 77.5637C251.844 77.403 252.356 76.681 252.461 75.4913C252.729 72.4368 252.774 69.3664 252.65 66.3034C252.525 63.2213 252.059 59.932 250.016 57.4825L250.017 57.482Z" fill="#AB4C3C"/>
<path d="M229.999 72.3947C229.885 72.1742 229.697 72.0138 229.461 71.9389C229.277 71.8807 229.092 71.9112 228.929 71.9951C228.92 71.9977 228.91 71.9951 228.901 71.9985C228.639 72.0977 228.509 72.3576 228.583 72.6268C228.664 72.9174 228.745 73.2083 228.826 73.4989C228.866 73.6434 228.9 73.7863 228.966 73.9218C229.06 74.1169 229.226 74.2773 229.448 74.3133C229.739 74.3607 230.032 74.1976 230.144 73.9226C230.217 73.7413 230.237 73.5534 230.241 73.3584C230.248 73.0206 230.152 72.6924 229.999 72.3947Z" fill="#1B1323"/>
<path d="M242.095 76.7616C242.807 77.3243 243.693 77.1936 244.394 76.6854C245.67 75.7604 245.983 74.0623 246.014 72.5833C246.033 71.6638 245.988 70.7118 245.726 69.8252C245.482 69.0042 245.052 68.0789 244.256 67.6647C242.684 66.8474 241.057 68.149 240.744 69.6995C240.148 71.306 240.171 73.1042 240.777 74.707C241.055 75.4449 241.465 76.263 242.095 76.7616Z" fill="#FF9A78"/>
<path d="M242.709 81.0999C243.214 79.9785 243.593 78.8071 243.811 77.5957C243.822 77.5351 243.845 77.4647 243.846 77.4033C243.851 77.3837 243.856 77.3643 243.861 77.3448C243.742 77.416 243.722 77.4472 243.8 77.4385C243.89 77.4726 244.092 77.4186 244.18 77.404C244.392 77.3688 244.598 77.2961 244.784 77.1886C245.188 76.9552 245.472 76.5727 245.744 76.2038C245.869 76.0344 245.772 75.77 245.604 75.6718C245.407 75.5564 245.197 75.6416 245.072 75.8113C244.853 76.1098 244.605 76.452 244.246 76.5878C244.026 76.6707 243.809 76.6296 243.586 76.6759C243.305 76.7344 243.15 76.9573 243.091 77.2257C242.96 77.8127 242.855 78.3979 242.682 78.9757C242.505 79.5661 242.291 80.145 242.038 80.7071C241.952 80.8985 241.982 81.1253 242.177 81.2391C242.344 81.3365 242.623 81.292 242.709 81.0996L242.709 81.0999Z" fill="#1B1323"/>
<path d="M230.845 68.5571C230.471 68.358 230.012 68.3096 229.551 68.3533C229.087 68.3972 228.579 68.5068 228.138 68.674C227.65 68.859 227.213 69.1655 227.025 69.6036C226.965 69.7417 226.952 69.9 226.977 70.0482C226.963 70.1064 226.945 70.1647 226.945 70.2226C226.946 70.6037 227.275 70.9121 227.708 70.9605C227.953 70.9878 228.183 70.9158 228.403 70.7999C228.619 70.6866 228.827 70.6064 229.064 70.5347C229.286 70.4669 229.512 70.4047 229.74 70.365C229.977 70.3237 230.211 70.3192 230.448 70.288C230.942 70.2229 231.432 69.9513 231.467 69.486C231.498 69.0875 231.203 68.7476 230.845 68.5568L230.845 68.5571Z" fill="#1B1323"/>
<path d="M242.456 68.8174C241.957 69.4793 241.467 70.2466 241.626 71.1142C241.701 71.5228 241.955 71.8603 242.074 72.252C242.208 72.6908 242.083 73.0441 241.958 73.4636C241.845 73.8447 241.852 74.2658 242.177 74.5419C242.456 74.779 242.867 74.7912 243.197 74.6647C243.945 74.3783 244.341 73.5499 244.217 72.781C244.079 71.9296 243.229 71.0141 242.305 71.2359C241.818 71.3526 242.024 72.1027 242.511 71.9857C242.812 71.9137 243.119 72.2279 243.268 72.455C243.443 72.7212 243.519 73.042 243.428 73.3522C243.352 73.6147 243.143 73.8966 242.862 73.9575C242.503 74.035 242.729 73.6121 242.79 73.4279C242.916 73.0494 242.949 72.6545 242.876 72.2615C242.805 71.8783 242.595 71.5583 242.458 71.1999C242.174 70.4612 242.703 69.7728 243.127 69.2096C243.255 69.0407 243.153 68.7766 242.988 68.6776C242.79 68.559 242.581 68.6504 242.456 68.8171L242.456 68.8174Z" fill="#1B1323"/>
<path d="M227.041 64.7599C226.854 63.4046 227.182 61.9438 228.016 60.8479C229.023 59.5258 230.683 59.1042 232.268 58.9875C235.393 58.7575 238.815 60.1123 239.92 63.2632C240.085 63.7325 240.836 63.5305 240.67 63.0565C239.74 60.4056 237.255 58.6913 234.531 58.2922C231.851 57.8997 228.53 58.3849 227.041 60.9119C226.32 62.1352 226.098 63.5721 226.291 64.9666C226.359 65.4602 227.108 65.2501 227.041 64.7599Z" fill="#1B1323"/>
<path d="M233.677 58.2969C234.202 56.9701 235.635 56.3254 236.971 56.1727C237.277 56.1378 237.608 56.155 237.891 56.0179C238.188 55.8741 238.311 55.6015 238.501 55.3509C238.905 54.8202 239.476 54.4478 240.112 54.2628C240.592 54.1236 240.388 53.3728 239.905 53.513C239.211 53.7147 238.57 54.0966 238.086 54.6387C237.899 54.8486 237.729 55.272 237.455 55.349C237.09 55.4515 236.664 55.4229 236.288 55.4986C234.817 55.7942 233.492 56.6631 232.927 58.0905C232.743 58.556 233.495 58.758 233.677 58.2972V58.2969Z" fill="#1B1323"/>
<path d="M233.108 64.5806C234.436 64.7502 235.81 65.1343 236.823 66.0543C237.756 66.9015 238.795 68.0967 240.193 67.4499C240.506 67.3051 240.761 67.0783 240.981 66.8157C241.233 66.5164 241.43 66.0034 241.882 66.09C242.269 66.1641 242.624 66.3414 243.026 66.3912C243.42 66.4399 243.813 66.4317 244.204 66.3565C244.865 66.2289 245.493 65.8833 245.933 65.3693C246.141 65.1263 246.302 64.8564 246.414 64.5565C246.557 64.1711 246.579 63.7061 246.839 63.3734H246.289C248.015 64.8262 250.187 65.2515 252.224 64.1714C252.667 63.9369 252.274 63.2652 251.832 63.4999C250.125 64.4051 248.286 64.0417 246.839 62.8237C246.693 62.7014 246.426 62.6472 246.289 62.8237C245.838 63.401 245.869 64.1571 245.447 64.7373C245.005 65.346 244.259 65.6443 243.523 65.6477C243.109 65.6496 242.709 65.5638 242.319 65.4286C242.007 65.3201 241.688 65.1621 241.354 65.2873C240.72 65.5247 240.527 66.388 239.933 66.7133C238.729 67.3736 237.657 65.6528 236.803 65.0512C235.719 64.2868 234.405 63.9692 233.108 63.8038C232.613 63.7405 232.617 64.5189 233.108 64.5814V64.5806Z" fill="#1B1323"/>
<path d="M225.703 59.9009C225.722 59.8975 225.742 59.8946 225.761 59.8911C225.855 59.8747 225.705 59.8938 225.762 59.8911C225.803 59.8893 225.844 59.8829 225.886 59.88C225.985 59.8734 226.084 59.8715 226.183 59.8734C226.281 59.8752 226.379 59.8811 226.477 59.8901C226.501 59.8922 226.524 59.8946 226.548 59.8972C226.546 59.8972 226.651 59.9096 226.602 59.9033C226.558 59.8975 226.631 59.9078 226.639 59.9089C226.668 59.9134 226.698 59.9181 226.727 59.9234C226.924 59.9578 227.119 60.0052 227.308 60.0684C227.356 60.0846 227.403 60.1018 227.451 60.1201C227.458 60.123 227.524 60.1494 227.481 60.1314C227.432 60.1113 227.514 60.1468 227.523 60.151C227.607 60.1899 227.687 60.2336 227.765 60.282C227.939 60.3898 228.201 60.3246 228.297 60.1426C228.398 59.952 228.342 59.7254 228.158 59.6106C227.78 59.3755 227.335 59.2403 226.898 59.1675C226.431 59.0897 225.964 59.068 225.496 59.1508C225.296 59.1863 225.164 59.4422 225.225 59.6291C225.295 59.8448 225.488 59.9388 225.703 59.9006L225.703 59.9009Z" fill="#1B1323"/>
<path d="M298.595 132.817C298.031 123.078 297.613 113.33 297.341 103.578C297.224 99.3828 297.283 94.8114 295.05 91.0897C292.956 87.5997 289.158 86.2833 285.278 86.1208C283.408 86.0424 281.54 86.21 279.681 86.3847C277.22 86.6157 274.758 86.8468 272.297 87.0776C269.929 87.2996 267.562 87.5481 265.192 87.7403C263.474 87.8795 261.901 88.3188 260.228 87.8292C259.506 87.6177 256.675 84.8935 255.555 84.709C254.534 84.5407 253.519 84.843 252.556 85.1561C251.398 85.5332 250.244 85.9257 249.094 86.3304C246.795 87.1398 244.513 87.9999 242.255 88.9173C240.213 89.747 238.893 89.8195 237.778 91.8164C236.854 93.4717 235.969 96.2991 234.737 97.7937C233.542 99.2438 231.936 100.264 230.334 101.209C228.501 102.29 226.654 103.328 224.893 104.525C223.017 105.802 221.225 107.195 219.514 108.684C217.834 110.146 216.24 111.696 214.739 113.34C214.055 114.089 214.551 115.024 215.282 115.31C216.149 119.589 219.007 122.982 221.551 126.442C224.258 130.123 226.473 134.137 228.294 138.323C228.925 139.773 229.508 141.242 230.061 142.722C230.425 143.266 230.799 143.804 231.192 144.328C234.569 148.846 238.949 152.499 243.771 155.387C244.673 155.928 246.93 156.043 247.86 156.536C249.182 156.655 249.165 157.215 250.475 157.432C252.158 157.71 253.828 158.065 255.485 158.471C256.84 158.804 258.151 159.259 259.377 159.935C260.561 160.587 261.641 161.416 262.635 162.331C263.817 163.42 264.846 164.651 265.909 165.854C266.272 166.265 266.633 166.678 266.993 167.092C275.117 163.389 284.214 157.941 291.204 155.968C292.387 155.635 293.57 155.301 294.753 154.967C295.841 154.66 297.167 154.481 298.125 153.855C299.169 153.174 299.281 151.958 299.374 150.828C299.471 149.649 299.496 148.467 299.469 147.284C299.359 142.462 298.875 137.634 298.595 132.818V132.817Z" fill="white"/>
<path d="M285.667 155.953C286.586 153.623 288.153 151.547 290.145 150.028C290.538 149.729 290.151 149.053 289.753 149.357C287.584 151.01 285.918 153.208 284.917 155.746C284.734 156.212 285.486 156.414 285.667 155.953Z" fill="#1B1323"/>
<path d="M242.791 90.6966C244.164 99.672 246.083 108.563 248.21 117.386C250.298 126.045 252.523 134.709 255.148 143.223C256.496 147.598 258.18 152.111 261.4 155.479C261.746 155.841 262.295 155.291 261.95 154.929C259.042 151.887 257.441 147.852 256.177 143.906C254.898 139.912 253.813 135.849 252.714 131.802C250.308 122.943 248.099 114.025 246.215 105.04C245.203 100.213 244.287 95.3651 243.542 90.4902C243.466 89.9971 242.716 90.2065 242.791 90.6969V90.6966Z" fill="#1B1323"/>
<path d="M241.989 152.45C244.65 152.25 247.283 153.34 249.024 155.362C249.352 155.741 249.899 155.189 249.574 154.812C247.713 152.65 244.833 151.458 241.989 151.672C241.493 151.71 241.489 152.488 241.989 152.45Z" fill="#1B1323"/>
<path d="M236.509 97.009C237.097 97.9044 237.685 98.8 238.273 99.6954C238.713 100.365 239.109 101.121 239.899 101.425C241.419 102.012 242.238 100.38 242.452 99.1436C242.796 97.1538 242.771 95.0851 242.944 93.0758C243.013 92.2757 243.079 91.4706 243.286 90.693C243.302 90.6321 243.322 90.6226 243.319 90.6202C243.351 90.6443 243.135 90.6874 243.058 90.6938C242.916 90.7054 242.904 90.6054 242.929 90.6755C242.947 90.7279 243.039 90.7808 243.08 90.8216C243.218 90.9563 243.351 91.0947 243.483 91.2348C244.015 91.799 244.518 92.39 245.017 92.9824C245.986 94.1305 246.937 95.2876 247.977 96.3728C248.903 97.3385 250.086 98.5891 251.531 98.6042C253.248 98.6222 254.385 96.5765 255.131 95.2897C256.11 93.6033 256.859 91.799 257.775 90.0803C258.011 89.6388 257.34 89.2455 257.104 89.6878C256.332 91.1352 255.68 92.6428 254.908 94.09C254.529 94.7993 254.125 95.4978 253.659 96.1541C253.236 96.751 252.686 97.5569 251.947 97.7691C250.584 98.1609 249.263 96.593 248.44 95.7317C247.449 94.6929 246.539 93.5861 245.614 92.4882C245.139 91.9242 244.661 91.3615 244.159 90.8203C243.908 90.549 243.515 89.9461 243.096 89.9432C242.522 89.9392 242.438 90.8248 242.374 91.2289C242.056 93.2592 242.013 95.3331 241.857 97.3795C241.784 98.344 241.801 99.8505 241.037 100.543C240.259 101.249 239.529 100.195 239.151 99.6189C238.494 98.6179 237.837 97.6172 237.18 96.6162C236.906 96.1997 236.233 96.5887 236.508 97.0087L236.509 97.009Z" fill="#1B1323"/>
<path d="M262.198 306.508C260.805 302.922 259.285 299.389 257.671 295.899C257.607 295.74 257.539 295.58 257.476 295.421C255.816 291.25 254.077 287.112 252.325 282.979C247.176 270.835 241.509 258.925 235.314 247.28C231.033 239.234 219.423 216.628 211.73 221.552C204.994 235.169 201.362 246.451 199.552 253.757C197.665 261.371 197.216 265.901 198.686 272.251C201.881 279.342 204.638 286.658 207.816 293.776C210.831 300.533 214.089 307.179 217.465 313.762C219.174 317.092 220.914 320.407 222.669 323.714C223.547 325.367 224.429 327.019 225.313 328.669C226.052 330.049 226.695 331.818 227.977 332.804C228.035 332.848 228.094 332.884 228.152 332.924C230.462 333.933 233.411 331.798 235.389 330.801C238.222 329.373 241.01 327.858 243.75 326.258C247.778 323.905 252.455 321.404 256.346 318.408C258.544 317.157 261.705 315.922 263.278 314.014C265.027 311.89 263.038 308.671 262.198 306.508L262.198 306.508Z" fill="#573C3C"/>
<path d="M271.455 156.729C270.795 156.158 269.938 155.867 269.064 155.867H248.257C246.824 155.867 245.102 155.323 244.83 156.795C243.649 163.182 242.142 168.134 241.157 171.943C241.072 172.272 240.948 172.582 240.778 172.876C232.385 187.454 219.292 206.625 211.732 221.553C210.289 224.402 209.447 227.074 208.154 229.994C204.491 238.264 202.152 247.385 199.408 256.017C197.466 262.126 198.054 267.802 200.038 274.087C204.565 288.428 220.708 296.196 232.724 285.766C237.416 281.694 239.36 276.05 241.318 270.389C246.426 255.622 265.366 226.05 270.816 211.407C277.061 194.628 269.872 192.799 276.558 176.191C279.215 169.591 276.817 161.364 271.455 156.73V156.729Z" fill="#573C3C"/>
<path d="M239.865 327.316C234.541 318.878 229.077 310.52 224.179 301.823C219.274 293.117 214.955 284.048 211.997 274.485C211.244 272.051 210.579 269.591 210.009 267.109C209.395 264.435 209.381 261.675 209.683 258.954C209.999 256.114 210.765 253.403 211.756 250.732C212.742 248.075 213.743 245.424 214.759 242.779C218.725 232.465 222.933 222.244 227.406 212.139C228.516 209.632 229.641 207.132 230.782 204.639C231.364 203.369 231.95 202.1 232.54 200.833C233.106 199.617 233.571 198.136 234.526 197.181C234.92 196.787 235.386 196.43 235.631 195.928C235.939 195.298 236.235 194.664 236.558 194.041C237.157 192.889 237.801 191.761 238.468 190.647C239.801 188.421 241.223 186.251 242.574 184.037C243.272 182.892 243.949 181.736 244.596 180.561C244.838 180.123 244.167 179.73 243.925 180.169C241.355 184.828 238.196 189.144 235.767 193.881C235.488 194.424 235.259 195.005 234.96 195.535C234.581 196.203 233.856 196.579 233.416 197.191C233.083 197.655 232.882 198.274 232.639 198.791C232.322 199.467 232.006 200.144 231.691 200.821C230.514 203.353 229.354 205.892 228.209 208.438C223.658 218.567 219.37 228.814 215.332 239.158C214.322 241.744 213.328 244.336 212.349 246.933C211.346 249.593 210.25 252.239 209.59 255.01C208.962 257.645 208.661 260.361 208.728 263.069C208.794 265.702 209.429 268.193 210.105 270.727C212.708 280.496 216.782 289.802 221.564 298.69C226.329 307.546 231.774 316.01 237.159 324.496C237.839 325.566 238.517 326.637 239.193 327.709C239.459 328.131 240.132 327.741 239.864 327.316L239.865 327.316Z" fill="#1B1323"/>
<path d="M306.864 212.195C307.151 205.39 307.416 198.582 307.423 191.769C307.427 188.526 307.629 185.383 306.584 182.349C305.45 179.057 304.144 175.8 303.409 172.385C302.801 169.53 294.239 162.592 292.144 155.867H258.314C258.745 161.665 260.42 170.22 260.085 174.32C259.665 174.488 259.334 174.866 259.336 175.451C259.385 186.83 257.455 174.376 257.274 185.742C256.942 206.649 249.69 349.265 254.986 353.056C257.266 354.689 262.013 353.959 264.813 354.109C275.02 354.658 283.829 354.566 294.041 354.028C298.383 353.799 299.487 333.354 299.809 330.667C301.792 314.132 305.835 236.411 306.778 214.23C306.807 213.552 306.836 212.874 306.864 212.196V212.195Z" fill="#573C3C"/>
<path d="M255.605 241.278C255.959 232.146 257.13 223.081 257.722 213.966C258.03 209.208 258.031 204.448 258.203 199.686C258.287 197.364 258.595 195.116 257.771 192.882C256.967 190.705 255.792 188.682 254.668 186.66C252.157 182.144 249.1 177.954 245.773 174.007C245.45 173.624 244.903 174.176 245.223 174.557C248.185 178.071 250.923 181.779 253.25 185.746C254.401 187.708 255.546 189.714 256.485 191.789C256.96 192.84 257.401 193.936 257.524 195.091C257.65 196.267 257.554 197.454 257.481 198.63C257.334 200.995 257.369 203.374 257.301 205.742C257.233 208.09 257.154 210.438 257.017 212.783C256.764 217.103 256.349 221.411 255.948 225.72C255.467 230.898 255.029 236.08 254.827 241.278C254.807 241.778 255.585 241.778 255.605 241.278L255.605 241.278Z" fill="#1B1323"/>
<path d="M266.493 187.363C269.35 185.743 272.362 184.401 275.421 183.213C278.672 181.95 281.994 180.857 285.37 179.984C287.084 179.541 288.814 179.157 290.562 178.869C291.054 178.788 290.845 178.039 290.355 178.12C287.108 178.654 283.914 179.505 280.781 180.5C277.424 181.567 274.12 182.815 270.91 184.267C269.274 185.007 267.663 185.805 266.101 186.692C265.666 186.939 266.057 187.611 266.493 187.363L266.493 187.363Z" fill="#1B1323"/>
<path d="M245.45 161.539H292.584C293.085 161.539 293.086 160.761 292.584 160.761H245.45C244.949 160.761 244.949 161.539 245.45 161.539Z" fill="#1B1323"/>
<path d="M270.227 190.251C268.644 211.51 267.597 232.805 266.902 254.111C266.208 275.364 265.861 296.626 265.668 317.889C265.56 329.816 265.5 341.743 265.454 353.67C265.452 354.17 266.23 354.171 266.232 353.67C266.314 332.471 266.439 311.273 266.802 290.077C267.167 268.785 267.77 247.495 268.805 226.225C269.389 214.225 270.112 202.232 271.005 190.251C271.042 189.752 270.264 189.754 270.227 190.251Z" fill="#1B1323"/>
<path d="M241.711 181.931C240.761 172.306 239.907 162.671 239.147 153.029C238.4 143.551 237.745 134.065 237.182 124.574C236.9 119.828 236.642 115.081 236.406 110.333C236.174 105.648 236.056 97.0925 237.412 92.5304C237.726 91.4725 234.908 93.4871 234.721 93.625C232.535 95.2408 230.612 96.9649 228.747 98.9282C224.625 103.268 220.363 107.475 215.97 111.541C213.295 114.017 213.661 118.07 213.183 121.52C212.586 125.829 212.046 130.146 211.566 134.47C210.59 143.253 209.859 152.063 209.392 160.888C208.98 168.663 208.765 176.449 208.748 184.235C208.732 191.683 208.76 199.191 210.617 206.453C210.822 207.256 211.533 208.01 212.355 208.192C221.968 210.31 231.729 211.638 241.559 212.167C242.948 212.242 243.988 210.964 244.048 209.678C244.48 200.5 242.61 191.053 241.711 181.931Z" fill="#BAA17D"/>
<path d="M213.185 117.594C212.413 125.21 211.574 132.818 210.824 140.436C210.057 148.224 209.394 156.023 208.957 163.837C208.694 168.527 208.513 173.222 208.417 177.919C208.407 178.419 209.185 178.419 209.195 177.919C209.361 169.76 209.796 161.609 210.435 153.474C211.037 145.812 211.814 138.165 212.616 130.522C213.068 126.213 213.526 121.905 213.963 117.594C214.014 117.097 213.235 117.1 213.185 117.594Z" fill="#1B1323"/>
<path d="M228.842 99.5891C224.698 109.875 224.569 121.259 226.2 132.09C227.07 137.87 228.431 143.564 229.919 149.212C231.374 154.732 232.865 160.25 234.54 165.707C236.398 171.764 238.551 177.744 241.353 183.434C241.574 183.883 242.245 183.489 242.025 183.041C237.058 172.954 234.161 162.007 231.252 151.194C228.305 140.234 225.645 129.009 226.031 117.58C226.236 111.504 227.315 105.449 229.592 99.7958C229.779 99.3315 229.028 99.1299 228.842 99.5891Z" fill="#1B1323"/>
<path d="M331.386 187.25C329.774 182.563 327.911 177.947 326.144 173.316C322.662 164.194 319.143 155.086 315.881 145.882C312.328 135.858 309.427 125.672 306.314 115.512C304.667 110.136 302.801 104.782 300.367 99.7167C299.96 98.3521 299.551 96.988 299.127 95.6292C298.343 93.1204 297.747 89.5947 295.881 87.6084C293.991 85.5969 290.582 85.8563 288.066 85.6689C281.074 85.148 274.063 85.1078 267.059 85.4852C264.339 84.7613 256.263 83.3403 256.786 85.3335C257.788 89.1495 265.338 137.347 266.617 145.914C267.932 154.719 269.429 163.498 271.2 172.223C273.566 183.88 276.358 195.851 280.247 207.102C281.245 209.991 283.144 212.535 286.549 211.915C288.808 211.503 291.032 210.411 293.184 209.631C295.641 208.739 298.099 207.848 300.556 206.957C305.318 205.229 310.08 203.502 314.842 201.775C319.336 200.144 324.108 198.802 328.439 196.773C332.443 194.898 332.69 191.038 331.386 187.25Z" fill="#BAA17D"/>
<path d="M267.081 86.1114C269.513 91.5659 270.564 97.5054 271.167 103.412C271.798 109.595 272.124 115.817 272.54 122.018C272.973 128.496 273.377 134.977 273.695 141.462C274.011 147.91 274.242 154.364 274.335 160.819C274.428 167.304 274.382 173.792 274.14 180.273C274.11 181.08 274.077 181.886 274.041 182.693C274.019 183.193 274.796 183.192 274.819 182.693C275.109 176.18 275.2 169.661 275.14 163.143C275.081 156.622 274.874 150.104 274.574 143.591C274.274 137.073 273.882 130.559 273.453 124.048C273.034 117.7 272.671 111.339 272.097 105.002C271.566 99.1288 270.707 93.2093 268.571 87.6806C268.315 87.0197 268.041 86.366 267.753 85.7189C267.549 85.2626 266.879 85.6577 267.081 86.1114Z" fill="#1B1323"/>
<path d="M314.144 101.242C311.544 98.5478 308.806 95.9871 305.943 93.5747C305.461 93.1692 304.976 92.7677 304.488 92.3707C301.077 89.5965 292.791 83.7394 288.204 86.7402C287.112 87.454 289.35 89.5777 288.829 90.7607C286.933 95.0619 287.329 99.891 288.331 104.364C289.533 109.73 291.502 114.913 293.466 120.037C295.549 125.473 297.646 130.904 299.736 136.337C300.106 137.299 300.476 138.261 300.846 139.223C300.224 139.725 300.178 140.76 301.047 141.335C303.434 142.915 305.793 144.555 308.232 146.053C310.449 147.416 312.834 148.482 315.398 148.985C317.878 149.471 320.672 149.602 323.068 148.673C325.634 147.678 331.782 148.09 333.022 145.693C334.786 142.282 334.811 135.729 333.876 132.18C332.075 125.342 328.321 119.01 324.224 113.314C321.16 109.055 317.788 105.018 314.144 101.242V101.242Z" fill="#BAA17D"/>
<path d="M320.683 133.797C317.441 130.799 313.353 129.189 308.992 128.731C304.317 128.238 299.677 128.885 295.025 129.304C290.175 129.739 285.283 129.703 280.426 129.486C279.151 129.427 277.812 129.269 276.577 129.677C275.816 129.932 275.205 130.382 274.732 130.961C274.391 131.377 274.125 131.86 273.92 132.382C273.005 134.765 272.592 137.33 272.556 139.875C272.552 140.134 272.619 140.34 272.719 140.514C272.751 141.26 273.07 141.999 273.47 142.666C274.229 143.924 275.046 145.151 275.831 146.392C276.657 147.698 277.43 149.063 278.355 150.305C279.096 151.301 279.975 152.104 281.028 152.733C281.206 152.849 281.402 152.954 281.598 153.059C282.789 153.666 284.067 154.107 285.315 154.586C286.522 155.048 287.731 155.504 288.955 155.937C291.417 156.813 293.912 157.619 296.47 158.202C301.426 159.322 306.802 159.384 311.852 159.114C314.889 158.952 317.922 158.396 320.745 157.244C324.632 155.657 328.113 152.899 330.806 149.702C332.465 147.732 334.559 144.361 334.24 140.62C334.118 139.185 330.943 132.466 330.258 131.208C330.132 130.985 325.841 140.352 325.702 140.137C325.529 139.822 325.343 139.516 325.144 139.218C323.866 137.26 322.402 135.391 320.683 133.797H320.683Z" fill="#BAA17D"/>
<path d="M282.554 156.729C280.681 156.63 279.228 154.783 278.142 152.866C277.5 151.74 276.992 150.59 276.599 149.759C275.499 147.434 274.01 144.889 273.258 142.276C272.964 141.713 272.745 141.121 272.72 140.513C272.62 140.339 272.551 140.135 272.556 139.876C272.596 137.327 273.009 134.767 273.92 132.383C273.92 132.378 273.925 132.378 273.93 132.368C274.174 131.736 274.657 131.243 275.25 130.964C275.653 130.77 276.111 130.68 276.569 130.72C276.594 130.725 277.112 130.8 277.341 130.869C277.371 130.879 277.401 130.889 277.43 130.899C277.485 130.914 277.535 130.934 277.59 130.954C277.699 130.989 277.804 131.034 277.913 131.083C277.973 131.108 278.018 131.128 278.038 131.138C278.083 131.158 278.123 131.188 278.162 131.203C278.496 131.377 278.8 131.576 279.098 131.805C279.322 131.984 279.536 132.173 279.731 132.373C280.338 132.97 280.861 133.662 281.334 134.359C281.453 134.538 281.578 134.723 281.692 134.907C281.762 135.011 281.832 135.121 281.896 135.23C284.595 139.642 285.646 144.85 285.89 149.968C285.895 150.107 285.9 150.246 285.904 150.386C285.909 150.515 285.914 150.645 285.919 150.774C285.989 153.035 285.69 156.893 282.554 156.729V156.729Z" fill="#1B1323"/>
<path d="M269.36 137.416C264.528 134.034 259.61 130.774 254.603 127.657C253.319 126.858 252.03 126.068 250.735 125.288C249.546 124.571 248.307 123.616 246.994 123.153C245.647 122.677 244.419 123.299 243.436 124.21C242.089 125.457 233.639 133.606 233.162 134.159C231.687 135.869 233.771 137.499 235.101 138.366C237.46 139.902 239.882 141.336 242.288 142.795C244.642 144.223 246.869 145.844 249.175 147.346C250.591 148.268 252.035 149.151 253.539 149.922C255.062 150.704 256.568 151.432 258.278 150.764C261.537 149.489 264.014 146.658 266.543 144.359C267.269 143.699 268.018 143.075 268.813 142.499C269.498 142.003 270.185 141.492 270.565 140.711C271.215 139.376 270.549 137.908 269.36 137.416L269.36 137.416Z" fill="#1B1323"/>
<path d="M285.902 150.386C284.736 150.401 282.023 150.516 281.555 150.854C281.002 151.263 280.529 151.636 279.982 151.975C279.812 152.084 279.638 152.184 279.454 152.283C279.076 152.482 278.653 152.676 278.14 152.866C276.447 153.478 273.818 154.011 268.859 154.573C267.445 154.733 266.016 154.807 264.602 154.922L260.335 155.275C259.06 155.38 257.746 155.584 256.446 155.544C255.241 155.509 254.056 155.161 253.245 154.21C252.886 153.797 252.657 153.334 252.553 152.851C251.816 152.876 251.079 152.841 250.357 152.746C249.55 152.647 248.754 152.253 248.301 151.556C247.872 150.889 247.783 150.053 247.967 149.286C248.33 147.812 249.461 146.667 250.616 145.766C250.999 145.477 251.86 144.905 251.86 144.785C251.497 144.765 251.104 145.114 250.765 145.248C250.038 145.557 249.356 145.522 248.734 145.014C246.424 143.147 249.217 139.065 251.049 137.297C252.602 135.794 254.758 134.23 256.994 133.832C257.552 133.732 262.147 132.746 262.506 132.746C262.122 132.443 258.866 130.361 255.839 128.435C257.083 128.022 258.447 127.703 259.692 127.27C260.693 126.916 261.724 126.597 262.779 126.423C263.745 126.254 264.701 126.299 265.662 126.513C266.578 126.717 267.469 127.051 268.356 127.374C269.426 127.758 270.487 128.171 271.547 128.594C272.832 129.102 273.698 129.475 274.664 129.854C275.042 130.003 276.561 130.566 277.427 130.899C277.482 130.919 277.537 130.939 277.587 130.954C277.716 131.009 277.831 131.049 277.91 131.083C277.97 131.108 278.015 131.128 278.035 131.138C278.079 131.158 278.119 131.188 278.159 131.203C278.492 131.377 278.796 131.576 279.095 131.805V131.81C279.319 131.984 279.528 132.174 279.727 132.373C280.335 132.97 280.857 133.662 281.33 134.36C281.45 134.539 281.574 134.723 281.689 134.907C281.759 135.012 281.828 135.121 281.893 135.231C284.592 139.642 285.642 144.85 285.886 149.968C285.891 150.108 285.896 150.247 285.901 150.386H285.902Z" fill="#FF9A78"/>
<path d="M250.008 140.828C250.008 140.831 250.008 140.832 250.008 140.834C250.022 140.824 250.034 140.815 250.042 140.806C250.029 140.814 250.018 140.822 250.008 140.828L250.008 140.828Z" fill="#FF9A78"/>
<path d="M275.647 130.282C276.879 129.422 278.265 129.376 279.716 129.371C281.379 129.365 283.042 129.352 284.704 129.324C288.051 129.268 291.398 129.153 294.738 128.92C301.255 128.464 307.819 127.269 314.235 129.118C317.445 130.042 320.475 131.579 323.111 133.631C323.501 133.935 324.056 133.389 323.661 133.081C318.74 129.25 312.753 127.318 306.535 127.301C303.027 127.292 299.546 127.765 296.055 128.044C292.594 128.32 289.122 128.459 285.651 128.529C283.731 128.568 281.811 128.586 279.892 128.593C278.253 128.599 276.647 128.639 275.254 129.611C274.846 129.895 275.235 130.57 275.646 130.282L275.647 130.282Z" fill="#1B1323"/>
<path d="M301.995 126.34C304.968 126.112 307.865 125.355 310.677 124.39C313.082 123.564 315.475 122.505 317.26 120.637C317.606 120.275 317.057 119.724 316.71 120.087C314.98 121.897 312.652 122.9 310.319 123.691C307.622 124.606 304.844 125.344 301.995 125.563C301.5 125.601 301.495 126.379 301.995 126.34Z" fill="#1B1323"/>
<path d="M297.085 128.306C294.833 122.786 293.167 117.032 292.136 111.159C291.238 106.045 290.552 100.606 291.579 95.4572C292.119 92.7531 293.188 90.1604 294.998 88.0549C295.323 87.6773 294.775 87.1246 294.448 87.505C291.129 91.3654 290.24 96.5484 290.32 101.499C290.365 104.262 290.695 107.018 291.118 109.746C291.584 112.751 292.216 115.73 293.008 118.666C293.911 122.014 295.025 125.302 296.335 128.513C296.521 128.97 297.274 128.77 297.085 128.306H297.085Z" fill="#1B1323"/>
<path d="M278.664 153.406C279.624 154.678 280.554 155.978 281.568 157.208C282.105 157.859 282.686 158.477 283.411 158.921C284.318 159.476 285.371 159.798 286.389 160.078C287.755 160.453 289.153 160.696 290.558 160.868C297.057 161.664 303.749 161.012 310.186 159.997C313.377 159.494 316.553 158.864 319.682 158.056C320.167 157.931 319.961 157.181 319.476 157.306C313.694 158.798 307.741 159.768 301.787 160.205C298.594 160.44 295.376 160.513 292.182 160.254C290.746 160.138 289.315 159.95 287.906 159.647C286.724 159.393 285.489 159.09 284.393 158.566C283.626 158.199 283.016 157.692 282.455 157.055C281.333 155.78 280.358 154.367 279.336 153.013C279.039 152.618 278.363 153.005 278.665 153.405L278.664 153.406Z" fill="#1B1323"/>
<path d="M262.977 132.749C264.519 132.461 265.955 131.675 267.035 130.539C267.38 130.177 266.831 129.626 266.485 129.989C265.488 131.037 264.191 131.734 262.77 131.999C262.564 132.038 262.446 132.287 262.499 132.477C262.558 132.694 262.77 132.788 262.977 132.749L262.977 132.749Z" fill="#1B1323"/>
<path d="M252.312 144.85C253.136 144.175 253.959 143.501 254.782 142.826C255.558 142.19 256.334 141.381 257.233 140.926C258.064 140.504 259.059 140.309 259.957 140.078C260.971 139.816 261.995 139.593 263.025 139.404C263.517 139.313 263.309 138.563 262.819 138.653C261.758 138.849 260.704 139.079 259.661 139.351C258.723 139.595 257.709 139.81 256.841 140.254C255.965 140.701 255.212 141.473 254.457 142.092C253.559 142.828 252.661 143.564 251.763 144.3C251.375 144.617 251.928 145.165 252.313 144.85L252.312 144.85Z" fill="#1B1323"/>
<path d="M253.3 152.983C253.266 152.449 253.951 152.049 254.316 151.751C254.781 151.372 255.25 151 255.726 150.636C256.652 149.927 257.591 149.22 258.579 148.6C260.615 147.322 262.87 147.098 265.219 146.969C265.716 146.942 265.72 146.164 265.219 146.192C263.955 146.261 262.682 146.334 261.44 146.598C260.153 146.872 258.983 147.399 257.887 148.121C256.807 148.832 255.773 149.617 254.755 150.412C254.238 150.816 253.716 151.221 253.221 151.653C252.82 152.003 252.486 152.426 252.522 152.983C252.554 153.48 253.332 153.483 253.3 152.983Z" fill="#1B1323"/>
<path d="M234.543 137.074C236.348 135.255 238.197 133.481 240.056 131.717C240.96 130.86 241.857 129.993 242.779 129.155C243.631 128.381 244.538 127.507 245.563 126.966C246.741 126.344 248.265 127.535 249.249 128.129C250.627 128.96 251.978 129.837 253.327 130.716C254.639 131.572 255.941 132.447 257.267 133.283C257.691 133.551 258.082 132.878 257.659 132.611C255.002 130.935 252.421 129.141 249.733 127.513C248.697 126.885 247.33 125.867 246.055 126.008C244.998 126.124 244.062 127.034 243.28 127.686C242.329 128.478 241.437 129.338 240.539 130.188C238.333 132.276 236.133 134.369 233.993 136.524C233.641 136.88 234.19 137.43 234.543 137.074Z" fill="#575473"/>
<path d="M237.122 138.2C237.742 138.827 238.518 139.356 239.362 139.63C239.794 139.77 240.257 139.786 240.674 139.591C241.085 139.399 241.325 139 241.356 138.555C241.413 137.724 240.77 136.956 240.142 136.496C239.503 136.028 238.617 135.758 237.828 135.911C236.828 136.104 236.563 137.211 236.969 138.034C237.062 138.222 237.329 138.274 237.501 138.173C237.693 138.061 237.734 137.83 237.64 137.641C237.55 137.458 237.524 137.22 237.579 137.028C237.603 136.94 237.642 136.867 237.699 136.81C237.778 136.732 237.905 136.681 238.034 136.66C238.567 136.575 239.153 136.778 239.596 137.062C240.035 137.344 240.493 137.824 240.572 138.362C240.606 138.59 240.54 138.794 240.327 138.898C240.073 139.021 239.769 138.951 239.507 138.859C238.815 138.617 238.184 138.168 237.672 137.65C237.319 137.293 236.769 137.843 237.122 138.2Z" fill="#575473"/>
<path d="M241.945 141.275C242.565 141.902 243.341 142.432 244.185 142.705C244.618 142.845 245.08 142.861 245.498 142.666C245.908 142.474 246.148 142.075 246.179 141.63C246.236 140.8 245.594 140.031 244.965 139.571C244.326 139.103 243.44 138.833 242.651 138.986C241.651 139.179 241.386 140.286 241.792 141.109C241.885 141.298 242.152 141.349 242.324 141.249C242.516 141.136 242.557 140.906 242.463 140.717C242.373 140.533 242.347 140.295 242.402 140.103C242.427 140.016 242.465 139.942 242.522 139.886C242.601 139.807 242.728 139.757 242.858 139.736C243.39 139.65 243.976 139.854 244.419 140.138C244.858 140.419 245.316 140.9 245.396 141.437C245.43 141.666 245.363 141.869 245.151 141.973C244.897 142.097 244.593 142.026 244.33 141.934C243.638 141.692 243.007 141.244 242.495 140.725C242.143 140.369 241.593 140.919 241.945 141.275Z" fill="#575473"/>
<path d="M188.908 163.428C188.351 166.111 187.529 168.78 186.364 171.26C184.153 175.984 182.649 179.589 177.451 180.893C175.062 181.491 170.282 181.844 168.001 180.874C165.592 179.853 163.665 177.991 162.062 175.965C160.214 173.629 158.646 171.061 157.073 168.541C155.325 165.743 153.647 162.905 152.064 160.017C148.867 154.187 146.039 148.153 143.754 141.909C142.743 139.151 141.767 136.348 141.15 133.475C140.603 130.911 140.364 128.213 140.936 125.634C141.872 121.431 145.542 117.578 150.078 117.653C150.302 117.658 149.231 116.383 149.142 116.288C148.41 115.492 147.643 114.74 146.981 113.884C147.748 113.864 148.495 114.143 149.211 114.427C150.083 114.775 150.959 115.144 151.825 115.547C152.497 115.855 153.159 116.184 153.812 116.538C154.603 116.961 155.37 117.429 156.107 117.937C156.137 117.957 156.172 117.982 156.202 118.002C157.571 118.948 158.786 119.794 159.921 120.775C160.563 121.333 161.181 121.93 161.788 122.617C161.902 122.746 162.012 122.876 162.126 123.01C162.53 123.498 162.928 124.021 163.311 124.569C164.482 126.212 165.582 128.074 166.717 129.747C167.076 130.279 167.439 130.792 167.807 131.275C167.932 131.434 168.057 131.594 168.176 131.758C170.655 134.989 173.105 138.25 175.983 141.148C178.283 143.453 180.633 145.704 183.013 147.929C185.219 150.001 187.499 152.211 188.62 155.089C189.655 157.757 189.481 160.675 188.908 163.429L188.908 163.428Z" fill="white"/>
<path d="M172.156 181.871C170.505 181.871 168.914 181.693 167.846 181.238C165.703 180.331 163.709 178.686 161.751 176.21C160.034 174.04 158.545 171.652 157.105 169.342L156.736 168.751C154.884 165.785 153.242 162.991 151.716 160.208C148.348 154.065 145.544 147.955 143.382 142.045C142.451 139.507 141.405 136.548 140.762 133.558C140.105 130.481 140.035 127.86 140.549 125.547C141.417 121.648 144.789 117.555 149.428 117.27C149.206 116.977 148.931 116.644 148.853 116.56C148.649 116.339 148.447 116.125 148.245 115.911C147.711 115.346 147.159 114.762 146.667 114.126C146.575 114.007 146.558 113.848 146.622 113.713C146.686 113.578 146.821 113.49 146.97 113.486C147.796 113.464 148.567 113.744 149.358 114.057C150.372 114.463 151.209 114.821 151.993 115.186C152.687 115.505 153.364 115.842 154.001 116.188C154.796 116.612 155.581 117.091 156.333 117.609L156.421 117.67C157.686 118.544 158.988 119.443 160.18 120.473C160.885 121.085 161.508 121.7 162.086 122.353C162.189 122.469 162.288 122.586 162.39 122.705L162.429 122.751C162.847 123.257 163.252 123.79 163.637 124.339C164.312 125.288 164.972 126.321 165.611 127.321C166.08 128.055 166.565 128.814 167.045 129.522C167.423 130.083 167.775 130.577 168.123 131.033C168.248 131.192 168.374 131.355 168.497 131.523L169.009 132.191C171.269 135.14 173.605 138.189 176.265 140.867C178.341 142.948 180.638 145.163 183.284 147.638C185.294 149.525 187.794 151.873 188.989 154.944C189.904 157.302 190.005 160.103 189.297 163.508C188.694 166.413 187.827 169.078 186.723 171.428L186.479 171.951C184.387 176.434 182.735 179.976 177.548 181.278C176.199 181.615 174.134 181.87 172.155 181.87L172.156 181.871ZM149.942 118.048C145.454 118.048 142.157 121.98 141.324 125.719C140.835 127.919 140.906 130.429 141.539 133.392C142.17 136.331 143.206 139.259 144.127 141.772C146.276 147.644 149.064 153.718 152.412 159.826C153.931 162.596 155.566 165.378 157.41 168.33L157.779 168.922C159.207 171.213 160.684 173.583 162.374 175.718C164.247 178.086 166.139 179.653 168.157 180.508C170.267 181.405 174.936 181.113 177.356 180.508C182.177 179.298 183.68 176.076 185.76 171.615L186.005 171.091C187.083 168.797 187.93 166.191 188.52 163.347C189.196 160.096 189.108 157.442 188.25 155.231C187.121 152.329 184.693 150.049 182.742 148.218C180.089 145.737 177.786 143.515 175.703 141.428C173.007 138.713 170.655 135.643 168.38 132.674L167.862 131.999C167.739 131.83 167.617 131.674 167.495 131.519C167.135 131.046 166.774 130.54 166.388 129.967C165.902 129.251 165.414 128.487 164.943 127.749C164.309 126.757 163.654 125.732 162.989 124.798C162.614 124.263 162.222 123.747 161.821 123.262L161.785 123.22C161.687 123.104 161.591 122.991 161.491 122.878C160.937 122.252 160.338 121.661 159.661 121.073C158.502 120.071 157.218 119.185 155.976 118.327L155.886 118.265C155.155 117.761 154.395 117.298 153.625 116.886C153.001 116.548 152.34 116.219 151.66 115.906C150.888 115.547 150.064 115.194 149.064 114.794C148.669 114.638 148.295 114.496 147.929 114.401C148.215 114.724 148.514 115.039 148.822 115.365C149.026 115.582 149.232 115.799 149.434 116.019C149.805 116.41 150.655 117.376 150.468 117.798C150.399 117.954 150.242 118.055 150.069 118.049C150.027 118.048 149.984 118.048 149.942 118.048L149.942 118.048Z" fill="#1B1323"/>
<path d="M180.272 278.563C179.241 268.595 174.969 254.72 171.424 244.588C165.45 227.52 158.594 210.791 151.434 194.187C148.213 186.714 144.931 179.261 141.64 171.822C141.127 170.657 140.61 169.492 140.097 168.327C140.246 168.964 140.396 169.602 140.545 170.239C139.046 170.831 137.642 171.514 136.318 172.28C135.551 172.723 134.814 173.191 134.107 173.694C130.472 176.243 127.54 179.5 125.155 183.313C123.98 185.185 122.939 187.187 122.013 189.303C120.006 193.913 118.398 198.753 117.134 203.617C115.819 208.666 115.142 213.849 115.037 219.062C114.828 229.711 116.83 240.266 119.19 250.602C121.62 261.242 124.283 271.832 126.932 282.417C127.196 283.473 127.445 284.533 127.699 285.594C123.019 295.755 118.338 305.917 113.668 316.084C112.443 318.748 111.209 321.476 110.755 324.399C110.372 326.883 110.367 329.801 112.553 331.464C113.663 332.31 115.018 332.813 116.277 333.385C117.691 334.023 119.105 334.655 120.524 335.272C123.372 336.517 126.23 337.727 129.103 338.902C134.849 341.247 140.649 343.453 146.499 345.514C147.774 345.962 149.053 346.405 150.338 346.843C151.991 347.406 153.649 347.958 155.312 348.501C157.697 349.273 160.879 350.906 163.169 349.039C166.485 346.34 167.76 337.538 169.134 333.56C171.355 327.132 173.451 320.66 175.193 314.088C178.783 300.515 181.606 291.479 180.272 278.564L180.272 278.563Z" fill="#B6A6BA"/>
<path d="M149.102 359.275C146.533 361.988 141.439 362.431 137.919 362.74C124.342 363.92 109.858 364.064 96.2501 362.964C94.5223 362.825 92.74 362.635 91.2461 361.844C90.594 361.5 90.1009 361.017 89.7274 360.439C87.8403 357.497 89.1848 352.05 89.2295 349.192C89.3142 344 89.3989 338.807 89.4934 333.614C89.6776 323.228 89.8968 312.842 90.1853 302.456C90.235 300.505 90.2898 298.558 90.3446 296.611C90.4142 294.201 90.4791 291.792 90.5487 289.387C90.7528 282.362 90.9719 275.337 91.2307 268.312C91.2607 268.302 91.2906 268.297 91.3205 268.287C91.2657 268.133 91.2408 267.968 91.2459 267.809C91.5397 259.943 91.8732 252.086 92.2964 244.229C93.0581 230.139 92.8141 215.347 96.1151 201.511C97.574 195.412 102.249 183.119 106.92 174.675C107.079 174.381 107.243 174.098 107.408 173.814V173.809C108.757 171.444 110.096 169.433 111.351 168.013C116.708 161.964 124.008 165.818 129.738 161.411C130.42 163.672 131.187 165.912 131.994 168.128C132.531 169.597 133.084 171.055 133.647 172.514C133.796 172.908 133.95 173.301 134.105 173.694C135.574 177.508 137.077 181.312 138.362 185.19C138.845 186.649 139.303 188.113 139.751 189.582C140.244 191.175 140.717 192.778 141.2 194.376C142.111 197.388 143.002 200.411 143.854 203.438C141.17 205.235 138.486 206.928 135.624 208.83C135.166 209.138 134.917 209.631 134.977 210.144C136.411 222.656 138.113 239.733 139.667 254.182C139.821 254.247 139.946 254.366 139.961 254.56C140.165 257.398 147.354 321.003 150.337 346.843C150.481 348.097 150.616 349.257 150.74 350.323C151.064 353.151 151.333 356.915 149.102 359.275Z" fill="#B6A6BA"/>
<path d="M146.306 199.6C144.27 200.463 142.449 201.732 140.725 203.103C139.17 204.34 137.521 205.597 136.536 207.361C134.418 211.156 135.425 215.981 135.944 220.053C136.583 225.073 137.011 230.125 137.546 235.156C138.085 240.232 138.632 245.308 139.184 250.382C140.294 260.605 141.422 270.826 142.556 281.046C143.688 291.24 144.827 301.432 145.971 311.625C147.108 321.749 148.249 331.872 149.397 341.995C149.537 343.223 149.676 344.452 149.816 345.681C149.872 346.172 150.65 346.178 150.594 345.681C149.46 335.712 148.336 325.742 147.215 315.771C146.092 305.783 144.974 295.793 143.863 285.803C142.741 275.721 141.627 265.639 140.525 255.555C139.432 245.551 138.344 235.546 137.315 225.536C137.061 223.061 136.781 220.593 136.475 218.124C136.195 215.862 135.91 213.525 136.153 211.246C136.36 209.298 137.104 207.466 138.482 206.053C140.041 204.453 141.941 203.022 143.814 201.815C144.733 201.222 145.691 200.699 146.698 200.271C147.157 200.077 146.761 199.406 146.306 199.6Z" fill="#1B1323"/>
<path d="M104.155 181.315C104.992 182.074 106.216 182.011 107.275 181.96C108.405 181.906 109.537 181.736 110.626 181.424C112.749 180.814 114.683 179.633 115.946 177.791C116.23 177.377 115.556 176.988 115.274 177.399C114.157 179.029 112.424 180.072 110.556 180.634C109.628 180.913 108.669 181.083 107.703 181.156C106.802 181.224 105.432 181.424 104.705 180.765C104.335 180.43 103.783 180.978 104.155 181.315L104.155 181.315Z" fill="#1B1323"/>
<path d="M133.648 185.611C134.57 189.227 135.156 192.916 135.397 196.641C135.429 197.138 136.207 197.141 136.175 196.641C135.93 192.849 135.337 189.086 134.398 185.404C134.274 184.92 133.524 185.125 133.648 185.611Z" fill="#1B1323"/>
<path d="M141.641 171.822C139.869 171.976 138.091 172.131 136.319 172.28C135.427 172.36 134.541 172.434 133.65 172.514C128.113 172.992 122.577 173.47 117.04 173.943C114.386 174.172 111.728 174.401 109.074 174.63C108.516 174.356 107.964 174.087 107.411 173.813C107.247 174.097 107.082 174.381 106.923 174.675C107.446 174.938 107.968 175.192 108.491 175.451C108.561 175.571 108.686 175.651 108.87 175.641C114.252 178.299 119.679 180.859 125.156 183.313C129.986 185.484 134.85 187.575 139.754 189.581C142.572 190.741 145.406 191.871 148.248 192.972C149.309 193.385 150.37 193.788 151.435 194.187C148.214 186.714 144.933 179.26 141.642 171.822H141.641Z" fill="#1B1323"/>
<path d="M152.317 108.527C153.218 108.352 152.931 107.748 153.108 106.95C153.139 103.282 152.763 97.0359 152.834 93.3718C152.91 89.5066 153.652 84.9257 152.307 81.2111C151.834 79.9066 151.07 78.8021 150.148 77.8295C149.527 77.3006 148.87 76.8134 148.215 76.3259C147.34 75.6753 146.473 75.0155 145.584 74.3845C145.456 74.2932 145.326 74.2032 145.196 74.1127C144.765 73.9679 144.354 74.001 143.995 74.1572C141.29 73.175 138.442 75.0706 137.459 77.7871C135.999 81.8254 136.237 86.9208 135.997 91.1603C135.754 95.4437 135.57 99.7355 135.45 104.024C135.422 105.029 135.393 106.056 135.382 107.093C137.6 107.474 146.977 109.565 152.317 108.527L152.317 108.527Z" fill="#181818"/>
<path d="M155.967 145.4C155.868 145.897 155.753 146.39 155.619 146.883C155.524 147.237 155.42 147.58 155.305 147.924C154.977 148.94 154.588 149.925 154.26 150.941C153.816 152.305 153.478 153.704 153.214 155.113C153.199 155.198 153.184 155.278 153.169 155.362C153.015 156.189 152.881 157.02 152.766 157.857C152.746 157.996 152.726 158.135 152.711 158.275C152.214 161.845 151.94 165.449 151.362 169.009C151.307 169.348 151.248 169.691 151.183 170.03C151.024 170.886 150.824 171.737 150.555 172.564C150.421 172.967 150.272 173.37 150.102 173.759C149.943 174.127 149.754 174.496 149.535 174.849C149.276 175.054 149.017 175.258 148.743 175.472L148.708 175.477C142.544 176.642 136.286 177.249 130.017 177.398C124.889 177.523 119.746 177.344 114.637 176.911C114.548 176.906 114.463 176.901 114.373 176.891C111.411 176.637 108.453 176.303 105.505 175.905C104.072 175.706 102.638 175.417 101.204 175.243C99.2321 175.004 97.8378 173.819 97.4445 171.902C97.4395 171.877 97.4344 171.852 97.4294 171.827C97.2751 171.011 97.1157 170.189 96.9664 169.373C96.6676 167.819 96.3789 166.266 96.0901 164.712C95.9308 163.861 95.7715 163.01 95.6222 162.158C95.3633 160.769 95.1092 159.375 94.8604 157.981C94.7061 157.145 94.5566 156.308 94.4123 155.472C94.0688 153.565 93.7303 151.653 93.4066 149.736C93.3618 149.482 93.3168 149.223 93.2721 148.969C93.1675 148.377 93.068 147.79 92.9682 147.197C92.9087 146.853 92.8489 146.505 92.7891 146.161C92.59 145.001 92.3759 143.911 92.157 142.85C91.9328 141.78 91.7039 140.744 91.4797 139.689C91.4696 139.644 91.4598 139.599 91.4498 139.554C91.2756 138.718 91.1015 137.872 90.9371 136.995C90.6235 135.347 90.3445 133.585 90.1354 131.578C90.1156 131.394 90.1005 131.205 90.0806 131.016C90.046 130.647 91.6142 129.84 91.6441 129.472C91.674 129.378 91.7036 129.278 91.7386 129.183C92.4704 126.943 93.4913 124.463 94.6662 122.183C95.0994 121.347 95.5475 120.54 96.0155 119.778C97.4542 117.418 99.0177 115.526 100.491 114.76C100.75 114.625 101.114 114.476 101.567 114.317C101.826 114.222 102.11 114.127 102.418 114.028C104.295 113.431 107.094 112.714 110.051 112.016C116.175 110.563 122.982 109.174 123.728 109.034C123.828 109.014 124.61 109.139 125.366 109.258C126.063 109.368 126.741 109.477 126.835 109.467C127.681 109.378 128.533 109.298 129.384 109.258C131.375 109.159 132.999 108.815 134.946 109.233C137.505 109.786 140.104 110.747 142.534 111.822C142.892 111.977 143.246 112.136 143.594 112.3C144.759 112.838 145.999 113.172 147.124 113.829C147.204 113.874 147.284 113.924 147.363 113.973C148.384 114.601 149.32 115.372 150.132 116.249C150.694 116.856 154.175 125.579 154.538 127.097C154.737 127.909 154.921 128.72 155.101 129.537C155.185 129.955 155.27 130.379 155.355 130.797C155.708 132.594 156.042 134.406 156.256 136.234C156.35 137.05 156.425 137.867 156.46 138.683C156.47 138.808 156.475 138.927 156.48 139.052C156.565 141.188 156.4 143.314 155.967 145.4L155.967 145.4Z" fill="#F0DED7"/>
<path d="M126.828 177.834C122.839 177.834 118.74 177.657 114.6 177.306C114.514 177.302 114.423 177.296 114.326 177.285C111.476 177.041 108.486 176.709 105.449 176.298C104.812 176.21 104.17 176.103 103.548 176C102.761 175.869 101.948 175.734 101.152 175.637C98.969 175.372 97.4743 174.04 97.0519 171.982L96.8873 171.119C96.7809 170.561 96.6742 170.001 96.5723 169.444C96.2777 167.913 95.9924 166.379 95.7071 164.844L95.6962 164.785C95.5366 163.933 95.3773 163.08 95.2275 162.227C94.9691 160.841 94.7151 159.446 94.466 158.051C94.312 157.215 94.1621 156.377 94.0176 155.539C93.614 153.299 93.294 151.475 93.0116 149.802L92.8777 149.038C92.7729 148.445 92.673 147.856 92.5733 147.263L92.3943 146.23C92.2215 145.223 92.0214 144.175 91.7644 142.931C91.6361 142.317 91.5056 141.714 91.3756 141.112C91.2793 140.666 91.1832 140.22 91.0876 139.771L91.0588 139.642C90.8889 138.826 90.7105 137.961 90.5432 137.069C90.1838 135.182 89.9275 133.45 89.737 131.62C89.7264 131.523 89.7172 131.424 89.7079 131.323C89.6997 131.235 89.6915 131.146 89.6822 131.057C89.6431 130.642 90.0591 130.33 90.6348 129.898C90.8381 129.745 91.1724 129.495 91.2541 129.381C91.2563 129.372 91.2592 129.362 91.2621 129.353L91.2793 129.298C91.3055 129.214 91.3325 129.128 91.3626 129.046C92.1228 126.718 93.1712 124.211 94.3096 122.002C94.7786 121.096 95.2246 120.301 95.6737 119.571C96.7949 117.732 98.5092 115.342 100.305 114.408C100.579 114.266 100.958 114.109 101.432 113.942C101.69 113.848 101.979 113.752 102.293 113.65C104.01 113.104 106.588 112.424 109.957 111.63C116.088 110.175 122.876 108.789 123.652 108.644C123.79 108.616 124.031 108.646 125.368 108.857L125.641 108.9C126.104 108.973 126.678 109.064 126.808 109.071C127.561 108.991 128.452 108.904 129.362 108.862C129.869 108.836 130.358 108.794 130.83 108.754C132.216 108.635 133.524 108.523 135.026 108.845C137.337 109.344 139.844 110.199 142.691 111.459C143.05 111.614 143.41 111.776 143.76 111.941C144.197 112.143 144.662 112.321 145.111 112.494C145.845 112.776 146.604 113.067 147.321 113.486C147.401 113.53 147.486 113.583 147.571 113.636C148.617 114.28 149.577 115.068 150.42 115.979C151.109 116.723 154.587 125.609 154.921 127.005C155.097 127.722 155.277 128.501 155.485 129.452L155.741 130.718C156.082 132.455 156.428 134.318 156.647 136.187C156.754 137.115 156.822 137.925 156.854 138.666C156.863 138.781 156.868 138.906 156.873 139.036C156.96 141.228 156.785 143.396 156.353 145.479C156.247 146.006 156.131 146.5 155.998 146.988C155.905 147.336 155.8 147.683 155.678 148.049C155.513 148.559 155.33 149.071 155.153 149.566C154.977 150.055 154.796 150.561 154.634 151.063C154.219 152.338 153.881 153.687 153.601 155.186L153.556 155.432C153.403 156.252 153.269 157.084 153.156 157.91C153.136 158.049 153.117 158.183 153.102 158.317C152.89 159.841 152.716 161.386 152.549 162.88C152.32 164.913 152.084 167.015 151.75 169.073C151.695 169.415 151.634 169.762 151.569 170.104C151.389 171.072 151.179 171.917 150.929 172.687C150.776 173.145 150.624 173.547 150.462 173.918C150.29 174.317 150.089 174.701 149.868 175.058C149.844 175.097 149.813 175.132 149.777 175.161C149.517 175.365 149.258 175.57 148.983 175.784C148.929 175.827 148.864 175.854 148.796 175.864L148.761 175.869C142.826 176.991 136.515 177.64 130.022 177.795C128.967 177.821 127.901 177.833 126.828 177.833L126.828 177.834ZM90.48 131.056C90.4863 131.119 90.4924 131.185 90.4985 131.25C90.5075 131.346 90.5162 131.442 90.5263 131.536C90.7147 133.345 90.968 135.056 91.3232 136.921C91.4892 137.807 91.6667 138.668 91.8345 139.474L91.8634 139.603C91.9592 140.055 92.0553 140.5 92.1516 140.945C92.2821 141.548 92.4126 142.153 92.5418 142.77C92.8007 144.023 93.0023 145.08 93.1767 146.095L93.3559 147.129C93.4557 147.723 93.5552 148.309 93.6595 148.901L93.794 149.668C94.0764 151.341 94.3959 153.162 94.7995 155.402C94.944 156.24 95.0933 157.075 95.2473 157.91C95.4966 159.305 95.7502 160.698 96.009 162.086C96.1588 162.94 96.3179 163.79 96.477 164.64L96.4878 164.699C96.7729 166.232 97.058 167.765 97.3528 169.298C97.455 169.857 97.5614 170.414 97.6673 170.971L97.8303 171.826C98.1842 173.551 99.3979 174.625 101.248 174.849C102.061 174.948 102.883 175.085 103.678 175.217C104.295 175.32 104.932 175.426 105.556 175.512C108.579 175.921 111.556 176.252 114.403 176.496C114.495 176.506 114.573 176.511 114.655 176.515C119.892 176.959 125.053 177.122 130.004 177.003C136.433 176.849 142.681 176.209 148.573 175.098C148.799 174.922 149.014 174.752 149.229 174.582C149.416 174.275 149.586 173.945 149.734 173.602C149.886 173.252 150.03 172.872 150.175 172.439C150.413 171.705 150.614 170.893 150.788 169.958C150.853 169.621 150.912 169.281 150.966 168.946C151.297 166.908 151.532 164.816 151.759 162.793C151.928 161.293 152.102 159.742 152.314 158.221C152.328 158.089 152.348 157.946 152.369 157.802C152.483 156.965 152.62 156.119 152.775 155.29L152.819 155.044C153.107 153.507 153.453 152.126 153.878 150.819C154.044 150.305 154.227 149.794 154.405 149.298C154.58 148.81 154.761 148.304 154.923 147.802C155.041 147.448 155.142 147.115 155.231 146.781C155.36 146.309 155.472 145.832 155.574 145.322C155.574 145.321 155.574 145.32 155.575 145.319C155.994 143.299 156.164 141.196 156.079 139.068C156.075 138.949 156.07 138.835 156.061 138.716C156.029 137.979 155.963 137.187 155.858 136.279C155.642 134.437 155.299 132.593 154.961 130.874L154.708 129.616C154.502 128.678 154.324 127.906 154.149 127.192C153.761 125.575 150.336 117.096 149.836 116.517C149.043 115.661 148.14 114.919 147.152 114.312C147.075 114.263 147 114.217 146.926 114.175C146.259 113.785 145.563 113.518 144.826 113.235C144.365 113.058 143.888 112.875 143.424 112.661C143.079 112.498 142.726 112.339 142.373 112.187C139.573 110.948 137.115 110.109 134.858 109.622C133.473 109.324 132.28 109.427 130.898 109.545C130.418 109.587 129.922 109.629 129.4 109.655C128.501 109.697 127.618 109.783 126.873 109.863C126.753 109.874 126.564 109.85 125.517 109.685L125.243 109.642C124.692 109.555 123.944 109.437 123.771 109.43C122.858 109.603 116.182 110.969 110.139 112.403C106.836 113.182 104.207 113.874 102.534 114.406C102.232 114.504 101.953 114.597 101.699 114.69C101.256 114.846 100.911 114.987 100.67 115.113C99.3776 115.785 97.8838 117.47 96.3502 119.985C95.9106 120.7 95.4739 121.479 95.0144 122.366C93.8951 124.538 92.8642 127.004 92.1117 129.307C92.081 129.391 92.0585 129.464 92.0362 129.535L92.028 129.561C91.9706 129.874 91.6506 130.128 91.1104 130.533C90.9085 130.684 90.5824 130.929 90.4794 131.055L90.48 131.056ZM91.2448 129.44C91.2448 129.44 91.2448 129.44 91.2448 129.44C91.2448 129.44 91.2448 129.44 91.2448 129.44ZM123.802 109.423C123.797 109.425 123.792 109.426 123.786 109.427C123.792 109.426 123.798 109.425 123.802 109.423Z" fill="#1B1323"/>
<path d="M150.264 158.066C148.243 158.021 146.147 158.389 144.489 159.55C139.594 155.621 134.531 151.603 128.646 149.298C126.156 148.322 122.955 147.884 120.779 149.786C118.155 152.076 118.967 155.98 120.779 158.479C122.706 161.138 125.35 163.284 128.317 164.693C127.6 168.253 127.535 172.021 128.959 175.407C129.253 176.099 129.602 176.771 130.01 177.399C136.278 177.249 142.537 176.642 148.701 175.477L148.736 175.472C149.01 175.258 149.268 175.054 149.527 174.85C149.746 174.496 149.935 174.128 150.095 173.759C150.264 173.371 150.413 172.968 150.548 172.564C150.817 171.738 151.016 170.886 151.175 170.03C151.24 169.692 151.3 169.348 151.355 169.009C151.932 165.449 152.206 161.845 152.704 158.275C151.892 158.155 151.076 158.086 150.264 158.066L150.264 158.066Z" fill="#1B1323"/>
<path d="M119.906 113.052C119.95 113.186 120.001 113.319 120.055 113.449C120.717 115.056 121.813 116.456 123.047 117.664C124.362 118.951 125.911 120.007 127.602 120.736C127.951 120.886 128.307 121.023 128.668 121.144C129.103 121.29 129.547 121.413 129.997 121.509C132.148 121.969 134.591 121.974 136.622 121.037C137.382 120.687 138.072 120.18 138.556 119.49C139.586 118.021 139.805 115.955 139.313 114.257C139.053 113.36 138.589 112.523 137.973 111.822C137.355 111.116 136.25 110.684 136.35 109.593C136.355 109.545 136.358 109.501 136.36 109.464C136.62 103.422 137.683 97.3312 137.683 91.2878C137.25 89.1567 126.394 86.9716 125.622 87.9773C125.482 88.1581 125.222 90.786 124.927 94.2518C124.693 97.0065 124.056 99.7937 123.571 102.514C123.348 103.768 123.014 105.007 122.694 106.239C122.506 106.961 122.313 107.682 122.108 108.4C121.956 108.933 121.852 109.631 121.546 110.099C121.297 110.481 120.904 110.57 120.525 110.765C120.025 111.022 119.755 111.549 119.742 112.1C119.734 112.424 119.803 112.743 119.905 113.052L119.906 113.052Z" fill="#FFA870"/>
<path d="M136.391 108.844C136.462 107.765 136.627 106.088 136.642 105.182L136.409 105.224C136.389 105.129 136.374 105.04 136.359 104.955C135.313 104.706 135.199 100.17 134.158 99.9412C133.795 99.8616 133.431 99.7869 133.068 99.7123C132.779 99.6575 132.181 101.152 132.265 101.463C132.736 103.219 134.558 106.444 136.391 108.844V108.844Z" fill="#1B1323"/>
<path d="M127.814 82.6246C126.742 86.2071 128.033 89.8207 130.261 92.3853C130.363 92.501 130.468 92.6235 130.507 92.7736C130.614 93.1902 130.336 93.792 130.253 94.2046C130.14 94.8036 130.076 95.3835 130.114 95.9946C130.228 97.8499 130.31 98.7882 131.441 100.369C132.777 102.233 134.762 104.518 136.812 105.508C137.976 106.066 139.392 106.401 140.65 105.967C141.873 105.548 142.846 104.643 143.59 103.605C145.353 101.135 146.91 98.2472 147.6 95.2731C147.926 93.8749 147.665 92.4816 147.91 91.1083C148.031 90.4628 148.419 89.9077 148.783 89.3564C148.818 89.3014 148.857 89.2487 148.891 89.1939C148.979 89.06 149.06 88.9168 149.127 88.7781C149.33 88.3727 149.457 87.9503 149.533 87.5175C149.577 87.2423 149.601 86.9622 149.602 86.6814C149.629 85.1474 149.058 83.5406 148.416 82.2173C147.857 81.067 147.098 79.9861 146.112 79.1678C142.451 73.9509 134.824 74.1007 129.755 78.4638C128.479 79.5587 128.294 81.0424 127.814 82.6246Z" fill="#FFA870"/>
<path d="M148.907 76.845C148.676 76.6711 148.445 76.4985 148.213 76.326C147.339 75.6754 146.471 75.0156 145.583 74.3846C143.441 72.8644 141.174 71.4608 138.774 70.3699C136.173 69.3787 133.495 68.856 130.945 69.3755C128.695 69.8339 126.832 70.9696 125.28 72.4758C123.766 73.439 122.538 74.8515 121.59 76.3882C119.947 79.0515 118.792 82.0674 117.613 84.9565C116.378 87.9822 115.249 91.0513 114.237 94.1588C113.741 95.6833 113.233 97.2189 113.021 98.8138C112.893 99.7798 112.803 100.945 113.144 101.915C114.046 102.683 115.207 103.159 116.379 103.494C118.322 104.049 120.332 104.697 122.355 105.062C123.211 105.216 127.883 106.045 128.041 104.636C128.686 98.9088 129.453 93.2452 130.307 87.5479C130.514 86.8246 130.383 86.0141 130.788 85.3411C131.252 84.5714 131.697 83.829 132.507 83.7602C132.554 83.7563 132.781 85.6547 132.789 85.7278C132.982 87.6082 135.031 87.9658 138.343 84.3753C138.416 84.297 138.464 84.1948 138.553 84.1374C138.633 84.0863 138.728 84.0667 138.822 84.0479C142.501 83.3053 145.988 81.8297 148.567 79.0145C149.201 78.3226 149.218 77.5096 148.907 76.8452L148.907 76.845Z" fill="#181818"/>
<path d="M132.031 88.6824C132.756 87.2082 132.943 85.4939 132.522 83.9062C132.365 82.3976 130.931 81.0062 129.357 81.6419C128.559 81.964 128.063 82.8075 127.756 83.569C127.424 84.391 127.293 85.2957 127.227 86.1749C127.121 87.5893 127.264 89.2387 128.397 90.2386C129.019 90.7881 129.853 90.9942 130.584 90.5223C131.231 90.1044 131.697 89.361 132.031 88.6824Z" fill="#FFA870"/>
<path d="M143.698 96.0322C144.038 95.8178 144.371 95.5947 144.697 95.3602C144.997 95.1437 145.318 94.9304 145.535 94.6242C145.771 94.2907 145.769 93.827 145.751 93.4347C145.708 92.4753 145.493 91.5268 145.297 90.5896C145.194 90.0999 144.444 90.3072 144.547 90.7963C144.718 91.6115 144.903 92.4311 144.964 93.264C144.978 93.4588 144.986 93.6552 144.974 93.8503C144.966 93.9675 144.97 93.958 144.948 94.0461C144.94 94.0813 144.931 94.1171 144.919 94.1512C144.941 94.0917 144.924 94.1472 144.905 94.1737C144.741 94.4106 144.46 94.5784 144.229 94.7427C143.927 94.9577 143.619 95.163 143.306 95.3607C142.884 95.6273 143.274 96.3006 143.698 96.0322Z" fill="#1B1323"/>
<path d="M141.213 98.7561C142.059 98.3239 143.051 98.1508 143.993 98.2905C144.2 98.3212 144.411 98.2386 144.471 98.019C144.521 97.8358 144.409 97.5717 144.199 97.5407C143.036 97.3682 141.869 97.5489 140.82 98.0846C140.633 98.1802 140.579 98.4427 140.681 98.6166C140.792 98.8066 141.025 98.8519 141.213 98.7561Z" fill="#1B1323"/>
<path d="M141.588 84.9453C141.953 84.8707 142.338 84.8657 142.671 84.9056C143.535 85.0086 144.849 85.4704 144.925 86.4942C144.979 87.2215 144.34 87.7839 143.648 87.465C143.379 87.3411 143.151 87.1421 142.886 87.01C142.473 86.8041 141.996 86.7724 141.535 86.789C141.258 86.7991 140.972 86.8237 140.712 86.7279C140.269 86.5643 140.151 86.0625 140.39 85.6787C140.646 85.2693 141.1 85.0449 141.588 84.9453H141.588Z" fill="#1B1323"/>
<path d="M147.325 88.8311C147.61 88.9309 147.911 88.9484 148.189 89.0389C148.404 89.1125 148.6 89.2215 148.781 89.3567C148.816 89.3017 148.855 89.249 148.89 89.1942C148.977 89.0603 149.058 88.9171 149.126 88.7784C149.328 88.373 149.455 87.9506 149.532 87.5178C149.532 87.5067 149.53 87.4998 149.53 87.4887C148.816 87.0279 147.764 86.6534 147.099 87.2426C146.552 87.7253 146.607 88.5704 147.325 88.8309L147.325 88.8311Z" fill="#1B1323"/>
<path d="M129.473 91.1845C129.301 92.1627 129.33 93.1978 129.598 94.1572C129.732 94.6386 130.483 94.4341 130.348 93.9505C130.121 93.1372 130.071 92.2503 130.223 91.3912C130.259 91.1845 130.167 90.9722 129.951 90.9129C129.764 90.8613 129.51 90.9764 129.473 91.1845H129.473Z" fill="#1B1323"/>
<path d="M129.662 83.4326C129.93 83.5991 130.116 83.8392 130.261 84.1176C130.39 84.3659 130.599 84.8015 130.519 85.0818C130.477 85.2295 130.35 85.3629 130.271 85.491C130.179 85.6394 130.108 85.8022 130.072 85.9732C129.998 86.3268 130.061 86.6806 130.115 87.0316C130.138 87.1803 130.158 87.3296 130.156 87.4802C130.155 87.562 130.148 87.638 130.124 87.7166C130.12 87.7383 130.112 87.7581 130.1 87.7764C130.075 87.8073 130.075 87.8068 130.097 87.7745C129.864 87.819 129.587 87.5268 129.493 87.3484C129.366 87.1081 129.384 86.836 129.535 86.6102C129.605 86.506 129.695 86.4184 129.803 86.3538C129.868 86.3144 130.102 86.2072 130.155 86.2484C130.322 86.3787 130.542 86.408 130.705 86.2484C130.841 86.1153 130.871 85.8276 130.705 85.6985C130.024 85.1657 129.078 85.7064 128.765 86.4075C128.444 87.1258 128.752 87.9804 129.437 88.3624C129.78 88.5537 130.251 88.6535 130.581 88.3878C130.89 88.139 130.953 87.697 130.929 87.3233C130.905 86.9496 130.764 86.5549 130.822 86.1794C130.884 85.7839 131.257 85.5262 131.302 85.1101C131.351 84.648 131.143 84.1293 130.933 83.7243C130.729 83.33 130.433 82.9946 130.055 82.7604C129.628 82.4962 129.237 83.1688 129.662 83.4318L129.662 83.4326Z" fill="#1B1323"/>
<path d="M148.091 80.3586C149.12 79.017 148.072 77.416 147.134 76.3867C146.002 75.1449 144.743 74.0291 143.39 73.0329C142.987 72.7356 142.598 73.4103 142.998 73.7043C144.165 74.564 145.254 75.5276 146.252 76.5794C147.046 77.4171 148.335 78.7719 147.419 79.9656C147.115 80.3626 147.79 80.7503 148.09 80.3581L148.091 80.3586Z" fill="#1B1323"/>
<path d="M148.663 97.962C148.547 99.6643 148.44 101.371 148.477 103.078C148.514 104.785 148.696 106.485 148.885 108.181C148.94 108.673 149.718 108.678 149.663 108.181C149.473 106.485 149.292 104.785 149.255 103.078C149.218 101.371 149.325 99.6643 149.44 97.962C149.474 97.4623 148.696 97.4644 148.663 97.962Z" fill="#1B1323"/>
<path d="M137.686 83.6025C136.825 83.6123 135.958 83.4273 135.119 83.2492C134.346 83.0851 133.593 82.858 132.933 82.4113C132.517 82.1299 132.127 82.8035 132.54 83.0827C133.251 83.5639 134.079 83.8222 134.912 83.999C135.816 84.1909 136.759 84.3907 137.686 84.3801C138.186 84.3746 138.187 83.5967 137.686 83.6025Z" fill="#1B1323"/>
<path d="M127.333 89.9397C125.335 93.5808 124.137 97.6037 123.805 101.743C123.765 102.242 124.543 102.239 124.583 101.743C124.903 97.7445 126.075 93.8481 128.004 90.3322C128.245 89.8931 127.574 89.5004 127.333 89.9397Z" fill="#1B1323"/>
<path d="M141.703 76.9583C140.028 80.0898 136.677 82.1601 133.123 82.2313C132.623 82.2413 132.621 83.0189 133.123 83.0089C136.941 82.9324 140.572 80.7216 142.374 77.3508C142.61 76.9096 141.939 76.5163 141.703 76.9583Z" fill="#1B1323"/>
<path d="M143.164 88.9397C142.885 88.7809 142.518 88.8132 142.256 88.9929C142.144 89.0694 142.058 89.1636 141.988 89.2671C141.767 89.4667 141.64 89.7861 141.567 90.0616C141.499 90.3176 141.453 90.6042 141.548 90.8596C141.656 91.1476 141.882 91.3855 142.197 91.4278C142.803 91.5094 143.154 90.9387 143.344 90.452C143.434 90.2212 143.479 89.9756 143.499 89.7295C143.524 89.428 143.447 89.1006 143.164 88.9397Z" fill="#1B1323"/>
<path d="M147.23 90.0681C146.951 89.9194 146.594 89.9644 146.345 90.1534C146.238 90.2338 146.157 90.3309 146.092 90.4368C145.884 90.644 145.772 90.9677 145.71 91.2456C145.653 91.5037 145.619 91.7919 145.721 92.0439C145.836 92.3279 146.065 92.5576 146.375 92.5888C146.97 92.6489 147.292 92.0661 147.46 91.5733C147.54 91.3396 147.576 91.0927 147.586 90.8457C147.599 90.5437 147.512 90.2193 147.23 90.0684V90.0681Z" fill="#1B1323"/>
<path d="M148.465 115.728C151.622 120.7 153.935 126.182 155.28 131.917C155.66 133.539 155.96 135.179 156.187 136.829C156.255 137.323 157.004 137.113 156.937 136.623C156.131 130.752 154.339 125.032 151.655 119.749C150.887 118.238 150.045 116.767 149.136 115.336C148.869 114.914 148.196 115.304 148.465 115.728Z" fill="#1B1323"/>
<path d="M144.742 158.922C144.747 159.136 144.747 159.355 144.742 159.574C144.663 162.666 143.274 165.887 141.805 169.053C141.108 170.557 140.56 172.728 139.968 174.988C138.748 179.643 137.329 184.682 134.033 185.045C133.147 185.145 132.076 185 130.901 184.637C130.154 184.408 129.367 184.094 128.566 183.696C126.47 182.66 124.254 181.082 122.312 179.076C121.436 178.169 120.565 177.263 119.688 176.352C118.498 175.112 117.308 173.868 116.123 172.613C114.445 170.84 112.773 169.053 111.129 167.246C110.567 166.623 110.009 166.001 109.456 165.374C108.51 164.308 107.579 163.238 106.663 162.152C105.155 160.365 103.686 158.548 102.282 156.681C101.769 156.004 101.266 155.322 100.768 154.635C98.7169 151.782 96.5261 149.312 94.8232 146.215C94.5892 145.792 94.639 144.881 94.4148 144.453C94.2208 144.085 93.215 144.144 92.9559 143.811C92.6124 143.373 92.3286 142.785 92.0796 142.108C91.7609 141.226 91.5121 140.181 91.3027 139.081C90.9393 137.234 90.6903 135.222 90.3917 133.569C90.1676 132.349 90.0381 131.125 90.0283 129.91C90.0283 129.681 90.0283 129.447 90.0381 129.218C90.0482 128.754 90.0781 128.297 90.1278 127.843C90.6604 122.944 93.5633 119.17 97.3871 116.168C98.0692 115.78 98.6121 115.491 99.0451 115.287C99.0485 115.287 99.0517 115.285 99.0549 115.282C100.026 114.988 100.792 115.093 100.982 115.147C101.499 115.302 102.022 115.421 102.555 115.516C103.65 115.7 104.721 115.909 105.776 116.248C107.783 116.9 109.401 118.03 111.074 119.315C111.169 119.384 114.654 122.252 115.167 122.87C115.704 123.502 116.232 124.144 116.76 124.782C116.999 125.065 118.383 126.39 119.951 127.978C121.106 129.158 122.366 130.487 123.332 131.652C123.84 132.27 124.517 132.768 125.135 133.35C127.699 135.74 130.492 138.314 132.902 140.604C133.524 141.197 134.122 141.764 134.679 142.312C135.317 142.934 135.909 143.522 136.437 144.064C137.179 144.826 137.801 145.503 138.259 146.056C138.364 146.185 138.468 146.31 138.563 146.429C141.799 150.387 140.649 149.621 142.74 153.345C142.954 153.728 143.204 154.161 143.497 154.649C144.314 156.029 144.687 157.457 144.742 158.921L144.742 158.922Z" fill="#F0DED7"/>
<path d="M145.139 158.907C145.078 157.281 144.653 155.822 143.838 154.445C143.579 154.014 143.333 153.591 143.087 153.151C142.358 151.852 142.029 151.11 141.765 150.513C141.271 149.396 140.998 148.78 138.875 146.184C138.817 146.11 138.755 146.035 138.692 145.958L138.566 145.803C138.114 145.258 137.494 144.58 136.722 143.788C136.241 143.293 135.68 142.734 134.958 142.029C134.43 141.511 133.873 140.98 133.283 140.418L133.176 140.317C131.444 138.671 129.499 136.864 127.617 135.116C126.871 134.423 126.13 133.734 125.408 133.062C125.193 132.859 124.972 132.667 124.757 132.481C124.344 132.122 123.955 131.783 123.638 131.399C122.826 130.42 121.713 129.21 120.235 127.7C119.491 126.947 118.789 126.253 118.23 125.701C117.643 125.12 117.179 124.662 117.067 124.529L116.778 124.18C116.345 123.656 115.911 123.131 115.473 122.617C114.927 121.959 111.46 119.106 111.317 119.001C109.752 117.799 108.046 116.568 105.898 115.87C104.779 115.511 103.662 115.3 102.625 115.125C102.078 115.028 101.578 114.911 101.093 114.767C100.791 114.68 99.954 114.596 98.9403 114.902C98.9186 114.909 98.8974 114.917 98.8773 114.928L98.8762 114.928C98.4371 115.135 97.8861 115.428 97.191 115.823C97.1738 115.833 97.1577 115.844 97.1423 115.856C92.647 119.386 90.2234 123.293 89.7335 127.8C89.6827 128.262 89.6517 128.736 89.6419 129.201C89.6319 129.436 89.6318 129.675 89.6318 129.913C89.6416 131.103 89.766 132.357 90.0016 133.64C90.1286 134.343 90.2457 135.105 90.3695 135.911C90.5341 136.984 90.7046 138.094 90.9134 139.155C91.1545 140.423 91.4142 141.433 91.7074 142.245C91.9946 143.026 92.3011 143.618 92.6428 144.054C92.6915 144.117 92.7497 144.169 92.8135 144.215C92.9054 143.944 93.029 143.687 93.1783 143.443C92.9221 143.083 92.6839 142.6 92.4533 141.973C92.1752 141.204 91.9263 140.233 91.6929 139.004C91.487 137.957 91.3179 136.856 91.1543 135.791C91.0296 134.979 90.9121 134.212 90.7827 133.498C90.5553 132.259 90.4351 131.051 90.4259 129.91C90.4259 129.687 90.4259 129.458 90.4357 129.226C90.4455 128.777 90.4749 128.326 90.5233 127.886C90.9883 123.609 93.3064 119.884 97.61 116.499C98.2664 116.125 98.7871 115.849 99.1994 115.654C100.063 115.399 100.737 115.49 100.869 115.528C101.381 115.681 101.909 115.804 102.49 115.908C103.501 116.078 104.585 116.282 105.655 116.626C107.681 117.284 109.324 118.471 110.836 119.632C110.974 119.739 114.392 122.556 114.865 123.127C115.304 123.643 115.736 124.165 116.167 124.685L116.458 125.037C116.595 125.201 117.024 125.624 117.673 126.265C118.23 126.815 118.929 127.507 119.669 128.256C121.131 129.749 122.23 130.943 123.027 131.905C123.385 132.339 123.818 132.716 124.237 133.08C124.447 133.262 124.659 133.446 124.865 133.641C125.589 134.315 126.331 135.004 127.077 135.697C128.957 137.444 130.901 139.249 132.629 140.892L132.736 140.993C133.324 141.553 133.879 142.081 134.403 142.596C135.121 143.297 135.677 143.852 136.154 144.342C136.911 145.12 137.517 145.781 137.952 146.306L138.079 146.462C138.139 146.535 138.197 146.606 138.257 146.681C140.316 149.2 140.558 149.746 141.04 150.835C141.311 151.446 141.648 152.208 142.395 153.539C142.644 153.985 142.894 154.416 143.157 154.852C143.901 156.109 144.29 157.444 144.346 158.933C144.351 159.141 144.351 159.353 144.346 159.564C144.269 162.564 142.93 165.686 141.445 168.887C140.776 170.329 140.25 172.341 139.694 174.47L139.584 174.888C138.234 180.041 136.881 184.332 133.989 184.651C133.173 184.744 132.146 184.607 131.018 184.258C130.274 184.03 129.509 183.721 128.742 183.341C126.58 182.272 124.398 180.66 122.598 178.8C121.805 177.98 121.016 177.16 120.223 176.336L119.975 176.078C118.926 174.985 117.683 173.686 116.412 172.341C114.446 170.263 112.86 168.56 111.424 166.98C110.863 166.359 110.306 165.738 109.754 165.111C108.745 163.974 107.833 162.923 106.967 161.897C105.327 159.953 103.898 158.169 102.599 156.442C102.125 155.816 98.6091 151.431 98.4628 151.239C98.1764 151.327 98.1375 151.386 97.8278 151.388C98.0608 151.695 98.2926 152.001 98.5303 152.311C99.1624 153.137 99.8158 153.99 100.447 154.868C100.992 155.619 101.488 156.29 101.965 156.92C103.272 158.658 104.71 160.454 106.361 162.409C107.231 163.44 108.147 164.496 109.159 165.637C109.713 166.266 110.272 166.889 110.836 167.513C112.277 169.098 113.865 170.805 115.835 172.886C117.108 174.233 118.352 175.533 119.403 176.628L119.651 176.886C120.444 177.711 121.234 178.532 122.027 179.352C123.916 181.303 126.116 182.929 128.39 184.052C129.194 184.451 130 184.776 130.784 185.017C131.768 185.321 132.664 185.474 133.457 185.474C133.671 185.474 133.878 185.462 134.077 185.44C137.746 185.036 139.191 179.52 140.353 175.089L140.462 174.671C141.01 172.577 141.527 170.599 142.166 169.221C143.687 165.941 145.059 162.736 145.14 159.583C145.145 159.358 145.145 159.132 145.14 158.913C145.14 158.911 145.14 158.909 145.14 158.907H145.139Z" fill="#1B1323"/>
<path d="M180.152 151.872C179.604 154.237 177.951 156.178 176.433 157.995C176.049 158.459 175.367 159.131 174.471 159.957C173.908 160.475 173.261 161.053 172.544 161.675C170.597 163.373 168.138 165.419 165.529 167.545C164.866 168.083 164.194 168.625 163.517 169.173C159.619 172.309 155.586 175.466 152.528 177.791C151.742 178.394 151.015 178.936 150.378 179.409C149.312 180.201 148.481 180.798 147.968 181.137C144.602 183.358 140.883 185.344 136.73 185.314C135.819 185.309 134.918 185.215 134.037 185.045C133.001 184.851 131.99 184.547 131.019 184.154C130.233 183.836 129.466 183.452 128.734 183.014C124.477 180.495 121.221 176.163 119.931 171.398C119.284 168.989 119.194 166.141 119.841 163.547C119.996 163.581 120.18 163.492 120.145 163.293C120.115 163.103 120.095 162.914 120.08 162.725C120.648 160.948 121.589 159.335 122.973 158.115C124.661 156.631 126.384 155.188 128.107 153.734C130.696 151.553 133.3 149.392 135.924 147.236C135.929 147.231 135.938 147.226 135.944 147.222C136.71 146.828 137.487 146.44 138.264 146.056C138.398 145.992 138.528 145.927 138.662 145.862C139.095 145.648 139.533 145.434 139.972 145.225C140.574 144.936 141.171 144.642 141.774 144.354C141.923 144.279 142.073 144.209 142.222 144.134C143.562 143.472 144.881 142.765 146.195 142.068C147.186 141.54 148.177 141.018 149.173 140.495C149.905 140.111 150.642 139.728 151.378 139.35C152.095 138.981 152.817 138.622 153.539 138.264C154.998 137.542 156.477 136.88 157.96 136.213C158.722 135.864 159.489 135.521 160.251 135.167C160.336 135.128 160.42 135.088 160.505 135.048C162.437 134.142 164.632 133.031 166.818 133.554C168.61 133.987 170.124 135.237 171.404 136.506C172.773 137.871 173.958 139.404 175.168 140.908C176.537 142.606 178.041 144.204 179.116 146.121C180.107 147.883 180.62 149.865 180.152 151.871V151.872Z" fill="#F0DED7"/>
<path d="M179.457 145.927C178.62 144.435 177.523 143.125 176.463 141.858C176.13 141.46 175.797 141.062 175.472 140.659L174.995 140.064C173.956 138.767 172.883 137.426 171.678 136.225C170.497 135.054 168.887 133.647 166.905 133.168C164.686 132.638 162.517 133.659 160.603 134.561L160.078 134.808C159.599 135.03 159.118 135.248 158.637 135.467C158.355 135.595 158.072 135.723 157.792 135.851L157.61 135.933C156.21 136.563 154.763 137.213 153.358 137.909C152.634 138.268 151.91 138.627 151.192 138.997C150.454 139.376 149.716 139.759 148.983 140.144C147.986 140.667 146.995 141.19 146.004 141.717L145.543 141.962C144.4 142.569 143.219 143.196 142.039 143.779C141.965 143.816 141.891 143.852 141.817 143.888C141.742 143.924 141.667 143.961 141.597 143.996C141.295 144.14 140.995 144.286 140.694 144.432C140.395 144.577 140.095 144.723 139.795 144.867C139.355 145.076 138.916 145.291 138.484 145.504L138.083 145.7C137.62 145.929 137.193 146.142 136.787 146.346C136.97 146.543 137.133 146.758 137.276 146.988C137.641 146.805 138.022 146.615 138.431 146.414L138.833 146.218C139.265 146.005 139.701 145.792 140.138 145.583C140.44 145.438 140.741 145.292 141.041 145.146C141.341 145.001 141.64 144.855 141.946 144.709C142.018 144.673 142.091 144.638 142.163 144.603C142.24 144.566 142.317 144.528 142.393 144.49C143.581 143.903 144.768 143.273 145.916 142.664L146.377 142.419C147.367 141.892 148.357 141.369 149.352 140.847C150.083 140.464 150.819 140.081 151.555 139.703C152.27 139.336 152.99 138.978 153.711 138.621C155.103 137.932 156.543 137.284 157.936 136.658L158.121 136.575C158.402 136.446 158.684 136.318 158.965 136.19C159.448 135.971 159.932 135.752 160.415 135.527L160.942 135.279C162.738 134.433 164.773 133.475 166.72 133.941C168.51 134.373 170.012 135.69 171.119 136.788C172.291 137.957 173.351 139.28 174.375 140.561L174.854 141.158C175.182 141.565 175.519 141.967 175.855 142.368C176.892 143.607 177.965 144.888 178.765 146.316C179.83 148.21 180.164 150.049 179.76 151.782V151.782C179.245 154.007 177.705 155.849 176.216 157.63L176.122 157.743C175.775 158.162 175.145 158.791 174.197 159.665C173.627 160.19 172.981 160.766 172.278 161.376C170.504 162.923 168.147 164.895 165.274 167.237C164.776 167.641 164.273 168.048 163.766 168.457L163.263 168.864C159.503 171.89 155.501 175.029 152.282 177.477C151.459 178.107 150.703 178.671 150.136 179.091C149.046 179.901 148.242 180.478 147.744 180.806C144.955 182.647 141.655 184.515 137.991 184.858C136.735 184.95 134.133 185.077 131.23 184.322C132.168 184.685 133.007 185.258 133.957 185.436C134.885 185.614 135.816 185.707 136.723 185.712C136.754 185.712 136.786 185.712 136.817 185.712C141.161 185.712 144.998 183.569 148.182 181.469C148.691 181.133 149.508 180.547 150.609 179.729C151.178 179.307 151.938 178.741 152.764 178.108C155.987 175.656 159.995 172.513 163.762 169.482L164.266 169.075C164.773 168.665 165.276 168.258 165.775 167.853C168.656 165.505 171.019 163.527 172.8 161.975C173.508 161.36 174.159 160.78 174.735 160.25C175.711 159.35 176.364 158.696 176.733 158.251L176.826 158.14C178.302 156.373 179.976 154.372 180.534 151.963C180.985 150.03 180.623 147.999 179.458 145.928L179.457 145.927Z" fill="#1B1323"/>
<path d="M92.1963 143.12C95.97 149.512 100.475 155.469 105.179 161.2C108.955 165.8 112.898 170.272 117.005 174.579C117.964 175.584 118.909 176.637 119.954 177.555C120.329 177.885 120.881 177.337 120.504 177.005C119.637 176.243 118.848 175.376 118.049 174.544C116.378 172.807 114.742 171.037 113.129 169.246C108.459 164.061 103.969 158.699 99.8161 153.089C97.3414 149.747 94.9831 146.311 92.8681 142.728C92.6137 142.297 91.9411 142.688 92.1965 143.12L92.1963 143.12Z" fill="#1B1323"/>
<path d="M162.113 133.761C156.996 136.267 151.9 138.813 146.792 141.337C141.586 143.909 136.003 146.193 131.652 150.139C129.194 152.368 127.161 155.023 125.329 157.777C125.051 158.195 125.724 158.585 126 158.169C127.627 155.725 129.41 153.374 131.523 151.326C133.68 149.235 136.182 147.601 138.82 146.181C141.325 144.833 143.907 143.626 146.458 142.367C149.015 141.105 151.568 139.837 154.122 138.571C156.914 137.187 159.707 135.803 162.506 134.433C162.955 134.213 162.562 133.542 162.113 133.761Z" fill="#1B1323"/>
<path d="M121.053 151.753C126.136 150.462 131.015 148.429 135.512 145.729C135.94 145.472 135.55 144.799 135.119 145.058C130.677 147.725 125.868 149.727 120.846 151.003C120.361 151.126 120.567 151.877 121.053 151.753Z" fill="#1B1323"/>
<path d="M191.603 152.514C191.523 151.723 191.434 150.886 191.329 150.01C191.01 147.272 190.597 144.175 190.089 141.043C189.95 140.207 189.806 139.365 189.656 138.529C189.193 135.97 188.67 133.436 188.083 131.095C187.555 129.009 185.758 127.665 184.119 126.41C183.592 126.002 183.029 125.624 182.437 125.265C178.443 122.855 174.032 121.172 169.456 120.271C169.372 120.221 169.277 120.172 169.183 120.127C167.908 119.544 166.529 119.728 165.409 120.41C164.975 120.669 164.587 120.998 164.263 121.386C164.164 121.496 164.074 121.615 163.989 121.74C162.56 123.776 161.54 125.096 161.819 127.505C162.093 129.865 162.252 132.166 162.321 134.391C162.336 134.834 162.351 135.273 162.356 135.706C162.366 136.129 162.371 136.552 162.371 136.97C162.391 139.808 162.286 142.522 162.137 145.081C162.082 145.977 162.023 146.853 161.963 147.709C161.893 148.63 161.823 149.527 161.754 150.398C161.604 152.31 161.455 154.222 161.31 156.133C161.261 156.761 161.216 157.383 161.171 158.011C161.156 158.22 161.141 158.429 161.131 158.648C160.997 160.764 160.967 163.318 161.251 165.703C161.365 166.679 161.534 167.63 161.768 168.506C161.958 169.203 162.191 169.855 162.47 170.443C162.894 171.334 163.387 172.728 163.889 173.57C165.104 175.611 165.761 173.46 167.29 175.272C168.679 176.925 170.123 178.773 171.985 179.918C172.115 179.997 172.249 180.072 172.384 180.147C172.692 180.306 173.011 180.45 173.34 180.565C177.876 182.178 182.954 179.186 186.31 175.676C186.952 175.003 187.535 174.316 188.033 173.634C188.192 173.42 188.342 173.206 188.481 172.997C188.864 172.424 189.218 171.832 189.541 171.224C190.338 169.741 190.96 168.167 191.383 166.539C191.588 165.777 191.742 165.006 191.857 164.229C191.912 163.856 191.951 163.482 191.976 163.109C192.046 162.277 192.056 161.451 192.081 160.619C192.086 160.266 192.096 159.917 192.11 159.564C192.145 158.797 191.976 156.128 191.603 152.514L191.603 152.514Z" fill="#F0DED7"/>
<path d="M191.997 152.474C191.907 151.577 191.817 150.756 191.723 149.964C191.359 146.846 190.941 143.823 190.48 140.978C190.341 140.14 190.196 139.297 190.046 138.458C189.543 135.68 189.012 133.17 188.467 130.998C187.915 128.817 186.075 127.408 184.451 126.165L184.362 126.096C183.843 125.695 183.28 125.312 182.641 124.926C178.641 122.512 174.253 120.819 169.597 119.895C169.518 119.851 169.434 119.807 169.347 119.766C168.025 119.162 166.514 119.273 165.204 120.07C164.727 120.355 164.308 120.713 163.969 121.12C163.867 121.232 163.766 121.362 163.664 121.512L163.475 121.78C162.119 123.707 161.14 125.099 161.424 127.551C161.684 129.792 161.852 132.098 161.925 134.426C161.939 134.859 161.954 135.287 161.959 135.715C161.969 136.135 161.974 136.555 161.974 136.973C161.991 139.461 161.917 142.03 161.74 145.057C161.686 145.952 161.626 146.827 161.567 147.68C161.497 148.6 161.428 149.496 161.358 150.367C161.208 152.28 161.059 154.192 160.915 156.102C160.865 156.73 160.82 157.354 160.775 157.982L160.773 158.009C160.758 158.213 160.744 158.417 160.735 158.623C160.619 160.439 160.547 163.15 160.856 165.749C160.978 166.791 161.156 167.753 161.385 168.61C161.584 169.342 161.828 170.016 162.111 170.613C162.263 170.932 162.425 171.32 162.596 171.73C162.606 171.756 162.617 171.782 162.628 171.807C162.63 171.33 162.613 171.181 162.793 170.755C162.767 170.698 162.659 170.366 162.633 170.312C162.37 169.757 162.26 169.137 162.074 168.451C161.855 167.632 161.762 166.661 161.644 165.656C161.342 163.116 161.414 160.457 161.527 158.666C161.537 158.46 161.551 158.262 161.565 158.065L161.567 158.039C161.612 157.413 161.656 156.791 161.706 156.164C161.85 154.252 161.999 152.34 162.149 150.43C162.219 149.558 162.288 148.661 162.358 147.737C162.418 146.879 162.478 146.002 162.533 145.104C162.71 142.058 162.785 139.473 162.768 136.97C162.768 136.549 162.763 136.122 162.753 135.701C162.748 135.272 162.733 134.838 162.717 134.379C162.645 132.051 162.475 129.723 162.212 127.46C161.963 125.308 162.823 124.086 164.125 122.237L164.317 121.963C164.401 121.84 164.48 121.738 164.568 121.641C164.86 121.29 165.211 120.99 165.614 120.75C166.698 120.09 167.938 119.995 169.012 120.486C169.095 120.525 169.179 120.569 169.254 120.613C169.293 120.636 169.335 120.652 169.379 120.661C173.968 121.565 178.292 123.228 182.231 125.605C182.843 125.975 183.382 126.342 183.878 126.725L183.969 126.795C185.564 128.016 187.213 129.279 187.697 131.192C188.238 133.345 188.766 135.838 189.265 138.598C189.414 139.433 189.558 140.273 189.697 141.107C190.156 143.938 190.573 146.949 190.935 150.057C191.029 150.845 191.118 151.662 191.208 152.554V152.555C191.584 156.191 191.747 158.825 191.714 159.547C191.699 159.904 191.689 160.257 191.684 160.608L191.67 161.101C191.653 161.749 191.635 162.42 191.58 163.083C191.556 163.441 191.517 163.807 191.464 164.171C191.348 164.959 191.192 165.721 190.999 166.439C190.588 168.022 189.98 169.568 189.191 171.038C188.87 171.64 188.52 172.225 188.15 172.777C188.005 172.994 187.858 173.203 187.712 173.4C187.233 174.056 186.664 174.729 186.023 175.401C183.908 177.613 181.012 179.675 178.022 180.365C177.877 180.463 174.696 180.889 174.536 180.961C174.038 181.341 176.488 181.274 175.879 181.404C175.908 181.405 175.937 181.406 175.966 181.406C179.897 181.406 183.876 178.796 186.596 175.949C187.263 175.252 187.854 174.552 188.351 173.871C188.504 173.666 188.658 173.446 188.81 173.217C189.194 172.644 189.558 172.037 189.891 171.412C190.709 169.888 191.34 168.282 191.767 166.642C191.966 165.897 192.128 165.105 192.249 164.286C192.306 163.901 192.347 163.514 192.371 163.142C192.428 162.463 192.446 161.781 192.464 161.122L192.477 160.625C192.483 160.275 192.492 159.931 192.507 159.582C192.547 158.692 192.338 155.769 191.997 152.473L191.997 152.474Z" fill="#1B1323"/>
<path d="M185.62 128.78C185.191 127.939 184.689 127.147 184.121 126.41C183.593 126.002 183.031 125.624 182.438 125.265C181.756 124.852 181.064 124.463 180.357 124.095C176.931 122.303 173.252 121.018 169.458 120.271C169.373 120.222 169.279 120.172 169.184 120.127C168.143 119.649 167.028 119.689 166.047 120.087C165.828 120.177 165.614 120.286 165.405 120.411C164.344 121.038 163.09 122.472 162.875 123.701C162.846 123.886 162.836 124.07 162.846 124.249C162.851 124.433 162.88 124.612 162.925 124.792C163.199 125.922 164.115 126.948 164.877 127.739C165.664 128.566 166.475 129.377 167.327 130.149C168.965 131.643 170.732 133.002 172.664 134.077C174.671 135.193 176.877 135.88 179.177 135.984C180.506 136.044 181.92 136.064 183.239 135.855C183.25 135.855 183.459 135.82 183.558 135.8C184.534 135.596 185.455 135.138 186.008 134.261C186.391 133.639 186.556 132.947 186.561 132.245C186.566 131.05 186.132 129.805 185.62 128.78V128.78Z" fill="#1B1323"/>
<path d="M183.237 135.855C181.918 136.064 180.504 136.044 179.174 135.984C176.874 135.88 174.669 135.193 172.662 134.077C170.73 133.002 168.963 131.643 167.325 130.149C166.473 129.378 165.662 128.566 164.875 127.739C164.113 126.948 163.197 125.922 162.923 124.792C162.898 124.613 162.873 124.434 162.843 124.249C162.006 123.854 159.41 122.898 157.62 119.256C157.391 120.127 156.535 120.874 155.713 121.217C154.753 121.63 153.771 121.675 152.831 121.481C151.954 121.481 151.217 121.108 150.63 120.53C149.744 119.943 148.967 119.151 148.384 118.29C147.244 116.592 146.736 114.346 147.269 112.37C146.736 111.987 146.144 111.628 145.705 111.065C144.819 109.93 144.446 108.551 144.555 107.137C144.536 106.943 144.526 106.744 144.531 106.55C144.566 104.802 145.437 103.149 146.786 102.064C146.721 101.526 146.452 100.904 146.467 100.401C146.512 99.0714 147.06 97.9611 148.056 97.0898C148.16 96.9953 148.265 96.9106 148.374 96.8209C151.153 94.6551 156.57 94.815 159.747 95.6961C163.352 96.6918 173.921 107.407 175.763 110.564C177.576 113.66 178.254 115.247 179.095 118.713C179.528 120.495 179.946 122.297 180.355 124.095C180.798 126.061 181.231 128.023 181.679 129.96C182.063 131.613 183.168 135.541 183.248 135.79C183.253 135.81 183.248 135.854 183.238 135.854L183.237 135.855Z" fill="#FFA870"/>
<path d="M147.356 102.018C149.547 99.7427 152.841 98.9233 155.894 98.8089C156.393 98.7904 156.396 98.0125 155.894 98.0313C152.638 98.1534 149.141 99.0437 146.806 101.468C146.459 101.829 147.008 102.38 147.356 102.018L147.356 102.018Z" fill="#1B1323"/>
<path d="M147.719 111.778C148.324 109.899 149.471 108.254 150.927 106.933C152.45 105.553 154.413 104.317 156.536 104.37C157.037 104.383 157.037 103.605 156.536 103.592C154.248 103.535 152.145 104.815 150.486 106.286C148.878 107.71 147.629 109.522 146.969 111.571C146.815 112.048 147.566 112.253 147.719 111.778L147.719 111.778Z" fill="#1B1323"/>
<path d="M154.674 113.64C153.398 114.62 152.496 116.036 152.21 117.627C152.173 117.833 152.266 118.046 152.482 118.105C152.67 118.157 152.923 118.041 152.96 117.834C153.207 116.455 153.95 115.169 155.066 114.312C155.233 114.184 155.322 113.977 155.206 113.78C155.11 113.616 154.841 113.511 154.674 113.64H154.674Z" fill="#1B1323"/>
<path d="M153.719 115.526C155.011 116.432 156.069 117.641 156.816 119.028C157.054 119.469 157.725 119.077 157.488 118.636C156.676 117.128 155.512 115.837 154.112 114.855C153.94 114.734 153.68 114.824 153.58 114.994C153.466 115.188 153.547 115.405 153.719 115.526Z" fill="#1B1323"/>
<path d="M163.344 125.066C165.429 125.249 167.558 124.668 169.26 123.449C169.664 123.161 169.276 122.486 168.868 122.778C167.263 123.927 165.311 124.461 163.344 124.288C162.846 124.245 162.849 125.023 163.344 125.066L163.344 125.066Z" fill="#1B1323"/>
<path d="M162.006 124.087C161.219 125.296 161.338 126.759 161.497 128.126C161.704 129.907 161.84 131.692 161.902 133.483C162.026 137.061 161.886 140.641 161.66 144.212C161.436 147.766 161.126 151.314 160.902 154.868C160.696 158.125 160.477 161.426 160.705 164.688C160.929 167.895 161.822 170.903 163.271 173.768C163.497 174.214 164.169 173.821 163.943 173.375C162.663 170.846 161.803 168.173 161.537 165.344C161.248 162.281 161.431 159.17 161.605 156.106C162 149.167 162.799 142.243 162.721 135.284C162.699 133.324 162.607 131.364 162.415 129.413C162.26 127.832 161.745 125.911 162.677 124.48C162.951 124.059 162.278 123.669 162.006 124.087Z" fill="#1B1323"/>
</g>
<path d="M326.134 20.9338C329.951 20.32 332.548 16.7282 331.934 12.9112C331.32 9.09425 327.728 6.49761 323.911 7.11145C320.094 7.72529 317.498 11.3172 318.111 15.1341C318.725 18.9511 322.317 21.5477 326.134 20.9338Z" fill="#FFC073"/>
<path d="M33 153.432C37.7967 153.432 41.6864 158.552 41.6864 164.864C41.6864 158.552 45.5765 153.432 50.3728 153.432C45.5761 153.432 41.6864 148.313 41.6864 142C41.6864 148.313 37.7967 153.432 33 153.432Z" fill="#FFBBD0"/>
</svg>
