<svg width="113" height="116" viewBox="0 0 113 116" fill="none" xmlns="http://www.w3.org/2000/svg">
<mask id="mask0_302_391" style="mask-type:alpha" maskUnits="userSpaceOnUse" x="3" y="25" width="110" height="91">
<rect width="110" height="90.8694" transform="matrix(-1 0 0 1 113 25)" fill="#D9D9D9"/>
</mask>
<g mask="url(#mask0_302_391)">
<path d="M33.7566 71.2259C33.9845 70.353 34.2196 69.4805 34.4786 68.6115C35.0265 66.773 35.7534 64.9898 36.7666 63.3562C37.782 61.7193 39.1299 60.3471 40.4028 58.914C40.4129 58.9027 40.421 58.8911 40.4305 58.8795C40.7232 58.6685 41.0201 58.4626 41.3256 58.2682C43.0073 57.1984 44.8498 56.3417 46.762 55.7756C46.9583 55.7175 47.1558 55.6635 47.3534 55.6099C48.0027 56.2675 48.3219 57.2242 48.1748 58.0537C48.1748 58.084 48.1786 58.1143 48.1786 58.1465C48.173 58.3186 48.1521 58.4832 48.1199 58.6441C48.5532 59.278 48.7065 60.0707 48.5532 60.8598C48.2827 62.2524 48.0083 63.6432 47.7321 65.0339C48.1294 65.4898 48.383 66.0651 48.4738 66.716C49.0925 71.2232 48.4983 75.7795 47.611 80.2356C47.1341 82.6274 46.5986 85.0133 46.0481 87.3956V87.3994C45.8929 88.0673 45.7358 88.7371 45.5807 89.4051C45.5032 89.7362 45.4255 90.0655 45.3498 90.3946C45.1171 91.3937 44.8844 92.3928 44.6554 93.3918C44.6478 93.424 44.6421 93.4543 44.6346 93.4845C44.3395 93.8119 44.0557 94.1127 43.7813 94.3909C40.9317 97.2972 39.2155 97.6435 36.1388 97.2234C32.9789 96.7711 31.0299 93.8175 30.4376 89.439C31.5445 83.6036 32.5473 78.2223 32.8804 76.4001C33.1926 74.6914 33.4605 72.9574 33.7568 71.2257L33.7566 71.2259Z" fill="#7A4F3A"/>
<path d="M23.8785 119.691C23.8766 120.409 24.0413 121.092 24.4746 121.701C24.4784 121.707 24.4822 121.712 24.4878 121.718C25.36 122.914 27.5683 123.075 29.0139 123.542C30.1927 123.922 32.7263 124.602 33.9866 124.672C34.0869 124.677 34.1834 124.681 34.278 124.681C35.2923 124.683 36.0453 124.397 36.6262 123.915C37.6631 123.058 38.1493 121.58 38.5714 120.023C39.752 115.667 40.5884 111.216 41.5913 106.825C42.3785 103.375 43.1655 99.9278 43.9527 96.4783C44.1798 95.4811 44.4086 94.4821 44.6357 93.4849C44.42 92.3155 44.0322 91.1481 43.4627 90.1169C42.4731 88.3156 40.931 86.9191 38.789 86.6278C35.629 86.1756 32.8059 87.4755 30.4388 89.4395C29.016 96.9515 27.4188 105.218 26.8587 107.618C26.3497 109.797 25.8408 111.977 25.3318 114.155C24.9459 115.811 23.8806 117.866 23.8787 119.692L23.8785 119.691Z" fill="#7A4F3A"/>
<path d="M48.8159 104.1C48.9446 104.442 49.0714 104.783 49.2001 105.123C49.2115 105.152 49.2208 105.18 49.2322 105.208C49.2928 105.375 49.3571 105.539 49.4195 105.704C51.1926 110.429 52.9315 115.031 54.6496 119.559V119.561L54.8481 120.083C54.8557 120.105 54.8652 120.126 54.8727 120.149C58.6116 129.99 62.2579 139.487 65.9476 149.147C65.9608 149.182 65.976 149.218 65.9893 149.254C66.0536 149.425 66.1199 149.595 66.1861 149.767V149.769C66.7178 151.158 67.2476 152.552 67.7831 153.953V153.954C67.8286 154.076 67.8739 154.195 67.9213 154.316C68.4738 154.594 69.0566 154.827 69.662 155.018C72.6384 155.962 76.1239 155.884 78.9149 155.004C82.6103 153.871 85.6056 151.636 87.4297 148.446C87.3937 148.355 87.3577 148.265 87.3218 148.176C87.2858 148.089 87.2517 148.002 87.2195 147.915C87.1988 147.867 87.1798 147.82 87.1628 147.773C85.0568 142.395 80.2848 129.435 78.1069 123.81C77.8912 123.25 77.7001 122.762 77.5393 122.363L77.5374 122.357C77.4654 122.175 77.3974 122.011 77.3368 121.865C77.3349 121.859 77.331 121.852 77.3291 121.846C77.2913 121.757 77.2592 121.674 77.2269 121.6C74.3622 114.896 71.3555 108.164 69.0736 101.212C66.9506 101.456 64.8276 101.278 62.7027 101.127C62.3092 101.1 61.9174 101.072 61.5238 101.049C58.8502 100.892 56.15 100.763 53.4725 100.924C51.7318 101.028 50.0023 101.113 48.2672 101.161C48.1536 102.173 48.4432 103.104 48.8159 104.099V104.1Z" fill="#7A6475"/>
<path d="M45.1633 143.928C45.6667 148.182 47.2486 152.356 50.4691 155.215C54.1059 158.517 58.9896 158.786 62.8874 156.615C63.8979 154.121 64.9196 151.633 65.9489 149.147C66.9556 146.713 67.9697 144.284 68.9859 141.854C68.9859 141.852 68.9878 141.851 68.9878 141.849C71.6784 135.425 74.388 129.008 77.0484 122.573C77.1279 122.38 77.2262 122.142 77.3379 121.865C77.3606 121.812 77.3815 121.757 77.4042 121.703C77.4061 121.701 77.4061 121.699 77.4061 121.697C78.0948 120 79.2641 117.055 80.3503 114.195C80.8858 112.787 81.4005 111.398 81.83 110.191C81.8906 110.026 81.9473 109.861 82.0022 109.703C82.0098 109.68 82.0173 109.659 82.0249 109.638C82.462 108.386 82.7838 107.375 82.9029 106.813C83.2151 105.356 83.2094 103.886 83.1262 102.402C83.0543 102.227 82.9806 102.056 82.901 101.882C82.0363 101.824 81.1772 101.731 80.3202 101.61C79.8831 101.551 79.4479 101.483 79.0146 101.411C78.8707 101.386 78.7288 101.362 78.587 101.335C77.938 101.222 77.2927 101.095 76.6494 100.959C76.2539 100.877 75.8585 100.792 75.4649 100.703C73.9702 100.611 72.4697 100.527 70.9749 100.427C68.3543 100.251 65.7297 100.247 63.1109 100.156C62.9747 100.48 62.8403 100.805 62.7041 101.127C59.9964 107.623 57.4136 113.926 54.8743 120.149C51.6178 128.13 48.439 135.981 45.1636 143.928H45.1633Z" fill="#7A4F3A"/>
<path d="M40.5138 60.3962C40.5304 59.854 40.5256 59.32 40.5349 58.8054C40.7949 58.6206 41.0579 58.4399 41.3281 58.2681C43.0098 57.1984 44.8523 56.3417 46.7645 55.7755C47.7026 55.4978 48.6613 55.2903 49.5886 54.9758C50.0289 54.8265 50.4665 54.6555 50.8867 54.4555C51.0435 54.3809 51.1961 54.2987 51.3464 54.2124C51.3724 54.2067 51.3984 54.2019 51.4242 54.1956C51.4431 54.1918 51.4602 54.1861 51.4771 54.1804C51.6418 54.135 51.7686 54.0594 51.8651 53.9609C51.8821 53.9628 51.8973 53.9629 51.9123 53.9648C52.323 53.5977 52.7601 53.2627 53.2407 52.9903C54.3704 52.3507 55.5946 52.2069 56.8756 52.2636C57.9655 52.311 59.0553 52.4755 60.0487 52.9335C60.3325 53.0395 60.6107 53.17 60.8812 53.3346C61.6191 53.7774 62.2436 54.3678 62.8283 54.996C62.8624 55.0339 62.8982 55.0716 62.9324 55.1095C63.0649 55.1228 63.1972 55.1359 63.3297 55.1511C63.3606 55.1543 63.3914 55.1576 63.4223 55.1608C64.1265 55.5857 65.0213 55.756 65.7925 55.9673C67.1316 56.3342 68.4831 56.6583 69.8016 57.0967C71.9881 57.8237 74.0083 58.9844 75.7999 60.4274C75.8591 60.6593 75.9029 60.8976 75.9259 61.1436C76.8246 63.8097 77.2541 66.5931 77.7216 69.3632C78.2117 72.2771 78.7018 75.1911 79.1918 78.1068C80.189 84.0313 81.2183 89.9518 82.1796 95.8839C82.6299 98.6558 83.2695 101.611 83.2032 104.427C83.1654 106.018 82.3839 107.167 81.2354 107.92C81.0727 108.03 80.9005 108.13 80.7226 108.221C80.1058 108.542 79.4094 108.768 78.6829 108.906C76.0585 109.405 68.8644 110.866 66.2324 110.648C63.2674 110.402 64.6281 110.685 61.665 110.42C60.2931 110.297 59.7441 109.212 58.378 109.028C58.2398 109.009 57.3276 107.377 57.2464 107.488C56.588 108.389 56.1661 108.265 54.8833 107.963C53.6743 107.677 50.6901 106.236 49.6532 105.513C48.8302 104.941 48.3627 104.02 48.0997 103.078C47.7687 101.884 47.6872 100.608 47.4999 99.3879C47.2785 97.9404 47.0344 96.4985 46.7771 95.0586C46.2718 92.2468 45.7042 89.4463 45.1157 86.6517C45.1138 86.6422 45.1119 86.6328 45.11 86.6233C45.0969 86.5647 45.0855 86.506 45.0722 86.4474C43.8498 80.6573 42.5405 74.8843 41.4921 69.0602C41.46 68.8843 41.4297 68.7082 41.3975 68.5323V68.5304C40.9132 65.8511 40.4287 63.1226 40.5138 60.3959V60.3962Z" fill="#7A4F3A"/>
<path d="M52.8629 58.3488C52.8629 58.5154 52.8648 58.68 52.8685 58.8446C52.9064 61.0867 53.1883 63.1758 53.5062 64.7841C53.79 66.2278 53.79 66.0822 54.1609 67.505C54.3482 68.2145 54.545 68.9242 54.7531 69.628C54.8913 70.0954 55.879 73.6507 56.3842 73.6338C56.8535 73.6186 57.2622 70.19 57.4211 69.5882C57.6311 68.7898 57.826 67.9855 58.0134 67.1814C58.3842 65.5977 58.7381 64.012 59.0958 62.4264C59.3341 61.3763 59.5839 60.3279 59.8205 59.2759C59.8622 59.0981 59.9019 58.9202 59.9416 58.7404C60.0191 58.3866 60.0967 58.0328 60.1706 57.6789C60.4297 56.4509 60.8044 54.7006 59.7089 53.764C59.3703 53.4745 58.9747 53.4726 58.6549 53.6239C58.6397 53.6032 58.6265 53.5823 58.6095 53.5615C57.0371 51.6106 53.4477 52.4962 53.1488 54.4206C52.9445 55.7319 52.8612 57.0602 52.8631 58.3487L52.8629 58.3488Z" fill="#261F29"/>
<path d="M53.1504 55.6375C53.1144 56.9337 54.545 57.8873 55.7143 58.0973C55.7938 58.1125 55.8732 58.1218 55.9488 58.1294C57.6517 58.2922 60.0964 57.9042 60.3671 55.8456C60.3936 55.6394 60.3803 54.96 60.3595 54.7519C60.2592 53.7358 59.9394 50.5078 59.6972 47.9779C59.6839 47.8492 59.6708 47.7205 59.6594 47.5956C59.6083 47.062 59.5628 46.5682 59.5231 46.1443C59.3074 43.832 58.7529 44.6645 56.5657 44.6911C55.6631 44.7025 54.7151 45.0184 54.0831 45.7412C53.7954 46.0704 53.5911 46.4603 53.453 46.8785C53.2373 47.5237 53.1729 48.2389 53.1824 48.9183C53.2032 50.3318 53.1862 51.6525 53.1729 53.0053C53.1672 53.6166 53.1615 54.2315 53.1598 54.8654V55.1038C53.1598 55.3819 53.1541 55.4746 53.1503 55.6374L53.1504 55.6375Z" fill="#FFA370"/>
<path d="M54.7051 35.4985C56.4605 34.8762 58.541 35.5401 59.7984 37.6592C61.3458 40.2676 59.7428 42.8151 58.5409 45.1651C58.0495 46.1261 57.5781 47.1409 56.8685 47.9658C56.2654 48.6671 55.4571 49.1642 54.6211 49.54C53.8189 49.9006 52.8237 49.9411 51.9433 49.8625C47.5152 49.4669 49.2047 43.3949 50.4818 40.8507C51.3432 39.1346 52.4852 36.2854 54.7051 35.4985Z" fill="#FFA370"/>
<path d="M45.9034 48.3942C46.0793 47.1776 46.9649 45.8871 47.6101 45.0243C48.6925 43.5806 49.5041 42.2088 51.1106 42.4378C52.1588 42.5872 53.1654 43.4501 53.7521 44.2202C54.0321 44.5891 54.367 45.3063 54.8912 45.1039C55.1183 45.0168 56.3653 43.0698 56.4618 42.8465C57.1109 41.3517 57.1335 41.5466 57.6293 39.993C57.9604 38.9618 57.4627 38.0252 56.67 37.4821L56.6681 37.4802C56.4979 37.361 56.3123 37.2626 56.1194 37.185C55.9719 37.1244 55.8186 37.079 55.6633 37.045C55.5649 37.0242 55.4703 37.0052 55.3776 36.9921C55.1524 36.9542 54.9481 36.9353 54.757 36.9239H54.7551C53.3284 36.8483 52.8043 37.3024 52.089 35.0677C51.476 33.1547 53.4381 31.0809 55.3871 31.8737C56.0475 32.1423 56.5337 32.6854 57.0692 33.1642L57.0711 33.1661C57.1922 33.2721 57.3133 33.376 57.442 33.4726C57.6444 33.6258 57.8602 33.7602 58.0853 33.8813C59.5157 34.657 61.3152 34.9314 62.2688 36.343C62.3086 36.3997 62.3444 36.4602 62.3785 36.5189C62.4617 36.6645 62.5336 36.8159 62.5923 36.971C62.8628 37.6863 62.8856 38.4999 62.7455 39.2587C62.4958 40.6173 61.8127 41.8983 61.2072 43.1263C60.3008 44.9597 59.281 46.7347 58.1532 48.4376C57.419 49.5464 56.7719 50.765 55.8429 51.7262C53.8865 53.7527 50.8098 53.2021 48.4956 51.904C48.3329 51.8132 48.1741 51.7186 48.0207 51.6202C47.7104 51.4233 47.417 51.2133 47.1484 50.9977C46.6432 50.5946 46.1645 50.1121 45.9696 49.4953C45.9298 49.3685 45.9034 49.2398 45.8883 49.1073C45.887 49.106 45.887 49.1054 45.8883 49.1054C45.8599 48.8726 45.8674 48.6362 45.9035 48.394L45.9034 48.3942ZM51.9999 46.2674C52.104 46.205 52.193 46.118 52.2572 46.0044C52.28 45.9646 52.2988 45.9231 52.3139 45.8795C52.452 45.5957 52.4464 45.2494 52.2836 44.9636C52.1719 44.7649 52.0187 44.64 51.839 44.5076C51.6971 44.4035 51.5363 44.3354 51.3849 44.2483C51.3225 44.1821 51.2505 44.1253 51.1767 44.0781C50.9761 43.9475 50.6734 43.9191 50.4482 43.9816C50.242 44.0383 49.9732 44.2142 49.8824 44.4167C49.8085 44.5795 49.7405 44.7252 49.7442 44.9125C49.7461 44.9616 49.7518 45.0185 49.7594 45.0733C49.7594 45.219 49.7973 45.3667 49.8654 45.5028C49.9714 45.7147 50.1624 45.8756 50.3517 46.01C50.3725 46.025 50.3952 46.0383 50.4179 46.0535C50.4236 46.0573 50.4293 46.0611 50.435 46.0649C50.4955 46.1141 50.5561 46.1614 50.6166 46.2012C50.6545 46.2258 50.6922 46.2503 50.7339 46.2693C50.9307 46.3754 51.1578 46.4321 51.383 46.4283C51.5098 46.4264 51.6366 46.4075 51.7557 46.3659C51.7633 46.364 51.769 46.3621 51.7746 46.3602C51.7784 46.3602 51.7822 46.3583 51.786 46.3564C51.8618 46.3356 51.9318 46.3053 51.9979 46.2674H51.9999Z" fill="#4F3634"/>
<path d="M58.9163 42.8488C59.4068 42.5245 60.1554 42.4135 60.6659 42.7138C60.8308 42.7538 60.9964 42.821 61.1591 42.921C61.9598 43.4124 62.1042 44.473 61.8319 45.3061C61.3486 46.7847 58.665 48.9995 57.4514 46.9646C57.0395 46.274 57.1679 45.3154 57.6022 44.5295C57.8421 43.8466 58.3078 43.2508 58.916 42.8486L58.9163 42.8488Z" fill="#FFA370"/>
<path d="M75.4963 88.5418C77.3206 85.7683 81.0602 83.6325 84.9045 84.5302C87.2041 85.1514 89.0627 86.4275 90.4948 88.0124C90.6968 88.2359 90.8585 88.4929 90.9684 88.7733C93.3347 94.8048 95.5702 100.889 97.6029 107.005C98.3995 109.401 99.1392 111.815 99.8052 114.246C100.115 115.379 100.411 116.515 100.69 117.655C100.975 118.816 101.576 121.441 101.577 121.444C101.873 122.453 101.559 122.451 101.198 122.8C98.3919 125.514 91.8001 127.397 89.0686 126.544C88.9029 126.492 88.7562 126.39 88.6507 126.252C87.5789 124.854 87.1992 123.541 86.649 122.077C84.5606 116.518 82.5214 110.943 80.4621 105.374C80.445 105.328 80.4265 105.283 80.4065 105.238C79.66 103.556 78.9418 101.864 78.2514 100.162C77.0531 97.2069 75.9398 94.2248 74.8977 91.2213C74.6812 90.5973 74.7225 89.9079 75.0261 89.3212C75.1679 89.0474 75.3241 88.7866 75.4961 88.5421L75.4963 88.5418Z" fill="#7A4F3A"/>
<path d="M66.6938 58.8618C66.8508 58.1616 67.0684 57.4559 67.5093 56.8768C67.6113 56.7431 67.7258 56.6261 67.8463 56.5175C68.5016 56.6956 69.1545 56.8823 69.7994 57.0967C72.2085 57.8977 74.4166 59.2239 76.3385 60.8757C78.3138 62.5736 80.1271 64.5642 81.4285 66.8289C83.3935 70.6657 85.1646 74.5887 86.8228 78.5515C88.1852 81.808 89.5173 85.0852 90.8135 88.3776C90.5372 95.9671 85.2808 95.7741 80.1909 94.3002C79.6232 94.1355 77.8389 94.0995 75.7859 91.8631V91.8612C75.574 91.6322 75.3602 91.3786 75.1463 91.0986C74.9609 90.8602 74.7754 90.6028 74.59 90.3247C73.8691 88.2187 73.1822 86.1014 72.5276 83.9746C71.7158 81.3406 70.5142 78.8051 69.6306 76.1921C67.886 71.034 65.7137 65.6489 66.4575 60.1805C66.5161 59.7396 66.5956 59.3006 66.6939 58.8617L66.6938 58.8618Z" fill="#7A4F3A"/>
<path d="M72.3554 60.8048C73.0759 60.1394 73.8761 59.7635 74.6441 59.5618C74.7847 59.6602 74.9242 59.7603 75.0625 59.8621C74.2475 60.0242 73.3761 60.3782 72.6127 61.0831C70.1832 63.3234 69.7082 68.0841 71.2011 75.2366C71.589 77.0965 72.0677 79.0777 72.607 81.1137C73.5379 84.635 74.6487 88.3247 75.784 91.8612V91.8631C76.8853 95.2861 78.0073 98.5652 79.0121 101.411C80.2685 104.968 81.3451 107.848 81.9619 109.481C81.9632 109.482 81.9638 109.484 81.9638 109.485C81.9846 109.536 82.0036 109.589 82.0225 109.638C82.0149 109.659 82.0073 109.68 81.9997 109.703C81.9448 109.861 81.8881 110.026 81.8275 110.191C81.258 108.696 80.0375 105.456 78.5844 101.335C77.5096 98.2888 76.3062 94.7618 75.1444 91.0986C74.3951 88.739 73.661 86.3228 72.9912 83.9462C72.9628 83.8497 72.9363 83.7551 72.9098 83.6586C72.6734 82.8185 72.4463 81.9858 72.2287 81.1609C71.6932 79.1344 71.2182 77.1647 70.8304 75.3122C69.3092 68.0236 69.8219 63.1418 72.3555 60.805L72.3554 60.8048Z" fill="black"/>
<path d="M57.2417 107.489C57.2493 107.525 57.2587 107.553 57.2644 107.574C58.0723 110.2 63.2134 110.864 66.2068 111.027C66.9051 111.065 67.6241 111.082 68.3507 111.082C71.3744 111.082 74.5571 110.764 77.0112 110.198C77.1682 110.162 77.3215 110.126 77.4709 110.088C79.4616 109.583 80.8977 108.906 81.2458 108.098C81.2722 108.037 81.2648 107.971 81.2307 107.92C81.2117 107.888 81.1815 107.863 81.1474 107.848C81.0508 107.807 80.9393 107.852 80.8976 107.947C80.8578 108.039 80.7973 108.13 80.7178 108.221C80.2599 108.751 79.1605 109.237 77.6657 109.636C77.5163 109.678 77.3611 109.718 77.2022 109.755C74.2882 110.465 70.1046 110.861 66.2276 110.649C61.3817 110.386 58.2673 109.258 57.6541 107.545C57.6427 107.519 57.6353 107.491 57.6258 107.462C57.3476 106.562 54.3693 91.5964 54.9351 87.1082C54.9351 87.1025 54.937 87.0987 54.937 87.093C55.289 84.3456 59.3571 79.8782 62.3259 76.6179C64.4244 74.3114 65.6165 72.9754 65.7149 72.3398C65.9192 71.0133 63.7981 68.3227 62.5152 66.8373C62.4697 66.7844 62.4565 66.7181 62.4773 66.6519C62.4962 66.5857 62.5473 66.5384 62.6134 66.5213C64.2786 66.0804 67.1433 65.193 67.5956 64.1921C67.6883 63.9877 67.6864 63.7777 67.5899 63.5847C67.0222 62.4512 64.2805 57.0377 63.3249 55.1512C63.1924 55.1361 63.06 55.1228 62.9276 55.1095C62.8935 55.0716 62.8575 55.0338 62.8234 54.996C63.5708 56.4739 66.6476 62.5458 67.2511 63.753C67.2965 63.8457 67.2965 63.9346 67.2511 64.0368C66.971 64.6537 65.2018 65.4465 62.5168 66.1541C62.3238 66.2052 62.1744 66.3491 62.1138 66.5402C62.0552 66.7294 62.0986 66.9338 62.2292 67.0852C64.3068 69.4939 65.4706 71.4353 65.34 72.2811C65.2549 72.8374 63.6956 74.5499 62.0457 76.3626C59.4951 79.1629 56.144 82.8452 54.9671 85.6475C54.7571 86.1451 54.6171 86.6144 54.5622 87.0457C54.5622 87.0514 54.5603 87.0571 54.5603 87.0628C54.004 91.4924 56.848 105.979 57.2415 107.489L57.2417 107.489Z" fill="black"/>
<path d="M54.5603 87.0722C54.5622 87.1744 54.6454 87.2576 54.7495 87.2576H54.7514C54.8555 87.2576 54.9406 87.1706 54.9387 87.0665C54.8915 83.4128 55.9095 77.1951 56.6133 73.3672C56.5377 73.5318 56.4619 73.6322 56.3824 73.6341C56.3275 73.636 56.2651 73.5943 56.2008 73.5187C55.4969 77.3788 54.513 83.4582 54.5603 87.0724V87.0722Z" fill="black"/>
<path d="M50.883 54.4555C51.0398 54.3809 51.1925 54.2987 51.3428 54.2123C51.3688 54.2066 51.3948 54.2018 51.4206 54.1956C51.4395 54.1918 51.4566 54.1861 51.4735 54.1804C49.4111 57.5125 46.6296 62.4869 46.8548 63.5012C47.0175 64.2335 47.9957 64.5589 48.9418 64.8768C49.5302 65.0717 50.0847 65.2572 50.4594 65.541C50.7773 65.7813 50.8417 66.2448 50.6051 66.5741C50.4082 66.8466 50.1131 67.174 49.7706 67.5562C48.7999 68.6366 47.4716 70.1163 47.5323 71.3539C47.608 72.8865 52.7887 78.3152 55.1029 80.6066C55.1975 80.6974 55.2864 80.7863 55.3697 80.8677C55.4453 80.9416 55.3441 81.0585 55.2723 81.1323C55.2344 81.1702 55.2865 81.1913 55.2372 81.1913C55.1899 81.1913 55.1426 81.1744 55.1047 81.1384C55.0933 81.127 55.0707 81.1043 55.0385 81.074C54.2268 80.2737 47.2522 73.3654 47.1538 71.3728C47.0857 69.9803 48.4746 68.4324 49.4907 67.3028C49.8256 66.93 50.1132 66.6083 50.2987 66.3529C50.4159 66.1882 50.3857 65.9611 50.2305 65.8438C49.9052 65.5979 49.379 65.4218 48.8228 65.2346C47.8256 64.9016 46.6941 64.5232 46.486 63.5847C46.1972 62.2839 49.4839 56.7137 50.8539 54.4689C50.8637 54.4643 50.8735 54.4601 50.8832 54.4556L50.883 54.4555Z" fill="black"/>
<path d="M49.1991 105.123C49.271 105.318 49.3447 105.511 49.4186 105.704C51.0289 106.626 54.4896 107.958 55.6949 108.194C55.7744 108.209 55.85 108.217 55.9258 108.217C56.1529 108.217 56.3571 108.145 56.5388 108.003C57.2275 107.458 57.29 106.043 57.2919 105.982C57.2957 105.878 57.2143 105.789 57.1102 105.786C57.0137 105.784 56.9172 105.863 56.9134 105.967C56.9001 106.329 56.7621 107.345 56.3042 107.706C56.1528 107.825 55.9768 107.865 55.7687 107.823C54.3761 107.549 50.3836 105.941 49.1991 105.123V105.123Z" fill="black"/>
<path d="M42.2975 57.6861C41.4327 60.1925 40.892 64.9157 42.5583 73.6433L42.6264 73.9953C42.6719 74.2205 42.7172 74.4494 42.7645 74.6802C42.7929 74.8278 42.8231 74.9755 42.8553 75.1249C43.8884 80.0787 44.6075 83.8157 45.1051 86.6236C45.107 86.6331 45.1089 86.6425 45.1108 86.652C45.2962 87.6927 45.4494 88.6067 45.5781 89.4051C45.5006 89.7362 45.423 90.0655 45.3472 90.3947C44.9008 87.4807 44.0605 82.7502 42.4844 75.2024C42.4031 74.8145 42.3255 74.4342 42.2535 74.0615C41.8543 72.0143 41.5743 70.1769 41.3926 68.5326C41.3926 68.5307 41.3907 68.5288 41.3926 68.5269C40.8142 63.3157 41.2079 60.0174 41.8362 57.9536C41.9886 57.8623 42.1429 57.7739 42.2975 57.6861Z" fill="black"/>
<path d="M49.2326 105.209C49.2931 105.375 49.3575 105.54 49.4199 105.704C51.193 110.429 52.9318 115.031 54.6499 119.559V119.561L54.8485 120.083L59.1172 109.451C57.8154 108.577 57.155 106.707 57.0585 106.669C57.049 109.636 51.7436 106.707 49.2326 105.209Z" fill="black"/>
<path d="M30.3616 218.499C30.3862 218.51 30.4108 218.514 30.4355 218.514C30.5092 218.514 30.5792 218.472 30.6095 218.4L77.4711 110.089L77.666 109.636C77.5166 109.678 77.3614 109.718 77.2024 109.756L77.0113 110.198L30.2633 218.249C30.2217 218.346 30.2651 218.457 30.3616 218.499Z" fill="black"/>
<path d="M52.862 58.3489C52.862 58.5155 52.8639 58.6801 52.8676 58.8447C53.4977 59.3366 54.4098 59.8078 55.7475 60.0897C56.0995 60.1654 56.4438 60.1976 56.773 60.1976C58.0142 60.1976 59.0757 59.734 59.8193 59.2762C59.861 59.0984 59.9008 58.9204 59.9404 58.7407C59.0794 59.3291 57.5657 60.0879 55.825 59.7209C54.3719 59.4144 53.456 58.8751 52.8619 58.3491L52.862 58.3489Z" fill="black"/>
<path d="M53.1588 54.8653C55.9252 54.3865 57.1968 50.748 58.1769 49.0071C58.283 48.8179 58.385 48.6382 58.4834 48.4697L58.5137 48.413C58.6651 48.1367 58.7313 48.1083 58.7521 48.1102C59.0662 48.1253 59.4446 48.044 59.6963 47.9778C59.683 47.8491 59.6698 47.7204 59.6584 47.5955C59.4294 47.658 59.0586 47.745 58.7691 47.7337C58.455 47.7204 58.2809 48.0516 58.1825 48.2313L58.156 48.2787C58.0557 48.4491 57.9536 48.6307 57.8476 48.8199C56.9242 50.4622 55.6849 52.6648 53.172 53.0054C53.1663 53.6166 53.1606 54.2315 53.1588 54.8654V54.8653Z" fill="black"/>
<path d="M48.0046 51.5334C48.0084 51.5636 48.0141 51.592 48.0197 51.6204C48.1729 51.7188 48.3319 51.8134 48.4947 51.9042C48.4341 51.7586 48.3982 51.6109 48.3793 51.4785C48.2393 50.5305 48.7218 49.3687 49.4994 48.7764C50.8372 47.7566 51.8381 46.4737 51.9971 46.2674C51.9308 46.3053 51.8608 46.3355 51.7852 46.3563C51.7814 46.3582 51.7776 46.3601 51.7738 46.3601C51.7682 46.362 51.7625 46.3639 51.7549 46.3658C51.6357 46.4075 51.5089 46.4263 51.3822 46.4282C50.9715 46.9164 50.2015 47.766 49.2685 48.4755C48.3754 49.1567 47.8437 50.4415 48.0045 51.5332L48.0046 51.5334Z" fill="black"/>
<path d="M45.8847 49.1056C46.5546 47.7602 48.3521 47.3629 49.1506 47.1868C49.2319 47.168 49.3038 47.1528 49.3625 47.1396C49.9699 46.992 50.4637 46.555 50.7305 46.2692C50.6888 46.2504 50.6511 46.2257 50.6132 46.2011C50.5526 46.1613 50.4921 46.1141 50.4315 46.0648C50.4258 46.061 50.4201 46.0572 50.4144 46.0534C50.1685 46.3032 49.756 46.6551 49.2734 46.7705C49.2167 46.7837 49.1485 46.7989 49.0691 46.8178C48.3898 46.9672 46.7986 47.3192 45.8997 48.394C45.8637 48.6362 45.8561 48.8728 45.8845 49.1054L45.8847 49.1056Z" fill="black"/>
<path d="M54.7528 36.9239H54.7547C54.9459 36.9353 55.1501 36.9542 55.3753 36.992C54.9969 36.6667 54.066 35.7413 54.1132 34.5378C54.1378 33.8927 54.3649 33.4234 54.7679 33.1792C55.1483 32.9502 55.6535 32.9465 56.117 33.1697C56.6109 33.4081 57.4491 33.7317 58.083 33.8811C57.8578 33.76 57.6421 33.6257 57.4397 33.4724C57.311 33.3759 57.1899 33.2719 57.0689 33.1659L57.0669 33.164C56.8059 33.0656 56.5372 32.9521 56.2817 32.8291C55.7008 32.551 55.0631 32.5604 54.5731 32.8556C54.2118 33.0732 53.7728 33.5386 53.7349 34.5226C53.6932 35.5803 54.2836 36.4242 54.7528 36.9238V36.9239Z" fill="black"/>
<path d="M56.1167 37.1849C56.3097 37.2625 56.4952 37.3608 56.6654 37.4801C56.5026 37.1528 55.9256 35.9039 56.1904 35.0732C56.2774 34.8008 56.444 34.6059 56.7033 34.4791C56.953 34.3561 58.321 34.568 59.9275 35.7696C60.9285 36.517 61.7233 36.7346 62.3022 36.8916C62.4063 36.92 62.5028 36.9446 62.5898 36.9711C62.5312 36.8159 62.4593 36.6645 62.3761 36.5189C61.799 36.3618 61.0838 36.1593 60.1546 35.4669C58.3836 34.1423 56.9247 33.9475 56.5368 34.1385C56.1849 34.3126 55.9465 34.587 55.8292 34.9598C55.6002 35.6788 55.8802 36.6041 56.1168 37.185L56.1167 37.1849Z" fill="black"/>
<path d="M51.6984 42.3853C51.6784 42.3795 51.659 42.3703 51.6411 42.3575C51.5561 42.2968 51.5364 42.1786 51.597 42.0935C52.454 40.8936 52.7278 38.1944 52.7292 38.1691C52.7348 38.0683 52.8185 37.9872 52.9196 37.9879C53.0214 37.9882 53.1034 38.0663 53.1074 38.1672C53.1083 38.1905 52.8389 41.0057 51.9049 42.3134C51.8569 42.3805 51.7734 42.407 51.6984 42.3853Z" fill="black"/>
<path d="M56.0505 40.0561C56.2776 40.1017 56.4799 39.9097 56.4378 39.6819C56.345 39.1815 55.9843 38.211 55.1566 38.0829C54.6855 38.01 54.4867 38.2573 54.3178 38.3843C54.079 38.5638 54.0806 38.9223 54.3117 39.1113C54.6724 39.4066 55.3766 39.9209 56.0506 40.0562L56.0505 40.0561Z" fill="black"/>
<path d="M52.5638 38.7698C52.3332 38.7365 51.9801 38.6596 51.6395 38.5569C51.8836 38.0364 52.4522 37.2982 52.4522 37.2982C52.5303 37.3345 52.681 37.393 52.7529 37.4513C52.8389 37.5215 52.9034 37.5914 52.9499 37.662C53.1063 37.8905 53.081 38.1137 53.0976 38.2742C53.1256 38.5718 52.8591 38.8118 52.564 38.7696L52.5638 38.7698Z" fill="black"/>
<path d="M51.6119 39.3907C51.6407 39.3675 51.6737 39.3527 51.7109 39.3462C51.779 39.3319 51.8669 39.3451 51.9243 39.3864C51.984 39.4292 52.0345 39.4911 52.0469 39.5657L52.0527 39.638C52.0511 39.6701 52.0426 39.7001 52.031 39.7288C51.973 39.8512 51.9258 39.9782 51.8905 40.1088C51.8797 40.1469 51.8606 40.1794 51.8329 40.2063C51.8108 40.2371 51.7821 40.2604 51.747 40.2764C51.686 40.3068 51.5987 40.3169 51.5337 40.2928C51.4638 40.267 51.3976 40.2194 51.3663 40.1493C51.3354 40.0801 51.3298 40.0099 51.3498 39.9361C51.3939 39.7733 51.4582 39.6203 51.5317 39.4688C51.5518 39.4353 51.5784 39.4092 51.6119 39.3907Z" fill="black"/>
<path d="M54.4515 40.3365C54.4804 40.3134 54.5133 40.2985 54.5506 40.2921C54.6187 40.2778 54.7066 40.2909 54.7641 40.3322C54.8238 40.375 54.8743 40.437 54.8867 40.5116L54.8926 40.5839C54.8909 40.6159 54.8824 40.646 54.8708 40.6748C54.8128 40.7972 54.7657 40.9242 54.7303 41.0548C54.7196 41.0928 54.7004 41.1253 54.6727 41.1523C54.6507 41.183 54.622 41.2063 54.5868 41.2222C54.5258 41.2526 54.4386 41.2628 54.3735 41.2387C54.3036 41.2129 54.2374 41.1652 54.2061 41.0952C54.1752 41.0259 54.1696 40.9558 54.1896 40.8819C54.2337 40.7192 54.2981 40.5662 54.3715 40.4147C54.3917 40.3812 54.4184 40.3552 54.4518 40.3365H54.4515Z" fill="black"/>
<path d="M58.5643 46.6043C58.7663 46.7374 59.1094 46.7415 59.4 46.6598C59.8573 46.5314 60.3112 46.1486 60.2143 45.46C60.1285 44.8503 59.7377 44.4822 59.1331 44.431C59.3928 44.1444 59.6601 43.9952 59.9288 43.9871C60.3221 43.9753 60.6417 44.2627 60.7975 44.435C60.7975 44.435 60.922 44.6591 61.1142 44.4532C61.2106 44.3498 61.0784 44.1815 61.0784 44.1815C60.7339 43.8 60.3218 43.5968 59.9175 43.6089C59.4972 43.6217 59.0996 43.8592 58.7356 44.3149C58.6627 44.4061 58.649 44.5282 58.7 44.6334C58.7515 44.7393 58.8562 44.8045 58.9739 44.8035C59.4813 44.8001 59.7727 45.0387 59.8395 45.5129C59.8987 45.9333 59.663 46.1389 59.4548 46.2371C59.1484 46.382 58.8162 46.337 58.7641 46.2811C58.7229 46.1851 58.6139 46.1452 58.5179 46.1867C58.422 46.2282 58.3802 46.3439 58.4218 46.4398C58.4514 46.5082 58.5008 46.5626 58.5641 46.6044L58.5643 46.6043Z" fill="black"/>
<path d="M51.5314 45.4273C51.6087 45.4273 51.6812 45.3795 51.7092 45.3026C51.745 45.2045 51.6943 45.0959 51.5961 45.0601C50.8908 44.8036 50.7332 44.6362 50.7317 44.6345C50.6701 44.5499 50.5558 44.535 50.471 44.5964C50.3864 44.6577 50.3708 44.7804 50.432 44.8652C50.4722 44.9206 50.6652 45.1242 51.4668 45.4157C51.4882 45.4235 51.5099 45.4273 51.5314 45.4273Z" fill="black"/>
<path d="M72.2733 81.1686C72.3187 81.0361 72.5211 80.9926 72.6062 81.1137C73.5371 84.635 74.6479 88.3247 75.7832 91.8612V91.8631C76.8845 95.2861 78.0066 98.5652 79.0113 101.411C80.2678 104.968 81.3443 107.848 81.9611 109.481C81.9624 109.482 81.963 109.484 81.963 109.485C81.9744 109.557 81.9876 109.631 81.999 109.703C81.9442 109.862 81.8874 110.026 81.8269 110.191C81.3974 111.398 80.8827 112.787 80.3472 114.195C79.0378 110.686 78.0426 107.067 77.1967 103.419C77.0075 102.599 76.824 101.78 76.6462 100.959C75.8023 97.0552 75.0699 93.1289 74.226 89.2273C73.8438 87.46 73.4389 85.6984 72.9905 83.9462C72.9696 83.8649 72.9488 83.7854 72.9281 83.7041C72.9224 83.689 72.9149 83.6738 72.9092 83.6586C72.6727 82.8185 72.4456 81.9859 72.228 81.161C72.2432 81.161 72.2583 81.1648 72.2735 81.1686H72.2733Z" fill="black"/>
<path d="M42.5581 73.6433L42.6263 73.9953L42.6775 74.6633C42.7077 74.6633 42.738 74.669 42.7645 74.6804C42.7929 74.828 42.8231 74.9756 42.8553 75.1251C43.8884 80.0788 44.6075 83.8158 45.1051 86.6238C45.107 86.6333 45.1089 86.6426 45.1108 86.6521C45.2962 87.6929 45.4494 88.6068 45.5781 89.4053C45.5006 89.7363 45.423 90.0656 45.3472 90.3948C45.1146 91.3939 44.8818 92.3929 44.6528 93.392C44.6452 93.4242 44.6395 93.4544 44.632 93.4847C44.4049 94.4819 44.1761 95.4809 43.949 96.4781C43.8808 96.1829 43.8884 95.8499 43.8695 95.5869C43.8393 95.1896 43.809 94.7903 43.7788 94.3911C43.7504 93.9956 43.7201 93.5982 43.6897 93.2009C43.6122 92.1734 43.5364 91.1441 43.4589 90.1167C43.4192 89.585 43.3794 89.0552 43.3398 88.5235C43.1033 85.3843 42.8686 82.2472 42.6321 79.1099C42.5053 77.4278 42.3805 75.7438 42.2537 74.0616C42.2461 73.9612 42.2385 73.8609 42.231 73.7608C42.2158 73.5677 42.4524 73.528 42.5583 73.6435L42.5581 73.6433Z" fill="black"/>
<path d="M55.6839 88.3669C55.6906 88.356 55.6991 88.3471 55.7061 88.3366C55.7409 88.2632 55.786 88.1945 55.8451 88.1359C55.9448 88.037 56.0606 87.9757 56.1851 87.9377C56.198 87.9321 56.2094 87.9248 56.2227 87.9196C56.4543 87.8285 56.722 87.8538 56.9579 87.9132C57.1759 87.9682 57.3803 88.0596 57.5491 88.2102C57.7519 88.391 57.836 88.6687 57.8369 88.9331C57.8379 89.2526 57.7664 89.6029 57.5656 89.8447C57.5235 89.9083 57.4734 89.9672 57.4121 90.0177C57.2012 90.1913 56.9458 90.2641 56.6742 90.2637C56.451 90.2634 56.2293 90.213 56.0321 90.108C55.8046 89.987 55.6511 89.7814 55.5625 89.5442C55.4251 89.1762 55.4777 88.7001 55.684 88.367L55.6839 88.3669Z" fill="black"/>
<path d="M56.9633 97.2601C56.97 97.2492 56.9785 97.2405 56.9855 97.2299C57.0203 97.1564 57.0653 97.0878 57.1244 97.0291C57.2241 96.9302 57.3399 96.8689 57.4644 96.8309C57.4773 96.8253 57.4888 96.818 57.502 96.8128C57.7336 96.7217 58.0013 96.7471 58.2372 96.8066C58.4552 96.8614 58.6596 96.953 58.8284 97.1036C59.0312 97.2843 59.1153 97.5621 59.1162 97.8264C59.1172 98.146 59.0457 98.4963 58.8449 98.7381C58.8027 98.8017 58.7527 98.8606 58.6914 98.9111C58.4805 99.0847 58.2251 99.1574 57.9535 99.1571C57.7303 99.1568 57.5086 99.1065 57.3114 99.0014C57.0839 98.8803 56.9304 98.6748 56.8419 98.4375C56.7045 98.0696 56.757 97.5935 56.9633 97.2604V97.2601Z" fill="black"/>
</g>
<path d="M48.5394 6.77775C48.5394 3.00722 45.4661 -0.0442606 41.6852 0.000485907C38.031 0.0436828 35.0516 3.02679 35.0007 6.68089C34.9723 8.71783 35.8414 10.552 37.2434 11.8124C38.3361 12.7948 38.9843 14.1773 38.9843 15.6467V15.8233H44.5544V15.6903C44.5544 14.1994 45.2095 12.796 46.3146 11.795C47.6834 10.5553 48.5394 8.76664 48.5394 6.77775Z" fill="#FCCA65"/>
<path d="M42.3226 19.1267H41.1971C39.996 19.1267 39.0225 18.153 39.0225 16.952H44.4973C44.4972 18.153 43.5237 19.1267 42.3226 19.1267Z" fill="#91C7F9"/>
<path d="M44.6535 14.1319H38.8888C38.4252 14.1319 38.0459 14.5112 38.0459 14.9748C38.0459 15.4385 38.4252 15.8177 38.8888 15.8177H44.6535C45.1171 15.8177 45.4964 15.4384 45.4964 14.9748C45.4965 14.5112 45.1171 14.1319 44.6535 14.1319Z" fill="#91C7F9"/>
<path d="M44.6535 15.818H38.8888C38.4252 15.818 38.0459 16.1973 38.0459 16.6609C38.0459 17.1246 38.4252 17.5038 38.8888 17.5038H44.6535C45.1171 17.5038 45.4964 17.1245 45.4964 16.6609C45.4965 16.1974 45.1171 15.818 44.6535 15.818Z" fill="#91C7F9"/>
<path d="M40.9608 14.1978C40.9597 14.1978 40.9586 14.1978 40.9575 14.1977C40.9213 14.196 40.8934 14.1652 40.8951 14.129C41.022 11.5614 40.9439 9.40946 40.6694 7.85253C39.6048 7.82493 38.74 7.72497 38.4325 7.57514C37.8912 7.3114 37.8194 6.57551 37.9819 6.00329C38.1276 5.48939 38.5295 4.91301 39.1819 4.97771C39.8358 5.04309 40.3558 5.83525 40.6855 7.2685C40.719 7.41446 40.7504 7.56594 40.7798 7.72313C41.3167 7.73456 41.8993 7.72807 42.478 7.70057C42.7862 7.68594 43.0788 7.66637 43.3544 7.64235C43.5678 6.20126 43.8471 5.37365 44.1888 5.17432C44.7486 4.84773 45.428 4.9319 45.9197 5.38876C46.3695 5.80668 46.5017 6.40078 46.2566 6.9022C46.0033 7.42017 44.592 7.65592 43.4687 7.76226C43.3856 8.34687 43.308 9.06223 43.24 9.93595C43.0754 12.0513 43.0499 14.1123 43.0497 14.1329C43.0493 14.169 43.0199 14.1978 42.9841 14.1978C42.9838 14.1978 42.9835 14.1978 42.9833 14.1978C42.9471 14.1974 42.918 14.1677 42.9184 14.1314C42.9187 14.1107 42.9442 12.046 43.109 9.92637C43.173 9.10456 43.2485 8.38678 43.3353 7.77437C43.0081 7.80304 42.7118 7.82076 42.4843 7.83151C41.9079 7.85892 41.3337 7.86599 40.8039 7.85543C41.08 9.42553 41.1549 11.5336 41.0263 14.1353C41.0245 14.1705 40.9956 14.1978 40.9608 14.1978ZM39.0837 5.10391C38.5616 5.10391 38.2336 5.59748 38.1083 6.03903C37.9556 6.57686 38.0379 7.23673 38.4902 7.45707C38.7768 7.59674 39.6171 7.69165 40.6454 7.71974C40.6179 7.57349 40.5887 7.43276 40.5576 7.29775C40.2463 5.94412 39.7531 5.16657 39.1689 5.10817C39.14 5.10526 39.1116 5.10391 39.0837 5.10391ZM44.8995 5.10768C44.6929 5.10768 44.474 5.15989 44.2549 5.28764C44.0263 5.42101 43.7349 5.96804 43.4879 7.63015C44.9942 7.48778 45.9618 7.20632 46.1386 6.84457C46.3578 6.39623 46.2368 5.86257 45.8304 5.48493C45.6106 5.28067 45.2757 5.10768 44.8995 5.10768Z" fill="#0E1323"/>
<path d="M44.7949 15.8827H38.6555C38.6193 15.8827 38.5898 15.8534 38.5898 15.8171C38.5898 15.7809 38.6192 15.7514 38.6555 15.7514H44.7949C44.8311 15.7514 44.8606 15.7808 44.8606 15.8171C44.8606 15.8533 44.8312 15.8827 44.7949 15.8827Z" fill="#0E1323"/>
<path d="M44.5075 17.5715H39.0295C38.9933 17.5715 38.9639 17.5421 38.9639 17.5059C38.9639 17.4696 38.9932 17.4402 39.0295 17.4402H44.5075C44.5437 17.4402 44.5732 17.4695 44.5732 17.5059C44.5732 17.5422 44.5437 17.5715 44.5075 17.5715Z" fill="#0E1323"/>
<path d="M100.423 34.5215C100.469 33.5333 100.359 32.538 100.104 31.5718L102.395 29.474L101.036 26.9925L98.2042 27.8903C98.1572 27.8341 98.117 27.7742 98.0687 27.7189C97.3974 26.9515 96.6296 26.3307 95.8054 25.8457L96.0792 22.8487L93.4498 21.9998L91.9855 24.6416C90.9646 24.5628 89.9358 24.665 88.9419 24.9455L87.1358 22.761L84.7195 24.1303L85.48 26.8556C85.427 26.903 85.3706 26.9433 85.3185 26.9922C84.5809 27.6843 83.9884 28.4799 83.529 29.3358L80.6309 29.2996L80 32.0768L82.4212 33.254C82.3536 34.3396 82.4704 35.4358 82.7676 36.4951L80.5668 38.6165L81.9598 41.0779L84.7003 40.1287C84.722 40.1544 84.7401 40.1817 84.7622 40.207C85.4221 40.9616 86.1751 41.5756 86.9834 42.0571L86.958 45.3573L89.6415 45.9998L90.8586 43.2852C91.8947 43.3637 92.9385 43.2544 93.9456 42.9627L96.0051 45.2201L98.37 43.7579L97.452 40.984C97.4715 40.9661 97.4927 40.9513 97.512 40.9332C98.2753 40.2168 98.8817 39.3892 99.3473 38.4988L102.223 38.7285L102.996 35.9902L100.423 34.5215ZM95.6907 38.7749C93.1592 41.151 89.1997 40.9119 86.8644 38.2418C84.529 35.5717 84.6889 31.4662 87.2203 29.0904C89.752 26.7145 93.7113 26.9538 96.0467 29.6239C98.382 32.2942 98.2223 36.3989 95.6907 38.7749Z" fill="#91C7F9"/>
<path d="M5.30494 92.3545C7.52176 91.998 9.02985 89.9119 8.67335 87.6951C8.31684 85.4782 6.23074 83.9701 4.01392 84.3267C1.79709 84.6832 0.289006 86.7693 0.645512 88.9861C1.00202 91.2029 3.08812 92.711 5.30494 92.3545Z" fill="#FFC073"/>
<path d="M12.9044 72.9562C14.1712 72.7525 15.033 71.5604 14.8292 70.2937C14.6255 69.0269 13.4335 68.1651 12.1667 68.3689C10.9 68.5726 10.0382 69.7646 10.2419 71.0314C10.4456 72.2982 11.6377 73.1599 12.9044 72.9562Z" fill="#FFC073"/>
</svg>
