<svg width="221" height="220" viewBox="0 0 221 220" fill="none" xmlns="http://www.w3.org/2000/svg">
<path d="M9.13411 217.934C12.9511 217.32 15.5477 213.728 14.9339 209.911C14.32 206.094 10.7282 203.498 6.91121 204.111C3.09425 204.725 0.497614 208.317 1.11145 212.134C1.72529 215.951 5.31715 218.548 9.13411 217.934Z" fill="#FFC073"/>
<path d="M22.2195 184.534C24.4006 184.183 25.8844 182.13 25.5336 179.949C25.1829 177.768 23.1304 176.284 20.9493 176.635C18.7681 176.986 17.2844 179.038 17.6351 181.219C17.9859 183.401 20.0384 184.884 22.2195 184.534Z" fill="#FFC073"/>
<mask id="mask0_302_385" style="mask-type:alpha" maskUnits="userSpaceOnUse" x="14" y="33" width="207" height="171">
<rect width="207" height="171" transform="matrix(-1 0 0 1 221 33)" fill="#D9D9D9"/>
</mask>
<g mask="url(#mask0_302_385)">
<path d="M71.8793 119.989C72.3081 118.346 72.7505 116.704 73.2379 115.069C74.269 111.609 75.6368 108.254 77.5436 105.179C79.4544 102.099 81.9908 99.5169 84.3862 96.8201C84.4052 96.7989 84.4205 96.7769 84.4384 96.7552C84.9892 96.3582 85.5478 95.9706 86.1227 95.6048C89.2874 93.5917 92.7546 91.9796 96.3531 90.9142C96.7226 90.8048 97.0941 90.7032 97.4659 90.6024C98.6879 91.8399 99.2886 93.6401 99.0116 95.2013C99.0116 95.2582 99.0188 95.3152 99.0188 95.3757C99.0083 95.6996 98.9689 96.0095 98.9084 96.3122C99.7238 97.5051 100.012 98.9969 99.7238 100.482C99.2147 103.102 98.6984 105.72 98.1786 108.337C98.9263 109.195 99.4034 110.277 99.5743 111.502C100.739 119.984 99.6206 128.558 97.9507 136.944C97.0534 141.444 96.0457 145.934 95.0096 150.417V150.424C94.7176 151.681 94.422 152.942 94.1301 154.199C93.9842 154.822 93.8381 155.442 93.6956 156.061C93.2577 157.941 92.8197 159.821 92.3888 161.701C92.3745 161.762 92.3637 161.819 92.3497 161.876C91.7943 162.492 91.2602 163.058 90.744 163.581C85.3815 169.05 82.1519 169.702 76.3621 168.912C70.4157 168.06 66.7481 162.502 65.6336 154.263C67.7164 143.282 69.6036 133.155 70.2305 129.726C70.818 126.51 71.3221 123.247 71.8795 119.988L71.8793 119.989Z" fill="#7A4F3A"/>
<path d="M53.2892 211.192C53.2857 212.542 53.5955 213.827 54.4109 214.974C54.418 214.985 54.4252 214.995 54.4357 215.006C56.0771 217.256 60.2327 217.559 62.9531 218.439C65.1714 219.154 69.9392 220.433 72.3107 220.564C72.4995 220.575 72.6811 220.582 72.8592 220.582C74.7678 220.586 76.1849 220.048 77.278 219.14C79.2293 217.527 80.1443 214.746 80.9385 211.815C83.1603 203.619 84.7341 195.244 86.6216 186.979C88.1029 180.488 89.5839 174.001 91.0652 167.509C91.4926 165.633 91.9232 163.753 92.3506 161.876C91.9447 159.676 91.2149 157.479 90.1431 155.538C88.2809 152.149 85.3788 149.521 81.348 148.972C75.4016 148.122 70.0889 150.568 65.6345 154.264C62.9569 168.4 59.9514 183.957 58.8975 188.472C57.9396 192.574 56.9819 196.676 56.024 200.774C55.2978 203.89 53.293 207.757 53.2895 211.193L53.2892 211.192Z" fill="#7A4F3A"/>
<path d="M100.218 181.851C100.46 182.496 100.698 183.137 100.941 183.778C100.962 183.831 100.98 183.884 101.001 183.938C101.115 184.251 101.236 184.561 101.354 184.871C104.69 193.762 107.962 202.422 111.195 210.942V210.946L111.569 211.929C111.583 211.971 111.601 212.01 111.615 212.053C118.651 230.572 125.513 248.444 132.456 266.621C132.481 266.689 132.51 266.757 132.535 266.824C132.656 267.145 132.781 267.465 132.905 267.789V267.793C133.906 270.407 134.903 273.031 135.91 275.666V275.669C135.996 275.897 136.081 276.121 136.171 276.349C137.21 276.873 138.307 277.311 139.446 277.67C145.047 279.447 151.606 279.301 156.858 277.645C163.813 275.512 169.449 271.307 172.882 265.304C172.814 265.133 172.746 264.962 172.679 264.795C172.611 264.631 172.547 264.467 172.486 264.303C172.447 264.214 172.412 264.125 172.38 264.036C168.416 253.916 159.436 229.529 155.338 218.943C154.932 217.889 154.573 216.97 154.27 216.219L154.266 216.208C154.131 215.866 154.003 215.556 153.889 215.282C153.885 215.272 153.878 215.257 153.874 215.247C153.803 215.079 153.743 214.923 153.682 214.784C148.291 202.168 142.633 189.499 138.339 176.417C134.344 176.876 130.349 176.542 126.35 176.257C125.61 176.207 124.872 176.154 124.132 176.111C119.1 175.815 114.019 175.573 108.981 175.876C105.705 176.072 102.45 176.232 99.1851 176.321C98.9713 178.226 99.5162 179.978 100.218 181.851V181.851Z" fill="#7A6475"/>
<path d="M93.3432 256.802C94.2904 264.806 97.2673 272.661 103.328 278.041C110.171 284.255 119.362 284.76 126.697 280.676C128.598 275.983 130.521 271.301 132.458 266.622C134.352 262.043 136.261 257.471 138.173 252.899C138.173 252.895 138.177 252.892 138.177 252.888C143.24 240.799 148.339 228.725 153.345 216.615C153.495 216.252 153.68 215.803 153.89 215.283C153.933 215.184 153.972 215.08 154.015 214.977C154.018 214.973 154.018 214.97 154.018 214.966C155.314 211.772 157.515 206.232 159.559 200.848C160.567 198.199 161.535 195.585 162.343 193.314C162.457 193.004 162.564 192.694 162.667 192.395C162.682 192.352 162.696 192.313 162.71 192.274C163.533 189.917 164.138 188.015 164.362 186.958C164.95 184.216 164.939 181.449 164.783 178.658C164.647 178.327 164.508 178.006 164.359 177.678C162.732 177.568 161.115 177.394 159.502 177.166C158.68 177.055 157.861 176.927 157.045 176.792C156.774 176.746 156.508 176.699 156.241 176.649C155.019 176.436 153.805 176.197 152.594 175.941C151.85 175.787 151.106 175.627 150.365 175.46C147.553 175.285 144.729 175.129 141.916 174.94C136.984 174.609 132.045 174.602 127.117 174.431C126.861 175.04 126.608 175.652 126.352 176.258C121.256 188.482 116.396 200.343 111.618 212.054C105.489 227.073 99.5075 241.846 93.3438 256.802H93.3432Z" fill="#7A4F3A"/>
<path d="M84.5937 99.6094C84.6249 98.589 84.6159 97.5842 84.6333 96.6158C85.1226 96.268 85.6176 95.9279 86.126 95.6047C89.2907 93.5917 92.7579 91.9795 96.3565 90.9141C98.1216 90.3915 99.9259 90.001 101.671 89.4092C102.499 89.1282 103.323 88.8065 104.114 88.4301C104.409 88.2897 104.696 88.1351 104.979 87.9725C105.028 87.9618 105.076 87.9527 105.125 87.941C105.161 87.9339 105.193 87.9232 105.225 87.9124C105.535 87.8269 105.773 87.6846 105.955 87.4994C105.987 87.503 106.015 87.503 106.044 87.5065C106.816 86.8158 107.639 86.1854 108.543 85.6727C110.669 84.4691 112.973 84.1986 115.384 84.3054C117.435 84.3945 119.486 84.7041 121.355 85.5659C121.889 85.7654 122.412 86.0109 122.921 86.3208C124.31 87.154 125.485 88.265 126.586 89.4471C126.65 89.5184 126.717 89.5894 126.781 89.6607C127.031 89.6857 127.28 89.7105 127.529 89.7391C127.587 89.7451 127.645 89.7513 127.703 89.7572C129.029 90.5569 130.712 90.8774 132.164 91.275C134.684 91.9655 137.227 92.5754 139.708 93.4003C143.823 94.7684 147.624 96.9526 150.996 99.668C151.107 100.104 151.19 100.553 151.233 101.016C152.924 106.033 153.732 111.271 154.612 116.484C155.534 121.967 156.457 127.451 157.379 132.938C159.255 144.086 161.192 155.228 163.001 166.391C163.849 171.607 165.052 177.169 164.928 182.468C164.856 185.462 163.386 187.623 161.224 189.041C160.918 189.247 160.594 189.436 160.259 189.607C159.099 190.212 157.788 190.636 156.421 190.896C151.482 191.836 137.944 194.584 132.991 194.175C127.412 193.712 129.972 194.244 124.396 193.746C121.815 193.514 120.782 191.471 118.211 191.126C117.951 191.09 116.234 188.019 116.082 188.228C114.842 189.923 114.048 189.691 111.635 189.121C109.359 188.583 103.744 185.871 101.792 184.511C100.244 183.435 99.3639 181.701 98.8691 179.928C98.246 177.681 98.0928 175.281 97.7403 172.985C97.3236 170.261 96.8643 167.547 96.38 164.838C95.4293 159.547 94.361 154.277 93.2537 149.017C93.2501 149 93.2466 148.982 93.243 148.964C93.2182 148.854 93.1967 148.743 93.1717 148.633C90.8714 137.737 88.4075 126.873 86.4347 115.913C86.3742 115.582 86.3172 115.251 86.2567 114.92V114.916C85.3452 109.875 84.4336 104.74 84.5937 99.6089V99.6094Z" fill="#7A4F3A"/>
<path d="M107.834 95.7565C107.834 96.0699 107.838 96.3798 107.845 96.6894C107.916 100.909 108.446 104.84 109.045 107.866C109.579 110.583 109.579 110.309 110.277 112.987C110.629 114.322 111 115.657 111.391 116.982C111.651 117.861 113.51 124.552 114.461 124.52C115.344 124.491 116.113 118.039 116.412 116.907C116.807 115.405 117.174 113.891 117.526 112.378C118.224 109.398 118.89 106.414 119.563 103.43C120.012 101.454 120.482 99.4809 120.927 97.5012C121.006 97.1665 121.08 96.8317 121.155 96.4935C121.301 95.8275 121.447 95.1618 121.586 94.4959C122.073 92.1849 122.779 88.8913 120.717 87.1287C120.08 86.5839 119.335 86.5803 118.734 86.8651C118.705 86.826 118.68 86.7867 118.648 86.7476C115.689 83.0764 108.935 84.7429 108.372 88.3643C107.988 90.8319 107.831 93.3316 107.834 95.7563L107.834 95.7565Z" fill="#261F29"/>
<path d="M108.375 90.6543C108.307 93.0935 110.999 94.888 113.2 95.2832C113.35 95.3118 113.499 95.3294 113.641 95.3437C116.846 95.65 121.446 94.9199 121.956 91.0459C122.005 90.6579 121.98 89.3794 121.941 88.9878C121.753 87.0756 121.151 81.0012 120.695 76.2403C120.67 75.9981 120.645 75.756 120.624 75.521C120.528 74.5168 120.442 73.5875 120.367 72.7898C119.961 68.4386 118.918 70.0052 114.802 70.0553C113.104 70.0767 111.32 70.6711 110.13 72.0314C109.589 72.6508 109.205 73.3844 108.944 74.1715C108.539 75.3856 108.418 76.7315 108.435 78.01C108.474 80.6699 108.443 83.1553 108.418 85.7011C108.407 86.8513 108.396 88.0085 108.393 89.2014V89.6499C108.393 90.1733 108.382 90.3478 108.375 90.6541L108.375 90.6543Z" fill="#FFA370"/>
<path d="M111.3 52.7563C114.603 51.5853 118.518 52.8347 120.884 56.8224C123.796 61.7309 120.779 66.5249 118.518 70.9471C117.593 72.7557 116.706 74.6653 115.371 76.2176C114.236 77.5373 112.715 78.4728 111.141 79.18C109.632 79.8586 107.759 79.9348 106.102 79.7868C97.7693 79.0425 100.949 67.6161 103.352 62.8282C104.973 59.5989 107.122 54.2371 111.3 52.7563Z" fill="#FFA370"/>
<path d="M94.7358 77.0237C95.0669 74.7342 96.7334 72.3057 97.9475 70.6821C99.9844 67.9653 101.512 65.3838 104.535 65.8147C106.507 66.0959 108.402 67.7198 109.506 69.1689C110.033 69.8632 110.663 71.2127 111.649 70.8318C112.077 70.6681 114.423 67.004 114.605 66.5838C115.826 63.7709 115.869 64.1377 116.802 61.2142C117.425 59.2736 116.488 57.511 114.997 56.489L114.993 56.4854C114.673 56.2612 114.324 56.076 113.961 55.9299C113.683 55.8159 113.395 55.7304 113.102 55.6665C112.917 55.6274 112.739 55.5917 112.565 55.5669C112.141 55.4956 111.756 55.4601 111.397 55.4386H111.393C108.708 55.2964 107.722 56.1508 106.376 51.9455C105.222 48.3455 108.915 44.4432 112.583 45.9349C113.825 46.4405 114.74 47.4625 115.748 48.3634L115.752 48.367C115.979 48.5665 116.207 48.7622 116.449 48.9438C116.83 49.2322 117.236 49.4851 117.66 49.7129C120.352 51.1728 123.738 51.689 125.533 54.3454C125.608 54.4521 125.675 54.5661 125.739 54.6764C125.896 54.9505 126.031 55.2353 126.141 55.5273C126.65 56.8732 126.693 58.4044 126.43 59.8323C125.96 62.389 124.674 64.7996 123.535 67.1103C121.829 70.5606 119.91 73.9007 117.788 77.1052C116.406 79.1919 115.189 81.485 113.44 83.2938C109.759 87.1073 103.969 86.0712 99.614 83.6285C99.3077 83.4576 99.0089 83.2795 98.7202 83.0943C98.1363 82.7239 97.5843 82.3288 97.0788 81.9229C96.128 81.1645 95.2273 80.2564 94.8605 79.0956C94.7856 78.8571 94.7358 78.6149 94.7075 78.3656C94.7051 78.3632 94.7051 78.362 94.7075 78.362C94.6541 77.924 94.6681 77.479 94.7361 77.0233L94.7358 77.0237ZM106.208 73.0215C106.404 72.904 106.572 72.7402 106.693 72.5264C106.735 72.4516 106.771 72.3734 106.799 72.2914C107.059 71.7573 107.049 71.1057 106.742 70.568C106.532 70.194 106.244 69.959 105.906 69.7097C105.639 69.5138 105.336 69.3858 105.051 69.2218C104.934 69.0971 104.798 68.9904 104.659 68.9015C104.282 68.6557 103.712 68.6023 103.288 68.7198C102.9 68.8266 102.395 69.1577 102.224 69.5388C102.085 69.8451 101.957 70.1192 101.964 70.4717C101.967 70.5641 101.978 70.6712 101.992 70.7744C101.992 71.0485 102.063 71.3264 102.192 71.5826C102.391 71.9813 102.751 72.284 103.107 72.5369C103.146 72.5653 103.189 72.5903 103.231 72.6189C103.242 72.6261 103.253 72.6332 103.264 72.6404C103.377 72.7328 103.491 72.822 103.605 72.8968C103.677 72.9431 103.748 72.9893 103.826 73.025C104.196 73.2245 104.624 73.3313 105.048 73.3242C105.286 73.3206 105.525 73.2851 105.749 73.2067C105.763 73.2031 105.774 73.1995 105.784 73.1959C105.792 73.1959 105.799 73.1924 105.806 73.1888C105.948 73.1497 106.08 73.0927 106.205 73.0215H106.208Z" fill="#4F3634"/>
<path d="M119.224 66.5882C120.147 65.978 121.556 65.769 122.517 66.3341C122.827 66.4094 123.139 66.536 123.445 66.724C124.952 67.6488 125.223 69.6447 124.711 71.2125C123.801 73.9949 118.751 78.1629 116.468 74.3334C115.693 73.0339 115.934 71.2299 116.751 69.751C117.203 68.4659 118.079 67.3447 119.224 66.588L119.224 66.5882Z" fill="#FFA370"/>
<path d="M150.426 152.574C153.859 147.355 160.896 143.336 168.13 145.025C172.457 146.194 175.955 148.596 178.65 151.578C179.03 151.999 179.334 152.482 179.541 153.01C183.994 164.36 188.201 175.81 192.026 187.318C193.525 191.828 194.917 196.369 196.17 200.945C196.754 203.077 197.31 205.215 197.836 207.36C198.372 209.544 199.503 214.484 199.504 214.489C200.062 216.388 199.47 216.385 198.792 217.041C193.511 222.15 181.106 225.693 175.966 224.087C175.654 223.989 175.378 223.798 175.18 223.538C173.163 220.907 172.448 218.437 171.413 215.682C167.483 205.221 163.645 194.729 159.77 184.25C159.738 184.163 159.703 184.077 159.666 183.993C158.261 180.829 156.909 177.644 155.61 174.441C153.355 168.88 151.26 163.269 149.299 157.617C148.892 156.442 148.969 155.145 149.541 154.041C149.808 153.526 150.102 153.035 150.425 152.575L150.426 152.574Z" fill="#7A4F3A"/>
<path d="M133.86 96.7217C134.156 95.4042 134.565 94.0761 135.395 92.9864C135.587 92.7347 135.802 92.5145 136.029 92.3102C137.262 92.6454 138.491 92.9967 139.704 93.4002C144.238 94.9075 148.393 97.4032 152.01 100.512C155.727 103.707 159.139 107.453 161.588 111.714C165.286 118.935 168.619 126.317 171.739 133.774C174.303 139.902 176.81 146.07 179.249 152.265C178.729 166.547 168.837 166.184 159.259 163.41C158.191 163.101 154.833 163.033 150.97 158.824V158.821C150.571 158.39 150.169 157.913 149.766 157.386C149.417 156.937 149.068 156.453 148.719 155.929C147.363 151.966 146.07 147.982 144.838 143.979C143.311 139.023 141.049 134.252 139.387 129.334C136.104 119.628 132.016 109.494 133.415 99.2034C133.526 98.3737 133.675 97.5476 133.86 96.7215L133.86 96.7217Z" fill="#7A4F3A"/>
<path d="M144.515 100.378C145.871 99.126 147.377 98.4186 148.822 98.0392C149.087 98.2244 149.349 98.4127 149.61 98.6043C148.076 98.9094 146.436 99.5755 145 100.902C140.428 105.118 139.534 114.077 142.343 127.536C143.073 131.036 143.974 134.765 144.989 138.596C146.741 145.222 148.831 152.166 150.967 158.821V158.824C153.04 165.266 155.151 171.437 157.042 176.792C159.406 183.486 161.432 188.905 162.593 191.978C162.595 191.981 162.597 191.983 162.597 191.986C162.636 192.082 162.672 192.181 162.707 192.274C162.693 192.313 162.678 192.352 162.664 192.395C162.561 192.694 162.454 193.004 162.34 193.314C161.268 190.501 158.972 184.405 156.237 176.649C154.215 170.916 151.95 164.279 149.764 157.386C148.354 152.945 146.972 148.398 145.712 143.926C145.658 143.745 145.609 143.567 145.559 143.385C145.114 141.804 144.686 140.237 144.277 138.685C143.269 134.871 142.375 131.165 141.646 127.679C138.783 113.963 139.748 104.776 144.515 100.379L144.515 100.378Z" fill="black"/>
<path d="M116.072 188.229C116.086 188.297 116.104 188.35 116.115 188.389C117.635 193.331 127.31 194.581 132.943 194.888C134.257 194.959 135.61 194.991 136.977 194.991C142.667 194.991 148.657 194.393 153.275 193.328C153.57 193.26 153.859 193.192 154.14 193.121C157.886 192.17 160.588 190.896 161.243 189.375C161.293 189.261 161.279 189.137 161.215 189.041C161.179 188.98 161.123 188.934 161.058 188.905C160.877 188.827 160.667 188.913 160.588 189.091C160.513 189.265 160.399 189.436 160.25 189.607C159.388 190.604 157.319 191.519 154.506 192.27C154.225 192.349 153.933 192.423 153.634 192.495C148.151 193.83 140.278 194.574 132.982 194.175C123.863 193.68 118.002 191.558 116.848 188.336C116.827 188.286 116.813 188.233 116.795 188.179C116.271 186.484 110.667 158.322 111.731 149.876C111.731 149.866 111.735 149.859 111.735 149.848C112.397 144.678 120.053 136.271 125.64 130.136C129.589 125.795 131.832 123.281 132.017 122.085C132.402 119.589 128.41 114.526 125.996 111.73C125.91 111.631 125.885 111.506 125.925 111.381C125.96 111.257 126.056 111.168 126.181 111.136C129.314 110.306 134.705 108.636 135.556 106.753C135.731 106.368 135.727 105.973 135.545 105.609C134.477 103.476 129.318 93.2892 127.52 89.7391C127.27 89.7107 127.021 89.6857 126.772 89.6607C126.708 89.5894 126.64 89.5182 126.576 89.4471C127.982 92.2281 133.772 103.655 134.908 105.926C134.993 106.101 134.993 106.268 134.908 106.46C134.381 107.621 131.052 109.113 125.999 110.445C125.636 110.541 125.354 110.812 125.241 111.171C125.13 111.527 125.212 111.912 125.458 112.197C129.367 116.73 131.557 120.383 131.312 121.975C131.151 123.021 128.217 126.244 125.112 129.655C120.313 134.925 114.006 141.854 111.792 147.128C111.397 148.064 111.133 148.947 111.03 149.759C111.03 149.77 111.026 149.78 111.026 149.791C109.979 158.127 115.331 185.388 116.072 188.229L116.072 188.229Z" fill="black"/>
<path d="M111.027 149.809C111.031 150.001 111.187 150.158 111.383 150.158H111.387C111.583 150.158 111.743 149.994 111.739 149.798C111.651 142.922 113.566 131.222 114.891 124.018C114.748 124.328 114.606 124.517 114.456 124.521C114.353 124.524 114.235 124.446 114.114 124.303C112.79 131.567 110.938 143.008 111.027 149.809V149.809Z" fill="black"/>
<path d="M104.108 88.4299C104.403 88.2895 104.69 88.1348 104.973 87.9723C105.022 87.9616 105.071 87.9525 105.12 87.9408C105.155 87.9337 105.187 87.923 105.219 87.9122C101.338 94.1828 96.1038 103.544 96.5276 105.452C96.8339 106.83 98.6746 107.443 100.455 108.041C101.562 108.408 102.606 108.757 103.311 109.291C103.909 109.743 104.03 110.615 103.585 111.235C103.215 111.748 102.659 112.364 102.015 113.083C100.188 115.116 97.6883 117.901 97.8025 120.23C97.945 123.114 107.694 133.33 112.049 137.642C112.227 137.812 112.394 137.98 112.551 138.133C112.693 138.272 112.503 138.492 112.368 138.631C112.297 138.702 112.395 138.742 112.302 138.742C112.213 138.742 112.124 138.71 112.053 138.642C112.031 138.621 111.988 138.578 111.928 138.521C110.4 137.015 97.2755 124.015 97.0903 120.265C96.9621 117.645 99.5758 114.732 101.488 112.606C102.118 111.905 102.659 111.299 103.008 110.819C103.229 110.509 103.172 110.081 102.88 109.861C102.268 109.398 101.278 109.067 100.231 108.714C98.3545 108.088 96.2252 107.376 95.8336 105.609C95.2901 103.162 101.475 92.6796 104.053 88.4552C104.072 88.4466 104.09 88.4387 104.108 88.4302L104.108 88.4299Z" fill="black"/>
<path d="M100.939 183.778C101.074 184.145 101.213 184.508 101.352 184.871C104.382 186.605 110.894 189.112 113.162 189.557C113.312 189.585 113.454 189.599 113.597 189.599C114.024 189.599 114.409 189.464 114.751 189.197C116.047 188.172 116.164 185.508 116.168 185.394C116.175 185.198 116.022 185.031 115.826 185.024C115.644 185.02 115.463 185.17 115.456 185.366C115.431 186.046 115.171 187.958 114.309 188.638C114.024 188.862 113.693 188.937 113.301 188.859C110.681 188.342 103.168 185.316 100.939 183.777V183.778Z" fill="black"/>
<path d="M87.9515 94.5094C86.3241 99.226 85.3065 108.114 88.4422 124.538L88.5704 125.2C88.656 125.624 88.7413 126.055 88.8302 126.489C88.8836 126.767 88.9406 127.045 89.0011 127.326C90.9453 136.648 92.2984 143.681 93.2348 148.965C93.2384 148.983 93.242 149 93.2455 149.018C93.5945 150.976 93.8828 152.696 94.125 154.199C93.9791 154.822 93.833 155.442 93.6905 156.061C92.8503 150.578 91.2692 141.676 88.3032 127.472C88.1502 126.742 88.0041 126.026 87.8687 125.325C87.1175 121.472 86.5905 118.015 86.2485 114.921C86.2485 114.917 86.2449 114.913 86.2485 114.91C85.1602 105.103 85.901 98.8966 87.0834 95.0128C87.3701 94.8409 87.6604 94.6746 87.9515 94.5094Z" fill="black"/>
<path d="M101.001 183.938C101.114 184.252 101.236 184.561 101.353 184.871C104.69 193.762 107.962 202.422 111.195 210.943V210.946L111.569 211.929L119.602 191.921C117.152 190.276 115.909 186.758 115.728 186.687C115.71 192.27 105.726 186.758 101.001 183.938Z" fill="black"/>
<path d="M65.4895 397.13C65.5357 397.151 65.5819 397.159 65.6284 397.159C65.7671 397.159 65.8989 397.08 65.9559 396.945L154.141 193.122L154.508 192.271C154.227 192.349 153.935 192.424 153.635 192.495L153.276 193.328L65.3045 396.66C65.2261 396.842 65.3078 397.052 65.4895 397.13Z" fill="black"/>
<path d="M107.832 95.7567C107.832 96.0701 107.836 96.38 107.843 96.6896C109.028 97.6153 110.745 98.5019 113.262 99.0325C113.924 99.175 114.572 99.2356 115.192 99.2356C117.528 99.2356 119.525 98.3632 120.924 97.5016C121.003 97.167 121.078 96.8321 121.152 96.4939C119.532 97.6012 116.684 99.0292 113.408 98.3384C110.673 97.7617 108.95 96.7468 107.832 95.757L107.832 95.7567Z" fill="black"/>
<path d="M108.389 89.2011C113.595 88.3001 115.988 81.453 117.832 78.177C118.032 77.8209 118.224 77.4827 118.409 77.1657L118.466 77.0589C118.751 76.5391 118.876 76.4857 118.915 76.4893C119.506 76.5176 120.218 76.3646 120.691 76.24C120.666 75.9978 120.642 75.7556 120.62 75.5206C120.189 75.6381 119.491 75.8019 118.947 75.7807C118.355 75.7556 118.028 76.3789 117.843 76.7171L117.793 76.8063C117.604 77.1268 117.412 77.4686 117.213 77.8247C115.475 80.9153 113.143 85.0601 108.414 85.701C108.403 86.8512 108.392 88.0084 108.389 89.2013V89.2011Z" fill="black"/>
<path d="M98.6901 82.931C98.6972 82.988 98.7079 83.0414 98.7184 83.0948C99.0068 83.28 99.3059 83.458 99.6122 83.6289C99.4983 83.3548 99.4306 83.0769 99.3951 82.8278C99.1317 81.0438 100.04 78.8575 101.503 77.743C104.02 75.8239 105.904 73.4097 106.203 73.0214C106.078 73.0927 105.947 73.1497 105.804 73.1887C105.797 73.1923 105.79 73.1959 105.783 73.1959C105.772 73.1995 105.762 73.203 105.747 73.2066C105.523 73.285 105.285 73.3205 105.046 73.3241C104.273 74.2427 102.824 75.8415 101.069 77.1767C99.3877 78.4585 98.3871 80.8763 98.6898 82.9308L98.6901 82.931Z" fill="black"/>
<path d="M94.7015 78.3623C95.9621 75.8306 99.3447 75.0829 100.847 74.7516C101 74.7161 101.136 74.6875 101.246 74.6627C102.389 74.3851 103.318 73.5626 103.82 73.0249C103.742 72.9893 103.671 72.9429 103.6 72.8966C103.486 72.8218 103.372 72.7329 103.258 72.6402C103.247 72.633 103.236 72.6259 103.226 72.6187C102.763 73.0887 101.986 73.7511 101.078 73.9682C100.972 73.993 100.843 74.0216 100.694 74.0571C99.4157 74.3384 96.4212 75.0007 94.7296 77.0233C94.6619 77.479 94.6477 77.9242 94.7011 78.3621L94.7015 78.3623Z" fill="black"/>
<path d="M111.389 55.4387H111.393C111.753 55.4601 112.137 55.4956 112.561 55.5669C111.849 54.9546 110.097 53.2132 110.186 50.9485C110.232 49.7344 110.659 48.8513 111.418 48.3918C112.134 47.9609 113.084 47.954 113.957 48.3739C114.886 48.8225 116.463 49.4314 117.656 49.7127C117.232 49.4848 116.827 49.232 116.446 48.9436C116.204 48.7619 115.976 48.5663 115.748 48.3668L115.744 48.3632C115.253 48.178 114.747 47.9644 114.266 47.733C113.173 47.2096 111.973 47.2272 111.051 47.7828C110.371 48.1923 109.545 49.0682 109.474 50.9199C109.395 52.9103 110.506 54.4984 111.389 55.4384V55.4387Z" fill="black"/>
<path d="M113.955 55.9297C114.319 56.0758 114.668 56.2607 114.988 56.4853C114.682 55.8694 113.596 53.5191 114.094 51.956C114.258 51.4433 114.571 51.0765 115.059 50.838C115.529 50.6065 118.104 51.0053 121.127 53.2664C123.01 54.6729 124.506 55.0824 125.595 55.3779C125.791 55.4313 125.973 55.4775 126.137 55.5274C126.026 55.2354 125.891 54.9506 125.734 54.6765C124.649 54.3809 123.303 53.9998 121.554 52.6968C118.221 50.2042 115.476 49.8376 114.746 50.197C114.084 50.5245 113.635 51.041 113.414 51.7425C112.983 53.0955 113.51 54.8369 113.956 55.9299L113.955 55.9297Z" fill="black"/>
<path d="M105.641 65.7161C105.604 65.7051 105.567 65.6877 105.534 65.6636C105.374 65.5495 105.337 65.3271 105.451 65.1669C107.063 62.9089 107.579 57.8295 107.581 57.7819C107.592 57.5922 107.749 57.4396 107.939 57.4408C108.131 57.4415 108.285 57.5883 108.293 57.7783C108.295 57.8222 107.788 63.1198 106.03 65.5807C105.94 65.707 105.782 65.7568 105.641 65.7161Z" fill="black"/>
<path d="M113.831 61.3328C114.258 61.4186 114.639 61.0573 114.56 60.6288C114.385 59.6871 113.706 57.8607 112.149 57.6197C111.262 57.4824 110.888 57.9479 110.57 58.187C110.121 58.5247 110.124 59.1992 110.559 59.555C111.238 60.1106 112.563 61.0785 113.831 61.3331L113.831 61.3328Z" fill="black"/>
<path d="M107.269 58.9123C106.835 58.8496 106.171 58.7049 105.53 58.5116C105.989 57.5322 107.059 56.1429 107.059 56.1429C107.206 56.2113 107.49 56.3215 107.625 56.4311C107.787 56.5631 107.908 56.6947 107.996 56.8277C108.29 57.2577 108.242 57.6776 108.274 57.9796C108.326 58.5397 107.825 58.9914 107.269 58.912L107.269 58.9123Z" fill="black"/>
<path d="M105.479 60.0806C105.533 60.037 105.595 60.0091 105.665 59.9969C105.794 59.97 105.959 59.9948 106.067 60.0725C106.179 60.1531 106.274 60.2696 106.298 60.41L106.309 60.5461C106.305 60.6064 106.29 60.6629 106.268 60.717C106.158 60.9472 106.07 61.1863 106.003 61.432C105.983 61.5038 105.947 61.5648 105.895 61.6155C105.853 61.6735 105.799 61.7173 105.733 61.7473C105.618 61.8045 105.454 61.8236 105.332 61.7783C105.2 61.7297 105.076 61.6401 105.017 61.5083C104.959 61.3779 104.948 61.2459 104.986 61.1069C105.069 60.8006 105.19 60.5127 105.328 60.2277C105.366 60.1645 105.416 60.1154 105.479 60.0806Z" fill="black"/>
<path d="M110.822 61.8606C110.877 61.817 110.939 61.7891 111.009 61.777C111.137 61.75 111.302 61.7748 111.411 61.8525C111.523 61.9331 111.618 62.0496 111.641 62.19L111.652 62.3261C111.649 62.3864 111.633 62.4429 111.611 62.4973C111.502 62.7275 111.414 62.9665 111.347 63.2123C111.327 63.2838 111.291 63.345 111.239 63.3958C111.197 63.4535 111.143 63.4973 111.077 63.5274C110.962 63.5846 110.798 63.6036 110.676 63.5584C110.544 63.5097 110.419 63.4201 110.36 63.2883C110.302 63.1579 110.292 63.0259 110.33 62.8869C110.412 62.5807 110.534 62.2928 110.672 62.0077C110.71 61.9448 110.76 61.8957 110.823 61.8606H110.822Z" fill="black"/>
<path d="M118.561 73.6555C118.941 73.906 119.587 73.9136 120.134 73.7599C120.994 73.5182 121.848 72.7979 121.666 71.5021C121.505 70.3547 120.769 69.662 119.631 69.5658C120.12 69.0264 120.623 68.7456 121.129 68.7304C121.869 68.7082 122.47 69.249 122.763 69.5731C122.763 69.5731 122.998 69.995 123.36 69.6075C123.541 69.413 123.292 69.0962 123.292 69.0962C122.644 68.3783 121.868 67.9958 121.107 68.0187C120.317 68.0427 119.568 68.4896 118.883 69.3472C118.746 69.5188 118.72 69.7486 118.817 69.9466C118.913 70.1459 119.11 70.2686 119.332 70.2667C120.287 70.2603 120.835 70.7093 120.961 71.6017C121.072 72.3927 120.629 72.7796 120.237 72.9645C119.66 73.2372 119.035 73.1523 118.937 73.0472C118.859 72.8666 118.654 72.7915 118.474 72.8697C118.293 72.9476 118.215 73.1655 118.293 73.3459C118.349 73.4746 118.442 73.5771 118.561 73.6557L118.561 73.6555Z" fill="black"/>
<path d="M105.327 71.4404C105.473 71.4404 105.609 71.3505 105.662 71.2059C105.729 71.0211 105.634 70.8169 105.449 70.7494C104.122 70.2668 103.825 69.9517 103.822 69.9486C103.707 69.7894 103.491 69.7613 103.332 69.8769C103.173 69.9922 103.143 70.2232 103.259 70.3826C103.334 70.487 103.697 70.87 105.206 71.4187C105.246 71.4332 105.287 71.4404 105.327 71.4404Z" fill="black"/>
<path d="M144.36 138.699C144.446 138.45 144.826 138.368 144.987 138.596C146.738 145.222 148.829 152.166 150.965 158.821V158.824C153.038 165.266 155.149 171.437 157.04 176.792C159.404 183.486 161.43 188.905 162.591 191.978C162.593 191.981 162.594 191.983 162.594 191.986C162.616 192.121 162.641 192.26 162.662 192.395C162.559 192.694 162.452 193.004 162.338 193.314C161.53 195.585 160.561 198.199 159.554 200.848C157.09 194.246 155.217 187.435 153.625 180.57C153.269 179.028 152.924 177.486 152.589 175.941C151.001 168.595 149.623 161.206 148.035 153.864C147.315 150.539 146.553 147.223 145.71 143.926C145.67 143.773 145.631 143.624 145.592 143.47C145.581 143.442 145.567 143.414 145.557 143.385C145.112 141.804 144.684 140.237 144.275 138.685C144.303 138.685 144.332 138.692 144.36 138.699H144.36Z" fill="black"/>
<path d="M88.44 124.538L88.5682 125.2L88.6645 126.457C88.7215 126.457 88.7785 126.468 88.8283 126.49C88.8817 126.767 88.9387 127.045 88.9992 127.326C90.9434 136.649 92.2964 143.681 93.2329 148.965C93.2364 148.983 93.24 149 93.2436 149.018C93.5925 150.977 93.8809 152.697 94.123 154.199C93.9772 154.822 93.8311 155.442 93.6885 156.061C93.2507 157.941 92.8127 159.821 92.3817 161.701C92.3674 161.762 92.3567 161.819 92.3426 161.876C91.9153 163.752 91.4846 165.632 91.0573 167.509C90.9291 166.953 90.9433 166.327 90.9078 165.832C90.8508 165.084 90.7939 164.333 90.737 163.582C90.6836 162.837 90.6266 162.09 90.5694 161.342C90.4235 159.408 90.281 157.471 90.1351 155.538C90.0603 154.537 89.9854 153.54 89.9108 152.54C89.4659 146.632 89.0242 140.729 88.5792 134.825C88.3406 131.66 88.1056 128.491 87.8671 125.325C87.8528 125.136 87.8384 124.948 87.8243 124.759C87.7957 124.396 88.241 124.321 88.4402 124.538L88.44 124.538Z" fill="black"/>
<path d="M113.143 152.245C113.155 152.225 113.171 152.208 113.184 152.188C113.25 152.05 113.335 151.921 113.446 151.81C113.634 151.624 113.852 151.509 114.086 151.437C114.11 151.427 114.132 151.413 114.157 151.403C114.593 151.232 115.096 151.28 115.54 151.391C115.95 151.495 116.335 151.667 116.653 151.95C117.034 152.29 117.193 152.813 117.194 153.311C117.196 153.912 117.062 154.571 116.684 155.026C116.604 155.146 116.51 155.257 116.395 155.352C115.998 155.678 115.517 155.815 115.006 155.815C114.586 155.814 114.169 155.719 113.798 155.522C113.37 155.294 113.081 154.907 112.914 154.461C112.656 153.768 112.755 152.872 113.143 152.245L113.143 152.245Z" fill="black"/>
<path d="M115.548 168.981C115.561 168.96 115.577 168.944 115.59 168.924C115.655 168.785 115.74 168.656 115.851 168.546C116.039 168.36 116.257 168.244 116.491 168.173C116.515 168.162 116.537 168.148 116.562 168.139C116.998 167.967 117.501 168.015 117.946 168.127C118.356 168.23 118.74 168.403 119.058 168.686C119.44 169.026 119.598 169.549 119.6 170.046C119.601 170.648 119.467 171.307 119.089 171.762C119.01 171.881 118.916 171.992 118.8 172.087C118.403 172.414 117.923 172.551 117.412 172.55C116.992 172.55 116.574 172.455 116.203 172.257C115.775 172.029 115.486 171.643 115.32 171.196C115.061 170.504 115.16 169.608 115.548 168.981V168.981Z" fill="black"/>
</g>
<path d="M75.953 13.9931C75.953 6.2086 69.608 -0.0913789 61.8021 0.00100319C54.2578 0.0901859 48.1066 6.24899 48.0014 13.7931C47.9428 17.9985 49.7371 21.7852 52.6317 24.3875C54.8877 26.4157 56.2258 29.2699 56.2258 32.3036V32.6683H67.7256V32.3937C67.7256 29.3155 69.0781 26.4181 71.3597 24.3515C74.1857 21.7922 75.953 18.0993 75.953 13.9931Z" fill="#FCCA65"/>
<path d="M63.118 39.4882H60.7944C58.3147 39.4882 56.3047 37.478 56.3047 34.9985H67.6079C67.6077 37.478 65.5977 39.4882 63.118 39.4882Z" fill="#91C7F9"/>
<path d="M67.9308 29.1762H56.0293C55.0721 29.1762 54.2891 29.9593 54.2891 30.9165C54.2891 31.8737 55.0721 32.6567 56.0293 32.6567H67.9308C68.888 32.6567 69.6711 31.8735 69.6711 30.9165C69.6713 29.9593 68.888 29.1762 67.9308 29.1762Z" fill="#91C7F9"/>
<path d="M67.9308 32.6572H56.0293C55.0721 32.6572 54.2891 33.4402 54.2891 34.3974C54.2891 35.3546 55.0721 36.1377 56.0293 36.1377H67.9308C68.888 36.1377 69.6711 35.3544 69.6711 34.3974C69.6713 33.4404 68.888 32.6572 67.9308 32.6572Z" fill="#91C7F9"/>
<path d="M60.3054 29.3124C60.3032 29.3124 60.3008 29.3124 60.2986 29.3122C60.2238 29.3086 60.1662 29.245 60.1698 29.1702C60.4318 23.8693 60.2704 19.4265 59.7037 16.2122C57.5058 16.1552 55.7205 15.9488 55.0856 15.6395C53.968 15.095 53.8199 13.5757 54.1552 12.3943C54.4562 11.3333 55.2858 10.1433 56.6327 10.2769C57.9829 10.4119 59.0563 12.0474 59.7369 15.0064C59.8061 15.3077 59.8711 15.6205 59.9317 15.945C61.0403 15.9686 62.243 15.9552 63.4378 15.8984C64.0741 15.8682 64.6782 15.8278 65.2471 15.7782C65.6878 12.803 66.2643 11.0943 66.9697 10.6828C68.1255 10.0086 69.5282 10.1823 70.5434 11.1255C71.4721 11.9884 71.745 13.2149 71.2389 14.2501C70.716 15.3195 67.8022 15.8062 65.4832 16.0258C65.3117 17.2328 65.1513 18.7097 65.0109 20.5135C64.6712 24.8809 64.6186 29.1359 64.618 29.1785C64.6172 29.2528 64.5566 29.3124 64.4826 29.3124C64.482 29.3124 64.4814 29.3124 64.481 29.3124C64.4062 29.3116 64.3462 29.2502 64.347 29.1753C64.3476 29.1327 64.4002 24.8699 64.7406 20.4937C64.8725 18.7971 65.0285 17.3151 65.2077 16.0508C64.5322 16.11 63.9205 16.1466 63.4508 16.1688C62.2608 16.2254 61.0753 16.24 59.9815 16.2182C60.5516 19.4597 60.7061 23.8119 60.4406 29.1832C60.437 29.256 60.3772 29.3124 60.3054 29.3124ZM56.43 10.5375C55.3522 10.5375 54.6749 11.5565 54.4162 12.4681C54.101 13.5785 54.2708 14.9408 55.2046 15.3957C55.7963 15.6841 57.5312 15.88 59.6541 15.938C59.5976 15.6361 59.5372 15.3455 59.473 15.0668C58.8303 12.2721 57.8121 10.6668 56.6059 10.5463C56.5463 10.5403 56.4876 10.5375 56.43 10.5375ZM68.437 10.5453C68.0105 10.5453 67.5586 10.653 67.1063 10.9168C66.6344 11.1921 66.0327 12.3215 65.5228 15.753C68.6326 15.4591 70.6302 14.878 70.9954 14.1312C71.4479 13.2055 71.1981 12.1038 70.3591 11.3241C69.9052 10.9024 69.2137 10.5453 68.437 10.5453Z" fill="#0E1323"/>
<path d="M68.2228 32.791H55.5477C55.4729 32.791 55.4121 32.7304 55.4121 32.6554C55.4121 32.5806 55.4727 32.5198 55.5477 32.5198H68.2228C68.2976 32.5198 68.3584 32.5804 68.3584 32.6554C68.3584 32.7302 68.2978 32.791 68.2228 32.791Z" fill="#0E1323"/>
<path d="M67.6298 36.2774H56.3201C56.2454 36.2774 56.1846 36.2167 56.1846 36.1419C56.1846 36.0671 56.2452 36.0063 56.3201 36.0063H67.6298C67.7045 36.0063 67.7653 36.0669 67.7653 36.1419C67.7653 36.2169 67.7045 36.2774 67.6298 36.2774Z" fill="#0E1323"/>
<path d="M205.592 64.114C205.688 62.053 205.46 59.9774 204.927 57.9624L209.705 53.5873L206.87 48.4122L200.965 50.2846C200.867 50.1673 200.783 50.0424 200.682 49.927C199.282 48.3266 197.681 47.032 195.962 46.0204L196.533 39.7703L191.05 37.9998L187.996 43.5094C185.867 43.345 183.721 43.5581 181.648 44.1431L177.882 39.5874L172.843 42.4431L174.429 48.1266C174.318 48.2255 174.2 48.3096 174.092 48.4114C172.554 49.855 171.318 51.5142 170.36 53.2991L164.316 53.2237L163 59.0155L168.049 61.4707C167.908 63.7346 168.152 66.0207 168.772 68.23L164.182 72.6541L167.087 77.7873L172.803 75.8078C172.848 75.8614 172.886 75.9183 172.932 75.9711C174.308 77.5448 175.878 78.8254 177.564 79.8294L177.511 86.7121L183.107 88.0519L185.646 82.3906C187.807 82.5543 189.983 82.3265 192.084 81.7181L196.379 86.4258L201.311 83.3766L199.396 77.5916C199.437 77.5542 199.481 77.5233 199.521 77.4856C201.113 75.9915 202.378 74.2655 203.349 72.4085L209.345 72.8876L210.959 67.1768L205.592 64.114ZM195.723 72.9845C190.444 77.9397 182.186 77.4411 177.316 71.8725C172.445 66.304 172.779 57.7421 178.058 52.7873C183.338 47.8324 191.595 48.3315 196.465 53.9C201.336 59.4689 201.003 68.0293 195.723 72.9845Z" fill="#91C7F9"/>
</svg>
