<svg width="266" height="131" viewBox="0 0 266 131" fill="none" xmlns="http://www.w3.org/2000/svg">
<path d="M181.477 48.9632C178.174 40.3701 172.19 32.7269 163.833 27.4334C154.888 21.767 144.671 19.7119 134.896 20.8704L132.812 6.2448C145.949 4.60697 159.707 7.33446 171.737 14.9555C183.537 22.43 191.787 33.4188 195.999 45.7042L181.477 48.9632Z" fill="#87E6C8"/>
<path d="M127.95 12.8267L130.034 27.4523C117.209 28.972 105.144 36.0271 97.7099 47.7621C84.61 68.4419 90.7768 95.9244 111.457 109.024C132.137 122.124 159.619 115.957 172.719 95.2763C180.525 82.9532 181.487 68.2155 176.615 55.5446L190.979 52.321L191.139 52.2928C196.762 68.7005 195.179 87.4212 185.197 103.18C167.738 130.74 131.113 138.959 103.553 121.501C75.9925 104.042 67.774 67.4177 85.232 39.857C95.0695 24.3281 110.993 14.9406 127.95 12.8267Z" fill="#FCCA65"/>
<path d="M170.473 98.4808C171.259 97.4521 172.014 96.3891 172.719 95.2761C180.525 82.953 181.487 68.2153 176.615 55.5443L190.979 52.3208L191.139 52.2925C196.762 68.7002 195.179 87.421 185.197 103.18C184.494 104.289 183.756 105.364 182.993 106.411L170.473 98.4808Z" fill="#FF789B"/>
<path d="M38.6689 73.5746C38.6689 73.5746 13.6709 84.4216 4.40945 77.2416C-4.85196 70.0616 2.77679 54.603 6.49499 46.0613C10.2132 37.5195 22.7402 15.9573 22.7402 15.9573L32.2632 25.839L24.548 54.4875L35.5164 51.8518L38.6689 73.5746Z" fill="#F9ACAC"/>
<path d="M29.8152 29.5019L31.2697 27.168C31.2697 27.168 33.9908 28.2094 37.4059 27.4365C40.821 26.6635 44.9177 21.5556 43.0103 20.1814C41.103 18.8068 38.3808 22.0078 38.3808 22.0078C38.3808 22.0078 36.9046 22.8305 35.5715 19.5752L37.3235 16.3635C37.3235 16.3635 39.9568 15.9179 40.9438 15.838C40.9438 15.838 40.9961 19.8471 43.3169 20.1945C45.6377 20.5419 45.2955 18.5847 44.6689 16.0366C44.0427 13.4885 44.4091 13.1733 43.102 12.1326C41.7949 11.0919 38.6881 11.6859 38.6881 11.6859C38.6881 11.6859 47.5793 5.00584 45.8321 2.77742C44.0853 0.549338 40.2256 5.12002 40.2256 5.12002C40.2256 5.12002 43.8282 1.46583 42.3478 0.171534C40.8674 -1.12276 35.2363 5.3321 35.2363 5.3321C35.2363 5.3321 37.638 2.42487 36.8115 1.65092C35.9846 0.876977 34.9574 1.87719 33.3293 3.95754C31.7011 6.03789 25.2165 12.3326 23.5752 14.7198C21.9339 17.107 17.9164 24.6161 17.9164 24.6161L29.8152 29.5019Z" fill="#F9ACAC"/>
<path d="M26.4229 18.5276C26.4814 18.5276 26.5399 18.5058 26.5852 18.4622C26.7219 18.3307 29.9017 15.2488 31.2029 11.6873L36.1877 11.8468C36.1905 11.8468 36.1929 11.8468 36.1953 11.8468C36.3213 11.8468 36.4254 11.7468 36.4296 11.6198C36.4337 11.4904 36.332 11.3821 36.203 11.378L31.0472 11.213C31.0445 11.213 31.042 11.213 31.0396 11.213C30.94 11.213 30.8511 11.2759 30.8182 11.3704C29.5938 14.8921 26.2935 18.092 26.2603 18.1238C26.1669 18.2134 26.1641 18.3618 26.2537 18.4552C26.2998 18.5033 26.3613 18.5276 26.4229 18.5276Z" fill="#333333"/>
<path d="M26.4924 21.388C26.5464 21.388 26.601 21.3694 26.645 21.3313C30.1902 18.2829 33.696 19.908 33.8437 19.9789C33.9606 20.0349 34.1004 19.9858 34.1565 19.8692C34.2125 19.7526 34.1637 19.6128 34.0471 19.5565C34.0084 19.5378 30.1238 17.7217 26.3395 20.976C26.2412 21.0604 26.2302 21.2085 26.3146 21.3067C26.3609 21.3604 26.4263 21.388 26.4924 21.388Z" fill="#333333"/>
<path d="M22.6651 60.9531C22.7658 60.9531 22.8588 60.8877 22.8893 60.7863L24.7683 54.5557C24.8057 54.4318 24.7354 54.301 24.6116 54.2633C24.4877 54.226 24.3569 54.2962 24.3196 54.4201L22.4406 60.6507C22.4032 60.7746 22.4734 60.9054 22.5973 60.9431C22.6198 60.95 22.6426 60.9531 22.6651 60.9531Z" fill="#333333"/>
<path d="M102.697 26.8519C102.824 28.2642 102.529 29.7457 103.037 31.0694C104.221 34.1506 108.884 34.553 110.27 37.5484C111.479 40.1619 109.544 43.3245 110.401 46.0736C110.863 47.5571 112.063 48.6719 112.917 49.9703C114.568 52.48 114.87 55.8228 113.696 58.5875C110.305 60.307 106.174 58.8795 102.904 56.9407C99.6336 55.0018 96.5036 52.5022 92.7401 51.9656C89.509 51.5047 86.2825 52.5679 83.0521 53.036C79.8221 53.5041 76.0838 53.1796 73.9927 50.6737C72.8389 49.2905 72.3158 47.3755 70.8651 46.3082C69.6269 45.3972 67.9178 45.2744 66.7511 44.2731C64.987 42.7588 65.2188 39.9101 66.2349 37.8193C67.2514 35.7286 68.8796 33.9382 69.5971 31.7271C69.9296 30.7026 70.0569 29.6125 70.4846 28.6237C71.4246 26.4495 73.635 25.129 75.7956 24.1582C81.7381 21.4883 101.734 16.1173 102.697 26.8519Z" fill="#AD7B17"/>
<path d="M106.099 50.558C106.132 50.558 106.166 50.5511 106.197 50.5365C106.315 50.4825 106.367 50.3431 106.313 50.2255C105.422 48.288 105.177 46.0731 105.622 43.9879C105.678 43.7277 105.745 43.4565 105.811 43.1942C106.113 41.9785 106.425 40.7212 105.877 39.5785C105.434 38.655 104.563 38.115 103.72 37.5929C103.315 37.3421 102.896 37.0826 102.539 36.7868C101.774 36.1547 101.214 35.278 100.961 34.3189C100.928 34.1937 100.8 34.119 100.675 34.1522C100.549 34.185 100.475 34.3134 100.508 34.4386C100.786 35.4918 101.401 36.4539 102.24 37.148C102.622 37.4642 103.055 37.732 103.473 37.9915C104.294 38.5007 105.071 38.9816 105.455 39.7812C105.93 40.7717 105.638 41.9456 105.356 43.0811C105.29 43.3472 105.221 43.6219 105.164 43.89C104.698 46.0734 104.955 48.3929 105.887 50.4217C105.926 50.5071 106.011 50.558 106.099 50.558Z" fill="#0E1323"/>
<path d="M101.306 47.0071C101.4 47.0071 101.489 46.9497 101.525 46.856C102.335 44.7223 101.844 42.158 100.302 40.4751C100.169 40.3302 100.025 40.1842 99.8863 40.0427C99.2639 39.4099 98.6201 38.7556 98.7045 37.9734C98.7183 37.8447 98.6253 37.7291 98.4966 37.7153C98.3665 37.7011 98.2523 37.7945 98.2381 37.9232C98.1298 38.9262 98.8854 39.6939 99.5518 40.3717C99.6943 40.5166 99.8289 40.6533 99.9559 40.792C101.381 42.3475 101.836 44.7175 101.086 46.6895C101.04 46.8106 101.101 46.9459 101.222 46.9919C101.25 47.0023 101.278 47.0071 101.306 47.0071Z" fill="#0E1323"/>
<path d="M71.8422 18.4983C73.0652 14.8569 77.4006 13.327 81.2368 12.9949C85.5387 12.6223 89.9156 13.1364 94.0126 14.4954C96.9551 15.4714 100.03 17.1909 100.924 20.1524C101.52 22.1279 100.987 24.3225 99.8644 26.0548C98.7418 27.7871 97.0835 29.1104 95.3332 30.2103C91.6804 32.5051 87.3367 33.9683 83.0539 33.424C76.8381 32.6342 69.5913 25.1995 71.8422 18.4983Z" fill="#AD7B17"/>
<path d="M65.5471 43.0227C65.5471 43.0227 55.9709 43.4057 48.5013 44.938C41.0317 46.4703 31.2641 50.4923 31.2641 50.4923L38.925 81.5194L47.352 79.221V91.6703L100.787 104.119L101.745 83.0517L103.852 86.3077L126.197 76.5532C126.197 76.5532 118.791 57.1956 112.854 51.0666C106.916 44.938 92.7435 43.214 92.7435 43.214L79.3367 45.7037L65.5471 43.0227Z" fill="#2872F7"/>
<path d="M100.979 25.4031C97.9114 25.4031 95.4246 22.9163 95.4246 19.8488C95.4246 16.7812 97.9114 14.2945 100.979 14.2945C104.046 14.2945 106.533 16.7812 106.533 19.8488C106.533 22.9163 104.046 25.4031 100.979 25.4031Z" fill="#AD7B17"/>
<path d="M92.9296 27.8818C96.507 27.8818 101 26.107 101.259 26.0035C101.379 25.9554 101.438 25.8191 101.389 25.6987C101.341 25.5783 101.205 25.5195 101.085 25.5679C101 25.6018 92.566 28.9339 89.8335 26.5661C89.7356 26.481 89.5875 26.492 89.5027 26.5896C89.418 26.6875 89.4287 26.8356 89.5263 26.9204C90.3393 27.6244 91.5686 27.8818 92.9296 27.8818Z" fill="#0E1323"/>
<path d="M97.445 23.9159C97.5332 23.9159 97.619 23.9152 97.7035 23.9135C100.238 23.865 101.78 23.1554 101.844 23.1253C101.951 23.0752 102.004 22.9537 101.968 22.8416C101.905 22.6427 100.373 17.9489 97.1385 15.9121C97.0288 15.8432 96.8842 15.8761 96.8153 15.9854C96.7465 16.0951 96.7794 16.2397 96.8887 16.3089C99.6067 18.0205 101.118 21.8546 101.451 22.7807C100.968 22.9662 99.6094 23.4121 97.6685 23.4454C95.4183 23.4838 91.89 22.9575 87.8961 20.2299C87.7892 20.1569 87.6432 20.1842 87.5702 20.2911C87.4972 20.398 87.5245 20.544 87.6314 20.617C91.5897 23.3198 95.1114 23.9159 97.445 23.9159Z" fill="#0E1323"/>
<path d="M47.3531 79.4557C47.4064 79.4557 47.46 79.4377 47.504 79.4007C47.6029 79.3173 47.6157 79.1696 47.5323 79.0706C47.5157 79.0506 46.1567 77.3875 46.0135 74.1671C45.8803 71.1772 46.7965 66.1976 51.9162 59.4542C51.9944 59.3511 51.9743 59.2041 51.8712 59.1255C51.7681 59.047 51.6211 59.0674 51.5429 59.1705C46.3207 66.0485 45.3998 71.1565 45.5468 74.2304C45.708 77.5975 47.1137 79.3018 47.1736 79.3727C47.2203 79.4273 47.2863 79.4557 47.3531 79.4557Z" fill="#333333"/>
<path d="M92.4784 43.1371L99.8857 44.3843C99.8857 44.3843 82.351 73.2971 73.538 54.4044C73.538 54.4044 59.4478 67.3865 59.3949 43.2166L68.0495 42.7946L92.4784 43.1371Z" fill="white"/>
<path d="M86.576 34.0005L85.9647 41.9486L92.6904 43.2072C92.6904 43.2072 81.8922 54.86 74.3133 54.359C66.7343 53.8581 65.575 42.9851 65.575 42.9851L74.2794 42.1392L75.1495 35.6536L86.576 34.0005Z" fill="#F9ACAC"/>
<path d="M83.7568 35.9996C83.7568 35.9996 81.5277 43.0506 74.4508 40.9235L75.1898 35.4526L77.6895 36.6072L83.7568 35.9996Z" fill="#0E1323"/>
<path d="M78.8505 16.1317C77.1324 16.8891 75.7513 18.2501 74.8926 19.9202L73.3706 23.7287C71.4141 27.0303 70.4361 31.7992 71.4141 34.9784C71.9549 36.7359 73.181 37.8621 74.9631 38.3153C81.0741 39.8694 87.0007 35.1334 87.0007 35.1334C87.0007 35.1334 87.2709 35.6423 88.3358 36.3408C91.5201 36.9899 94.9453 33.2734 93.342 30.9204C92.1702 29.2016 90.4701 29.43 89.3457 29.851C86.8135 30.2423 89.1249 28.4419 89.6512 26.7151C83.9837 21.0934 85.4386 16.8811 84.9262 16.2992C82.7891 15.153 80.6319 15.3467 78.8505 16.1317Z" fill="#F9ACAC"/>
<path d="M86.2096 26.3108C85.8232 25.3168 84.4379 24.6266 83.4214 24.8387C82.9827 24.9301 83.0467 25.4805 83.392 25.6351C83.7881 25.8123 84.2151 25.8946 84.6081 26.0797C84.9963 26.2624 85.3585 26.5229 85.7509 26.6876C85.9834 26.7855 86.3207 26.5966 86.2096 26.3108Z" fill="#0E1323"/>
<path d="M75.571 20.9601C76.6151 20.7439 77.9478 21.5307 78.3229 22.499C78.4848 22.917 77.988 23.1626 77.6707 22.9571C77.3064 22.7212 77.005 22.4077 76.6362 22.1787C76.2719 21.9524 75.8561 21.7901 75.5042 21.5504C75.2956 21.4082 75.2707 21.0224 75.571 20.9601Z" fill="#0E1323"/>
<path d="M88.2131 34.2327C88.3124 34.2327 88.4047 34.169 88.4366 34.069C88.8822 32.663 89.5004 31.8479 90.274 31.6469C91.3199 31.3749 92.3464 32.3267 92.3565 32.3364C92.4509 32.425 92.599 32.4208 92.6879 32.3267C92.7768 32.2326 92.7727 32.0845 92.6786 31.9956C92.6294 31.9489 91.4566 30.8567 90.1588 31.1922C89.2178 31.4355 88.4878 32.3558 87.9896 33.9275C87.9505 34.051 88.0186 34.1829 88.1421 34.222C88.1657 34.2292 88.1895 34.2327 88.2131 34.2327Z" fill="#0E1323"/>
<path d="M90.377 33.6759C90.3797 33.6759 90.3822 33.6759 90.3849 33.6759C90.514 33.6714 90.6154 33.5634 90.6112 33.4344C90.6102 33.4001 90.5787 32.5923 90.0791 32.1986C89.8334 32.0055 89.5286 31.945 89.173 32.0187C89.046 32.045 88.9647 32.1692 88.991 32.2958C89.0173 32.4228 89.1418 32.5037 89.2681 32.4778C89.4851 32.4328 89.6546 32.4615 89.7878 32.566C90.0601 32.7795 90.1362 33.2763 90.1424 33.4496C90.1476 33.5762 90.2514 33.6759 90.377 33.6759Z" fill="#0E1323"/>
<path d="M88.3617 38.1666C88.4469 38.1666 88.5337 38.1594 88.6223 38.1452C89.0291 38.0798 89.3976 37.867 89.6332 37.5612C89.891 37.2266 89.9823 36.7786 89.8719 36.3921C89.8363 36.2676 89.7069 36.1956 89.5823 36.2309C89.4578 36.2665 89.3858 36.3963 89.4215 36.5208C89.4917 36.7668 89.4305 37.056 89.262 37.275C89.0983 37.4871 88.8385 37.6359 88.5482 37.6823C88.3953 37.7068 88.2517 37.702 88.1213 37.6677C87.8653 37.6006 87.6369 37.4062 87.5106 37.1477C87.3889 36.8993 87.3591 36.5976 87.4266 36.2987C87.4985 35.9801 87.6784 35.6939 87.9206 35.514C88.1497 35.3435 88.4361 35.2667 88.7022 35.3023C88.7101 35.3141 88.7188 35.3251 88.7292 35.3359C88.8195 35.4289 88.9675 35.4313 89.0606 35.3414C89.1305 35.2736 89.1578 35.1736 89.1315 35.0802C89.0973 34.958 88.9828 34.8809 88.8849 34.8591C88.4662 34.7657 88.0012 34.8702 87.6407 35.138C87.3055 35.3874 87.0668 35.7631 86.9692 36.1956C86.8782 36.5987 86.9211 37.01 87.0896 37.3539C87.275 37.7328 87.6162 38.0196 88.0023 38.1213C88.1168 38.1514 88.2372 38.1666 88.3617 38.1666Z" fill="#0E1323"/>
<path d="M74.7278 29.8369C74.8375 29.7912 74.961 29.7905 75.0793 29.8023C75.745 29.8687 76.3158 30.3005 76.7957 30.7665C77.2759 31.2326 77.715 31.7574 78.2931 32.0944C78.3941 32.1532 78.5131 32.2297 78.5107 32.3463C78.5093 32.4033 78.4775 32.4546 78.4436 32.5006C78.1869 32.8517 77.788 33.0728 77.3807 33.2257C76.7791 33.4516 76.1107 33.5509 75.4903 33.3821C74.87 33.2133 74.3116 32.7424 74.1511 32.12C74.1016 31.928 74.0909 31.7194 74.1628 31.5343C74.286 31.2184 74.4334 31.0226 74.424 30.669C74.4164 30.3694 74.3888 29.9781 74.7278 29.8369Z" fill="#D1334E"/>
<path d="M78.0296 32.7157C78.2344 32.7157 78.4454 32.7022 78.6631 32.6728C78.7914 32.6555 78.8814 32.5376 78.8641 32.4092C78.8468 32.2809 78.7281 32.1909 78.6004 32.2082C76.2437 32.5258 74.6138 30.7167 74.5979 30.6984C74.5121 30.6015 74.364 30.5921 74.2671 30.6776C74.1699 30.7631 74.1605 30.9108 74.246 31.0084C74.3121 31.0838 75.7749 32.7157 78.0296 32.7157Z" fill="#0E1323"/>
<path d="M82.6129 27.4524C82.9786 26.9629 83.5785 26.812 83.9532 27.1155C84.3279 27.4185 84.3355 28.0614 83.9698 28.5506C83.6041 29.0401 83.0042 29.191 82.6295 28.8876C82.2548 28.5845 82.2472 27.942 82.6129 27.4524Z" fill="#0E1323"/>
<path d="M75.276 23.6619C75.6417 23.1724 76.2416 23.0215 76.6163 23.3249C76.991 23.628 76.9986 24.2708 76.6329 24.76C76.2672 25.2496 75.6673 25.4004 75.2926 25.097C74.9179 24.7939 74.9103 24.1511 75.276 23.6619Z" fill="#0E1323"/>
<path d="M78.3033 29.1133C78.4275 29.1133 78.5545 29.0821 78.6704 28.9963C78.7745 28.9195 78.7966 28.7725 78.7198 28.6684C78.643 28.5642 78.4963 28.5421 78.3919 28.6189C78.3375 28.659 78.2099 28.6715 77.912 28.503L76.7187 27.8273C76.571 27.7436 76.4451 27.6661 76.4018 27.5647C76.3115 27.3536 76.5963 27.0644 76.7741 26.9111L76.8644 26.8333C77.5567 26.2365 78.2725 25.6196 78.6565 24.7633C79.0675 23.8461 78.953 22.5525 78.049 21.9751C77.9397 21.9056 77.7947 21.9374 77.7252 22.0464C77.6553 22.1554 77.6875 22.3003 77.7964 22.3702C78.4777 22.8051 78.551 23.8513 78.2282 24.5713C77.8871 25.3325 77.2114 25.9151 76.5578 26.478L76.4672 26.5562C75.8597 27.081 75.8614 27.4945 75.9704 27.7487C76.0794 28.0041 76.325 28.1432 76.4876 28.2352L77.6809 28.9105C77.7867 28.9707 78.0386 29.1133 78.3033 29.1133Z" fill="#0E1323"/>
<path d="M34.5738 17.9984H57.3514C60.4981 17.9984 63.0545 20.5385 63.0745 23.6851L63.205 44.1776C63.2254 47.3526 60.6569 49.9374 57.4818 49.9374H34.7042C31.5576 49.9374 29.0012 47.3972 28.9811 44.2506L28.8507 23.7581C28.8306 20.5828 31.3988 17.9984 34.5738 17.9984Z" fill="#91C7F9"/>
<path d="M56.8278 45.6021H34.5183C33.4156 45.6021 32.7486 44.525 33.2022 43.4771L40.1705 27.373C40.7462 26.0423 42.5698 25.8514 43.1458 27.0612L47.5487 36.3123C47.9736 37.2052 49.1651 37.391 50.002 36.6949L51.5686 35.392C52.3574 34.736 53.476 34.8574 53.9555 35.6515L58.4203 43.0425C59.0694 44.1157 58.1442 45.6021 56.8278 45.6021Z" fill="white"/>
<path d="M47.5577 26.5505C47.5435 24.32 49.4221 22.512 51.754 22.512C54.0859 22.512 55.9877 24.32 56.0019 26.5505C56.0161 28.781 54.1374 30.5891 51.8055 30.5891C49.4737 30.5891 47.5718 28.781 47.5577 26.5505Z" fill="white"/>
<path d="M79.9066 110.873C90.6103 114.084 130.781 128.948 132.922 112.381C134.843 97.5124 121.061 71.4175 121.061 71.4175L99.7088 84.1135L107.558 98.5638C107.558 98.5638 80.977 95.531 80.2636 95.531C79.5499 95.531 79.9066 110.873 79.9066 110.873Z" fill="#F9ACAC"/>
<path d="M118.8 99.8685C118.92 99.8685 119.022 99.7775 119.033 99.6564C119.045 99.5273 118.951 99.4132 118.822 99.4007L107.583 98.3303C107.455 98.3182 107.34 98.4126 107.327 98.5417C107.315 98.6707 107.41 98.7849 107.539 98.7973L118.778 99.8678C118.785 99.8681 118.793 99.8685 118.8 99.8685Z" fill="#0E1323"/>
<path d="M55.1881 96.1623C53.5385 99.9244 56.9737 99.9247 57.1138 99.9244C57.01 99.987 54.1526 101.688 56.2458 102.959C58.3763 104.252 65.2155 101.924 65.2155 101.924C69.2212 114.402 79.9572 110.872 79.9572 110.872C79.9572 110.872 80.5194 110.854 82.8419 111.013L93.1084 96.9583C92.2552 97.1171 80.226 95.4824 80.226 95.4824C80.226 95.4824 72.4032 83.2802 68.5981 84.3918C64.7955 85.5048 57.073 89.8527 54.7308 92.6433C52.3892 95.434 55.1881 96.1623 55.1881 96.1623Z" fill="#F9ACAC"/>
<path d="M57.2368 100.232C57.2648 100.232 57.2932 100.227 57.3209 100.216L67.8582 96.1722C67.9793 96.1259 68.0395 95.9903 67.9932 95.8692C67.9468 95.7484 67.8115 95.6875 67.6901 95.7342L57.1527 99.778C57.032 99.8244 56.9714 99.96 57.0178 100.081C57.0538 100.174 57.1427 100.232 57.2368 100.232Z" fill="#0E1323"/>
<path d="M55.2355 96.3208C55.276 96.3208 55.3168 96.3104 55.3542 96.2886L66.3482 89.8279C66.46 89.7622 66.497 89.6186 66.4316 89.5068C66.3659 89.3951 66.2223 89.3581 66.1105 89.4235L55.1165 95.8842C55.0047 95.9499 54.9674 96.0935 55.0331 96.2053C55.077 96.2796 55.1552 96.3208 55.2355 96.3208Z" fill="#0E1323"/>
<path d="M126.197 76.5537L99.1735 88.6593L93.304 73.6188L114.458 66.4045L122.04 71.418L126.197 76.5537Z" fill="#2872F7"/>
<path d="M99.887 88.5759C99.9198 88.5759 99.9531 88.569 99.9849 88.5545L113.28 82.4494C113.398 82.3954 113.45 82.256 113.396 82.1384C113.341 82.0207 113.202 81.9692 113.085 82.0231L99.9977 88.0324L94.0033 75.6278C93.9473 75.5112 93.8068 75.4624 93.6902 75.5188C93.5736 75.5752 93.5248 75.7153 93.5812 75.8319L99.6756 88.4434C99.7161 88.5271 99.7998 88.5759 99.887 88.5759Z" fill="#0E1323"/>
<path d="M24.4289 84.0057C24.4289 85.528 24.7741 86.9825 25.3993 88.3093C32.2475 87.9177 37.6631 82.9754 37.6631 76.9375C37.6631 75.4124 37.3178 73.9579 36.6926 72.6311C29.8444 73.0224 24.4289 77.9647 24.4289 84.0057Z" fill="white"/>
<path d="M247.999 24.4322C252.796 24.4322 256.685 29.5518 256.685 35.8644C256.685 29.5518 260.576 24.4322 265.372 24.4322C260.575 24.4322 256.685 19.3126 256.685 13C256.685 19.3126 252.796 24.4322 247.999 24.4322Z" fill="#FFBBD0"/>
</svg>
