<svg width="108" height="135" viewBox="0 0 108 135" fill="none" xmlns="http://www.w3.org/2000/svg">
<mask id="mask0_302_392" style="mask-type:alpha" maskUnits="userSpaceOnUse" x="0" y="46" width="103" height="89">
<rect y="46.9225" width="103" height="87.3811" fill="#D9D9D9"/>
</mask>
<g mask="url(#mask0_302_392)">
<path d="M95.3439 133.867C95.3339 132.96 95.3218 132.053 95.3077 131.145C95.2033 124.458 95.0718 117.749 94.6383 111.073C94.5186 109.231 94.2393 107.392 94.0478 105.55C94.0694 105.405 94.091 105.26 94.1124 105.115C93.4458 103.719 92.3859 102.488 90.9943 101.506C88.7276 100.049 86.2989 101.668 85.3275 103.611C85.2859 103.686 85.2459 103.762 85.2052 103.838C85.2052 104.069 85.2023 104.301 85.1992 104.533C85.3613 105.705 85.4055 106.883 85.4214 108.063C85.4277 108.274 85.4323 108.486 85.4394 108.698C85.4685 108.874 85.5002 109.049 85.5379 109.224C85.563 109.34 85.5321 109.455 85.4696 109.547C85.6929 115.159 86.2751 120.752 87.1939 126.294C87.4677 127.946 87.7736 129.593 88.1117 131.232C88.4228 132.741 88.622 134.449 89.4323 135.79C90.6141 137.748 93.448 138.547 94.8689 136.358C95.3512 135.616 95.3533 134.72 95.3439 133.867Z" fill="#F0DED7"/>
<path d="M95.2202 97.651C94.8754 99.9744 94.5305 102.296 94.1855 104.62C94.1613 104.785 94.137 104.95 94.1127 105.115C94.0868 105.243 94.0576 105.371 94.0285 105.496C93.2643 108.698 91.2647 111.195 89.9257 110.249C87.6591 108.792 87.2704 108.952 85.3276 103.611C85.2855 103.685 85.2466 103.761 85.2046 103.838C85.2062 103.054 85.1852 102.269 85.1204 101.488C85.1139 101.411 85.0896 101.338 85.0508 101.275C85.0508 100.339 85.0848 99.403 85.1495 98.4688C85.3163 96.0208 85.6644 93.5889 86.0287 91.1635C86.7167 86.5962 87.4712 82.1308 87.1572 77.4322C87.1361 77.1067 87.1992 76.7943 87.3224 76.5094C86.6796 75.7371 86.4658 74.7073 87.0342 73.7327C87.0892 73.6404 87.0973 73.4623 87.2026 73.4623C87.5134 73.4623 89.9501 74.2751 90.2464 74.4175C91.281 74.9161 92.2055 75.6431 92.9244 76.5385C93.0506 76.6956 93.1688 76.8558 93.2806 77.0194C94.218 78.3875 94.7313 80.0228 95.0599 81.6548C95.6865 84.7537 95.5424 95.4865 95.2202 97.6512V97.651Z" fill="#F0DED7"/>
<path d="M90.8777 86.5537C90.7836 86.1347 90.8315 85.7024 90.8023 85.2769C90.7841 85.0096 90.7373 84.7454 90.6989 84.4804C90.5525 84.4613 90.4027 84.4909 90.2769 84.5899C89.947 84.5816 89.6092 84.7886 89.6064 85.214C89.6053 85.3796 89.6027 85.5451 89.6009 85.7107C88.2803 88.0998 86.9516 90.4887 85.7265 92.9275C84.4726 95.4236 83.6648 97.953 83.7746 100.775C83.8867 103.656 84.6584 106.469 85.1707 109.293C85.7017 112.22 86.1489 115.169 87.1879 117.971C87.4203 118.597 88.5575 118.577 88.46 117.798C87.7735 112.314 89.181 107.635 89.9679 102.226C90.6873 97.2813 90.7874 91.5482 90.8775 86.5536L90.8777 86.5537Z" fill="black"/>
<path d="M96.6667 159.598C93.0092 163.024 88.3318 166.497 83.06 164.326C80.6524 163.322 78.9896 161.388 77.3042 159.482C77.0904 158.684 76.88 157.884 76.6663 157.086C76.5238 156.553 76.3797 156.019 76.2356 155.486C75.3095 152.049 74.3736 148.613 73.4249 145.182C73.3714 144.983 73.3164 144.784 73.2613 144.585C72.7254 142.647 72.1863 140.71 71.6455 138.776C71.1532 137.022 70.6611 135.269 70.164 133.517C68.1531 126.415 65.3003 119.191 66.1341 111.666C65.6517 109.576 66.7396 107.574 68.7684 106.802C68.932 106.739 69.0987 106.692 69.2688 106.656C69.6444 106.527 70.0427 106.439 70.462 106.371C70.4685 106.37 70.4734 106.37 70.4799 106.368C70.5074 106.36 70.5382 106.352 70.5706 106.342C70.8669 106.261 71.1486 106.15 71.4368 106.049C71.4466 106.043 71.4547 106.036 71.4644 106.03C71.6829 105.884 71.9097 105.73 72.1347 105.594C72.1606 105.575 72.1832 105.557 72.2042 105.541C72.2544 105.492 72.3062 105.447 72.3531 105.397C73.8944 103.857 76.3312 103.724 77.9049 104.95C78.3339 104.476 78.8958 104.089 79.5936 103.823C80.9277 103.315 82.223 100.8 83.311 101.822C83.8954 102.006 84.1561 101.166 84.5706 101.54C85.4157 102.303 86.4196 107.374 86.6397 108.454C90.2972 126.383 93.1986 142.474 96.6667 159.598Z" fill="#C7BAD9"/>
<path d="M83.5146 111.006C83.3354 110.476 83.0037 109.932 82.5829 109.486C82.1334 108.063 80.8339 106.823 79.4225 106.615C78.6839 106.506 78.004 106.569 77.3984 106.774C76.6231 104.936 74.4327 103.861 72.3357 104.452C72.2696 104.472 72.2022 104.486 72.1355 104.505C72.1089 104.508 72.0803 104.513 72.0478 104.518C71.7845 104.526 71.5128 104.549 71.2504 104.57C71.2383 104.571 71.2285 104.572 71.2174 104.573C70.9158 104.52 70.6161 104.48 70.318 104.407C70.2845 104.398 70.2542 104.391 70.2263 104.384C70.2205 104.382 70.2158 104.38 70.2096 104.378C69.8094 104.233 69.4194 104.115 69.0282 104.045C68.8633 103.993 68.6944 103.953 68.5216 103.927C66.3729 103.611 64.4469 104.825 63.847 106.885C59.4437 113.045 52.8536 143.762 50.8535 151.663C50.7776 151.962 50.7 152.261 50.624 152.561C51.9361 157.63 54.6854 162.355 59.7445 164.002C62.2226 164.828 64.759 164.513 67.1178 163.504C72.4421 146.913 77.757 131.488 83.3087 114.097C83.6439 113.047 83.8792 112.084 83.5145 111.006L83.5146 111.006Z" fill="#C7BAD9"/>
<path d="M38.4221 210.726L38.1084 210.645C45.7508 180.857 51.0194 160.161 54.8665 145.049C60.9971 120.967 64.6054 107.913 65.6913 105.886C65.9892 105.331 66.3266 104.701 66.7861 103.733L67.0787 103.872C66.6159 104.847 66.2764 105.481 65.9768 106.04C64.9032 108.042 61.3044 121.072 55.1802 145.129C51.3333 160.241 46.0647 180.937 38.4221 210.726Z" fill="black"/>
<path d="M42.0725 209.772L41.7588 209.692C42.0251 208.653 68.3932 105.831 68.526 105.229L68.8425 105.297C68.7351 105.801 43.1611 205.527 42.0725 209.772Z" fill="black"/>
<path d="M44.6796 210.878L44.3672 210.792C44.651 209.758 72.7408 107.392 72.8837 106.794L73.1992 106.867C73.0832 107.369 45.8393 206.652 44.6796 210.878Z" fill="black"/>
<path d="M48.8144 210.021L48.502 209.936C48.7858 208.902 76.8756 106.536 77.0185 105.937L77.3338 106.01C77.218 106.513 49.974 205.795 48.8144 210.021Z" fill="black"/>
<path d="M51.582 210.55L51.2715 210.458C51.556 209.494 79.7336 113.944 81.1666 106.022L81.4853 106.08C80.049 114.019 51.8666 209.585 51.582 210.55Z" fill="black"/>
<path d="M105.475 202.449C100.556 192.931 84.3681 106.175 84.2051 105.3L84.5235 105.241C84.6864 106.116 100.865 192.824 105.763 202.3L105.475 202.449Z" fill="black"/>
<path d="M104.259 205.776C96.6618 184.857 90.9903 158.887 87.5704 140.785C83.8654 121.173 81.9313 106.315 81.9121 106.167L82.2334 106.126C82.2524 106.274 84.1855 121.124 87.889 140.727C91.3066 158.817 96.9739 184.767 104.564 205.665L104.259 205.776L104.259 205.776Z" fill="black"/>
<path d="M102.251 208.562C98.4325 203.415 93.5999 187.808 87.8874 162.174C83.6353 143.093 80.4631 125.293 80.4316 125.116L80.7504 125.059C80.8765 125.769 93.4638 196.175 102.511 208.369L102.251 208.562Z" fill="black"/>
<path d="M100.745 212.949C96.7899 208.229 91.6569 193.315 85.4888 168.621C80.8976 150.24 77.4223 133.022 77.3877 132.85L77.7052 132.786C77.8434 133.473 91.6296 201.568 100.993 212.74L100.745 212.948L100.745 212.949Z" fill="black"/>
<path d="M91.0749 83.2106C90.8563 87.3862 89.4315 90.5644 88.3451 94.583C87.8465 96.4238 85.8436 103.894 85.0503 105.091C84.4803 106.124 83.1949 105.674 82.0728 106.146C79.3787 107.283 76.1357 107.336 73.2536 107.256C71.96 107.218 70.6696 107.129 69.3808 107.034C68.2929 106.953 67.3311 106.781 66.4827 106.273C65.6035 106.308 64.7017 105.886 64.2484 105.086C63.7239 104.162 63.604 103.237 63.6656 102.272C63.209 100.949 62.9855 99.5341 62.8431 98.1061C62.7185 96.8756 62.6488 95.7941 62.3979 94.6122C62.1275 93.3348 61.7859 92.0768 61.5965 90.7831C61.2111 88.123 61.2241 85.4612 61.2337 82.7817C61.2386 81.4783 62.4351 76.3831 62.8172 76.0998C64.6484 74.7333 66.6123 73.6534 68.8661 73.1838C70.0075 72.9442 71.1668 72.8082 72.3212 72.6479C73.4901 72.4844 74.6461 72.2496 75.8232 72.1524C77.5217 72.0099 79.2282 72.031 80.9233 72.1945C81.0334 72.2058 81.1418 72.2171 81.252 72.2285C84.1112 72.5377 86.9316 73.2518 89.6144 74.2686C89.7568 74.3236 89.9074 74.3835 90.0094 74.4952C90.0208 74.5082 90.0322 74.5211 90.0418 74.5341C90.1293 74.6523 90.1536 74.8028 90.1746 74.9486C90.5292 77.3983 91.2044 80.7352 91.0749 83.2107V83.2106Z" fill="#F0DED7"/>
<path d="M70.6081 98.8136C69.9184 98.88 69.248 98.9447 68.628 99.0046C66.9539 99.1682 65.4271 99.3155 64.3682 99.4013C64.3812 99.2912 64.3973 99.1827 64.4167 99.0726C64.8458 99.037 65.3477 98.9916 65.9046 98.9398C65.903 98.9285 65.9046 98.9172 65.9079 98.9074C65.9175 98.8654 66.9538 94.7836 67.9673 90.1984C68.0466 89.8358 68.1341 89.4973 68.2263 89.18C68.1827 89.6819 68.1421 90.1886 68.1389 90.6954V90.9156C68.1389 92.7047 68.3056 94.5019 68.9791 96.1743C69.3223 97.0276 69.7757 97.8209 70.3472 98.5138C70.4314 98.6158 70.5173 98.7163 70.608 98.8134L70.6081 98.8136Z" fill="black"/>
<path d="M87.3523 94.9742C87.313 94.9742 87.2735 94.96 87.2424 94.9311C87.1768 94.8704 87.1728 94.7679 87.2334 94.7022C89.8516 91.8716 90.7836 86.2439 90.9218 84.3144C90.9281 84.2251 91.0061 84.159 91.0947 84.1644C91.1839 84.1708 91.2511 84.2483 91.2446 84.3374C91.1042 86.2986 90.1528 92.023 87.4713 94.9223C87.4394 94.9567 87.3958 94.9742 87.3523 94.9742Z" fill="black"/>
<path d="M85.891 63.547C85.6061 63.2652 85.1592 62.8589 84.5019 62.8363C84.4339 62.8314 84.3642 62.833 84.293 62.8395C84.2363 62.8444 84.1797 62.8509 84.123 62.8589C83.0511 63.0176 82.0927 63.8093 81.3754 64.6367C81.1909 64.8504 81.0257 65.0803 80.8962 65.328C80.7926 65.5304 80.7116 65.7441 80.6631 65.9692C80.6486 66.0372 80.6372 66.1084 80.6291 66.1797C80.6274 66.1894 80.6275 66.1991 80.6275 66.2088C80.574 66.7317 80.7294 67.2806 81.0889 67.6724C81.4596 68.0788 81.9632 68.2197 82.4911 68.2116C83.1355 68.2051 83.8186 67.9801 84.3482 67.7501C85.3796 67.3033 86.5614 66.5035 86.61 65.2714C86.6359 64.6237 86.3476 63.9972 85.891 63.547Z" fill="#332023"/>
<path d="M82.4767 65.4623C82.6386 65.1709 82.8329 64.8972 83.0563 64.6511C83.1129 64.5896 83.1081 64.5151 83.074 64.4584C82.5722 65.0331 81.9212 65.5691 81.1068 65.8395C81.1052 65.8362 81.1035 65.833 81.1003 65.8297C81.0016 65.718 80.9109 65.5885 80.8413 65.4443C80.783 65.569 80.7344 65.6985 80.6971 65.833C80.6842 65.8783 80.6729 65.9237 80.6631 65.969C80.6486 66.037 80.6372 66.1082 80.6291 66.1794C80.6275 66.1892 80.6274 66.1988 80.6274 66.2086C80.574 66.7315 80.7294 67.2804 81.0889 67.6722C81.4597 68.0786 81.9632 68.2195 82.4911 68.2114C82.3599 68.0317 82.2433 67.8406 82.1479 67.643C81.9843 67.3031 81.9843 66.9242 82.0604 66.5599C82.1414 66.1762 82.2838 65.8054 82.4764 65.4622L82.4767 65.4623Z" fill="black"/>
<path d="M80.9166 73.6209C80.915 73.8297 80.9036 74.0305 80.8875 74.2247C80.0212 75.2448 78.7406 75.9377 77.5344 76.1078C76.6358 76.234 75.8279 76.1029 75.062 75.8292C74.7171 75.6123 74.4937 75.3143 74.5634 74.9032C74.599 74.6976 74.5585 74.5324 74.4727 74.4109C74.484 73.6662 74.6087 72.8971 74.6815 72.2268C74.7706 71.3962 74.8644 70.6062 74.955 69.8176V69.8111C74.9972 69.4485 75.0392 69.0858 75.0798 68.7199C75.1429 68.1468 75.2028 67.5655 75.2579 66.9649C75.3114 66.3869 75.4295 65.7829 75.6707 65.2552C75.8278 64.9119 76.0366 64.5978 76.3102 64.3436C76.9141 63.7867 77.7496 63.6021 78.517 63.6749C80.3806 63.8497 80.9278 63.1908 80.9019 65.1775C80.8858 66.4209 80.8987 67.9752 80.91 69.5215C80.9213 70.9851 80.9311 72.4439 80.9165 73.621L80.9166 73.6209Z" fill="#F9ACAC"/>
<path d="M80.5224 64.3484C80.482 64.4343 80.4463 64.5185 80.4139 64.5994C80.1759 65.1937 80.1031 65.7084 79.1737 66.7641C78.6766 67.3276 75.8221 68.5921 75.0774 68.7232C73.706 68.9661 72.3622 68.7216 72.7475 66.6362C72.7702 66.518 72.7865 66.3983 72.7912 66.2784C72.8285 65.3685 72.9077 65.4397 72.9872 65.4284C73.1864 65.3992 73.3677 65.4947 74.0606 65.0901C74.3973 64.8941 75.0855 64.1559 74.0056 63.6199C73.6817 63.4597 73.4615 63.6069 73.1475 63.5568C73.0535 63.5421 72.8948 63.539 72.9046 63.3317C72.9175 63.0224 73.1862 62.4897 73.0535 62.3991C72.9725 62.344 72.7151 62.2712 72.5225 62.2307C72.427 62.2097 72.1582 62.1448 72.2504 61.9182C72.6601 60.9144 73.3255 59.9705 73.489 58.9246C73.6283 58.026 74.276 57.1598 74.9446 56.504C74.964 56.4846 74.9835 56.4651 75.0029 56.4473C75.0143 56.436 75.0256 56.4263 75.037 56.4166C75.4466 56.0344 75.9308 55.7446 76.4585 55.5601C76.4634 55.5568 76.4699 55.5552 76.4747 55.5536C76.4827 55.5503 76.4908 55.5471 76.4989 55.5454C76.5346 55.5324 76.5702 55.5212 76.6042 55.5098C76.6366 55.4984 76.6674 55.4888 76.6982 55.479C76.7337 55.4676 76.7677 55.4564 76.8034 55.445C76.8454 55.4321 76.886 55.4191 76.9264 55.4078C76.9831 55.39 77.0414 55.3738 77.0963 55.3576C77.1498 55.3415 77.2 55.3268 77.2501 55.314C77.3197 55.2962 77.3861 55.2783 77.4492 55.2621C78.1664 55.3917 78.8885 55.9761 79.7937 56.857C81.2493 58.2721 80.8396 60.0595 80.5741 61.8518C80.4996 62.3488 80.4381 62.8476 80.4299 63.3381C80.4267 63.5583 80.4526 63.6829 80.4899 63.7557C80.6081 63.9872 80.8282 63.7104 80.5223 64.3483L80.5224 64.3484Z" fill="#F9ACAC"/>
<path d="M84.2864 61.7175C84.0775 62.9237 84.2605 63.0014 83.3861 63.8206C83.0235 64.1622 81.9678 65.2195 81.5663 65.5142C81.4109 65.6259 81.1064 65.9141 80.8943 65.8996C80.585 65.8802 80.4167 64.9476 80.4135 64.5995C80.4119 64.5736 80.4135 64.5493 80.4151 64.5299C80.4395 64.2709 80.4669 64.0134 80.4896 63.756C80.4992 63.6475 80.5073 63.539 80.5155 63.4305C80.5527 62.9044 80.5753 62.3781 80.5738 61.852C80.5738 61.6317 80.5689 61.4131 80.5592 61.1947C80.5511 60.9955 80.5479 60.7931 80.5236 60.5956C80.5171 60.5535 80.4896 60.4871 80.4718 60.432C80.4345 60.4612 80.3762 60.4952 80.3569 60.513C80.2564 60.6069 80.161 60.7073 80.0751 60.8141C79.897 61.044 79.7627 61.3048 79.6671 61.5783C79.5586 61.8956 79.434 62.2178 79.1377 62.404C78.8575 62.5804 78.4771 62.5983 78.2132 62.383C77.9363 62.1548 77.9072 61.8001 77.9251 61.4649C77.9883 60.262 78.7573 58.4275 77.8652 57.3865C77.1997 56.6109 75.9385 56.462 74.9443 56.5041C74.9637 56.4847 74.9832 56.4652 75.0026 56.4474C75.014 56.436 75.0253 56.4264 75.0367 56.4166C75.4463 56.0345 75.9304 55.7447 76.4582 55.5601C76.4631 55.5569 76.4696 55.5552 76.4744 55.5536C76.4824 55.5504 76.4905 55.5471 76.4986 55.5455C76.5343 55.5325 76.5699 55.5212 76.6039 55.5098C76.6363 55.4984 76.6671 55.4888 76.6978 55.479C76.7334 55.4677 76.7674 55.4564 76.8031 55.445C76.8451 55.4321 76.8857 55.4191 76.9261 55.4078C76.9828 55.3901 77.0411 55.3738 77.096 55.3577C77.1494 55.3415 77.1997 55.3269 77.2498 55.314C77.3194 55.2962 77.3858 55.2783 77.4489 55.2622C77.4958 55.2493 77.5396 55.2379 77.5816 55.2282C79.4873 54.7699 81.1517 54.4057 82.5846 55.6621C83.3795 56.3583 83.6968 57.0934 84.0708 58.2186C84.3753 59.135 84.4513 60.767 84.2862 61.7173L84.2864 61.7175Z" fill="#332023"/>
<path d="M81.1179 73.6042C81.1163 73.813 81.0878 74.0485 81.0716 74.2428C80.2054 75.2629 78.9038 76.1777 77.6975 76.3476C76.799 76.4739 75.8739 76.3604 75.108 76.0867C74.7632 75.8698 74.085 75.7694 74.1546 75.3581C74.1902 75.1525 73.3768 74.3013 73.291 74.1798C73.3024 73.435 74.6079 72.8971 74.6807 72.2268C74.7698 71.3946 74.8636 70.6013 74.9542 69.8112C76.8001 69.9002 78.7364 69.8338 80.4364 69.5667C80.5983 69.5408 80.7554 69.5262 80.9091 69.5214C80.9162 70.4372 80.9227 71.3512 80.9229 72.1954C80.9231 72.7003 81.1231 73.1636 81.1175 73.6042H81.1179Z" fill="#F0DED7"/>
<path d="M80.4376 60.4568C80.7992 60.1068 81.4254 59.9306 81.9021 60.1028C82.0471 60.1105 82.1969 60.1411 82.3496 60.1995C83.1004 60.4868 83.3888 61.3561 83.2908 62.0996C83.117 63.4193 81.2085 65.7045 79.8675 64.1839C79.4124 63.6679 79.3695 62.8415 79.6111 62.1121C79.7054 61.4999 79.9893 60.8905 80.4376 60.4567V60.4568Z" fill="#F9ACAC"/>
<path d="M89.282 92.2074C86.4797 92.2614 83.6805 92.1638 80.8888 91.9147C80.7351 91.9011 80.6048 91.9256 80.4969 91.9765C80.1282 92.1016 79.8111 92.4552 79.8861 92.943C79.8914 92.9773 79.8966 93.0115 79.9019 93.0457C79.8662 93.2771 79.8825 93.5178 79.9129 93.7635C79.9131 93.7733 80 96.1893 80.0585 97.1561C80.1907 99.3411 80.381 101.53 80.6781 103.699C80.7734 104.394 81.0244 104.933 81.6959 105.191C81.7008 105.211 81.7097 105.232 81.716 105.252C81.799 105.275 85.3628 105.864 87.7679 105.302C87.9622 105.257 88.3312 105.248 88.6528 104.658C89.3532 100.808 89.8357 96.9219 90.0916 93.0168C90.1198 92.5857 89.6978 92.1992 89.282 92.2072V92.2074Z" fill="#A4C0F5"/>
<path d="M90.7464 93.0935C90.7366 93.2311 90.6654 93.3331 90.5585 93.3898C90.5051 93.4173 90.4436 93.4335 90.3755 93.4367C89.676 93.474 88.9733 93.503 88.2724 93.5258C85.3386 93.6198 82.4032 93.5792 79.4711 93.4416C79.3448 93.4351 79.2055 93.3979 79.1326 93.2927C79.0468 93.1681 79.0825 92.9996 79.1245 92.8539C79.2654 92.3746 79.4467 91.9067 79.6216 91.4388C79.6508 91.3595 79.6799 91.2802 79.7091 91.2008C79.7188 91.1733 79.7285 91.1474 79.7415 91.1215C79.999 90.5046 80.5187 90.3233 81.1792 90.2472C81.8446 90.1712 82.5149 90.2456 83.1836 90.2311C84.4659 90.2068 85.7466 90.3412 87.0289 90.3007C87.5534 90.2845 88.0781 90.2489 88.6026 90.2877C89.3198 90.3411 89.9075 90.5581 90.1893 91.1976C90.2168 91.2575 90.2395 91.3206 90.2605 91.387C90.2735 91.4307 90.288 91.4728 90.3009 91.5165C90.4288 91.9229 90.5552 92.3309 90.6831 92.7373C90.7186 92.8523 90.756 92.972 90.7464 93.0935Z" fill="#261F29"/>
<path d="M90.3015 91.5166C88.3699 91.6185 86.6602 91.6542 85.229 91.6542C84.2138 91.6542 83.3396 91.6364 82.6287 91.6138C81.5164 91.5765 80.6907 91.5247 80.1937 91.4859C79.941 91.4665 79.7566 91.4519 79.6221 91.439C79.6512 91.3596 79.6804 91.2803 79.7095 91.201C79.7193 91.1734 79.729 91.1475 79.742 91.1216C80.8672 91.2236 84.596 91.494 90.1899 91.1977C90.2174 91.2577 90.2401 91.3207 90.2611 91.3872C90.2741 91.4308 90.2886 91.473 90.3015 91.5167V91.5166Z" fill="black"/>
<path d="M64.8642 74.8754C64.8205 74.8656 64.7768 74.8618 64.7332 74.8643C64.525 74.8765 64.3381 74.9904 64.1636 75.1047C61.4035 76.9127 59.303 79.6882 58.2651 82.8163C57.015 86.5833 56.0429 90.5141 55.1196 94.3814C54.3146 97.7532 52.9753 101.481 52.9416 104.745C52.911 107.7 57.0997 110.732 60.3048 110.184C61.3498 110.006 62.2196 109.585 62.9454 109.001C63.1381 108.467 63.3823 107.948 63.6012 107.425C63.658 107.29 63.7582 107.182 63.8878 107.143C64.0222 106.471 64.1981 105.803 64.4077 105.143C64.6114 103.915 64.8662 102.696 65.1501 101.485C65.9772 97.9548 67.0325 94.4803 67.7579 90.9263C68.143 89.0391 68.4284 87.1178 68.5227 85.1913C68.3195 83.1035 67.8719 81.0271 67.1043 78.9777C66.8187 78.2155 65.8349 75.0915 64.8643 74.8755L64.8642 74.8754Z" fill="#F0DED7"/>
<path d="M80.9024 107.092C80.6985 105.374 80.5187 104.228 80.3163 102.51C80.1966 101.506 79.8791 99.0143 79.0437 98.1222C79.0049 98.0785 78.9627 98.038 78.919 98.0025C78.7782 97.8859 78.6179 97.813 78.4463 97.771C78.0059 97.6658 77.4927 97.7661 77.0329 97.8697C74.2464 98.5011 71.4115 98.697 68.5813 99.0176C65.4468 99.3755 62.3122 99.7187 59.1793 100.088C56.9013 100.357 54.5876 99.9761 53.4009 102.275C52.3582 104.301 53.2406 106.809 54.5455 109.312C54.837 109.872 55.2417 110.367 55.7436 110.749C58.6514 112.961 61.2161 112.496 65.0371 112.197C67.5386 112.001 72.8071 111.46 75.273 111.023C76.4986 110.806 77.7162 110.529 78.9062 110.17C79.0534 110.124 79.1943 110.071 79.3271 110.009C80.475 109.477 81.0498 108.335 80.9024 107.092Z" fill="#F0DED7"/>
<path d="M79.316 108.873C78.4054 106.155 77.696 100.107 77.7122 98.8901C77.7147 98.6981 77.7627 98.5075 77.8695 98.348C78.0342 98.102 78.2384 98.0495 78.4817 98.0585C78.8682 98.0729 79.2156 98.2948 79.3943 98.638C79.9721 99.7477 80.2147 101.661 80.316 102.51C80.5184 104.228 80.6982 105.374 80.9021 107.092C80.9861 107.8 80.8357 108.476 80.4784 109.024C79.9922 109.771 79.599 109.718 79.316 108.873Z" fill="black"/>
<path d="M80.7723 100.02C80.7593 100.005 79.4641 98.5206 79.095 98.0607C78.8797 97.792 77.0209 97.8794 70.3488 98.5141C69.7983 98.5659 69.2154 98.6225 68.5969 98.6825C67.7631 98.7634 66.9649 98.8411 66.2444 98.9092C66.1294 98.919 66.0162 98.9302 65.906 98.94C65.3491 98.9918 64.8472 99.0371 64.4182 99.0727C63.8143 99.1229 63.3577 99.1537 63.1034 99.1569C61.5314 99.1812 60.3866 98.1952 59.8961 97.7759C59.7892 97.6852 59.718 97.6238 59.663 97.5897C59.5869 97.5412 59.4882 97.5638 59.4395 97.6399C59.3926 97.716 59.4152 97.8148 59.4897 97.8634C59.5253 97.886 59.5998 97.9492 59.6856 98.022C60.2038 98.4656 61.418 99.5019 63.1083 99.4808C63.3593 99.4775 63.7964 99.4484 64.3696 99.4014C65.4285 99.3156 66.9552 99.1683 68.6294 99.0048C69.2495 98.9449 69.9198 98.8802 70.6095 98.8137C74.2281 98.4689 78.4085 98.0997 78.8571 98.2811C79.2456 98.7635 80.4746 100.172 80.5279 100.232C80.5603 100.269 80.604 100.289 80.6494 100.289C80.6883 100.289 80.7255 100.276 80.7563 100.248C80.8242 100.19 80.8307 100.088 80.7724 100.02L80.7723 100.02Z" fill="black"/>
<path d="M71.3626 84.9155C71.3302 84.9284 69.2708 85.7979 68.2831 90.2682C68.2346 90.4851 68.1876 90.7021 68.1391 90.9158C67.2502 94.8906 66.3824 98.3506 66.2432 98.9091C66.2303 98.9577 66.2221 98.9836 66.2221 98.9869C66.2027 99.0597 66.1379 99.1083 66.0651 99.1083C66.0522 99.1083 66.0392 99.1067 66.0247 99.1035C65.9502 99.0841 65.9001 99.0144 65.9049 98.9399C65.9033 98.9285 65.9049 98.9173 65.9082 98.9075C65.9178 98.8655 66.9541 94.7837 67.9676 90.1985C68.047 89.8359 68.1344 89.4974 68.2267 89.1801C69.3212 85.3946 71.1604 84.6451 71.2462 84.6143C71.3288 84.5819 71.4228 84.6241 71.4551 84.7067C71.4875 84.7909 71.4452 84.8831 71.3626 84.9155Z" fill="black"/>
<path d="M87.297 105.892C86.7984 106.318 86.1604 106.386 85.5436 106.501C84.9056 106.619 84.2937 106.804 83.7173 107.106C82.762 107.607 81.7533 108.661 80.5957 107.984C79.7926 107.514 79.6987 106.685 79.9253 105.916C79.927 105.913 79.927 105.908 79.9286 105.905C79.8152 105.863 79.7051 105.809 79.5999 105.748C79.1967 105.512 78.8762 105.141 78.7418 104.673C78.5911 104.15 78.6721 103.632 78.9133 103.196C78.9117 103.196 78.9117 103.195 78.9101 103.195C78.8097 103.14 78.7142 103.076 78.6268 103.004C78.2868 102.72 78.0505 102.309 77.9922 101.797C77.9339 101.287 78.222 100.936 78.418 100.481H78.4163C78.3759 100.457 78.2188 100.345 78.1216 100.271C78.086 100.245 78.0585 100.224 78.0472 100.212C75.5587 97.7254 83.0987 96.1274 84.334 96.2553C85.2018 96.346 86.4194 96.6276 86.5036 97.6881C86.536 98.1123 86.3984 98.4167 86.1668 98.6272C86.0664 98.7211 85.9467 98.7956 85.8154 98.8539C85.8673 98.8636 85.919 98.8733 85.9692 98.8863C85.9703 98.8852 85.9714 98.8852 85.9725 98.8863C86.489 99.0045 86.9407 99.257 87.1463 99.7897C87.2742 100.115 87.2645 100.429 87.1528 100.695C87.1075 100.811 87.0427 100.918 86.9601 101.012C86.9552 101.019 86.9504 101.023 86.9455 101.03C87.1284 101.137 87.2823 101.269 87.3939 101.438C87.7469 101.962 87.606 102.427 87.2951 102.821C87.206 102.932 87.104 103.039 86.9939 103.139C87.0117 103.148 87.0279 103.154 87.0457 103.164H87.0473C87.1089 103.19 87.1687 103.219 87.227 103.25C88.2487 103.829 88.1014 105.204 87.2966 105.892L87.297 105.892Z" fill="#F9ACAC"/>
<path d="M81.8215 74.1988C81.8344 74.2863 81.7746 74.3705 81.6855 74.3834C81.6774 74.385 81.6693 74.385 81.6612 74.385C81.5949 74.385 81.5366 74.3446 81.5106 74.2863C81.4102 74.0596 80.9908 73.0849 80.9229 72.1944C81.033 72.2058 81.1415 72.217 81.2516 72.2284C81.3309 73.0768 81.7502 74.024 81.8053 74.1502C81.8118 74.1633 81.8183 74.1843 81.8214 74.1988H81.8215Z" fill="black"/>
<path d="M84.5038 62.8361C84.1946 63.5113 83.5276 64.6641 82.4784 65.4623C82.1011 65.7505 81.6737 65.9933 81.1961 66.152C81.0715 66.194 80.9338 66.1487 80.8512 66.0468C80.8205 66.0095 80.7913 65.9723 80.7638 65.935C80.7654 65.935 80.767 65.9334 80.7703 65.9334C80.7444 65.901 80.7201 65.867 80.699 65.833C80.5954 65.6841 80.516 65.5254 80.4561 65.3571C79.972 66.4758 78.489 69.055 74.9561 69.8176V69.8111C74.9982 69.4484 75.0403 69.0857 75.0808 68.7198C79.5786 67.9184 80.3088 64.8956 80.3282 64.8049C80.3395 64.7255 80.4092 64.6624 80.4934 64.6656C80.5743 64.6689 80.6375 64.7319 80.6472 64.8096C80.6569 64.8323 80.6649 64.855 80.6666 64.8792C80.6682 64.8874 80.6682 64.8921 80.6698 64.8937C80.6714 64.9035 80.6714 64.9131 80.6731 64.9245C80.6779 64.9472 80.6812 64.9698 80.6861 64.9941C80.6958 65.0394 80.7071 65.0864 80.7201 65.1317C80.7444 65.2159 80.7784 65.3131 80.8076 65.3746C80.8188 65.3989 80.8286 65.4215 80.8431 65.4442C80.9127 65.5883 81.0034 65.7178 81.1021 65.8296C81.1054 65.8328 81.107 65.8361 81.1086 65.8393C81.9231 65.5689 82.5739 65.033 83.0759 64.4583C83.5664 63.8949 83.9113 63.291 84.125 62.8587C84.1817 62.8505 84.2384 62.844 84.2951 62.8393C84.3664 62.8328 84.436 62.8311 84.5039 62.836L84.5038 62.8361Z" fill="black"/>
<path d="M73.4253 145.182C74.8468 140.217 77.4907 131.404 79.4644 127.356C79.8934 126.475 80.3533 125.653 80.8001 124.911C82.144 122.687 83.3841 121.205 83.4003 121.184C83.457 121.116 83.4489 121.014 83.3809 120.956C83.313 120.899 83.2093 120.907 83.1527 120.975C83.1398 120.99 82.4451 121.821 81.5336 123.166C80.8066 124.238 79.9403 125.638 79.1729 127.214C77.256 131.146 74.7141 139.535 73.2617 144.585L73.4253 145.182Z" fill="black"/>
<path d="M85.816 98.854C85.8678 98.8638 85.9196 98.8734 85.9698 98.8864C82.8044 98.6549 79.4611 99.9842 78.4184 100.481H78.4167C78.3763 100.457 78.2192 100.345 78.1221 100.271C79.134 99.7121 82.8044 98.31 86.0555 98.5659C86.1024 98.5707 86.1413 98.5934 86.1672 98.6274C86.0669 98.7214 85.9471 98.7958 85.8159 98.8541L85.816 98.854Z" fill="black"/>
<path d="M87.1549 100.695C87.1096 100.812 87.0448 100.918 86.9622 101.012C83.1492 100.888 79.5403 102.834 78.9122 103.195C78.8118 103.14 78.7163 103.077 78.6289 103.004C78.9608 102.737 80.2982 102.112 81.2971 101.739C82.7446 101.202 84.9303 100.585 87.1549 100.695Z" fill="black"/>
<path d="M86.9949 103.14C87.0127 103.148 87.029 103.154 87.0467 103.164C83.6661 103.451 80.8311 105.27 79.926 105.916C79.9277 105.913 79.9277 105.908 79.9293 105.905C79.8159 105.863 79.7058 105.81 79.6006 105.748C80.0474 105.4 80.9914 104.82 81.8301 104.399C83.1285 103.744 85.1135 102.954 87.2961 102.821C87.207 102.933 87.105 103.039 86.9949 103.14Z" fill="black"/>
<path d="M80.5914 125.087C80.7432 124.663 80.916 124.248 81.0922 123.834C80.4707 124.795 79.7905 125.946 79.1729 127.214C77.256 131.146 74.7141 139.535 73.2617 144.585L73.4253 145.182C74.374 148.613 75.3098 152.049 76.236 155.486C75.6846 152.147 76.9711 143.306 77.8194 137.584C78.2322 134.802 78.7408 132.029 79.3868 129.293C79.557 128.568 80.349 125.764 80.5914 125.087V125.087Z" fill="black"/>
<path d="M80.7003 63.4943C80.6456 63.4235 80.6559 63.3188 80.7265 63.2641C80.7973 63.2094 80.8961 63.2195 80.9506 63.2903C81.0056 63.3257 81.2905 63.2927 81.5141 63.1079C81.6659 62.9824 81.8179 62.7622 81.68 62.4261C81.5244 62.0471 81.2324 61.9107 80.8124 62.0208C80.715 62.0465 80.6143 62.0145 80.5493 61.9376C80.4847 61.8611 80.4702 61.757 80.5115 61.666C80.717 61.2113 80.9965 60.9302 81.3423 60.8309C81.6749 60.7354 82.0596 60.8169 82.4258 61.0604C82.4258 61.0604 82.5711 61.172 82.513 61.278C82.3971 61.4895 82.2465 61.3299 82.2465 61.3299C82.0809 61.22 81.7552 61.0493 81.4316 61.1421C81.2104 61.2056 81.0204 61.3859 80.8656 61.6784C81.3777 61.5931 81.7794 61.8157 81.9796 62.3031C82.2055 62.8537 81.9099 63.2669 81.5579 63.4701C81.3343 63.5992 81.0488 63.6683 80.8532 63.6006C80.7919 63.5794 80.7394 63.5447 80.7004 63.4942L80.7003 63.4943Z" fill="black"/>
<path d="M75.8068 59.7066C76.0049 59.7032 76.139 59.5058 76.0621 59.323C75.8931 58.9216 75.4143 58.1762 74.699 58.2203C74.2919 58.2455 74.1709 58.4884 74.0529 58.6255C73.8861 58.8191 73.9529 59.1185 74.1806 59.2344C74.536 59.4154 75.2187 59.7167 75.8068 59.7066Z" fill="black"/>
<path d="M74.2731 59.8651C74.2922 59.8399 74.3166 59.8207 74.3462 59.8077C74.3998 59.7817 74.4755 59.7743 74.5317 59.7966C74.5901 59.8198 74.645 59.8607 74.6708 59.92L74.6906 59.9788C74.6959 60.0058 74.695 60.0324 74.6915 60.0588C74.6687 60.1724 74.656 60.2877 74.6538 60.4034C74.6528 60.4372 74.6436 60.4682 74.6262 60.4963C74.6143 60.5264 74.5953 60.5517 74.5694 60.5723C74.5251 60.6102 74.4548 60.6368 74.3958 60.6303C74.3324 60.6233 74.2675 60.5976 74.227 60.5459C74.1869 60.4948 74.1677 60.4378 74.169 60.3722C74.1717 60.228 74.1934 60.0876 74.223 59.9466C74.2327 59.9147 74.2495 59.8875 74.2734 59.865L74.2731 59.8651Z" fill="black"/>
<path d="M94.1857 104.62C94.1615 104.785 94.1372 104.95 94.1129 105.115C94.087 105.243 94.0579 105.371 94.0287 105.496C93.7243 104.194 93.6304 102.845 93.7567 101.509C93.7761 101.304 94.0999 101.302 94.0805 101.509C93.9833 102.551 94.019 103.595 94.1857 104.62Z" fill="black"/>
<path d="M59.114 157.09C57.3541 159.687 54.2778 161.51 51.3295 162.121C47.2365 162.998 43.0107 162.158 40.0834 159.245C39.4243 156.176 38.7573 153.107 38.0821 150.042C38.0044 149.686 37.9251 149.332 37.8474 148.976C37.8376 148.93 37.8264 148.883 37.8166 148.838C36.8516 144.461 35.8689 140.09 34.8682 135.722C33.2232 128.528 30.7428 121.168 31.9588 113.694C31.6286 111.831 32.5141 110.098 34.1494 109.258C34.3664 109.146 34.5962 109.049 34.8391 108.971C35.0042 108.918 35.1742 108.879 35.3442 108.852C35.7264 108.742 36.1279 108.675 36.5521 108.628C36.5586 108.627 36.5634 108.627 36.5699 108.625C36.5974 108.62 36.6281 108.612 36.6621 108.606C36.9616 108.539 37.2482 108.442 37.5412 108.356C37.551 108.35 37.559 108.345 37.5704 108.338C37.7955 108.204 38.0286 108.061 38.2617 107.938C38.2876 107.919 38.3119 107.903 38.3345 107.887C38.3863 107.841 38.4397 107.799 38.4899 107.752C40.1073 106.292 42.5473 106.285 44.0579 107.589C44.5097 107.137 45.0909 106.779 45.8017 106.549C47.1584 106.11 48.8731 106.646 49.9061 107.721C50.4825 107.935 51.0201 108.277 51.4167 108.672C52.2198 109.477 52.4368 110.445 52.6019 111.534C53.303 116.173 53.9619 120.689 54.5966 125.13C54.6128 125.245 54.629 125.358 54.6452 125.471C56.1768 136.203 57.5743 146.508 59.114 157.09Z" fill="#B89856"/>
<path d="M42.325 116.495C40.8418 127.793 39.3134 138.32 37.8159 148.838C37.3124 152.374 36.8121 155.908 36.3182 159.47C34.1114 162.396 31.1421 164.799 27.5283 165.521C22.8216 166.52 18.6185 163.873 17.0205 159.686C17.0303 159.532 17.0432 159.378 17.0529 159.224C17.6196 151.095 18.1296 142.961 18.5846 134.823C18.7012 132.72 18.7579 130.586 18.8534 128.451C18.8582 128.345 18.8631 128.24 18.868 128.135C19.1109 122.891 19.6225 117.647 21.8924 112.852C22.1175 110.719 23.7965 109.18 25.9677 109.111C26.1425 109.106 26.3158 109.116 26.4874 109.137C26.8841 109.137 27.2889 109.184 27.7082 109.255C27.7147 109.257 27.7212 109.257 27.7259 109.258C27.7551 109.26 27.7859 109.261 27.8215 109.265C28.1275 109.284 28.4286 109.27 28.7347 109.268C28.7461 109.265 28.7557 109.263 28.7671 109.26C29.0214 109.192 29.2853 109.122 29.5426 109.065C29.5734 109.056 29.6009 109.046 29.6268 109.038C29.6884 109.009 29.7531 108.981 29.8146 108.95C31.2702 108.241 32.9411 108.429 34.1489 109.258C34.5666 109.545 34.9293 109.907 35.2094 110.336C35.7679 110.029 36.427 109.846 37.1733 109.822C38.5982 109.775 40.0974 110.765 40.7919 112.085C41.2857 112.451 41.7083 112.927 41.9787 113.416C42.5292 114.412 42.4693 115.402 42.3252 116.495H42.325Z" fill="#B89856"/>
<path d="M20.5363 128.543L20.5152 128.871L15.8183 203.707C15.8118 203.793 15.7406 203.859 15.6564 203.859H15.6451C15.556 203.852 15.4881 203.776 15.4946 203.687L20.1947 128.787L20.2157 128.46C20.3161 128.486 20.4229 128.514 20.5363 128.543Z" fill="black"/>
<path d="M49.3515 110.545C48.989 109.226 47.6485 108.562 46.364 108.849C43.5189 109.482 40.6325 109.992 37.8137 110.313C34.8 110.655 31.7196 110.958 28.6959 110.581C27.4303 110.424 26.2136 111.811 26.2673 113.01C26.3323 114.461 27.3399 115.27 28.6959 115.439C31.8202 115.828 35.0104 115.499 38.1226 115.134C41.3258 114.758 44.5071 114.234 47.6553 113.532C48.936 113.247 49.6867 111.764 49.3515 110.545Z" fill="black"/>
<path d="M39.9336 111.75C40.4699 114.225 41.9902 122.437 41.017 126.627C40.9968 126.714 41.1025 126.549 41.1896 126.569C41.202 126.572 41.2144 126.573 41.2265 126.573C41.3 126.573 41.3668 126.523 41.384 126.448C42.3852 122.137 40.8025 114.191 40.2531 111.685C40.1468 111.707 40.0403 111.729 39.9336 111.75V111.75Z" fill="black"/>
<path d="M42.4642 111.448C43.1489 113.839 44.2963 119.216 41.4552 121.132C41.3811 121.182 41.3615 121.283 41.4114 121.357C41.4428 121.403 41.4938 121.428 41.5458 121.428C41.5769 121.428 41.6085 121.419 41.6361 121.4C44.6629 119.36 43.5187 113.907 42.8006 111.421C42.6884 111.43 42.5764 111.439 42.4642 111.448Z" fill="black"/>
<path d="M57.3403 103.724C57.256 105.395 56.9404 107.092 56.2846 108.64V108.641C56.2474 108.734 56.2069 108.826 56.1648 108.918C56.1275 109.002 56.0887 109.085 56.0482 109.167V109.169C56.0449 109.176 56.0417 109.182 56.0385 109.188C55.998 109.271 55.9575 109.354 55.9138 109.435C55.7001 109.848 55.4589 110.246 55.1885 110.628C54.829 111.135 54.4048 111.633 53.7329 111.643C53.2698 111.649 52.8586 111.437 52.5348 111.126C52.4247 111.021 52.3243 110.906 52.2368 110.783C51.8693 110.272 51.667 109.634 51.4338 109.054C51.3577 108.863 51.2816 108.672 51.2071 108.479C51.037 108.049 50.8719 107.616 50.71 107.182C50.2081 105.827 49.7466 104.458 49.3371 103.072C48.9776 101.854 48.657 100.627 48.3851 99.3866C48.0629 97.9181 47.8038 96.435 47.6225 94.9422V94.9325C47.4816 93.7764 47.3877 92.6156 47.3472 91.4547C47.3456 91.4174 47.3439 91.3803 47.3423 91.343C47.3358 91.1568 47.331 90.9706 47.3294 90.7844V90.7763C47.3261 90.6921 47.3245 90.6079 47.3245 90.5221V90.5205C47.2938 88.4335 47.4055 86.3465 47.5075 84.2612C47.5156 84.1219 47.522 83.9843 47.5285 83.8467C47.5447 83.5342 47.5593 83.2217 47.5722 82.9092C47.6806 80.4142 47.7308 77.903 47.4459 75.4178V75.4161C47.5852 75.4453 47.7228 75.4761 47.8605 75.51C47.9964 75.5424 48.1341 75.5764 48.2701 75.612C48.3511 75.6346 48.432 75.6556 48.513 75.6784C48.5956 75.7011 48.6765 75.7253 48.7575 75.7496C48.8368 75.7739 48.9161 75.7998 48.9955 75.8257C49.1654 75.8807 49.3354 75.9407 49.5022 76.007C49.5718 76.0345 49.6398 76.0621 49.7094 76.0912C49.8018 76.1301 49.894 76.1705 49.9847 76.2126C49.9993 76.2191 50.0155 76.2272 50.03 76.2336C50.0867 76.2595 50.1434 76.287 50.1984 76.3178C51.6524 77.0432 52.7145 78.1603 53.4139 79.6402C54.0081 80.8949 54.3449 82.2533 54.7723 83.5745C55.2856 86.0388 55.8992 89.0648 56.4108 91.6198C56.5938 92.5346 56.7622 93.3878 56.9095 94.1342C56.9273 94.22 56.9435 94.3058 56.9613 94.3899C56.9694 94.4369 56.979 94.4823 56.9872 94.5276C56.9904 94.5421 56.992 94.5551 56.9953 94.568C57.1572 95.3986 57.2867 96.0656 57.3644 96.4882C57.8663 99.2196 57.4794 100.934 57.3401 103.724L57.3403 103.724Z" fill="#B89856"/>
<path d="M70.2627 97.2284C70.2627 97.2317 70.2611 97.2333 70.2611 97.2366C70.2271 97.5977 70.1348 97.9668 69.9632 98.3457C69.3932 99.6102 59.1251 109.509 55.2069 113.646C54.9948 113.869 54.7665 114.009 54.5317 114.081C54.2872 114.349 53.9861 114.562 53.6137 114.682C53.3983 114.753 53.1911 114.787 52.9935 114.792C52.55 114.904 52.0626 114.862 51.5898 114.617C50.552 114.08 50.2524 112.845 49.8817 111.825C48.9118 109.895 48.1509 107.68 48.5005 105.56C48.5847 105.05 48.7774 104.602 49.0591 104.242C48.9846 103.802 49.0899 103.326 49.4688 102.903C51.954 100.153 54.4376 97.4002 56.923 94.6477C58.0838 93.3605 59.2172 92.0378 60.4591 90.8283C61.3204 89.9896 62.5817 88.6086 63.9077 88.4936C64.0098 88.4838 64.1133 88.4838 64.217 88.4903C65.2694 88.3511 66.3866 89.1639 67.0941 89.9847C68.0542 91.0986 68.7406 92.3696 69.3203 93.7135C69.8271 94.8873 70.3727 96.0207 70.2626 97.2285L70.2627 97.2284Z" fill="#B89856"/>
<path d="M70.2636 97.2283C70.2636 97.2316 70.262 97.2332 70.262 97.2365C69.8427 99.6764 68.5506 97.808 66.9461 95.2531C66.3794 94.3497 65.7723 93.3621 65.1522 92.4473C64.6308 91.6782 64.2002 91.003 63.9071 90.4347C63.376 89.4114 63.2886 88.7363 63.9087 88.4934C64.0108 88.4836 64.1143 88.4836 64.218 88.4901C64.4884 88.4545 64.7636 88.482 65.0356 88.5565C65.8176 88.7702 66.5689 89.3758 67.095 89.9845C68.0551 91.0984 68.7416 92.3694 69.3213 93.7133C69.3472 93.7716 69.3714 93.8299 69.3973 93.8881C69.8798 95.0004 70.3688 96.0803 70.2636 97.2282V97.2283Z" fill="black"/>
<path d="M78.9686 82.1904C78.9443 83.5132 78.9215 84.9073 78.6739 86.209C78.4683 87.2857 77.7591 87.7584 76.7812 87.8895C76.6728 87.9057 76.561 87.9154 76.4461 87.9219C76.4478 87.9236 76.4478 87.9252 76.4461 87.9252C76.4235 88.0418 76.4008 88.1616 76.3733 88.2749C76.1304 89.2819 75.3565 89.7337 74.5113 90.1466C74.249 90.3263 73.9868 90.5059 73.7261 90.6857C73.5206 90.8363 73.3149 90.9869 73.1109 91.1391C72.201 91.8142 71.3186 92.5298 70.4005 93.1953C70.0718 93.4333 69.7367 93.6664 69.3966 93.8882C69.2623 93.9757 69.1279 94.0599 68.9919 94.144C68.6405 94.3593 67.6448 95.0118 66.9453 95.2531C66.3786 94.3497 65.7715 93.3621 65.1514 92.4473C64.63 91.6782 64.1994 91.0031 63.9062 90.4347C63.9274 89.9959 64.724 89.065 65.0348 88.5566C65.0737 88.4934 65.1061 88.4352 65.1271 88.3866C65.6516 87.1852 66.3867 86.0842 67.3193 85.1484C68.09 84.3745 70.4457 82.1466 71.5581 83.3447C72.2057 84.0409 71.5322 85.0561 71.1501 85.7021C71.0691 85.8381 70.9849 85.9725 70.8992 86.1053C70.8635 86.1603 70.8278 86.2154 70.7907 86.2688C70.6693 86.4534 70.5413 86.6363 70.4118 86.8177C70.5268 86.7659 70.64 86.7141 70.755 86.6623C71.6795 86.2414 72.6024 85.8204 73.5268 85.4027C73.5592 85.3865 73.5931 85.3719 73.6256 85.3574C73.7081 85.3201 73.7923 85.2813 73.8749 85.244C73.8814 85.2407 73.8863 85.2391 73.8927 85.2359L73.9833 84.4053C74.0578 83.7366 74.1307 83.0679 74.2052 82.3976C74.257 81.9135 74.2521 81.3387 74.495 80.9016C74.8722 80.2183 75.7465 80.0143 76.3067 80.4677C76.3099 80.4563 76.3132 80.4467 76.3164 80.4353C76.3472 80.3317 76.386 80.2264 76.433 80.1212C76.5868 79.778 76.8248 79.446 77.1162 79.2356C77.1437 79.2048 77.1697 79.174 77.1988 79.1448C77.5518 78.7708 78.0229 78.8663 78.3143 79.1675C78.3241 79.1724 78.3337 79.1772 78.3435 79.1838C79.2453 79.7472 78.9831 81.3193 78.9686 82.1904Z" fill="#FFA370"/>
<path d="M56.9083 94.1343C56.761 93.388 56.5926 92.5347 56.4097 91.6199C55.9207 91.3155 55.4722 90.9447 55.0756 90.5189C54.3017 89.6851 53.7447 88.6797 53.2573 87.6597C53.2428 87.6305 53.2266 87.6062 53.2072 87.5885C53.1586 87.5415 53.097 87.5285 53.0372 87.5383C52.987 87.4994 52.9239 87.48 52.8623 87.48C52.9271 87.896 52.9935 88.3267 53.0566 88.7704C53.4209 91.2881 53.8322 94.1279 54.2483 96.9711C54.3568 97.0131 54.4928 96.9808 54.5559 96.8513C54.5624 96.8399 54.8396 96.7848 54.8445 96.7734C54.9385 96.3492 55.1307 96.0839 55.4319 95.8037C55.8237 95.4395 56.2155 95.0751 56.6057 94.7109C56.7223 94.6024 56.8405 94.4955 56.9603 94.3903C56.9426 94.3061 56.9263 94.2203 56.9085 94.1345L56.9083 94.1343Z" fill="black"/>
<path d="M77.1511 85.5645C76.999 86.5229 76.8791 87.284 76.782 87.8895C76.6735 87.9056 76.5618 87.9154 76.4469 87.9219C76.5473 87.3034 76.672 86.5166 76.8307 85.5127C77.4378 81.6836 76.6347 80.6749 76.3174 80.4353C76.3482 80.3317 76.387 80.2264 76.434 80.1212C76.829 80.3641 77.8102 81.4019 77.1511 85.5645Z" fill="black"/>
<path d="M70.4119 86.8177C70.5269 86.7659 70.6401 86.7141 70.7551 86.6623C69.7011 87.2306 68.3168 87.4038 68.2536 87.4136H68.2342C68.1533 87.4136 68.0837 87.3536 68.0723 87.2711C68.0625 87.1836 68.1257 87.1027 68.2148 87.0914C68.2309 87.0898 69.7804 86.8938 70.7908 86.2689C70.6694 86.4535 70.5414 86.6363 70.4119 86.8177Z" fill="black"/>
<path d="M73.8748 85.2439C73.6676 86.9536 73.2564 87.5803 73.2386 87.6078C73.2078 87.6547 73.156 87.679 73.1042 87.679C73.0734 87.679 73.041 87.6709 73.0135 87.6515C72.9407 87.6029 72.9196 87.5025 72.9698 87.428C72.9715 87.4247 73.0815 87.2514 73.2143 86.8468C73.3179 86.5246 73.4378 86.0535 73.5268 85.4026C73.5592 85.3864 73.5931 85.3718 73.6255 85.3573C73.7081 85.32 73.7923 85.2812 73.8748 85.2439Z" fill="black"/>
<path d="M73.0159 87.3953C73.1026 87.3947 73.1924 87.3465 73.2319 87.2742C73.5606 86.6832 73.6917 86.0243 73.6253 85.3572C72.637 85.805 71.6501 86.2544 70.6621 86.7037C71.5044 86.7011 72.4585 86.9458 73.0159 87.3953Z" fill="black"/>
<path d="M47.6219 94.9421V94.9324C47.5587 93.7407 47.4779 92.554 47.3774 91.3671C47.379 91.3655 47.3774 91.3639 47.3774 91.3639C47.3628 91.1696 47.3466 90.977 47.3289 90.7843V90.7762C47.3224 90.705 47.3159 90.632 47.3094 90.5625C47.3083 90.5614 47.3083 90.5608 47.3094 90.5608C47.1782 89.0842 47.018 87.6157 46.8318 86.1521C46.7088 85.1985 46.5549 84.2448 46.3363 83.3106C46.299 83.1471 46.2602 82.9868 46.218 82.8249V82.8233C45.9994 81.9765 45.7259 81.1491 45.3729 80.3558V80.3542C45.3276 80.2506 45.2806 80.1486 45.232 80.0466C44.743 79.012 44.1133 78.0422 43.2956 77.1759C41.5147 75.2865 40.4525 74.0948 38.5808 73.6091C38.5388 73.5961 38.495 73.5848 38.4513 73.5767C37.9397 73.4521 37.3666 73.3808 36.7027 73.3597C35.8884 73.3338 34.0102 73.4633 32.3506 73.779C32.3441 73.779 32.3393 73.7807 32.3329 73.7823C31.0926 74.0186 29.9771 74.3602 29.5238 74.8168C28.3565 75.9955 29.1902 78.4451 28.8421 79.9865C28.6818 80.6909 28.5232 81.3967 28.3661 82.1011C28.3386 82.2225 28.3111 82.3439 28.2852 82.4638C28.2641 82.5576 28.2431 82.6516 28.2221 82.7455C28.18 82.9333 28.1395 83.1195 28.0975 83.3057V83.3073C27.6101 85.5125 27.1374 87.7192 26.6986 89.9341C26.6727 90.0636 26.6468 90.1947 26.6208 90.3243C26.6176 90.342 26.6143 90.3599 26.6096 90.3777V90.3793C25.8469 94.2684 25.1994 98.1783 24.7379 102.114C24.6861 102.553 24.6246 103.036 24.5663 103.542C24.3542 105.404 24.202 107.605 24.8512 109.285C25.2867 110.41 26.0801 111.302 27.4563 111.704C27.5599 111.735 27.6652 111.762 27.7753 111.787C28.2545 111.894 28.7143 111.806 29.0802 111.566C30.0046 111.554 30.9292 111.529 31.8536 111.49C31.9509 111.487 32.0496 111.484 32.1467 111.479C34.4231 111.382 36.6979 111.207 38.963 110.951C39.2431 110.919 39.5248 110.886 39.8049 110.852C41.275 110.676 42.7403 110.469 44.2007 110.231C44.4533 110.189 44.7204 110.158 44.9892 110.122C45.5655 110.041 46.1533 109.936 46.6326 109.656C47.5182 109.136 47.6817 108.249 47.7174 107.303C47.7271 107.038 47.7368 106.772 47.7433 106.507C47.8664 102.668 47.8324 98.7984 47.6218 94.9418L47.6219 94.9421Z" fill="#F0DED7"/>
<path d="M37.9924 96.9633C37.8551 97.1557 37.7229 97.352 37.5961 97.5516C37.3323 97.9668 37.0884 98.3945 36.8517 98.8257C36.3882 99.6699 35.9511 100.53 35.4419 101.348C34.8734 102.261 34.2064 103.108 33.5547 103.962C32.9538 104.749 32.2437 105.529 31.8574 106.452C31.6407 106.97 31.575 107.524 31.5272 108.079C31.4737 108.701 31.4377 109.324 31.4162 109.948C31.4097 110.137 31.6257 110.243 31.7816 110.158C32.1925 109.932 32.4803 109.57 32.7599 109.204C33.0783 108.787 33.3878 108.363 33.6888 107.934C34.2766 107.094 34.8315 106.232 35.3544 105.351C36.4102 103.571 37.0605 101.629 37.8462 99.7143C38.0006 99.3378 38.2495 98.3724 38.4225 97.6043C38.2615 97.4027 38.116 97.1886 37.9924 96.9633Z" fill="black"/>
<path d="M32.0594 82.3848C32.0305 82.3848 32.0059 82.3803 31.985 82.3736C31.8998 82.3466 31.8527 82.2555 31.8797 82.1702C31.9037 82.0947 31.9785 82.05 32.054 82.0586C32.1063 82.0453 32.6757 81.8361 33.772 79.0037C34.367 77.4667 35.0472 76.5433 35.7939 76.2591C36.269 76.078 36.5935 76.2397 36.6069 76.2466L36.6259 76.2581C36.7408 76.3385 39.4531 78.2504 40.7771 80.2408C40.8266 80.3152 40.8063 80.4157 40.7319 80.4653C40.6575 80.5146 40.557 80.4946 40.5073 80.4202C39.2609 78.5463 36.6507 76.6729 36.4519 76.5317C36.4112 76.5152 36.2038 76.4443 35.893 76.5681C35.4451 76.7463 34.7658 77.3336 34.0741 79.1206C32.9703 81.972 32.3345 82.3849 32.0594 82.3849V82.3848ZM32.0828 82.0649H32.0831C32.0831 82.0649 32.083 82.0649 32.0828 82.0649ZM32.0825 82.0649C32.0825 82.0649 32.0827 82.0649 32.0828 82.0649C32.0828 82.0649 32.0827 82.0649 32.0825 82.0649Z" fill="black"/>
<path d="M40.6429 111.767C40.6384 111.767 40.6339 111.767 40.6294 111.767C40.5402 111.76 40.474 111.681 40.4813 111.592C40.9242 106.225 38.4399 92.6126 38.4148 92.4757C38.3987 92.3878 38.4568 92.3034 38.5447 92.2872C38.634 92.2713 38.7171 92.3294 38.7332 92.4172C38.7585 92.5545 41.2503 106.209 40.8041 111.619C40.797 111.703 40.7263 111.767 40.6429 111.767V111.767Z" fill="black"/>
<path d="M39.3355 111.915C39.331 111.915 39.3265 111.915 39.3221 111.914C39.2329 111.907 39.1666 111.829 39.1739 111.74C39.6168 106.373 37.1323 92.76 37.1072 92.6232C37.091 92.5353 37.1492 92.4508 37.2371 92.4347C37.327 92.4185 37.4094 92.4769 37.4256 92.5646C37.4508 92.702 39.9429 106.356 39.4967 111.766C39.4896 111.851 39.4189 111.915 39.3355 111.915Z" fill="black"/>
<path d="M57.5428 120.836C57.2887 118.551 57.0117 116.27 56.7122 113.99C56.6394 113.432 56.5648 112.875 56.4887 112.316C56.3462 111.267 56.1989 110.218 56.0468 109.169V109.167C55.4898 105.327 54.8697 101.496 54.1896 97.6751C54.1864 97.6508 54.1815 97.6265 54.1768 97.6022C54.1557 97.4776 54.1331 97.3529 54.1103 97.2282C52.8248 90.0574 51.5668 82.8249 49.2321 75.9067C49.1528 75.8791 49.0735 75.8516 48.9941 75.8257C48.9148 75.7998 48.8355 75.7739 48.7561 75.7496C48.6752 75.7254 48.5942 75.7011 48.5117 75.6784C48.4307 75.6558 48.3498 75.6348 48.2688 75.612C48.1328 75.5763 47.9951 75.5424 47.8591 75.51C47.7215 75.4776 47.5839 75.4485 47.4446 75.4177C46.737 75.2655 46.0198 75.1457 45.3074 75.0048C45.0839 74.9595 44.8622 74.9077 44.642 74.8526C44.4866 74.8153 44.3312 74.7749 44.1758 74.7328C44.1385 74.723 44.1029 74.7134 44.0657 74.7036C43.7289 74.1758 43.3581 73.6674 42.9566 73.1882C41.752 71.786 39.6585 69.9047 38.5672 69.9598C38.5381 69.9614 38.5106 69.963 38.483 69.9679C37.6185 70.1007 38.0913 72.3188 38.3033 73.0895C38.3244 73.1672 38.3811 73.3517 38.4506 73.5768C38.4959 73.7226 38.5462 73.8845 38.598 74.0464C38.7032 74.3799 38.8085 74.7086 38.8603 74.8624C39.359 76.3131 39.9191 80.3235 40.2187 81.7045C41.2485 86.4452 42.1519 91.2134 42.9517 95.9994C43.1815 97.3756 43.4034 98.7534 43.6171 100.133L43.7046 100.701C43.8924 101.924 44.0737 103.148 44.2486 104.372C44.3797 105.286 44.5028 106.203 44.621 107.121C44.7489 108.12 44.8704 109.12 44.9885 110.123C45.6361 115.589 46.2012 121.068 47.2843 126.453C47.383 126.95 47.9028 127.5 48.4145 127.583C50.5743 127.929 52.6969 126.411 54.6026 125.183C55.0236 124.913 55.4332 124.656 55.8314 124.437C56.3592 124.147 56.9081 123.836 57.24 123.333C57.5346 122.886 57.6156 122.355 57.6124 121.811C57.6107 121.485 57.5783 121.155 57.5427 120.836L57.5428 120.836Z" fill="#B89856"/>
<path d="M33.0032 87.5056C33.0323 89.9536 33.0048 92.4001 32.9319 94.8465C32.927 95.0392 32.9206 95.2336 32.9141 95.4278C32.9108 95.4213 32.9076 95.4148 32.9043 95.4084C32.9043 95.4278 32.9027 95.4488 32.9027 95.4683C32.8477 97.1894 32.77 98.9071 32.6745 100.625V100.627C32.6567 100.965 32.6357 101.302 32.6162 101.64V101.642C32.5028 103.52 32.37 105.396 32.2179 107.273C32.1839 107.692 32.15 108.113 32.1143 108.533C32.0317 109.519 31.9442 110.505 31.852 111.491C31.3259 117.162 30.6766 122.826 30.0273 128.48C29.9982 128.726 29.9318 128.962 29.8314 129.174C29.7131 130.056 28.9506 130.885 27.8335 130.61C24.8237 129.869 21.8331 129.054 18.8638 128.167C17.9296 127.888 16.997 127.604 16.0676 127.31C15.3746 127.092 14.6833 126.87 13.9919 126.643C13.8899 126.611 13.7863 126.577 13.6843 126.541C13.6794 126.541 13.6745 126.54 13.6697 126.538C13.6146 126.52 13.5579 126.501 13.5029 126.483C13.158 126.37 12.8148 126.255 12.4716 126.14C11.6086 125.85 11.288 125.086 11.3657 124.375C11.3382 124.246 11.3253 124.105 11.3317 123.953C11.4677 120.638 11.7073 117.329 12.0408 114.028C12.0505 113.939 12.0586 113.851 12.0683 113.762C12.4407 110.126 12.9216 106.507 13.485 102.9C14.7204 94.9632 16.3491 87.0896 18.0896 79.2452C18.2128 78.6915 17.9083 78.3482 18.2532 78.1896C18.2662 78.1814 18.2807 78.1766 18.2969 78.1702C18.3146 78.1604 18.3681 78.1378 18.4425 78.107C18.5332 78.0713 18.6579 78.0244 18.7923 77.9726H18.7939C19.1485 77.8366 19.5743 77.6812 19.6455 77.6585C21.6207 77.0417 23.3046 76.7325 25.2231 76.1495C25.4044 76.0961 25.5874 76.0378 25.7736 75.9779C25.7785 75.9762 25.7833 75.9746 25.7882 75.973C25.8076 75.9665 25.8271 75.9601 25.8465 75.9536C26.5071 75.1764 28.6362 72.7348 29.2935 72.1957C30.5872 71.1336 31.5569 70.0746 32.7243 69.6845C32.7276 69.6829 32.7292 69.6829 32.7325 69.6812C33.7914 69.3299 32.8038 71.4881 32.3487 73.7791C32.3389 73.8244 32.3309 73.8682 32.3212 73.9135V73.92C32.3277 74.0042 32.3358 74.0884 32.3422 74.1742V74.1758C32.6822 78.434 32.9607 83.7381 33.0028 87.5056H33.0032Z" fill="#B89856"/>
<path d="M32.6758 100.625V100.627C32.658 100.965 32.637 101.302 32.6175 101.64C32.3034 100.309 31.7157 98.8845 31.0001 97.4711C29.6708 94.84 27.8963 92.2479 26.6091 90.3795V90.3779C26.5865 90.3455 26.5655 90.3132 26.5427 90.2808C25.3591 88.5597 24.7391 87.6434 24.7035 87.2418C24.6144 86.2639 26.8584 84.0134 28.2217 82.7457C28.2298 82.7375 28.2378 82.7312 28.2459 82.723C28.2961 82.6745 28.3204 82.608 28.3124 82.5385C28.3091 82.5126 28.2994 82.4867 28.2848 82.464C28.2671 82.4283 28.2379 82.3992 28.199 82.3782C24.8767 80.6393 23.29 79.4233 23.4859 78.7644C23.6721 78.1346 24.5707 76.9543 25.2248 76.1496C25.4061 76.0962 25.589 76.0379 25.7752 75.978C25.7801 75.9763 25.7849 75.9747 25.7898 75.9731C25.1713 76.7146 23.9975 78.1783 23.7967 78.8566C23.6882 79.2241 25.0531 80.3673 28.3496 82.0915C28.3544 82.0948 28.3608 82.098 28.3657 82.1013C28.5115 82.1839 28.6118 82.3295 28.6329 82.4963C28.6555 82.668 28.5939 82.8412 28.4661 82.9594C28.3398 83.076 28.2167 83.1925 28.0969 83.3059V83.3075C26.1411 85.1679 24.9738 86.646 25.0256 87.2127C25.0547 87.5349 25.806 88.6375 26.6981 89.9343C26.7353 89.9877 26.7726 90.0412 26.8099 90.0962C28.1585 92.057 29.912 94.607 31.2396 97.2072C31.8241 98.3518 32.3277 99.5079 32.6758 100.625Z" fill="black"/>
<path d="M48.9903 85.9335C48.9903 86.5892 48.2909 88.8026 47.3777 91.3639C47.3777 91.3639 47.3793 91.3655 47.3777 91.3671C47.3679 91.3963 47.3567 91.4255 47.3469 91.4546C46.1116 94.9162 44.5007 98.9833 43.7056 100.701L43.6182 100.133C44.5281 98.0895 46.1488 93.8912 47.3096 90.5625C47.3086 90.5614 47.3086 90.5608 47.3096 90.5608C47.3129 90.5463 47.3178 90.5333 47.3243 90.5204C48.0998 88.2878 48.6665 86.4517 48.6665 85.9335C48.6665 85.4883 48.2099 84.8974 47.5072 84.2611C47.1672 83.9503 46.769 83.6297 46.3366 83.3106C45.6097 82.7715 44.7856 82.2339 43.9809 81.7563C43.8659 81.6884 43.7931 81.5685 43.785 81.4357C43.7769 81.3014 43.8351 81.1735 43.942 81.0925C44.4536 80.7007 44.8811 80.351 45.2324 80.0466C46.0873 79.3051 46.4808 78.8306 46.471 78.6752C46.4484 78.2802 45.1013 76.1251 44.1768 74.7327C44.3323 74.7749 44.4877 74.8153 44.6431 74.8526C45.3215 75.8855 46.7641 78.1409 46.7949 78.6574C46.8126 78.9635 46.3367 79.5317 45.3733 80.3543V80.3559C45.0252 80.6538 44.6139 80.9857 44.1379 81.35C44.1104 81.371 44.1071 81.4002 44.1071 81.4163C44.1088 81.431 44.1153 81.46 44.1461 81.4779C44.6706 81.7903 45.443 82.2696 46.2184 82.8234V82.825C46.6701 83.1456 47.1235 83.4937 47.5282 83.8467C48.3621 84.572 48.9902 85.3233 48.9902 85.9336L48.9903 85.9335Z" fill="black"/>
<path d="M38.9944 88.5484C38.8794 87.1754 38.7369 85.8041 38.5686 84.4375C38.4827 83.7511 38.3905 83.0662 38.2917 82.3813C38.2042 81.7758 38.1233 81.1654 37.9678 80.5713C37.8771 80.2232 37.759 79.8799 37.6052 79.5545C37.5405 79.4185 37.4692 79.2841 37.3899 79.1562C37.3883 79.1513 37.385 79.1464 37.3818 79.1416C37.4886 78.8388 37.5955 78.5376 37.7023 78.2349C37.8172 77.9143 38.0456 77.5209 37.8367 77.1955C37.7558 77.0692 37.6197 76.9801 37.5048 76.8863C37.3671 76.7745 37.2279 76.6644 37.0887 76.556C36.8087 76.339 36.5059 76.033 36.1156 76.1366C35.9084 76.148 35.6056 76.2694 35.4404 76.4038C35.0309 76.7374 34.7475 77.1049 34.4658 77.5517C34.3104 77.8237 34.2861 77.9532 34.3961 78.1264C34.5662 78.3952 34.7442 78.6591 34.932 78.9149C35.026 79.0427 35.1215 79.1691 35.2186 79.2937C35.2898 79.3844 35.3595 79.4734 35.4437 79.5464V79.6112C35.442 79.7455 35.442 79.8816 35.4404 80.0159C35.4113 82.4121 35.2202 84.8052 34.8559 87.1739C34.652 88.4886 34.3977 89.7952 34.095 91.0905C33.9444 91.73 33.7987 92.3858 33.6142 93.0269C33.5106 93.3961 33.3923 93.7588 33.2547 94.1133C33.1641 94.3513 33.0636 94.5844 32.9519 94.8111C32.9454 94.8224 32.9405 94.8354 32.9341 94.8468C32.5002 95.7194 31.8915 96.4837 31.2406 97.2074C31.1612 97.2965 31.0819 97.384 31.0009 97.4713C30.9102 97.57 30.818 97.6672 30.7273 97.7644C29.8271 98.7244 28.8767 99.6344 27.9084 100.523C26.9224 101.43 25.9218 102.322 24.9261 103.219C24.8062 103.327 24.6864 103.436 24.5666 103.543C24.4403 103.658 24.3124 103.773 24.1861 103.886C23.9594 104.09 23.7166 104.288 23.5142 104.517C23.077 105.015 23.0009 105.649 22.8714 106.276C22.5896 107.631 22.3079 108.988 22.0278 110.343C21.916 110.879 21.7688 111.478 22.0812 111.957C22.1071 112.001 22.1395 112.043 22.1751 112.083C22.5297 112.495 23.119 112.525 23.6193 112.461C24.2782 112.373 24.934 112.227 25.5849 112.098C26.2099 111.973 26.8331 111.842 27.4565 111.705C27.5116 111.692 27.5683 111.68 27.6233 111.667C28.2239 111.535 28.7955 111.376 29.2666 110.96C29.7232 110.555 30.0827 110.021 30.4599 109.545C30.7254 109.211 30.9877 108.874 31.2484 108.538C31.5754 108.118 31.8993 107.697 32.2198 107.273C33.2641 105.897 34.2825 104.5 35.2702 103.083C36.6981 101.037 38.2201 98.9253 38.8402 96.4692C39.4894 93.8948 39.2125 91.1602 38.9939 88.5487L38.9944 88.5484Z" fill="#C42F43"/>
<path d="M37.6042 79.5544C36.6068 79.1837 35.8135 79.6921 35.4395 80.0159C35.4411 79.8815 35.4411 79.7455 35.4427 79.6111C35.8718 79.3035 36.5598 78.9748 37.3888 79.1561C37.4681 79.284 37.5395 79.4184 37.6042 79.5544Z" fill="black"/>
<path d="M32.1735 111.512C31.5307 117.756 30.2598 127.549 29.9943 129.2C29.8566 130.048 29.5279 130.61 29.018 130.869C28.7881 130.984 28.5501 131.025 28.33 131.025C27.8766 131.025 27.4977 130.855 27.4152 130.816C25.2715 130.194 22.417 129.381 20.5147 128.871C20.4046 128.842 20.2977 128.815 20.1941 128.787C19.6209 128.635 19.1563 128.518 18.8535 128.45C18.8584 128.345 18.8633 128.24 18.8681 128.135C19.1337 128.188 19.5514 128.287 20.2152 128.46C20.3156 128.486 20.4225 128.514 20.5358 128.543C21.8586 128.891 24.0103 129.49 27.5205 130.508L27.548 130.52C27.5562 130.523 28.2766 130.882 28.8725 130.58C29.2854 130.369 29.5557 129.888 29.6739 129.148C29.9394 127.505 31.2072 117.731 31.8499 111.489C31.9567 111.517 32.0668 111.525 32.1737 111.512L32.1735 111.512Z" fill="black"/>
<path d="M18.5407 128.369L18.5391 128.37L18.5407 128.369Z" fill="black"/>
<path d="M54.6437 125.471C53.6528 125.989 51.9625 126.844 50.0973 127.672C49.678 127.858 49.291 127.95 48.9396 127.95C48.6028 127.95 48.2985 127.866 48.0297 127.694C46.9061 126.98 46.8202 125.034 46.8139 124.855L44.7236 111.011C44.8321 110.989 44.9374 110.948 45.0328 110.89L47.1376 124.835C47.1392 124.855 47.1959 126.783 48.2029 127.421C48.6562 127.709 49.2488 127.693 49.9661 127.376C51.8911 126.524 53.6268 125.64 54.595 125.13C54.6113 125.245 54.6274 125.358 54.6437 125.472V125.471Z" fill="black"/>
<path d="M56.7812 112.017L56.4995 112.305C56.3894 111.564 56.2453 110.587 56.0753 109.434C56.0639 109.353 56.051 109.271 56.038 109.188C55.5896 106.135 54.9727 101.935 54.3509 97.6766C54.3477 97.6524 54.3428 97.6264 54.3396 97.6022C54.3364 97.5763 54.3315 97.5487 54.3283 97.5228V97.5212C54.3007 97.3383 54.2748 97.1553 54.2489 96.9708C53.8329 94.1277 53.4216 91.2878 53.0572 88.7701C52.9942 88.3265 52.9277 87.8959 52.8629 87.4797H52.8613C51.7862 80.7087 50.4295 77.4431 49.709 76.0912C49.8013 76.1301 49.8936 76.1705 49.9843 76.2126C49.9989 76.2191 50.015 76.2272 50.0296 76.2336C50.0862 76.2595 50.1429 76.287 50.198 76.3178C50.9735 77.8964 52.2089 81.2122 53.2078 87.5882C53.2645 87.9573 53.3211 88.3362 53.3778 88.7247C53.7389 91.2181 54.1468 94.0321 54.5565 96.8508C54.5744 96.9706 54.5922 97.0904 54.61 97.2103C54.6181 97.2621 54.6246 97.3123 54.6326 97.3641C55.235 101.483 55.8339 105.571 56.284 108.639V108.641C56.2987 108.735 56.3132 108.826 56.3261 108.918C56.5074 110.15 56.6645 111.206 56.781 112.017L56.7812 112.017Z" fill="black"/>
<path d="M36.3438 87.6272C36.2758 87.8344 34.8607 92.1201 33.2529 94.1132C33.3906 93.7586 33.5088 93.396 33.6124 93.0269C34.9271 90.8816 36.0216 87.5706 36.0361 87.5268C36.0636 87.441 36.1542 87.3941 36.2401 87.4232C36.3259 87.4507 36.3713 87.543 36.3438 87.6272Z" fill="black"/>
<path d="M13.1166 102.863C10.9315 102.759 8.88083 103.525 7.22106 104.816C5.17341 111.464 3.27943 118.169 2.3642 125.08C2.23447 126.06 2.01339 127.111 2.11115 128.098C2.2167 129.163 2.84464 129.875 3.65041 130.51C4.69006 131.329 5.8437 131.977 7.07733 132.427C7.93252 132.793 8.87551 133.085 9.7578 133.104C10.0319 133.11 10.2809 133.076 10.5075 133.01C10.7662 133.005 11.0284 132.936 11.2745 132.795C11.9512 132.407 12.3504 131.829 12.5778 131.169C12.6188 131.073 12.6546 130.97 12.6798 130.856C13.514 127.094 14.4086 123.344 15.456 119.635C16.4826 116 17.7147 112.435 18.9099 108.853C19.0487 108.437 19.1868 108.02 19.3234 107.601C19.2099 107.313 19.0851 107.028 18.9453 106.748C17.8119 104.644 15.5451 103.025 13.1166 102.863Z" fill="#B89856"/>
<path d="M22.5696 87.4993C22.3841 85.555 22.0396 83.6191 21.4367 81.7589C21.1469 80.8648 20.8758 79.8089 20.2218 79.1058C20.0316 78.9013 19.8233 78.7439 19.6051 78.6275C19.0275 78.105 18.1241 77.9365 17.4024 78.6324C17.2663 78.7636 17.1353 78.8981 17.0067 79.0343C16.6097 79.3755 16.2892 79.773 16.0214 80.211C15.4748 80.947 15.0068 81.7339 14.5927 82.5523C14.5213 82.6366 14.4607 82.7312 14.4154 82.8375C14.3116 83.0809 14.2103 83.3253 14.1103 83.57C13.6726 84.5613 13.3003 85.588 12.9596 86.6227C12.1887 88.8238 11.5114 91.0575 10.8158 93.2867C9.72177 96.7927 8.62318 100.297 7.53466 103.805C7.43018 104.142 7.32637 104.479 7.22266 104.816C7.50541 109.66 8.7152 112.928 11.5531 113.653C16.2485 114.851 17.1659 109.66 19.3249 107.601C21.439 101.126 23.2236 94.3587 22.5697 87.4994L22.5696 87.4993Z" fill="#B89856"/>
<path d="M13.3607 136.994C13.3041 137.48 13.1373 138.15 12.9123 138.579C12.7601 138.868 12.6565 139.013 12.4412 139.219C12.2161 139.18 12.0072 139.05 11.8729 138.835C11.7126 138.576 11.6235 138.252 11.5474 137.92C11.5442 137.904 11.5376 137.891 11.5345 137.875C11.5215 137.81 11.507 137.746 11.494 137.681C11.4325 137.393 11.371 137.106 11.2721 136.857C11.2301 136.751 10.937 136.06 10.6504 135.55C10.5419 135.356 10.2586 135.372 10.1728 135.578C9.68053 136.776 9.20453 138.022 9.56239 139.261C9.74533 139.892 9.35032 140.555 8.63146 140.475C8.21855 140.428 7.84291 140.286 7.52559 140.074C7.49969 140.056 7.47053 140.043 7.43976 140.036C7.3588 140.015 7.2681 140.035 7.2034 140.095C7.17587 140.121 7.14672 140.145 7.11757 140.168C7.04636 140.224 6.97027 140.273 6.88769 140.312C6.46351 140.511 5.96649 140.483 5.56171 140.255C5.50015 140.219 5.44035 140.181 5.38356 140.137C5.33013 140.096 5.26543 140.08 5.20063 140.088H5.19899C5.14718 140.093 5.09701 140.114 5.05648 140.151C5.0128 140.192 4.96739 140.229 4.91884 140.263C4.79421 140.354 4.65171 140.425 4.48817 140.467C3.97978 140.598 3.47463 140.396 3.10702 140.045C3.06009 140.001 3.00178 139.975 2.94022 139.972C2.89004 139.967 2.83988 139.978 2.79295 140.004C2.73627 140.037 2.67796 140.066 2.61814 140.092C2.36563 140.208 2.08873 140.275 1.78918 140.275C0.553814 140.271 0.0113775 139.115 0.147389 138.024C0.322198 136.62 0.799922 135.194 1.12364 133.819C1.42644 132.539 1.69195 131.24 2.09023 129.985C2.09186 129.945 2.09675 129.904 2.10325 129.861C2.40768 128.201 4.6905 128.685 5.89184 128.836C7.10781 128.988 8.6863 129.176 9.82131 129.841C9.84234 129.853 9.86498 129.862 9.88937 129.867C11.3999 130.209 12.4313 131.669 13.0643 132.992C13.1049 133.075 13.1388 133.159 13.1777 133.243C13.2781 133.834 13.3509 134.425 13.3898 135.027C13.4335 135.681 13.4351 136.342 13.3606 136.994L13.3607 136.994Z" fill="#FFA370"/>
<path d="M21.0096 96.7054C20.7926 98.42 20.5189 100.245 20.1855 102.178C19.8471 103.79 19.4764 105.419 19.0877 107.043C18.9988 107.417 18.9064 107.793 18.8157 108.167C18.4886 109.499 18.1519 110.825 17.812 112.133C17.2259 114.386 16.6332 116.584 16.0698 118.668C15.2311 121.77 14.4961 124.498 13.9941 126.644C13.8921 126.611 13.7885 126.577 13.6865 126.542C14.1804 124.43 14.8993 121.762 15.7168 118.731C15.7314 118.683 15.7444 118.633 15.7573 118.584C16.583 115.53 17.4735 112.232 18.3057 108.878C18.4951 108.12 18.6797 107.359 18.861 106.596C19.2171 105.1 19.5572 103.603 19.868 102.118C20.1077 100.724 20.3133 99.4091 20.4865 98.169C22.1687 86.1571 20.8687 81.1542 19.3839 79.0817C19.1233 78.7175 18.8383 78.4147 18.5291 78.1734C18.5015 78.1492 18.474 78.1281 18.4449 78.1071C18.5356 78.0714 18.6602 78.0245 18.7946 77.9727H18.7962C18.9354 78.0861 19.0699 78.2107 19.1977 78.3483C19.3548 78.5135 19.5037 78.6948 19.6462 78.894C21.6911 81.7468 22.146 87.7261 21.0095 96.7055L21.0096 96.7054Z" fill="black"/>
<path d="M21.0273 95.3616C21.0225 95.585 21.016 96.1355 21.0096 96.7054C21.0031 97.3336 20.9966 97.9828 20.9902 98.2306C20.9335 98.7066 20.8752 99.1826 20.8121 99.6587C20.1628 104.558 19.1915 109.405 18.2524 114.255C17.412 118.586 16.5977 122.928 16.0698 127.311C15.3768 127.092 14.6855 126.87 13.9941 126.644C13.8921 126.611 13.7885 126.577 13.6865 126.542C14.1804 124.431 14.8993 121.762 15.7168 118.731C15.7314 118.683 15.7444 118.633 15.7573 118.584C16.583 115.53 17.4735 112.232 18.3057 108.878C18.4951 108.12 18.6797 107.359 18.861 106.596C19.2171 105.1 19.5572 103.603 19.868 102.118C20.1077 100.724 20.3133 99.4093 20.4865 98.1691C20.6905 97.7303 20.8687 95.8248 21.0273 95.3617V95.3616Z" fill="black"/>
<path d="M38.4003 75.0647C38.2514 75.2946 38.0214 75.4646 37.7738 75.5845C36.2713 76.3115 34.4337 75.9471 33.1109 74.979C32.91 74.8317 32.7207 74.6714 32.5458 74.4981C32.4826 74.4349 32.4195 74.3686 32.3806 74.286C32.243 74.0011 32.3855 73.5396 32.4033 73.2288C32.4259 72.8791 32.4632 72.5294 32.4939 72.1813C32.5603 71.43 32.6315 70.6771 32.7027 69.9259C32.8112 68.7828 32.9213 67.6398 33.0168 66.495C33.0249 66.3898 33.033 66.2862 33.0411 66.1826C33.0588 65.9737 33.0751 65.7633 33.0896 65.5543C33.237 63.5726 33.7243 64.2769 35.5959 64.2639C36.3682 64.2574 37.1843 64.5117 37.7363 65.1204C37.9888 65.3973 38.1686 65.7275 38.2949 66.0837C38.4892 66.631 38.5555 67.2414 38.5588 67.8226C38.562 68.3634 38.5636 68.9042 38.5653 69.4449C38.5685 70.0779 38.5685 70.7127 38.5702 71.3457V71.4638C38.5718 72.0952 38.5734 72.7267 38.5734 73.3581C38.5734 73.8892 38.698 74.6032 38.4001 75.0646L38.4003 75.0647Z" fill="#FFA370"/>
<path d="M39.2542 56.9425C37.9286 56.058 36.0634 56.1721 34.5758 57.6663C32.7448 59.5054 33.5402 61.9552 34.0441 64.1567C34.2502 65.0571 34.4283 65.9977 34.8438 66.8308C35.197 67.5392 35.7633 68.1211 36.378 68.6083C36.9678 69.0757 37.7849 69.3182 38.5316 69.4376C42.288 70.0385 42.1604 64.647 41.6347 62.2685C41.2802 60.6642 40.9305 58.0611 39.2542 56.9425Z" fill="#FFA370"/>
<path d="M43.0366 57.5789C43.0965 58.1423 42.784 58.6895 42.3096 58.9778C41.8595 59.2498 41.3139 59.2902 40.8055 59.2158C40.7812 59.1397 40.7504 59.0636 40.7067 58.9923C40.6776 58.9454 40.6419 58.8983 40.6048 58.853C40.5918 58.8336 40.5789 58.8141 40.5659 58.7947C40.4137 58.5324 40.2065 58.3074 39.9636 58.1309C39.8649 58.0581 39.7613 57.9949 39.6512 57.9398C39.24 57.7294 38.7623 57.6371 38.2814 57.6921C38.0952 57.7131 37.9107 57.752 37.7277 57.8071C37.6258 57.8362 37.5237 57.8719 37.4249 57.9123H37.4233C37.3099 57.9576 37.1998 58.0094 37.093 58.0694C36.9975 58.1195 36.9051 58.1746 36.8177 58.2361C36.4274 58.5017 36.1021 58.8579 35.9045 59.2902C35.7815 59.559 35.7135 59.8423 35.7037 60.1289C35.7021 60.1436 35.7021 60.1581 35.7021 60.1726C35.6729 60.3378 35.6535 60.5061 35.6405 60.6745C35.6552 60.7587 35.6697 60.8413 35.6858 60.9255C35.7813 61.4581 35.8785 61.9908 35.9611 62.5251C36.0113 62.8538 35.9805 62.9574 35.6502 63.142C35.2908 63.3412 35.0139 63.3638 34.839 63.0755C34.6901 62.8278 34.5637 62.5235 34.3889 62.2692C34.282 62.1834 34.1687 62.1122 34.0473 62.0506C34.1136 62.4004 34.2351 62.7501 34.2449 63.1031C34.2481 63.2699 34.219 63.4398 34.1623 63.5953C34.1023 63.6357 34.0393 63.6746 33.9761 63.7087C33.9096 63.746 33.8611 63.7686 33.8223 63.7815C33.7915 63.7929 33.7576 63.8009 33.7252 63.8107C33.7187 63.8123 33.7074 63.8139 33.696 63.8155C33.6571 63.8155 33.6183 63.8107 33.5794 63.8026C33.5584 63.7784 33.5341 63.7557 33.5066 63.7362C32.9837 63.3913 32.4931 62.9429 32.0818 62.4717C32.0154 62.3956 31.9523 62.3179 31.8891 62.2402C31.8665 62.1998 31.8438 62.1592 31.8195 62.1188C31.4941 61.5699 31.0553 61.1473 30.5599 60.7653C29.5464 59.5316 28.0309 57.4187 29.6079 56.0683C30.2361 55.5292 31.0424 55.3057 31.5734 54.629C32.0624 54.0056 31.9896 53.269 32.5335 52.6909C32.8282 52.495 33.1893 52.4156 33.5422 52.4627C33.8482 52.5032 34.1007 52.6327 34.3128 52.8124C34.3226 52.7946 34.3338 52.7767 34.3452 52.759C34.3986 52.6651 34.4537 52.5728 34.5136 52.4806C35.145 51.4881 36.029 50.6283 37.2725 50.5733C37.8668 50.5474 38.4626 50.7708 38.8917 51.182C39.1054 51.386 39.2673 51.6386 39.3677 51.9155C39.3823 51.9528 39.3935 51.9899 39.4017 52.0288V52.0305C39.4615 52.2862 39.4357 52.5599 39.5214 52.8093C39.5296 52.8352 39.5408 52.8594 39.5538 52.8821V52.8837C39.6299 53.0246 39.7724 53.125 39.9327 53.1492C40.1222 53.1768 40.3213 53.0813 40.5074 52.9938C40.5803 52.9582 40.6532 52.9259 40.7212 52.9015C40.7601 52.8886 40.7989 52.8756 40.8394 52.8642C41.3349 52.7233 41.8853 52.7557 42.3549 52.9646C43.6145 53.5264 43.5077 55.1471 42.8552 56.1364C42.7273 56.3291 42.5832 56.5039 42.4277 56.6674C42.431 56.669 42.4326 56.6707 42.4359 56.6723C42.5346 56.7208 42.6237 56.7889 42.703 56.8715C42.886 57.0642 43.0091 57.3264 43.0365 57.5791L43.0366 57.5789Z" fill="#BD5931"/>
<path d="M34.2157 62.1555C33.8768 61.7835 33.2792 61.5344 32.7926 61.6764C32.6474 61.6749 32.496 61.6961 32.3399 61.7448C31.5726 61.9845 31.2303 62.834 31.2813 63.5822C31.372 64.9103 33.1335 67.3106 34.5672 65.877C35.0537 65.3906 35.1484 64.5683 34.953 63.8253C34.8973 63.2085 34.636 62.6165 34.2157 62.1554V62.1555Z" fill="#FFA370"/>
<path d="M38.5709 71.3458C38.3605 71.3361 38.1062 71.3037 37.8845 71.2147C35.4365 70.2303 34.5136 67.3079 34.3193 66.3639C34.3128 66.3331 34.2803 66.317 34.2513 66.3299C33.7219 66.5581 33.2604 66.5355 33.0176 66.4951C33.0257 66.3898 33.0338 66.2862 33.0418 66.1826C33.1795 66.215 33.6781 66.2748 34.2562 65.9689C34.3306 65.9285 34.4181 65.93 34.4909 65.9705C34.5638 66.011 34.6107 66.0855 34.6156 66.1697C34.6431 66.6069 35.8283 69.1715 38.566 69.4451C38.5693 70.0782 38.5693 70.7129 38.5709 71.3459V71.3458Z" fill="black"/>
<path d="M35.7034 60.1726C35.6743 60.3377 35.6549 60.506 35.6419 60.6744C35.6565 60.7586 35.671 60.8412 35.6872 60.9254C35.6629 60.9092 35.6435 60.8865 35.6321 60.8574C35.5754 60.723 34.2446 57.5399 34.8955 55.4821C35.2273 54.4329 35.0266 53.7205 34.7984 53.3076C34.6575 53.0519 34.4876 52.8721 34.3467 52.7587C34.4001 52.6648 34.4552 52.5725 34.5151 52.4803C34.6997 52.6195 34.9101 52.8413 35.0818 53.1522C35.3408 53.6202 35.5708 54.4216 35.2048 55.5808C34.7515 57.0121 35.3522 59.1087 35.705 60.1288C35.7034 60.1434 35.7034 60.1579 35.7034 60.1724V60.1726Z" fill="black"/>
<path d="M39.5538 52.8818V52.8834C39.3158 53.4809 38.8608 53.9844 38.3881 54.509C38.0206 54.9154 37.6417 55.3363 37.3243 55.8351C36.7625 56.7174 36.9081 57.5626 37.0928 58.0694C36.9973 58.1196 36.905 58.1747 36.8175 58.2362C36.6006 57.6679 36.4047 56.677 37.0506 55.6602C37.3825 55.1388 37.7711 54.7083 38.1468 54.2921C38.8106 53.557 39.387 52.9175 39.4015 52.0302C39.4613 52.286 39.4355 52.5596 39.5213 52.809C39.5294 52.8349 39.5408 52.8592 39.5538 52.8818Z" fill="black"/>
<path d="M40.8389 52.8641C40.8356 53.5992 40.4243 54.5317 38.6807 55.5371C37.4907 56.2236 37.5959 57.3019 37.7271 57.8071L37.4243 57.9123H37.4227C37.2753 57.3327 37.141 56.052 38.5188 55.257C40.0164 54.3924 40.4503 53.6217 40.507 52.9936C40.5798 52.9579 40.6528 52.9256 40.7207 52.9012C40.7596 52.8883 40.7984 52.8753 40.839 52.864L40.8389 52.8641Z" fill="black"/>
<path d="M42.7032 56.8713C42.0977 57.3862 41.3125 57.4542 40.6552 57.5108L40.469 57.5286C40.2779 57.5464 40.1468 57.6112 40.0642 57.7262C39.98 57.8476 39.9606 58.0047 39.9638 58.131C39.8651 58.0581 39.7615 57.9949 39.6514 57.9399C39.6691 57.8071 39.7113 57.6662 39.7988 57.5416C39.9364 57.3457 40.1518 57.2323 40.4383 57.2048L40.6261 57.1886C41.2381 57.1352 41.9133 57.0769 42.4362 56.6721C42.5349 56.7207 42.6239 56.7887 42.7032 56.8713Z" fill="black"/>
<path d="M40.4509 64.2623C40.4687 64.2623 40.4869 64.2593 40.5046 64.2531C40.5889 64.2234 40.6333 64.131 40.6036 64.0466C40.1851 62.8563 40.6028 60.5728 40.6077 60.5517C40.6271 60.4675 40.5775 60.3809 40.4944 60.3575C40.4106 60.3336 40.3247 60.3782 40.2973 60.4602C40.291 60.4791 39.842 62.8569 40.2981 64.154C40.3215 64.2207 40.3842 64.2623 40.4509 64.2623Z" fill="black"/>
<path d="M34.0909 64.9854C33.9182 65.0993 33.6245 65.1028 33.3759 65.033C32.9845 64.923 32.5961 64.5956 32.679 64.0063C32.7525 63.4846 33.0868 63.1697 33.6042 63.1259C33.3819 62.8808 33.1533 62.753 32.9233 62.746C32.5868 62.736 32.3134 62.9818 32.1801 63.1293C32.1801 63.1293 32.0735 63.3211 31.909 63.1449C31.8265 63.0565 31.9397 62.9124 31.9397 62.9124C32.2343 62.586 32.5871 62.412 32.933 62.4224C33.2926 62.4334 33.6329 62.6366 33.9443 63.0265C34.0067 63.1046 34.0183 63.209 33.9746 63.2991C33.9306 63.3897 33.8409 63.4455 33.7403 63.4446C33.3062 63.4417 33.0568 63.6459 32.9997 64.0516C32.949 64.4115 33.1506 64.5872 33.3288 64.6713C33.5911 64.7952 33.8753 64.7568 33.9198 64.7089C33.9551 64.6268 34.0483 64.5927 34.1305 64.6282C34.2125 64.6636 34.2483 64.7627 34.2127 64.8447C34.1874 64.9033 34.1451 64.9499 34.0909 64.9856V64.9854Z" fill="black"/>
<path d="M37.4308 61.3124C37.2333 61.2957 37.1127 61.0898 37.2016 60.9127C37.397 60.5235 37.9245 59.8117 38.6353 59.9035C39.0398 59.9558 39.1443 60.2063 39.2529 60.351C39.4063 60.5553 39.3198 60.8495 39.0848 60.95C38.7181 61.1068 38.0168 61.3618 37.4308 61.3124Z" fill="black"/>
<path d="M40.6025 61.0853C40.7999 61.1128 41.0833 61.142 41.3878 61.1387C41.3052 60.7437 41.2112 60.3211 41.0963 59.8968V59.8952C41.0235 59.9066 40.8341 59.926 40.7611 59.9568C40.6737 59.994 40.6041 60.0361 40.549 60.083C40.3661 60.2336 40.3337 60.423 40.2819 60.551C40.1879 60.789 40.3498 61.0496 40.6025 61.0853Z" fill="black"/>
<path d="M41.3906 61.8671C41.3725 61.8411 41.3489 61.8211 41.3197 61.8069C41.2672 61.7789 41.1917 61.7688 41.1347 61.789C41.0754 61.81 41.0192 61.8488 40.9912 61.9071L40.9692 61.9652C40.963 61.992 40.9628 62.0186 40.9655 62.0451C40.9841 62.1594 40.9926 62.2751 40.9905 62.3909C40.9903 62.4248 40.9983 62.4561 41.0147 62.4848C41.0255 62.5152 41.0435 62.5413 41.0686 62.5627C41.1115 62.6023 41.1808 62.6313 41.2401 62.6271C41.3037 62.6224 41.3695 62.5991 41.412 62.5491C41.4539 62.4995 41.4751 62.4432 41.4763 62.3777C41.4788 62.2335 41.4625 62.0924 41.4381 61.9504C41.4295 61.9181 41.4137 61.8902 41.3906 61.8671Z" fill="black"/>
<path d="M38.6777 61.9234C38.6595 61.8975 38.6359 61.8775 38.6069 61.8633C38.5543 61.8353 38.4789 61.8252 38.4219 61.8454C38.3626 61.8664 38.3063 61.9052 38.2784 61.9635L38.2564 62.0216C38.2501 62.0484 38.25 62.075 38.2526 62.1015C38.2711 62.2158 38.2796 62.3315 38.2775 62.4473C38.2773 62.4811 38.2853 62.5125 38.3017 62.5412C38.3125 62.5716 38.3305 62.5977 38.3556 62.6191C38.3986 62.6587 38.4678 62.6877 38.527 62.6835C38.5906 62.6788 38.6565 62.6555 38.6989 62.6055C38.7408 62.5559 38.762 62.4996 38.7632 62.4341C38.7658 62.2899 38.7494 62.1488 38.725 62.0068C38.7164 61.9745 38.7007 61.9466 38.6777 61.9234Z" fill="black"/>
<path d="M40.1457 67.609C40.5144 67.609 40.8587 67.4537 41.0055 67.1967C41.0498 67.1191 41.0229 67.0201 40.9453 66.9758C40.8674 66.9316 40.7686 66.9585 40.7244 67.0361C40.6196 67.2193 40.2617 67.3502 39.8961 67.253C39.6594 67.1902 39.2623 66.9837 39.2623 66.3069C39.2623 65.6145 39.4872 65.2127 39.9128 65.1446C40.3286 65.079 40.7513 65.3503 40.8044 65.512C40.8322 65.5968 40.9238 65.643 41.0088 65.6153C41.0936 65.5873 41.14 65.4959 41.1121 65.4109C41.001 65.0725 40.4189 64.7356 39.8616 64.8248C39.5169 64.8798 38.9385 65.1458 38.9385 66.3068C38.9385 66.9498 39.2655 67.4206 39.8131 67.5659C39.9231 67.5951 40.0355 67.609 40.1457 67.609Z" fill="black"/>
</g>
<path d="M10 5.92246C12.485 5.92246 14.5 8.57466 14.5 11.8449C14.5 8.57466 16.5153 5.92246 19 5.92246C16.515 5.92246 14.5 3.27026 14.5 0C14.5 3.27026 12.485 5.92246 10 5.92246Z" fill="#FFBBD0"/>
<path d="M104.032 44.9297C105.717 44.6587 106.863 43.0731 106.592 41.3882C106.321 39.7032 104.736 38.5569 103.051 38.8279C101.366 39.0989 100.22 40.6845 100.491 42.3694C100.762 44.0544 102.347 45.2007 104.032 44.9297Z" fill="#87E6C8"/>
</svg>
