<svg width="75" height="92" viewBox="0 0 75 92" fill="none" xmlns="http://www.w3.org/2000/svg">
<path d="M35.8563 35.43C35.8563 35.43 50.0427 48.1916 55.5334 66.3646C61.024 84.5384 18.1937 63.5023 18.1937 63.5023C18.1937 63.5023 9.56063 47.4917 8.71499 41.3615C7.62774 33.4812 10.1843 29.4704 16.9298 24.5378C23.6746 19.6051 35.8563 35.43 35.8563 35.43Z" fill="#2E1616"/>
<path d="M19.4081 28.9993C18.428 29.8744 17.4525 30.7601 16.5729 31.7378C15.7144 32.6922 14.9458 33.7425 14.4256 34.9211C14.1553 35.5319 13.9582 36.1752 13.8442 36.8336C13.7106 37.6022 13.6894 38.3875 13.7242 39.1652C13.7589 39.9451 13.851 40.7213 13.9514 41.4944C14.0541 42.285 14.1606 43.0755 14.2648 43.8653C14.4762 45.4629 14.6876 47.0606 14.899 48.6582C14.9254 48.8591 14.9519 49.0592 14.9783 49.26C14.9911 49.3559 14.8401 49.3551 14.8273 49.26C14.6128 47.6427 14.3992 46.0247 14.1847 44.4074L13.8661 42.0011C13.7627 41.2196 13.6577 40.4381 13.6011 39.6514C13.4931 38.1685 13.5815 36.6758 14.1168 35.276C14.5751 34.077 15.2954 32.9995 16.1222 32.024C16.9799 31.013 17.9516 30.1054 18.9362 29.2198C19.0577 29.1103 19.1793 29.0016 19.3016 28.8929C19.3741 28.8287 19.4813 28.9344 19.4081 28.9993Z" fill="#B37152"/>
<path d="M24.7209 34.8486C23.0772 34.0649 21.7113 32.7964 20.6535 31.3263C19.4764 29.6894 18.6972 27.8056 18.1385 25.878C17.8017 24.7167 17.5428 23.5343 17.3125 22.3482C17.2944 22.253 17.4393 22.2123 17.4582 22.3082C17.8614 24.383 18.3529 26.4594 19.1933 28.4066C19.9325 30.1183 20.951 31.7235 22.3154 33.0055C23.0515 33.6971 23.8843 34.2838 24.7972 34.7187C24.8848 34.7602 24.8085 34.8909 24.7209 34.8493V34.8486Z" fill="#B37152"/>
<path d="M31.5443 54.2584C31.2929 52.9318 31.0151 51.6112 30.7085 50.2967C30.402 48.9822 30.0683 47.6737 29.7073 46.3735C29.3464 45.0726 28.9576 43.78 28.5423 42.4956C28.1286 41.2174 27.6891 39.9474 27.2225 38.6872C26.7536 37.421 26.2591 36.1654 25.7374 34.9203C25.6702 34.7595 25.6022 34.5979 25.5335 34.4379C25.4957 34.3495 25.6256 34.2725 25.6641 34.3616C26.1926 35.6044 26.6955 36.857 27.1712 38.1209C27.6468 39.3841 28.0968 40.6571 28.5189 41.9392C28.9432 43.2273 29.3412 44.5237 29.7111 45.8284C30.0796 47.127 30.4201 48.4332 30.7342 49.7463C31.049 51.0653 31.336 52.3912 31.5957 53.7215C31.6282 53.8869 31.6599 54.053 31.6908 54.2184C31.7089 54.3135 31.5632 54.3543 31.5451 54.2584H31.5443Z" fill="#B37152"/>
<path d="M59.091 12.5101C59.091 12.5101 58.0686 14.6959 61.8559 14.8597C67.6191 15.1097 75.7237 17.0531 74.1124 25.5707C72.3608 34.835 59.3862 36.4335 55.0621 34.1525C51.9098 32.4899 45.3953 20.1639 45.4708 19.2684C45.5463 18.3722 59.0902 12.5101 59.0902 12.5101H59.091Z" fill="#452121"/>
<path d="M61.872 32.6809C63.1752 32.3441 64.381 31.6684 65.3595 30.7457C66.3584 29.8049 67.1097 28.612 67.4872 27.2899C67.8919 25.8735 67.8821 24.3422 67.4578 22.9318C67.0523 21.5818 66.2565 20.3828 65.1798 19.4745C64.15 18.6055 62.8823 18.0128 61.5489 17.8097C61.382 17.784 61.2144 17.7659 61.046 17.753C60.9501 17.7455 60.9486 17.5945 61.046 17.602C62.4247 17.7077 63.7566 18.2212 64.8688 19.0389C66.0074 19.8762 66.8998 21.0155 67.4117 22.3346C67.9561 23.7375 68.0731 25.2996 67.7696 26.772C67.4819 28.1673 66.7971 29.4539 65.8254 30.492C64.8899 31.4917 63.7015 32.2566 62.4005 32.6831C62.2397 32.736 62.0766 32.7836 61.912 32.8259C61.8177 32.85 61.7776 32.7043 61.872 32.6801V32.6809Z" fill="#B37152"/>
<path d="M55.2403 16.9784C56.3396 16.5404 57.5031 16.2754 58.6802 16.1652C59.8747 16.0534 61.082 16.1033 62.2651 16.2981C63.4422 16.4921 64.5952 16.8349 65.684 17.3242C66.71 17.7855 67.6803 18.3767 68.5229 19.1249C69.2945 19.8113 69.9582 20.6237 70.4596 21.5267C70.9435 22.398 71.278 23.3539 71.4207 24.3415C71.5642 25.3351 71.5159 26.3506 71.2712 27.3239C71.007 28.3794 70.5169 29.3715 69.8714 30.2459C69.179 31.1829 68.3145 31.9825 67.3488 32.6318C66.3771 33.2849 65.3042 33.7863 64.1882 34.1411C63.9149 34.2279 63.6386 34.3057 63.3607 34.3752C63.2663 34.3986 63.2263 34.2529 63.3207 34.2295C64.4396 33.9509 65.5239 33.531 66.5273 32.9618C67.5308 32.3925 68.4519 31.6744 69.2198 30.8114C69.9522 29.9877 70.5434 29.031 70.9126 27.9906C71.2463 27.049 71.3943 26.0479 71.3407 25.0497C71.2878 24.0689 71.0417 23.1002 70.634 22.207C70.2164 21.2919 69.6358 20.4545 68.9367 19.732C68.1839 18.9535 67.302 18.3216 66.3461 17.8157C65.3072 17.266 64.192 16.8636 63.0458 16.6039C61.8937 16.3426 60.7083 16.2271 59.5274 16.2633C58.3593 16.2988 57.1943 16.4846 56.0791 16.8372C55.8088 16.9225 55.5423 17.0184 55.2795 17.1226C55.1889 17.1588 55.1497 17.0123 55.2395 16.9768L55.2403 16.9784Z" fill="#B37152"/>
<path d="M0.510605 24.5884C1.49367 22.2115 3.604 20.1254 5.47423 18.5194C9.71981 14.8726 13.9865 11.2529 18.4412 7.8575C21.4727 5.54709 25.3604 2.14791 28.9718 0.788837C36.0903 -1.88928 41.1218 2.72626 46.1776 7.51774C47.5185 8.78922 48.8074 10.1143 50.0419 11.4877C53.7763 12.726 57.4473 14.1923 60.9733 15.9236C63.5744 17.2003 65.3993 18.7927 65.4545 21.9707C65.5118 25.3027 64.0206 28.2888 61.862 30.6008C59.951 32.6477 58.4771 35.1091 56.8327 37.3682C56.0799 38.4018 55.3196 39.449 54.3833 40.3279C53.959 40.7266 53.4305 41.2415 52.877 41.4491C52.729 41.5043 52.5705 41.5246 52.424 41.5073C52.4308 41.5216 52.4376 41.536 52.4451 41.5503C52.6611 41.9837 52.0102 42.3673 51.7936 41.9316C50.2155 38.7597 50.3356 35.2835 51.2303 31.9772C50.9849 32.8832 46.4947 35.5085 41.1936 32.4982C41.1936 32.4982 35.7686 35.5938 30.2281 33.6353C24.4717 31.5997 20.6747 30.3463 20.3228 24.007C18.0471 26.0018 14.7234 29.0356 14.5354 29.1805C11.8853 31.2282 8.6922 33.4042 5.16541 32.9784C1.03082 32.4793 -1.03118 28.3213 0.512115 24.5891L0.510605 24.5884Z" fill="#FFA982"/>
<path d="M15.3845 10.2427C15.6472 18.1042 20.3217 24.0063 20.3217 24.0063C20.6735 30.3456 25.1547 32.8199 30.8273 35.0782C33.8195 36.2696 41.1925 32.4975 41.1925 32.4975C46.2595 35.6664 50.644 33.0728 51.1831 32.086L51.2292 31.9765C53.6891 33.4639 56.3634 34.3103 58.6301 34.7928C58.7546 34.8192 60.1205 33.2336 60.2534 33.0622C61.876 30.9617 63.7319 28.868 64.767 26.3847C65.6119 24.3581 65.8845 22.0787 65.3038 19.9585C64.7798 18.0438 62.6771 16.7255 60.9918 15.8979C57.465 14.1674 53.7767 12.7275 50.0415 11.4885C48.807 10.1151 47.5182 8.79001 46.1772 7.51853C41.1222 2.72706 36.0907 -1.88849 28.9714 0.789631C25.3608 2.1487 21.4731 5.54788 18.4416 7.8583C18.1849 8.05385 17.9282 8.25092 17.6723 8.44798C17.4163 8.6458 17.1611 8.84362 16.9067 9.0422C16.6862 9.21434 16.4665 9.38649 16.2467 9.56015C16.1984 9.5979 16.1493 9.63566 16.101 9.67492C15.8972 9.83574 15.6941 9.99732 15.491 10.1589C15.4555 10.1861 15.42 10.214 15.3845 10.2435V10.2427Z" fill="#6687D4"/>
<path d="M50.5507 18.1532C49.5042 18.3322 48.4102 18.1472 47.4777 17.639C46.5611 17.14 45.8423 16.3268 45.4338 15.3679C45.2073 14.8371 45.079 14.2686 45.0578 13.6917C45.0541 13.5943 45.2051 13.5943 45.2088 13.6917C45.2451 14.6891 45.6211 15.6676 46.2568 16.437C46.9024 17.2185 47.8024 17.7523 48.7915 17.966C49.3555 18.0883 49.9422 18.1034 50.5107 18.0067C50.6058 17.9909 50.6466 18.1359 50.5507 18.1525V18.1532Z" fill="#2E1616"/>
<path d="M18.1224 12.5719C17.7502 11.2899 17.5758 9.95422 17.6082 8.62007C17.6105 8.52342 17.7615 8.52267 17.7592 8.62007C17.7275 9.94214 17.8989 11.2619 18.2681 12.5319C18.2953 12.6255 18.1496 12.6656 18.1224 12.5719Z" fill="#2E1616"/>
<path d="M20.3211 24.0062L30.6583 13.968L33.042 8.37542C33.042 8.37542 31.9585 6.86308 30.1517 6.71962C28.8848 6.6192 27.981 6.76266 25.5211 7.72609C20.2728 9.78281 16.1503 12.5312 12.5344 14.5365C12.5344 14.5365 14.9203 24.1791 20.3211 24.0062Z" fill="#FFA982"/>
<path d="M51.242 17.8165C54.1534 18.299 54.8216 15.7854 54.774 13.1979C53.2119 12.5848 51.6323 12.0155 50.0407 11.4878C49.26 10.6195 48.4582 9.77005 47.6344 8.94177C46.5268 11.4621 45.0658 16.7919 51.242 17.8165Z" fill="#FFA982"/>
<path d="M49.5406 8.69635L47.7368 10.482C47.7368 10.482 47.4771 12.951 48.5885 13.4093C49.6999 13.8676 50.7109 11.0528 50.7109 11.0528L49.5406 8.69635Z" fill="#FFA982"/>
<path d="M52.1584 4.93249C53.0606 4.17821 55.5915 3.60513 57.5093 5.49877C59.2406 7.20817 60.5514 10.0479 58.808 12.843C57.3055 15.2516 56.5112 16.0421 54.8184 17.7055C53.605 18.8969 51.7076 19.9781 50.1613 18.6009C48.4051 17.0373 48.7395 14.486 48.923 12.9729C49.1065 11.4598 48.7101 7.81749 52.1591 4.93249H52.1584Z" fill="#FFA982"/>
<path d="M56.359 15.6291C56.4398 15.7446 56.4934 15.8262 56.5696 15.9145C56.9056 15.7333 57.1382 15.4788 57.2529 15.1013C57.145 14.9111 56.9917 14.717 56.7893 14.5351C56.1536 13.9635 55.7179 14.042 55.536 14.4437C55.3283 14.9028 55.983 15.0915 56.359 15.6291Z" fill="#452121"/>
<path d="M54.529 15.5989C54.0904 16.0761 53.8291 16.8055 54.1002 17.4307C54.3554 18.0188 55.0085 18.2385 55.6035 18.0951C56.277 17.932 56.8447 17.3778 57.0448 16.7171C57.2245 16.1244 57.0773 15.4268 56.5005 15.1142C55.8315 14.751 55.0123 15.087 54.5283 15.5997C54.4611 15.6707 54.3546 15.5634 54.4218 15.4932C54.9035 14.9828 55.6692 14.6536 56.3653 14.8922C57.0328 15.121 57.3491 15.8051 57.2525 16.477C57.1437 17.2351 56.5775 17.9026 55.867 18.1721C55.2358 18.4122 54.4747 18.2906 54.0783 17.7055C53.6056 17.0071 53.8925 16.0693 54.4218 15.4932C54.4875 15.4215 54.594 15.5287 54.5283 15.5997L54.529 15.5989Z" fill="#F5E3D9"/>
<path d="M53.0003 13.9054C53.4375 14.2527 52.8863 14.8409 52.6077 15.0334C52.4265 15.1588 52.1667 15.2698 51.9719 15.1097C51.6865 14.8764 51.9765 14.4671 52.1524 14.2648C52.3487 14.039 52.7141 13.6781 53.0003 13.9062V13.9054Z" fill="#2E1616"/>
<path d="M55.4983 15.9319C55.9355 16.2792 55.3843 16.8674 55.1057 17.0599C54.9245 17.1853 54.6648 17.2962 54.47 17.1362C54.1846 16.9029 54.4745 16.4936 54.6504 16.2913C54.8467 16.0655 55.2122 15.7046 55.4983 15.9326V15.9319Z" fill="#2E1616"/>
<path d="M54.6432 15.0183C54.5277 15.2554 54.4114 15.4924 54.2959 15.7288C54.1887 15.9477 54.0943 16.1825 53.9614 16.3872C53.8603 16.5427 53.7191 16.6756 53.528 16.6975C53.368 16.7156 53.1958 16.6544 53.1226 16.5034C53.0803 16.4166 53.2109 16.3396 53.2532 16.4272C53.3144 16.5533 53.4722 16.5752 53.5937 16.5291C53.7598 16.4664 53.855 16.2845 53.9297 16.135C54.1283 15.7393 54.3193 15.3392 54.5134 14.9413C54.5564 14.8537 54.6863 14.9307 54.644 15.0175L54.6432 15.0183Z" fill="#2E1616"/>
<path d="M52.3809 17.2396C52.1257 16.8296 51.9897 16.3532 51.989 15.87C51.989 15.7726 52.14 15.7726 52.14 15.87C52.14 16.3275 52.2691 16.7753 52.5107 17.1634C52.5621 17.2464 52.4314 17.3219 52.3801 17.2396H52.3809Z" fill="#2E1616"/>
<path d="M48.9365 17.0727C48.7153 16.3653 48.5816 15.6336 48.5439 14.8937C48.5386 14.7963 48.6896 14.797 48.6949 14.8937C48.7319 15.6208 48.8655 16.3381 49.0822 17.0327C49.1109 17.1256 48.9652 17.1656 48.9365 17.0727Z" fill="#2E1616"/>
<path d="M15.606 12.8506C14.194 13.706 12.7897 14.5751 11.3898 15.4494C9.96205 16.3419 8.53881 17.2404 7.11707 18.1419C6.34089 18.6342 5.56471 19.1272 4.78853 19.621C4.70623 19.6731 4.63073 19.5425 4.71227 19.4904C6.10532 18.6047 7.49912 17.7191 8.89594 16.8379C10.3199 15.9394 11.7462 15.0455 13.1785 14.1598C13.9607 13.6766 14.7445 13.1956 15.5305 12.7192C15.6135 12.6686 15.6898 12.7992 15.6067 12.8498L15.606 12.8506Z" fill="#2E1616"/>
<path d="M54.9192 8.54834C54.9192 8.54834 54.2012 12.3266 57.8231 14.4361C57.8231 14.4361 59.1754 12.7932 59.5295 11.3171C59.8836 9.84021 59.414 7.08885 57.9039 5.41116C56.3938 3.73347 54.1121 3.60511 52.8029 4.22273C51.4944 4.84035 50.1519 6.28323 49.4807 8.29692L48.4493 9.77603C48.4493 9.77603 48.1496 12.239 49.7661 11.2416C50.2176 10.963 52.0644 11.1827 52.0644 11.1827C52.0644 11.1827 53.4703 11.3171 54.9192 8.54834Z" fill="#452121"/>
<path d="M54.2676 3.9683C54.3431 5.16428 54.1445 6.36328 53.6877 7.47092C53.2709 8.48267 52.6669 9.45969 51.8613 10.2079C51.4286 10.6096 50.9303 10.9388 50.3716 11.1329C50.2795 11.1646 50.2402 11.0188 50.3315 10.9871C51.3244 10.6421 52.1029 9.85684 52.6873 9.00667C53.32 8.08552 53.7775 7.03828 53.9935 5.94046C54.1211 5.29112 54.1588 4.62745 54.1173 3.96754C54.1113 3.87014 54.2623 3.8709 54.2683 3.96754L54.2676 3.9683Z" fill="#B37152"/>
<path d="M49.8752 10.3853C49.8752 10.3853 49.8752 15.5241 45.4703 14.4958C42.0749 13.7037 42.235 3.96826 42.235 3.96826C42.235 3.96826 43.5812 4.99813 44.9675 6.19034C46.4504 7.4656 47.5716 8.68876 48.5101 8.69555C49.1489 8.70009 49.8307 7.4203 49.8307 7.4203L49.876 10.3853H49.8752Z" fill="#452121"/>
<path d="M52.1371 4.82678C51.8335 5.9246 51.447 7.00355 50.9524 8.03041C50.4858 8.99987 49.9195 9.94065 49.1849 10.7319C48.864 11.0777 48.5099 11.4092 48.0969 11.6425C47.6657 11.8856 47.1591 12.0812 46.6585 12.0872C46.1496 12.094 45.6951 11.8079 45.387 11.4175C45.0193 10.9509 44.8668 10.365 44.7566 9.79191C44.5316 8.62311 44.4206 7.42864 44.3602 6.24097C44.3534 6.10279 44.3473 5.96462 44.3421 5.82645C44.3383 5.72905 44.4893 5.72905 44.4931 5.82645C44.5361 6.97411 44.632 8.12478 44.8155 9.25885C44.9076 9.83042 45.0027 10.4284 45.2677 10.9494C45.4973 11.4017 45.8884 11.8086 46.401 11.9151C46.8692 12.0125 47.3954 11.8237 47.8115 11.6229C48.2343 11.4183 48.5891 11.1261 48.9183 10.7938C49.6485 10.0584 50.2117 9.16749 50.6791 8.2471C51.1782 7.26404 51.57 6.22662 51.8834 5.17032C51.9211 5.04347 51.9574 4.91587 51.9929 4.78752C52.0185 4.69389 52.1643 4.73391 52.1386 4.82753L52.1371 4.82678Z" fill="#B37152"/>
<path d="M49.6618 13.3066C48.9476 12.5924 48.9476 11.4346 49.6618 10.7204C50.3759 10.0062 51.5338 10.0062 52.2479 10.7204C52.9621 11.4346 52.9621 12.5924 52.2479 13.3066C51.5338 14.0207 50.3759 14.0207 49.6618 13.3066Z" fill="#FFA982"/>
<path d="M54.6639 13.7068C54.1625 14.0435 54.0107 13.3745 53.3614 13.0846C52.7649 12.8173 52.4637 12.5002 52.6615 12.2314C52.9008 11.9068 53.6612 11.9113 54.3724 12.4844C55.0383 13.0204 55.0293 13.4621 54.6631 13.7075L54.6639 13.7068Z" fill="#452121"/>
<path d="M51.3588 11.2189C51.0855 11.1208 50.7774 11.1389 50.5237 11.2846C50.2957 11.416 50.1296 11.6372 50.0609 11.8902C50.0352 11.9838 49.8895 11.9438 49.9152 11.8501C49.9937 11.5602 50.1862 11.305 50.4475 11.154C50.7336 10.9894 51.0893 10.9622 51.3988 11.0732C51.4894 11.1057 51.4502 11.2521 51.3588 11.2189Z" fill="#2E1616"/>
<path d="M53.2637 25.5707C53.2629 26.5772 53.1776 27.5882 52.9435 28.5682C52.7246 29.4848 52.3712 30.372 51.8585 31.1648C51.5656 31.6178 51.2236 32.0376 50.8423 32.4189C50.7736 32.4876 50.6663 32.3812 50.7358 32.3124C51.3995 31.6488 51.931 30.8681 52.3078 30.0088C52.6861 29.1458 52.9073 28.2171 53.0175 27.2831C53.0847 26.7153 53.1127 26.143 53.1127 25.5715C53.1127 25.4741 53.2637 25.4741 53.2637 25.5715V25.5707Z" fill="#2E1616"/>
<path d="M60.1282 33.1686C59.0878 32.9459 58.0692 32.625 57.0733 32.2528C56.0321 31.8639 55.0106 31.4154 54.0253 30.9005C53.5103 30.6317 53.0044 30.344 52.5159 30.0299C52.4344 29.9779 52.5099 29.8465 52.5922 29.8993C53.4779 30.4686 54.4171 30.9549 55.376 31.389C56.3908 31.8488 57.4343 32.2505 58.4989 32.5805C59.0485 32.7511 59.605 32.9014 60.1682 33.0222C60.2634 33.0425 60.2234 33.1883 60.1282 33.1679V33.1686Z" fill="#2E1616"/>
<path d="M51.3353 12.7441C50.8657 13.2553 50.6792 14.0314 50.9993 14.6702C51.3036 15.2773 51.9862 15.5763 52.6438 15.4517C53.343 15.3188 53.9228 14.7616 54.0927 14.0722C54.2558 13.4116 54.0029 12.6905 53.3981 12.3477C52.7125 11.9589 51.8555 12.1937 51.3346 12.7441C51.2674 12.8151 51.1609 12.7079 51.2281 12.6376C51.737 12.0993 52.5441 11.8403 53.2531 12.1136C53.9545 12.3847 54.3623 13.1065 54.2845 13.8465C54.203 14.6204 53.648 15.2984 52.9088 15.5393C52.2142 15.7658 51.4282 15.5566 50.9948 14.9541C50.4814 14.2413 50.6581 13.2583 51.2281 12.6369C51.2938 12.5652 51.4003 12.6724 51.3346 12.7433L51.3353 12.7441Z" fill="#F5E3D9"/>
<path d="M54.3789 15.5529C54.2098 15.3113 54.0052 15.0961 53.7749 14.9118C53.7432 14.8862 53.7484 14.8318 53.7749 14.8054C53.8066 14.7737 53.8496 14.7797 53.8813 14.8054C54.1214 14.9979 54.3321 15.2244 54.5088 15.4766C54.5322 15.5098 54.5148 15.5604 54.4816 15.5801C54.4438 15.602 54.4016 15.5861 54.3781 15.5529H54.3789Z" fill="#F5E3D9"/>
<path d="M58.7825 12.8037C57.9285 11.9558 57.1992 10.9713 56.6804 9.88326C56.1557 8.78241 55.862 7.5751 55.8424 6.35421C55.831 5.66108 55.9103 4.96494 56.1021 4.29824C56.1293 4.20537 56.275 4.24463 56.2478 4.33825C55.9111 5.50479 55.9231 6.76042 56.1753 7.94281C56.4237 9.10708 56.9296 10.1966 57.6061 11.1729C57.9851 11.7195 58.417 12.2284 58.8889 12.6965C58.9576 12.7652 58.8512 12.8717 58.7825 12.803V12.8037Z" fill="#B37152"/>
<path d="M59.3624 11.2906C58.5001 9.98292 57.9648 8.46907 57.8696 6.90236C57.8432 6.46671 57.8515 6.02954 57.8923 5.59539C57.9014 5.4995 58.0524 5.49875 58.0433 5.59539C57.8998 7.11906 58.18 8.66085 58.8331 10.0448C59.0241 10.4503 59.2461 10.8406 59.4922 11.2144C59.5458 11.2959 59.4152 11.3714 59.3616 11.2906H59.3624Z" fill="#B37152"/>
<path d="M40.9864 3.00109C40.9864 3.00109 40.9154 9.61372 44.5547 14.008C44.5547 14.008 40.2865 10.5198 39.9225 2.26569L40.9864 3.00034V3.00109Z" fill="#452121"/>
<path d="M31.3206 28.9223L24.5502 19.1446C24.4316 18.9732 24.4739 18.7376 24.6453 18.6191L37.8683 9.46272C38.0397 9.34418 38.2753 9.38646 38.3938 9.55785L45.1642 19.3356C45.2828 19.507 45.2405 19.7418 45.0691 19.8611L31.8461 29.0175C31.6747 29.136 31.4392 29.0937 31.3206 28.9223Z" fill="#E6B99E"/>
<path d="M44.9342 19.1294C44.0915 19.7078 43.2497 20.2869 42.407 20.8653C41.4874 21.4972 40.567 22.1292 39.6474 22.7612C38.6998 23.412 37.7515 24.0636 36.8039 24.7145C35.8775 25.351 34.9518 25.9867 34.0254 26.6232C33.1707 27.2106 32.316 27.7973 31.4613 28.3847C31.3616 28.4534 31.2619 28.5221 31.1615 28.5901C31.0815 28.6452 31.006 28.5146 31.0852 28.4595C31.9279 27.8811 32.7697 27.302 33.6124 26.7236C34.532 26.0917 35.4524 25.4597 36.372 24.8277C37.3196 24.1769 38.2679 23.5253 39.2155 22.8744C40.1419 22.2379 41.0676 21.6022 41.994 20.9657C42.8487 20.3783 43.7034 19.7916 44.5581 19.2042L44.8579 18.9988C44.9379 18.9437 45.0134 19.0743 44.9342 19.1294Z" fill="#F5E3D9"/>
<path d="M30.4319 27.6395L23.9031 18.2106C23.7846 18.0392 23.8269 17.8036 23.9983 17.685L37.2212 8.5287C37.3926 8.41016 37.6282 8.45244 37.7467 8.62383L44.2756 18.0527C44.3941 18.2241 44.3518 18.459 44.1804 18.5783L30.9574 27.7346C30.7861 27.8531 30.5505 27.8109 30.4319 27.6395Z" fill="#F5E3D9"/>
<path d="M36.8805 11.1926L41.5652 17.9581C41.7131 18.1717 41.6599 18.4647 41.4463 18.6126L40.4518 19.3012C40.2383 19.4491 39.9452 19.3959 39.7973 19.1823L35.1126 12.4167C34.9647 12.2031 35.018 11.9101 35.2316 11.7622L36.226 11.0736C36.4396 10.9257 36.7326 10.979 36.8805 11.1926Z" fill="#31876F"/>
<path d="M26.5684 22.0613L25.0093 19.809C25.6798 19.3114 26.3638 18.8901 27.177 18.7489C27.6451 18.6674 28.083 18.6742 28.4757 18.3699C28.7407 18.163 28.9657 17.9501 29.2466 17.793C29.0329 17.5114 28.829 17.2207 28.6372 16.9225C28.5096 16.7239 28.632 16.5427 28.8064 16.4785C28.9815 16.4196 29.168 16.4725 29.3077 16.5835C29.8725 17.0357 30.4018 17.1543 31.1206 17.1709C30.8646 16.8659 30.5883 16.5782 30.4191 16.2082C30.293 15.9319 30.5565 15.6933 30.7815 15.7242C31.082 15.8231 31.1092 15.8737 31.2806 15.947C31.6446 16.0995 31.8635 16.1614 32.2154 16.2671C32.4917 16.3502 32.7688 16.4264 33.0482 16.4951C32.8594 16.2143 32.6639 15.9387 32.4592 15.6676C32.2335 15.3686 32.5861 14.9775 32.8473 15.1308C32.99 15.2055 33.0784 15.2939 33.2181 15.3988C33.579 15.6729 33.8485 15.7914 34.3068 15.8186C34.7621 15.8458 35.1993 15.762 35.644 15.9092C35.8267 15.9704 35.949 16.0746 36.057 16.246C36.0683 16.2633 36.7539 17.1822 36.8566 17.3242C36.9804 17.4963 37.0219 17.6571 37.0136 17.8497C36.9932 18.317 36.7592 18.6968 36.6225 19.1325C36.4859 19.5704 36.5002 19.8634 36.6278 20.2983C36.6776 20.4659 36.7275 20.5814 36.7479 20.74C36.7984 21.039 36.3062 21.2307 36.1068 20.9129C35.9271 20.6252 35.7384 20.3443 35.5428 20.0672C35.5081 20.3534 35.4817 20.6395 35.4613 20.928C35.4341 21.2942 35.4145 21.5207 35.4288 21.9148C35.4348 22.1013 35.4734 22.1443 35.459 22.4607C35.4069 22.6812 35.0913 22.8442 34.8776 22.6276C34.5915 22.3376 34.4201 21.9775 34.2275 21.6294C33.9874 22.3074 33.9097 22.845 34.1316 23.5336C34.186 23.7027 34.1686 23.8968 34.0509 24.0395C33.9301 24.1792 33.7179 24.229 33.5775 24.0395C33.366 23.7533 33.1667 23.4604 32.9795 23.1599C32.7333 23.3667 32.4532 23.5019 32.1655 23.6771C31.742 23.9345 31.5932 24.3468 31.3508 24.756C30.928 25.4688 30.3013 25.9626 29.5901 26.4246L27.886 23.9632C28.6486 23.4022 27.2706 21.5879 26.5684 22.0613Z" fill="#31876F"/>
<path d="M26.4123 10.325C26.4818 9.89687 26.7347 9.50803 27.0103 9.15165C27.4113 8.63294 27.8816 8.18294 28.4117 7.79636C28.9183 7.42714 29.5397 7.01942 30.183 6.98771C30.8142 6.956 31.3858 7.29652 31.8871 7.64837C31.9604 7.63629 31.9898 7.39317 32.0668 7.44451C33.3277 8.27958 33.9733 9.58429 34.6256 10.71C35.4041 12.054 36.1546 13.4184 36.7133 14.8703C36.97 15.5378 37.3226 16.3373 37.2932 17.0652C37.2698 17.6428 36.8432 18.1963 36.2256 18.1509C36.0315 18.1366 35.8647 18.0649 35.7182 17.9584C35.8443 18.604 35.9439 19.4277 35.3543 19.7886C34.6196 20.2379 33.7875 19.2994 33.3058 18.7316C33.3058 18.7474 33.3073 18.7633 33.3081 18.7799C33.3262 19.3552 33.2704 19.9842 32.7849 20.3662C31.6032 21.2964 30.7531 19.3379 30.3 18.5791C28.8081 16.0761 27.4362 13.5029 26.1843 10.8724C26.0688 10.6293 26.2198 10.4027 26.4116 10.325H26.4123Z" fill="#FFA982"/>
<path d="M33.2627 19.0834C32.5688 17.6141 31.8742 16.1448 31.1803 14.6755C30.9847 14.2617 30.7892 13.8472 30.5936 13.4334C30.5521 13.3459 30.6827 13.2696 30.7243 13.3572C31.4181 14.8265 32.1128 16.2958 32.8067 17.7651C33.0022 18.1789 33.1978 18.5934 33.3933 19.0071C33.4348 19.0947 33.3042 19.171 33.2627 19.0834Z" fill="#2E1616"/>
<path d="M35.7912 18.1207C35.0913 16.7277 34.3913 15.3347 33.6914 13.9416C33.4921 13.5445 33.292 13.1473 33.0927 12.7502C33.0489 12.6633 33.1795 12.5871 33.2233 12.6739C33.9232 14.0669 34.6231 15.46 35.3231 16.853C35.5224 17.2502 35.7225 17.6473 35.9218 18.0445C35.9656 18.1313 35.835 18.2076 35.7912 18.1207Z" fill="#2E1616"/>
<path d="M53.9284 54.9787C53.9284 54.9787 53.8015 51.1665 54.6321 49.6058C55.4626 48.0452 56.5446 46.2331 56.5446 46.2331L63.2138 48.3472C63.2138 48.3472 63.2267 50.2854 62.597 52.1473C61.968 54.01 60.9125 55.286 60.9125 55.286C60.9125 55.286 55.8417 56.8527 53.9276 54.9779L53.9284 54.9787Z" fill="#FF9A78"/>
<path d="M68.2609 51.0366L70.6143 40.8323C70.6611 40.6292 70.5343 40.4261 70.3312 40.3793L51.758 36.0952C51.5549 36.0484 51.3518 36.1752 51.305 36.3783L48.9515 46.5826C48.9047 46.7858 49.0315 46.9889 49.2346 47.0357L67.8078 51.3198C68.0109 51.3666 68.214 51.2397 68.2609 51.0366Z" fill="#FFD9C2"/>
<path d="M68.1825 50.8328C67.0899 50.5776 65.9982 50.3216 64.9056 50.0664C63.6002 49.7606 62.2939 49.4556 60.9885 49.1498C59.5992 48.8251 58.2099 48.4997 56.8199 48.175C55.4926 47.8647 54.1652 47.5544 52.8386 47.2433C51.7159 46.9806 50.5924 46.7178 49.4696 46.455C49.3526 46.4279 49.2356 46.3999 49.1185 46.3727C49.0241 46.3509 49.0642 46.2051 49.1585 46.227C50.2511 46.4822 51.3429 46.7382 52.4354 46.9934C53.7409 47.2992 55.0471 47.6042 56.3525 47.91C57.7418 48.2347 59.1318 48.5601 60.5211 48.8848C61.8485 49.1951 63.1758 49.5054 64.5024 49.8165C65.6252 50.0792 66.7487 50.342 67.8714 50.6047C67.9884 50.6319 68.1055 50.6599 68.2225 50.687C68.3169 50.7089 68.2769 50.8547 68.1825 50.8328Z" fill="#DBB29A"/>
<path d="M68.5714 49.6866L70.9249 39.4823C70.9717 39.2792 70.8448 39.0761 70.6417 39.0293L52.0685 34.7452C51.8654 34.6984 51.6623 34.8252 51.6155 35.0283L49.2621 45.2327C49.2152 45.4358 49.3421 45.6389 49.5452 45.6857L68.1184 49.9698C68.3215 50.0166 68.5246 49.8897 68.5714 49.6866Z" fill="#31876F"/>
<path d="M64.6479 47.1029C65.2496 44.7849 65.757 42.4443 66.167 40.0848C66.2501 39.6061 66.9847 39.782 66.9017 40.26C66.4917 42.6195 65.9843 44.9601 65.3825 47.278C65.261 47.7469 64.5256 47.5748 64.6479 47.1029Z" fill="#452121"/>
<path d="M66.6502 45.9054C66.919 44.6558 67.1871 43.407 67.4559 42.1574C67.5578 41.6825 68.2924 41.8569 68.1905 42.3326C67.9217 43.5821 67.6537 44.831 67.3849 46.0806C67.283 46.5555 66.5483 46.3811 66.6502 45.9054Z" fill="#452121"/>
<path d="M54.2413 42.5643C54.4754 42.5092 55.1096 42.3529 55.0749 42.0056C55.0409 41.6666 54.3742 41.7043 54.1318 41.622C53.7467 41.4914 53.3949 41.2936 53.1374 40.9727C52.4987 40.1754 52.8075 39.1727 53.293 38.3995C53.4598 38.1338 53.7143 38.0001 53.9015 38.1443C54.1227 38.3142 54.2134 38.7597 54.3538 38.9953C54.5614 39.3433 55.9152 40.7938 55.8299 39.6544C55.7748 38.9167 55.3889 38.1655 54.754 37.7653C54.6581 37.7049 54.5524 37.6475 54.4957 37.5494C54.1635 36.9733 55.9847 36.6637 56.2429 36.6358C57.4562 36.5067 58.6998 36.746 59.8293 37.1877C59.8308 37.1877 59.8316 37.1885 59.8323 37.1892C61.8747 37.8295 63.5056 39.366 64.7469 41.123C64.9538 41.4152 64.9379 41.5564 64.6185 41.5979C63.9126 41.6908 63.2481 41.3419 62.6071 41.1041C61.9359 40.8542 61.2458 40.5318 60.5338 40.4193C60.0815 40.3475 59.6443 40.4193 59.2117 40.5303C59.5205 40.5914 59.8429 40.6745 60.1849 40.7892C61.7569 41.32 63.0715 42.8701 63.0715 42.8709C63.264 43.0415 63.0888 43.5512 62.7664 43.5867C60.1993 43.8721 59.5356 43.4205 58.7187 43.2016C58.101 43.0362 58.5745 43.7384 58.7995 43.9121C59.4541 44.4157 60.274 44.5916 61.0736 44.7018C61.8604 44.8098 62.7559 44.8106 63.4022 45.3368C63.6521 45.5399 63.5909 45.6683 63.2617 45.8087C61.3553 46.6219 59.1883 47.0523 57.1361 46.5955C56.104 46.3659 55.1451 45.8744 54.2941 45.2545C53.5723 44.729 52.7071 44.0706 52.4949 43.1533C52.4164 42.812 52.4375 42.4699 52.8747 42.4699C53.0287 42.4699 53.179 42.5175 53.3284 42.5538C53.632 42.6278 53.9461 42.6338 54.2383 42.5658L54.2413 42.5643Z" fill="#452121"/>
<path d="M54.1919 35.1793C54.1919 35.1793 54.4871 33.4986 55.5245 31.8541C56.562 30.2096 58.2404 29.6486 60.5886 29.9658C63.0213 30.2942 63.8435 33.1045 64.3804 35.5538C64.9097 37.9692 65.303 40.864 64.0278 41.0656C63.0311 41.2226 62.1651 39.7737 61.9303 37.8272C61.9303 37.8272 62.1439 40.8247 62.0435 41.8206C61.9303 42.9449 60.3122 43.1865 59.749 41.9384C59.4311 41.234 59.3858 40.7137 59.3858 40.7137C59.3858 40.7137 59.0672 41.838 58.0101 41.7376C56.9531 41.6371 56.3505 38.4486 55.9073 35.6134L54.1919 35.1801V35.1793Z" fill="#FFA982"/>
<path d="M61.9686 38.611C61.801 37.0715 61.5624 35.5395 61.252 34.0219C61.1645 33.5945 61.0716 33.1679 60.9734 32.7421C60.9515 32.6477 61.0973 32.6069 61.1192 32.7021C61.471 34.2235 61.7526 35.7615 61.961 37.3093C62.0192 37.7427 62.072 38.1769 62.1196 38.611C62.1302 38.7077 61.9792 38.7069 61.9686 38.611Z" fill="#2E1616"/>
<path d="M59.3106 40.713C59.1965 38.7159 58.8824 36.737 58.4883 34.7777C58.3766 34.2227 58.2588 33.6685 58.1372 33.1158C58.1161 33.0214 58.2618 32.9807 58.2829 33.0758C58.7141 35.0412 59.1006 37.0201 59.3196 39.0225C59.3808 39.585 59.4291 40.1482 59.4608 40.7138C59.4661 40.8112 59.3151 40.8104 59.3098 40.7138L59.3106 40.713Z" fill="#2E1616"/>
<path d="M54.5717 33.667C54.4011 34.1638 54.2312 34.6606 54.0605 35.1582C54.0296 35.2496 53.8831 35.2103 53.9148 35.1182C54.0855 34.6214 54.2553 34.1246 54.426 33.627C54.4569 33.5356 54.6034 33.5749 54.5717 33.667Z" fill="#2E1616"/>
<path d="M54.0399 59.4968L53.9274 54.9779C56.234 55.2943 58.8396 53.6936 61.175 53.6573C62.4095 57.582 65.7218 71.3713 66.0374 73.5753C66.3493 75.7505 66.5403 77.9854 66.3523 80.1811C66.1771 82.2204 65.6244 84.2583 64.3771 85.9126C63.2596 87.3962 61.6793 88.4389 59.8219 88.6919C55.8165 89.2378 52.409 86.5468 50.3651 83.3545C49.0695 81.3318 48.1672 79.0697 47.3782 76.8106C46.6616 74.7599 53.9357 59.3216 54.0406 59.4976L54.0399 59.4968Z" fill="#FF9A78"/>
<path d="M54.2043 69.5902C54.307 71.0679 54.3931 72.547 54.4776 74.0261C54.5622 75.4999 54.6445 76.9738 54.7411 78.4461C54.7955 79.2781 54.8552 80.1102 54.9216 80.9422C54.9292 81.0389 54.7781 81.0389 54.7706 80.9422C54.6536 79.4714 54.5584 77.9991 54.4708 76.5268C54.3833 75.0514 54.3032 73.5761 54.2141 72.1007C54.1643 71.2634 54.1107 70.4268 54.0526 69.5902C54.0458 69.4936 54.1968 69.4936 54.2036 69.5902H54.2043Z" fill="#2E1616"/>
<path d="M53.9935 57.6085L54.4873 70.6208L47.0819 75.9483C47.0819 75.9483 45.5461 83.834 36.1837 87.4581C26.8212 91.0823 12.1735 88.7628 12.1735 88.7628L22.1928 71.1146C22.1928 71.1146 16.9808 68.6683 9.90834 65.3197C9.90834 65.3197 14.3193 55.8953 19.8801 53.3078C26.9156 50.0339 38.5417 51.0661 46.3246 52.9627C50.6192 54.0092 53.0218 55.8303 53.9935 57.6085Z" fill="#F5E3D9"/>
<path d="M37.4896 51.5561C36.4846 52.8948 35.5424 54.2803 34.5653 55.6401C34.3079 55.9987 34.0474 56.3559 33.7824 56.7085C33.725 56.7855 33.5936 56.71 33.6517 56.6322C34.6582 55.2928 35.6005 53.9073 36.5783 52.5467C36.8357 52.1888 37.0947 51.8324 37.3597 51.4798C37.4171 51.4028 37.5485 51.4783 37.4904 51.5561H37.4896Z" fill="#2E1616"/>
<path d="M44.337 58.0109C42.9704 57.5738 41.6151 57.1004 40.2583 56.6315C39.914 56.5122 39.5704 56.3936 39.2261 56.2744C39.1348 56.2426 39.174 56.0969 39.2662 56.1286C40.6207 56.596 41.973 57.0679 43.332 57.5224C43.6794 57.6387 44.0274 57.7535 44.3763 57.8652C44.4684 57.8947 44.4291 58.0404 44.3362 58.0109H44.337Z" fill="#2E1616"/>
<path d="M39.2471 56.1943C37.7574 56.3431 36.2678 56.491 34.7773 56.6398C34.424 56.6753 34.0706 56.71 33.718 56.7455C33.6213 56.7553 33.6221 56.6043 33.718 56.5945C35.2077 56.4457 36.6974 56.2978 38.1878 56.149C38.5412 56.1135 38.8945 56.0788 39.2471 56.0433C39.3438 56.0335 39.343 56.1845 39.2471 56.1943Z" fill="#2E1616"/>
<path d="M39.6158 55.4272C39.1764 56.6134 38.7233 57.7942 38.2552 58.9691C37.7894 60.1394 37.3099 61.3037 36.8169 62.4619C36.3216 63.6254 35.8119 64.7836 35.2887 65.9351C34.7654 67.0865 34.2286 68.2319 33.6774 69.3705C33.127 70.5091 32.5622 71.6409 31.9846 72.7659C31.9129 72.9048 31.8412 73.0445 31.7694 73.1834C31.7249 73.2695 31.5943 73.1933 31.6388 73.1072C32.2172 71.989 32.7827 70.8647 33.3339 69.7329C33.8858 68.6011 34.4234 67.4633 34.9482 66.3194C35.4752 65.1695 35.9878 64.0135 36.4869 62.8515C36.986 61.6895 37.4707 60.5222 37.9411 59.3489C38.41 58.1808 38.8645 57.0067 39.3055 55.8274C39.3606 55.6809 39.415 55.5337 39.4693 55.3872C39.5025 55.2966 39.649 55.3358 39.615 55.4272H39.6158Z" fill="#2E1616"/>
<path d="M37.327 51.5599L39.1527 56.4503L43.2412 52.2938C41.0878 51.7932 40.5495 51.6188 37.327 51.5606V51.5599Z" fill="#FF9A78"/>
<path d="M48.3553 65.3401C48.0352 66.7709 47.6622 68.1896 47.2364 69.5917C46.8105 70.9945 46.3318 72.3808 45.8025 73.7482C45.5073 74.51 45.1963 75.265 44.8693 76.014C44.8308 76.1031 44.7002 76.0261 44.7387 75.9378C45.3216 74.5999 45.8546 73.24 46.3364 71.8628C46.8158 70.4902 47.2447 69.1002 47.6214 67.6958C47.8344 66.9015 48.0299 66.1026 48.2096 65.3C48.2308 65.2049 48.3765 65.2457 48.3553 65.3401Z" fill="#2E1616"/>
<path d="M54.4875 49.9879C54.4875 49.9879 56.7406 45.2598 57.7199 44.5946C58.6991 43.9295 59.2012 44.9895 59.0095 46.0919C58.8184 47.1942 57.7017 50.8622 57.7017 50.8622L54.4875 49.9879Z" fill="#FF9A78"/>
<path d="M59.3907 52.6758C59.4028 51.4013 58.9702 50.1351 58.1744 49.1384C58.1139 49.0629 58.2204 48.9557 58.2808 49.032C59.1023 50.0603 59.5546 51.359 59.5417 52.6765C59.541 52.7739 59.39 52.7739 59.3907 52.6765V52.6758Z" fill="#2E1616"/>
<path d="M37.8384 65.2948L31.6282 80.1592L43.5585 83.4089L48.7441 71.8221C48.7441 71.8221 46.2601 67.6369 38.114 65.1649C38.003 65.131 37.8837 65.1876 37.8391 65.2948H37.8384Z" fill="white"/>
<path d="M36.3781 67.5652L36.7964 66.5308C36.8357 66.4326 36.9376 66.3752 37.0418 66.3918C38.1562 66.5677 44.2494 67.6935 48.7441 71.8228C48.7441 71.8228 38.1049 69.757 37.0312 69.0941C35.9576 68.4312 36.3781 67.5652 36.3781 67.5652Z" fill="white"/>
<path d="M48.5644 71.7647C48.0064 71.166 47.3601 70.6608 46.6798 70.2093C46.0108 69.7661 45.3132 69.366 44.6004 68.999C43.1379 68.2455 41.6029 67.6301 40.0324 67.1416C39.1694 66.8736 38.2943 66.6448 37.4102 66.4613C37.3151 66.4417 37.3551 66.296 37.4502 66.3156C39.0615 66.6493 40.6425 67.131 42.1722 67.7358C43.6876 68.3346 45.1607 69.0549 46.5341 69.9337C47.3065 70.4283 48.0457 70.9848 48.6723 71.6575C48.7388 71.7285 48.6323 71.8357 48.5659 71.764L48.5644 71.7647Z" fill="#D8B09A"/>
<path d="M36.4695 67.1786C40.8812 67.6399 45.1358 69.2353 48.7441 71.8228L42.8043 85.0949C39.3673 82.6312 35.3309 81.0592 31.1306 80.5783C30.8815 80.5496 30.7297 80.2906 30.8256 80.0588L36.0829 67.4104C36.1471 67.2564 36.3041 67.162 36.4695 67.1794V67.1786Z" fill="#A17270"/>
<path d="M41.1032 69.6861C42.8451 70.5974 44.5877 71.5087 46.3296 72.4201C46.76 72.6451 46.3787 73.2974 45.9483 73.0717C44.2064 72.1603 42.4638 71.249 40.7219 70.3377C40.2916 70.1127 40.6728 69.4603 41.1032 69.6861Z" fill="#2E1616"/>
<path d="M43.0585 72.522C43.9102 72.9486 44.7626 73.376 45.6143 73.8026C46.0484 74.02 45.6671 74.6716 45.233 74.4542C44.3813 74.0276 43.5289 73.6002 42.6772 73.1736C42.243 72.9562 42.6243 72.3046 43.0585 72.522Z" fill="#2E1616"/>
<path d="M30.8259 80.0588L36.0832 67.4097C36.1474 67.2564 36.3045 67.1612 36.4698 67.1786C37.391 67.2753 38.3061 67.421 39.2091 67.615C39.3541 68.0643 39.4296 68.543 39.4258 69.0141C39.4243 69.261 39.3979 69.5087 39.3548 69.7518C39.3118 69.9979 39.1117 70.383 39.2416 70.6087C39.3843 70.8579 39.6274 71.0761 39.792 71.3147C39.9634 71.5608 40.1136 71.8206 40.2337 72.0962C40.4685 72.633 40.5833 73.2136 40.5425 73.8003C40.4572 75.0333 39.8494 76.1477 39.2438 77.1965C39.2401 77.2033 39.2355 77.2085 39.2318 77.2146C40.5848 78.141 41.8457 79.482 41.5897 81.0925C41.4855 81.7471 41.1956 82.3798 40.9555 82.9929C40.8604 83.236 40.7637 83.4784 40.6641 83.72C37.7398 82.043 34.4879 80.9618 31.131 80.5775C30.8818 80.5488 30.73 80.2898 30.8259 80.0588Z" fill="#2E1616"/>
<path d="M11.431 66.0408C11.431 66.0408 5.57942 76.0322 4.17052 81.5689C2.76086 87.1056 6.13362 93.4985 14.288 91.6864C22.4424 89.8743 31.2258 78.9315 31.2258 78.9315L35.8564 70.1776C35.8564 70.1776 32.4459 68.3935 27.9157 70.759C24.0658 72.7697 19.8995 75.3776 19.8995 75.3776L22.1925 71.1146L11.431 66.0408Z" fill="#FF9A78"/>
<path d="M19.9181 75.4508C17.8576 76.7661 15.8084 78.1003 13.7728 79.4533C13.2043 79.8308 12.6365 80.2098 12.0702 80.5911C11.9894 80.6455 11.9139 80.5149 11.994 80.4605C14.0235 79.0977 16.0651 77.7522 18.1188 76.4263C18.6919 76.0564 19.2665 75.6872 19.8418 75.3202C19.9241 75.2681 19.9996 75.3987 19.9181 75.4508Z" fill="#2E1616"/>
<path d="M35.8569 70.1776C35.8569 70.1776 42.1992 73.012 42.9542 74.1695C43.7093 75.327 43.0297 75.8812 42.2747 76.1832C42.2747 76.1832 43.4337 76.7072 43.2834 77.8692C43.1302 79.0523 42.1169 79.1777 42.1169 79.1777C42.1169 79.1777 42.2755 81.5183 40.1357 81.0147C38.0321 80.5194 35.7232 79.907 33.9444 79.4042C32.1655 78.9006 31.2262 78.9315 31.2262 78.9315C31.2262 78.9315 30.2198 69.9775 35.8569 70.1776Z" fill="#FF9A78"/>
<path d="M42.0347 79.2509C40.9505 78.813 39.8617 78.3849 38.7722 77.9583C37.6019 77.5 36.4308 77.0447 35.259 76.5916C34.7599 76.3984 34.2601 76.2058 33.7602 76.0148C33.6704 75.9801 33.7096 75.8343 33.8003 75.8691C34.7901 76.2481 35.7792 76.6309 36.7675 77.0152C37.9673 77.4811 39.1663 77.95 40.363 78.4234C40.9338 78.6491 41.5047 78.8756 42.0747 79.1059C42.1638 79.1422 42.1245 79.2879 42.0347 79.2516V79.2509Z" fill="#2E1616"/>
<path d="M42.2857 76.2224C41.2014 75.7845 40.1127 75.3564 39.0231 74.9298C37.8528 74.4715 36.6818 74.0162 35.51 73.5632C35.0109 73.3699 34.511 73.1774 34.0112 72.9864C33.9214 72.9516 33.9606 72.8059 34.0512 72.8406C35.0411 73.2197 36.0302 73.6025 37.0185 73.9868C38.2183 74.4526 39.4173 74.9215 40.614 75.3949C41.1848 75.6207 41.7556 75.8472 42.3257 76.0775C42.4148 76.1137 42.3755 76.2594 42.2857 76.2232V76.2224Z" fill="#2E1616"/>
<path d="M25.7454 64.0867C25.3037 65.0411 24.859 65.994 24.3961 66.9385C23.9914 67.7653 23.5701 68.583 23.1382 69.3962C22.8385 69.9609 22.5334 70.5242 22.2284 71.0867C22.1823 71.172 22.0517 71.0958 22.0978 71.0104C22.5999 70.0863 23.099 69.1606 23.5807 68.2258C24.002 67.4074 24.4074 66.5814 24.8016 65.7493C25.0756 65.171 25.346 64.5911 25.6147 64.0105C25.6555 63.9221 25.7854 63.9991 25.7454 64.0867Z" fill="#2E1616"/>
<path d="M48.7442 71.8229C48.7442 71.8229 50.8417 68.5845 56.3633 66.629C56.5445 66.5648 56.719 66.743 56.651 66.9227L51.2933 81.0864L44.1793 83.1628L48.745 71.8221L48.7442 71.8229Z" fill="white"/>
<path d="M54.5315 68.5241C54.5315 68.5241 55.7622 68.0967 57.202 67.7675C57.3795 67.7268 57.5305 67.9012 57.4648 68.0703L53.0214 79.4548L51.6789 79.1527L54.5315 68.5241Z" fill="white"/>
<path d="M56.2201 68.0325C54.1838 68.6026 52.2018 69.4535 50.4327 70.6178C49.9518 70.9349 49.4874 71.2769 49.048 71.6492C48.974 71.7118 48.8668 71.6054 48.9415 71.5427C50.5634 70.1693 52.494 69.1696 54.4805 68.4372C55.0392 68.2311 55.6063 68.0476 56.1801 67.8868C56.2737 67.8604 56.3137 68.0061 56.2201 68.0325Z" fill="#D8B09A"/>
<path d="M48.7447 71.8228C51.3035 69.8258 54.4573 68.7121 57.6957 68.669C57.972 68.6653 58.1616 68.9469 58.0491 69.1998L52.5312 81.63C52.4708 81.7667 52.3349 81.8573 52.1854 81.8565C49.0037 81.8407 45.2919 83.1529 42.8041 85.0949L48.744 71.8228H48.7447Z" fill="#A17270"/>
<path d="M48.7503 71.807C48.0058 73.5473 47.253 75.2847 46.4972 77.0198C45.746 78.7435 44.9917 80.4665 44.2389 82.1895C43.8123 83.1658 43.385 84.1428 42.9584 85.1191C42.9199 85.2081 42.7893 85.1311 42.8278 85.0428C43.5858 83.3077 44.3446 81.5734 45.1027 79.8383C45.8562 78.1153 46.609 76.3923 47.3565 74.6663C47.7801 73.6885 48.2014 72.71 48.6204 71.73C48.6582 71.6409 48.7888 71.7179 48.751 71.8062L48.7503 71.807Z" fill="#2E1616"/>
<path d="M30.956 79.069C29.7366 78.5956 28.6532 77.8028 27.8385 76.7789C27.7788 76.7034 27.8845 76.5962 27.9449 76.6725C28.743 77.6752 29.8008 78.4589 30.996 78.9232C31.0859 78.958 31.0466 79.1045 30.956 79.069Z" fill="#2E1616"/>
<path d="M43.2594 52.2606C43.5539 53.7178 43.8725 55.1705 44.1708 56.6269C44.2591 57.0565 44.3452 57.4869 44.429 57.9173C44.4479 58.0124 44.3021 58.0532 44.2833 57.9573C43.9994 56.5024 43.6845 55.0534 43.381 53.6023C43.2904 53.1681 43.2005 52.7347 43.113 52.2998C43.0941 52.2047 43.239 52.1647 43.2587 52.2598L43.2594 52.2606Z" fill="#2E1616"/>
<path d="M37.9173 45.6381L37.3276 51.5606C37.3276 51.5606 40.0812 53.6687 43.2418 52.2938L43.4834 47.7575L37.918 45.6381H37.9173Z" fill="#FF9A78"/>
<path d="M35.2197 41.7059C35.1246 40.534 36.1189 38.1368 38.7721 37.6649C41.1679 37.2391 44.1684 37.8408 45.5176 40.8466C46.8276 43.7641 47.3396 45.3089 47.5351 47.4751C47.6876 49.1687 47.2414 50.7648 45.2239 51.2314C42.9332 51.7615 41.0433 50.0158 39.9145 48.992C38.785 47.9682 35.5829 46.1878 35.2197 41.7066V41.7059Z" fill="#FF9A78"/>
<path d="M44.5512 42.5666C44.6878 43.1555 45.2828 42.8105 46.0129 42.9962C46.1586 43.0332 46.3285 43.0861 46.4493 43.1095C46.6804 42.7508 46.4788 42.1604 45.9933 41.9331C45.9065 41.912 45.8347 41.8893 45.5984 41.872C44.746 41.8086 44.4515 42.1378 44.5512 42.5666Z" fill="#963B24"/>
<path d="M43.1695 42.8422C43.3402 43.4221 42.6569 43.3655 42.1842 43.8978C41.7501 44.387 41.3575 44.5781 41.1604 44.3085C40.9225 43.9823 41.1559 43.259 41.9154 42.7524C42.6267 42.2782 43.045 42.4194 43.1695 42.8422Z" fill="#963B24"/>
<path d="M43.8832 47.525C44.6269 48.1841 45.4393 47.6239 45.7617 46.594C45.0875 46.6801 44.4057 46.7042 43.7246 46.6612C43.5865 46.6521 43.4453 46.6416 43.3033 46.628C43.4264 46.97 43.6083 47.2811 43.8832 47.525Z" fill="white"/>
<path d="M44.6217 43.937L44.972 44.4565C45.0853 44.6241 45.2114 44.7887 45.305 44.9692C45.4583 45.2644 45.4364 45.6117 45.1842 45.8465C45.1132 45.913 45.006 45.8058 45.0777 45.7401C45.1827 45.6427 45.2499 45.5113 45.2567 45.3671C45.265 45.198 45.1827 45.0462 45.0943 44.908C44.9003 44.606 44.6926 44.3115 44.4918 44.0133C44.4374 43.9325 44.5681 43.857 44.6224 43.937H44.6217Z" fill="#2E1616"/>
<path d="M43.134 51.3598C42.4733 51.1137 41.858 50.7686 41.3023 50.3352C41.226 50.2756 41.3332 50.1691 41.4087 50.2288C41.9425 50.6448 42.5398 50.9778 43.1732 51.2141C43.2638 51.2481 43.2246 51.3938 43.1332 51.3598H43.134Z" fill="#2E1616"/>
<path d="M33.3353 40.5167C33.9053 39.6303 35.3701 39.9512 35.614 40.0123C35.6185 40.004 35.6231 39.9957 35.6268 39.9867C35.4683 39.7413 34.5237 38.2304 35.3059 38.1481C35.6933 38.1074 35.9417 38.4796 36.0965 38.8964C36.4581 38.1995 37.0471 37.3501 37.8738 37.0405C38.428 36.8329 38.7814 36.9454 39.0064 37.1689C39.7901 36.7181 40.8962 36.2258 42.0009 36.2152C43.0383 36.2054 43.224 36.6826 42.962 37.2164C45.6379 37.1756 46.9358 38.1308 46.4986 38.808C46.325 39.0768 46.0917 39.2233 45.8417 39.295C45.9142 39.3441 45.9837 39.3939 46.0471 39.4468C47.2348 40.4291 46.3106 41.2536 45.5858 41.0029C45.2777 40.8761 44.9795 40.7311 44.6911 40.5658C44.8745 41.0218 44.5952 41.5269 44.0387 41.5632C43.3999 41.6062 42.6547 41.203 42.1058 40.9176C42.0439 40.8859 41.9827 40.8519 41.9216 40.8187C42.0514 41.2445 42.1353 41.7149 41.8974 42.0381C41.4927 42.5862 40.9385 42.3295 40.4243 41.8395C40.456 42.0826 40.4779 42.3273 40.4885 42.5727C40.5165 43.2786 40.524 44.1416 40.1684 44.7766C39.954 45.1564 39.6308 45.4222 39.2638 45.5709C39.3839 46.2565 39.3914 46.9594 39.2842 47.6541C39.1408 48.579 38.1034 48.9399 37.6141 48.6734L37.7032 47.1006C36.5593 45.9409 35.426 44.2639 35.2191 41.7059C35.2017 41.4937 35.2206 41.2415 35.278 40.9674C34.0647 41.3654 32.8271 41.3049 33.3353 40.5159V40.5167Z" fill="#963B24"/>
<path d="M40.3844 41.9784C39.5297 41.6726 38.7868 41.1094 38.2605 40.3702C38.2039 40.2909 38.3352 40.2154 38.3911 40.2939C38.8932 40.9992 39.6105 41.5413 40.4252 41.8327C40.5158 41.8652 40.4765 42.0109 40.3852 41.9784H40.3844Z" fill="#2E1616"/>
<path d="M38.4058 41.9097C37.8214 42.2684 36.9765 42.0411 36.6518 41.4371C36.6058 41.3517 36.7364 41.2755 36.7824 41.3608C37.0693 41.8946 37.8131 42.0962 38.3303 41.7791C38.4133 41.7277 38.4896 41.8584 38.4065 41.9097H38.4058Z" fill="#2E1616"/>
<path d="M42.5822 39.711C42.7476 39.6099 42.771 39.3992 42.7181 39.2271C42.6502 39.0081 42.4569 38.882 42.2432 38.8254C41.729 38.6895 41.1937 38.9077 40.6795 38.7544C40.6229 38.737 40.5995 38.6449 40.6614 38.6162C40.8471 38.5317 40.8992 38.3157 40.8524 38.1292C40.7935 37.8952 40.5783 37.7608 40.3563 37.7026C40.0951 37.6347 39.8089 37.6498 39.5447 37.6936C39.2517 37.7419 38.9693 37.8363 38.7058 37.9722C38.6198 38.0167 38.5427 37.8861 38.6296 37.8416C38.9414 37.6807 39.2766 37.575 39.6247 37.5305C39.932 37.4912 40.265 37.4882 40.5549 37.6113C40.7965 37.714 40.9808 37.9088 41.0132 38.1753C41.0412 38.4011 40.9551 38.6479 40.7376 38.7469C40.7316 38.7008 40.7256 38.6547 40.7195 38.6087C41.3047 38.7839 41.9525 38.4667 42.5135 38.7703C42.7196 38.882 42.8585 39.0738 42.888 39.3071C42.9152 39.517 42.8434 39.7284 42.6577 39.8417C42.5746 39.8923 42.4984 39.7616 42.5814 39.711H42.5822Z" fill="#2E1616"/>
<path d="M45.7907 39.3282C45.2026 39.0058 44.5366 38.8526 43.8661 38.8828C43.7687 38.8873 43.7695 38.7363 43.8661 38.7318C44.5623 38.7008 45.2562 38.8631 45.867 39.1976C45.9523 39.2444 45.876 39.375 45.7907 39.3282Z" fill="#2E1616"/>
<path d="M38.5662 47.1243C38.0114 46.2804 38.2459 45.1465 39.0898 44.5917C39.9337 44.0369 41.0676 44.2713 41.6224 45.1153C42.1772 45.9592 41.9428 47.0931 41.0989 47.6479C40.2549 48.2027 39.121 47.9683 38.5662 47.1243Z" fill="#FF9A78"/>
<path d="M39.9111 45.1413C39.6197 45.2719 39.4037 45.5286 39.3139 45.8337C39.2104 46.1832 39.2784 46.5608 39.4475 46.8786C39.4936 46.9647 39.3629 47.041 39.3169 46.9549C39.1289 46.6023 39.0534 46.1825 39.1681 45.7936C39.2686 45.4539 39.5094 45.1564 39.8348 45.0107C39.9224 44.9714 39.9994 45.1013 39.9111 45.1413Z" fill="#2E1616"/>
<path d="M23.3232 68.8283C21.7611 68.0975 20.2004 67.362 18.6428 66.6213C16.9953 65.8376 15.3508 65.0479 13.7124 64.246C12.875 63.836 12.0399 63.4238 11.2071 63.0047C11.1203 62.9609 11.1966 62.8311 11.2834 62.8741C12.8237 63.6488 14.373 64.4046 15.9254 65.1536C17.5691 65.9463 19.2166 66.7301 20.8663 67.5093C21.7097 67.9072 22.5538 68.3036 23.3987 68.6992C23.4863 68.74 23.4101 68.8706 23.3225 68.8298L23.3232 68.8283Z" fill="#2E1616"/>
<path d="M43.6297 44.5509C43.5504 44.7698 43.3828 44.9435 43.1638 45.025C42.935 45.1103 42.6655 45.0703 42.4654 44.9329C42.3861 44.8778 42.4616 44.7472 42.5417 44.8023C42.707 44.9171 42.9169 44.951 43.1087 44.8846C43.2808 44.8249 43.422 44.6815 43.4832 44.5108C43.5157 44.4202 43.6621 44.4595 43.6289 44.5509H43.6297Z" fill="#2E1616"/>
<path d="M45.474 44.3183C45.6243 44.4429 45.8009 44.4897 45.9897 44.43C46.1603 44.3757 46.297 44.2466 46.3702 44.0842C46.3876 44.0465 46.4405 44.0382 46.4737 44.057C46.5122 44.0789 46.5175 44.1235 46.5009 44.1605C46.4095 44.3613 46.2275 44.5176 46.0154 44.5795C45.9051 44.612 45.7866 44.6188 45.6741 44.5916C45.5578 44.5644 45.4574 44.4995 45.366 44.4247C45.2913 44.3628 45.3985 44.2564 45.4725 44.3183H45.474Z" fill="#2E1616"/>
</svg>
