<svg width="117" height="94" viewBox="0 0 117 94" fill="none" xmlns="http://www.w3.org/2000/svg">
<path d="M93.5177 51.2311C91.8154 46.8031 88.732 42.8645 84.4257 40.1366C79.8161 37.2167 74.5514 36.1577 69.5138 36.7547L68.4399 29.218C75.2096 28.374 82.2991 29.7795 88.4987 33.7067C94.579 37.5584 98.8304 43.221 101.001 49.5518L93.5177 51.2311Z" fill="#87E6C8"/>
<path d="M65.9345 32.6097L67.0084 40.1464C60.3994 40.9295 54.1821 44.565 50.3513 50.6122C43.6008 61.2687 46.7787 75.4307 57.4354 82.1812C68.0919 88.9316 82.2539 85.7535 89.0041 75.0967C93.0268 68.7465 93.5223 61.1521 91.012 54.6226L98.4138 52.9615L98.4961 52.9469C101.394 61.4019 100.578 71.0489 95.4341 79.1694C86.4375 93.3717 67.5644 97.6068 53.3624 88.6106C39.1602 79.614 34.9251 60.7409 43.9213 46.5386C48.9907 38.5365 57.1961 33.699 65.9345 32.6097Z" fill="#FCCA65"/>
<path d="M87.8471 76.748C88.2519 76.2179 88.6407 75.6701 89.0041 75.0966C93.0268 68.7464 93.5223 61.1519 91.012 54.6225L98.4138 52.9614L98.4961 52.9468C101.394 61.4018 100.578 71.0488 95.4341 79.1693C95.0719 79.7411 94.6919 80.2952 94.2985 80.8344L87.8471 76.748Z" fill="#FF789B"/>
<path d="M19.9268 63.9137C19.9268 63.9137 7.04501 69.5033 2.27252 65.8033C-2.49997 62.1034 1.4312 54.1375 3.34722 49.7358C5.26324 45.3342 11.7186 34.223 11.7186 34.223L16.6258 39.3151L12.6501 54.0779L18.3022 52.7198L19.9268 63.9137Z" fill="#F9ACAC"/>
<path d="M15.3645 41.2026L16.114 39.9999C16.114 39.9999 17.5162 40.5365 19.276 40.1383C21.0359 39.74 23.1469 37.1078 22.164 36.3996C21.1812 35.6913 19.7784 37.3408 19.7784 37.3408C19.7784 37.3408 19.0177 37.7648 18.3308 36.0873L19.2336 34.4323C19.2336 34.4323 20.5905 34.2026 21.0992 34.1615C21.0992 34.1615 21.1261 36.2274 22.322 36.4064C23.5179 36.5854 23.3416 35.5769 23.0187 34.2638C22.696 32.9507 22.8849 32.7883 22.2113 32.252C21.5377 31.7158 19.9367 32.0219 19.9367 32.0219C19.9367 32.0219 24.5185 28.5796 23.6181 27.4312C22.718 26.2831 20.729 28.6384 20.729 28.6384C20.729 28.6384 22.5855 26.7554 21.8226 26.0884C21.0598 25.4214 18.158 28.7477 18.158 28.7477C18.158 28.7477 19.3957 27.2496 18.9697 26.8507C18.5436 26.4519 18.0143 26.9673 17.1753 28.0394C16.3363 29.1114 12.9947 32.3551 12.1489 33.5852C11.3032 34.8154 9.23291 38.6849 9.23291 38.6849L15.3645 41.2026Z" fill="#F9ACAC"/>
<path d="M13.6169 35.5474C13.647 35.5474 13.6771 35.5362 13.7005 35.5137C13.7709 35.446 15.4095 33.8578 16.08 32.0226L18.6488 32.1048C18.6502 32.1048 18.6514 32.1048 18.6527 32.1048C18.7176 32.1048 18.7712 32.0532 18.7734 31.9878C18.7755 31.9211 18.7231 31.8653 18.6566 31.8632L15.9998 31.7781C15.9984 31.7781 15.9971 31.7781 15.9959 31.7781C15.9445 31.7781 15.8987 31.8106 15.8818 31.8593C15.2508 33.674 13.5502 35.323 13.5331 35.3394C13.4849 35.3855 13.4835 35.462 13.5297 35.5102C13.5534 35.5349 13.5851 35.5474 13.6169 35.5474Z" fill="#333333"/>
<path d="M13.652 37.0214C13.6798 37.0214 13.7079 37.0118 13.7306 36.9922C15.5575 35.4213 17.364 36.2587 17.4401 36.2953C17.5004 36.3242 17.5724 36.2988 17.6013 36.2388C17.6302 36.1787 17.605 36.1067 17.545 36.0776C17.525 36.068 15.5232 35.1322 13.5732 36.8091C13.5225 36.8526 13.5168 36.9289 13.5603 36.9795C13.5842 37.0072 13.6179 37.0214 13.652 37.0214Z" fill="#333333"/>
<path d="M11.6796 57.4097C11.7315 57.4097 11.7794 57.376 11.7951 57.3238L12.7634 54.113C12.7826 54.0492 12.7465 53.9818 12.6826 53.9624C12.6188 53.9431 12.5514 53.9793 12.5321 54.0431L11.5639 57.2539C11.5446 57.3177 11.5808 57.3851 11.6447 57.4045C11.6562 57.4081 11.668 57.4097 11.6796 57.4097Z" fill="#333333"/>
<path d="M52.9214 39.837C52.9866 40.5648 52.8347 41.3282 53.0966 42.0103C53.7063 43.5981 56.1094 43.8055 56.8236 45.3491C57.4467 46.6958 56.4498 48.3255 56.891 49.7422C57.1292 50.5066 57.7479 51.0811 58.1879 51.7502C59.0383 53.0434 59.1939 54.766 58.589 56.1907C56.8418 57.0768 54.7129 56.3412 53.0278 55.3421C51.3426 54.343 49.7297 53.0549 47.7903 52.7783C46.1253 52.5409 44.4627 53.0887 42.798 53.33C41.1336 53.5712 39.2072 53.4039 38.1296 52.1126C37.5351 51.3998 37.2655 50.413 36.518 49.863C35.8799 49.3936 34.9992 49.3303 34.398 48.8144C33.4889 48.034 33.6084 46.566 34.132 45.4887C34.6558 44.4113 35.4948 43.4887 35.8645 42.3492C36.0359 41.8213 36.1015 41.2596 36.3218 40.75C36.8062 39.6297 37.9453 38.9492 39.0587 38.4489C42.1209 37.0731 52.4248 34.3054 52.9214 39.837Z" fill="#AD7B17"/>
<path d="M54.6741 52.053C54.691 52.053 54.7081 52.0494 54.7245 52.0419C54.7851 52.0141 54.8117 51.9423 54.7839 51.8816C54.325 50.8833 54.1986 49.7419 54.4282 48.6674C54.4569 48.5333 54.4915 48.3935 54.5252 48.2584C54.681 47.6319 54.842 46.984 54.5594 46.3951C54.3312 45.9193 53.8821 45.641 53.4478 45.3719C53.2392 45.2427 53.0235 45.109 52.8392 44.9565C52.4453 44.6308 52.1565 44.179 52.0262 43.6848C52.0092 43.6203 51.9431 43.5818 51.8786 43.5989C51.814 43.6159 51.7755 43.682 51.7926 43.7465C51.9358 44.2892 52.2528 44.785 52.6853 45.1427C52.8821 45.3056 53.1052 45.4436 53.3205 45.5773C53.744 45.8398 54.144 46.0876 54.3417 46.4996C54.5867 47.01 54.4362 47.6149 54.2909 48.2001C54.2569 48.3372 54.2216 48.4787 54.1922 48.6169C53.9518 49.7421 54.0841 50.9373 54.5646 51.9827C54.5846 52.0268 54.6282 52.053 54.6741 52.053Z" fill="#0E1323"/>
<path d="M52.2045 50.2232C52.2532 50.2232 52.2992 50.1936 52.3176 50.1453C52.7351 49.0459 52.4819 47.7244 51.6873 46.8572C51.619 46.7825 51.5449 46.7073 51.4732 46.6344C51.1525 46.3083 50.8207 45.9712 50.8642 45.5681C50.8713 45.5017 50.8234 45.4422 50.757 45.4351C50.69 45.4278 50.6312 45.4759 50.6239 45.5422C50.5681 46.0591 50.9574 46.4547 51.3008 46.8039C51.3743 46.8786 51.4436 46.949 51.509 47.0205C52.2436 47.8221 52.4777 49.0434 52.0915 50.0596C52.0678 50.122 52.0992 50.1917 52.1616 50.2154C52.1758 50.2207 52.1903 50.2232 52.2045 50.2232Z" fill="#0E1323"/>
<path d="M37.0214 35.5324C37.6516 33.6559 39.8857 32.8675 41.8625 32.6964C44.0793 32.5044 46.3348 32.7693 48.446 33.4696C49.9623 33.9726 51.5469 34.8586 52.0074 36.3847C52.3146 37.4027 52.0401 38.5336 51.4615 39.4263C50.883 40.3189 50.0285 41.0009 49.1265 41.5676C47.2442 42.7502 45.0059 43.5042 42.7989 43.2237C39.5958 42.8167 35.8615 38.9856 37.0214 35.5324Z" fill="#AD7B17"/>
<path d="M33.7777 48.17C33.7777 48.17 28.8429 48.3673 24.9938 49.157C21.1446 49.9466 16.1113 52.0191 16.1113 52.0191L20.0591 68.0077L24.4015 66.8233V73.2385L51.9373 79.6537L52.4308 68.7973L53.5164 70.4751L65.0312 65.4486C65.0312 65.4486 61.2147 55.4734 58.1552 52.3151C55.0956 49.157 47.7922 48.2686 47.7922 48.2686L40.8835 49.5515L33.7777 48.17Z" fill="#2872F7"/>
<path d="M52.0363 39.0904C50.4555 39.0904 49.1741 37.809 49.1741 36.2283C49.1741 34.6475 50.4555 33.3661 52.0363 33.3661C53.617 33.3661 54.8984 34.6475 54.8984 36.2283C54.8984 37.809 53.617 39.0904 52.0363 39.0904Z" fill="#AD7B17"/>
<path d="M47.8878 40.3677C49.7312 40.3677 52.0466 39.4531 52.18 39.3998C52.2418 39.375 52.272 39.3048 52.2472 39.2428C52.2224 39.1807 52.1522 39.1504 52.0901 39.1754C52.0464 39.1928 47.7004 40.9099 46.2923 39.6897C46.2419 39.6459 46.1656 39.6516 46.1219 39.7018C46.0782 39.7523 46.0837 39.8286 46.134 39.8723C46.553 40.2351 47.1864 40.3677 47.8878 40.3677Z" fill="#0E1323"/>
<path d="M50.2151 38.3241C50.2606 38.3241 50.3048 38.3237 50.3483 38.3228C51.6544 38.2979 52.449 37.9322 52.4822 37.9167C52.5371 37.8908 52.5645 37.8283 52.546 37.7705C52.5132 37.668 51.7237 35.2492 50.0571 34.1996C50.0006 34.1642 49.9261 34.1811 49.8906 34.2374C49.8551 34.294 49.8721 34.3685 49.9284 34.4041C51.329 35.2861 52.1076 37.2619 52.2795 37.7391C52.0304 37.8347 51.3304 38.0645 50.3303 38.0816C49.1707 38.1014 47.3526 37.8302 45.2945 36.4246C45.2394 36.387 45.1641 36.4011 45.1265 36.4562C45.0889 36.5113 45.103 36.5865 45.1581 36.6241C47.1978 38.0169 49.0126 38.3241 50.2151 38.3241Z" fill="#0E1323"/>
<path d="M24.4024 66.9443C24.4298 66.9443 24.4575 66.935 24.4801 66.9159C24.5311 66.873 24.5377 66.7968 24.4947 66.7458C24.4862 66.7355 23.7859 65.8785 23.712 64.219C23.6434 62.6783 24.1155 60.1123 26.7538 56.6373C26.794 56.5842 26.7837 56.5084 26.7306 56.4679C26.6774 56.4275 26.6017 56.438 26.5614 56.4911C23.8704 60.0354 23.3958 62.6676 23.4715 64.2517C23.5546 65.9867 24.279 66.8649 24.3098 66.9015C24.3339 66.9297 24.368 66.9443 24.4024 66.9443Z" fill="#333333"/>
<path d="M47.6556 48.2289L51.4727 48.8716C51.4727 48.8716 42.4369 63.7707 37.8954 54.0351C37.8954 54.0351 30.6346 60.7249 30.6073 48.2699L35.0671 48.0524L47.6556 48.2289Z" fill="white"/>
<path d="M44.6138 43.5208L44.2988 47.6165L47.7646 48.2651C47.7646 48.2651 42.2002 54.2699 38.2947 54.0118C34.3892 53.7536 33.7918 48.1507 33.7918 48.1507L38.2773 47.7148L38.7256 44.3727L44.6138 43.5208Z" fill="#F9ACAC"/>
<path d="M43.1611 44.551C43.1611 44.551 42.0124 48.1844 38.3656 47.0883L38.7465 44.2691L40.0346 44.864L43.1611 44.551Z" fill="#0E1323"/>
<path d="M40.6327 34.3129C39.7473 34.7031 39.0356 35.4045 38.5931 36.2651L37.8089 38.2276C36.8007 39.929 36.2967 42.3865 36.8007 44.0247C37.0793 44.9304 37.7112 45.5107 38.6295 45.7443C41.7785 46.5451 44.8325 44.1046 44.8325 44.1046C44.8325 44.1046 44.9718 44.3668 45.5205 44.7268C47.1615 45.0613 48.9265 43.1461 48.1003 41.9336C47.4965 41.0479 46.6204 41.1656 46.041 41.3825C44.7361 41.5842 45.9272 40.6564 46.1984 39.7666C43.2779 36.8696 44.0276 34.699 43.7636 34.3991C42.6623 33.8085 41.5507 33.9083 40.6327 34.3129Z" fill="#F9ACAC"/>
<path d="M44.4253 39.5582C44.2261 39.046 43.5123 38.6904 42.9885 38.7996C42.7624 38.8467 42.7954 39.1304 42.9733 39.2101C43.1775 39.3013 43.3975 39.3438 43.6 39.4391C43.8 39.5333 43.9867 39.6675 44.1889 39.7524C44.3087 39.8028 44.4825 39.7055 44.4253 39.5582Z" fill="#0E1323"/>
<path d="M38.9426 36.801C39.4806 36.6896 40.1674 37.095 40.3607 37.594C40.4441 37.8094 40.1881 37.936 40.0246 37.8301C39.8369 37.7085 39.6816 37.5469 39.4915 37.4289C39.3038 37.3123 39.0895 37.2287 38.9082 37.1051C38.8007 37.0319 38.7878 36.8331 38.9426 36.801Z" fill="#0E1323"/>
<path d="M45.4579 43.6404C45.5091 43.6404 45.5567 43.6076 45.5731 43.5561C45.8027 42.8316 46.1213 42.4115 46.52 42.3079C47.0589 42.1678 47.5879 42.6583 47.5931 42.6632C47.6417 42.7089 47.718 42.7068 47.7639 42.6583C47.8097 42.6098 47.8075 42.5335 47.7591 42.4876C47.7337 42.4636 47.1294 41.9007 46.4606 42.0737C45.9757 42.199 45.5995 42.6732 45.3428 43.4832C45.3226 43.5468 45.3577 43.6148 45.4214 43.6349C45.4335 43.6386 45.4458 43.6404 45.4579 43.6404Z" fill="#0E1323"/>
<path d="M46.5726 43.3535C46.574 43.3535 46.5753 43.3535 46.5767 43.3535C46.6432 43.3512 46.6954 43.2956 46.6933 43.2291C46.6928 43.2114 46.6765 42.7951 46.4191 42.5922C46.2925 42.4928 46.1354 42.4616 45.9522 42.4995C45.8867 42.5131 45.8448 42.5771 45.8584 42.6423C45.8719 42.7078 45.9361 42.7495 46.0012 42.7361C46.113 42.7129 46.2003 42.7277 46.269 42.7816C46.4093 42.8916 46.4485 43.1476 46.4517 43.2369C46.4544 43.3022 46.5079 43.3535 46.5726 43.3535Z" fill="#0E1323"/>
<path d="M45.534 45.6676C45.5779 45.6676 45.6226 45.6639 45.6682 45.6566C45.8779 45.6229 46.0678 45.5132 46.1892 45.3556C46.322 45.1832 46.3691 44.9523 46.3122 44.7532C46.2938 44.689 46.2272 44.6519 46.163 44.6701C46.0988 44.6885 46.0617 44.7553 46.0801 44.8195C46.1163 44.9463 46.0847 45.0953 45.9979 45.2082C45.9136 45.3175 45.7797 45.3941 45.6301 45.418C45.5513 45.4307 45.4773 45.4282 45.4101 45.4105C45.2782 45.3759 45.1605 45.2757 45.0954 45.1426C45.0327 45.0145 45.0173 44.8591 45.0521 44.705C45.0892 44.5408 45.1819 44.3934 45.3067 44.3007C45.4247 44.2128 45.5723 44.1732 45.7094 44.1916C45.7135 44.1977 45.718 44.2034 45.7233 44.2089C45.7699 44.2568 45.8462 44.2581 45.8941 44.2117C45.9301 44.1768 45.9442 44.1253 45.9307 44.0771C45.913 44.0142 45.854 43.9744 45.8036 43.9632C45.5878 43.9151 45.3482 43.9689 45.1625 44.1069C44.9897 44.2354 44.8667 44.4291 44.8164 44.6519C44.7695 44.8596 44.7916 45.0716 44.8784 45.2488C44.974 45.444 45.1498 45.5918 45.3488 45.6442C45.4078 45.6598 45.4698 45.6676 45.534 45.6676Z" fill="#0E1323"/>
<path d="M38.5086 41.3753C38.5651 41.3517 38.6288 41.3514 38.6898 41.3574C39.0328 41.3917 39.327 41.6142 39.5742 41.8543C39.8217 42.0945 40.0479 42.3649 40.3458 42.5386C40.3979 42.5689 40.4592 42.6083 40.458 42.6684C40.4573 42.6978 40.4409 42.7242 40.4234 42.7479C40.2911 42.9288 40.0856 43.0427 39.8757 43.1215C39.5657 43.238 39.2212 43.2891 38.9016 43.2021C38.5819 43.1151 38.2942 42.8725 38.2114 42.5518C38.1859 42.4528 38.1804 42.3453 38.2175 42.2499C38.281 42.0871 38.3569 41.9862 38.3521 41.804C38.3482 41.6496 38.3339 41.448 38.5086 41.3753Z" fill="#D1334E"/>
<path d="M40.2095 42.8588C40.315 42.8588 40.4238 42.8518 40.5359 42.8367C40.6021 42.8278 40.6484 42.767 40.6395 42.7008C40.6306 42.6347 40.5695 42.5883 40.5037 42.5972C39.2892 42.7609 38.4493 41.8287 38.4411 41.8192C38.3969 41.7693 38.3206 41.7645 38.2707 41.8085C38.2206 41.8525 38.2158 41.9287 38.2598 41.9789C38.2938 42.0178 39.0476 42.8588 40.2095 42.8588Z" fill="#0E1323"/>
<path d="M42.5721 40.1465C42.7605 39.8942 43.0697 39.8165 43.2628 39.9729C43.4558 40.129 43.4598 40.4603 43.2713 40.7124C43.0829 40.9646 42.7737 41.0424 42.5806 40.886C42.3876 40.7298 42.3836 40.3988 42.5721 40.1465Z" fill="#0E1323"/>
<path d="M38.7908 38.1933C38.9793 37.941 39.2884 37.8632 39.4815 38.0196C39.6746 38.1758 39.6785 38.507 39.4901 38.7591C39.3016 39.0114 38.9925 39.0891 38.7994 38.9328C38.6063 38.7766 38.6024 38.4453 38.7908 38.1933Z" fill="#0E1323"/>
<path d="M40.3513 41.0023C40.4153 41.0023 40.4807 40.9863 40.5404 40.9421C40.5941 40.9025 40.6055 40.8267 40.5659 40.7731C40.5263 40.7194 40.4507 40.708 40.3969 40.7476C40.3689 40.7682 40.3031 40.7747 40.1496 40.6878L39.5347 40.3396C39.4586 40.2965 39.3937 40.2566 39.3714 40.2043C39.3249 40.0956 39.4716 39.9465 39.5632 39.8675L39.6098 39.8274C39.9665 39.5199 40.3354 39.202 40.5333 38.7608C40.7451 38.2881 40.6861 37.6215 40.2202 37.324C40.1639 37.2881 40.0892 37.3045 40.0533 37.3607C40.0173 37.4169 40.0339 37.4916 40.0901 37.5276C40.4411 37.7517 40.4789 38.2908 40.3126 38.6618C40.1368 39.054 39.7886 39.3543 39.4518 39.6443L39.4051 39.6846C39.092 39.9551 39.0929 40.1681 39.1491 40.2992C39.2052 40.4307 39.3318 40.5024 39.4156 40.5498L40.0305 40.8979C40.0851 40.9289 40.2149 41.0023 40.3513 41.0023Z" fill="#0E1323"/>
<path d="M17.8163 35.2747H29.5539C31.1754 35.2747 32.4927 36.5837 32.503 38.2052L32.5703 48.7651C32.5808 50.4012 31.2572 51.7332 29.6211 51.7332H17.8836C16.2621 51.7332 14.9447 50.4242 14.9344 48.8027L14.8672 38.2428C14.8568 36.6065 16.1802 35.2747 17.8163 35.2747Z" fill="#91C7F9"/>
<path d="M29.2847 49.4992H17.7884C17.2202 49.4992 16.8765 48.9442 17.1102 48.4042L20.701 40.1056C20.9977 39.4199 21.9374 39.3215 22.2343 39.9449L24.5031 44.7121C24.722 45.1722 25.3361 45.268 25.7673 44.9093L26.5746 44.2378C26.9811 43.8998 27.5575 43.9624 27.8046 44.3716L30.1053 48.1802C30.4398 48.7333 29.9631 49.4992 29.2847 49.4992Z" fill="white"/>
<path d="M24.507 39.6817C24.4997 38.5323 25.4678 37.6006 26.6694 37.6006C27.871 37.6006 28.851 38.5323 28.8584 39.6817C28.8657 40.8311 27.8976 41.7628 26.6959 41.7628C25.4943 41.7628 24.5143 40.8311 24.507 39.6817Z" fill="white"/>
<path d="M41.1769 83.134C46.6927 84.7887 67.3929 92.4483 68.4961 83.9112C69.4863 76.249 62.384 62.8021 62.384 62.8021L51.3812 69.3444L55.4261 76.7908C55.4261 76.7908 41.7285 75.228 41.3609 75.228C40.9931 75.228 41.1769 83.134 41.1769 83.134Z" fill="#F9ACAC"/>
<path d="M61.2191 77.4632C61.2808 77.4632 61.3334 77.4163 61.3393 77.3539C61.3455 77.2874 61.2969 77.2286 61.2306 77.2221L55.439 76.6705C55.373 76.6643 55.3137 76.713 55.3072 76.7795C55.3008 76.846 55.3497 76.9048 55.4162 76.9112L61.2077 77.4628C61.2115 77.463 61.2154 77.4632 61.2191 77.4632Z" fill="#0E1323"/>
<path d="M28.4398 75.5533C27.5897 77.4919 29.3599 77.4921 29.4321 77.4919C29.3787 77.5242 27.9062 78.4008 28.9848 79.0555C30.0827 79.7219 33.607 78.5223 33.607 78.5223C35.6712 84.9524 41.2035 83.1334 41.2035 83.1334C41.2035 83.1334 41.4932 83.1239 42.6901 83.2058L47.9805 75.9635C47.5408 76.0453 41.3421 75.203 41.3421 75.203C41.3421 75.203 37.3109 68.9151 35.3501 69.4879C33.3906 70.0614 29.4111 72.3019 28.2041 73.74C26.9975 75.178 28.4398 75.5533 28.4398 75.5533Z" fill="#F9ACAC"/>
<path d="M29.495 77.6502C29.5094 77.6502 29.524 77.6477 29.5383 77.6422L34.9683 75.5584C35.0307 75.5345 35.0617 75.4646 35.0378 75.4022C35.014 75.34 34.9442 75.3086 34.8817 75.3327L29.4517 77.4165C29.3894 77.4404 29.3582 77.5103 29.3821 77.5727C29.4007 77.6208 29.4465 77.6502 29.495 77.6502Z" fill="#0E1323"/>
<path d="M28.4639 75.635C28.4848 75.635 28.5058 75.6296 28.5251 75.6184L34.1904 72.2891C34.248 72.2553 34.2671 72.1813 34.2334 72.1237C34.1995 72.0661 34.1255 72.047 34.0679 72.0807L28.4026 75.41C28.345 75.4439 28.3257 75.5179 28.3596 75.5754C28.3823 75.6138 28.4225 75.635 28.4639 75.635Z" fill="#0E1323"/>
<path d="M65.0312 65.4488L51.1056 71.687L48.0811 63.9365L58.9821 60.2189L62.8888 62.8024L65.0312 65.4488Z" fill="#2872F7"/>
<path d="M51.4732 71.644C51.4901 71.644 51.5072 71.6404 51.5236 71.6329L58.3749 68.4869C58.4355 68.4591 58.4621 68.3873 58.4343 68.3266C58.4063 68.266 58.3346 68.2395 58.274 68.2673L51.5302 71.3639L48.4413 64.9717C48.4124 64.9116 48.34 64.8865 48.2799 64.9155C48.2198 64.9446 48.1947 65.0168 48.2238 65.0769L51.3642 71.5757C51.3851 71.6188 51.4282 71.644 51.4732 71.644Z" fill="#0E1323"/>
<path d="M12.5885 69.2889C12.5885 70.0734 12.7664 70.8229 13.0886 71.5066C16.6175 71.3048 19.4082 68.758 19.4082 65.6466C19.4082 64.8607 19.2303 64.1112 18.9081 63.4275C15.3792 63.6291 12.5885 66.1759 12.5885 69.2889Z" fill="white"/>
<path d="M104.003 8.5C107.569 8.5 110.461 12.3065 110.461 17C110.461 12.3065 113.354 8.5 116.92 8.5C113.353 8.5 110.461 4.69352 110.461 0C110.461 4.69352 107.569 8.5 104.003 8.5Z" fill="#FFBBD0"/>
</svg>
