<svg width="179" height="122" viewBox="0 0 179 122" fill="none" xmlns="http://www.w3.org/2000/svg">
<mask id="mask0_302_393" style="mask-type:alpha" maskUnits="userSpaceOnUse" x="26" y="14" width="119" height="91">
<rect x="26" y="14" width="118.97" height="91" fill="#D9D9D9"/>
</mask>
<g mask="url(#mask0_302_393)">
<path d="M103.134 72.0429C101.975 69.3969 99.8786 67.2084 97.479 65.647C96.5437 65.0384 95.6619 66.0518 95.8588 66.908C95.8457 66.9726 95.836 67.0398 95.8332 67.1117C95.6981 70.5233 95.5246 73.9357 95.428 77.3485C95.3968 78.4543 95.6841 79.711 96.9709 79.9066C97.6856 80.0152 98.3275 79.6952 98.9772 79.4395C99.7042 79.1533 100.442 78.8866 101.157 78.5713C103.816 77.3986 104.214 74.5061 103.135 72.043L103.134 72.0429Z" fill="#1B1323"/>
<path d="M98.4241 56.8988C98.3479 55.4479 98.2478 53.9822 97.9709 52.5536C97.7242 51.2804 97.3081 50.0041 96.546 48.9408C95.6731 47.723 94.2175 46.8502 92.7171 46.7553C92.7082 46.7621 92.6992 46.7693 92.6903 46.7761C91.9842 47.319 91.234 47.8011 90.5228 48.337C90.2792 48.5207 90.0391 48.7077 89.8191 48.9191C89.6579 49.0739 89.4974 49.2294 89.3344 49.3821C88.9228 49.7676 88.4979 50.1479 88.0301 50.4647C87.7774 50.6359 87.3886 50.8973 87.0492 50.8541C86.3869 52.7692 85.9048 54.7795 85.4053 56.7274C84.8791 58.7789 84.3858 60.8399 83.599 62.8117C83.0014 64.3092 82.3661 65.7901 81.716 67.2654C81.1117 68.6368 80.5036 70.0868 80.5537 71.6154C80.6002 73.0307 81.2464 74.3268 82.0413 75.4683C82.8165 76.582 83.7078 77.6374 84.7206 78.5424C86.646 80.2628 88.0306 81.6127 90.651 81.1965C91.8545 81.0054 94.1005 80.2367 94.9509 79.3532C95.8496 78.4195 96.3655 77.1986 96.7019 75.9644C97.0894 74.5425 97.3049 73.067 97.5322 71.613C97.7844 70.0011 97.9958 68.3826 98.1563 66.7591C98.4803 63.4846 98.5965 60.1861 98.4239 56.8988H98.4241Z" fill="#BAA17D"/>
<path d="M94.7865 67.9135C94.2683 66.8368 93.2905 66.0967 92.483 65.2489C91.5814 64.3046 91.0992 63.1741 90.7694 61.9248C90.4352 60.6598 90.2041 59.3723 89.7039 58.1567C89.1701 56.8603 88.4365 55.6627 87.6628 54.5008C87.1087 53.6709 86.5593 52.6975 85.7898 52.0201C85.6328 51.8811 85.4668 51.7554 85.2897 51.6456C85.0138 51.4729 84.7042 51.3608 84.3856 51.316C83.7441 51.224 83.0779 51.4079 82.6114 51.9215C82.5777 51.9597 82.544 52.0001 82.5149 52.0404C80.6061 53.3391 78.9239 54.9606 77.5735 56.8358C77.3739 57.1117 77.1922 57.3943 77.0308 57.6814C76.5283 58.5718 76.2165 59.5228 76.1358 60.586C76.1089 60.9403 76.0977 61.2948 76.0977 61.6514C76.1111 65.0405 77.347 68.4766 78.6345 71.5495C79.0225 72.4803 79.3927 73.4245 79.8301 74.3329C80.1643 75.026 80.4469 75.7437 80.8529 76.4077C81.6672 77.7422 82.7841 78.8883 84.0918 79.7429C86.2832 81.1717 90.2668 82.2729 92.4582 80.2499C92.5838 80.1333 92.7027 80.0076 92.8103 79.8731C92.8597 79.8148 92.9045 79.752 92.9494 79.6914C93.6604 78.6888 93.9452 77.4126 94.239 76.2396C94.6068 74.7705 94.8985 73.2812 95.1048 71.7784C95.282 70.4909 95.3672 69.1205 94.7863 67.9138L94.7865 67.9135Z" fill="#BAA17D"/>
<path d="M86.0073 52.7332C85.9467 52.3542 85.7492 52.0065 85.4554 51.7665C85.4038 51.7216 85.35 51.6835 85.294 51.6476C85.294 51.6476 85.2917 51.6453 85.2896 51.6453C85.0137 51.4726 84.7041 51.3605 84.3855 51.3156C83.7441 51.2237 83.0779 51.4076 82.6113 51.9212C82.5777 51.9594 82.5439 51.9998 82.5149 52.0401C80.606 53.3388 78.9238 54.9603 77.5735 56.8355C77.4972 56.9409 77.4232 57.0463 77.3559 57.1539C77.2393 57.3267 77.1316 57.5039 77.0307 57.6811C76.5283 58.5715 76.2165 59.5225 76.1357 60.5857C76.1312 60.6552 76.1268 60.7226 76.1223 60.7921C76.0797 61.4896 76.4745 62.1557 77.1271 62.4115C77.8561 62.6986 78.7061 62.6358 79.471 62.2725C79.4867 62.2657 79.5002 62.259 79.5158 62.2523C82.0124 61.0277 84.0893 58.2733 85.2715 55.8263C85.5586 55.2342 85.8322 54.6129 85.9646 53.9781C86.0498 53.5654 86.0768 53.1504 86.0073 52.7332Z" fill="#1B1323"/>
<path d="M92.2501 68.5381C92.5935 70.6018 92.6303 72.6811 92.2198 74.7382C92.1758 74.9584 92.5134 75.0526 92.5576 74.8313C92.9812 72.7091 92.9422 70.5738 92.5879 68.445C92.5509 68.2231 92.2133 68.3172 92.2501 68.5381Z" fill="#1B1323"/>
<path d="M78.2297 60.8368C79.9364 60.5455 81.5182 59.6699 82.674 58.3812C82.8242 58.2138 82.5772 57.9652 82.4263 58.1335C81.3059 59.3825 79.7901 60.2167 78.1364 60.4989C77.9146 60.5368 78.0087 60.8745 78.2297 60.8368Z" fill="#1B1323"/>
<path d="M85.386 52.3742C85.4084 52.1499 85.4331 51.948 85.4555 51.7663C85.5902 50.7032 85.6777 50.2299 85.2425 48.8528C84.8454 47.5945 83.7039 46.5672 83.4481 45.2708C83.0736 43.3576 82.6025 41.7606 81.5191 42.1419C79.9602 42.6915 79.7044 45.6992 80.115 47.1885C80.1351 47.258 80.1486 47.3275 80.1598 47.3971C79.4779 46.9529 78.7534 46.6525 77.9999 46.307C77.0713 45.8809 76.506 45.3202 75.9677 44.4634C75.0638 43.0301 74.3662 41.5542 72.8387 40.675C72.1973 40.3049 71.3921 40.731 71.2193 41.4107C70.9748 42.3706 71.2844 43.2006 71.6813 44.0327C71.0129 43.4159 70.2616 42.9179 69.4204 42.8282C68.7003 42.7519 68.0229 43.167 68.0432 43.9653C68.0455 43.9788 68.0455 43.99 68.0455 44.0012C67.6013 44.2816 67.2716 44.7526 67.1774 45.2955C66.98 46.417 67.6687 47.6663 68.0544 48.6823C68.8552 50.7906 69.7142 53.1726 71.6163 54.543C72.5651 55.227 73.6642 55.6307 74.7364 56.0726L77.3562 57.1537L77.8587 57.3623C78.3948 58.9996 78.9331 60.6348 79.4713 62.2721C79.4871 62.2653 79.5006 62.2586 79.5162 62.2519C82.0127 61.0273 84.0897 58.2729 85.2718 55.8259C85.5589 55.2338 85.8326 54.6125 85.9649 53.9777C85.7833 53.4394 85.5904 52.9056 85.3863 52.374L85.386 52.3742Z" fill="#FF9A78"/>
<path d="M71.6348 51.9659C72.5161 51.0782 73.3474 50.142 74.1216 49.1594C74.4931 48.6879 74.8525 48.2068 75.1978 47.7158C75.5483 47.2176 75.9169 46.7152 76.0964 46.1257C76.1622 45.9095 75.824 45.8171 75.7586 46.0326C75.5853 46.6019 75.2113 47.0909 74.8724 47.5715C74.5206 48.0703 74.1549 48.5592 73.7749 49.0369C73.0292 49.974 72.2309 50.8683 71.3872 51.7182C71.2281 51.8783 71.4756 52.1262 71.6348 51.9659Z" fill="#1B1323"/>
<path d="M68.1712 44.372C69.4869 44.6212 70.0115 46.2303 70.5166 47.2815C71.0795 48.4533 71.8908 49.4539 72.9497 50.2131C73.1333 50.3447 73.3084 50.0409 73.1265 49.9106C72.5621 49.5059 72.0547 49.018 71.6338 48.465C71.2377 47.9446 70.9401 47.3706 70.6664 46.779C70.1733 45.7133 69.5624 44.28 68.2645 44.034C68.0441 43.9923 67.9497 44.3298 68.1714 44.3719L68.1712 44.372Z" fill="#1B1323"/>
<path d="M71.7508 44.2925C72.2579 44.8587 72.4971 45.5967 72.8652 46.2496C73.0554 46.587 73.2701 46.8367 73.6091 47.0298C74.002 47.2537 74.3983 47.4717 74.7928 47.6925C74.9897 47.8028 75.1666 47.5003 74.9696 47.39C74.5917 47.1785 74.2134 46.9681 73.8361 46.7555C73.6624 46.6576 73.4966 46.5584 73.3724 46.3984C73.2608 46.2547 73.1737 46.088 73.0886 45.9279C72.747 45.2841 72.4914 44.5951 71.9985 44.0446C71.8478 43.8763 71.6007 44.1247 71.7507 44.2924L71.7508 44.2925Z" fill="#1B1323"/>
<path d="M76.2032 51.1607C77.5945 51.1317 79.0742 51.2032 80.3246 51.8808C81.3566 52.4399 82.2265 53.4391 82.3266 54.6456C82.345 54.8687 82.6956 54.8707 82.677 54.6456C82.5703 53.357 81.7092 52.275 80.6141 51.6412C79.29 50.8749 77.6975 50.7792 76.2033 50.8103C75.9782 50.8149 75.9774 51.1654 76.2033 51.1606L76.2032 51.1607Z" fill="#1B1323"/>
<path d="M80.238 47.6063C80.6623 47.8205 81.1209 47.9456 81.5952 47.9768C81.6898 47.983 81.7704 47.8918 81.7704 47.8017C81.7704 47.7017 81.69 47.6327 81.5952 47.6265C81.1884 47.5996 80.7823 47.4893 80.4148 47.3038C80.3304 47.2612 80.225 47.2815 80.1751 47.3666C80.1296 47.4445 80.1532 47.5635 80.238 47.6063Z" fill="#1B1323"/>
<path d="M104.259 26.3106C103.79 24.6981 102.072 23.6284 100.693 23.3826C98.9777 23.0769 97.2469 23.9951 95.645 24.5779C94.7038 24.9203 93.8176 25.4246 92.9122 25.8489C91.9432 26.3031 90.9053 26.5494 90.2895 27.507C89.8224 28.233 89.7415 29.2033 89.8204 30.0457C89.9481 31.409 90.3882 33.1495 91.869 33.5872C92.3156 33.7192 92.7936 33.7091 93.2394 33.5792C93.3372 33.5507 93.4228 33.5097 93.4992 33.4605C94.2479 33.5162 94.8831 33.2306 95.6409 32.9862C96.5513 32.6926 97.486 32.5029 98.3885 32.1761C99.1243 31.9096 99.8659 31.5702 100.512 31.0819C100.824 30.8463 101.133 30.5768 101.401 30.2785C101.516 30.152 101.621 30.0162 101.722 29.8752C101.68 29.9647 101.774 29.9788 102.008 29.9157C103.618 30.1604 104.702 27.8333 104.259 26.3107L104.259 26.3106Z" fill="#AB4C3C"/>
<path d="M106.089 41.2936C105.537 41.5391 105.005 41.8246 104.487 42.1353C103.244 42.8809 102.068 43.7303 100.828 44.4824C100.524 44.666 100.218 44.8526 99.9163 45.043C99.5293 43.513 99.1328 41.9467 98.7266 40.3959C98.53 39.648 98.3298 38.9036 98.1309 38.1712C97.715 36.6434 97.293 35.1568 96.8677 33.765C96.3103 31.9413 98.2808 31.6435 99.4624 32.6613C99.4905 32.6644 99.5208 32.6667 99.5497 32.672C99.9705 31.3149 101.889 30.8347 102.491 32.5847C103.485 35.4762 104.781 38.4163 106.089 41.2936Z" fill="#FF9A78"/>
<path d="M98.9102 36.5009C98.509 36.9061 98.4187 37.688 98.1318 38.1712C98.3306 38.9037 98.5309 39.6481 98.7275 40.396C99.0786 39.2613 99.4041 37.408 99.4632 36.2166C99.4706 36.0517 99.0083 36.4021 98.9103 36.5008L98.9102 36.5009Z" fill="#1B1323"/>
<path d="M102.119 30.1958C102.028 29.4253 102.061 28.7226 101.562 28.1133C99.3739 25.432 95.3282 24.8629 93.3359 27.8296C92.7619 28.6831 92.2006 29.8128 92.2739 31.1225C92.3111 31.7895 92.7138 32.5007 92.8101 32.8162C92.5932 33.0106 92.3713 33.2042 92.1801 33.4172C91.9549 33.6685 91.8152 33.9852 91.904 34.323C91.9914 34.6562 92.284 34.8949 92.5599 35.0752C92.5946 35.0982 92.6314 35.1206 92.6663 35.1438C92.8142 35.2424 92.7263 35.4851 92.7472 35.6285C92.7802 35.8541 93.0675 35.8273 93.2561 35.7859C93.4329 35.7472 93.6238 35.5142 93.7889 35.637C93.9424 35.7515 93.9425 36.0141 93.8641 36.1732C93.7936 36.3165 93.6614 36.4099 93.5222 36.4793C93.3955 36.5423 93.1997 36.5726 93.1055 36.681C93.0782 36.7125 93.0602 36.7511 93.0478 36.7909C92.9548 37.0865 93.1368 37.3718 93.1981 37.6535C93.2502 37.8931 93.2487 38.1389 93.3057 38.3789C93.4104 38.8192 93.6126 39.3029 94.0058 39.5614C94.3851 39.8108 94.859 39.7711 95.2761 39.6506C96.3635 39.3363 97.3404 38.7745 98.2442 38.0946C99.1041 37.4478 100.163 36.0846 100.142 34.9414C100.139 34.7431 99.9585 34.8551 100.044 34.672C100.074 34.6055 100.131 34.5569 100.188 34.5113C101.427 33.5084 102.32 31.9417 102.119 30.1958H102.119Z" fill="#FF9A78"/>
<path d="M103.042 25.4795C102.61 24.9608 102.082 24.5695 101.439 24.3537C100.795 24.1377 100.085 24.1221 99.4137 24.168C97.9413 24.2685 96.5344 24.7502 95.2153 25.3912C94.4672 25.7547 93.7454 26.167 93.0397 26.6072C92.3803 27.0185 91.5946 27.7648 92.215 28.5769C93.0075 29.6143 94.1881 28.2067 95.1419 28.5498C95.4158 28.6483 95.6299 28.8725 95.774 29.1253C96.2783 30.009 96.2654 31.2268 97.0068 31.9738C97.3067 32.276 97.7874 32.4409 98.1695 32.2527C98.769 31.9575 98.7428 31.1605 98.9915 30.6297C99.3408 29.8838 100.093 30.7238 100.175 31.1753C100.371 32.2527 100.477 33.3465 101.436 34.0468C101.971 34.4371 102.658 34.6125 103.315 34.5262C103.865 34.4538 104.096 34.1286 104.143 33.5926C104.264 32.2166 104.285 30.8334 104.229 29.4535C104.172 28.065 103.962 26.5832 103.042 25.4797L103.042 25.4795Z" fill="#AB4C3C"/>
<path d="M94.0249 32.1976C93.9738 32.0983 93.8889 32.026 93.7827 31.9923C93.7 31.9661 93.6163 31.9798 93.5431 32.0176C93.539 32.0188 93.5345 32.0176 93.5304 32.0191C93.4124 32.0638 93.3536 32.1809 93.3874 32.3022C93.4239 32.4331 93.4602 32.5641 93.4967 32.6951C93.5148 32.7602 93.53 32.8245 93.5595 32.8856C93.6021 32.9735 93.6767 33.0457 93.7767 33.0619C93.9081 33.0833 94.04 33.0098 94.0903 32.8859C94.1234 32.8043 94.1325 32.7196 94.1341 32.6317C94.1371 32.4796 94.0941 32.3318 94.0249 32.1976Z" fill="#1B1323"/>
<path d="M99.4744 34.1649C99.795 34.4184 100.194 34.3595 100.51 34.1306C101.085 33.7139 101.226 32.9489 101.24 32.2826C101.248 31.8684 101.228 31.4395 101.11 31.0401C101 30.6702 100.806 30.2534 100.448 30.0668C99.7398 29.6986 99.0067 30.285 98.8655 30.9835C98.5973 31.7072 98.6075 32.5172 98.8803 33.2393C99.0059 33.5717 99.1903 33.9403 99.4744 34.1649Z" fill="#FF9A78"/>
<path d="M99.7496 36.1193C99.977 35.6141 100.148 35.0864 100.246 34.5406C100.251 34.5133 100.261 34.4816 100.262 34.454C100.264 34.4451 100.266 34.4364 100.269 34.4276C100.215 34.4597 100.206 34.4738 100.241 34.4698C100.282 34.4852 100.373 34.4609 100.413 34.4543C100.508 34.4385 100.6 34.4057 100.684 34.3573C100.866 34.2521 100.995 34.0798 101.117 33.9136C101.173 33.8373 101.13 33.7182 101.054 33.6739C100.965 33.622 100.871 33.6604 100.814 33.7368C100.715 33.8713 100.604 34.0254 100.442 34.0866C100.343 34.1239 100.245 34.1054 100.145 34.1263C100.018 34.1527 99.9485 34.2531 99.9216 34.374C99.8629 34.6384 99.8155 34.902 99.7376 35.1623C99.6578 35.4283 99.5612 35.6891 99.4472 35.9423C99.4085 36.0285 99.4223 36.1307 99.5101 36.182C99.5851 36.2259 99.7107 36.2058 99.7497 36.1191L99.7496 36.1193Z" fill="#1B1323"/>
<path d="M94.4052 30.4687C94.2369 30.3791 94.0301 30.3572 93.8224 30.3769C93.6134 30.3967 93.3845 30.4461 93.1858 30.5214C92.9661 30.6048 92.7689 30.7428 92.6842 30.9402C92.6575 31.0024 92.6515 31.0737 92.6629 31.1405C92.6566 31.1667 92.6484 31.1929 92.6484 31.2191C92.6489 31.3907 92.7971 31.5297 92.9922 31.5515C93.1024 31.5638 93.2059 31.5313 93.3053 31.4791C93.4026 31.4281 93.4963 31.3919 93.6027 31.3596C93.7029 31.3291 93.8047 31.3011 93.9075 31.2832C94.0144 31.2646 94.1198 31.2626 94.2265 31.2485C94.4489 31.2192 94.6696 31.0968 94.6856 30.8872C94.6993 30.7077 94.5667 30.5546 94.4051 30.4686L94.4052 30.4687Z" fill="#1B1323"/>
<path d="M99.6356 30.5861C99.4106 30.8843 99.1902 31.2299 99.2618 31.6208C99.2956 31.8049 99.4097 31.9569 99.4636 32.1334C99.5239 32.331 99.4678 32.4902 99.4114 32.6792C99.3602 32.8509 99.3633 33.0406 99.5098 33.1649C99.6356 33.2718 99.8206 33.2773 99.9695 33.2203C100.307 33.0913 100.485 32.7181 100.429 32.3717C100.367 31.9881 99.9838 31.5757 99.5674 31.6756C99.3483 31.7282 99.4411 32.0661 99.6606 32.0134C99.7958 31.981 99.9341 32.1225 100.001 32.2248C100.08 32.3448 100.114 32.4893 100.074 32.629C100.039 32.7473 99.9452 32.8743 99.8183 32.9017C99.657 32.9366 99.7587 32.7461 99.7862 32.6631C99.8429 32.4926 99.8577 32.3147 99.8249 32.1376C99.7929 31.965 99.6984 31.8208 99.6363 31.6594C99.5086 31.3266 99.7468 31.0165 99.938 30.7628C99.9954 30.6867 99.9496 30.5677 99.8752 30.5231C99.786 30.4697 99.6921 30.5108 99.6355 30.586L99.6356 30.5861Z" fill="#1B1323"/>
<path d="M92.6919 28.7582C92.6077 28.1476 92.7553 27.4896 93.1312 26.9959C93.5847 26.4003 94.3325 26.2104 95.0466 26.1578C96.4543 26.0542 97.9959 26.6645 98.494 28.084C98.5682 28.2954 98.9068 28.2044 98.8318 27.9909C98.4127 26.7966 97.2934 26.0244 96.0663 25.8446C94.8587 25.6677 93.3627 25.8863 92.692 27.0247C92.3673 27.5758 92.2673 28.2231 92.3539 28.8513C92.3847 29.0737 92.7224 28.979 92.6919 28.7582Z" fill="#1B1323"/>
<path d="M95.6809 25.8466C95.9174 25.2489 96.5629 24.9584 97.1648 24.8896C97.3026 24.8739 97.4518 24.8817 97.5793 24.8199C97.713 24.7551 97.7683 24.6323 97.8542 24.5194C98.036 24.2804 98.2931 24.1126 98.5798 24.0293C98.7959 23.9665 98.704 23.6283 98.4867 23.6915C98.1738 23.7823 97.8849 23.9544 97.6672 24.1986C97.5828 24.2931 97.5061 24.4839 97.3827 24.5186C97.2185 24.5647 97.0264 24.5519 96.8571 24.586C96.1945 24.7191 95.5975 25.1106 95.3431 25.7536C95.2601 25.9633 95.5988 26.0543 95.6809 25.8467V25.8466Z" fill="#1B1323"/>
<path d="M95.4243 28.6774C96.0228 28.7538 96.6415 28.9268 97.0979 29.3413C97.5182 29.7229 97.9861 30.2614 98.616 29.97C98.7571 29.9047 98.8718 29.8026 98.9712 29.6843C99.0848 29.5494 99.1734 29.3184 99.377 29.3574C99.5516 29.3907 99.7112 29.4706 99.8922 29.493C100.07 29.515 100.247 29.5113 100.423 29.4774C100.721 29.4199 101.004 29.2642 101.202 29.0327C101.296 28.9232 101.368 28.8016 101.419 28.6665C101.483 28.4929 101.493 28.2834 101.61 28.1336H101.362C102.14 28.788 103.118 28.9796 104.036 28.493C104.235 28.3874 104.059 28.0848 103.859 28.1905C103.09 28.5983 102.262 28.4346 101.61 27.8859C101.544 27.8308 101.424 27.8064 101.362 27.8859C101.159 28.146 101.173 28.4866 100.983 28.748C100.784 29.0222 100.448 29.1566 100.116 29.1581C99.9298 29.159 99.7495 29.1203 99.574 29.0594C99.4334 29.0105 99.2897 28.9393 99.1391 28.9957C98.8534 29.1027 98.7665 29.4916 98.4991 29.6381C97.9564 29.9356 97.4736 29.1604 97.0891 28.8894C96.6005 28.545 96.0085 28.4019 95.4243 28.3274C95.2012 28.2989 95.2034 28.6496 95.4243 28.6777V28.6774Z" fill="#1B1323"/>
<path d="M92.0895 26.5692C92.0981 26.5676 92.1066 26.5663 92.1154 26.5648C92.1579 26.5574 92.0901 26.566 92.1157 26.5648C92.1344 26.5639 92.153 26.5611 92.1717 26.5598C92.2162 26.5568 92.2608 26.556 92.3054 26.5568C92.3496 26.5576 92.394 26.5602 92.4381 26.5643C92.4487 26.5653 92.4592 26.5663 92.4698 26.5675C92.469 26.5675 92.5166 26.5731 92.4943 26.5703C92.4744 26.5676 92.5075 26.5723 92.5108 26.5728C92.5241 26.5748 92.5374 26.5769 92.5507 26.5793C92.6393 26.5948 92.727 26.6162 92.8123 26.6447C92.8339 26.6519 92.8553 26.6597 92.8767 26.6679C92.8801 26.6692 92.9097 26.6811 92.8902 26.673C92.8683 26.664 92.9052 26.68 92.9092 26.6819C92.9469 26.6994 92.9833 26.7191 93.0184 26.7409C93.0964 26.7894 93.2148 26.7601 93.2581 26.678C93.3035 26.5922 93.2784 26.4901 93.1953 26.4384C93.0251 26.3325 92.8244 26.2716 92.6277 26.2388C92.4175 26.2037 92.2068 26.194 91.9962 26.2313C91.9059 26.2473 91.8466 26.3626 91.8739 26.4467C91.9054 26.5439 91.9925 26.5862 92.0894 26.5691L92.0895 26.5692Z" fill="#1B1323"/>
<path d="M124.927 59.4177C124.672 55.0301 124.484 50.6388 124.361 46.2456C124.309 44.3556 124.335 42.2962 123.329 40.6196C122.386 39.0474 120.675 38.4544 118.927 38.3812C118.085 38.3459 117.243 38.4213 116.406 38.5C115.297 38.6041 114.188 38.7082 113.079 38.8122C112.013 38.9122 110.946 39.0242 109.879 39.1107C109.105 39.1734 108.396 39.3714 107.642 39.1508C107.317 39.0555 106.042 37.8283 105.537 37.7452C105.077 37.6693 104.62 37.8055 104.186 37.9466C103.664 38.1165 103.144 38.2933 102.626 38.4756C101.591 38.8402 100.563 39.2277 99.5455 39.641C98.6255 40.0147 98.031 40.0474 97.5287 40.947C97.1123 41.6927 96.7136 42.9664 96.1588 43.6397C95.6204 44.293 94.8968 44.7527 94.175 45.1784C93.3497 45.6653 92.5173 46.1328 91.7241 46.6723C90.8789 47.2472 90.0717 47.8749 89.3007 48.5458C88.5441 49.2042 87.826 49.9028 87.1497 50.6432C86.8415 50.9806 87.065 51.4019 87.3942 51.5306C87.7847 53.4584 89.0725 54.9872 90.2187 56.5456C91.4382 58.2041 92.436 60.0121 93.2563 61.8982C93.5404 62.5512 93.803 63.213 94.0522 63.8797C94.2163 64.1248 94.3849 64.367 94.5617 64.6034C96.0829 66.6384 98.056 68.2841 100.228 69.5853C100.635 69.8288 101.652 69.8808 102.07 70.1026C102.666 70.1563 102.658 70.4087 103.249 70.5064C104.007 70.6317 104.759 70.7916 105.505 70.9747C106.116 71.1246 106.707 71.3297 107.259 71.6339C107.792 71.928 108.279 72.3013 108.727 72.7135C109.259 73.2042 109.723 73.7588 110.202 74.3007C110.365 74.4857 110.528 74.672 110.69 74.8582C114.35 73.19 118.448 70.7356 121.597 69.8471C122.13 69.6968 122.663 69.5464 123.196 69.3961C123.686 69.2579 124.283 69.1769 124.715 68.8953C125.185 68.5884 125.236 68.0407 125.277 67.5315C125.321 67.0001 125.333 66.468 125.32 65.935C125.27 63.7625 125.052 61.5876 124.927 59.418V59.4177Z" fill="white"/>
<path d="M119.102 69.8401C119.516 68.7905 120.222 67.8555 121.119 67.1712C121.296 67.0364 121.122 66.7319 120.942 66.8688C119.965 67.6136 119.215 68.6038 118.764 69.747C118.681 69.9569 119.02 70.0478 119.102 69.8401Z" fill="#1B1323"/>
<path d="M99.7875 40.4425C100.406 44.4859 101.27 48.491 102.229 52.4661C103.169 56.367 104.171 60.2698 105.354 64.1054C105.962 66.0764 106.72 68.1096 108.17 69.6265C108.326 69.7899 108.574 69.5419 108.418 69.3788C107.108 68.0087 106.387 66.1906 105.818 64.4132C105.241 62.614 104.753 60.7832 104.258 58.9604C103.174 54.9693 102.179 50.9519 101.33 46.9039C100.874 44.7297 100.461 42.5457 100.125 40.3495C100.091 40.1274 99.7538 40.2217 99.7875 40.4427V40.4425Z" fill="#1B1323"/>
<path d="M99.4251 68.2622C100.624 68.1719 101.81 68.6629 102.595 69.5739C102.742 69.745 102.989 69.4962 102.842 69.3261C102.004 68.3523 100.707 67.8153 99.4251 67.9119C99.2016 67.9287 99.1999 68.2791 99.4251 68.2622Z" fill="#1B1323"/>
<path d="M96.9574 43.2862C97.2222 43.6896 97.487 44.0931 97.7519 44.4964C97.95 44.7982 98.1285 45.1386 98.4843 45.2757C99.1695 45.5399 99.5384 44.8046 99.6346 44.2478C99.7895 43.3514 99.7782 42.4195 99.8563 41.5143C99.8874 41.1539 99.917 40.7912 100.01 40.4409C100.018 40.4134 100.027 40.4092 100.025 40.4081C100.04 40.4189 99.9423 40.4384 99.9078 40.4412C99.8437 40.4465 99.8384 40.4014 99.8493 40.433C99.8576 40.4566 99.8989 40.4805 99.9177 40.4988C99.9795 40.5595 100.04 40.6219 100.099 40.6849C100.339 40.9391 100.565 41.2054 100.79 41.4722C101.227 41.9895 101.655 42.5107 102.124 42.9996C102.541 43.4347 103.074 43.998 103.725 44.0048C104.498 44.0129 105.01 43.0914 105.347 42.5117C105.787 41.7519 106.125 40.9391 106.538 40.1649C106.644 39.966 106.342 39.7888 106.235 39.988C105.888 40.6401 105.594 41.3193 105.246 41.9712C105.075 42.2908 104.893 42.6054 104.683 42.9011C104.493 43.17 104.245 43.533 103.912 43.6287C103.298 43.8051 102.703 43.0988 102.332 42.7108C101.886 42.2428 101.476 41.7442 101.059 41.2496C100.845 40.9955 100.63 40.7421 100.404 40.4982C100.291 40.376 100.114 40.1044 99.9249 40.1031C99.666 40.1013 99.6282 40.5003 99.5995 40.6823C99.456 41.5969 99.437 42.5312 99.3667 43.4531C99.3335 43.8876 99.3413 44.5663 98.9972 44.8784C98.6465 45.1964 98.3179 44.7215 98.1475 44.462C97.8514 44.011 97.5555 43.5602 97.2595 43.1093C97.1363 42.9216 96.8328 43.0969 96.957 43.2861L96.9574 43.2862Z" fill="#1B1323"/>
<path d="M108.53 137.665C107.902 136.049 107.217 134.458 106.49 132.885C106.461 132.813 106.431 132.741 106.403 132.67C105.655 130.791 104.871 128.927 104.082 127.065C101.763 121.594 99.2096 116.229 96.4186 110.983C94.4902 107.358 89.2599 97.1739 85.7943 99.3922C82.7596 105.527 81.1234 110.609 80.308 113.9C79.4581 117.331 79.2559 119.371 79.9178 122.232C81.3572 125.426 82.5993 128.722 84.0308 131.929C85.3894 134.973 86.8567 137.967 88.3779 140.932C89.1476 142.433 89.9314 143.926 90.7222 145.416C91.1177 146.161 91.515 146.904 91.9131 147.648C92.2462 148.27 92.5356 149.066 93.1135 149.511C93.1393 149.531 93.166 149.547 93.1924 149.565C94.2327 150.019 95.5612 149.058 96.4525 148.608C97.7287 147.965 98.9849 147.282 100.219 146.562C102.033 145.502 104.14 144.375 105.893 143.025C106.884 142.462 108.308 141.906 109.016 141.046C109.804 140.089 108.908 138.639 108.53 137.664L108.53 137.665Z" fill="#573C3C"/>
<path d="M112.7 70.1898C112.403 69.9326 112.016 69.8015 111.623 69.8015H102.249C101.604 69.8015 100.828 69.5566 100.705 70.2194C100.173 73.0967 99.4947 75.3275 99.0509 77.0436C99.0126 77.1917 98.9565 77.3313 98.8802 77.4639C95.0992 84.0314 89.2006 92.6678 85.7951 99.3926C85.1452 100.676 84.7655 101.88 84.1829 103.195C82.533 106.921 81.4792 111.03 80.243 114.919C79.3683 117.671 79.6331 120.228 80.5268 123.059C82.5662 129.519 89.8388 133.019 95.2518 128.32C97.3654 126.486 98.2413 123.943 99.1235 121.393C101.425 114.741 109.957 101.419 112.412 94.822C115.225 87.2631 111.987 86.4393 114.999 78.9574C116.196 75.9839 115.115 72.2779 112.7 70.1901V70.1898Z" fill="#573C3C"/>
<path d="M98.4686 147.038C96.0702 143.237 93.6089 139.472 91.4021 135.554C89.1926 131.632 87.2469 127.546 85.9142 123.238C85.5751 122.142 85.2754 121.034 85.0186 119.915C84.7423 118.711 84.7358 117.467 84.872 116.242C85.0141 114.962 85.3592 113.741 85.8057 112.538C86.2498 111.341 86.7007 110.147 87.1588 108.955C88.9451 104.308 90.8412 99.7039 92.856 95.1516C93.3558 94.0222 93.8628 92.8961 94.3771 91.7732C94.6392 91.2007 94.9032 90.6291 95.1689 90.0584C95.424 89.5107 95.6333 88.8435 96.0637 88.4131C96.241 88.2358 96.4507 88.075 96.5614 87.8485C96.7002 87.5649 96.8334 87.2791 96.9791 86.9988C97.2488 86.4796 97.5389 85.9713 97.8395 85.4695C98.4397 84.4669 99.0806 83.4894 99.6889 82.4918C100.003 81.9761 100.308 81.4551 100.6 80.9262C100.709 80.7286 100.407 80.5517 100.298 80.7494C99.1401 82.8481 97.717 84.7925 96.6226 86.9265C96.4971 87.1711 96.394 87.433 96.2589 87.6717C96.0885 87.9728 95.7615 88.142 95.5636 88.4176C95.4136 88.6265 95.323 88.9054 95.2135 89.1386C95.0707 89.4431 94.9285 89.7479 94.7866 90.0529C94.2563 91.1935 93.7334 92.3374 93.2179 93.4846C91.1678 98.0476 89.236 102.664 87.4167 107.324C86.962 108.489 86.5141 109.656 86.0729 110.826C85.6213 112.025 85.1272 113.217 84.8299 114.465C84.5473 115.652 84.4113 116.875 84.4417 118.096C84.4713 119.282 84.7576 120.404 85.0618 121.545C86.2349 125.946 88.0698 130.139 90.2242 134.143C92.371 138.132 94.8238 141.945 97.2499 145.768C97.5558 146.25 97.8613 146.732 98.1659 147.215C98.286 147.406 98.5892 147.23 98.4684 147.039L98.4686 147.038Z" fill="#1B1323"/>
<path d="M128.651 95.1772C128.781 92.1114 128.9 89.0443 128.903 85.9755C128.905 84.5143 128.996 83.0983 128.525 81.7317C128.014 80.2487 127.426 78.7815 127.095 77.2431C126.821 75.9568 122.964 72.8311 122.02 69.8016H106.78C106.974 72.4136 107.728 76.2676 107.578 78.1147C107.388 78.1905 107.239 78.3604 107.24 78.624C107.262 83.7503 106.392 78.1399 106.311 83.2601C106.161 92.6787 102.894 156.926 105.28 158.634C106.307 159.37 108.446 159.041 109.707 159.109C114.306 159.356 118.274 159.314 122.874 159.072C124.831 158.969 125.328 149.759 125.473 148.548C126.366 141.099 128.188 106.086 128.612 96.0937C128.625 95.7883 128.638 95.4829 128.651 95.1774V95.1772Z" fill="#573C3C"/>
<path d="M105.56 108.278C105.719 104.165 106.247 100.081 106.513 95.9748C106.652 93.8314 106.653 91.6868 106.73 89.5416C106.768 88.4954 106.907 87.483 106.535 86.4764C106.173 85.4959 105.644 84.5843 105.138 83.6735C104.006 81.6389 102.629 79.7514 101.13 77.9735C100.985 77.8008 100.738 78.0498 100.883 78.2212C102.217 79.8041 103.45 81.4748 104.499 83.2617C105.017 84.1458 105.533 85.0494 105.956 85.984C106.17 86.4574 106.368 86.9511 106.424 87.4716C106.481 88.0016 106.438 88.5361 106.405 89.0661C106.339 90.1312 106.354 91.2029 106.324 92.2697C106.293 93.3275 106.257 94.3854 106.196 95.4419C106.082 97.3881 105.895 99.3288 105.714 101.27C105.497 103.603 105.3 105.937 105.209 108.279C105.2 108.504 105.551 108.504 105.559 108.279L105.56 108.278Z" fill="#1B1323"/>
<path d="M110.465 83.9902C111.752 83.2605 113.109 82.6561 114.487 82.1207C115.952 81.5519 117.448 81.0594 118.969 80.666C119.742 80.4663 120.521 80.2935 121.308 80.1639C121.53 80.1274 121.436 79.7896 121.215 79.8261C119.752 80.0668 118.314 80.4501 116.902 80.8986C115.39 81.379 113.901 81.9414 112.455 82.5956C111.718 82.9291 110.992 83.2886 110.289 83.6878C110.093 83.799 110.269 84.1018 110.465 83.9903L110.465 83.9902Z" fill="#1B1323"/>
<path d="M100.985 72.3566H122.219C122.444 72.3566 122.444 72.0063 122.219 72.0063H100.985C100.759 72.0063 100.759 72.3566 100.985 72.3566Z" fill="#1B1323"/>
<path d="M112.147 85.2912C111.434 94.8683 110.963 104.462 110.649 114.06C110.337 123.634 110.18 133.213 110.093 142.792C110.045 148.165 110.018 153.538 109.997 158.911C109.996 159.136 110.347 159.136 110.348 158.911C110.384 149.361 110.441 139.811 110.604 130.262C110.769 120.671 111.04 111.08 111.507 101.497C111.77 96.0915 112.096 90.6886 112.498 85.2912C112.514 85.0664 112.164 85.0674 112.147 85.2912Z" fill="#1B1323"/>
<path d="M99.2995 81.543C98.8717 77.207 98.4868 72.8667 98.1446 68.5231C97.8081 64.2531 97.5132 59.9798 97.2594 55.704C97.1326 53.5662 97.0161 51.4278 96.9101 49.2888C96.8054 47.1781 96.7523 43.3239 97.363 41.2687C97.5047 40.7921 96.2348 41.6997 96.1509 41.7618C95.1661 42.4897 94.2999 43.2664 93.4596 44.1508C91.6025 46.1059 89.6826 48.0013 87.7036 49.833C86.4986 50.9482 86.6633 52.7742 86.4481 54.3283C86.1792 56.2697 85.936 58.2145 85.7196 60.1624C85.28 64.1189 84.9506 68.0879 84.74 72.0634C84.5544 75.5662 84.4577 79.0735 84.4502 82.5812C84.443 85.9363 84.4553 89.3189 85.2919 92.5903C85.3844 92.9519 85.7045 93.2919 86.0751 93.3735C90.4055 94.3277 94.8031 94.9261 99.2311 95.1644C99.8569 95.1981 100.325 94.6225 100.353 94.0429C100.547 89.9083 99.7049 85.6524 99.2995 81.543Z" fill="#BAA17D"/>
<path d="M86.4489 52.5598C86.1011 55.9906 85.7228 59.4183 85.385 62.85C85.0397 66.3584 84.7407 69.8717 84.5438 73.3919C84.4256 75.5049 84.3439 77.6198 84.3008 79.7357C84.2962 79.9613 84.6466 79.9613 84.6511 79.7357C84.726 76.0602 84.9219 72.3884 85.21 68.7235C85.4813 65.2717 85.8313 61.8269 86.1925 58.3836C86.396 56.4425 86.6024 54.5016 86.7993 52.5598C86.8221 52.3357 86.4714 52.3373 86.4489 52.5598Z" fill="#1B1323"/>
<path d="M93.503 44.4486C91.6359 49.0824 91.5779 54.2105 92.3124 59.0899C92.7044 61.6941 93.3174 64.2589 93.9881 66.8036C94.6435 69.29 95.3152 71.7759 96.0696 74.2343C96.9069 76.963 97.8768 79.6568 99.139 82.2202C99.2386 82.4226 99.5408 82.2452 99.4415 82.0434C97.204 77.4993 95.8988 72.5674 94.5886 67.6961C93.2607 62.759 92.0627 57.702 92.2363 52.5536C92.3286 49.816 92.8146 47.0884 93.8408 44.5417C93.925 44.3326 93.5863 44.2417 93.503 44.4486Z" fill="#1B1323"/>
<path d="M139.699 83.9393C138.973 81.8277 138.134 79.7483 137.337 77.6622C135.769 73.5529 134.183 69.4494 132.714 65.3033C131.113 60.7876 129.807 56.199 128.404 51.6215C127.662 49.1998 126.822 46.7879 125.725 44.506C125.542 43.8913 125.358 43.2767 125.166 42.6646C124.813 41.5344 124.545 39.9461 123.704 39.0513C122.852 38.1451 121.317 38.262 120.184 38.1776C117.034 37.9429 113.875 37.9248 110.72 38.0948C109.495 37.7687 105.856 37.1286 106.092 38.0265C106.543 39.7456 109.945 61.4582 110.521 65.3178C111.113 69.2843 111.788 73.2392 112.585 77.1698C113.651 82.4214 114.909 87.8141 116.661 92.8824C117.111 94.1839 117.966 95.3302 119.5 95.0508C120.518 94.8654 121.52 94.3734 122.489 94.0219C123.596 93.6202 124.703 93.2186 125.81 92.8171C127.956 92.039 130.101 91.2607 132.246 90.4826C134.271 89.7482 136.42 89.1433 138.371 88.2295C140.175 87.3845 140.286 85.6459 139.699 83.9393Z" fill="#BAA17D"/>
<path d="M110.73 38.3769C111.825 40.8342 112.298 43.5099 112.57 46.1706C112.855 48.9563 113.002 51.759 113.189 54.5525C113.384 57.471 113.566 60.3905 113.709 63.312C113.851 66.2171 113.956 69.1242 113.998 72.0325C114.04 74.9539 114.019 77.8766 113.91 80.7965C113.896 81.1598 113.881 81.5231 113.865 81.8863C113.855 82.1118 114.205 82.1113 114.215 81.8863C114.346 78.9526 114.387 76.0154 114.36 73.0791C114.334 70.1418 114.24 67.2054 114.105 64.2711C113.97 61.3348 113.793 58.4005 113.6 55.4674C113.411 52.6074 113.248 49.7416 112.989 46.8869C112.75 44.2412 112.363 41.5745 111.401 39.0839C111.286 38.7861 111.162 38.4916 111.032 38.2001C110.941 37.9946 110.639 38.1726 110.73 38.3769Z" fill="#1B1323"/>
<path d="M131.931 45.1931C130.76 43.9795 129.526 42.8259 128.236 41.7391C128.019 41.5564 127.801 41.3756 127.581 41.1967C126.044 39.9469 122.311 37.3083 120.245 38.6602C119.753 38.9817 120.761 39.9385 120.527 40.4714C119.673 42.4091 119.851 44.5846 120.302 46.5995C120.844 49.017 121.731 51.3519 122.615 53.6604C123.554 56.1091 124.498 58.5555 125.44 61.0031C125.607 61.4365 125.774 61.8699 125.94 62.3034C125.66 62.5298 125.639 62.9957 126.031 63.2547C127.106 63.9665 128.169 64.7053 129.268 65.3805C130.266 65.9942 131.341 66.4746 132.496 66.7011C133.613 66.9201 134.872 66.9793 135.951 66.5606C137.107 66.1122 139.877 66.298 140.435 65.2181C141.23 63.6814 141.241 60.7296 140.82 59.1307C140.009 56.05 138.318 53.1975 136.472 50.6318C135.092 48.713 133.572 46.8942 131.931 45.1934V45.1931Z" fill="#BAA17D"/>
<path d="M134.878 59.8592C133.417 58.5086 131.575 57.7833 129.611 57.5766C127.504 57.3546 125.414 57.6461 123.318 57.8347C121.134 58.031 118.93 58.0148 116.742 57.9169C116.167 57.8903 115.564 57.8191 115.008 58.0031C114.665 58.1178 114.39 58.3205 114.177 58.5816C114.023 58.7687 113.903 58.9863 113.811 59.2216C113.399 60.2952 113.212 61.4504 113.196 62.5973C113.195 62.7137 113.225 62.8068 113.27 62.8848C113.284 63.2213 113.428 63.5539 113.608 63.8544C113.95 64.4212 114.318 64.9737 114.672 65.533C115.044 66.1213 115.392 66.7363 115.809 67.2959C116.143 67.7443 116.539 68.1061 117.013 68.3896C117.093 68.4418 117.182 68.4892 117.27 68.5364C117.806 68.8099 118.382 69.0085 118.944 69.2242C119.488 69.4326 120.033 69.6378 120.584 69.833C121.693 70.2278 122.817 70.5907 123.97 70.8532C126.202 71.3581 128.624 71.3856 130.899 71.2643C132.267 71.1913 133.633 70.9409 134.905 70.4218C136.657 69.7069 138.224 68.4642 139.438 67.0239C140.185 66.1365 141.129 64.6181 140.985 62.9328C140.93 62.2864 139.5 59.2592 139.191 58.6928C139.134 58.5923 137.201 62.8119 137.138 62.7151C137.061 62.5733 136.977 62.4353 136.887 62.3011C136.311 61.4189 135.652 60.5772 134.877 59.8592H134.878Z" fill="#BAA17D"/>
<path d="M117.7 70.1899C116.857 70.145 116.202 69.3129 115.713 68.4493C115.424 67.9425 115.195 67.4243 115.018 67.0498C114.522 66.0023 113.851 64.8562 113.513 63.6786C113.38 63.4251 113.282 63.1583 113.27 62.8847C113.225 62.8062 113.194 62.7142 113.196 62.5976C113.214 61.4492 113.401 60.2963 113.811 59.222C113.811 59.2197 113.813 59.2197 113.815 59.2153C113.925 58.9305 114.143 58.7083 114.41 58.5828C114.592 58.4953 114.798 58.455 115.004 58.4729C115.015 58.4751 115.249 58.5087 115.352 58.5401C115.365 58.5446 115.379 58.549 115.392 58.5536C115.417 58.5602 115.439 58.5693 115.464 58.5783C115.514 58.594 115.561 58.6141 115.61 58.6366C115.637 58.6478 115.657 58.6567 115.666 58.6612C115.686 58.6702 115.704 58.6837 115.722 58.6903C115.872 58.7688 116.009 58.8586 116.144 58.9617C116.245 59.0424 116.341 59.1277 116.429 59.2173C116.702 59.4864 116.938 59.7982 117.151 60.1123C117.205 60.193 117.261 60.276 117.312 60.359C117.344 60.4061 117.375 60.4554 117.404 60.5048C118.62 62.492 119.093 64.8382 119.203 67.1439C119.205 67.2067 119.208 67.2694 119.21 67.3322C119.212 67.3905 119.214 67.4489 119.217 67.5072C119.248 68.5255 119.113 70.2637 117.7 70.1898V70.1899Z" fill="#1B1323"/>
<path d="M111.756 61.4892C109.579 59.9657 107.364 58.4971 105.108 57.093C104.53 56.7332 103.949 56.3774 103.366 56.0256C102.83 55.7026 102.272 55.2726 101.68 55.0638C101.073 54.8497 100.52 55.1299 100.077 55.54C99.4705 56.1018 95.6638 59.7732 95.4489 60.0223C94.7845 60.7923 95.7234 61.5268 96.3225 61.9175C97.385 62.6094 98.4762 63.2553 99.5602 63.9126C100.621 64.5558 101.624 65.2863 102.663 65.9629C103.301 66.3783 103.951 66.7758 104.629 67.1234C105.315 67.4753 105.993 67.8037 106.764 67.5024C108.232 66.9283 109.348 65.653 110.487 64.6172C110.814 64.32 111.151 64.0386 111.509 63.7794C111.818 63.5558 112.128 63.3257 112.299 62.9739C112.592 62.3726 112.292 61.7112 111.756 61.4893L111.756 61.4892Z" fill="#1B1323"/>
<path d="M119.208 67.3325C118.683 67.3391 117.461 67.3908 117.25 67.5433C117.001 67.7272 116.788 67.8954 116.541 68.048C116.465 68.0973 116.387 68.1422 116.304 68.187C116.133 68.2767 115.943 68.3642 115.711 68.4494C114.949 68.7253 113.765 68.9653 111.53 69.2187C110.893 69.2905 110.25 69.3241 109.613 69.3757L107.69 69.535C107.116 69.5821 106.524 69.6741 105.939 69.6562C105.396 69.6404 104.862 69.4834 104.496 69.0551C104.335 68.869 104.232 68.6604 104.185 68.4428C103.853 68.454 103.521 68.4382 103.195 68.3957C102.832 68.3508 102.473 68.1736 102.269 67.8596C102.076 67.559 102.036 67.1822 102.119 66.8368C102.282 66.1729 102.792 65.657 103.312 65.251C103.485 65.121 103.873 64.8631 103.873 64.8092C103.709 64.8002 103.532 64.9573 103.379 65.0178C103.052 65.1568 102.745 65.1411 102.464 64.9124C101.424 64.0714 102.682 62.2322 103.507 61.4359C104.207 60.7585 105.178 60.0542 106.185 59.8748C106.437 59.8299 108.507 59.3858 108.668 59.3858C108.496 59.249 107.029 58.3114 105.665 57.4434C106.226 57.2573 106.84 57.1137 107.401 56.9185C107.852 56.7592 108.316 56.6157 108.792 56.5372C109.227 56.4609 109.657 56.4812 110.09 56.5776C110.503 56.6696 110.905 56.8199 111.304 56.9656C111.786 57.1384 112.264 57.3245 112.742 57.5152C113.32 57.744 113.711 57.9122 114.146 58.0827C114.316 58.15 115 58.4034 115.39 58.5537C115.415 58.5626 115.44 58.5716 115.462 58.5784C115.521 58.603 115.572 58.6209 115.608 58.6367C115.635 58.6479 115.655 58.6568 115.664 58.6613C115.684 58.6703 115.702 58.6838 115.72 58.6904C115.87 58.7689 116.007 58.8587 116.142 58.9618V58.9641C116.243 59.0425 116.337 59.1278 116.427 59.2176C116.7 59.4867 116.936 59.7984 117.149 60.1125C117.203 60.1932 117.259 60.2762 117.31 60.3592C117.342 60.4063 117.373 60.4557 117.402 60.505C118.618 62.4923 119.091 64.8384 119.201 67.1441C119.204 67.2069 119.206 67.2696 119.208 67.3325H119.208Z" fill="#FF9A78"/>
<path d="M103.038 63.0267C103.038 63.0278 103.038 63.0285 103.038 63.0296C103.045 63.025 103.05 63.0206 103.054 63.0166C103.048 63.0205 103.043 63.0237 103.038 63.0266L103.038 63.0267Z" fill="#FF9A78"/>
<path d="M114.589 58.2755C115.144 57.8882 115.768 57.8674 116.422 57.8651C117.171 57.8623 117.92 57.8564 118.669 57.8438C120.177 57.8186 121.685 57.7671 123.189 57.6619C126.125 57.4566 129.082 56.9182 131.973 57.751C133.419 58.1676 134.784 58.8598 135.971 59.7843C136.147 59.9212 136.397 59.675 136.219 59.5366C134.002 57.8107 131.305 56.9401 128.504 56.9326C126.923 56.9284 125.355 57.1418 123.783 57.2672C122.223 57.3917 120.66 57.4541 119.096 57.4858C118.231 57.5033 117.366 57.5113 116.501 57.5146C115.763 57.5174 115.039 57.5353 114.412 57.9732C114.228 58.1013 114.403 58.4052 114.589 58.2757L114.589 58.2755Z" fill="#1B1323"/>
<path d="M126.458 56.4999C127.797 56.3972 129.102 56.0559 130.369 55.6212C131.453 55.2492 132.531 54.7719 133.335 53.9305C133.491 53.7675 133.243 53.5194 133.087 53.6827C132.308 54.4982 131.259 54.9499 130.208 55.3064C128.993 55.7187 127.742 56.051 126.458 56.1496C126.235 56.1668 126.233 56.5173 126.458 56.4999Z" fill="#1B1323"/>
<path d="M124.246 57.3854C123.231 54.8986 122.481 52.3065 122.016 49.6608C121.612 47.357 121.303 44.9065 121.766 42.5872C122.009 41.369 122.49 40.201 123.306 39.2525C123.452 39.0823 123.205 38.8334 123.058 39.0047C121.563 40.7438 121.162 43.0788 121.199 45.309C121.219 46.5535 121.367 47.7952 121.558 49.024C121.768 50.3778 122.052 51.72 122.409 53.0427C122.816 54.5509 123.318 56.0322 123.908 57.4785C123.992 57.6845 124.331 57.5944 124.246 57.3854H124.246Z" fill="#1B1323"/>
<path d="M115.948 68.6927C116.38 69.2656 116.799 69.8514 117.256 70.4055C117.498 70.699 117.76 70.9773 118.087 71.1774C118.495 71.4274 118.97 71.5725 119.428 71.6986C120.043 71.8676 120.673 71.9769 121.306 72.0544C124.234 72.4129 127.248 72.1191 130.148 71.662C131.586 71.4353 133.017 71.1514 134.426 70.7878C134.645 70.7315 134.552 70.3935 134.333 70.45C131.729 71.1217 129.047 71.5588 126.365 71.7558C124.926 71.8614 123.477 71.8943 122.038 71.7779C121.391 71.7255 120.746 71.641 120.111 71.5045C119.579 71.39 119.023 71.2535 118.529 71.0174C118.183 70.852 117.908 70.6235 117.656 70.3366C117.15 69.7622 116.711 69.1258 116.251 68.5157C116.117 68.3379 115.812 68.5123 115.948 68.6925L115.948 68.6927Z" fill="#1B1323"/>
<path d="M108.88 59.387C109.575 59.2573 110.222 58.903 110.708 58.3914C110.864 58.228 110.616 57.9799 110.461 58.1436C110.012 58.6156 109.427 58.9297 108.787 59.0491C108.694 59.0665 108.641 59.1789 108.665 59.2645C108.692 59.3622 108.787 59.4042 108.88 59.3868L108.88 59.387Z" fill="#1B1323"/>
<path d="M104.077 64.8384C104.447 64.5344 104.818 64.2304 105.189 63.9264C105.539 63.64 105.888 63.2758 106.293 63.0704C106.668 62.8806 107.116 62.7927 107.52 62.6884C107.977 62.5705 108.438 62.4702 108.903 62.3847C109.124 62.344 109.03 62.0063 108.81 62.0468C108.332 62.1348 107.857 62.2386 107.387 62.361C106.965 62.4709 106.508 62.5679 106.117 62.7678C105.722 62.9694 105.383 63.3169 105.043 63.5956C104.638 63.9272 104.233 64.2589 103.829 64.5905C103.654 64.7335 103.904 64.9802 104.077 64.8383L104.077 64.8384Z" fill="#1B1323"/>
<path d="M104.521 68.5022C104.506 68.2615 104.815 68.0815 104.979 67.9474C105.189 67.7767 105.4 67.6089 105.615 67.4447C106.031 67.1255 106.454 66.8068 106.899 66.5276C107.817 65.9518 108.833 65.851 109.891 65.793C110.115 65.7807 110.117 65.4303 109.891 65.4427C109.321 65.4739 108.748 65.5067 108.189 65.6257C107.609 65.7491 107.082 65.9866 106.588 66.312C106.102 66.6322 105.635 66.9857 105.177 67.344C104.944 67.5262 104.709 67.7085 104.486 67.9032C104.305 68.0608 104.155 68.2513 104.171 68.5022C104.185 68.7261 104.536 68.7277 104.521 68.5022Z" fill="#1B1323"/>
<path d="M96.0714 61.3353C96.8845 60.516 97.7172 59.7165 98.5546 58.9221C98.9618 58.5358 99.3661 58.1455 99.7814 57.7679C100.165 57.4189 100.574 57.0252 101.036 56.7815C101.566 56.5016 102.253 57.0381 102.696 57.3054C103.317 57.6801 103.926 58.0751 104.533 58.4712C105.124 58.8568 105.711 59.2507 106.308 59.6273C106.499 59.748 106.675 59.4449 106.485 59.3249C105.288 58.5699 104.125 57.7615 102.914 57.028C102.447 56.7452 101.832 56.2868 101.257 56.35C100.781 56.4024 100.36 56.8125 100.007 57.1062C99.5787 57.4631 99.177 57.8504 98.7725 58.2334C97.7787 59.1738 96.7873 60.1166 95.8236 61.0877C95.6647 61.2479 95.9123 61.4957 96.0714 61.3353Z" fill="#575473"/>
<path d="M97.2332 61.8424C97.5124 62.125 97.8623 62.3634 98.2424 62.4866C98.4372 62.5497 98.6458 62.5571 98.8337 62.4691C99.0187 62.3825 99.1267 62.2028 99.1406 62.0025C99.1665 61.6283 98.877 61.282 98.5938 61.0748C98.3058 60.8641 97.9067 60.7425 97.5513 60.8112C97.1007 60.8982 96.9813 61.3969 97.1643 61.7676C97.2061 61.8525 97.3264 61.8759 97.4039 61.8305C97.4905 61.7799 97.5089 61.676 97.4668 61.5908C97.426 61.5081 97.4145 61.4009 97.4391 61.3143C97.4502 61.2751 97.4675 61.2421 97.4933 61.2164C97.5289 61.1813 97.5859 61.1584 97.6443 61.1489C97.8842 61.1103 98.1481 61.2021 98.3477 61.3301C98.5456 61.4569 98.7519 61.6733 98.7878 61.9154C98.803 62.0184 98.7731 62.1101 98.6771 62.1568C98.5626 62.2125 98.426 62.1808 98.3077 62.1394C97.9958 62.0304 97.7115 61.8282 97.4809 61.5947C97.3222 61.4341 97.0745 61.6817 97.2332 61.8424Z" fill="#575473"/>
<path d="M99.406 63.2278C99.6853 63.5104 100.035 63.7489 100.415 63.872C100.61 63.9351 100.819 63.9424 101.007 63.8545C101.192 63.768 101.3 63.5883 101.313 63.388C101.339 63.0137 101.05 62.6674 100.767 62.4602C100.479 62.2495 100.08 62.1279 99.7242 62.1966C99.2736 62.2836 99.1542 62.7824 99.3371 63.1531C99.379 63.238 99.4993 63.2613 99.5768 63.2159C99.6632 63.1654 99.6817 63.0614 99.6396 62.9763C99.5988 62.8935 99.5874 62.7863 99.6119 62.6998C99.6231 62.6605 99.6403 62.6275 99.6662 62.6019C99.7017 62.5667 99.7587 62.5438 99.8172 62.5344C100.057 62.4958 100.321 62.5876 100.521 62.7155C100.719 62.8424 100.925 63.0588 100.961 63.3008C100.976 63.4038 100.946 63.4955 100.85 63.5423C100.736 63.5979 100.599 63.5662 100.481 63.5248C100.169 63.4159 99.8845 63.2136 99.6538 62.9802C99.4951 62.8196 99.2473 63.0672 99.406 63.2278Z" fill="#575473"/>
<path d="M75.5135 73.2076C75.2624 74.4165 74.8922 75.6187 74.3674 76.7358C73.3715 78.8643 72.6941 80.4883 70.3524 81.0758C69.2758 81.3449 67.1226 81.5042 66.0952 81.0669C65.0097 80.6071 64.1415 79.7682 63.4193 78.8554C62.5872 77.8034 61.8806 76.6461 61.1719 75.5112C60.3846 74.2507 59.6287 72.9721 58.9154 71.6712C57.4754 69.0448 56.2014 66.3263 55.1719 63.5137C54.7166 62.2712 54.2769 61.0084 53.9989 59.7142C53.7522 58.559 53.6445 57.3434 53.9024 56.1816C54.324 54.2885 55.9773 52.5525 58.0206 52.5861C58.1216 52.5884 57.6393 52.0142 57.599 51.9716C57.2693 51.6127 56.9239 51.2741 56.6255 50.8883C56.971 50.8793 57.3074 51.0049 57.6303 51.1328C58.0229 51.2898 58.4177 51.4558 58.8079 51.6375C59.1108 51.7765 59.409 51.9246 59.7029 52.0839C60.0595 52.2746 60.4049 52.4854 60.7369 52.7142C60.7504 52.7231 60.7661 52.7343 60.7795 52.7434C61.3963 53.1695 61.9436 53.5508 62.455 53.9927C62.7443 54.2439 63.0225 54.513 63.296 54.8226C63.3477 54.8809 63.3969 54.9392 63.4486 54.9997C63.6303 55.2195 63.8097 55.4551 63.9824 55.7018C64.5095 56.442 65.0052 57.2808 65.5166 58.0344C65.6781 58.2744 65.8418 58.5054 66.0078 58.723C66.0639 58.7948 66.12 58.8665 66.1738 58.9406C67.2908 60.3963 68.3943 61.8653 69.6908 63.1708C70.7271 64.2093 71.7858 65.2231 72.8579 66.2256C73.8515 67.1588 74.8788 68.1546 75.3836 69.451C75.8501 70.6532 75.7716 71.9676 75.5137 73.208L75.5135 73.2076Z" fill="white"/>
<path d="M67.9666 81.516C67.2232 81.516 66.5064 81.4361 66.0252 81.2312C65.0598 80.8223 64.1614 80.0813 63.2792 78.966C62.5058 77.9884 61.8351 76.9124 61.1863 75.8718L61.0202 75.6056C60.1859 74.2697 59.4462 73.0109 58.7585 71.7569C57.2415 68.9898 55.9783 66.237 55.004 63.5749C54.5848 62.4313 54.1135 61.0984 53.824 59.7515C53.5279 58.365 53.4964 57.1845 53.7278 56.1424C54.1191 54.3859 55.6383 52.5422 57.7277 52.4136C57.6278 52.282 57.504 52.1318 57.4687 52.0939C57.3771 51.9942 57.286 51.8978 57.1949 51.8014C56.9544 51.5471 56.7056 51.2841 56.4839 50.9972C56.4426 50.9439 56.4349 50.872 56.4637 50.8111C56.4927 50.7503 56.5534 50.7108 56.6206 50.709C56.9928 50.6991 57.3402 50.8252 57.6961 50.9661C58.1533 51.149 58.5304 51.3106 58.8832 51.4749C59.1962 51.6187 59.501 51.7706 59.788 51.9262C60.146 52.1174 60.4996 52.333 60.8383 52.5663L60.8783 52.5937C61.4481 52.9874 62.0345 53.3926 62.5718 53.8566C62.8893 54.1324 63.17 54.4093 63.4301 54.7034C63.4764 54.7559 63.5211 54.8083 63.5671 54.8624L63.5846 54.883C63.773 55.111 63.9555 55.351 64.1288 55.5985C64.4331 56.0257 64.7306 56.4913 65.0183 56.9416C65.2296 57.2723 65.4479 57.6141 65.6644 57.9333C65.8344 58.1858 65.9932 58.4083 66.1498 58.6139C66.206 58.6855 66.2631 58.7589 66.3183 58.8347L66.5491 59.1356C67.5671 60.4641 68.6196 61.8378 69.8176 63.044C70.753 63.9813 71.7876 64.9792 72.98 66.0944C73.8854 66.9445 75.0117 68.0023 75.5501 69.3855C75.9623 70.4479 76.0076 71.7098 75.6887 73.2437C75.4168 74.5525 75.0266 75.753 74.5291 76.8115L74.4192 77.0471C73.477 79.067 72.7327 80.6626 70.3958 81.2491C69.7879 81.401 68.858 81.5159 67.9664 81.5159L67.9666 81.516ZM57.9595 52.7642C55.9374 52.7642 54.4523 54.5355 54.077 56.2202C53.857 57.211 53.8886 58.3417 54.1738 59.6766C54.4584 61.0008 54.925 62.3197 55.3399 63.4519C56.3081 66.0972 57.5639 68.8336 59.0723 71.585C59.7565 72.8329 60.493 74.0861 61.3238 75.4161L61.49 75.6826C62.1335 76.7148 62.7988 77.7823 63.5599 78.7441C64.404 79.8111 65.2562 80.517 66.1652 80.902C67.1156 81.3064 69.2192 81.1748 70.3092 80.9021C72.481 80.3571 73.1583 78.9053 74.0954 76.8959L74.2057 76.6597C74.6914 75.6262 75.0727 74.4525 75.3388 73.171C75.6434 71.7067 75.6035 70.5109 75.2171 69.5151C74.7082 68.2077 73.6146 67.1807 72.7358 66.3555C71.5406 65.2378 70.5031 64.2371 69.5645 63.2966C68.3501 62.0737 67.2903 60.6908 66.2655 59.3533L66.0321 59.049C65.9768 58.973 65.922 58.9028 65.8671 58.8327C65.7047 58.6196 65.5419 58.3916 65.3683 58.1337C65.1493 57.8111 64.9296 57.467 64.7171 57.1343C64.4318 56.6877 64.1368 56.2259 63.8369 55.8049C63.6682 55.564 63.4915 55.3317 63.3108 55.113L63.2948 55.0943C63.2504 55.0419 63.2071 54.9911 63.1621 54.9403C62.9126 54.658 62.643 54.392 62.3377 54.1271C61.8155 53.6758 61.2371 53.2762 60.6779 52.8898L60.637 52.8618C60.3077 52.635 59.9657 52.4265 59.6186 52.2409C59.3375 52.0887 59.0399 51.9404 58.7332 51.7994C58.3857 51.6376 58.0144 51.4784 57.5638 51.2983C57.3861 51.2279 57.2174 51.164 57.0527 51.1213C57.1815 51.2666 57.316 51.4088 57.4548 51.5557C57.547 51.6532 57.6394 51.7509 57.7306 51.8501C57.8975 52.0264 58.2809 52.4615 58.1966 52.6518C58.1654 52.722 58.0945 52.7675 58.0165 52.7646C57.9976 52.7642 57.9784 52.7641 57.9594 52.7641L57.9595 52.7642Z" fill="#1B1323"/>
<path d="M71.623 125.075C71.1587 120.585 69.2341 114.334 67.6372 109.77C64.9456 102.081 61.857 94.5446 58.6316 87.0645C57.1804 83.6978 55.7022 80.3401 54.2196 76.9892C53.9885 76.4644 53.7553 75.9395 53.5242 75.4147C53.5915 75.7018 53.6588 75.9889 53.7261 76.276C53.051 76.5428 52.4184 76.8502 51.8218 77.1955C51.4764 77.3951 51.1444 77.606 50.8258 77.8326C49.1885 78.9809 47.8673 80.4478 46.7929 82.1659C46.2636 83.0093 45.7948 83.911 45.3776 84.8643C44.4737 86.9412 43.7492 89.1213 43.1795 91.3127C42.5873 93.587 42.2822 95.9219 42.2351 98.2703C42.1409 103.068 43.0426 107.823 44.1058 112.479C45.2004 117.272 46.4004 122.043 47.5937 126.812C47.7126 127.287 47.8248 127.765 47.9391 128.243C45.8307 132.82 43.7222 137.398 41.6183 141.978C41.0665 143.178 40.5102 144.408 40.3061 145.724C40.1335 146.843 40.1312 148.158 41.1158 148.907C41.616 149.288 42.2262 149.515 42.7936 149.773C43.4307 150.06 44.0677 150.345 44.7069 150.623C45.9899 151.183 47.2773 151.728 48.5715 152.258C51.16 153.314 53.7731 154.308 56.4085 155.236C56.9828 155.438 57.5591 155.638 58.1379 155.835C58.8827 156.089 59.6296 156.338 60.3787 156.582C61.4531 156.93 62.8864 157.666 63.9182 156.824C65.4121 155.609 65.9863 151.643 66.6053 149.851C67.6057 146.956 68.5499 144.04 69.335 141.079C70.9523 134.965 72.2241 130.894 71.6229 125.076L71.623 125.075Z" fill="#B6A6BA"/>
<path d="M57.5811 161.436C56.4237 162.658 54.1291 162.858 52.5432 162.997C46.4266 163.528 39.9016 163.593 33.7715 163.098C32.9931 163.035 32.1902 162.95 31.5172 162.593C31.2234 162.438 31.0013 162.221 30.8331 161.96C29.9829 160.635 30.5886 158.181 30.6088 156.894C30.6469 154.554 30.6851 152.215 30.7276 149.876C30.8106 145.197 30.9094 140.518 31.0393 135.839C31.0617 134.96 31.0864 134.083 31.1111 133.206C31.1425 132.12 31.1717 131.035 31.203 129.952C31.295 126.787 31.3937 123.622 31.5103 120.457C31.5238 120.453 31.5373 120.451 31.5507 120.446C31.5261 120.377 31.5148 120.303 31.5171 120.231C31.6495 116.687 31.7997 113.148 31.9904 109.608C32.3335 103.261 32.2236 96.5969 33.7107 90.3638C34.3679 87.6162 36.474 82.0784 38.578 78.2744C38.6498 78.1421 38.7238 78.0143 38.7979 77.8865V77.8842C39.4057 76.8187 40.0091 75.9127 40.5743 75.2734C42.9877 72.5482 46.2761 74.2842 48.8577 72.2993C49.1649 73.3176 49.5104 74.3269 49.8738 75.325C50.1161 75.9867 50.3651 76.6438 50.6184 77.301C50.6857 77.4782 50.7553 77.6554 50.8248 77.8326C51.4866 79.5507 52.164 81.2643 52.7426 83.0115C52.9602 83.6687 53.1666 84.3281 53.3685 84.9898C53.5905 85.7076 53.8037 86.4298 54.0212 87.1497C54.4317 88.5067 54.8332 89.8682 55.2167 91.2318C54.0078 92.0415 52.7988 92.8041 51.5091 93.6609C51.3028 93.8 51.1906 94.0221 51.2176 94.253C51.8636 99.8895 52.6306 107.583 53.3305 114.092C53.4001 114.121 53.4561 114.175 53.4629 114.262C53.5548 115.541 56.7937 144.194 58.1373 155.835C58.2024 156.4 58.263 156.923 58.319 157.403C58.4649 158.677 58.5859 160.373 57.5811 161.436Z" fill="#B6A6BA"/>
<path d="M56.3205 89.5028C55.4035 89.8918 54.583 90.4632 53.8066 91.0809C53.1062 91.6382 52.3632 92.2044 51.9196 92.9992C50.9651 94.7088 51.419 96.8826 51.6526 98.7171C51.9405 100.978 52.1332 103.254 52.3742 105.521C52.6173 107.808 52.8638 110.094 53.1122 112.38C53.6125 116.985 54.1204 121.59 54.6314 126.194C55.1412 130.786 55.6543 135.378 56.1698 139.97C56.6818 144.53 57.196 149.091 57.7133 153.651C57.7762 154.204 57.839 154.758 57.902 155.312C57.9271 155.533 58.2778 155.536 58.2524 155.312C57.7418 150.821 57.2351 146.329 56.7301 141.838C56.2242 137.338 55.7207 132.838 55.22 128.337C54.7148 123.795 54.2127 119.253 53.7164 114.71C53.2242 110.204 52.7339 105.697 52.2706 101.187C52.156 100.072 52.0297 98.9603 51.892 97.848C51.7657 96.8288 51.6374 95.776 51.7468 94.7493C51.8402 93.8719 52.1754 93.0467 52.796 92.41C53.4986 91.6892 54.3542 91.0447 55.1981 90.5006C55.612 90.2336 56.0437 89.9978 56.4974 89.8054C56.7042 89.7176 56.5259 89.4156 56.3205 89.5028Z" fill="#1B1323"/>
<path d="M37.3319 81.2656C37.7093 81.6076 38.2605 81.5791 38.7376 81.5562C39.2467 81.5318 39.7568 81.4554 40.2471 81.3146C41.2038 81.0398 42.075 80.508 42.6438 79.6783C42.7717 79.4918 42.4682 79.3164 42.3413 79.5014C41.8379 80.2357 41.0572 80.7056 40.2156 80.9587C39.7977 81.0844 39.3656 81.1613 38.9306 81.1941C38.5244 81.2246 37.9072 81.3146 37.5798 81.018C37.413 80.8669 37.1645 81.1139 37.332 81.2657L37.3319 81.2656Z" fill="#1B1323"/>
<path d="M50.6185 83.201C51.0339 84.83 51.2983 86.492 51.4067 88.1698C51.4211 88.3936 51.7716 88.3953 51.7571 88.1698C51.6468 86.4615 51.3794 84.7666 50.9564 83.1079C50.9008 82.8895 50.5627 82.9821 50.6185 83.201Z" fill="#1B1323"/>
<path d="M54.2196 76.9891C53.4211 77.0586 52.6203 77.1282 51.8218 77.1954C51.4203 77.2313 51.021 77.2649 50.6195 77.3008C48.1253 77.5161 45.631 77.7315 43.1369 77.9445C41.9413 78.0477 40.7436 78.1509 39.5481 78.2541C39.2969 78.1308 39.0479 78.0096 38.799 77.8862C38.7249 78.0141 38.651 78.1419 38.5791 78.2742C38.8146 78.3931 39.0501 78.5074 39.2857 78.6242C39.3172 78.6779 39.3732 78.7139 39.4562 78.7094C41.8809 79.9071 44.3258 81.0601 46.793 82.1657C48.9688 83.1436 51.1602 84.0857 53.3696 84.9896C54.6391 85.5122 55.9154 86.0213 57.1961 86.5171C57.6739 86.7032 58.1516 86.8849 58.6317 87.0643C57.1805 83.6977 55.7023 80.34 54.2197 76.9891H54.2196Z" fill="#1B1323"/>
<path d="M59.0285 48.475C59.4347 48.3961 59.3051 48.1242 59.385 47.7648C59.3988 46.1121 59.2294 43.2983 59.2616 41.6477C59.2956 39.9064 59.6301 37.8428 59.0241 36.1693C58.8112 35.5817 58.467 35.0841 58.0517 34.6459C57.7716 34.4077 57.4757 34.1882 57.1806 33.9686C56.7867 33.6755 56.396 33.3782 55.9956 33.094C55.9377 33.0529 55.879 33.0123 55.8207 32.9715C55.6267 32.9063 55.4411 32.9212 55.2796 32.9916C54.0611 32.5491 52.7779 33.4031 52.3353 34.6268C51.6774 36.4461 51.7845 38.7415 51.6764 40.6514C51.5672 42.581 51.4841 44.5145 51.4302 46.4465C51.4175 46.8991 51.4047 47.362 51.3994 47.8291C52.3986 48.0007 56.6229 48.9428 59.0287 48.4749L59.0285 48.475Z" fill="#181818"/>
<path d="M60.6741 65.0859C60.6293 65.3101 60.5777 65.5322 60.5171 65.7543C60.4744 65.9136 60.4273 66.0683 60.3758 66.2231C60.2278 66.6807 60.0528 67.1247 59.9048 67.5823C59.7051 68.1969 59.5526 68.8271 59.4337 69.4619C59.4269 69.5001 59.4202 69.536 59.4136 69.574C59.344 69.9464 59.2835 70.3209 59.232 70.6978C59.223 70.7606 59.214 70.8233 59.2073 70.8861C58.983 72.4943 58.8596 74.1182 58.5994 75.7218C58.5747 75.8743 58.5479 76.0291 58.5187 76.1817C58.4469 76.5675 58.3571 76.951 58.236 77.3233C58.1754 77.505 58.1082 77.6866 58.0319 77.8617C57.9601 78.0276 57.8748 78.1936 57.7762 78.3529C57.6596 78.4448 57.543 78.5369 57.4196 78.6332L57.4038 78.6355C54.6271 79.1603 51.8075 79.434 48.9837 79.5012C46.6734 79.5573 44.3564 79.4766 42.055 79.2815C42.0147 79.2792 41.9765 79.277 41.9361 79.2725C40.6015 79.1582 39.2692 79.0078 37.9412 78.8284C37.2953 78.7387 36.6493 78.6087 36.0033 78.5301C35.1151 78.4224 34.487 77.8886 34.3098 77.025C34.3076 77.0138 34.3053 77.0026 34.303 76.9914C34.2335 76.6236 34.1617 76.2535 34.0945 75.8856C33.9598 75.1859 33.8298 74.4861 33.6997 73.7862C33.6279 73.4026 33.5561 73.0191 33.4889 72.6356C33.3723 72.0099 33.2578 71.3818 33.1457 70.7538C33.0762 70.377 33.0088 70.0001 32.9438 69.6234C32.7891 68.7643 32.6366 67.903 32.4907 67.0395C32.4706 66.9251 32.4503 66.8084 32.4302 66.6941C32.3831 66.4271 32.3382 66.1625 32.2933 65.8956C32.2665 65.7408 32.2395 65.5838 32.2126 65.429C32.1229 64.9064 32.0265 64.4152 31.9278 63.9374C31.8269 63.4553 31.7237 62.9887 31.6227 62.5132C31.6182 62.4931 31.6138 62.4728 31.6092 62.4526C31.5308 62.0757 31.4523 61.6946 31.3783 61.2998C31.237 60.5573 31.1113 59.7634 31.0171 58.8595C31.0082 58.7765 31.0014 58.6912 30.9924 58.606C30.9768 58.44 31.6833 58.0766 31.6968 57.9106C31.7102 57.8681 31.7236 57.8231 31.7393 57.7805C32.069 56.7712 32.5289 55.6543 33.0582 54.627C33.2534 54.2502 33.4552 53.8868 33.666 53.5436C34.3142 52.4805 35.0186 51.6282 35.6825 51.2828C35.7991 51.2222 35.9628 51.155 36.1669 51.0832C36.2835 51.0406 36.4115 50.9979 36.5505 50.9531C37.3961 50.684 38.6567 50.361 39.989 50.0469C42.7479 49.392 45.8141 48.7663 46.1505 48.7034C46.1953 48.6945 46.5476 48.7505 46.8885 48.8044C47.2025 48.8538 47.5075 48.9031 47.5501 48.8986C47.9314 48.8582 48.315 48.8223 48.6984 48.8044C49.5956 48.7596 50.327 48.6048 51.204 48.7932C52.3569 49.0422 53.5277 49.4751 54.6223 49.9595C54.7838 50.029 54.943 50.1008 55.1001 50.1749C55.625 50.4171 56.1835 50.5674 56.6903 50.8634C56.7262 50.8837 56.7621 50.9061 56.798 50.9285C57.2578 51.2111 57.6795 51.5588 58.0451 51.9536C58.2985 52.2272 59.8664 56.1568 60.0301 56.8409C60.1199 57.2064 60.2029 57.572 60.2836 57.94C60.3218 58.1283 60.3599 58.319 60.3981 58.5074C60.5573 59.3171 60.7076 60.1335 60.8041 60.9566C60.8467 61.3245 60.8803 61.6923 60.896 62.0602C60.9006 62.1163 60.9027 62.1702 60.905 62.2262C60.9431 63.1884 60.8691 64.1462 60.6739 65.086L60.6741 65.0859Z" fill="#F0DED7"/>
<path d="M47.5457 79.6974C45.7487 79.6974 43.902 79.6178 42.0369 79.4596C41.9985 79.4576 41.9572 79.4551 41.9135 79.4502C40.6295 79.3403 39.2825 79.1905 37.9144 79.0056C37.6278 78.9658 37.3382 78.9176 37.0581 78.8711C36.7037 78.8122 36.3373 78.7513 35.9788 78.7076C34.9953 78.5884 34.322 77.9882 34.1317 77.061L34.0575 76.6725C34.0096 76.4209 33.9615 76.1688 33.9156 75.9179C33.7829 75.2281 33.6544 74.5369 33.5259 73.8456L33.521 73.819C33.4491 73.435 33.3773 73.0508 33.3098 72.6665C33.1934 72.0421 33.079 71.4137 32.9668 70.7852C32.8974 70.4087 32.8299 70.0311 32.7648 69.6537C32.5829 68.6446 32.4388 67.8228 32.3115 67.0692L32.2512 66.7251C32.204 66.4578 32.159 66.1926 32.1141 65.9253L32.0335 65.4598C31.9556 65.0061 31.8655 64.5341 31.7497 63.9737C31.6919 63.6973 31.6331 63.4256 31.5746 63.1543C31.5312 62.9533 31.4879 62.7526 31.4448 62.5504L31.4318 62.4921C31.3553 62.1244 31.2749 61.7346 31.1996 61.3328C31.0376 60.4827 30.9222 59.7026 30.8364 58.8781C30.8316 58.8346 30.8274 58.7897 30.8233 58.7445C30.8196 58.7048 30.8159 58.6648 30.8117 58.6248C30.794 58.4375 30.9815 58.2969 31.2408 58.1024C31.3324 58.0337 31.483 57.9209 31.5198 57.8697C31.5208 57.8654 31.5221 57.8612 31.5234 57.8569L31.5312 57.8321C31.543 57.7944 31.5551 57.7557 31.5687 57.7188C31.9112 56.6699 32.3835 55.5405 32.8963 54.5452C33.1076 54.1374 33.3085 53.7793 33.5108 53.4502C34.0159 52.6216 34.7882 51.5451 35.5971 51.1243C35.7207 51.0602 35.8915 50.9897 36.1048 50.9146C36.2213 50.872 36.3514 50.8286 36.4928 50.783C37.2664 50.5367 38.4277 50.2306 39.9452 49.873C42.7073 49.2173 45.7654 48.593 46.115 48.5277C46.1769 48.5152 46.2857 48.5285 46.8878 48.6237L47.011 48.6431C47.2197 48.676 47.478 48.7167 47.5369 48.7199C47.876 48.684 48.2771 48.645 48.6874 48.6257C48.9157 48.6143 49.1359 48.5954 49.3488 48.5772C49.973 48.5235 50.5624 48.473 51.2389 48.6183C52.2799 48.8431 53.4095 49.2283 54.6921 49.796C54.8534 49.8655 55.0159 49.9387 55.1736 50.013C55.3704 50.1038 55.5798 50.1842 55.7823 50.2619C56.1129 50.3889 56.4549 50.5203 56.7779 50.7088C56.8137 50.7289 56.8519 50.7528 56.8901 50.7766C57.3616 51.0665 57.7939 51.4217 58.1736 51.8318C58.4841 52.1672 60.0509 56.1704 60.2014 56.799C60.2808 57.1223 60.3616 57.4729 60.4556 57.9015L60.5706 58.4717C60.7246 59.2543 60.8803 60.0935 60.9791 60.9357C61.0273 61.3536 61.0577 61.7188 61.072 62.0525C61.0763 62.1043 61.0787 62.1604 61.081 62.2191C61.1201 63.2067 61.0413 64.1832 60.8464 65.1215C60.799 65.3592 60.7468 65.5815 60.6868 65.8013C60.6447 65.9581 60.5975 66.1147 60.5425 66.2795C60.4682 66.5094 60.3857 66.7397 60.3058 66.9627C60.2269 67.1832 60.1452 67.4111 60.072 67.6373C59.8854 68.2117 59.7331 68.8193 59.6067 69.4948L59.5867 69.6052C59.5178 69.9747 59.4571 70.3498 59.4062 70.722C59.3974 70.7842 59.3886 70.8447 59.3821 70.9052C59.2865 71.5915 59.2083 72.2877 59.1327 72.9609C59.0298 73.8766 58.9233 74.8235 58.7729 75.7504C58.748 75.9046 58.7207 76.061 58.6914 76.2152C58.6102 76.651 58.5157 77.0318 58.403 77.3787C58.3342 77.5851 58.2656 77.7661 58.1927 77.9331C58.115 78.113 58.0248 78.2861 57.925 78.447C57.9141 78.4646 57.9002 78.4803 57.8839 78.4931C57.767 78.5853 57.6502 78.6775 57.5265 78.774C57.502 78.7932 57.4728 78.8056 57.442 78.8101L57.4263 78.8123C54.7525 79.3179 51.9098 79.6102 48.9847 79.6798C48.5092 79.6914 48.0289 79.6971 47.5456 79.6971L47.5457 79.6974ZM31.1711 58.624C31.1739 58.6527 31.1767 58.6822 31.1794 58.7115C31.1835 58.7548 31.1874 58.798 31.1919 58.8404C31.2768 59.6552 31.3909 60.4259 31.551 61.2664C31.6257 61.6656 31.7057 62.0533 31.7813 62.4164L31.7943 62.4747C31.8375 62.6782 31.8807 62.8784 31.9241 63.079C31.9829 63.3509 32.0417 63.6234 32.0999 63.9011C32.2165 64.4659 32.3074 64.9417 32.386 65.399L32.4667 65.8652C32.5116 66.1325 32.5565 66.3967 32.6034 66.6632L32.664 67.0086C32.7912 67.7623 32.9352 68.5827 33.117 69.5919C33.1821 69.9694 33.2493 70.3454 33.3187 70.7216C33.4311 71.3502 33.5453 71.9778 33.6619 72.6031C33.7294 72.9878 33.801 73.3707 33.8727 73.7536L33.8776 73.7804C34.006 74.471 34.1344 75.1614 34.2673 75.8522C34.3133 76.1039 34.3612 76.355 34.4089 76.6058L34.4824 76.9907C34.6418 77.7677 35.1886 78.2519 36.0219 78.3528C36.3882 78.3974 36.7586 78.4589 37.1167 78.5185C37.3944 78.5648 37.6817 78.6125 37.963 78.6516C39.3247 78.8356 40.6659 78.9847 41.9484 79.0947C41.9899 79.0992 42.0248 79.1012 42.0618 79.1032C44.4212 79.3032 46.746 79.3769 48.9763 79.3229C51.8726 79.2538 54.6872 78.9653 57.3417 78.465C57.4433 78.3856 57.5405 78.3089 57.6373 78.2325C57.7214 78.0939 57.7979 77.9456 57.8646 77.7911C57.9333 77.6334 57.9983 77.4623 58.0632 77.2672C58.1707 76.9366 58.2613 76.5705 58.3397 76.1493C58.3687 75.9976 58.3953 75.8445 58.4198 75.6936C58.5687 74.7752 58.6745 73.8328 58.777 72.9213C58.8529 72.2458 58.9314 71.5472 59.027 70.8617C59.0332 70.8026 59.0424 70.7379 59.0517 70.6733C59.1033 70.2958 59.1649 69.9149 59.2346 69.5413L59.2546 69.4308C59.3844 68.7382 59.5402 68.1162 59.7316 67.5273C59.8065 67.296 59.889 67.0654 59.9689 66.8423C60.0478 66.6221 60.1295 66.3942 60.2026 66.1683C60.2556 66.0087 60.3008 65.8587 60.3412 65.7082C60.3993 65.4954 60.4497 65.2807 60.4956 65.0511C60.4956 65.0506 60.4956 65.0502 60.4959 65.0498C60.6849 64.1398 60.7614 63.1922 60.7233 62.2335C60.7211 62.1798 60.7191 62.1285 60.7148 62.0748C60.7005 61.7431 60.6708 61.3864 60.6235 60.9773C60.5262 60.1474 60.3719 59.3164 60.2196 58.542L60.1054 57.9755C60.0126 57.5528 59.9324 57.2049 59.8534 56.8836C59.679 56.1548 58.1357 52.3354 57.9105 52.0745C57.5534 51.6889 57.1464 51.3544 56.7014 51.0809C56.6667 51.0592 56.6331 51.0382 56.5996 51.0193C56.2994 50.8439 55.9858 50.7236 55.6537 50.596C55.4459 50.5162 55.2309 50.4336 55.022 50.3373C54.8666 50.2641 54.7078 50.1924 54.5485 50.1238C53.287 49.5655 52.1801 49.1876 51.1632 48.9681C50.5393 48.834 50.0016 48.8803 49.3791 48.9337C49.1631 48.9523 48.9396 48.9713 48.7044 48.9832C48.2994 49.0021 47.9016 49.041 47.5658 49.0766C47.512 49.0819 47.4267 49.0709 46.955 48.9966L46.8316 48.9772C46.5835 48.938 46.2466 48.8848 46.1683 48.8817C45.7572 48.9598 42.7496 49.5749 40.0272 50.2211C38.5395 50.5718 37.355 50.8838 36.6015 51.1236C36.4655 51.1675 36.3398 51.2095 36.2251 51.2513C36.0255 51.3215 35.8701 51.3853 35.7616 51.4417C35.1794 51.7447 34.5064 52.5037 33.8156 53.6369C33.6175 53.9591 33.4208 54.3097 33.2138 54.7094C32.7096 55.6879 32.2451 56.7986 31.9062 57.8362C31.8923 57.874 31.8822 57.9068 31.8722 57.9388L31.8685 57.9507C31.8426 58.0916 31.6985 58.206 31.4551 58.3884C31.3641 58.4566 31.2172 58.5668 31.1708 58.6239L31.1711 58.624ZM31.5156 57.896C31.5156 57.896 31.5156 57.8962 31.5156 57.8963C31.5156 57.8962 31.5156 57.8961 31.5156 57.896ZM46.1827 48.8788C46.1803 48.8793 46.1778 48.8798 46.1752 48.8803C46.1781 48.8798 46.1806 48.8793 46.1827 48.8788Z" fill="#1B1323"/>
<path d="M58.105 70.7921C57.1943 70.7719 56.2501 70.9379 55.5032 71.4605C53.2983 69.6908 51.0171 67.8808 48.3659 66.8423C47.2444 66.4027 45.8021 66.2053 44.822 67.0621C43.6399 68.0938 44.0056 69.8524 44.822 70.9783C45.6901 72.1761 46.8811 73.1427 48.2178 73.7775C47.8948 75.3812 47.8656 77.079 48.5072 78.6042C48.6396 78.916 48.7966 79.2189 48.9805 79.5015C51.8045 79.4342 54.6239 79.1606 57.4007 78.6357L57.4164 78.6334C57.5398 78.537 57.6564 78.4451 57.773 78.3531C57.8718 78.194 57.9569 78.028 58.0287 77.8619C58.105 77.687 58.1722 77.5053 58.2328 77.3236C58.3539 76.9512 58.4437 76.5676 58.5155 76.1819C58.5446 76.0294 58.5716 75.8747 58.5962 75.7221C58.8564 74.1184 58.9798 72.4944 59.2041 70.8864C58.8385 70.8325 58.4707 70.8011 58.1051 70.7922L58.105 70.7921Z" fill="#1B1323"/>
<path d="M44.4276 50.5134C44.4477 50.5738 44.4707 50.6336 44.4947 50.6922C44.7931 51.4161 45.2869 52.0468 45.8428 52.5912C46.4351 53.171 47.1332 53.6468 47.8947 53.975C48.0521 54.0429 48.2124 54.1044 48.3748 54.1589C48.5712 54.2247 48.7711 54.2803 48.9737 54.3235C49.9427 54.5307 51.0431 54.5329 51.9581 54.1107C52.3004 53.9529 52.6113 53.7246 52.8294 53.4137C53.2934 52.7519 53.3923 51.8213 53.1706 51.0562C53.0534 50.652 52.8443 50.2754 52.5669 49.9592C52.2883 49.6416 51.7908 49.4466 51.8358 48.9552C51.8377 48.9334 51.8393 48.9138 51.84 48.8973C51.9574 46.1751 52.4362 43.4314 52.4362 40.7088C52.2411 39.7488 47.3504 38.7644 47.0027 39.2175C46.9398 39.2989 46.8225 40.4828 46.6897 42.0441C46.5843 43.2851 46.2971 44.5407 46.0789 45.7662C45.9784 46.331 45.8279 46.8893 45.6836 47.4441C45.5991 47.7695 45.512 48.0943 45.4198 48.4176C45.3512 48.6579 45.3042 48.9724 45.1665 49.1833C45.0543 49.3552 44.8775 49.3956 44.7066 49.4833C44.4813 49.5989 44.3598 49.8365 44.3538 50.0847C44.3502 50.2307 44.3814 50.3742 44.4275 50.5135L44.4276 50.5134Z" fill="#FFA870"/>
<path d="M51.8545 48.6177C51.8866 48.1317 51.9609 47.3763 51.9676 46.968L51.8626 46.987C51.8537 46.9444 51.8469 46.904 51.8402 46.8658C51.3691 46.7537 51.3176 44.7103 50.8487 44.6072C50.685 44.5713 50.5212 44.5377 50.3575 44.5041C50.2274 44.4794 49.9582 45.1528 49.9957 45.2926C50.208 46.0837 51.029 47.5367 51.8545 48.6178V48.6177Z" fill="#1B1323"/>
<path d="M47.9912 36.8061C47.5079 38.4201 48.0899 40.0479 49.0935 41.2033C49.1395 41.2554 49.1865 41.3106 49.204 41.3782C49.2522 41.5659 49.127 41.837 49.0898 42.0229C49.0388 42.2927 49.0102 42.5539 49.0274 42.8292C49.0786 43.6651 49.1155 44.0877 49.625 44.8C50.227 45.6398 51.1209 46.6689 52.0445 47.1151C52.5688 47.3663 53.2067 47.5174 53.7738 47.3219C54.3246 47.1332 54.7628 46.7251 55.098 46.2579C55.8925 45.1452 56.5937 43.844 56.9045 42.5042C57.0515 41.8743 56.9336 41.2467 57.0443 40.628C57.0987 40.3372 57.2737 40.0872 57.4375 39.8388C57.4531 39.814 57.4707 39.7903 57.4863 39.7656C57.5257 39.7053 57.5622 39.6407 57.5926 39.5783C57.6839 39.3956 57.7411 39.2053 57.7754 39.0104C57.7951 38.8864 57.8059 38.7602 57.8067 38.6337C57.8186 37.9426 57.5612 37.2188 57.272 36.6226C57.0203 36.1045 56.6786 35.6175 56.2341 35.2488C54.585 32.8987 51.1491 32.9662 48.8653 34.9317C48.2908 35.425 48.2073 36.0934 47.9912 36.8061Z" fill="#FFA870"/>
<path d="M57.4925 34.2024C57.3886 34.1241 57.2842 34.0464 57.1799 33.9686C56.7861 33.6755 56.3953 33.3783 55.9949 33.094C55.03 32.4092 54.0089 31.7769 52.9277 31.2854C51.7561 30.8389 50.5497 30.6034 49.401 30.8375C48.387 31.044 47.5478 31.5556 46.8487 32.2341C46.1667 32.668 45.6137 33.3044 45.1865 33.9966C44.4461 35.1965 43.9258 36.5551 43.3946 37.8566C42.8382 39.2197 42.3298 40.6023 41.8741 42.0022C41.6507 42.689 41.4215 43.3808 41.3262 44.0993C41.2684 44.5345 41.2277 45.0592 41.3817 45.4965C41.788 45.8425 42.3111 46.0569 42.8391 46.2078C43.7141 46.4575 44.6196 46.7494 45.5311 46.914C45.9165 46.9836 48.0212 47.357 48.0927 46.7221C48.3832 44.1421 48.7288 41.5906 49.1135 39.024C49.2066 38.6982 49.1475 38.3331 49.3303 38.0299C49.5393 37.6832 49.7394 37.3487 50.1043 37.3177C50.1258 37.3159 50.228 38.1712 50.2313 38.2041C50.3186 39.0512 51.2417 39.2123 52.7337 37.5948C52.7663 37.5595 52.7879 37.5135 52.8283 37.4876C52.8643 37.4646 52.9072 37.4558 52.9492 37.4473C54.6067 37.1128 56.1775 36.448 57.3396 35.1798C57.6252 34.8681 57.6325 34.5018 57.4927 34.2025L57.4925 34.2024Z" fill="#181818"/>
<path d="M49.89 39.5351C50.2165 38.871 50.3007 38.0987 50.1111 37.3834C50.0406 36.7038 49.3946 36.077 48.6853 36.3634C48.3259 36.5085 48.1026 36.8885 47.9641 37.2315C47.8145 37.6019 47.7558 38.0094 47.726 38.4055C47.678 39.0427 47.7424 39.7857 48.2529 40.2362C48.5333 40.4837 48.9089 40.5766 49.2381 40.364C49.5297 40.1757 49.7396 39.8408 49.89 39.5351Z" fill="#FFA870"/>
<path d="M55.1464 42.8462C55.2993 42.7496 55.4495 42.6491 55.5962 42.5434C55.7316 42.4459 55.8763 42.3498 55.9739 42.2119C56.0803 42.0616 56.0793 41.8527 56.0714 41.676C56.0519 41.2438 55.955 40.8165 55.8665 40.3943C55.8202 40.1737 55.4825 40.2671 55.5286 40.4874C55.6056 40.8546 55.6893 41.2239 55.7164 41.5991C55.7227 41.6869 55.7263 41.7753 55.7209 41.8632C55.7177 41.916 55.7195 41.9117 55.7096 41.9515C55.7057 41.9673 55.7018 41.9834 55.6962 41.9988C55.706 41.972 55.6984 41.997 55.6902 42.0089C55.616 42.1156 55.4895 42.1912 55.3854 42.2653C55.2495 42.3621 55.1107 42.4546 54.9695 42.5437C54.7794 42.6637 54.9551 42.9671 55.1464 42.8462Z" fill="#1B1323"/>
<path d="M54.0272 44.0732C54.4085 43.8785 54.8551 43.8005 55.2796 43.8635C55.3731 43.8773 55.4679 43.8401 55.4951 43.7412C55.5177 43.6587 55.4669 43.5397 55.3727 43.5257C54.8487 43.448 54.323 43.5294 53.8503 43.7707C53.766 43.8138 53.7416 43.9321 53.7875 44.0104C53.8376 44.096 53.9426 44.1164 54.0272 44.0732Z" fill="#1B1323"/>
<path d="M54.1949 37.8516C54.3595 37.818 54.5327 37.8157 54.6829 37.8337C55.0723 37.8801 55.664 38.0882 55.6982 38.5494C55.7225 38.877 55.4347 39.1304 55.1229 38.9867C55.0019 38.9309 54.8991 38.8412 54.7798 38.7817C54.5938 38.689 54.3787 38.6747 54.1711 38.6822C54.0463 38.6867 53.9173 38.6978 53.8002 38.6546C53.6007 38.581 53.5474 38.3549 53.6553 38.182C53.7706 37.9976 53.9753 37.8965 54.195 37.8516H54.1949Z" fill="#1B1323"/>
<path d="M56.7802 39.6021C56.9086 39.6471 57.0439 39.655 57.1695 39.6957C57.266 39.7289 57.3543 39.778 57.4362 39.8389C57.4518 39.8141 57.4693 39.7904 57.485 39.7657C57.5244 39.7054 57.5609 39.6409 57.5913 39.5784C57.6825 39.3958 57.7398 39.2055 57.7741 39.0105C57.7741 39.0055 57.7733 39.0024 57.7734 38.9974C57.4518 38.7898 56.9777 38.6211 56.6781 38.8865C56.4316 39.104 56.4566 39.4847 56.78 39.602L56.7802 39.6021Z" fill="#1B1323"/>
<path d="M48.738 40.6623C48.6603 41.103 48.6736 41.5693 48.7943 42.0015C48.8547 42.2184 49.1929 42.1262 49.1321 41.9084C49.0299 41.542 49.0076 41.1424 49.0759 40.7554C49.0922 40.6623 49.0508 40.5667 48.9536 40.54C48.869 40.5167 48.7546 40.5686 48.7381 40.6623H48.738Z" fill="#1B1323"/>
<path d="M48.8235 37.1701C48.9447 37.2451 49.0284 37.3533 49.0935 37.4787C49.1516 37.5905 49.2457 37.7868 49.2099 37.9131C49.1909 37.9796 49.1339 38.0397 49.0982 38.0974C49.0569 38.1643 49.0246 38.2376 49.0085 38.3146C48.9753 38.4739 49.0037 38.6333 49.0279 38.7914C49.0382 38.8585 49.047 38.9257 49.0461 38.9935C49.0457 39.0304 49.0427 39.0646 49.0318 39.1C49.0301 39.1098 49.0264 39.1187 49.0209 39.127C49.01 39.1409 49.0097 39.1407 49.0197 39.1261C48.9147 39.1462 48.7898 39.0145 48.7475 38.9342C48.6905 38.8259 48.6984 38.7033 48.7665 38.6016C48.7979 38.5547 48.8385 38.5152 48.8871 38.4861C48.9168 38.4683 49.0221 38.42 49.046 38.4386C49.1211 38.4973 49.2204 38.5105 49.2938 38.4386C49.3551 38.3787 49.3682 38.2491 49.2938 38.1909C48.9867 37.9509 48.5605 38.1945 48.4196 38.5103C48.2752 38.8339 48.414 39.2189 48.7223 39.3909C48.877 39.4771 49.0891 39.5221 49.2378 39.4024C49.377 39.2903 49.4052 39.0912 49.3944 38.9228C49.3837 38.7545 49.3204 38.5767 49.3465 38.4075C49.374 38.2294 49.5424 38.1133 49.5624 37.9258C49.5846 37.7176 49.4908 37.484 49.3963 37.3015C49.3044 37.1239 49.1711 36.9728 49.0007 36.8673C48.8084 36.7483 48.6323 37.0513 48.8239 37.1698L48.8235 37.1701Z" fill="#1B1323"/>
<path d="M57.1248 35.7853C57.5884 35.181 57.1162 34.4597 56.6936 33.996C56.1838 33.4366 55.6164 32.9339 55.0072 32.4851C54.8254 32.3512 54.6505 32.6551 54.8303 32.7876C55.3562 33.1749 55.8468 33.609 56.2963 34.0828C56.6543 34.4602 57.2346 35.0705 56.8222 35.6083C56.6851 35.7871 56.9892 35.9618 57.1247 35.7851L57.1248 35.7853Z" fill="#1B1323"/>
<path d="M57.3819 43.7155C57.3299 44.4824 57.2815 45.2511 57.2983 46.0202C57.315 46.7892 57.3967 47.555 57.4821 48.319C57.5069 48.5406 57.8574 48.5431 57.8324 48.319C57.747 47.555 57.6654 46.7892 57.6487 46.0202C57.6318 45.2511 57.6801 44.4824 57.7322 43.7155C57.7475 43.4904 57.3971 43.4914 57.3819 43.7155Z" fill="#1B1323"/>
<path d="M52.4384 37.2467C52.0505 37.2511 51.6599 37.1678 51.2819 37.0875C50.9336 37.0136 50.5944 36.9113 50.297 36.71C50.1098 36.5833 49.9343 36.8867 50.1202 37.0125C50.4404 37.2293 50.8135 37.3457 51.1888 37.4253C51.596 37.5117 52.0207 37.6018 52.4384 37.597C52.6636 37.5945 52.6643 37.2441 52.4384 37.2467Z" fill="#1B1323"/>
<path d="M47.7734 40.1016C46.8734 41.7418 46.3335 43.5542 46.1843 45.4188C46.1663 45.6436 46.5167 45.6424 46.5346 45.4188C46.6789 43.6176 47.2069 41.8623 48.0759 40.2784C48.1844 40.0806 47.882 39.9036 47.7734 40.1016Z" fill="#1B1323"/>
<path d="M54.2474 34.2535C53.4931 35.6642 51.9831 36.5968 50.382 36.6289C50.1569 36.6334 50.1561 36.9837 50.382 36.9792C52.1021 36.9448 53.738 35.9488 54.5499 34.4303C54.6561 34.2315 54.3539 34.0543 54.2474 34.2535Z" fill="#1B1323"/>
<path d="M54.9055 39.651C54.7798 39.5795 54.6146 39.594 54.4965 39.675C54.4461 39.7095 54.4074 39.7519 54.3756 39.7985C54.2761 39.8884 54.219 40.0323 54.186 40.1565C54.1554 40.2718 54.1349 40.4009 54.1778 40.5159C54.2262 40.6457 54.3279 40.7529 54.4699 40.7719C54.743 40.8087 54.901 40.5516 54.9866 40.3323C55.0271 40.2283 55.0475 40.1177 55.0566 40.0068C55.0676 39.871 55.033 39.7235 54.9055 39.651Z" fill="#1B1323"/>
<path d="M56.7366 40.1594C56.6111 40.0924 56.4503 40.1127 56.3379 40.1978C56.2899 40.234 56.2535 40.2778 56.2242 40.3255C56.1303 40.4189 56.0797 40.5647 56.0519 40.6899C56.0262 40.8061 56.0108 40.936 56.0569 41.0495C56.1089 41.1774 56.2121 41.2809 56.3516 41.295C56.6196 41.322 56.7648 41.0595 56.8405 40.8375C56.8764 40.7322 56.8924 40.621 56.8972 40.5097C56.903 40.3737 56.8638 40.2275 56.7366 40.1595V40.1594Z" fill="#1B1323"/>
<path d="M57.2929 51.7192C58.7151 53.959 59.757 56.4286 60.3629 59.0122C60.5342 59.7429 60.6695 60.4815 60.7715 61.2251C60.802 61.4475 61.1397 61.3528 61.1093 61.132C60.7466 58.4873 59.9391 55.9106 58.7299 53.5306C58.3841 52.8499 58.0046 52.187 57.5953 51.5424C57.4747 51.3526 57.1715 51.5281 57.2929 51.7192Z" fill="#1B1323"/>
<path d="M55.6162 71.1775C55.6184 71.274 55.6184 71.3727 55.6162 71.4713C55.5803 72.8642 54.9545 74.3153 54.2929 75.7418C53.9788 76.4192 53.7321 77.3971 53.4653 78.4154C52.9157 80.5125 52.2765 82.7824 50.7915 82.9461C50.3923 82.9909 49.91 82.9259 49.3806 82.7621C49.0441 82.659 48.6898 82.5175 48.3287 82.3382C47.3844 81.8717 46.3863 81.1607 45.5116 80.2568C45.1168 79.8485 44.7242 79.4404 44.3294 79.0299C43.7934 78.4714 43.2573 77.9107 42.7235 77.3454C41.9675 76.5469 41.2139 75.7417 40.4737 74.9275C40.2202 74.647 39.969 74.3667 39.72 74.0842C39.2939 73.6041 38.8744 73.122 38.4617 72.633C37.7821 71.8278 37.1205 71.0091 36.4879 70.168C36.2568 69.863 36.0303 69.5557 35.806 69.2462C34.8819 67.961 33.895 66.8486 33.1278 65.4534C33.0224 65.2628 33.0449 64.8524 32.9439 64.6595C32.8565 64.4935 32.4034 64.5205 32.2866 64.3701C32.1319 64.1728 32.0041 63.9081 31.8918 63.603C31.7483 63.2059 31.6362 62.735 31.5419 62.2393C31.3782 61.4072 31.266 60.501 31.1315 59.7564C31.0305 59.2069 30.9722 58.6551 30.9678 58.1078C30.9678 58.0047 30.9678 57.8993 30.9722 57.796C30.9767 57.5874 30.9902 57.3811 31.0126 57.177C31.2525 54.97 32.5603 53.2697 34.2829 51.9173C34.5902 51.7424 34.8347 51.6123 35.0298 51.5203C35.0313 51.5203 35.0328 51.5195 35.0342 51.518C35.4715 51.3856 35.817 51.4327 35.9022 51.4574C36.1355 51.5269 36.371 51.5807 36.611 51.6234C37.1045 51.7064 37.5867 51.8006 38.0622 51.9531C38.9661 52.2469 39.6951 52.7561 40.4487 53.3347C40.4914 53.3662 42.0615 54.6581 42.2924 54.9362C42.5346 55.2211 42.7724 55.5105 43.0102 55.7976C43.1179 55.9254 43.7415 56.522 44.448 57.2375C44.9683 57.7691 45.5359 58.368 45.971 58.8928C46.1998 59.1709 46.5048 59.3953 46.7829 59.6577C47.9381 60.7344 49.1964 61.8939 50.2821 62.9256C50.5624 63.1926 50.8316 63.4482 51.0828 63.6949C51.3699 63.9752 51.6368 64.2399 51.8746 64.4844C52.2088 64.8276 52.4891 65.1326 52.6955 65.3816C52.7426 65.4399 52.7897 65.4959 52.8324 65.5498C54.2904 67.3329 53.7722 66.9875 54.7143 68.6652C54.8107 68.838 54.923 69.033 55.0552 69.2529C55.423 69.8742 55.5913 70.5179 55.6159 71.1773L55.6162 71.1775Z" fill="#F0DED7"/>
<path d="M55.7949 71.1709C55.7675 70.4383 55.5759 69.7812 55.2086 69.1609C55.0918 68.9665 54.9812 68.7759 54.8704 68.5778C54.5419 67.9926 54.3938 67.6583 54.2749 67.3896C54.0521 66.8862 53.9294 66.6088 52.9727 65.439C52.9466 65.406 52.9189 65.372 52.8904 65.3373L52.8335 65.2676C52.6302 65.0222 52.3507 64.7169 52.003 64.3599C51.7861 64.1368 51.5333 63.885 51.2083 63.5675C50.9704 63.3339 50.7193 63.0949 50.4535 62.8418L50.4055 62.796C49.6254 62.0547 48.7488 61.2405 47.9012 60.4531C47.5652 60.141 47.2311 59.8306 46.9059 59.5277C46.8092 59.4363 46.7094 59.3498 46.613 59.2659C46.4268 59.1044 46.2513 58.9518 46.1088 58.7789C45.743 58.3376 45.2416 57.7925 44.5755 57.1121C44.2404 56.7729 43.9242 56.4604 43.6725 56.2117C43.4078 55.9502 43.1988 55.7437 43.1483 55.6836L43.0182 55.5265C42.8232 55.2906 42.6276 55.0542 42.4303 54.8223C42.1844 54.5262 40.6225 53.2408 40.5579 53.1932C39.8533 52.6522 39.0844 52.0976 38.117 51.7831C37.6128 51.6214 37.1096 51.5261 36.6425 51.4476C36.396 51.4038 36.1706 51.3511 35.9521 51.2859C35.8163 51.2467 35.4392 51.2089 34.9825 51.347C34.9727 51.3499 34.9632 51.3538 34.9541 51.3584L34.9536 51.3586C34.7558 51.4518 34.5076 51.5838 34.1944 51.762C34.1867 51.7664 34.1794 51.7713 34.1725 51.7768C32.1474 53.3667 31.0556 55.1268 30.8349 57.1574C30.812 57.3656 30.798 57.5792 30.7936 57.7884C30.7891 57.8942 30.7891 58.0021 30.7891 58.1093C30.7935 58.6453 30.8495 59.2103 30.9556 59.7882C31.0129 60.105 31.0656 60.4481 31.1214 60.8114C31.1955 61.2948 31.2723 61.7947 31.3664 62.2728C31.475 62.8441 31.592 63.2991 31.7241 63.6648C31.8535 64.0166 31.9916 64.2834 32.1455 64.4798C32.1674 64.5082 32.1937 64.5316 32.2224 64.5521C32.2638 64.4303 32.3195 64.3143 32.3867 64.2046C32.2713 64.0421 32.164 63.8246 32.0601 63.5423C31.9348 63.1956 31.8227 62.7585 31.7176 62.2049C31.6248 61.733 31.5486 61.237 31.4749 60.7572C31.4188 60.3915 31.3658 60.0461 31.3075 59.7241C31.2051 59.1661 31.1509 58.6218 31.1468 58.108C31.1468 58.0073 31.1468 57.9044 31.1512 57.8C31.1556 57.5974 31.1688 57.3944 31.1907 57.1963C31.4002 55.2695 32.4444 53.5915 34.3832 52.0662C34.6789 51.898 34.9134 51.7734 35.0992 51.6854C35.4882 51.5706 35.7921 51.6116 35.8515 51.6289C36.0818 51.6976 36.3201 51.7534 36.5817 51.7999C37.0371 51.8764 37.5252 51.9687 38.0072 52.1234C38.92 52.42 39.6602 52.9546 40.3413 53.4776C40.4038 53.5258 41.9432 54.7951 42.1567 55.0522C42.3542 55.2844 42.5488 55.5197 42.7428 55.7542L42.874 55.9127C42.936 55.9864 43.129 56.1771 43.4213 56.4659C43.6723 56.7138 43.9874 57.0252 44.3207 57.3626C44.9793 58.0355 45.4744 58.5733 45.8335 59.0065C45.9945 59.202 46.1897 59.3718 46.3787 59.5359C46.4731 59.6179 46.5685 59.7007 46.6616 59.7885C46.9875 60.0923 47.3218 60.4028 47.6579 60.7151C48.505 61.5019 49.3808 62.3153 50.1593 63.0552L50.2072 63.1009C50.472 63.353 50.722 63.5911 50.9584 63.8231C51.2815 64.1387 51.532 64.3885 51.747 64.6094C52.088 64.9597 52.3609 65.2579 52.5568 65.4942L52.6141 65.5644C52.6411 65.5974 52.6676 65.6296 52.6943 65.6633C53.622 66.7979 53.731 67.0441 53.9481 67.5344C54.0701 67.81 54.222 68.1531 54.5586 68.7527C54.6709 68.9538 54.7835 69.1477 54.9017 69.3442C55.2371 69.9105 55.4123 70.5119 55.4377 71.1828C55.4397 71.2762 55.4397 71.3718 55.4376 71.4668C55.4029 72.8184 54.7995 74.2246 54.1308 75.6667C53.8294 76.3167 53.5924 77.2227 53.3417 78.1821L53.2924 78.3702C52.6839 80.6917 52.0745 82.6249 50.7718 82.7685C50.4042 82.8102 49.9416 82.7485 49.4332 82.5914C49.0983 82.4887 48.7536 82.3497 48.4081 82.1781C47.434 81.6969 46.451 80.9704 45.6402 80.1327C45.2829 79.7633 44.9276 79.3938 44.5704 79.0226L44.4586 78.9063C43.9861 78.4138 43.4259 77.8288 42.8535 77.2227C41.9675 76.2869 41.2534 75.5194 40.6065 74.8079C40.3536 74.5281 40.1028 74.2482 39.854 73.9657C39.3993 73.4537 38.9888 72.9801 38.5986 72.518C37.8595 71.6422 37.2159 70.8385 36.6307 70.0603C36.417 69.7782 34.8333 67.8028 34.7674 67.7164C34.6383 67.7561 34.6208 67.7827 34.4813 67.7837C34.5862 67.9219 34.6907 68.0599 34.7978 68.1996C35.0825 68.5714 35.3769 68.9558 35.6614 69.3514C35.9065 69.6895 36.1304 69.992 36.3451 70.2757C36.934 71.0587 37.5817 71.8677 38.3252 72.7486C38.7173 73.2131 39.1298 73.6888 39.586 74.2026C39.8356 74.4859 40.0872 74.7667 40.3415 75.0481C40.9904 75.7618 41.7061 76.5309 42.5937 77.4683C43.1668 78.0752 43.7276 78.6609 44.2007 79.154L44.3127 79.2705C44.6699 79.6419 45.0256 80.0117 45.3831 80.3813C46.234 81.2603 47.2251 81.9926 48.2493 82.4985C48.6118 82.6785 48.9749 82.8248 49.328 82.9332C49.771 83.0702 50.1748 83.1391 50.5322 83.1391C50.6287 83.1391 50.7218 83.134 50.8114 83.124C52.4642 82.9417 53.1154 80.4571 53.6386 78.4608L53.6878 78.2726C53.9345 77.3292 54.1675 76.4382 54.4554 75.8172C55.1407 74.3397 55.7589 72.8959 55.7954 71.4754C55.7977 71.3739 55.7977 71.2725 55.7954 71.1735C55.7953 71.1727 55.7953 71.1717 55.7953 71.1709H55.7949Z" fill="#1B1323"/>
<path d="M71.5684 68.0015C71.3217 69.0669 70.5769 69.9416 69.8929 70.7603C69.7202 70.9689 69.4128 71.2717 69.0091 71.644C68.7556 71.8772 68.4641 72.1375 68.1411 72.4178C67.264 73.1827 66.156 74.1045 64.9806 75.0623C64.6823 75.3046 64.3796 75.549 64.0744 75.7957C62.3182 77.2087 60.5014 78.6308 59.1241 79.6782C58.7697 79.9496 58.4423 80.1941 58.1552 80.4072C57.6752 80.7638 57.3006 81.0329 57.0696 81.1854C55.5532 82.1858 53.8777 83.0807 52.0071 83.0673C51.5966 83.065 51.1906 83.0224 50.7936 82.9461C50.3271 82.8586 49.8716 82.7218 49.4343 82.5447C49.0799 82.4011 48.7345 82.2285 48.4048 82.031C46.4871 80.896 45.0201 78.9447 44.4392 76.7983C44.1475 75.7127 44.1072 74.4298 44.3987 73.2612C44.4683 73.2768 44.5512 73.2365 44.5356 73.1467C44.5221 73.0614 44.5131 72.9762 44.5064 72.8911C44.7622 72.0903 45.1861 71.3636 45.8097 70.8142C46.57 70.1458 47.3461 69.4953 48.1222 68.8404C49.2886 67.8579 50.4616 66.8845 51.6437 65.9134C51.646 65.9111 51.6504 65.9089 51.6527 65.9067C51.9981 65.7295 52.3479 65.5546 52.6979 65.3819C52.7585 65.3528 52.8168 65.3235 52.8774 65.2943C53.0724 65.1979 53.2699 65.1014 53.4673 65.0072C53.7387 64.8771 54.0078 64.7448 54.2793 64.6147C54.3466 64.5811 54.4138 64.5497 54.4812 64.516C55.0846 64.2177 55.679 63.8992 56.2712 63.5851C56.7175 63.3474 57.1639 63.1119 57.6124 62.8763C57.9421 62.7037 58.2741 62.5309 58.606 62.3604C58.929 62.1944 59.2542 62.0329 59.5795 61.8714C60.2367 61.5462 60.9029 61.2478 61.5712 60.9473C61.9143 60.7902 62.2598 60.6355 62.603 60.4763C62.6412 60.4584 62.6792 60.4404 62.7174 60.4224C63.5877 60.0143 64.5769 59.5141 65.5615 59.7496C66.369 59.9446 67.0509 60.5077 67.6273 61.0796C68.2441 61.6943 68.7779 62.385 69.323 63.0624C69.9398 63.8273 70.6172 64.5472 71.1018 65.4108C71.5481 66.2048 71.7792 67.0975 71.5684 68.0014V68.0015Z" fill="#F0DED7"/>
<path d="M71.2551 65.3235C70.8781 64.6516 70.384 64.0614 69.9062 63.4905C69.7562 63.3113 69.6061 63.1321 69.4598 62.9505L69.2448 62.6825C68.777 62.0981 68.2935 61.4939 67.7507 60.9529C67.2186 60.4252 66.4935 59.7917 65.6005 59.5759C64.6007 59.337 63.6238 59.7971 62.7616 60.2031L62.5252 60.3143C62.3092 60.4145 62.0925 60.513 61.8758 60.6113C61.7486 60.6691 61.6212 60.7269 61.4953 60.7844L61.413 60.8215C60.7826 61.1049 60.1308 61.3981 59.4975 61.7115C59.1715 61.8734 58.8454 62.0352 58.5217 62.2015C58.1894 62.3723 57.8571 62.5451 57.5267 62.7181C57.0776 62.9539 56.631 63.1896 56.1847 63.4272L55.9771 63.5374C55.4622 63.8107 54.9299 64.0934 54.3985 64.356C54.3652 64.3727 54.3318 64.3889 54.2984 64.405C54.2645 64.4214 54.2308 64.4377 54.1994 64.4534C54.0634 64.5187 53.928 64.5844 53.7927 64.6501C53.6577 64.7155 53.5229 64.7811 53.3878 64.8458C53.1895 64.9404 52.9914 65.0372 52.7971 65.1332L52.6162 65.2214C52.4079 65.3243 52.2153 65.4203 52.0325 65.5122C52.1148 65.601 52.1884 65.6981 52.253 65.8017C52.4171 65.7193 52.5889 65.6337 52.773 65.543L52.9542 65.4546C53.1486 65.3585 53.3452 65.2625 53.5423 65.1685C53.6783 65.1033 53.8137 65.0376 53.949 64.9719C54.084 64.9064 54.2188 64.8408 54.3568 64.7748C54.3892 64.7586 54.4218 64.7428 54.4543 64.7271C54.489 64.7103 54.5238 64.6935 54.558 64.6764C55.0931 64.4118 55.628 64.1279 56.1451 63.8535L56.3528 63.7432C56.7986 63.5057 57.2448 63.2703 57.693 63.0351C58.0223 62.8626 58.3537 62.6901 58.6853 62.5199C59.0076 62.3542 59.332 62.1932 59.6565 62.0321C60.2836 61.7217 60.9325 61.43 61.5599 61.1479L61.6433 61.1104C61.7698 61.0525 61.8968 60.9949 62.0238 60.9372C62.2413 60.8385 62.459 60.7396 62.6768 60.6385L62.9142 60.5268C63.7231 60.1457 64.64 59.7141 65.5171 59.9238C66.3238 60.1188 67.0001 60.7119 67.4987 61.2066C68.0271 61.7332 68.5043 62.3293 68.9658 62.9061L69.1815 63.175C69.3295 63.3585 69.4809 63.5394 69.6323 63.7203C70.0996 64.2785 70.5828 64.8557 70.9435 65.4987C71.4231 66.352 71.5738 67.1804 71.3917 67.9611V67.9614C71.1597 68.9634 70.4659 69.7932 69.7952 70.5957L69.7526 70.6465C69.5964 70.8352 69.3127 71.1186 68.8855 71.5127C68.6286 71.7491 68.3378 72.0083 68.021 72.2833C67.2217 72.9803 66.1601 73.8687 64.8655 74.9237C64.6414 75.1056 64.4147 75.2889 64.1865 75.4734L63.9599 75.6567C62.2658 77.0198 60.463 78.4338 59.0131 79.5365C58.6423 79.8205 58.3015 80.0745 58.0462 80.2639C57.5553 80.6287 57.1928 80.8886 56.9688 81.0366C55.712 81.8657 54.2255 82.7075 52.575 82.8616C52.0092 82.9032 50.8367 82.9604 49.5293 82.6204C49.9517 82.7839 50.3296 83.0419 50.7575 83.1222C51.1758 83.2024 51.5951 83.2443 52.0034 83.2465C52.0177 83.2466 52.0318 83.2466 52.0461 83.2466C54.003 83.2466 55.7315 82.2813 57.1658 81.3351C57.3953 81.1836 57.7632 80.9198 58.2594 80.5512C58.5157 80.361 58.8578 80.1059 59.2302 79.8209C60.6821 78.7165 62.4877 77.3004 64.1847 75.9351L64.4115 75.7516C64.6399 75.5669 64.8668 75.3835 65.0914 75.2011C66.3892 74.1435 67.454 73.2525 68.256 72.5532C68.5751 72.2762 68.8685 72.0146 69.128 71.7758C69.5673 71.3707 69.8617 71.0759 70.0278 70.8754L70.0697 70.8253C70.7349 70.0296 71.4888 69.1278 71.7403 68.0426C71.9433 67.172 71.7802 66.2572 71.2556 65.3238L71.2551 65.3235Z" fill="#1B1323"/>
<path d="M31.9445 64.0591C33.6445 66.9387 35.6738 69.622 37.793 72.2039C39.4941 74.2765 41.2703 76.2907 43.1208 78.2312C43.5527 78.684 43.9786 79.1583 44.4493 79.5721C44.618 79.7204 44.8669 79.4734 44.6971 79.3243C44.3062 78.9809 43.951 78.5901 43.5908 78.2156C42.8383 77.4329 42.1011 76.6355 41.3745 75.8289C39.2706 73.493 37.2481 71.0773 35.3771 68.5502C34.2623 67.0443 33.1999 65.4964 32.2471 63.8823C32.1325 63.6884 31.8295 63.8645 31.9446 64.0592L31.9445 64.0591Z" fill="#1B1323"/>
<path d="M63.4429 59.8431C61.1377 60.9718 58.8417 62.1188 56.5406 63.2556C54.1954 64.4145 51.6801 65.4437 49.7203 67.2211C48.6129 68.2253 47.6971 69.4212 46.8715 70.662C46.7463 70.8502 47.0496 71.0259 47.174 70.8388C47.9067 69.7376 48.7102 68.6783 49.6621 67.7558C50.634 66.8139 51.761 66.0776 52.9492 65.4381C54.0777 64.8306 55.241 64.2869 56.3902 63.7197C57.5419 63.1513 58.6921 62.5802 59.8429 62.0098C61.1007 61.3862 62.3588 60.7629 63.6197 60.1455C63.8221 60.0464 63.6449 59.7441 63.4429 59.8431Z" fill="#1B1323"/>
<path d="M44.9453 67.9482C47.2352 67.3665 49.4335 66.4506 51.459 65.2346C51.6521 65.1187 51.4762 64.8156 51.2822 64.9321C49.2808 66.1336 47.1147 67.0357 44.8522 67.6104C44.6337 67.6658 44.7264 68.0038 44.9453 67.9482Z" fill="#1B1323"/>
<path d="M76.727 68.2912C76.6911 67.9345 76.6507 67.5576 76.6036 67.163C76.46 65.9294 76.2739 64.5343 76.0451 63.1234C75.9823 62.7466 75.9173 62.3675 75.8499 61.9907C75.6414 60.8379 75.4058 59.6962 75.1412 58.642C74.9034 57.7022 74.0937 57.0966 73.3557 56.5313C73.118 56.3474 72.8646 56.177 72.5977 56.0154C70.7987 54.9298 68.8114 54.1717 66.7501 53.7657C66.7119 53.7433 66.6694 53.7209 66.6268 53.7006C66.0526 53.4382 65.4312 53.5212 64.9266 53.8285C64.7314 53.9451 64.5565 54.0932 64.4107 54.2681C64.3659 54.3174 64.3254 54.3712 64.2873 54.4274C63.6435 55.3447 63.1838 55.9391 63.3093 57.0247C63.4327 58.0879 63.5045 59.1241 63.5359 60.1268C63.5425 60.3264 63.5493 60.5238 63.5515 60.7189C63.556 60.9095 63.5582 61.1002 63.5582 61.2886C63.5671 62.567 63.5201 63.7894 63.4528 64.9423C63.4281 65.346 63.4012 65.7408 63.3743 66.1265C63.3428 66.5414 63.3115 66.9452 63.2801 67.3377C63.2129 68.199 63.1455 69.0602 63.0804 69.9215C63.058 70.2041 63.0378 70.4845 63.0176 70.7671C63.0109 70.8613 63.0041 70.9555 62.9997 71.0542C62.9391 72.0075 62.9256 73.1581 63.0534 74.2325C63.105 74.6721 63.1813 75.1005 63.2867 75.4953C63.3719 75.8093 63.4773 76.1031 63.603 76.3678C63.7936 76.7692 64.0157 77.3972 64.2422 77.7764C64.7895 78.696 65.0856 77.727 65.7743 78.5435C66.4 79.2881 67.0506 80.1204 67.8894 80.6362C67.9477 80.6721 68.0083 80.7057 68.0689 80.7393C68.2079 80.8111 68.3515 80.8761 68.4995 80.9277C70.543 81.6544 72.8308 80.3064 74.3426 78.7251C74.6319 78.4223 74.8944 78.1128 75.1187 77.8055C75.1904 77.709 75.2578 77.6126 75.3205 77.5184C75.4933 77.2605 75.6525 76.9935 75.7983 76.7199C76.1572 76.0515 76.4375 75.3428 76.6282 74.6092C76.7202 74.2661 76.7898 73.9184 76.8414 73.5686C76.8661 73.4004 76.8839 73.2321 76.8951 73.0639C76.9265 72.6893 76.931 72.317 76.9422 71.9424C76.9445 71.7831 76.9489 71.6262 76.9556 71.4669C76.9713 71.1215 76.895 69.9193 76.7269 68.2909L76.727 68.2912Z" fill="#F0DED7"/>
<path d="M76.9054 68.2727C76.8648 67.869 76.8243 67.499 76.7819 67.1423C76.6182 65.7374 76.4299 64.3756 76.2221 63.094C76.1592 62.7164 76.094 62.3368 76.0264 61.9589C75.8001 60.7071 75.5607 59.5764 75.3151 58.5983C75.0665 57.6156 74.2375 56.9809 73.5061 56.421L73.4657 56.39C73.232 56.2092 72.9785 56.0367 72.6905 55.8625C70.8886 54.7751 68.9117 54.0126 66.8141 53.5961C66.779 53.5763 66.7411 53.5568 66.7016 53.5382C66.1061 53.2659 65.4253 53.316 64.8353 53.6752C64.6203 53.8036 64.4315 53.9647 64.2788 54.148C64.2328 54.1986 64.1874 54.257 64.1415 54.3247L64.0566 54.4455C63.4457 55.3134 63.0044 55.9406 63.1323 57.0454C63.2495 58.0549 63.3252 59.0935 63.3581 60.1424C63.3647 60.3374 63.3712 60.5302 63.3734 60.7232C63.3779 60.9124 63.3801 61.1016 63.3801 61.2899C63.388 62.4106 63.3545 63.5678 63.275 64.9315C63.2504 65.3346 63.2234 65.7289 63.1968 66.1131C63.1654 66.5278 63.1341 66.9312 63.1026 67.3239C63.0353 68.1853 62.9679 69.0468 62.903 69.9074C62.8805 70.1904 62.8603 70.4714 62.84 70.7544L62.8392 70.7665C62.8326 70.8583 62.8263 70.9502 62.822 71.043C62.77 71.8611 62.7374 73.0824 62.8765 74.2534C62.9316 74.7227 63.0118 75.1561 63.115 75.5422C63.2045 75.8721 63.3146 76.1756 63.4421 76.4445C63.5105 76.5883 63.5833 76.7629 63.6604 76.9478C63.6651 76.9594 63.67 76.9709 63.6748 76.9825C63.6759 76.7674 63.6682 76.7005 63.7491 76.5084C63.7373 76.4825 63.6889 76.3333 63.6772 76.3087C63.5587 76.059 63.5091 75.7793 63.4252 75.4705C63.3267 75.1017 63.2848 74.664 63.2316 74.2114C63.0955 73.0669 63.1278 71.8691 63.179 71.0624C63.1832 70.9694 63.1895 70.8804 63.1958 70.7916L63.1967 70.7799C63.2169 70.4978 63.2369 70.2179 63.2595 69.9351C63.3246 69.0738 63.3916 68.2128 63.459 67.3519C63.4904 66.9591 63.5218 66.5552 63.5534 66.1388C63.5804 65.7525 63.6073 65.3573 63.6319 64.9526C63.712 63.5806 63.7456 62.4159 63.7377 61.2885C63.7377 61.0987 63.7355 60.9065 63.7309 60.7168C63.7287 60.5234 63.7221 60.3278 63.7151 60.1211C63.6824 59.0723 63.6057 58.0236 63.4876 57.0041C63.3754 56.0348 63.7628 55.4843 64.3491 54.6512L64.4356 54.528C64.4737 54.4722 64.5091 54.4266 64.5487 54.3827C64.6803 54.2246 64.8386 54.0897 65.0201 53.9814C65.5083 53.6842 66.067 53.6412 66.5507 53.8624C66.5884 53.8803 66.6262 53.9 66.66 53.9198C66.6773 53.9301 66.6963 53.9372 66.7161 53.9412C68.7835 54.3484 70.7315 55.0977 72.5057 56.1684C72.7817 56.3355 73.0243 56.5005 73.2477 56.6733L73.289 56.7047C74.0074 57.2549 74.7505 57.8236 74.9684 58.6854C75.212 59.6556 75.4497 60.7783 75.6747 62.022C75.7419 62.3981 75.8068 62.7765 75.8694 63.152C76.0763 64.4275 76.2638 65.784 76.4269 67.184C76.4691 67.5392 76.5094 67.9072 76.5499 68.309V68.3094C76.7192 69.9475 76.7927 71.1338 76.7778 71.4594C76.771 71.6203 76.7665 71.779 76.7643 71.9371L76.7581 72.1594C76.7505 72.4514 76.7425 72.7535 76.7175 73.052C76.7068 73.2133 76.6893 73.3783 76.6652 73.5425C76.6129 73.8975 76.5426 74.2408 76.4558 74.5642C76.2706 75.2771 75.9966 75.9739 75.6412 76.6358C75.4966 76.9071 75.339 77.1705 75.1724 77.4191C75.1071 77.517 75.0409 77.6111 74.9749 77.6999C74.7592 77.9955 74.5032 78.2988 74.214 78.6014C73.2614 79.5977 71.9567 80.5269 70.6096 80.8377C70.5444 80.8816 69.1113 81.0738 69.0393 81.106C68.8149 81.2773 69.9189 81.2472 69.6446 81.3059C69.6576 81.3061 69.6705 81.3067 69.6835 81.3067C71.4547 81.3067 73.2469 80.1307 74.4725 78.8485C74.7726 78.5345 75.0389 78.219 75.2628 77.9121C75.3316 77.8197 75.4014 77.7205 75.4698 77.6178C75.6427 77.3596 75.8065 77.0859 75.9565 76.8044C76.3252 76.1179 76.6096 75.3944 76.8017 74.6554C76.8916 74.32 76.9647 73.9631 77.019 73.5944C77.0444 73.4208 77.0629 73.2464 77.0741 73.0787C77.0997 72.773 77.1077 72.4659 77.1156 72.1689L77.1218 71.9451C77.1242 71.7874 77.1285 71.6321 77.1351 71.4752C77.1533 71.0742 77.0589 69.7573 76.9055 68.2726L76.9054 68.2727Z" fill="#1B1323"/>
<path d="M74.0318 57.5989C73.8389 57.2199 73.6123 56.8633 73.3566 56.5313C73.1188 56.3473 72.8655 56.177 72.5985 56.0154C72.2912 55.8293 71.9794 55.6542 71.6609 55.4883C70.1178 54.6808 68.4602 54.1021 66.7509 53.7657C66.7128 53.7433 66.6702 53.7209 66.6277 53.7006C66.1588 53.4853 65.6564 53.5033 65.2145 53.6826C65.1159 53.7231 65.0194 53.7724 64.9251 53.8285C64.4473 54.111 63.8821 54.757 63.7857 55.311C63.7722 55.394 63.7677 55.4769 63.7722 55.5577C63.7745 55.6407 63.7878 55.7214 63.8081 55.8022C63.9315 56.3113 64.3442 56.7734 64.6873 57.13C65.0417 57.5023 65.4074 57.8679 65.791 58.2156C66.5289 58.8884 67.3252 59.5008 68.1955 59.9852C69.0994 60.4877 70.0931 60.7972 71.1293 60.8443C71.7282 60.8712 72.3653 60.8802 72.9596 60.786C72.9641 60.786 73.0583 60.7702 73.1031 60.7613C73.5428 60.6694 73.9577 60.463 74.2068 60.0682C74.3795 59.7879 74.4534 59.4761 74.4557 59.1598C74.458 58.6214 74.2628 58.0607 74.0318 57.5987V57.5989Z" fill="#1B1323"/>
<path d="M72.9582 60.7861C72.3638 60.8803 71.7269 60.8713 71.1279 60.8444C70.0917 60.7973 69.0981 60.4878 68.1942 59.9853C67.3239 59.5009 66.5276 58.8885 65.7896 58.2157C65.4061 57.868 65.0405 57.5024 64.686 57.1301C64.3429 56.7735 63.9302 56.3114 63.8068 55.8023C63.7956 55.7216 63.7843 55.6409 63.7709 55.5578C63.3935 55.3798 62.2243 54.949 61.418 53.3081C61.3148 53.7006 60.929 54.0371 60.5589 54.1919C60.1261 54.378 59.6841 54.3982 59.2602 54.3107C58.8654 54.3107 58.5334 54.1425 58.2687 53.8823C57.8695 53.6176 57.5196 53.261 57.2572 52.873C56.7435 52.1082 56.5147 51.0966 56.7547 50.2062C56.5147 50.0335 56.2478 49.872 56.0504 49.6185C55.6512 49.1071 55.4829 48.4858 55.5323 47.8488C55.5234 47.7613 55.5188 47.6717 55.5211 47.5841C55.5368 46.7969 55.9293 46.0523 56.5372 45.5633C56.508 45.3211 56.3868 45.0407 56.3936 44.8142C56.4138 44.2153 56.6605 43.7151 57.1092 43.3226C57.1563 43.28 57.2034 43.2418 57.2527 43.2014C58.5044 42.2258 60.945 42.2978 62.3761 42.6947C63.9999 43.1432 68.7614 47.9705 69.5914 49.3924C70.4078 50.7874 70.7131 51.5025 71.0922 53.0636C71.2874 53.8666 71.4757 54.6784 71.6597 55.4881C71.8593 56.3742 72.0545 57.2579 72.2564 58.1303C72.4292 58.8749 72.9271 60.6447 72.963 60.7568C72.9653 60.7657 72.963 60.7858 72.9585 60.7858L72.9582 60.7861Z" fill="#FFA870"/>
<path d="M56.7946 45.5427C57.7819 44.5177 59.2655 44.1485 60.6411 44.097C60.8659 44.0887 60.867 43.7383 60.6411 43.7467C59.1741 43.8017 57.599 44.2028 56.547 45.2951C56.3905 45.4576 56.638 45.7056 56.7947 45.5428L56.7946 45.5427Z" fill="#1B1323"/>
<path d="M56.9576 49.9397C57.2301 49.0934 57.7466 48.352 58.4029 47.757C59.0888 47.1352 59.9733 46.5785 60.9297 46.6025C61.1551 46.6082 61.1551 46.2578 60.9297 46.2521C59.899 46.2262 58.9515 46.803 58.2039 47.4654C57.4798 48.1069 56.9169 48.9232 56.6197 49.8463C56.5504 50.0614 56.8885 50.1536 56.9574 49.9394L56.9576 49.9397Z" fill="#1B1323"/>
<path d="M60.0912 50.7784C59.5164 51.2199 59.1099 51.8577 58.9811 52.5744C58.9644 52.6674 59.0064 52.7632 59.1034 52.7898C59.1882 52.8131 59.3021 52.7611 59.3189 52.6675C59.4304 52.0466 59.765 51.4672 60.2679 51.0809C60.3428 51.0233 60.3828 50.9302 60.3307 50.8412C60.2876 50.7675 60.1665 50.7203 60.0911 50.7784H60.0912Z" fill="#1B1323"/>
<path d="M59.6608 51.6281C60.2425 52.0361 60.7193 52.5806 61.0558 53.2057C61.1628 53.4043 61.4654 53.2276 61.3583 53.0288C60.9926 52.3498 60.4685 51.7681 59.8376 51.3256C59.7601 51.2712 59.6429 51.3115 59.598 51.3885C59.5468 51.4758 59.5832 51.5736 59.6608 51.6281Z" fill="#1B1323"/>
<path d="M63.9969 55.9258C64.9362 56.0083 65.8954 55.7463 66.6622 55.1975C66.8439 55.0674 66.6691 54.7634 66.4853 54.895C65.7622 55.4126 64.8828 55.6532 63.997 55.5755C63.7725 55.5557 63.7738 55.9062 63.997 55.9259L63.9969 55.9258Z" fill="#1B1323"/>
<path d="M63.3931 55.4849C63.0385 56.0295 63.0922 56.6884 63.1638 57.3045C63.2571 58.1064 63.3185 58.9107 63.3465 59.7177C63.4023 61.3292 63.3391 62.9423 63.2375 64.5509C63.1364 66.1521 62.997 67.7505 62.8959 69.3515C62.8033 70.8185 62.7047 72.306 62.8073 73.7751C62.9083 75.22 63.3103 76.5749 63.9633 77.8656C64.0651 78.0669 64.3675 77.8897 64.2658 77.6888C63.6893 76.5494 63.3018 75.3453 63.1818 74.0709C63.052 72.6911 63.1343 71.2894 63.2128 69.9089C63.3906 66.7833 63.7505 63.6638 63.7154 60.5291C63.7055 59.6461 63.6639 58.7629 63.5776 57.8839C63.5077 57.1719 63.2759 56.3065 63.6957 55.6617C63.8191 55.4722 63.5158 55.2964 63.3931 55.4849Z" fill="#1B1323"/>
</g>
<path d="M30.0902 14.1574C30.1424 13.04 30.0186 11.9147 29.7298 10.8222L32.3201 8.45053L30.7832 5.64486L27.5819 6.65984C27.5287 6.59633 27.4834 6.52863 27.4288 6.4661C26.6698 5.59833 25.8015 4.89647 24.8698 4.34823L25.1795 0.959857L22.2066 0L20.5511 2.98712C19.3967 2.89801 18.2336 3.01346 17.1098 3.33078L15.0677 0.860884L12.3359 2.40909L13.1958 5.49024C13.136 5.54391 13.0722 5.58946 13.0134 5.6446C12.1796 6.4272 11.5097 7.32674 10.99 8.29446L7.71344 8.25359L7 11.3936L9.73749 12.7247C9.66117 13.9521 9.79315 15.1916 10.1289 16.3892L7.64057 18.7875L9.21559 21.5705L12.314 20.4974C12.3386 20.5265 12.3588 20.5575 12.3839 20.5861C13.1301 21.4393 13.9813 22.1336 14.8954 22.6779L14.8666 26.4092L17.9007 27.1356L19.2769 24.0665C20.4484 24.1552 21.6286 24.0318 22.7671 23.7019L25.0958 26.2541L27.7697 24.601L26.7316 21.4647C26.7535 21.4445 26.7776 21.4278 26.7995 21.4071C27.6624 20.5972 28.348 19.6612 28.8743 18.6546L32.1253 18.9143L33 15.8184L30.0902 14.1574ZM24.74 18.9662C21.8777 21.6525 17.401 21.3822 14.7607 18.3636C12.1205 15.3447 12.3009 10.703 15.1632 8.01676C18.0255 5.33047 22.5023 5.60103 25.1425 8.6199C27.7828 11.639 27.6023 16.2799 24.74 18.9662Z" fill="#91C7F9"/>
<path d="M0 114.581C2.76106 114.581 5 117.527 5 121.161C5 117.527 7.23918 114.581 10 114.581C7.23894 114.581 5 111.634 5 108C5 111.634 2.76106 114.581 0 114.581Z" fill="#FFBBD0"/>
<path d="M133.694 18.6731C135.34 18.4084 136.46 16.8595 136.195 15.2135C135.93 13.5675 134.381 12.4478 132.735 12.7125C131.089 12.9772 129.969 14.5261 130.234 16.1721C130.499 17.8181 132.048 18.9378 133.694 18.6731Z" fill="#FFC073"/>
<path d="M174.99 60.1579C177.075 59.8226 178.493 57.8605 178.158 55.7754C177.823 53.6903 175.861 52.2718 173.775 52.6071C171.69 52.9425 170.272 54.9046 170.607 56.9897C170.942 59.0748 172.905 60.4933 174.99 60.1579Z" fill="#FCCA65"/>
</svg>
