<svg width="311" height="194" viewBox="0 0 311 194" fill="none" xmlns="http://www.w3.org/2000/svg">
<path d="M304.011 17.7328C307.777 17.1272 310.338 13.5837 309.733 9.81809C309.127 6.0525 305.584 3.4908 301.818 4.09638C298.053 4.70195 295.491 8.24549 296.096 12.0111C296.702 15.7767 300.246 18.3384 304.011 17.7328Z" fill="#87E6C8"/>
<mask id="mask0_302_386" style="mask-type:alpha" maskUnits="userSpaceOnUse" x="0" y="0" width="229" height="194">
<rect width="228.676" height="194" fill="#D9D9D9"/>
</mask>
<g mask="url(#mask0_302_386)">
<path d="M211.678 193.032C211.656 191.017 211.629 189.003 211.598 186.988C211.366 172.141 211.074 157.245 210.111 142.425C209.846 138.335 209.226 134.252 208.801 130.162C208.849 129.84 208.896 129.518 208.944 129.196C207.464 126.098 205.111 123.365 202.021 121.184C196.989 117.949 191.597 121.544 189.44 125.857C189.348 126.023 189.259 126.193 189.168 126.361C189.168 126.876 189.162 127.39 189.155 127.904C189.515 130.506 189.613 133.121 189.649 135.741C189.662 136.211 189.673 136.681 189.688 137.152C189.753 137.542 189.823 137.931 189.907 138.319C189.963 138.576 189.894 138.831 189.756 139.036C190.251 151.495 191.544 163.914 193.584 176.218C194.192 179.885 194.871 183.541 195.621 187.181C196.312 190.53 196.754 194.322 198.553 197.301C201.177 201.646 207.469 203.421 210.623 198.562C211.694 196.913 211.699 194.925 211.678 193.032Z" fill="#F0DED7"/>
<path d="M211.403 112.625C210.637 117.784 209.872 122.938 209.106 128.097C209.052 128.463 208.998 128.83 208.944 129.197C208.887 129.481 208.822 129.765 208.757 130.042C207.061 137.152 202.621 142.694 199.648 140.595C194.616 137.36 193.753 137.716 189.44 125.857C189.346 126.023 189.26 126.191 189.167 126.361C189.17 124.621 189.124 122.878 188.98 121.145C188.965 120.972 188.911 120.811 188.825 120.67C188.825 118.593 188.901 116.515 189.044 114.441C189.415 109.006 190.188 103.607 190.996 98.2222C192.524 88.0819 194.199 78.1681 193.502 67.7364C193.455 67.0139 193.595 66.3202 193.868 65.6876C192.441 63.973 191.967 61.6867 193.229 59.5229C193.351 59.3182 193.369 58.9226 193.603 58.9226C194.293 58.9226 199.703 60.7272 200.36 61.0433C202.657 62.1504 204.71 63.7644 206.306 65.7523C206.586 66.101 206.849 66.4568 207.097 66.8199C209.178 69.8574 210.318 73.488 211.047 77.1113C212.438 83.9913 212.118 107.82 211.403 112.626V112.625Z" fill="#F0DED7"/>
<path d="M201.763 87.9877C201.554 87.0575 201.66 86.0977 201.595 85.153C201.555 84.5595 201.451 83.9729 201.366 83.3846C201.041 83.3422 200.708 83.4079 200.429 83.6278C199.696 83.6093 198.946 84.0689 198.94 85.0132C198.938 85.3809 198.932 85.7483 198.928 86.116C195.996 91.4202 193.046 96.724 190.326 102.138C187.543 107.68 185.749 113.296 185.993 119.561C186.242 125.957 187.955 132.202 189.092 138.473C190.271 144.971 191.264 151.518 193.571 157.738C194.087 159.13 196.612 159.085 196.395 157.356C194.871 145.181 197.996 134.791 199.743 122.783C201.34 111.805 201.562 99.0762 201.762 87.9874L201.763 87.9877Z" fill="black"/>
<path d="M214.615 250.159C206.495 257.765 196.111 265.475 184.406 260.655C179.061 258.426 175.37 254.131 171.628 249.9C171.153 248.128 170.686 246.352 170.211 244.58C169.895 243.397 169.575 242.211 169.255 241.028C167.199 233.397 165.121 225.769 163.015 218.152C162.896 217.71 162.774 217.268 162.652 216.826C161.462 212.523 160.265 208.224 159.064 203.928C157.972 200.035 156.879 196.142 155.775 192.253C151.311 176.487 144.977 160.448 146.828 143.74C145.757 139.1 148.173 134.657 152.677 132.942C153.04 132.802 153.41 132.698 153.788 132.619C154.622 132.331 155.506 132.137 156.437 131.986C156.451 131.983 156.462 131.983 156.477 131.979C156.538 131.961 156.606 131.943 156.678 131.921C157.336 131.742 157.961 131.494 158.601 131.271C158.623 131.256 158.641 131.242 158.662 131.228C159.148 130.904 159.651 130.563 160.15 130.261C160.208 130.218 160.258 130.178 160.305 130.142C160.416 130.034 160.531 129.933 160.636 129.822C164.057 126.403 169.467 126.109 172.961 128.83C173.914 127.777 175.161 126.918 176.71 126.328C179.672 125.199 182.548 119.617 184.964 121.885C186.261 122.295 186.84 120.43 187.76 121.26C189.637 122.953 191.865 134.211 192.354 136.609C200.474 176.416 206.916 212.139 214.615 250.159Z" fill="#C7BAD9"/>
<path d="M185.416 142.276C185.018 141.099 184.281 139.892 183.347 138.9C182.349 135.741 179.464 132.988 176.331 132.527C174.691 132.285 173.181 132.425 171.837 132.879C170.116 128.798 165.253 126.412 160.597 127.724C160.45 127.769 160.301 127.801 160.153 127.841C160.093 127.85 160.03 127.859 159.958 127.87C159.373 127.889 158.77 127.94 158.187 127.987C158.161 127.989 158.139 127.991 158.114 127.993C157.444 127.877 156.779 127.787 156.117 127.624C156.043 127.606 155.976 127.589 155.914 127.574C155.901 127.57 155.89 127.566 155.877 127.561C154.988 127.238 154.122 126.975 153.254 126.821C152.888 126.706 152.513 126.616 152.129 126.559C147.359 125.856 143.082 128.553 141.751 133.127C131.975 146.802 117.344 214.999 112.903 232.54C112.735 233.205 112.562 233.869 112.394 234.534C115.307 245.788 121.41 256.279 132.642 259.936C138.144 261.77 143.775 261.069 149.012 258.829C160.833 221.994 172.633 187.748 184.959 149.139C185.703 146.807 186.225 144.669 185.416 142.276L185.416 142.276Z" fill="#C7BAD9"/>
<path d="M85.304 363.67L84.6074 363.491C101.575 297.356 113.272 251.407 121.813 217.856C135.424 164.39 143.435 135.408 145.846 130.909C146.507 129.676 147.256 128.278 148.277 126.129L148.926 126.437C147.899 128.603 147.145 130.009 146.48 131.249C144.096 135.696 136.106 164.624 122.51 218.034C113.969 251.585 102.272 297.534 85.304 363.67Z" fill="black"/>
<path d="M93.4085 361.551L92.7119 361.373C93.3031 359.067 151.845 130.786 152.139 129.45L152.842 129.601C152.604 130.72 95.8252 352.127 93.4085 361.551Z" fill="black"/>
<path d="M99.1956 364.007L98.502 363.816C99.1321 361.521 161.496 134.253 161.813 132.924L162.513 133.086C162.256 134.201 101.77 354.624 99.1956 364.007Z" fill="black"/>
<path d="M108.376 362.105L107.683 361.915C108.313 359.62 170.677 132.351 170.994 131.022L171.694 131.185C171.437 132.3 110.951 352.722 108.376 362.105Z" fill="black"/>
<path d="M114.521 363.278L113.832 363.075C114.464 360.934 177.022 148.799 180.204 131.21L180.912 131.338C177.723 148.965 115.153 361.137 114.521 363.278Z" fill="black"/>
<path d="M234.171 345.293C223.25 324.162 187.311 131.551 186.949 129.608L187.656 129.476C188.018 131.419 223.937 323.926 234.81 344.963L234.171 345.293Z" fill="black"/>
<path d="M231.472 352.68C214.605 306.236 202.013 248.579 194.421 208.39C186.195 164.848 181.901 131.861 181.858 131.533L182.572 131.441C182.614 131.769 186.906 164.739 195.128 208.261C202.716 248.423 215.298 306.037 232.149 352.435L231.472 352.68L231.472 352.68Z" fill="black"/>
<path d="M227.014 358.865C218.536 347.438 207.807 312.788 195.124 255.878C185.684 213.514 178.641 173.996 178.571 173.602L179.279 173.476C179.559 175.052 207.505 331.364 227.591 358.437L227.014 358.865Z" fill="black"/>
<path d="M223.671 368.604C214.889 358.127 203.493 325.015 189.799 270.189C179.606 229.381 171.89 191.155 171.813 190.774L172.518 190.632C172.825 192.156 203.433 343.337 224.222 368.142L223.671 368.604L223.671 368.604Z" fill="black"/>
<path d="M202.201 80.5655C201.715 89.836 198.552 96.8921 196.14 105.814C195.033 109.901 190.586 126.486 188.825 129.143C187.56 131.436 184.706 130.437 182.215 131.487C176.233 134.01 169.033 134.129 162.635 133.949C159.763 133.866 156.898 133.669 154.037 133.456C151.621 133.277 149.486 132.896 147.602 131.767C145.65 131.846 143.648 130.908 142.642 129.132C141.477 127.08 141.211 125.027 141.348 122.885C140.334 119.948 139.838 116.806 139.522 113.636C139.245 110.904 139.09 108.503 138.533 105.879C137.933 103.043 137.175 100.25 136.754 97.3777C135.898 91.4719 135.927 85.5623 135.949 79.6132C135.959 76.7196 138.616 65.4073 139.464 64.7783C143.53 61.7445 147.89 59.347 152.894 58.3045C155.428 57.7725 158.002 57.4705 160.565 57.1147C163.16 56.7516 165.726 56.2304 168.34 56.0146C172.11 55.6982 175.899 55.7451 179.663 56.1079C179.907 56.1332 180.148 56.1582 180.392 56.1835C186.74 56.8699 193.002 58.4553 198.958 60.7127C199.274 60.835 199.609 60.968 199.835 61.2159C199.861 61.2447 199.886 61.2734 199.907 61.3022C200.101 61.5647 200.155 61.8989 200.202 62.2226C200.989 67.6613 202.488 75.0697 202.201 80.5657V80.5655Z" fill="#F0DED7"/>
<path d="M156.76 115.206C155.229 115.354 153.74 115.498 152.364 115.631C148.647 115.994 145.257 116.321 142.906 116.511C142.935 116.267 142.971 116.026 143.014 115.782C143.967 115.703 145.081 115.602 146.317 115.487C146.314 115.461 146.317 115.436 146.325 115.415C146.346 115.321 148.647 106.259 150.897 96.0794C151.073 95.2743 151.267 94.5229 151.472 93.8184C151.375 94.9326 151.285 96.0577 151.278 97.1828V97.6717C151.278 101.644 151.648 105.634 153.143 109.347C153.905 111.241 154.912 113.002 156.181 114.541C156.368 114.767 156.558 114.99 156.76 115.206L156.76 115.206Z" fill="black"/>
<path d="M193.938 106.683C193.85 106.683 193.763 106.651 193.694 106.587C193.548 106.452 193.539 106.225 193.674 106.079C199.486 99.7943 201.556 87.2999 201.862 83.0161C201.876 82.8178 202.049 82.671 202.246 82.6831C202.444 82.6973 202.594 82.8693 202.579 83.0673C202.267 87.4214 200.155 100.13 194.202 106.567C194.131 106.644 194.034 106.683 193.938 106.683Z" fill="black"/>
<path d="M190.691 36.9091C190.059 36.2835 189.066 35.3815 187.607 35.3312C187.456 35.3204 187.301 35.324 187.143 35.3384C187.018 35.3492 186.892 35.3637 186.766 35.3815C184.386 35.7337 182.258 37.4914 180.666 39.3284C180.256 39.8029 179.889 40.3133 179.602 40.8633C179.372 41.3125 179.192 41.787 179.084 42.2868C179.052 42.4379 179.027 42.5959 179.009 42.754C179.005 42.7757 179.005 42.7971 179.005 42.8187C178.887 43.9797 179.232 45.1984 180.03 46.0682C180.853 46.9705 181.971 47.2833 183.143 47.2652C184.573 47.2508 186.09 46.7513 187.266 46.2407C189.556 45.2487 192.18 43.473 192.287 40.7375C192.345 39.2996 191.705 37.9086 190.691 36.9091Z" fill="#332023"/>
<path d="M183.111 41.1614C183.47 40.5144 183.902 39.9068 184.398 39.3604C184.523 39.2238 184.513 39.0585 184.437 38.9326C183.323 40.2086 181.878 41.3984 180.069 41.9987C180.066 41.9915 180.062 41.9843 180.055 41.9771C179.836 41.729 179.634 41.4415 179.48 41.1214C179.351 41.3981 179.243 41.6857 179.16 41.9843C179.131 42.0849 179.106 42.1857 179.084 42.2862C179.052 42.4373 179.027 42.5954 179.009 42.7535C179.005 42.7752 179.005 42.7966 179.005 42.8182C178.887 43.9792 179.232 45.1979 180.03 46.0677C180.853 46.97 181.971 47.2828 183.143 47.2647C182.852 46.8658 182.593 46.4416 182.381 46.003C182.018 45.2482 182.018 44.407 182.187 43.5983C182.366 42.7463 182.682 41.9232 183.11 41.1611L183.111 41.1614Z" fill="black"/>
<path d="M179.647 59.2746C179.643 59.7383 179.618 60.1842 179.582 60.6153C177.659 62.88 174.815 64.4184 172.137 64.7959C170.142 65.0762 168.349 64.7851 166.648 64.1776C165.883 63.6959 165.387 63.0344 165.541 62.1215C165.62 61.6651 165.53 61.2984 165.34 61.0287C165.365 59.3752 165.642 57.6678 165.804 56.1797C166.001 54.3356 166.21 52.5816 166.411 50.8309V50.8165C166.504 50.0114 166.598 49.2061 166.688 48.3938C166.828 47.1214 166.961 45.8308 167.083 44.4973C167.202 43.2141 167.464 41.8732 168 40.7014C168.348 39.9394 168.812 39.2419 169.42 38.6777C170.76 37.4412 172.615 37.0314 174.319 37.1931C178.456 37.5812 179.671 36.1183 179.614 40.5289C179.578 43.2897 179.607 46.7403 179.632 50.1733C179.657 53.4228 179.679 56.6616 179.646 59.2749L179.647 59.2746Z" fill="#F9ACAC"/>
<path d="M178.772 38.6883C178.683 38.8789 178.604 39.0659 178.532 39.2456C178.003 40.5649 177.842 41.7078 175.778 44.0515C174.674 45.3025 168.337 48.1099 166.684 48.4011C163.639 48.9403 160.655 48.3975 161.511 43.7676C161.561 43.5051 161.597 43.2392 161.608 42.9731C161.691 40.953 161.867 41.111 162.043 41.086C162.485 41.0213 162.888 41.2333 164.426 40.3348C165.174 39.8998 166.702 38.2608 164.304 37.071C163.585 36.7151 163.096 37.0421 162.399 36.9307C162.19 36.8982 161.838 36.8912 161.86 36.4309C161.888 35.7442 162.485 34.5616 162.19 34.3605C162.011 34.2382 161.439 34.0766 161.011 33.9866C160.799 33.9399 160.203 33.796 160.407 33.2929C161.317 31.0641 162.794 28.9686 163.157 26.6465C163.466 24.6516 164.904 22.7284 166.389 21.2725C166.432 21.2294 166.475 21.1861 166.518 21.1466C166.544 21.1214 166.569 21.1 166.594 21.0783C167.503 20.2299 168.578 19.5865 169.75 19.1768C169.761 19.1695 169.775 19.1659 169.786 19.1623C169.804 19.1551 169.822 19.1479 169.84 19.1443C169.919 19.1154 169.998 19.0904 170.073 19.0651C170.145 19.0399 170.214 19.0184 170.282 18.9968C170.361 18.9715 170.436 18.9465 170.516 18.9212C170.609 18.8926 170.699 18.8637 170.789 18.8387C170.915 18.7992 171.044 18.7632 171.166 18.7273C171.285 18.6914 171.396 18.659 171.507 18.6303C171.662 18.5909 171.809 18.5512 171.949 18.5153C173.542 18.8028 175.145 20.1005 177.155 22.0561C180.386 25.1978 179.477 29.1662 178.887 33.1454C178.722 34.2488 178.585 35.3561 178.567 36.4451C178.56 36.934 178.618 37.2107 178.7 37.3724C178.963 37.8864 179.451 37.2719 178.772 38.6881L178.772 38.6883Z" fill="#F9ACAC"/>
<path d="M187.129 32.8472C186.665 35.5252 187.071 35.6977 185.13 37.5165C184.325 38.2749 181.981 40.6223 181.089 41.2765C180.744 41.5246 180.069 42.1644 179.598 42.1321C178.911 42.0891 178.537 40.0186 178.53 39.2458C178.526 39.1883 178.53 39.1344 178.534 39.0913C178.588 38.5162 178.649 37.9445 178.699 37.3731C178.72 37.1322 178.738 36.8914 178.756 36.6505C178.839 35.4824 178.889 34.314 178.886 33.1458C178.886 32.6569 178.875 32.1716 178.854 31.6865C178.836 31.2443 178.828 30.795 178.775 30.3564C178.76 30.263 178.699 30.1156 178.66 29.9933C178.577 30.058 178.447 30.1336 178.404 30.1731C178.181 30.3817 177.969 30.6045 177.779 30.8417C177.383 31.352 177.085 31.931 176.873 32.5383C176.632 33.2428 176.355 33.9581 175.698 34.3715C175.076 34.7632 174.231 34.8029 173.645 34.3248C173.03 33.8181 172.966 33.0308 173.005 32.2866C173.146 29.6158 174.853 25.543 172.872 23.2317C171.395 21.5099 168.595 21.1793 166.388 21.2726C166.431 21.2296 166.474 21.1863 166.517 21.1468C166.542 21.1215 166.567 21.1001 166.593 21.0785C167.502 20.2301 168.577 19.5867 169.749 19.1769C169.76 19.1697 169.774 19.1661 169.785 19.1625C169.802 19.1553 169.82 19.1481 169.838 19.1444C169.918 19.1156 169.997 19.0905 170.072 19.0653C170.144 19.04 170.212 19.0186 170.281 18.9969C170.36 18.9717 170.435 18.9467 170.514 18.9214C170.608 18.8928 170.698 18.8639 170.787 18.8389C170.913 18.7994 171.043 18.7633 171.165 18.7275C171.283 18.6916 171.395 18.6591 171.506 18.6305C171.661 18.591 171.808 18.5513 171.948 18.5155C172.052 18.4869 172.15 18.4616 172.243 18.4399C176.474 17.4226 180.169 16.6139 183.35 19.4033C185.115 20.949 185.82 22.5811 186.65 25.0791C187.326 27.1137 187.495 30.7371 187.128 32.847L187.129 32.8472Z" fill="#332023"/>
<path d="M180.095 59.2377C180.091 59.7013 180.028 60.2242 179.992 60.6556C178.069 62.9202 175.179 64.9512 172.501 65.3285C170.506 65.6088 168.452 65.3569 166.752 64.7493C165.986 64.2676 164.48 64.0448 164.635 63.1317C164.714 62.6753 162.908 60.7853 162.718 60.5155C162.743 58.8621 165.641 57.6679 165.803 56.1798C166.001 54.3321 166.209 52.5708 166.41 50.8165C170.508 51.0143 174.807 50.8668 178.582 50.2737C178.941 50.2162 179.29 50.184 179.631 50.1732C179.647 52.2066 179.661 54.2356 179.662 56.11C179.662 57.231 180.106 58.2596 180.094 59.2377H180.095Z" fill="#F0DED7"/>
<path d="M178.583 30.0484C179.386 29.2714 180.776 28.8802 181.835 29.2625C182.157 29.2796 182.489 29.3475 182.828 29.4771C184.495 30.115 185.135 32.0449 184.918 33.6958C184.532 36.6257 180.295 41.6992 177.318 38.3232C176.307 37.1776 176.212 35.3427 176.748 33.7234C176.958 32.3642 177.588 31.0113 178.583 30.0481V30.0484Z" fill="#F9ACAC"/>
<path d="M198.221 100.54C192 100.66 185.785 100.443 179.587 99.8899C179.245 99.8596 178.956 99.9139 178.717 100.027C177.898 100.305 177.194 101.09 177.361 102.173C177.372 102.249 177.384 102.325 177.396 102.401C177.316 102.915 177.353 103.449 177.42 103.994C177.42 104.016 177.613 109.38 177.743 111.527C178.037 116.377 178.459 121.237 179.119 126.052C179.33 127.596 179.888 128.792 181.379 129.365C181.39 129.41 181.409 129.456 181.423 129.501C181.608 129.552 189.52 130.859 194.859 129.612C195.291 129.511 196.11 129.492 196.824 128.182C198.379 119.634 199.45 111.007 200.018 102.337C200.081 101.38 199.144 100.521 198.221 100.539V100.54Z" fill="#A4C0F5"/>
<path d="M201.472 102.507C201.451 102.813 201.293 103.039 201.055 103.165C200.937 103.226 200.8 103.262 200.649 103.269C199.096 103.352 197.536 103.416 195.98 103.467C189.466 103.675 182.949 103.585 176.439 103.28C176.159 103.265 175.85 103.183 175.688 102.949C175.497 102.672 175.577 102.299 175.67 101.975C175.983 100.911 176.385 99.872 176.774 98.8333C176.838 98.6572 176.903 98.4811 176.968 98.3049C176.989 98.2438 177.011 98.1863 177.04 98.1288C177.611 96.7593 178.765 96.3567 180.232 96.1878C181.709 96.0189 183.197 96.1842 184.682 96.152C187.529 96.0981 190.372 96.3964 193.219 96.3064C194.383 96.2706 195.548 96.1914 196.713 96.2775C198.305 96.3962 199.61 96.8779 200.236 98.2977C200.297 98.4308 200.347 98.5708 200.394 98.7183C200.422 98.8153 200.455 98.9089 200.483 99.0058C200.767 99.9081 201.048 100.814 201.332 101.716C201.411 101.971 201.494 102.237 201.472 102.507Z" fill="#261F29"/>
<path d="M200.483 99.0058C196.195 99.2322 192.399 99.3114 189.222 99.3114C186.968 99.3114 185.027 99.2719 183.449 99.2216C180.979 99.1389 179.146 99.0239 178.042 98.9377C177.482 98.8947 177.072 98.8622 176.773 98.8335C176.838 98.6574 176.903 98.4813 176.968 98.3052C176.989 98.244 177.011 98.1865 177.04 98.129C179.538 98.3554 187.816 98.9558 200.236 98.2979C200.297 98.431 200.347 98.571 200.394 98.7185C200.423 98.8155 200.455 98.9091 200.483 99.0061V99.0058Z" fill="black"/>
<path d="M144.009 62.0599C143.912 62.0382 143.816 62.0298 143.719 62.0353C143.257 62.0623 142.842 62.3152 142.454 62.569C136.326 66.5831 131.663 72.7452 129.358 79.6899C126.583 88.0533 124.425 96.7802 122.375 105.366C120.588 112.852 117.614 121.128 117.539 128.375C117.472 134.937 126.771 141.668 133.887 140.451C136.207 140.055 138.138 139.122 139.749 137.825C140.177 136.638 140.72 135.486 141.206 134.326C141.332 134.025 141.554 133.785 141.842 133.7C142.14 132.207 142.531 130.723 142.996 129.259C143.448 126.533 144.014 123.827 144.644 121.136C146.481 113.3 148.824 105.586 150.434 97.6955C151.289 93.5055 151.923 89.24 152.132 84.9629C151.681 80.3275 150.687 75.7177 148.983 71.1677C148.349 69.4755 146.165 62.5397 144.01 62.0601L144.009 62.0599Z" fill="#F0DED7"/>
<path d="M179.617 133.586C179.164 129.772 178.765 127.227 178.316 123.413C178.05 121.184 177.345 115.652 175.49 113.672C175.404 113.575 175.31 113.485 175.214 113.406C174.901 113.147 174.545 112.985 174.164 112.892C173.186 112.658 172.047 112.881 171.026 113.111C164.84 114.513 158.545 114.948 152.262 115.66C145.303 116.454 138.344 117.216 131.388 118.036C126.331 118.632 121.194 117.788 118.559 122.892C116.244 127.389 118.203 132.957 121.101 138.514C121.748 139.758 122.646 140.858 123.76 141.706C130.216 146.616 135.91 145.585 144.393 144.92C149.947 144.485 161.644 143.284 167.119 142.313C169.84 141.832 172.543 141.217 175.185 140.419C175.512 140.319 175.825 140.2 176.119 140.063C178.668 138.881 179.944 136.346 179.617 133.586Z" fill="#F0DED7"/>
<path d="M176.094 137.54C174.072 131.505 172.497 118.079 172.533 115.376C172.538 114.95 172.645 114.527 172.882 114.173C173.248 113.627 173.701 113.51 174.241 113.53C175.099 113.562 175.871 114.055 176.267 114.817C177.55 117.28 178.089 121.528 178.314 123.413C178.763 127.227 179.162 129.772 179.615 133.586C179.801 135.158 179.468 136.658 178.674 137.875C177.595 139.533 176.722 139.415 176.094 137.54Z" fill="black"/>
<path d="M179.326 117.885C179.297 117.852 176.421 114.556 175.602 113.535C175.124 112.938 170.997 113.132 156.184 114.541C154.962 114.656 153.668 114.782 152.294 114.915C150.443 115.095 148.671 115.268 147.071 115.419C146.816 115.44 146.565 115.465 146.32 115.487C145.084 115.602 143.969 115.703 143.017 115.782C141.676 115.893 140.663 115.962 140.098 115.969C136.608 116.023 134.066 113.834 132.977 112.903C132.74 112.701 132.582 112.565 132.46 112.489C132.291 112.382 132.072 112.432 131.964 112.601C131.859 112.77 131.91 112.989 132.075 113.097C132.154 113.147 132.319 113.287 132.51 113.449C133.66 114.434 136.356 116.735 140.109 116.688C140.666 116.68 141.637 116.616 142.909 116.512C145.26 116.321 148.65 115.994 152.367 115.631C153.743 115.498 155.231 115.354 156.763 115.207C164.796 114.441 174.078 113.622 175.074 114.024C175.936 115.095 178.665 118.223 178.783 118.356C178.855 118.438 178.952 118.481 179.053 118.481C179.139 118.481 179.222 118.453 179.29 118.391C179.441 118.262 179.455 118.036 179.326 117.885L179.326 117.885Z" fill="black"/>
<path d="M158.436 84.3505C158.364 84.3792 153.791 86.3096 151.599 96.2343C151.491 96.716 151.387 97.1977 151.279 97.6722C149.305 106.497 147.379 114.179 147.07 115.419C147.041 115.526 147.023 115.584 147.023 115.591C146.98 115.753 146.836 115.861 146.674 115.861C146.646 115.861 146.617 115.857 146.585 115.85C146.419 115.807 146.308 115.652 146.319 115.487C146.315 115.462 146.319 115.437 146.326 115.415C146.347 115.322 148.648 106.26 150.898 96.0796C151.074 95.2745 151.269 94.5231 151.473 93.8186C153.903 85.4143 157.987 83.7502 158.177 83.6819C158.361 83.6099 158.569 83.7035 158.641 83.8869C158.713 84.0738 158.619 84.2786 158.436 84.3505Z" fill="black"/>
<path d="M193.813 130.922C192.706 131.867 191.289 132.018 189.92 132.273C188.504 132.536 187.145 132.946 185.865 133.618C183.744 134.728 181.505 137.069 178.935 135.566C177.152 134.523 176.943 132.683 177.447 130.976C177.45 130.968 177.45 130.958 177.454 130.951C177.202 130.857 176.958 130.738 176.724 130.602C175.829 130.077 175.117 129.254 174.819 128.215C174.484 127.054 174.664 125.904 175.2 124.937C175.196 124.937 175.196 124.933 175.193 124.933C174.97 124.811 174.758 124.671 174.564 124.509C173.809 123.88 173.284 122.967 173.155 121.831C173.025 120.699 173.665 119.919 174.1 118.908H174.096C174.007 118.855 173.658 118.607 173.442 118.441C173.363 118.384 173.302 118.337 173.277 118.312C167.752 112.791 184.492 109.243 187.235 109.527C189.161 109.728 191.864 110.353 192.051 112.708C192.123 113.649 191.818 114.325 191.304 114.793C191.081 115.001 190.815 115.167 190.524 115.296C190.639 115.318 190.754 115.339 190.865 115.368C190.867 115.366 190.87 115.366 190.872 115.368C192.019 115.63 193.022 116.191 193.478 117.374C193.762 118.096 193.741 118.793 193.493 119.383C193.392 119.642 193.248 119.879 193.065 120.087C193.054 120.102 193.043 120.113 193.032 120.127C193.439 120.364 193.78 120.659 194.028 121.033C194.812 122.197 194.499 123.229 193.809 124.103C193.611 124.351 193.384 124.588 193.14 124.811C193.179 124.829 193.215 124.843 193.255 124.865H193.259C193.395 124.922 193.528 124.987 193.657 125.055C195.926 126.342 195.599 129.394 193.812 130.921L193.813 130.922Z" fill="#F9ACAC"/>
<path d="M181.658 60.5578C181.687 60.7519 181.554 60.9389 181.356 60.9675C181.338 60.9711 181.32 60.9711 181.302 60.9711C181.155 60.9711 181.026 60.8814 180.968 60.7519C180.745 60.2488 179.814 58.0848 179.663 56.1077C179.908 56.1329 180.148 56.158 180.393 56.1832C180.569 58.0667 181.5 60.1697 181.622 60.45C181.637 60.4788 181.651 60.5255 181.658 60.5578H181.658Z" fill="black"/>
<path d="M187.613 35.3309C186.926 36.8299 185.445 39.3893 183.116 41.1613C182.278 41.8011 181.329 42.3403 180.269 42.6926C179.992 42.7859 179.687 42.6854 179.503 42.459C179.435 42.3762 179.37 42.2937 179.309 42.2109C179.313 42.2109 179.316 42.2073 179.324 42.2073C179.266 42.1353 179.212 42.0598 179.165 41.9845C178.935 41.6539 178.759 41.3014 178.626 40.9277C177.551 43.4115 174.259 49.1378 166.415 50.8308V50.8163C166.509 50.0112 166.602 49.2059 166.692 48.3936C176.678 46.6143 178.299 39.9032 178.342 39.7018C178.367 39.5257 178.522 39.3854 178.709 39.3926C178.889 39.3998 179.029 39.5399 179.05 39.7124C179.072 39.7627 179.09 39.813 179.093 39.8669C179.097 39.8849 179.097 39.8955 179.1 39.8991C179.104 39.9208 179.104 39.9422 179.108 39.9674C179.119 40.0177 179.126 40.068 179.137 40.1219C179.158 40.2225 179.183 40.3269 179.212 40.4275C179.266 40.6144 179.342 40.83 179.406 40.9667C179.431 41.0206 179.453 41.0709 179.485 41.1212C179.64 41.4412 179.841 41.7287 180.06 41.9768C180.067 41.984 180.071 41.9912 180.075 41.9984C181.883 41.3981 183.328 40.2083 184.442 38.9323C185.531 37.6814 186.297 36.3407 186.772 35.3809C186.897 35.3629 187.023 35.3484 187.149 35.3379C187.308 35.3234 187.462 35.3198 187.613 35.3306L187.613 35.3309Z" fill="black"/>
<path d="M163.016 218.152C166.172 207.128 172.042 187.562 176.424 178.576C177.377 176.62 178.398 174.794 179.39 173.148C182.373 168.209 185.127 164.92 185.163 164.873C185.289 164.722 185.27 164.495 185.12 164.366C184.969 164.24 184.738 164.258 184.613 164.409C184.584 164.442 183.042 166.286 181.018 169.273C179.404 171.652 177.481 174.762 175.777 178.259C171.521 186.991 165.878 205.614 162.653 216.826L163.016 218.152Z" fill="black"/>
<path d="M190.525 115.296C190.64 115.318 190.755 115.339 190.866 115.368C183.839 114.854 176.416 117.805 174.101 118.909H174.098C174.008 118.855 173.659 118.607 173.443 118.441C175.69 117.201 183.839 114.088 191.057 114.656C191.161 114.667 191.247 114.718 191.305 114.793C191.082 115.002 190.816 115.167 190.525 115.296L190.525 115.296Z" fill="black"/>
<path d="M193.497 119.383C193.397 119.642 193.253 119.88 193.07 120.088C184.604 119.811 176.592 124.132 175.197 124.934C174.975 124.811 174.762 124.671 174.568 124.509C175.305 123.916 178.274 122.529 180.492 121.702C183.706 120.509 188.558 119.139 193.497 119.383Z" fill="black"/>
<path d="M193.144 124.811C193.184 124.829 193.22 124.844 193.259 124.865C185.754 125.501 179.459 129.542 177.45 130.976C177.454 130.969 177.454 130.958 177.457 130.951C177.206 130.857 176.961 130.739 176.728 130.602C177.72 129.829 179.815 128.543 181.677 127.608C184.56 126.152 188.967 124.398 193.813 124.103C193.615 124.351 193.389 124.588 193.144 124.811Z" fill="black"/>
<path d="M178.926 173.539C179.263 172.597 179.647 171.676 180.038 170.757C178.658 172.89 177.148 175.445 175.777 178.259C171.521 186.991 165.878 205.614 162.653 216.826L163.016 218.152C165.123 225.769 167.2 233.397 169.257 241.028C168.032 233.616 170.889 213.986 172.772 201.283C173.689 195.107 174.818 188.95 176.252 182.875C176.63 181.266 178.388 175.041 178.926 173.539V173.539Z" fill="black"/>
<path d="M179.167 36.7922C179.046 36.635 179.068 36.4026 179.225 36.2811C179.382 36.1596 179.602 36.182 179.723 36.3393C179.845 36.4178 180.477 36.3446 180.974 35.9344C181.311 35.6558 181.648 35.1668 181.342 34.4207C180.997 33.579 180.348 33.2764 179.416 33.5208C179.2 33.5778 178.976 33.5069 178.832 33.336C178.688 33.1662 178.656 32.9352 178.748 32.7331C179.204 31.7235 179.825 31.0996 180.592 30.8789C181.331 30.6669 182.185 30.8479 182.998 31.3885C182.998 31.3885 183.32 31.6364 183.191 31.8717C182.934 32.3411 182.6 31.9869 182.6 31.9869C182.232 31.7429 181.509 31.364 180.791 31.5699C180.3 31.7109 179.878 32.1111 179.534 32.7605C180.671 32.5711 181.563 33.0653 182.007 34.1476C182.509 35.3699 181.852 36.2874 181.071 36.7385C180.575 37.0251 179.941 37.1786 179.506 37.0282C179.37 36.981 179.254 36.904 179.167 36.7919L179.167 36.7922Z" fill="black"/>
<path d="M168.304 28.3827C168.744 28.3753 169.042 27.9369 168.871 27.5312C168.496 26.64 167.433 24.9851 165.845 25.083C164.941 25.1388 164.672 25.6783 164.41 25.9827C164.04 26.4124 164.188 27.0772 164.694 27.3344C165.483 27.7362 166.999 28.4051 168.304 28.3827Z" fill="black"/>
<path d="M164.899 28.7347C164.942 28.6786 164.996 28.6361 165.062 28.6072C165.181 28.5494 165.349 28.5331 165.473 28.5826C165.603 28.6341 165.725 28.7248 165.782 28.8564L165.826 28.9871C165.838 29.047 165.836 29.106 165.828 29.1647C165.778 29.4168 165.749 29.6728 165.744 29.9298C165.742 30.0049 165.722 30.0737 165.683 30.136C165.657 30.2029 165.615 30.259 165.557 30.3047C165.459 30.3889 165.303 30.4478 165.172 30.4334C165.031 30.418 164.887 30.361 164.797 30.2462C164.708 30.1326 164.665 30.0061 164.668 29.8605C164.674 29.5403 164.722 29.2287 164.788 28.9156C164.81 28.8447 164.847 28.7843 164.9 28.7345L164.899 28.7347Z" fill="black"/>
<path d="M209.107 128.097C209.053 128.464 208.999 128.83 208.945 129.197C208.888 129.481 208.823 129.765 208.758 130.042C208.082 127.152 207.874 124.157 208.154 121.192C208.197 120.735 208.916 120.732 208.873 121.192C208.657 123.503 208.737 125.821 209.107 128.097Z" fill="black"/>
<path d="M131.241 244.59C127.333 250.356 120.504 254.404 113.958 255.759C104.871 257.707 95.4888 255.841 88.9897 249.374C87.5265 242.559 86.0456 235.747 84.5466 228.943C84.374 228.152 84.1979 227.365 84.0254 226.574C84.0037 226.473 83.9787 226.369 83.9571 226.268C81.8147 216.552 79.6328 206.847 77.4113 197.149C73.759 181.178 68.2522 164.837 70.9518 148.244C70.2187 144.107 72.1848 140.26 75.8153 138.395C76.297 138.147 76.8073 137.931 77.3465 137.759C77.7132 137.64 78.0905 137.554 78.468 137.493C79.3164 137.248 80.2079 137.101 81.1496 136.996C81.1641 136.993 81.1747 136.993 81.1891 136.989C81.2502 136.978 81.3185 136.96 81.3938 136.946C82.0589 136.799 82.6951 136.583 83.3457 136.393C83.3673 136.378 83.3851 136.367 83.4104 136.353C83.9102 136.055 84.4277 135.738 84.9452 135.465C85.0028 135.422 85.0567 135.386 85.107 135.35C85.222 135.25 85.3406 135.156 85.452 135.052C89.0428 131.81 94.46 131.795 97.8138 134.689C98.8167 133.686 100.107 132.891 101.685 132.381C104.697 131.407 108.504 132.597 110.798 134.984C112.077 135.458 113.271 136.216 114.152 137.094C115.934 138.88 116.416 141.03 116.783 143.449C118.339 153.748 119.802 163.773 121.211 173.633C121.247 173.888 121.283 174.139 121.319 174.391C124.72 198.216 127.822 221.096 131.241 244.59Z" fill="#B89856"/>
<path d="M93.968 154.463C90.6752 179.546 87.2819 202.918 83.9571 226.268C82.8393 234.119 81.7286 241.966 80.6321 249.874C75.7326 256.37 69.1404 261.704 61.117 263.307C50.6675 265.525 41.3359 259.648 37.7881 250.352C37.8097 250.011 37.8384 249.669 37.86 249.328C39.1182 231.279 40.2505 213.22 41.2606 195.154C41.5195 190.484 41.6453 185.746 41.8573 181.005C41.8681 180.772 41.879 180.538 41.8898 180.304C42.429 168.661 43.5649 157.019 48.6045 146.375C49.1043 141.637 52.8318 138.222 57.6522 138.068C58.0403 138.057 58.425 138.079 58.8061 138.125C59.6868 138.125 60.5855 138.23 61.5164 138.388C61.5308 138.391 61.5452 138.391 61.5558 138.395C61.6206 138.399 61.6889 138.402 61.7681 138.41C62.4473 138.453 63.116 138.42 63.7955 138.417C63.8207 138.41 63.8421 138.406 63.8674 138.399C64.4319 138.248 65.0178 138.093 65.5892 137.967C65.6576 137.946 65.7186 137.924 65.7761 137.906C65.9128 137.841 66.0564 137.78 66.1931 137.712C69.4247 136.137 73.1343 136.554 75.8159 138.395C76.7432 139.031 77.5485 139.836 78.1702 140.789C79.4103 140.106 80.8735 139.7 82.5306 139.646C85.6939 139.542 89.0225 141.741 90.5643 144.671C91.6608 145.483 92.5989 146.54 93.1993 147.626C94.4213 149.836 94.2885 152.036 93.9684 154.463H93.968Z" fill="#B89856"/>
<path d="M45.5928 181.21L45.5459 181.94L35.1181 348.086C35.1037 348.276 34.9456 348.424 34.7586 348.424H34.7336C34.5358 348.409 34.385 348.24 34.3994 348.043L44.8344 181.753L44.8811 181.027C45.1039 181.084 45.3412 181.145 45.5928 181.21Z" fill="black"/>
<path d="M109.568 141.252C108.763 138.323 105.787 136.85 102.935 137.486C96.6184 138.893 90.2102 140.025 83.9519 140.737C77.261 141.497 70.4221 142.17 63.7091 141.333C60.8993 140.983 58.1979 144.063 58.3173 146.725C58.4614 149.945 60.6986 151.741 63.7091 152.117C70.6454 152.982 77.7283 152.252 84.6379 151.441C91.7494 150.607 98.8125 149.442 105.802 147.885C108.645 147.251 110.312 143.96 109.568 141.252Z" fill="black"/>
<path d="M88.6592 143.927C89.85 149.422 93.2253 167.654 91.0646 176.957C91.0196 177.151 91.2544 176.783 91.4478 176.827C91.4752 176.834 91.5027 176.837 91.5296 176.837C91.6928 176.837 91.841 176.725 91.8793 176.559C94.102 166.989 90.5884 149.346 89.3685 143.784C89.1325 143.832 88.8962 143.88 88.6592 143.927V143.927Z" fill="black"/>
<path d="M94.2756 143.258C95.7958 148.565 98.3432 160.504 92.0356 164.757C91.871 164.868 91.8274 165.091 91.9383 165.255C92.0079 165.359 92.1212 165.414 92.2367 165.414C92.3057 165.414 92.3758 165.394 92.4371 165.353C99.1571 160.822 96.6168 148.716 95.0225 143.197C94.7735 143.217 94.5247 143.238 94.2756 143.258Z" fill="black"/>
<path d="M127.305 126.109C127.118 129.818 126.417 133.585 124.961 137.022V137.025C124.878 137.23 124.788 137.435 124.695 137.64C124.612 137.827 124.526 138.01 124.436 138.194V138.197C124.429 138.212 124.422 138.226 124.414 138.24C124.325 138.424 124.235 138.607 124.138 138.787C123.663 139.703 123.128 140.588 122.527 141.436C121.729 142.561 120.787 143.668 119.296 143.69C118.268 143.704 117.355 143.233 116.636 142.543C116.391 142.309 116.168 142.054 115.974 141.781C115.158 140.645 114.709 139.229 114.191 137.942C114.022 137.518 113.854 137.094 113.688 136.666C113.311 135.71 112.944 134.75 112.584 133.787C111.47 130.778 110.446 127.737 109.536 124.66C108.738 121.957 108.026 119.232 107.423 116.479C106.707 113.218 106.132 109.926 105.73 106.611V106.59C105.417 104.023 105.208 101.446 105.118 98.8685C105.115 98.7858 105.111 98.7032 105.108 98.6205C105.093 98.2071 105.083 97.7937 105.079 97.3804V97.3623C105.072 97.1754 105.068 96.9884 105.068 96.7981V96.7945C105 92.161 105.248 87.5276 105.474 82.8978C105.492 82.5886 105.507 82.283 105.521 81.9775C105.557 81.2838 105.589 80.5899 105.618 79.8962C105.859 74.3568 105.97 68.7817 105.338 63.264V63.2604C105.647 63.3251 105.952 63.3934 106.258 63.4687C106.56 63.5407 106.866 63.6162 107.168 63.6952C107.347 63.7454 107.527 63.7921 107.707 63.8426C107.89 63.8929 108.07 63.9468 108.25 64.0007C108.426 64.0546 108.602 64.1121 108.778 64.1696C109.155 64.2919 109.533 64.4249 109.903 64.5722C110.057 64.6333 110.209 64.6944 110.363 64.7591C110.568 64.8455 110.773 64.9353 110.974 65.0286C111.007 65.0431 111.043 65.0611 111.075 65.0753C111.201 65.1328 111.326 65.1939 111.449 65.2622C114.677 66.8727 117.035 69.3529 118.588 72.6384C119.907 75.4242 120.654 78.44 121.603 81.3733C122.743 86.8443 124.105 93.5626 125.241 99.235C125.647 101.266 126.021 103.16 126.348 104.817C126.388 105.008 126.424 105.199 126.463 105.385C126.481 105.489 126.503 105.59 126.521 105.691C126.528 105.723 126.532 105.752 126.539 105.781C126.898 107.625 127.186 109.106 127.358 110.044C128.473 116.108 127.614 119.914 127.304 126.108L127.305 126.109Z" fill="#B89856"/>
<path d="M155.994 111.687C155.994 111.694 155.99 111.698 155.99 111.705C155.915 112.507 155.71 113.326 155.329 114.167C154.063 116.975 131.267 138.952 122.568 148.136C122.097 148.632 121.59 148.941 121.069 149.103C120.526 149.696 119.857 150.171 119.03 150.437C118.552 150.595 118.092 150.671 117.653 150.681C116.669 150.93 115.587 150.836 114.537 150.293C112.233 149.1 111.568 146.357 110.745 144.093C108.591 139.808 106.902 134.89 107.678 130.185C107.865 129.053 108.293 128.057 108.918 127.259C108.753 126.281 108.987 125.224 109.828 124.286C115.346 118.179 120.86 112.068 126.378 105.957C128.955 103.1 131.471 100.163 134.228 97.4777C136.141 95.6156 138.941 92.5495 141.885 92.2942C142.111 92.2726 142.341 92.2725 142.571 92.287C144.908 91.9778 147.388 93.7824 148.959 95.6048C151.09 98.0778 152.614 100.9 153.901 103.883C155.027 106.489 156.238 109.006 155.994 111.687L155.994 111.687Z" fill="#B89856"/>
<path d="M155.996 111.687C155.996 111.694 155.993 111.698 155.993 111.705C155.062 117.122 152.193 112.974 148.631 107.301C147.373 105.296 146.025 103.103 144.648 101.072C143.491 99.3646 142.535 97.8656 141.884 96.6038C140.705 94.332 140.511 92.833 141.887 92.2938C142.114 92.2721 142.344 92.2721 142.574 92.2866C143.174 92.2074 143.785 92.2685 144.389 92.4338C146.125 92.9083 147.793 94.2528 148.962 95.6043C151.093 98.0773 152.617 100.899 153.904 103.883C153.962 104.012 154.016 104.142 154.073 104.271C155.144 106.74 156.23 109.138 155.996 111.686V111.687Z" fill="black"/>
<path d="M175.324 78.3003C175.27 81.2372 175.219 84.3322 174.669 87.2221C174.213 89.6126 172.638 90.6622 170.467 90.9533C170.226 90.9891 169.978 91.0108 169.723 91.0252C169.727 91.0288 169.727 91.0324 169.723 91.0324C169.673 91.2913 169.623 91.5572 169.562 91.8089C169.022 94.0446 167.304 95.0475 165.428 95.9642C164.845 96.3632 164.263 96.7621 163.685 97.1613C163.228 97.4955 162.771 97.8299 162.319 98.1678C160.298 99.6668 158.339 101.255 156.301 102.733C155.571 103.261 154.827 103.779 154.072 104.271C153.774 104.465 153.476 104.652 153.174 104.839C152.394 105.317 150.183 106.766 148.63 107.302C147.372 105.296 146.024 103.103 144.647 101.072C143.49 99.3648 142.534 97.8658 141.883 96.604C141.93 95.6298 143.698 93.5629 144.388 92.4342C144.475 92.294 144.547 92.1648 144.593 92.0567C145.758 89.3896 147.39 86.9452 149.46 84.8675C151.171 83.1493 156.401 78.2031 158.871 80.863C160.309 82.4087 158.814 84.6625 157.965 86.0968C157.785 86.3988 157.598 86.6971 157.408 86.9919C157.329 87.1141 157.25 87.2363 157.167 87.355C156.898 87.7647 156.614 88.1709 156.326 88.5736C156.581 88.4586 156.833 88.3436 157.088 88.2286C159.141 87.2941 161.19 86.3595 163.242 85.432C163.314 85.3961 163.389 85.3637 163.461 85.3314C163.645 85.2487 163.832 85.1625 164.015 85.0797C164.029 85.0725 164.04 85.0689 164.054 85.0617L164.255 83.2177C164.421 81.7331 164.583 80.2485 164.748 78.7604C164.863 77.6856 164.852 76.4094 165.391 75.439C166.229 73.9219 168.17 73.4691 169.414 74.4756C169.421 74.4503 169.428 74.4289 169.435 74.4036C169.504 74.1736 169.59 73.94 169.694 73.7063C170.036 72.9443 170.564 72.2073 171.211 71.7401C171.272 71.6717 171.33 71.6034 171.394 71.5387C172.178 70.7083 173.224 70.9203 173.871 71.589C173.893 71.5998 173.914 71.6106 173.936 71.625C175.938 72.876 175.356 76.3663 175.324 78.3003Z" fill="#FFA370"/>
<path d="M126.345 104.818C126.018 103.161 125.644 101.266 125.238 99.2353C124.152 98.5594 123.157 97.7362 122.276 96.7909C120.558 94.9396 119.321 92.7075 118.239 90.4429C118.207 90.3781 118.171 90.3243 118.128 90.2848C118.02 90.1806 117.883 90.1517 117.751 90.1734C117.639 90.087 117.499 90.0439 117.362 90.0439C117.506 90.9676 117.653 91.9238 117.794 92.9089C118.602 98.4985 119.516 104.803 120.439 111.116C120.68 111.209 120.982 111.137 121.122 110.85C121.137 110.825 121.752 110.702 121.763 110.677C121.972 109.735 122.399 109.146 123.067 108.524C123.937 107.715 124.807 106.906 125.673 106.098C125.932 105.857 126.194 105.62 126.461 105.386C126.421 105.199 126.385 105.008 126.346 104.818L126.345 104.818Z" fill="black"/>
<path d="M171.288 85.7913C170.95 87.9193 170.684 89.6088 170.468 90.9531C170.227 90.989 169.979 91.0106 169.724 91.0251C169.947 89.6519 170.224 87.9051 170.576 85.6763C171.924 77.1751 170.141 74.9357 169.437 74.4037C169.505 74.1737 169.591 73.9401 169.695 73.7064C170.572 74.2456 172.751 76.5497 171.288 85.7913Z" fill="black"/>
<path d="M156.326 88.5737C156.582 88.4587 156.833 88.3436 157.088 88.2286C154.748 89.4904 151.675 89.8749 151.535 89.8965H151.492C151.312 89.8965 151.157 89.7635 151.132 89.5801C151.11 89.386 151.251 89.2062 151.448 89.1812C151.484 89.1776 154.924 88.7426 157.168 87.3552C156.898 87.765 156.614 88.1709 156.326 88.5737Z" fill="black"/>
<path d="M164.015 85.0797C163.555 88.8756 162.641 90.2668 162.602 90.3279C162.534 90.4321 162.419 90.486 162.304 90.486C162.235 90.486 162.163 90.4679 162.102 90.4249C161.94 90.3171 161.894 90.0943 162.005 89.9287C162.009 89.9215 162.253 89.5368 162.548 88.6383C162.778 87.923 163.044 86.8771 163.242 85.432C163.314 85.3961 163.389 85.3636 163.461 85.3314C163.644 85.2486 163.831 85.1625 164.015 85.0797Z" fill="black"/>
<path d="M162.108 89.8562C162.3 89.8548 162.5 89.7477 162.587 89.5872C163.317 88.2752 163.608 86.8123 163.461 85.3313C161.266 86.3255 159.075 87.3231 156.882 88.3206C158.752 88.3149 160.87 88.8582 162.108 89.8562Z" fill="black"/>
<path d="M105.727 106.611V106.59C105.587 103.944 105.407 101.309 105.184 98.6742C105.188 98.6706 105.184 98.667 105.184 98.667C105.152 98.2356 105.116 97.808 105.076 97.3802V97.3622C105.062 97.2041 105.048 97.0422 105.033 96.8877C105.031 96.8853 105.031 96.8841 105.033 96.8841C104.742 93.6058 104.386 90.3455 103.973 87.0961C103.7 84.9789 103.358 82.8616 102.873 80.7875C102.79 80.4244 102.704 80.0686 102.61 79.7091V79.7055C102.125 77.8256 101.518 75.9885 100.734 74.2272V74.2236C100.633 73.9936 100.529 73.7672 100.421 73.5408C99.3355 71.2439 97.9374 69.0907 96.122 67.1675C92.168 62.9727 89.8098 60.327 85.6544 59.2485C85.5611 59.2197 85.4638 59.1946 85.3669 59.1766C84.231 58.8999 82.9587 58.7416 81.4847 58.6949C79.6767 58.6374 75.5069 58.9249 71.8224 59.6258C71.808 59.6258 71.7972 59.6294 71.783 59.633C69.0295 60.1578 66.5528 60.9162 65.5464 61.9299C62.9547 64.5468 64.8058 69.9853 64.033 73.4075C63.6771 74.9712 63.3248 76.5383 62.9762 78.102C62.9151 78.3718 62.8539 78.6413 62.7964 78.9074C62.7498 79.1157 62.7031 79.3244 62.6564 79.5327C62.563 79.9497 62.4731 80.3631 62.3797 80.7764V80.78C61.2977 85.676 60.2482 90.5753 59.2739 95.4926C59.2164 95.7802 59.1589 96.0713 59.1014 96.3588C59.0942 96.3983 59.087 96.438 59.0764 96.4775V96.4811C57.3832 105.115 55.9455 113.796 54.921 122.535C54.806 123.509 54.6693 124.58 54.5399 125.705C54.069 129.839 53.7312 134.724 55.1724 138.455C56.1395 140.953 57.9007 142.934 60.9563 143.826C61.1863 143.894 61.4199 143.955 61.6644 144.009C62.7284 144.246 63.7492 144.052 64.5615 143.52C66.6139 143.491 68.6666 143.437 70.719 143.351C70.9348 143.344 71.1541 143.337 71.3696 143.326C76.4237 143.11 81.4741 142.722 86.5028 142.154C87.1248 142.082 87.7502 142.01 88.3722 141.935C91.636 141.543 94.889 141.083 98.1315 140.554C98.6924 140.461 99.2853 140.393 99.882 140.314C101.162 140.134 102.467 139.9 103.531 139.278C105.497 138.124 105.86 136.155 105.939 134.055C105.961 133.466 105.982 132.876 105.997 132.287C106.27 123.764 106.194 115.173 105.727 106.611L105.727 106.611Z" fill="#F0DED7"/>
<path d="M84.3496 111.099C84.0447 111.526 83.7514 111.962 83.4699 112.405C82.884 113.327 82.3426 114.276 81.8171 115.233C80.788 117.108 79.8177 119.016 78.6871 120.833C77.4251 122.86 75.9441 124.74 74.4973 126.636C73.1631 128.385 71.5866 130.116 70.7291 132.164C70.2478 133.314 70.1021 134.544 69.9959 135.776C69.8771 137.157 69.7972 138.541 69.7493 139.926C69.7349 140.347 70.2146 140.582 70.5606 140.392C71.473 139.891 72.1119 139.088 72.7327 138.275C73.4396 137.349 74.1268 136.409 74.7949 135.455C76.1 133.591 77.3319 131.676 78.4929 129.72C80.8369 125.77 82.2808 121.457 84.025 117.206C84.3678 116.37 84.9205 114.227 85.3045 112.522C84.947 112.074 84.6241 111.599 84.3496 111.099Z" fill="black"/>
<path d="M71.1775 78.732C71.1135 78.732 71.0589 78.7219 71.0125 78.7073C70.8233 78.6471 70.7187 78.445 70.7786 78.2556C70.832 78.0879 70.9981 77.9888 71.1655 78.0078C71.2817 77.9782 72.5459 77.5138 74.9799 71.2255C76.3008 67.8131 77.8109 65.7629 79.4687 65.132C80.5235 64.73 81.244 65.0889 81.2738 65.1043L81.3159 65.1299C81.5712 65.3084 87.5927 69.553 90.5323 73.972C90.6422 74.1371 90.5972 74.3604 90.4319 74.4704C90.2669 74.5798 90.0436 74.5356 89.9334 74.3703C87.1661 70.2099 81.371 66.0507 80.9297 65.7372C80.8392 65.7006 80.3789 65.5432 79.6889 65.818C78.6944 66.2136 77.1863 67.5177 75.6505 71.4851C73.1999 77.8155 71.7884 78.7323 71.1775 78.7323V78.732ZM71.2295 78.0218H71.2302C71.2302 78.0218 71.23 78.0218 71.2295 78.0218ZM71.2288 78.0218C71.2288 78.0218 71.2293 78.0218 71.2295 78.0218C71.2295 78.0218 71.2293 78.0218 71.2288 78.0218Z" fill="black"/>
<path d="M90.2319 143.966C90.2221 143.966 90.212 143.966 90.2021 143.965C90.0041 143.949 89.8571 143.775 89.8732 143.577C90.8566 131.661 85.3411 101.439 85.2853 101.135C85.2494 100.94 85.3786 100.753 85.5738 100.717C85.772 100.682 85.9563 100.81 85.9922 101.005C86.0482 101.31 91.5806 131.626 90.59 143.636C90.5741 143.824 90.4172 143.966 90.2319 143.966V143.966Z" fill="black"/>
<path d="M87.3311 144.294C87.3212 144.294 87.3111 144.293 87.3013 144.292C87.1032 144.276 86.9562 144.102 86.9723 143.905C87.9557 131.989 82.4397 101.767 82.3839 101.463C82.3481 101.268 82.4773 101.08 82.6724 101.044C82.8719 101.009 83.055 101.138 83.0908 101.333C83.1469 101.638 88.6797 131.953 87.6891 143.964C87.6732 144.151 87.5164 144.294 87.3311 144.294Z" fill="black"/>
<path d="M127.755 164.099C127.191 159.027 126.576 153.963 125.911 148.901C125.75 147.661 125.584 146.425 125.415 145.185C125.099 142.855 124.772 140.526 124.434 138.197V138.193C123.197 129.667 121.821 121.162 120.311 112.679C120.304 112.625 120.293 112.571 120.282 112.517C120.235 112.24 120.185 111.963 120.135 111.687C117.28 95.7663 114.487 79.7092 109.304 64.3496C109.128 64.2884 108.952 64.2273 108.776 64.1698C108.6 64.1123 108.424 64.0548 108.247 64.0009C108.068 63.947 107.888 63.8931 107.705 63.8428C107.525 63.7925 107.345 63.7459 107.166 63.6953C106.864 63.6162 106.558 63.5409 106.256 63.4689C105.95 63.397 105.645 63.3323 105.336 63.2639C103.765 62.9261 102.172 62.66 100.591 62.3472C100.095 62.2466 99.6024 62.1316 99.1135 62.0094C98.7684 61.9266 98.4234 61.8369 98.0783 61.7433C97.9956 61.7216 97.9166 61.7002 97.8339 61.6785C97.0863 60.5068 96.2629 59.3781 95.3715 58.3141C92.6971 55.2011 88.0492 51.0243 85.6265 51.1465C85.5618 51.1502 85.5007 51.1538 85.4395 51.1646C83.5202 51.4593 84.5698 56.3839 85.0406 58.0949C85.0873 58.2674 85.2132 58.6772 85.3676 59.1769C85.4682 59.5005 85.5798 59.86 85.6948 60.2195C85.9285 60.9598 86.1621 61.6896 86.2771 62.031C87.3844 65.2518 88.6279 74.1556 89.293 77.2217C91.5792 87.7468 93.585 98.3329 95.3607 108.958C95.871 112.014 96.3635 115.073 96.838 118.136L97.0322 119.397C97.4492 122.111 97.8517 124.829 98.24 127.546C98.5311 129.577 98.8045 131.612 99.0668 133.65C99.3507 135.868 99.6204 138.089 99.8827 140.314C101.321 152.45 102.575 164.614 104.98 176.57C105.199 177.673 106.353 178.895 107.489 179.079C112.284 179.848 116.997 176.476 121.227 173.752C122.162 173.151 123.072 172.58 123.956 172.094C125.128 171.451 126.346 170.761 127.083 169.643C127.737 168.651 127.917 167.472 127.91 166.264C127.906 165.541 127.834 164.808 127.755 164.1L127.755 164.099Z" fill="#B89856"/>
<path d="M73.273 90.1011C73.3377 95.536 73.2766 100.967 73.1147 106.399C73.1039 106.827 73.0897 107.258 73.0752 107.689C73.068 107.675 73.0608 107.661 73.0535 107.646C73.0535 107.689 73.05 107.736 73.05 107.779C72.9277 111.601 72.7552 115.414 72.5432 119.228V119.232C72.5038 119.983 72.4571 120.731 72.4138 121.482V121.486C72.1621 125.655 71.8673 129.821 71.5295 133.988C71.454 134.919 71.3787 135.853 71.2995 136.784C71.1162 138.973 70.922 141.162 70.7172 143.352C69.5491 155.943 68.1076 168.517 66.6661 181.07C66.6014 181.616 66.4541 182.141 66.231 182.612C65.9685 184.571 64.2756 186.411 61.7954 185.8C55.1132 184.154 48.4738 182.346 41.8813 180.376C39.8072 179.757 37.7368 179.125 35.6733 178.474C34.1348 177.989 32.6 177.496 31.0649 176.993C30.8385 176.921 30.6084 176.846 30.382 176.767C30.3712 176.767 30.3604 176.763 30.3495 176.76C30.2273 176.72 30.1015 176.677 29.9792 176.637C29.2136 176.386 28.4516 176.131 27.6896 175.875C25.7736 175.232 25.0619 173.535 25.2344 171.957C25.1733 171.67 25.1447 171.357 25.1589 171.019C25.4608 163.661 25.9928 156.314 26.7332 148.984C26.7548 148.786 26.7727 148.592 26.7943 148.395C27.621 140.321 28.6886 132.287 29.9396 124.279C32.6823 106.658 36.2984 89.1773 40.1626 71.7615C40.4359 70.5322 39.76 69.7702 40.5257 69.4179C40.5545 69.3999 40.5868 69.3891 40.6227 69.3749C40.6621 69.3532 40.7807 69.3029 40.946 69.2346C41.1474 69.1554 41.4241 69.0512 41.7225 68.9362H41.7261C42.5134 68.6343 43.4587 68.2892 43.6168 68.2389C48.0022 66.8694 51.7405 66.1829 56 64.8887C56.4026 64.7701 56.8088 64.6406 57.2221 64.5076C57.233 64.5039 57.2438 64.5003 57.2546 64.4967C57.2977 64.4823 57.341 64.4681 57.3841 64.4537C58.8506 62.7282 63.5776 57.3075 65.0369 56.1105C67.9091 53.7525 70.0621 51.4015 72.6539 50.5353C72.6611 50.5317 72.6647 50.5317 72.6719 50.5281C75.023 49.748 72.8303 54.5395 71.8199 59.626C71.7983 59.7266 71.7805 59.8238 71.7589 59.9244V59.9388C71.7733 60.1258 71.7913 60.3128 71.8055 60.5031V60.5067C72.5603 69.9605 73.1787 81.7365 73.2721 90.1011H73.273Z" fill="#B89856"/>
<path d="M72.5454 119.228V119.232C72.5059 119.983 72.4592 120.731 72.4159 121.482C71.7186 118.527 70.4138 115.364 68.825 112.226C65.8739 106.385 61.9342 100.63 59.0765 96.4815V96.4779C59.0262 96.406 58.9795 96.3343 58.929 96.2623C56.3013 92.4412 54.9247 90.4068 54.8456 89.5154C54.6478 87.3441 59.6298 82.3478 62.6565 79.5332C62.6745 79.5151 62.6924 79.5009 62.7104 79.4829C62.8218 79.3751 62.8757 79.2276 62.8579 79.0731C62.8507 79.0156 62.829 78.9581 62.7968 78.9078C62.7573 78.8287 62.6926 78.7639 62.6062 78.7173C55.23 74.8567 51.7075 72.157 52.1423 70.6941C52.5557 69.2959 54.5508 66.6754 56.0029 64.8889C56.4055 64.7703 56.8116 64.6408 57.2249 64.5078C57.2358 64.5042 57.2466 64.5006 57.2574 64.4969C55.8843 66.1432 53.2783 69.3929 52.8324 70.8989C52.5915 71.7148 55.6218 74.2527 62.9404 78.0809C62.9513 78.0881 62.9655 78.0953 62.9763 78.1025C63.2999 78.2858 63.5227 78.6092 63.5694 78.9795C63.6197 79.3607 63.483 79.7452 63.1991 80.0077C62.9188 80.2666 62.6454 80.5252 62.3796 80.7769V80.7805C58.0373 84.9108 55.4456 88.1925 55.5606 89.4507C55.6254 90.166 57.2933 92.614 59.274 95.4931C59.3565 95.6117 59.4393 95.7303 59.5221 95.8526C62.5162 100.206 66.4093 105.867 69.3568 111.64C70.6544 114.181 71.7725 116.748 72.5454 119.228Z" fill="black"/>
<path d="M108.766 86.6107C108.766 88.0664 107.213 92.9804 105.186 98.667C105.186 98.667 105.189 98.6706 105.186 98.6742C105.164 98.7389 105.139 98.8037 105.117 98.8684C102.375 106.554 98.7982 115.583 97.0331 119.397L96.8389 118.135C98.859 113.599 102.457 104.278 105.035 96.8877C105.032 96.8853 105.032 96.8841 105.035 96.8841C105.042 96.8518 105.053 96.823 105.067 96.7943C106.789 91.8375 108.047 87.7611 108.047 86.6107C108.047 85.6223 107.033 84.3103 105.473 82.8976C104.718 82.2076 103.834 81.4958 102.874 80.7875C101.26 79.5904 99.4307 78.397 97.6442 77.3366C97.3889 77.1858 97.2272 76.9197 97.2092 76.6249C97.1914 76.3266 97.3206 76.0426 97.5578 75.8629C98.6937 74.9931 99.6427 74.2167 100.423 73.5408C102.321 71.8945 103.194 70.8411 103.173 70.4961C103.122 69.6191 100.132 64.8345 98.0792 61.7432C98.4243 61.8368 98.7693 61.9265 99.1143 62.0093C100.621 64.3025 103.823 69.3099 103.892 70.4566C103.931 71.1361 102.874 72.3976 100.736 74.2239V74.2275C99.9627 74.8889 99.0496 75.6257 97.9929 76.4346C97.9318 76.4813 97.9245 76.546 97.9245 76.5818C97.9281 76.6143 97.9426 76.6788 98.0109 76.7185C99.1755 77.4122 100.89 78.4762 102.612 79.7057V79.7093C103.615 80.421 104.621 81.1939 105.52 81.9775C107.371 83.588 108.766 85.2559 108.766 86.611L108.766 86.6107Z" fill="black"/>
<path d="M86.5739 92.4162C86.3187 89.3679 86.0023 86.3232 85.6286 83.2893C85.438 81.7653 85.2333 80.2447 85.0138 78.7242C84.8197 77.3799 84.6399 76.0246 84.2949 74.7056C84.0935 73.9327 83.8313 73.1707 83.4898 72.4482C83.3462 72.1462 83.1878 71.8478 83.0117 71.5639C83.0081 71.5531 83.0009 71.5423 82.9937 71.5314C83.2309 70.8592 83.4682 70.1905 83.7054 69.5185C83.9605 68.8068 84.4674 67.9333 84.0038 67.2108C83.824 66.9305 83.5221 66.7327 83.2668 66.5243C82.9612 66.2763 82.652 66.0318 82.3431 65.791C81.7213 65.3092 81.049 64.63 80.1826 64.86C79.7226 64.8853 79.0503 65.1548 78.6836 65.4531C77.7743 66.1937 77.1452 67.0096 76.5198 68.0017C76.1748 68.6056 76.1209 68.8931 76.3651 69.2776C76.7426 69.8744 77.1379 70.4602 77.5549 71.0281C77.7635 71.312 77.9755 71.5925 78.1911 71.8693C78.3492 72.0706 78.5039 72.2682 78.6908 72.4301V72.574C78.6872 72.8724 78.6872 73.1743 78.6836 73.4727C78.6189 78.7926 78.1947 84.1055 77.386 89.3645C76.9332 92.2834 76.3687 95.1842 75.6967 98.0599C75.3622 99.4798 75.0388 100.936 74.6291 102.359C74.399 103.179 74.1366 103.984 73.831 104.771C73.6298 105.299 73.4068 105.817 73.1587 106.32C73.1443 106.345 73.1335 106.374 73.1193 106.399C72.1559 108.337 70.8044 110.034 69.3593 111.64C69.1831 111.838 69.007 112.032 68.8272 112.226C68.6258 112.446 68.4211 112.661 68.2197 112.877C66.2212 115.009 64.111 117.029 61.9614 119.002C59.7723 121.015 57.5508 122.996 55.3401 124.987C55.0739 125.228 54.8081 125.469 54.542 125.706C54.2617 125.961 53.9777 126.216 53.6972 126.468C53.1938 126.921 52.6549 127.36 52.2054 127.87C51.2348 128.974 51.0659 130.383 50.7783 131.774C50.1527 134.782 49.5274 137.795 48.9054 140.803C48.6574 141.993 48.3304 143.323 49.024 144.387C49.0815 144.484 49.1535 144.578 49.2324 144.667C50.0197 145.58 51.3282 145.649 52.4388 145.505C53.9017 145.311 55.3576 144.987 56.8027 144.7C58.1903 144.423 59.5741 144.132 60.9581 143.826C61.0803 143.798 61.2062 143.773 61.3284 143.744C62.6619 143.449 63.9308 143.097 64.9767 142.173C65.9904 141.274 66.7885 140.088 67.6261 139.031C68.2156 138.291 68.7979 137.543 69.3766 136.796C70.1027 135.865 70.8217 134.93 71.5334 133.988C73.8519 130.933 76.1129 127.831 78.3056 124.685C81.4759 120.142 84.8551 115.454 86.2316 110.001C87.6731 104.286 87.0583 98.2147 86.573 92.4167L86.5739 92.4162Z" fill="#C42F43"/>
<path d="M83.4886 72.4482C81.2743 71.6251 79.513 72.7538 78.6826 73.4727C78.6862 73.1743 78.6862 72.8724 78.6898 72.574C79.6424 71.8912 81.1701 71.1614 83.0105 71.5639C83.1866 71.8479 83.345 72.1462 83.4886 72.4482Z" fill="black"/>
<path d="M71.4318 143.398C70.0048 157.263 67.1831 179.003 66.5936 182.669C66.288 184.553 65.5583 185.8 64.4262 186.375C63.9157 186.631 63.3872 186.72 62.8986 186.72C61.8921 186.72 61.0509 186.343 60.8676 186.257C56.1083 184.876 49.7709 183.072 45.5474 181.94C45.303 181.875 45.0657 181.814 44.8357 181.753C43.5631 181.415 42.5316 181.156 41.8594 181.005C41.8702 180.771 41.881 180.538 41.8919 180.304C42.4814 180.423 43.4089 180.642 44.8826 181.027C45.1054 181.084 45.3427 181.145 45.5944 181.21C48.5312 181.983 53.3083 183.313 61.1015 185.574L61.1626 185.599C61.1806 185.606 62.7802 186.404 64.1031 185.732C65.0198 185.265 65.6199 184.197 65.8824 182.554C66.4719 178.906 69.2865 157.205 70.7134 143.348C70.9506 143.409 71.1951 143.427 71.4323 143.398L71.4318 143.398Z" fill="black"/>
<path d="M41.1609 180.825L41.1592 180.826L41.1609 180.825Z" fill="black"/>
<path d="M121.318 174.391C119.118 175.541 115.365 177.439 111.224 179.276C110.293 179.689 109.434 179.894 108.654 179.894C107.906 179.894 107.231 179.707 106.634 179.327C104.139 177.741 103.949 173.42 103.935 173.022L99.2939 142.288C99.5348 142.237 99.7684 142.147 99.9804 142.018L104.653 172.978C104.657 173.022 104.783 177.303 107.019 178.719C108.025 179.359 109.341 179.323 110.933 178.619C115.207 176.728 119.06 174.765 121.21 173.633C121.246 173.888 121.282 174.14 121.318 174.391V174.391Z" fill="black"/>
<path d="M126.064 144.52L125.438 145.159C125.194 143.513 124.874 141.346 124.497 138.786C124.471 138.606 124.443 138.423 124.414 138.24C123.418 131.46 122.049 122.136 120.668 112.682C120.661 112.628 120.65 112.571 120.643 112.517C120.636 112.459 120.625 112.398 120.618 112.341V112.337C120.557 111.931 120.499 111.525 120.442 111.115C119.518 104.803 118.605 98.4979 117.796 92.9083C117.656 91.9235 117.508 90.9673 117.365 90.0433H117.361C114.974 75.0107 111.962 67.7604 110.362 64.759C110.567 64.8454 110.772 64.9352 110.973 65.0285C111.006 65.043 111.042 65.061 111.074 65.0752C111.2 65.1327 111.326 65.1938 111.448 65.2622C113.17 68.7669 115.913 76.1286 118.13 90.2842C118.256 91.1037 118.382 91.9449 118.508 92.8075C119.309 98.3432 120.215 104.591 121.125 110.849C121.164 111.115 121.204 111.381 121.243 111.647C121.261 111.762 121.276 111.873 121.294 111.988C122.631 121.133 123.961 130.209 124.96 137.021V137.025C124.992 137.233 125.025 137.434 125.053 137.639C125.456 140.375 125.805 142.719 126.063 144.519L126.064 144.52Z" fill="black"/>
<path d="M80.6903 90.3709C80.5395 90.8309 77.3976 100.346 73.8281 104.771C74.1337 103.984 74.3962 103.179 74.6262 102.359C77.545 97.5961 79.975 90.2453 80.0072 90.1481C80.0683 89.9575 80.2695 89.8533 80.4601 89.918C80.6506 89.9791 80.7515 90.1839 80.6903 90.3709Z" fill="black"/>
<path d="M29.1214 124.196C24.2702 123.965 19.7174 125.666 16.0324 128.532C11.4863 143.291 7.28136 158.179 5.2494 173.522C4.96139 175.697 4.47056 178.031 4.68759 180.222C4.92194 182.586 6.31607 184.167 8.10501 185.577C10.4132 187.395 12.9744 188.835 15.7133 189.833C17.612 190.646 19.7056 191.294 21.6644 191.337C22.2729 191.35 22.8258 191.274 23.3289 191.128C23.9032 191.117 24.4853 190.964 25.0317 190.651C26.534 189.79 27.4202 188.507 27.9253 187.04C28.0162 186.826 28.0956 186.599 28.1517 186.345C30.0037 177.993 31.9899 169.669 34.3154 161.434C36.5944 153.364 39.33 145.448 41.9834 137.496C42.2917 136.573 42.5982 135.646 42.9016 134.716C42.6494 134.076 42.3725 133.444 42.0621 132.823C39.5458 128.15 34.5132 124.556 29.1214 124.196Z" fill="#B89856"/>
<path d="M50.1087 90.0869C49.697 85.7701 48.9321 81.4721 47.5936 77.3423C46.9502 75.3572 46.3482 73.013 44.8963 71.4519C44.4741 70.9978 44.0116 70.6485 43.527 70.3901C42.2448 69.2301 40.2391 68.8559 38.6369 70.4009C38.3347 70.6923 38.0438 70.9909 37.7582 71.2933C36.8768 72.0508 36.1654 72.9333 35.5708 73.9056C34.3572 75.5396 33.3182 77.2867 32.3988 79.1038C32.2403 79.291 32.1058 79.501 32.0052 79.7368C31.7747 80.2772 31.5497 80.8198 31.3279 81.3631C30.3561 83.564 29.5295 85.8435 28.773 88.1406C27.0616 93.0274 25.5578 97.9866 24.0135 102.936C21.5846 110.72 19.1455 118.501 16.7288 126.289C16.4969 127.036 16.2664 127.784 16.0361 128.532C16.6639 139.288 19.3498 146.544 25.6504 148.152C36.0749 150.812 38.1116 139.288 42.9051 134.717C47.5987 120.341 51.5608 105.316 50.1089 90.0872L50.1087 90.0869Z" fill="#B89856"/>
<path d="M29.6623 199.974C29.5365 201.052 29.1662 202.54 28.6667 203.493C28.3289 204.133 28.0988 204.456 27.6207 204.913C27.121 204.826 26.6574 204.539 26.359 204.061C26.0031 203.486 25.8054 202.767 25.6365 202.03C25.6293 201.994 25.6148 201.965 25.6078 201.929C25.5789 201.785 25.5467 201.642 25.5178 201.498C25.3814 200.858 25.2447 200.222 25.0253 199.668C24.932 199.435 24.2813 197.9 23.6449 196.767C23.4041 196.336 22.7751 196.372 22.5845 196.828C21.4917 199.488 20.4349 202.256 21.2294 205.006C21.6356 206.408 20.7586 207.878 19.1626 207.702C18.2459 207.598 17.4119 207.282 16.7074 206.811C16.6499 206.771 16.5852 206.742 16.5168 206.728C16.3371 206.681 16.1357 206.724 15.9921 206.857C15.931 206.915 15.8662 206.969 15.8015 207.019C15.6434 207.145 15.4745 207.253 15.2912 207.339C14.3494 207.781 13.2459 207.72 12.3473 207.213C12.2106 207.134 12.0778 207.048 11.9518 206.951C11.8331 206.861 11.6895 206.825 11.5456 206.843H11.542C11.427 206.854 11.3156 206.9 11.2256 206.983C11.1286 207.073 11.0278 207.156 10.92 207.231C10.6433 207.433 10.3269 207.591 9.96384 207.684C8.83514 207.975 7.71362 207.526 6.89747 206.746C6.79328 206.649 6.66382 206.591 6.52715 206.584C6.41575 206.573 6.30438 206.599 6.20019 206.656C6.07435 206.728 5.9449 206.793 5.81208 206.85C5.25146 207.109 4.63671 207.257 3.97167 207.257C1.22895 207.249 0.0246538 204.683 0.32662 202.26C0.714724 199.143 1.77535 195.977 2.49405 192.925C3.16632 190.082 3.7558 187.199 4.64004 184.413C4.64365 184.323 4.65451 184.233 4.66894 184.136C5.34482 180.452 10.413 181.526 13.0802 181.861C15.7799 182.198 19.2844 182.615 21.8043 184.093C21.8509 184.118 21.9012 184.14 21.9554 184.15C25.309 184.909 27.5988 188.151 29.0043 191.088C29.0942 191.271 29.1696 191.458 29.256 191.645C29.4788 192.957 29.6405 194.269 29.7268 195.606C29.8238 197.059 29.8274 198.525 29.6621 199.974L29.6623 199.974Z" fill="#FFA370"/>
<path d="M46.6431 110.526C46.1614 114.333 45.5538 118.384 44.8135 122.676C44.0623 126.256 43.2392 129.872 42.3763 133.477C42.1788 134.308 41.9738 135.142 41.7724 135.972C41.0462 138.93 40.2987 141.874 39.5439 144.779C38.2427 149.779 36.927 154.66 35.676 159.287C33.8139 166.174 32.1822 172.231 31.0677 176.994C30.8412 176.922 30.6112 176.846 30.3848 176.767C31.4812 172.08 33.0772 166.156 34.8924 159.427C34.9246 159.319 34.9535 159.208 34.9822 159.1C36.8154 152.32 38.7924 144.998 40.6401 137.55C41.0607 135.868 41.4704 134.178 41.873 132.485C42.6636 129.164 43.4187 125.839 44.1087 122.542C44.6407 119.447 45.0972 116.529 45.4819 113.775C49.2166 87.1071 46.3303 75.9998 43.0339 71.3986C42.4552 70.5899 41.8224 69.9176 41.136 69.382C41.0749 69.3281 41.0137 69.2814 40.949 69.2348C41.1504 69.1556 41.4271 69.0514 41.7255 68.9364H41.7291C42.038 69.1881 42.3366 69.4648 42.6205 69.7704C42.9692 70.137 43.2998 70.5396 43.6162 70.9818C48.1562 77.3154 49.1661 90.5904 46.6428 110.526L46.6431 110.526Z" fill="black"/>
<path d="M46.6825 107.542C46.6717 108.038 46.6573 109.261 46.6431 110.526C46.6286 111.921 46.6142 113.362 46.6 113.912C46.4742 114.969 46.3447 116.026 46.2047 117.083C44.7632 127.96 42.6066 138.722 40.5217 149.488C38.656 159.103 36.848 168.744 35.676 178.475C34.1376 177.989 32.6027 177.497 31.0677 176.994C30.8412 176.922 30.6112 176.847 30.3848 176.767C31.4812 172.08 33.0772 166.156 34.8924 159.427C34.9246 159.319 34.9535 159.208 34.9822 159.1C36.8154 152.32 38.7924 144.998 40.6401 137.55C41.0607 135.868 41.4704 134.179 41.873 132.485C42.6636 129.164 43.4187 125.839 44.1087 122.543C44.6407 119.448 45.0972 116.529 45.4819 113.776C45.9347 112.801 46.3303 108.571 46.6825 107.543V107.542Z" fill="black"/>
<path d="M85.2562 62.4802C84.9256 62.9905 84.415 63.3681 83.8652 63.6342C80.5294 65.2482 76.4496 64.4392 73.5127 62.2899C73.0669 61.9629 72.6465 61.607 72.2582 61.2223C72.1179 61.082 71.9779 60.9348 71.8915 60.7514C71.5859 60.1189 71.9023 59.0943 71.9418 58.4043C71.9921 57.6278 72.0748 56.8514 72.1429 56.0785C72.2904 54.4106 72.4485 52.7391 72.6066 51.0712C72.8474 48.5335 73.0919 45.9957 73.3039 43.4542C73.3219 43.2205 73.34 42.9905 73.3578 42.7605C73.3972 42.2968 73.4333 41.8296 73.4656 41.3657C73.7928 36.9659 74.8746 38.5296 79.0299 38.5007C80.7445 38.4863 82.5563 39.0508 83.782 40.4023C84.3426 41.017 84.7418 41.7502 85.0221 42.5411C85.4535 43.7561 85.6007 45.1113 85.6079 46.4017C85.6152 47.6023 85.6188 48.8029 85.6224 50.0033C85.6296 51.4088 85.6297 52.818 85.6333 54.2234V54.4857C85.6369 55.8875 85.6404 57.2895 85.6404 58.6913C85.6404 59.8703 85.9172 61.4557 85.2557 62.48L85.2562 62.4802Z" fill="#FFA370"/>
<path d="M87.1516 22.2459C84.2087 20.2823 80.0675 20.5357 76.7649 23.853C72.6998 27.9361 74.4656 33.3749 75.5844 38.2627C76.0418 40.2616 76.4374 42.3499 77.3599 44.1997C78.1441 45.7723 79.4013 47.0642 80.766 48.146C82.0754 49.1837 83.8896 49.722 85.5474 49.9871C93.8872 51.3213 93.6038 39.3512 92.4368 34.0705C91.6498 30.5087 90.8734 24.7295 87.1516 22.2459Z" fill="#FFA370"/>
<path d="M95.547 23.6587C95.68 24.9097 94.9861 26.1245 93.933 26.7645C92.9337 27.3685 91.7223 27.4582 90.5936 27.2929C90.5397 27.124 90.4713 26.9551 90.3743 26.7968C90.3096 26.6926 90.2305 26.5882 90.1479 26.4876C90.1191 26.4445 90.0905 26.4012 90.0616 26.3582C89.7238 25.7759 89.2637 25.2761 88.7245 24.8844C88.5053 24.7227 88.2752 24.5824 88.0308 24.4602C87.1179 23.993 86.0573 23.788 84.9897 23.9102C84.5764 23.9569 84.1666 24.0432 83.7605 24.1655C83.5341 24.2302 83.3076 24.3094 83.0882 24.3991H83.0846C82.8329 24.4997 82.5884 24.6147 82.3512 24.7477C82.1392 24.8591 81.9342 24.9814 81.74 25.118C80.8736 25.7075 80.1513 26.4984 79.7127 27.4582C79.4396 28.0549 79.2885 28.6839 79.2668 29.3203C79.2632 29.3528 79.2632 29.385 79.2632 29.4173C79.1985 29.784 79.1554 30.1576 79.1266 30.5315C79.159 30.7185 79.1913 30.9018 79.2271 31.0888C79.4391 32.2714 79.6549 33.454 79.8383 34.6402C79.9497 35.37 79.8813 35.6 79.1479 36.0098C78.3501 36.452 77.7353 36.5023 77.347 35.8623C77.0164 35.3122 76.7358 34.6366 76.3477 34.0721C76.1105 33.8816 75.8588 33.7235 75.5893 33.5868C75.7366 34.3633 76.0063 35.1397 76.0279 35.9234C76.0351 36.2937 75.9704 36.671 75.8446 37.0162C75.7115 37.106 75.5715 37.1924 75.4312 37.2679C75.2837 37.3507 75.1759 37.401 75.0898 37.4296C75.0215 37.4549 74.9462 37.4727 74.8742 37.4943C74.8598 37.4979 74.8348 37.5015 74.8095 37.5052C74.7231 37.5052 74.637 37.4943 74.5506 37.4765C74.5039 37.4226 74.45 37.3723 74.3889 37.329C73.2279 36.5634 72.1387 35.5678 71.2256 34.5216C71.0781 34.3527 70.9381 34.1802 70.7978 34.0076C70.7475 33.9179 70.6972 33.8279 70.6433 33.7382C69.9208 32.5195 68.9465 31.5813 67.8467 30.7332C65.5965 27.9941 62.2321 23.3031 65.7332 20.3051C67.1278 19.1081 68.9179 18.6119 70.0969 17.1096C71.1825 15.7256 71.0208 14.0902 72.2284 12.8067C72.8827 12.3717 73.6844 12.1956 74.4678 12.3C75.1473 12.39 75.708 12.6775 76.1788 13.0765C76.2005 13.037 76.2255 12.9973 76.2507 12.9578C76.3694 12.7495 76.4916 12.5445 76.6247 12.3397C78.0265 10.1362 79.9891 8.22744 82.7499 8.10521C84.0691 8.0477 85.3921 8.54384 86.3446 9.45672C86.8191 9.90955 87.1785 10.4704 87.4014 11.0852C87.4338 11.1679 87.4589 11.2505 87.4769 11.3368V11.3405C87.6097 11.9083 87.5524 12.5158 87.7428 13.0695C87.7608 13.127 87.7859 13.1809 87.8147 13.2312V13.2348C87.9836 13.5476 88.3001 13.7704 88.6559 13.8243C89.0765 13.8854 89.5185 13.6734 89.9319 13.4792C90.0936 13.4001 90.2555 13.3284 90.4063 13.2742C90.4927 13.2456 90.5789 13.2167 90.6689 13.1915C91.7689 12.8787 92.991 12.9506 94.0335 13.4143C96.8301 14.6616 96.593 18.2599 95.1442 20.4562C94.8603 20.884 94.5403 21.2721 94.1952 21.6352C94.2025 21.6388 94.2061 21.6424 94.2133 21.646C94.4325 21.7538 94.6303 21.9049 94.8064 22.0883C95.2126 22.5161 95.4859 23.0984 95.5467 23.6592L95.547 23.6587Z" fill="#BD5931"/>
<path d="M75.9652 33.8197C75.2128 32.9939 73.8861 32.4407 72.8057 32.7559C72.4833 32.7528 72.1472 32.7997 71.8007 32.908C70.0972 33.44 69.3371 35.3261 69.4505 36.9873C69.6519 39.9358 73.5627 45.2648 76.7457 42.082C77.8258 41.0022 78.0359 39.1766 77.6021 37.527C77.4784 36.1575 76.8983 34.8432 75.9652 33.8195V33.8197Z" fill="#FFA370"/>
<path d="M85.6331 54.2236C85.1658 54.202 84.6013 54.13 84.109 53.9325C78.6741 51.747 76.6251 45.2587 76.1937 43.163C76.1792 43.0947 76.1073 43.0588 76.0428 43.0874C74.8674 43.5942 73.8429 43.5439 73.3037 43.4541C73.3218 43.2205 73.3398 42.9905 73.3576 42.7604C73.6632 42.8324 74.7702 42.9652 76.0536 42.286C76.2189 42.1962 76.4131 42.1996 76.5748 42.2896C76.7365 42.3796 76.8407 42.5449 76.8515 42.7318C76.9126 43.7024 79.5439 49.3962 85.6222 50.0038C85.6294 51.4092 85.6294 52.8184 85.6331 54.2238V54.2236Z" fill="black"/>
<path d="M79.2661 29.4173C79.2013 29.784 79.1583 30.1576 79.1294 30.5315C79.1619 30.7185 79.1941 30.9018 79.23 31.0888C79.1761 31.0527 79.133 31.0024 79.1077 30.9377C78.9819 30.6393 76.0272 23.5724 77.4723 19.0037C78.2091 16.6743 77.7635 15.0928 77.2568 14.1761C76.944 13.6082 76.5667 13.209 76.2539 12.9574C76.3725 12.749 76.4947 12.544 76.6278 12.3392C77.0376 12.6484 77.5048 13.1407 77.886 13.831C78.461 14.87 78.9716 16.6493 78.1591 19.2229C77.1526 22.4006 78.4863 27.0554 79.2697 29.3201C79.2661 29.3526 79.2661 29.3848 79.2661 29.417V29.4173Z" fill="black"/>
<path d="M87.8161 13.2307V13.2343C87.2878 14.5608 86.2777 15.6787 85.2282 16.8433C84.4123 17.7456 83.571 18.6801 82.8663 19.7874C81.619 21.7464 81.9424 23.6227 82.3524 24.748C82.1404 24.8594 81.9354 24.9817 81.7412 25.1183C81.2595 23.8566 80.8247 21.6567 82.2588 19.3993C82.9955 18.2417 83.8584 17.2858 84.6923 16.3618C86.1661 14.7297 87.4458 13.3099 87.4781 11.34C87.6109 11.9079 87.5536 12.5154 87.7439 13.0691C87.762 13.1266 87.7873 13.1805 87.8161 13.2307Z" fill="black"/>
<path d="M90.6691 13.1912C90.6619 14.8233 89.7487 16.8937 85.8775 19.1259C83.2356 20.6499 83.4691 23.044 83.7605 24.1655L83.0881 24.3991H83.0846C82.7573 23.1123 82.4592 20.269 85.5181 18.5039C88.8431 16.5843 89.8065 14.8733 89.9323 13.4788C90.094 13.3996 90.2559 13.3279 90.4068 13.2737C90.4932 13.2451 90.5793 13.2162 90.6693 13.191L90.6691 13.1912Z" fill="black"/>
<path d="M94.8079 22.0879C93.4636 23.2311 91.7201 23.3819 90.2608 23.5078L89.8474 23.5472C89.4232 23.5867 89.1321 23.7306 88.9487 23.9859C88.7618 24.2554 88.7187 24.6042 88.7259 24.8845C88.5067 24.7229 88.2767 24.5826 88.0322 24.4604C88.0717 24.1656 88.1653 23.8528 88.3595 23.5761C88.6651 23.1411 89.1432 22.8894 89.7794 22.8283L90.1963 22.7924C91.555 22.6738 93.054 22.5444 94.215 21.6457C94.4342 21.7535 94.6317 21.9046 94.8079 22.0879Z" fill="black"/>
<path d="M89.8057 38.4972C89.8452 38.4972 89.8856 38.4904 89.9248 38.4767C90.112 38.4108 90.2106 38.2058 90.1447 38.0184C89.2155 35.3757 90.1428 30.3058 90.1536 30.2592C90.1967 30.0722 90.0867 29.8799 89.9022 29.828C89.7162 29.7748 89.5254 29.8739 89.4645 30.0558C89.4506 30.0979 88.4537 35.3769 89.4664 38.2568C89.5184 38.4048 89.6575 38.4972 89.8057 38.4972Z" fill="black"/>
<path d="M75.6864 40.1026C75.3029 40.3554 74.6508 40.3631 74.0989 40.2082C73.23 39.964 72.3677 39.2371 72.5518 37.9289C72.7149 36.7706 73.4571 36.0714 74.6058 35.9742C74.1123 35.4299 73.6046 35.1462 73.0941 35.1308C72.347 35.1084 71.7399 35.6541 71.444 35.9816C71.444 35.9816 71.2075 36.4075 70.8422 36.0163C70.6591 35.8202 70.9103 35.5002 70.9103 35.5002C71.5645 34.7754 72.3477 34.3893 73.1157 34.4124C73.9141 34.4367 74.6696 34.8878 75.3609 35.7535C75.4995 35.9268 75.5252 36.1587 75.4282 36.3587C75.3305 36.5598 75.1313 36.6837 74.908 36.6818C73.9442 36.6753 73.3905 37.1286 73.2637 38.0295C73.1511 38.8283 73.5989 39.2186 73.9944 39.4053C74.5767 39.6803 75.2076 39.5951 75.3065 39.4888C75.3849 39.3064 75.5918 39.2306 75.7742 39.3095C75.9564 39.3882 76.0358 39.6081 75.9568 39.7902C75.9005 39.9202 75.8067 40.0236 75.6864 40.103V40.1026Z" fill="black"/>
<path d="M83.1012 31.9478C82.6628 31.9108 82.395 31.4536 82.5923 31.0605C83.0261 30.1964 84.1974 28.6161 85.7753 28.8199C86.6735 28.9359 86.9055 29.4922 87.1465 29.8134C87.4873 30.2669 87.2951 30.9202 86.7734 31.1432C85.9592 31.4914 84.4021 32.0576 83.1012 31.9478Z" fill="black"/>
<path d="M90.1428 31.4437C90.5812 31.5048 91.2104 31.5695 91.8863 31.5623C91.7029 30.6853 91.4943 29.7471 91.2392 28.8051V28.8015C91.0775 28.8268 90.657 28.8698 90.4951 28.9382C90.3009 29.0209 90.1464 29.1143 90.0242 29.2185C89.618 29.5527 89.5461 29.9733 89.431 30.2574C89.2224 30.7858 89.5819 31.3645 90.1428 31.4437Z" fill="black"/>
<path d="M91.8937 33.1793C91.8535 33.1218 91.8011 33.0773 91.7363 33.0457C91.6197 32.9837 91.4522 32.961 91.3256 33.006C91.194 33.0527 91.0691 33.1389 91.0071 33.2683L90.9582 33.3973C90.9443 33.4567 90.944 33.5157 90.95 33.5746C90.9912 33.8284 91.01 34.0852 91.0054 34.3424C91.0049 34.4175 91.0227 34.487 91.059 34.5508C91.0831 34.6184 91.1231 34.6761 91.1789 34.7238C91.2742 34.8116 91.4279 34.8761 91.5595 34.8667C91.7008 34.8563 91.8468 34.8046 91.9411 34.6934C92.0342 34.5835 92.0814 34.4584 92.084 34.313C92.0896 33.9928 92.0532 33.6795 91.9991 33.3643C91.9801 33.2926 91.945 33.2308 91.8937 33.1793Z" fill="black"/>
<path d="M85.8713 33.3045C85.8309 33.247 85.7784 33.2025 85.714 33.171C85.5973 33.1089 85.4298 33.0863 85.3032 33.1313C85.1716 33.178 85.0467 33.2641 84.9847 33.3935L84.9358 33.5225C84.9218 33.582 84.9216 33.6409 84.9274 33.6998C84.9685 33.9537 84.9873 34.2104 84.9827 34.4676C84.9822 34.5427 85.0001 34.6122 85.0364 34.676C85.0605 34.7436 85.1004 34.8014 85.1562 34.849C85.2515 34.9368 85.4052 35.0013 85.5366 34.9919C85.6779 34.9816 85.8241 34.9298 85.9182 34.8187C86.0113 34.7087 86.0585 34.5836 86.0611 34.4383C86.0669 34.118 86.0304 33.8048 85.9762 33.4896C85.9572 33.4179 85.9223 33.356 85.8713 33.3045Z" fill="black"/>
<path d="M89.1294 45.9274C89.948 45.9274 90.7124 45.5826 91.0384 45.0119C91.1368 44.8396 91.0769 44.6199 90.9046 44.5215C90.7316 44.4234 90.5124 44.483 90.4142 44.6553C90.1816 45.0622 89.3869 45.3528 88.5753 45.137C88.0498 44.9974 87.1682 44.5391 87.1682 43.0365C87.1682 41.4992 87.6675 40.607 88.6124 40.4559C89.5356 40.3104 90.4739 40.9126 90.5918 41.2716C90.6537 41.46 90.857 41.5625 91.0456 41.5009C91.234 41.4388 91.337 41.236 91.2749 41.0471C91.0283 40.2959 89.736 39.5479 88.4988 39.7459C87.7334 39.8681 86.4492 40.4586 86.4492 43.0362C86.4492 44.4638 87.1752 45.509 88.391 45.8316C88.6352 45.8964 88.8847 45.9274 89.1294 45.9274Z" fill="black"/>
</g>
</svg>
