<svg width="456" height="377" viewBox="0 0 456 377" fill="none" xmlns="http://www.w3.org/2000/svg">
<path d="M357.626 74.8447H344.938C344.486 74.8447 344.056 74.624 343.798 74.2628C343.561 73.9016 343.54 73.4401 343.733 73.0589C343.776 72.9987 347.024 66.9188 347.712 63.929C348.508 60.5179 349.131 55.8626 347.97 47.2344C347.819 46.1509 347.626 44.8667 347.368 43.4822H333.884L335.604 73.5605C335.604 73.9016 335.497 74.2427 335.239 74.4835C334.98 74.7243 334.636 74.8648 334.271 74.8648H331.948C331.798 74.8648 331.647 74.8447 331.518 74.8046C330.787 74.5638 324.249 72.3365 323.539 68.4839C322.916 65.153 323.496 47.9167 323.539 47.1943C323.539 46.9736 323.625 46.7529 323.754 46.5723C323.819 46.492 329.583 38.0845 329.303 33.048C329.066 28.6135 328.808 19.9051 328.722 16.7146H321.668C322.335 19.8248 322.851 23.4366 322.722 26.908C322.55 31.6234 320.357 36.1181 317.905 39.6898C319.518 43.3216 321.711 46.5121 321.754 46.5723C321.883 46.7529 321.948 46.9736 321.97 47.1943C321.991 47.9167 322.572 65.153 321.97 68.4839C321.668 70.0691 320.4 71.5339 318.163 72.8783C317.883 73.0589 317.539 73.1191 317.195 73.0589C315.475 72.7579 313.711 72.4368 312.507 71.9753C310.335 71.1526 308.937 68.9253 308.937 66.2767V46.4519C308.937 46.1108 309.088 45.7897 309.367 45.5489C309.432 45.5088 312.227 43.0207 314.937 39.3286C314.077 37.1414 313.475 34.8339 313.582 32.8875C313.883 27.4497 314.184 15.5308 314.184 15.4104C314.184 14.7282 314.787 14.2064 315.518 14.2064H318.357C317.862 12.4005 317.389 10.9358 317.109 10.093H298.743C297.905 12.5611 295.539 20.0857 295.754 26.8076C296.077 36.399 306.378 45.4887 306.464 45.569C306.722 45.8098 306.894 46.1308 306.894 46.4719V66.2968C306.894 68.9454 305.496 71.1727 303.324 71.9954C301.991 72.497 299.948 72.8582 297.948 73.1993L296.851 73.4C296.12 73.5204 295.431 73.0789 295.302 72.4168C295.173 71.7345 295.647 71.0924 296.356 70.972L297.474 70.7714C299.259 70.4704 301.259 70.1092 302.335 69.7079C303.647 69.2063 304.249 67.6411 304.249 66.3168V47.0338C302.184 45.1275 293.431 36.4793 293.109 26.908C292.808 18.2998 296.378 8.84893 296.528 8.46768C296.722 7.96604 297.216 7.64499 297.776 7.64499H318.055C318.615 7.64499 319.109 7.96604 319.303 8.46768C319.367 8.66834 320.249 10.9558 321.088 14.2466H330.034C330.765 14.2466 331.346 14.7883 331.368 15.4505C331.368 15.5709 331.669 27.5099 331.97 32.9277C332.271 38.245 327.303 46.0104 326.206 47.6357C326.034 52.7926 325.733 65.5945 326.206 68.0826C326.529 69.8684 329.991 71.6543 332.249 72.4168H332.937L331.217 42.3384C331.217 41.9973 331.325 41.6562 331.583 41.4154C331.841 41.1746 332.185 41.0342 332.55 41.0342H346.981C346.465 38.2651 345.862 35.1951 345.26 32.1652C344.034 26.005 342.895 20.2061 342.658 17.5574C342.314 13.5242 342.357 1.74571 342.357 1.24407C342.357 0.561837 342.959 0 343.69 0H372.271C373.003 0 373.605 0.561837 373.605 1.24407C373.605 1.74571 373.648 13.5042 373.304 17.5574C373.132 19.5238 372.465 23.256 371.605 27.5701H392.164C392.659 27.5701 393.11 27.8109 393.325 28.2122C393.541 28.6135 393.541 29.0951 393.261 29.4764L378.53 50.4048V70.6109L385.777 72.0154C386.487 72.1559 386.96 72.8181 386.809 73.4802C386.659 74.1424 385.949 74.5838 385.239 74.4434L376.938 72.8381C376.314 72.7177 375.884 72.2161 375.884 71.6141V50.0235C375.884 49.7828 375.97 49.542 376.099 49.3413L389.713 30.0382H371.132C371.003 30.7405 370.852 31.4428 370.701 32.1652C370.035 35.5161 369.347 38.9273 368.809 41.9371L374.035 49.3614C374.185 49.562 374.25 49.8028 374.25 50.0436V71.6342C374.25 72.2161 373.798 72.7378 373.196 72.8582L370.443 73.3799C369.841 73.5003 369.239 73.2194 368.981 72.6977C367.712 70.1895 366.099 66.7382 365.583 64.5109C364.4 59.3942 364.314 54.137 365.304 46.9736C365.476 45.6894 365.734 44.1644 366.035 42.4989L356.873 29.4964C356.615 29.1152 356.572 28.6336 356.809 28.2323C357.045 27.831 357.497 27.5902 357.97 27.5902H368.917C369.777 23.1557 370.486 19.3232 370.658 17.3768C370.917 14.1864 370.96 5.69863 370.938 2.5082H345.002C345.002 5.69863 345.024 14.1864 345.282 17.3768C345.497 19.9051 346.637 25.6438 347.841 31.7237C348.465 34.8941 349.11 38.1447 349.647 41.0342H359.454C359.82 41.0342 360.164 41.1746 360.422 41.4154C360.68 41.6562 360.809 41.9973 360.787 42.3384L358.981 73.721C358.938 74.3832 358.357 74.8848 357.648 74.8848L357.626 74.8447ZM347.045 72.3566H356.357L358.013 43.442H350.056C350.271 44.7062 350.465 45.87 350.594 46.8933C351.561 54.0567 351.475 59.3139 350.314 64.4307C349.798 66.678 348.12 70.2296 347.045 72.3566ZM368.142 45.4887C368.056 46.0907 367.97 46.6726 367.884 47.1943C366.701 55.8426 367.347 60.4777 368.142 63.8889C368.551 65.6948 369.906 68.6244 370.895 70.651L371.562 70.5306V50.3245L368.142 45.4687V45.4887ZM311.582 46.9535V66.2365C311.582 67.5609 312.163 69.126 313.496 69.6276C314.313 69.9286 315.69 70.2095 317.131 70.4704C318.4 69.6276 319.174 68.7648 319.324 68.0023C319.797 65.4941 319.496 52.7123 319.324 47.5555C318.808 46.7729 317.432 44.6259 316.141 42.0174C314.206 44.4453 312.399 46.2111 311.604 46.9535H311.582ZM360.4 29.978L366.637 38.847C367.089 36.5395 367.562 34.0714 368.056 31.6635C368.164 31.1017 368.271 30.5398 368.379 29.9981H360.4V29.978ZM316.787 16.6344C316.701 19.8248 316.464 28.5333 316.206 32.9678C316.141 34.0513 316.357 35.2753 316.744 36.5595C318.507 33.63 319.948 30.2188 320.056 26.7474C320.163 23.3162 319.625 19.6844 318.937 16.6344H316.787Z" fill="#199A68"/>
<path d="M342.14 107.489C338.591 107.489 336.548 106.164 334.398 104.78C333.537 104.218 332.656 103.636 331.58 103.094C322.849 98.66 270.547 87.2627 270.031 87.1624C269.02 86.9416 268.397 85.9986 268.633 85.0555C268.87 84.1124 269.88 83.5305 270.891 83.7512C273.063 84.2328 324.225 95.3692 333.387 100.024C334.634 100.667 335.645 101.329 336.548 101.911C338.484 103.175 339.753 103.997 342.14 103.997C344.527 103.997 345.796 103.175 347.731 101.911C348.634 101.329 349.645 100.667 350.893 100.024C360.054 95.3491 411.216 84.2127 413.388 83.7512C414.399 83.5305 415.41 84.1124 415.646 85.0555C415.883 85.9986 415.259 86.9416 414.248 87.1624C413.711 87.2828 361.409 98.66 352.699 103.094C351.645 103.636 350.742 104.218 349.882 104.78C347.731 106.185 345.688 107.489 342.14 107.489Z" fill="#199A68"/>
<path d="M336.62 93.2051C336.448 93.2051 336.276 93.1851 336.104 93.1048C319.674 87.0851 292.964 80.0421 277.652 76.972C276.899 76.8115 276.404 76.1092 276.576 75.4069C276.748 74.7046 277.501 74.2431 278.254 74.4036C293.673 77.4937 320.577 84.597 337.136 90.6568C337.868 90.9176 338.212 91.6801 337.932 92.3624C337.717 92.8841 337.179 93.2051 336.62 93.2051Z" fill="#199A68"/>
<path d="M336.151 97.7779C335.979 97.7779 335.807 97.7579 335.656 97.6977C318.624 91.678 290.989 84.635 275.118 81.5649C274.344 81.4245 273.87 80.7222 274.021 79.9998C274.172 79.2775 274.924 78.8159 275.698 78.9765C291.656 82.0666 319.506 89.1698 336.646 95.2296C337.377 95.4905 337.742 96.253 337.463 96.9352C337.248 97.4569 336.71 97.7779 336.151 97.7779Z" fill="#199A68"/>
<path d="M347.705 93.2056C347.145 93.2056 346.608 92.8846 346.393 92.3629C346.113 91.6806 346.457 90.9181 347.188 90.6573C363.748 84.5975 390.652 77.4942 406.071 74.4041C406.845 74.2637 407.577 74.7051 407.749 75.4074C407.921 76.1097 407.426 76.812 406.673 76.9725C391.361 80.0426 364.651 87.0856 348.221 93.1053C348.049 93.1655 347.877 93.2056 347.705 93.2056Z" fill="#199A68"/>
<path d="M348.149 97.7778C347.568 97.7778 347.052 97.4568 346.837 96.9351C346.558 96.2528 346.923 95.4903 347.654 95.2295C364.816 89.1697 392.644 82.0665 408.602 78.9764C409.354 78.8158 410.107 79.2773 410.279 79.9997C410.43 80.702 409.956 81.4043 409.182 81.5648C393.332 84.6348 365.676 91.6779 348.644 97.6976C348.472 97.7578 348.299 97.7778 348.149 97.7778Z" fill="#199A68"/>
<path d="M63.7671 0.903931V10.395H109.338V21.3307H63.7671V26.9691H99.0365V67.2809H71.9177C83.2943 75.6684 93.2299 79.9825 113.467 86.6041C109.789 89.9149 106.843 93.5669 105.058 98.1017C90.9718 93.5669 77.4662 87.6074 63.7456 75.8891V100.851H50.24V76.1098C41.9603 82.4104 31.53 90.3564 11.2931 98.6435C9.05651 94.4498 6.32528 90.5771 2.30371 87.0456C14.734 83.3936 27.1643 77.6549 40.9065 67.2809H17.5943V26.9892H50.2615V21.3508H6.23926V10.415H50.283V0.903931H63.7886H63.7671ZM30.3902 36.5806V41.9983H50.283V36.5806H30.3902ZM30.3902 51.389V57.2481H50.283V51.389H30.3902ZM63.7671 36.5806V41.9983H85.5524V36.5806H63.7671ZM63.7671 51.389V57.2481H85.5524V51.389H63.7671Z" fill="#383838"/>
<path d="M244.542 26.425V39.6884H202.047C207.961 56.704 219.208 70.8302 232.95 81.1038C236.155 83.311 239.94 85.8594 247.746 89.712C243.359 92.9225 239.467 97.1162 236.155 101.751C225.983 95.7918 206.09 83.5318 193.057 52.8113C182.283 81.0837 164.175 93.0228 146.067 102.293C143.465 97.8787 140.39 93.685 136.368 90.2537C148.218 85.3979 159.444 78.3147 168.562 67.4993C177.208 57.005 179.939 46.29 181.358 39.6683H141.336V26.405H183.014C183.616 19.3419 183.616 11.0548 183.616 1.32297H199.832C199.595 10.814 199.229 19.5425 198.756 26.405H244.563L244.542 26.425Z" fill="#383838"/>
<path d="M60.3311 304.692L67.8796 268.594H69.342L81.5787 294.097L93.923 268.594H95.3639L102.16 304.692H96.2241L92.3316 283.261L82.0304 304.692H80.4604L70.2667 283.201L66.2667 304.692H60.3096H60.3311Z" fill="#383838"/>
<path d="M134.774 282.243H140.365V304.696H134.774V302.349C132.322 305.017 129.29 305.379 127.569 305.379C120.15 305.379 115.913 299.62 115.913 293.44C115.913 286.136 121.29 281.661 127.634 281.661C129.397 281.661 132.494 282.083 134.774 284.852V282.243ZM121.612 293.56C121.612 297.453 124.257 300.703 128.3 300.703C131.849 300.703 135.096 298.296 135.096 293.6C135.096 288.905 131.849 286.336 128.3 286.336C124.257 286.336 121.612 289.547 121.612 293.54V293.56Z" fill="#383838"/>
<path d="M155.478 282.243H161.069V284.27C161.693 283.587 162.617 282.825 163.413 282.404C164.51 281.822 165.585 281.661 166.854 281.661C168.23 281.661 169.714 281.882 171.263 282.725L168.983 287.46C167.736 286.718 166.704 286.657 166.123 286.657C164.94 286.657 163.736 286.818 162.639 287.881C161.091 289.427 161.091 291.553 161.091 293.058V304.676H155.499V282.223L155.478 282.243Z" fill="#383838"/>
<path d="M188.016 282.24V295.102C188.016 296.446 188.081 297.971 189.049 299.155C189.78 300.058 191.092 300.7 192.705 300.7C194.317 300.7 195.629 300.058 196.361 299.155C197.328 297.971 197.393 296.426 197.393 295.102V282.24H202.984V295.262C202.984 298.132 202.64 300.539 200.425 302.626C198.253 304.653 195.264 305.395 192.597 305.395C190.145 305.395 187.156 304.713 184.984 302.626C182.769 300.539 182.425 298.152 182.425 295.262V282.24H188.016Z" fill="#383838"/>
<path d="M218.081 282.243H223.673V284.33C226.081 281.821 228.834 281.661 230.189 281.661C234.64 281.661 236.533 283.748 237.264 284.711C238.189 285.935 238.748 287.48 238.748 290.951V304.716H233.157V292.236C233.157 286.537 230.877 286.376 228.748 286.376C226.232 286.376 223.673 286.697 223.673 293.961V304.736H218.081V282.283V282.243Z" fill="#383838"/>
<path d="M278.327 293.5C278.327 300.382 272.714 305.379 265.467 305.379C258.219 305.379 252.606 300.362 252.606 293.5C252.606 286.637 258.219 281.661 265.467 281.661C272.714 281.661 278.327 286.557 278.327 293.5ZM272.607 293.56C272.607 288.443 269.015 286.356 265.467 286.356C261.918 286.356 258.327 288.443 258.327 293.56C258.327 297.874 261.058 300.703 265.467 300.703C269.876 300.703 272.607 297.874 272.607 293.56Z" fill="#383838"/>
<path d="M297.753 282.24V295.102C297.753 296.446 297.817 297.971 298.785 299.155C299.516 300.058 300.828 300.7 302.441 300.7C304.054 300.7 305.366 300.058 306.097 299.155C307.065 297.971 307.129 296.426 307.129 295.102V282.24H312.721V295.262C312.721 298.131 312.377 300.539 310.161 302.626C307.989 304.653 305 305.395 302.333 305.395C299.882 305.395 296.892 304.713 294.72 302.626C292.505 300.539 292.161 298.152 292.161 295.262V282.24H297.753Z" fill="#383838"/>
<path d="M346.46 289.126C343.901 286.778 341.385 286.356 339.664 286.356C337.041 286.356 335.385 287.38 334.352 288.323C333.342 289.286 332.309 290.992 332.309 293.5C332.309 296.008 333.406 297.874 334.481 298.877C335.729 300.001 337.514 300.683 339.578 300.683C341.858 300.683 344.546 299.821 346.482 297.814V303.633C345.105 304.436 342.89 305.399 339.17 305.399C335.17 305.399 332.309 304.335 330.03 302.088C328.309 300.443 326.589 297.774 326.589 293.66C326.589 289.547 328.481 286.617 330.245 284.972C332.137 283.206 335.17 281.661 339.901 281.661C341.729 281.661 343.901 281.922 346.482 283.266V289.126H346.46Z" fill="#383838"/>
<path d="M359.864 265.806H365.456V284.146C367.864 281.859 370.488 281.638 371.929 281.638C376.338 281.638 378.316 283.765 379.004 284.688C380.488 286.715 380.553 289.323 380.553 290.928V304.693H374.961V291.41C374.961 290.086 374.961 288.641 373.864 287.517C373.241 286.875 372.144 286.333 370.725 286.333C368.832 286.333 367.348 287.196 366.617 288.199C365.821 289.263 365.477 290.969 365.477 293.858V304.693H359.886V265.806H359.864Z" fill="#383838"/>
<path d="M398.452 269.602C400.495 269.602 402.043 271.047 402.043 272.953C402.043 274.859 400.495 276.304 398.452 276.304C396.409 276.304 394.86 274.859 394.86 272.953C394.86 271.047 396.387 269.602 398.452 269.602ZM401.248 282.243V304.697H395.656V282.243H401.248Z" fill="#383838"/>
<path d="M28.145 268.594C17.0266 268.594 8.96191 276.218 8.96191 286.753C8.96191 297.287 16.5749 304.832 27.4568 304.832C30.7687 304.832 34.4462 304.11 37.0699 302.926L37.371 302.785L35.6075 299.575L35.3279 299.695C33.3064 300.598 30.2956 301.16 27.4783 301.16C19.0911 301.16 13.005 295.08 13.005 286.733C13.005 278.386 19.5212 272.225 28.145 272.225C36.7688 272.225 42.898 277.623 42.898 285.348C42.898 290.585 41.199 293.956 38.1452 294.037C37.0914 294.037 36.4677 292.893 36.4677 291.729V278.085H32.1881V280.091C30.4246 277.964 28.059 277.623 26.6826 277.623C21.8008 277.623 17.6717 281.074 17.6717 286.673C17.6717 291.428 20.9191 295.863 26.6396 295.863C27.8439 295.863 29.844 295.542 31.629 293.976C32.0376 293.575 32.4247 293.234 32.5322 293.013C32.9408 295.682 34.7903 297.448 38.1237 297.448C42.1453 297.448 46.9195 294.98 46.9195 285.368C46.9195 275.757 39.199 268.594 28.145 268.594ZM27.2203 292.291C24.1019 292.291 22.0804 289.783 22.0804 286.793C22.0804 283.803 24.1019 281.255 27.2203 281.255C29.9515 281.255 32.4462 283.061 32.4462 286.833C32.4462 290.605 29.9515 292.291 27.2203 292.291Z" fill="#383838"/>
<path d="M96.1099 205.193L115.917 145.578H133.057L103.959 232.342H90.1528L70.6256 173.469L51.0984 232.342H37.1412L8.04395 145.558H25.184L44.9908 205.173L64.1309 148.407H77.1418L96.1314 205.173L96.1099 205.193Z" fill="#383838"/>
<path d="M213.798 221.662C204.766 231.072 193.733 233.681 183.367 233.681C159.195 233.681 144.7 219.053 144.7 201.195C144.7 183.336 160.249 168.227 181.496 168.227C199.69 168.227 216.83 178.882 216.83 203.061H161.023C161.023 212.973 169.668 220.779 184.142 220.779C192.507 220.779 198.766 217.93 204.465 213.094L213.755 221.642L213.798 221.662ZM161.862 192.787H200.12C197.604 183.116 188.421 180.387 181.518 180.387C174.615 180.387 165.303 183.116 161.862 192.787Z" fill="#383838"/>
<path d="M306.126 221.662C297.094 231.072 286.061 233.681 275.696 233.681C251.523 233.681 237.028 219.053 237.028 201.195C237.028 183.336 252.577 168.227 273.825 168.227C292.018 168.227 309.159 178.882 309.159 203.061H253.351C253.351 212.973 261.996 220.779 276.47 220.779C284.836 220.779 291.094 217.93 296.793 213.094L306.083 221.642L306.126 221.662ZM254.19 192.787H292.449C289.932 183.116 280.749 180.387 273.846 180.387C266.943 180.387 257.631 183.116 254.19 192.787Z" fill="#383838"/>
<path d="M371.382 169.613H389.447V171.479L366.07 198.387L376.178 213.015C379.64 217.73 381.748 219.957 386.673 219.957C388.135 219.957 392.049 219.496 394.716 217.63C394.716 217.63 395.468 220.579 397.146 223.75C398.823 226.9 400.501 228.265 400.501 228.265C394.931 233.341 387.748 233.722 384.414 233.722C374.178 233.722 368.479 228.525 363.812 222.325L350.263 201.999V232.378H333.919V142.745H350.263V195.558L371.382 169.653V169.613Z" fill="#383838"/>
<path d="M1.12 369.28L11.44 358.32C12.2933 357.413 12.9867 356.6 13.52 355.88C14.0533 355.16 14.44 354.48 14.68 353.84C14.92 353.2 15.04 352.547 15.04 351.88C15.04 350.627 14.6267 349.653 13.8 348.96C13 348.24 11.9733 347.88 10.72 347.88C9.38667 347.88 8.21333 348.213 7.2 348.88C6.18667 349.547 5.28 350.587 4.48 352L1.28 349.36C2.37333 347.467 3.72 346.04 5.32 345.08C6.92 344.093 8.77333 343.6 10.88 343.6C12.6133 343.6 14.1333 343.947 15.44 344.64C16.7467 345.333 17.76 346.307 18.48 347.56C19.2 348.787 19.56 350.213 19.56 351.84C19.56 353.013 19.4133 354.067 19.12 355C18.8533 355.907 18.3867 356.827 17.72 357.76C17.0533 358.667 16.1333 359.733 14.96 360.96L7.04 369.16L1.12 369.28ZM1.12 372V369.28L5.08 367.88H20.12V372H1.12ZM35.6006 372.4C33.494 372.4 31.5606 371.813 29.8006 370.64C28.0673 369.44 26.6806 367.76 25.6406 365.6C24.6006 363.44 24.0806 360.893 24.0806 357.96C24.0806 355.027 24.5873 352.493 25.6006 350.36C26.6406 348.2 28.0273 346.533 29.7606 345.36C31.494 344.187 33.414 343.6 35.5206 343.6C37.654 343.6 39.5873 344.187 41.3206 345.36C43.054 346.533 44.4273 348.2 45.4406 350.36C46.4806 352.493 47.0006 355.04 47.0006 358C47.0006 360.933 46.4806 363.48 45.4406 365.64C44.4273 367.8 43.054 369.467 41.3206 370.64C39.614 371.813 37.7073 372.4 35.6006 372.4ZM35.5206 368.08C36.9073 368.08 38.1073 367.707 39.1206 366.96C40.134 366.213 40.9206 365.093 41.4806 363.6C42.0673 362.107 42.3606 360.227 42.3606 357.96C42.3606 355.72 42.0673 353.853 41.4806 352.36C40.9206 350.867 40.1206 349.76 39.0806 349.04C38.0673 348.293 36.8806 347.92 35.5206 347.92C34.1606 347.92 32.9606 348.293 31.9206 349.04C30.9073 349.76 30.1206 350.867 29.5606 352.36C29.0006 353.827 28.7206 355.693 28.7206 357.96C28.7206 360.227 29.0006 362.107 29.5606 363.6C30.1206 365.093 30.9073 366.213 31.9206 366.96C32.9606 367.707 34.1606 368.08 35.5206 368.08ZM50.5716 369.28L60.8916 358.32C61.7449 357.413 62.4382 356.6 62.9716 355.88C63.5049 355.16 63.8916 354.48 64.1316 353.84C64.3716 353.2 64.4916 352.547 64.4916 351.88C64.4916 350.627 64.0782 349.653 63.2516 348.96C62.4516 348.24 61.4249 347.88 60.1716 347.88C58.8382 347.88 57.6649 348.213 56.6516 348.88C55.6382 349.547 54.7316 350.587 53.9316 352L50.7316 349.36C51.8249 347.467 53.1716 346.04 54.7716 345.08C56.3716 344.093 58.2249 343.6 60.3316 343.6C62.0649 343.6 63.5849 343.947 64.8916 344.64C66.1982 345.333 67.2116 346.307 67.9316 347.56C68.6516 348.787 69.0116 350.213 69.0116 351.84C69.0116 353.013 68.8649 354.067 68.5716 355C68.3049 355.907 67.8382 356.827 67.1716 357.76C66.5049 358.667 65.5849 359.733 64.4116 360.96L56.4916 369.16L50.5716 369.28ZM50.5716 372V369.28L54.5316 367.88H69.5716V372H50.5716ZM83.1322 372.4C81.2655 372.4 79.5855 371.973 78.0922 371.12C76.5989 370.24 75.4122 369.067 74.5322 367.6C73.6789 366.133 73.2522 364.507 73.2522 362.72C73.2522 360.16 74.1455 357.573 75.9322 354.96L83.5722 344H88.8922L80.7322 355.48L79.0522 356.48C79.3189 355.867 79.6522 355.347 80.0522 354.92C80.4789 354.467 81.0255 354.12 81.6922 353.88C82.3855 353.64 83.2389 353.52 84.2522 353.52C85.8789 353.52 87.3455 353.907 88.6522 354.68C89.9855 355.427 91.0522 356.48 91.8522 357.84C92.6522 359.173 93.0522 360.747 93.0522 362.56C93.0522 364.373 92.6122 366.027 91.7322 367.52C90.8522 369.013 89.6522 370.2 88.1322 371.08C86.6389 371.96 84.9722 372.4 83.1322 372.4ZM83.1322 368.08C84.1455 368.08 85.0522 367.84 85.8522 367.36C86.6522 366.88 87.2789 366.227 87.7322 365.4C88.2122 364.547 88.4522 363.6 88.4522 362.56C88.4522 361.52 88.2122 360.587 87.7322 359.76C87.2789 358.933 86.6522 358.293 85.8522 357.84C85.0522 357.36 84.1455 357.12 83.1322 357.12C82.1189 357.12 81.2122 357.36 80.4122 357.84C79.6122 358.32 78.9855 358.973 78.5322 359.8C78.0789 360.6 77.8522 361.52 77.8522 362.56C77.8522 363.6 78.0789 364.547 78.5322 365.4C78.9855 366.227 79.6122 366.88 80.4122 367.36C81.2122 367.84 82.1189 368.08 83.1322 368.08ZM100.953 372.4C100.1 372.4 99.3931 372.12 98.8331 371.56C98.2998 370.973 98.0331 370.267 98.0331 369.44C98.0331 368.587 98.2998 367.88 98.8331 367.32C99.3931 366.76 100.1 366.48 100.953 366.48C101.806 366.48 102.5 366.76 103.033 367.32C103.593 367.88 103.873 368.587 103.873 369.44C103.873 370.267 103.593 370.973 103.033 371.56C102.5 372.12 101.806 372.4 100.953 372.4ZM119.738 372.4C117.631 372.4 115.698 371.813 113.938 370.64C112.205 369.44 110.818 367.76 109.778 365.6C108.738 363.44 108.218 360.893 108.218 357.96C108.218 355.027 108.725 352.493 109.738 350.36C110.778 348.2 112.165 346.533 113.898 345.36C115.631 344.187 117.551 343.6 119.658 343.6C121.791 343.6 123.725 344.187 125.458 345.36C127.191 346.533 128.565 348.2 129.578 350.36C130.618 352.493 131.138 355.04 131.138 358C131.138 360.933 130.618 363.48 129.578 365.64C128.565 367.8 127.191 369.467 125.458 370.64C123.751 371.813 121.845 372.4 119.738 372.4ZM119.658 368.08C121.045 368.08 122.245 367.707 123.258 366.96C124.271 366.213 125.058 365.093 125.618 363.6C126.205 362.107 126.498 360.227 126.498 357.96C126.498 355.72 126.205 353.853 125.618 352.36C125.058 350.867 124.258 349.76 123.218 349.04C122.205 348.293 121.018 347.92 119.658 347.92C118.298 347.92 117.098 348.293 116.058 349.04C115.045 349.76 114.258 350.867 113.698 352.36C113.138 353.827 112.858 355.693 112.858 357.96C112.858 360.227 113.138 362.107 113.698 363.6C114.258 365.093 115.045 366.213 116.058 366.96C117.098 367.707 118.298 368.08 119.658 368.08ZM137.223 372L147.423 346.8H151.983L142.023 372H137.223ZM133.223 348.12V344H151.983V346.8L150.023 348.12H133.223ZM157.025 372.4C156.172 372.4 155.465 372.12 154.905 371.56C154.372 370.973 154.105 370.267 154.105 369.44C154.105 368.587 154.372 367.88 154.905 367.32C155.465 366.76 156.172 366.48 157.025 366.48C157.878 366.48 158.572 366.76 159.105 367.32C159.665 367.88 159.945 368.587 159.945 369.44C159.945 370.267 159.665 370.973 159.105 371.56C158.572 372.12 157.878 372.4 157.025 372.4ZM164.747 369.28L175.067 358.32C175.92 357.413 176.613 356.6 177.147 355.88C177.68 355.16 178.067 354.48 178.307 353.84C178.547 353.2 178.667 352.547 178.667 351.88C178.667 350.627 178.253 349.653 177.427 348.96C176.627 348.24 175.6 347.88 174.347 347.88C173.013 347.88 171.84 348.213 170.827 348.88C169.813 349.547 168.907 350.587 168.107 352L164.907 349.36C166 347.467 167.347 346.04 168.947 345.08C170.547 344.093 172.4 343.6 174.507 343.6C176.24 343.6 177.76 343.947 179.067 344.64C180.373 345.333 181.387 346.307 182.107 347.56C182.827 348.787 183.187 350.213 183.187 351.84C183.187 353.013 183.04 354.067 182.747 355C182.48 355.907 182.013 356.827 181.347 357.76C180.68 358.667 179.76 359.733 178.587 360.96L170.667 369.16L164.747 369.28ZM164.747 372V369.28L168.707 367.88H183.747V372H164.747ZM197.027 372.4C195.107 372.4 193.441 372.053 192.027 371.36C190.614 370.667 189.507 369.707 188.707 368.48C187.934 367.227 187.547 365.813 187.547 364.24C187.547 362.987 187.787 361.84 188.267 360.8C188.774 359.733 189.494 358.827 190.427 358.08C191.387 357.333 192.521 356.8 193.827 356.48L193.707 357.76C192.641 357.467 191.734 356.987 190.987 356.32C190.267 355.653 189.721 354.867 189.347 353.96C188.974 353.053 188.787 352.107 188.787 351.12C188.787 349.627 189.134 348.32 189.827 347.2C190.547 346.053 191.534 345.16 192.787 344.52C194.041 343.88 195.454 343.56 197.027 343.56C198.627 343.56 200.041 343.88 201.267 344.52C202.521 345.16 203.494 346.053 204.187 347.2C204.907 348.32 205.267 349.627 205.267 351.12C205.267 352.107 205.081 353.053 204.707 353.96C204.334 354.867 203.787 355.653 203.067 356.32C202.347 356.987 201.441 357.467 200.347 357.76L200.227 356.48C201.561 356.8 202.694 357.333 203.627 358.08C204.561 358.827 205.267 359.733 205.747 360.8C206.254 361.84 206.507 362.987 206.507 364.24C206.507 365.813 206.121 367.227 205.347 368.48C204.574 369.707 203.467 370.667 202.027 371.36C200.614 372.053 198.947 372.4 197.027 372.4ZM197.027 368.24C198.014 368.24 198.881 368.04 199.627 367.64C200.401 367.24 201.001 366.693 201.427 366C201.881 365.307 202.107 364.52 202.107 363.64C202.107 362.733 201.881 361.947 201.427 361.28C201.001 360.587 200.401 360.04 199.627 359.64C198.881 359.24 198.014 359.04 197.027 359.04C196.041 359.04 195.161 359.24 194.387 359.64C193.641 360.04 193.041 360.587 192.587 361.28C192.161 361.947 191.947 362.733 191.947 363.64C191.947 364.52 192.161 365.307 192.587 366C193.041 366.693 193.641 367.24 194.387 367.64C195.161 368.04 196.041 368.24 197.027 368.24ZM197.027 355.44C198.201 355.44 199.161 355.067 199.907 354.32C200.654 353.573 201.027 352.613 201.027 351.44C201.027 350.267 200.654 349.32 199.907 348.6C199.161 347.853 198.201 347.48 197.027 347.48C195.881 347.48 194.921 347.853 194.147 348.6C193.401 349.32 193.027 350.267 193.027 351.44C193.027 352.613 193.401 353.573 194.147 354.32C194.921 355.067 195.881 355.44 197.027 355.44ZM211.117 375.072V348.96H214.061V375.072H211.117ZM212.557 375.072V372.288H218.669V375.072H212.557ZM212.557 351.744V348.96H218.669V351.744H212.557ZM228.391 372V350.24H232.071V372H228.391ZM221.095 352.96V349.6H239.368V352.96H221.095ZM245.911 372.32C244.61 372.32 243.447 372.032 242.423 371.456C241.42 370.88 240.631 370.091 240.055 369.088C239.5 368.064 239.223 366.891 239.223 365.568V356.64H242.743V365.408C242.743 366.155 242.86 366.795 243.095 367.328C243.351 367.84 243.714 368.235 244.183 368.512C244.674 368.789 245.25 368.928 245.911 368.928C246.935 368.928 247.714 368.629 248.247 368.032C248.802 367.413 249.079 366.539 249.079 365.408V356.64H252.599V365.568C252.599 366.912 252.311 368.096 251.735 369.12C251.18 370.123 250.402 370.912 249.399 371.488C248.396 372.043 247.234 372.32 245.911 372.32ZM263.914 372.32C262.378 372.32 260.992 371.979 259.754 371.296C258.538 370.592 257.568 369.632 256.842 368.416C256.138 367.2 255.786 365.835 255.786 364.32C255.786 362.805 256.138 361.451 256.842 360.256C257.546 359.04 258.496 358.08 259.69 357.376C260.906 356.672 262.25 356.32 263.722 356.32C265.152 356.32 266.41 356.651 267.498 357.312C268.608 357.973 269.472 358.88 270.09 360.032C270.73 361.184 271.05 362.496 271.05 363.968C271.05 364.224 271.029 364.491 270.986 364.768C270.965 365.024 270.922 365.312 270.858 365.632H258.25V362.752H269.034L267.722 363.904C267.68 362.965 267.498 362.176 267.178 361.536C266.858 360.896 266.4 360.405 265.802 360.064C265.226 359.723 264.512 359.552 263.658 359.552C262.762 359.552 261.984 359.744 261.322 360.128C260.661 360.512 260.149 361.056 259.786 361.76C259.424 362.443 259.242 363.264 259.242 364.224C259.242 365.184 259.434 366.027 259.818 366.752C260.202 367.477 260.746 368.043 261.45 368.448C262.154 368.832 262.965 369.024 263.882 369.024C264.672 369.024 265.397 368.885 266.058 368.608C266.741 368.331 267.317 367.925 267.786 367.392L270.026 369.664C269.28 370.539 268.373 371.2 267.306 371.648C266.24 372.096 265.109 372.32 263.914 372.32ZM278.192 375.072V348.96H281.136V375.072H278.192ZM273.584 375.072V372.288H279.696V375.072H273.584ZM273.584 351.744V348.96H279.696V351.744H273.584ZM295.354 363.88V359.72H308.914V363.88H295.354ZM322.079 369.28L332.399 358.32C333.253 357.413 333.946 356.6 334.479 355.88C335.013 355.16 335.399 354.48 335.639 353.84C335.879 353.2 335.999 352.547 335.999 351.88C335.999 350.627 335.586 349.653 334.759 348.96C333.959 348.24 332.933 347.88 331.679 347.88C330.346 347.88 329.173 348.213 328.159 348.88C327.146 349.547 326.239 350.587 325.439 352L322.239 349.36C323.333 347.467 324.679 346.04 326.279 345.08C327.879 344.093 329.733 343.6 331.839 343.6C333.573 343.6 335.093 343.947 336.399 344.64C337.706 345.333 338.719 346.307 339.439 347.56C340.159 348.787 340.519 350.213 340.519 351.84C340.519 353.013 340.373 354.067 340.079 355C339.813 355.907 339.346 356.827 338.679 357.76C338.013 358.667 337.093 359.733 335.919 360.96L327.999 369.16L322.079 369.28ZM322.079 372V369.28L326.039 367.88H341.079V372H322.079ZM348.88 372L357.08 360.52L358.72 359.52C358.453 360.107 358.107 360.627 357.68 361.08C357.28 361.533 356.747 361.88 356.08 362.12C355.413 362.36 354.56 362.48 353.52 362.48C351.92 362.48 350.453 362.107 349.12 361.36C347.787 360.587 346.72 359.52 345.92 358.16C345.12 356.8 344.72 355.227 344.72 353.44C344.72 351.627 345.16 349.973 346.04 348.48C346.947 346.987 348.147 345.8 349.64 344.92C351.133 344.04 352.8 343.6 354.64 343.6C356.507 343.6 358.187 344.04 359.68 344.92C361.173 345.773 362.347 346.933 363.2 348.4C364.08 349.84 364.52 351.467 364.52 353.28C364.52 355.84 363.627 358.427 361.84 361.04L354.2 372H348.88ZM354.64 358.88C355.653 358.88 356.56 358.64 357.36 358.16C358.16 357.68 358.787 357.027 359.24 356.2C359.693 355.373 359.92 354.453 359.92 353.44C359.92 352.373 359.693 351.427 359.24 350.6C358.787 349.773 358.16 349.12 357.36 348.64C356.56 348.16 355.653 347.92 354.64 347.92C353.627 347.92 352.72 348.16 351.92 348.64C351.12 349.12 350.48 349.773 350 350.6C349.547 351.427 349.32 352.373 349.32 353.44C349.32 354.48 349.547 355.413 350 356.24C350.48 357.04 351.12 357.68 351.92 358.16C352.747 358.64 353.653 358.88 354.64 358.88ZM368.997 375.072V348.96H371.941V375.072H368.997ZM370.437 375.072V372.288H376.549V375.072H370.437ZM370.437 351.744V348.96H376.549V351.744H370.437ZM386.399 372L379.039 349.6H382.655L388.191 366.848H387.231L392.639 349.6H395.199L400.607 366.848H399.647L405.183 349.6H408.799L401.439 372H398.879L393.439 354.784H394.399L388.959 372H386.399ZM417.123 372.32C415.587 372.32 414.2 371.979 412.963 371.296C411.747 370.592 410.776 369.632 410.051 368.416C409.347 367.2 408.995 365.835 408.995 364.32C408.995 362.805 409.347 361.451 410.051 360.256C410.755 359.04 411.704 358.08 412.899 357.376C414.115 356.672 415.459 356.32 416.931 356.32C418.36 356.32 419.619 356.651 420.707 357.312C421.816 357.973 422.68 358.88 423.299 360.032C423.939 361.184 424.259 362.496 424.259 363.968C424.259 364.224 424.237 364.491 424.195 364.768C424.173 365.024 424.131 365.312 424.067 365.632H411.459V362.752H422.243L420.931 363.904C420.888 362.965 420.707 362.176 420.387 361.536C420.067 360.896 419.608 360.405 419.011 360.064C418.435 359.723 417.72 359.552 416.867 359.552C415.971 359.552 415.192 359.744 414.531 360.128C413.869 360.512 413.357 361.056 412.995 361.76C412.632 362.443 412.451 363.264 412.451 364.224C412.451 365.184 412.643 366.027 413.027 366.752C413.411 367.477 413.955 368.043 414.659 368.448C415.363 368.832 416.173 369.024 417.091 369.024C417.88 369.024 418.605 368.885 419.267 368.608C419.949 368.331 420.525 367.925 420.995 367.392L423.235 369.664C422.488 370.539 421.581 371.2 420.515 371.648C419.448 372.096 418.317 372.32 417.123 372.32ZM434.152 372.32C432.766 372.32 431.507 371.968 430.376 371.264C429.267 370.56 428.382 369.611 427.72 368.416C427.08 367.2 426.76 365.845 426.76 364.352C426.76 362.837 427.08 361.483 427.72 360.288C428.382 359.072 429.267 358.112 430.376 357.408C431.507 356.683 432.766 356.32 434.152 356.32C435.326 356.32 436.36 356.576 437.256 357.088C438.174 357.579 438.899 358.261 439.432 359.136C439.966 360.011 440.232 361.003 440.232 362.112V366.528C440.232 367.637 439.966 368.629 439.432 369.504C438.92 370.379 438.206 371.072 437.288 371.584C436.371 372.075 435.326 372.32 434.152 372.32ZM434.728 368.992C435.603 368.992 436.36 368.8 437 368.416C437.662 368.011 438.174 367.456 438.536 366.752C438.899 366.048 439.08 365.237 439.08 364.32C439.08 363.403 438.899 362.592 438.536 361.888C438.174 361.184 437.662 360.64 437 360.256C436.36 359.851 435.603 359.648 434.728 359.648C433.875 359.648 433.118 359.851 432.456 360.256C431.816 360.64 431.304 361.184 430.92 361.888C430.558 362.592 430.376 363.403 430.376 364.32C430.376 365.237 430.558 366.048 430.92 366.752C431.304 367.456 431.816 368.011 432.456 368.416C433.118 368.8 433.875 368.992 434.728 368.992ZM442.376 372H438.856V367.872L439.464 364.128L438.856 360.416V348.96H442.376V372ZM450.603 375.072V348.96H453.547V375.072H450.603ZM445.995 375.072V372.288H452.107V375.072H445.995ZM445.995 351.744V348.96H452.107V351.744H445.995Z" fill="#383838"/>
</svg>
