<svg width="200" height="178" viewBox="0 0 200 178" fill="none" xmlns="http://www.w3.org/2000/svg">
<path d="M170.537 35.2904H164.554C164.341 35.2904 164.138 35.1863 164.016 35.016C163.905 34.8457 163.895 34.6281 163.986 34.4483C164.006 34.4199 165.538 31.5532 165.862 30.1435C166.237 28.5351 166.531 26.34 165.984 22.2717C165.913 21.7608 165.821 21.1553 165.7 20.5025H159.342L160.153 34.6849C160.153 34.8457 160.102 35.0065 159.981 35.1201C159.859 35.2336 159.697 35.2998 159.524 35.2998H158.429C158.358 35.2998 158.287 35.2904 158.226 35.2714C157.882 35.1579 154.799 34.1077 154.464 32.2912C154.17 30.7206 154.444 22.5934 154.464 22.2528C154.464 22.1487 154.505 22.0447 154.566 21.9595C154.596 21.9217 157.314 17.9574 157.182 15.5826C157.07 13.4917 156.949 9.38554 156.908 7.8812H153.582C153.897 9.34769 154.14 11.0507 154.079 12.6875C153.998 14.9109 152.964 17.0302 151.808 18.7143C152.568 20.4268 153.602 21.9311 153.623 21.9595C153.684 22.0447 153.714 22.1487 153.724 22.2528C153.734 22.5934 154.008 30.7206 153.724 32.2912C153.582 33.0386 152.984 33.7293 151.929 34.3632C151.797 34.4483 151.635 34.4767 151.473 34.4483C150.662 34.3064 149.83 34.155 149.262 33.9374C148.238 33.5495 147.579 32.4993 147.579 31.2504V21.9027C147.579 21.7419 147.65 21.5905 147.782 21.477C147.812 21.4581 149.131 20.2849 150.408 18.544C150.003 17.5127 149.719 16.4247 149.769 15.5069C149.911 12.943 150.053 7.32299 150.053 7.26622C150.053 6.94454 150.337 6.69855 150.682 6.69855H152.021C151.787 5.84704 151.564 5.15637 151.432 4.759H142.773C142.377 5.92273 141.262 9.47069 141.363 12.6402C141.515 17.1627 146.372 21.4486 146.413 21.4864C146.535 21.6 146.616 21.7514 146.616 21.9122V31.2599C146.616 32.5088 145.957 33.559 144.933 33.9469C144.304 34.1834 143.341 34.3537 142.397 34.5145L141.88 34.6092C141.536 34.6659 141.211 34.4578 141.15 34.1456C141.089 33.8239 141.312 33.5211 141.647 33.4644L142.174 33.3697C143.016 33.2278 143.959 33.0575 144.466 32.8683C145.085 32.6318 145.369 31.8938 145.369 31.2693V22.1771C144.395 21.2783 140.268 17.2005 140.116 12.6875C139.974 8.62864 141.657 4.1724 141.728 3.99264C141.819 3.75611 142.053 3.60473 142.316 3.60473H151.879C152.142 3.60473 152.375 3.75611 152.467 3.99264C152.497 4.08725 152.913 5.16583 153.308 6.71747H157.527C157.871 6.71747 158.145 6.97292 158.155 7.28514C158.155 7.34191 158.297 12.9713 158.439 15.5259C158.581 18.0331 156.239 21.6946 155.722 22.4609C155.641 24.8925 155.499 30.9287 155.722 32.1019C155.874 32.944 157.506 33.786 158.571 34.1456H158.896L158.084 19.9632C158.084 19.8023 158.135 19.6415 158.257 19.528C158.379 19.4144 158.541 19.3482 158.713 19.3482H165.517C165.274 18.0426 164.99 16.595 164.706 15.1663C164.128 12.2617 163.591 9.52745 163.479 8.27857C163.317 6.37687 163.337 0.823127 163.337 0.586596C163.337 0.264914 163.621 0 163.966 0H177.442C177.787 0 178.071 0.264914 178.071 0.586596C178.071 0.823127 178.091 6.3674 177.929 8.27857C177.848 9.20577 177.533 10.9656 177.128 12.9997H186.822C187.055 12.9997 187.268 13.1133 187.369 13.3025C187.471 13.4917 187.471 13.7188 187.339 13.8985L180.393 23.7666V33.2941L183.81 33.9563C184.145 34.0226 184.368 34.3348 184.297 34.647C184.226 34.9592 183.891 35.1674 183.557 35.1011L179.643 34.3442C179.349 34.2875 179.146 34.0509 179.146 33.7671V23.5868C179.146 23.4733 179.186 23.3598 179.247 23.2652L185.666 14.1635H176.905C176.844 14.4946 176.773 14.8257 176.702 15.1663C176.388 16.7464 176.063 18.3548 175.81 19.774L178.274 23.2746C178.345 23.3692 178.375 23.4828 178.375 23.5963V33.7766C178.375 34.0509 178.162 34.2969 177.878 34.3537L176.58 34.5997C176.296 34.6565 176.012 34.524 175.891 34.278C175.292 33.0954 174.532 31.468 174.289 30.4178C173.731 28.0052 173.69 25.5264 174.157 22.1487C174.238 21.5432 174.36 20.8242 174.501 20.0389L170.182 13.908C170.06 13.7282 170.04 13.5012 170.151 13.3119C170.263 13.1227 170.476 13.0092 170.699 13.0092H175.86C176.266 10.9183 176.601 9.11116 176.682 8.19342C176.803 6.68909 176.824 2.68699 176.813 1.18265H164.584C164.584 2.68699 164.594 6.68909 164.716 8.19342C164.818 9.38554 165.355 12.0914 165.923 14.9582C166.217 16.4531 166.521 17.9858 166.775 19.3482H171.399C171.571 19.3482 171.733 19.4144 171.855 19.528C171.977 19.6415 172.037 19.8023 172.027 19.9632L171.175 34.7605C171.155 35.0728 170.881 35.3093 170.547 35.3093L170.537 35.2904ZM165.548 34.1172H169.938L170.719 20.4836H166.967C167.069 21.0796 167.16 21.6284 167.221 22.1109C167.677 25.4885 167.637 27.9674 167.089 30.38C166.846 31.4397 166.055 33.1143 165.548 34.1172ZM175.495 21.4486C175.455 21.7324 175.414 22.0068 175.374 22.2528C174.816 26.3306 175.12 28.5161 175.495 30.1245C175.688 30.9761 176.327 32.3574 176.793 33.313L177.108 33.2562V23.7288L175.495 21.4391V21.4486ZM148.826 22.1393V31.2315C148.826 31.8559 149.1 32.5939 149.729 32.8305C150.114 32.9724 150.763 33.1048 151.443 33.2278C152.041 32.8305 152.406 32.4236 152.477 32.0641C152.7 30.8814 152.558 24.8546 152.477 22.4231C152.234 22.0541 151.585 21.0418 150.976 19.8118C150.063 20.9566 149.212 21.7892 148.837 22.1393H148.826ZM171.845 14.1351L174.785 18.3169C174.998 17.2289 175.221 16.0652 175.455 14.9298C175.505 14.6649 175.556 14.4 175.607 14.1445H171.845V14.1351ZM151.28 7.84336C151.24 9.34769 151.128 13.4539 151.007 15.5448C150.976 16.0557 151.078 16.6328 151.26 17.2384C152.092 15.857 152.771 14.2486 152.822 12.6118C152.872 10.9939 152.619 9.28146 152.294 7.84336H151.28Z" fill="#199A68"/>
<path d="M163.237 50.6836C161.564 50.6836 160.6 50.0592 159.586 49.4064C159.181 49.1415 158.765 48.8671 158.258 48.6116C154.141 46.5207 129.48 41.1467 129.236 41.0994C128.76 40.9953 128.466 40.5507 128.577 40.106C128.689 39.6613 129.165 39.3869 129.642 39.491C130.666 39.7181 154.79 44.9691 159.11 47.1641C159.698 47.4668 160.174 47.779 160.6 48.0534C161.513 48.6495 162.111 49.0374 163.237 49.0374C164.362 49.0374 164.961 48.6495 165.873 48.0534C166.299 47.779 166.776 47.4668 167.364 47.1641C171.684 44.9596 195.807 39.7086 196.831 39.491C197.308 39.3869 197.785 39.6613 197.896 40.106C198.008 40.5507 197.714 40.9953 197.237 41.0994C196.983 41.1562 172.322 46.5207 168.216 48.6116C167.719 48.8671 167.293 49.1415 166.887 49.4064C165.873 50.0687 164.91 50.6836 163.237 50.6836Z" fill="#199A68"/>
<path d="M160.635 43.9481C160.554 43.9481 160.473 43.9386 160.392 43.9008C152.645 41.0624 140.051 37.7415 132.831 36.2939C132.476 36.2183 132.243 35.8871 132.324 35.556C132.405 35.2248 132.76 35.0072 133.115 35.0829C140.385 36.5399 153.071 39.8892 160.879 42.7465C161.223 42.8695 161.386 43.229 161.254 43.5507C161.152 43.7967 160.899 43.9481 160.635 43.9481Z" fill="#199A68"/>
<path d="M160.414 46.1043C160.333 46.1043 160.252 46.0949 160.181 46.0665C152.149 43.2281 139.119 39.9072 131.636 38.4597C131.271 38.3934 131.048 38.0623 131.119 37.7217C131.19 37.3811 131.544 37.1635 131.91 37.2392C139.434 38.6962 152.565 42.0455 160.647 44.9028C160.992 45.0257 161.164 45.3853 161.032 45.707C160.931 45.9529 160.677 46.1043 160.414 46.1043Z" fill="#199A68"/>
<path d="M165.859 43.9484C165.595 43.9484 165.341 43.797 165.24 43.551C165.108 43.2293 165.27 42.8698 165.615 42.7468C173.423 39.8895 186.109 36.5402 193.379 35.0832C193.744 35.017 194.089 35.2251 194.17 35.5563C194.251 35.8874 194.018 36.2185 193.663 36.2942C186.443 37.7418 173.849 41.0627 166.102 43.9011C166.021 43.9294 165.94 43.9484 165.859 43.9484Z" fill="#199A68"/>
<path d="M166.069 46.104C165.795 46.104 165.552 45.9526 165.451 45.7067C165.319 45.385 165.491 45.0254 165.836 44.9024C173.928 42.0452 187.049 38.6959 194.573 37.2389C194.928 37.1632 195.283 37.3808 195.364 37.7214C195.435 38.0525 195.212 38.3837 194.847 38.4593C187.374 39.9069 174.333 43.2278 166.302 46.0662C166.221 46.0946 166.14 46.104 166.069 46.104Z" fill="#199A68"/>
<path d="M31.9808 0.426239V4.9015H53.468V10.058H31.9808V12.7167H48.6108V31.7247H35.824C41.1882 35.6796 45.873 37.7138 55.415 40.8361C53.681 42.3972 52.2918 44.1192 51.4501 46.2575C44.8082 44.1192 38.4402 41.3091 31.9707 35.7836V47.5537H25.6026V35.8877C21.6986 38.8586 16.7806 42.6053 7.23862 46.5129C6.18404 44.5355 4.89623 42.7094 3 41.0442C8.86106 39.3222 14.7221 36.6163 21.2017 31.7247H10.2097V12.7261H25.6128V10.0674H4.85567V4.91096H25.6229V0.426239H31.991H31.9808ZM16.2432 17.2487V19.8033H25.6229V17.2487H16.2432ZM16.2432 24.2312V26.994H25.6229V24.2312H16.2432ZM31.9808 17.2487V19.8033H42.2529V17.2487H31.9808ZM31.9808 24.2312V26.994H42.2529V24.2312H31.9808Z" fill="#383838"/>
<path d="M117.214 12.4601V18.7141H97.1773C99.9659 26.7374 105.269 33.3982 111.749 38.2425C113.26 39.2833 115.044 40.4849 118.725 42.3015C116.657 43.8153 114.821 45.7927 113.26 47.9783C108.463 45.1683 99.0837 39.3873 92.9387 24.9019C87.8584 38.233 79.3203 43.8626 70.7822 48.2338C69.5553 46.1523 68.1052 44.1748 66.209 42.5569C71.7963 40.2672 77.0895 36.9274 81.3889 31.8276C85.4653 26.8793 86.7531 21.8269 87.4224 18.7046H68.5514V12.4506H88.2032C88.4871 9.12018 88.4871 5.21261 88.4871 0.62381H96.1329C96.0213 5.09907 95.8489 9.2148 95.6258 12.4506H117.225L117.214 12.4601Z" fill="#383838"/>
<path d="M30.3627 143.669L33.9219 126.648H34.6114L40.3812 138.673L46.2018 126.648H46.8811L50.0855 143.669H47.2868L45.4514 133.564L40.5942 143.669H39.854L35.0475 133.536L33.1614 143.669H30.3525H30.3627Z" fill="#383838"/>
<path d="M65.4604 133.085H68.0968V143.672H65.4604V142.565C64.3044 143.823 62.8746 143.994 62.0634 143.994C58.565 143.994 56.5674 141.278 56.5674 138.364C56.5674 134.92 59.1024 132.81 62.0938 132.81C62.9253 132.81 64.3855 133.009 65.4604 134.315V133.085ZM59.2546 138.421C59.2546 140.256 60.5018 141.789 62.4082 141.789C64.0813 141.789 65.6125 140.654 65.6125 138.44C65.6125 136.226 64.0813 135.015 62.4082 135.015C60.5018 135.015 59.2546 136.529 59.2546 138.411V138.421Z" fill="#383838"/>
<path d="M75.2246 133.085H77.8611V134.04C78.1551 133.719 78.5912 133.359 78.9664 133.16C79.4835 132.886 79.9905 132.81 80.5888 132.81C81.2378 132.81 81.9375 132.914 82.6676 133.312L81.5927 135.545C81.0046 135.195 80.5178 135.166 80.244 135.166C79.6863 135.166 79.1185 135.242 78.6013 135.743C77.8712 136.472 77.8712 137.475 77.8712 138.184V143.662H75.2348V133.075L75.2246 133.085Z" fill="#383838"/>
<path d="M90.5671 133.083V139.148C90.5671 139.782 90.5976 140.501 91.0539 141.059C91.3986 141.485 92.0172 141.787 92.7777 141.787C93.5382 141.787 94.1568 141.485 94.5015 141.059C94.9579 140.501 94.9883 139.772 94.9883 139.148V133.083H97.6247V139.223C97.6247 140.576 97.4625 141.712 96.4181 142.696C95.3939 143.651 93.9844 144.001 92.727 144.001C91.571 144.001 90.1615 143.68 89.1374 142.696C88.0929 141.712 87.9307 140.586 87.9307 139.223V133.083H90.5671Z" fill="#383838"/>
<path d="M104.743 133.085H107.38V134.069C108.515 132.886 109.813 132.81 110.452 132.81C112.551 132.81 113.444 133.794 113.788 134.248C114.224 134.825 114.488 135.554 114.488 137.191V143.681H111.851V137.796C111.851 135.109 110.777 135.034 109.773 135.034C108.586 135.034 107.38 135.185 107.38 138.61V143.691H104.743V133.103V133.085Z" fill="#383838"/>
<path d="M133.148 138.392C133.148 141.637 130.502 143.993 127.084 143.993C123.667 143.993 121.021 141.628 121.021 138.392C121.021 135.156 123.667 132.81 127.084 132.81C130.502 132.81 133.148 135.118 133.148 138.392ZM130.451 138.42C130.451 136.008 128.758 135.024 127.084 135.024C125.411 135.024 123.718 136.008 123.718 138.42C123.718 140.455 125.006 141.789 127.084 141.789C129.163 141.789 130.451 140.455 130.451 138.42Z" fill="#383838"/>
<path d="M142.309 133.083V139.148C142.309 139.782 142.34 140.501 142.796 141.059C143.141 141.485 143.759 141.787 144.52 141.787C145.28 141.787 145.899 141.485 146.244 141.059C146.7 140.501 146.73 139.772 146.73 139.148V133.083H149.367V139.223C149.367 140.576 149.205 141.712 148.16 142.696C147.136 143.651 145.727 144.001 144.469 144.001C143.313 144.001 141.904 143.68 140.88 142.696C139.835 141.712 139.673 140.586 139.673 139.223V133.083H142.309Z" fill="#383838"/>
<path d="M165.274 136.33C164.067 135.223 162.881 135.024 162.07 135.024C160.832 135.024 160.052 135.507 159.565 135.952C159.088 136.406 158.602 137.21 158.602 138.393C158.602 139.575 159.119 140.455 159.626 140.928C160.214 141.458 161.056 141.78 162.029 141.78C163.104 141.78 164.371 141.373 165.284 140.427V143.17C164.635 143.549 163.591 144.003 161.836 144.003C159.95 144.003 158.602 143.502 157.527 142.442C156.716 141.666 155.904 140.408 155.904 138.468C155.904 136.529 156.797 135.147 157.628 134.372C158.52 133.539 159.95 132.81 162.181 132.81C163.043 132.81 164.067 132.933 165.284 133.567V136.33H165.274Z" fill="#383838"/>
<path d="M171.592 125.334H174.228V133.982C175.364 132.903 176.601 132.799 177.28 132.799C179.359 132.799 180.292 133.802 180.617 134.237C181.316 135.193 181.347 136.423 181.347 137.18V143.67H178.71V137.407C178.71 136.782 178.71 136.101 178.193 135.571C177.899 135.268 177.382 135.013 176.713 135.013C175.82 135.013 175.121 135.42 174.776 135.893C174.401 136.394 174.238 137.199 174.238 138.561V143.67H171.602V125.334H171.592Z" fill="#383838"/>
<path d="M189.79 127.124C190.753 127.124 191.484 127.805 191.484 128.704C191.484 129.603 190.753 130.284 189.79 130.284C188.827 130.284 188.097 129.603 188.097 128.704C188.097 127.805 188.817 127.124 189.79 127.124ZM191.108 133.084V143.672H188.472V133.084H191.108Z" fill="#383838"/>
<path d="M15.1838 126.648C9.94127 126.648 6.13867 130.244 6.13867 135.211C6.13867 140.178 9.72832 143.735 14.8593 143.735C16.4209 143.735 18.1549 143.395 19.392 142.837L19.5339 142.77L18.7024 141.257L18.5706 141.313C17.6174 141.739 16.1978 142.004 14.8694 142.004C10.9147 142.004 8.04504 139.137 8.04504 135.201C8.04504 131.265 11.1175 128.361 15.1838 128.361C19.25 128.361 22.14 130.906 22.14 134.548C22.14 137.018 21.3389 138.607 19.899 138.645C19.4021 138.645 19.108 138.106 19.108 137.557V131.124H17.0901V132.07C16.2586 131.067 15.1432 130.906 14.4942 130.906C12.1924 130.906 10.2455 132.533 10.2455 135.173C10.2455 137.415 11.7767 139.506 14.474 139.506C15.0418 139.506 15.9849 139.355 16.8265 138.617C17.0192 138.428 17.2017 138.267 17.2524 138.163C17.445 139.421 18.3171 140.254 19.8888 140.254C21.7851 140.254 24.0362 139.09 24.0362 134.558C24.0362 130.026 20.3959 126.648 15.1838 126.648ZM14.7477 137.822C13.2774 137.822 12.3242 136.639 12.3242 135.23C12.3242 133.82 13.2774 132.618 14.7477 132.618C16.0356 132.618 17.2118 133.47 17.2118 135.249C17.2118 137.027 16.0356 137.822 14.7477 137.822Z" fill="#383838"/>
<path d="M47.2304 96.7526L56.5695 68.6433H64.6513L50.9316 109.554H44.4215L35.2142 81.7944L26.0068 109.554H19.4258L5.70605 68.6339H13.7878L23.127 96.7432L32.1518 69.9774H38.2867L47.2405 96.7432L47.2304 96.7526Z" fill="#383838"/>
<path d="M102.723 104.518C98.4643 108.956 93.2623 110.186 88.3747 110.186C76.9771 110.186 70.1426 103.288 70.1426 94.8679C70.1426 86.4474 77.474 79.3231 87.4925 79.3231C96.0712 79.3231 104.153 84.347 104.153 95.7477H77.839C77.839 100.422 81.9154 104.102 88.7398 104.102C92.6844 104.102 95.6352 102.759 98.3223 100.478L102.703 104.509L102.723 104.518ZM78.2345 90.9036H96.274C95.0876 86.3433 90.7577 85.0566 87.5027 85.0566C84.2477 85.0566 79.8569 86.3433 78.2345 90.9036Z" fill="#383838"/>
<path d="M146.254 104.518C141.996 108.955 136.794 110.185 131.906 110.185C120.508 110.185 113.674 103.288 113.674 94.8677C113.674 86.4472 121.005 79.3229 131.024 79.3229C139.602 79.3229 147.684 84.3468 147.684 95.7476H121.37C121.37 100.421 125.447 104.102 132.271 104.102C136.216 104.102 139.166 102.758 141.854 100.478L146.234 104.509L146.254 104.518ZM121.766 90.9034H139.805C138.619 86.3431 134.289 85.0564 131.034 85.0564C127.779 85.0564 123.388 86.3431 121.766 90.9034Z" fill="#383838"/>
<path d="M177.025 79.9762H185.542V80.8561L174.52 93.5436L179.286 100.441C180.919 102.664 181.912 103.714 184.234 103.714C184.924 103.714 186.769 103.497 188.027 102.617C188.027 102.617 188.382 104.008 189.173 105.503C189.964 106.988 190.755 107.631 190.755 107.631C188.128 110.025 184.741 110.205 183.17 110.205C178.343 110.205 175.656 107.754 173.455 104.831L167.067 95.2466V109.571H159.36V67.3076H167.067V92.2096L177.025 79.9951V79.9762Z" fill="#383838"/>
<path d="M0.504 174.776L5.148 169.844C5.532 169.436 5.844 169.07 6.084 168.746C6.324 168.422 6.498 168.116 6.606 167.828C6.714 167.54 6.768 167.246 6.768 166.946C6.768 166.382 6.582 165.944 6.21 165.632C5.85 165.308 5.388 165.146 4.824 165.146C4.224 165.146 3.696 165.296 3.24 165.596C2.784 165.896 2.376 166.364 2.016 167L0.576 165.812C1.068 164.96 1.674 164.318 2.394 163.886C3.114 163.442 3.948 163.22 4.896 163.22C5.676 163.22 6.36 163.376 6.948 163.688C7.536 164 7.992 164.438 8.316 165.002C8.64 165.554 8.802 166.196 8.802 166.928C8.802 167.456 8.736 167.93 8.604 168.35C8.484 168.758 8.274 169.172 7.974 169.592C7.674 170 7.26 170.48 6.732 171.032L3.168 174.722L0.504 174.776ZM0.504 176V174.776L2.286 174.146H9.054V176H0.504ZM16.0203 176.18C15.0723 176.18 14.2023 175.916 13.4103 175.388C12.6303 174.848 12.0063 174.092 11.5383 173.12C11.0703 172.148 10.8363 171.002 10.8363 169.682C10.8363 168.362 11.0643 167.222 11.5203 166.262C11.9883 165.29 12.6123 164.54 13.3923 164.012C14.1723 163.484 15.0363 163.22 15.9843 163.22C16.9443 163.22 17.8143 163.484 18.5943 164.012C19.3743 164.54 19.9923 165.29 20.4483 166.262C20.9163 167.222 21.1503 168.368 21.1503 169.7C21.1503 171.02 20.9163 172.166 20.4483 173.138C19.9923 174.11 19.3743 174.86 18.5943 175.388C17.8263 175.916 16.9683 176.18 16.0203 176.18ZM15.9843 174.236C16.6083 174.236 17.1483 174.068 17.6043 173.732C18.0603 173.396 18.4143 172.892 18.6663 172.22C18.9303 171.548 19.0623 170.702 19.0623 169.682C19.0623 168.674 18.9303 167.834 18.6663 167.162C18.4143 166.49 18.0543 165.992 17.5863 165.668C17.1303 165.332 16.5963 165.164 15.9843 165.164C15.3723 165.164 14.8323 165.332 14.3643 165.668C13.9083 165.992 13.5543 166.49 13.3023 167.162C13.0503 167.822 12.9243 168.662 12.9243 169.682C12.9243 170.702 13.0503 171.548 13.3023 172.22C13.5543 172.892 13.9083 173.396 14.3643 173.732C14.8323 174.068 15.3723 174.236 15.9843 174.236ZM22.7572 174.776L27.4012 169.844C27.7852 169.436 28.0972 169.07 28.3372 168.746C28.5772 168.422 28.7512 168.116 28.8592 167.828C28.9672 167.54 29.0212 167.246 29.0212 166.946C29.0212 166.382 28.8352 165.944 28.4632 165.632C28.1032 165.308 27.6412 165.146 27.0772 165.146C26.4772 165.146 25.9492 165.296 25.4932 165.596C25.0372 165.896 24.6292 166.364 24.2692 167L22.8292 165.812C23.3212 164.96 23.9272 164.318 24.6472 163.886C25.3672 163.442 26.2012 163.22 27.1492 163.22C27.9292 163.22 28.6132 163.376 29.2012 163.688C29.7892 164 30.2452 164.438 30.5692 165.002C30.8932 165.554 31.0552 166.196 31.0552 166.928C31.0552 167.456 30.9892 167.93 30.8572 168.35C30.7372 168.758 30.5272 169.172 30.2272 169.592C29.9272 170 29.5132 170.48 28.9852 171.032L25.4212 174.722L22.7572 174.776ZM22.7572 176V174.776L24.5392 174.146H31.3072V176H22.7572ZM37.4095 176.18C36.5695 176.18 35.8135 175.988 35.1415 175.604C34.4695 175.208 33.9355 174.68 33.5395 174.02C33.1555 173.36 32.9635 172.628 32.9635 171.824C32.9635 170.672 33.3655 169.508 34.1695 168.332L37.6075 163.4H40.0015L36.3295 168.566L35.5735 169.016C35.6935 168.74 35.8435 168.506 36.0235 168.314C36.2155 168.11 36.4615 167.954 36.7615 167.846C37.0735 167.738 37.4575 167.684 37.9135 167.684C38.6455 167.684 39.3055 167.858 39.8935 168.206C40.4935 168.542 40.9735 169.016 41.3335 169.628C41.6935 170.228 41.8735 170.936 41.8735 171.752C41.8735 172.568 41.6755 173.312 41.2795 173.984C40.8835 174.656 40.3435 175.19 39.6595 175.586C38.9875 175.982 38.2375 176.18 37.4095 176.18ZM37.4095 174.236C37.8655 174.236 38.2735 174.128 38.6335 173.912C38.9935 173.696 39.2755 173.402 39.4795 173.03C39.6955 172.646 39.8035 172.22 39.8035 171.752C39.8035 171.284 39.6955 170.864 39.4795 170.492C39.2755 170.12 38.9935 169.832 38.6335 169.628C38.2735 169.412 37.8655 169.304 37.4095 169.304C36.9535 169.304 36.5455 169.412 36.1855 169.628C35.8255 169.844 35.5435 170.138 35.3395 170.51C35.1355 170.87 35.0335 171.284 35.0335 171.752C35.0335 172.22 35.1355 172.646 35.3395 173.03C35.5435 173.402 35.8255 173.696 36.1855 173.912C36.5455 174.128 36.9535 174.236 37.4095 174.236ZM45.4289 176.18C45.0449 176.18 44.7269 176.054 44.4749 175.802C44.2349 175.538 44.1149 175.22 44.1149 174.848C44.1149 174.464 44.2349 174.146 44.4749 173.894C44.7269 173.642 45.0449 173.516 45.4289 173.516C45.8129 173.516 46.1249 173.642 46.3649 173.894C46.6169 174.146 46.7429 174.464 46.7429 174.848C46.7429 175.22 46.6169 175.538 46.3649 175.802C46.1249 176.054 45.8129 176.18 45.4289 176.18ZM53.8822 176.18C52.9342 176.18 52.0642 175.916 51.2722 175.388C50.4922 174.848 49.8682 174.092 49.4002 173.12C48.9322 172.148 48.6982 171.002 48.6982 169.682C48.6982 168.362 48.9262 167.222 49.3822 166.262C49.8502 165.29 50.4742 164.54 51.2542 164.012C52.0342 163.484 52.8982 163.22 53.8462 163.22C54.8062 163.22 55.6762 163.484 56.4562 164.012C57.2362 164.54 57.8542 165.29 58.3102 166.262C58.7782 167.222 59.0122 168.368 59.0122 169.7C59.0122 171.02 58.7782 172.166 58.3102 173.138C57.8542 174.11 57.2362 174.86 56.4562 175.388C55.6882 175.916 54.8302 176.18 53.8822 176.18ZM53.8462 174.236C54.4702 174.236 55.0102 174.068 55.4662 173.732C55.9222 173.396 56.2762 172.892 56.5282 172.22C56.7922 171.548 56.9242 170.702 56.9242 169.682C56.9242 168.674 56.7922 167.834 56.5282 167.162C56.2762 166.49 55.9162 165.992 55.4482 165.668C54.9922 165.332 54.4582 165.164 53.8462 165.164C53.2342 165.164 52.6942 165.332 52.2262 165.668C51.7702 165.992 51.4162 166.49 51.1642 167.162C50.9122 167.822 50.7862 168.662 50.7862 169.682C50.7862 170.702 50.9122 171.548 51.1642 172.22C51.4162 172.892 51.7702 173.396 52.2262 173.732C52.6942 174.068 53.2342 174.236 53.8462 174.236ZM61.7503 176L66.3403 164.66H68.3923L63.9103 176H61.7503ZM59.9503 165.254V163.4H68.3923V164.66L67.5103 165.254H59.9503ZM70.6612 176.18C70.2772 176.18 69.9592 176.054 69.7072 175.802C69.4672 175.538 69.3472 175.22 69.3472 174.848C69.3472 174.464 69.4672 174.146 69.7072 173.894C69.9592 173.642 70.2772 173.516 70.6612 173.516C71.0452 173.516 71.3572 173.642 71.5972 173.894C71.8492 174.146 71.9752 174.464 71.9752 174.848C71.9752 175.22 71.8492 175.538 71.5972 175.802C71.3572 176.054 71.0452 176.18 70.6612 176.18ZM74.136 174.776L78.78 169.844C79.164 169.436 79.476 169.07 79.716 168.746C79.956 168.422 80.13 168.116 80.238 167.828C80.346 167.54 80.4 167.246 80.4 166.946C80.4 166.382 80.214 165.944 79.842 165.632C79.482 165.308 79.02 165.146 78.456 165.146C77.856 165.146 77.328 165.296 76.872 165.596C76.416 165.896 76.008 166.364 75.648 167L74.208 165.812C74.7 164.96 75.306 164.318 76.026 163.886C76.746 163.442 77.58 163.22 78.528 163.22C79.308 163.22 79.992 163.376 80.58 163.688C81.168 164 81.624 164.438 81.948 165.002C82.272 165.554 82.434 166.196 82.434 166.928C82.434 167.456 82.368 167.93 82.236 168.35C82.116 168.758 81.906 169.172 81.606 169.592C81.306 170 80.892 170.48 80.364 171.032L76.8 174.722L74.136 174.776ZM74.136 176V174.776L75.918 174.146H82.686V176H74.136ZM88.6622 176.18C87.7982 176.18 87.0482 176.024 86.4122 175.712C85.7762 175.4 85.2782 174.968 84.9182 174.416C84.5702 173.852 84.3962 173.216 84.3962 172.508C84.3962 171.944 84.5042 171.428 84.7202 170.96C84.9482 170.48 85.2722 170.072 85.6922 169.736C86.1242 169.4 86.6342 169.16 87.2222 169.016L87.1682 169.592C86.6882 169.46 86.2802 169.244 85.9442 168.944C85.6202 168.644 85.3742 168.29 85.2062 167.882C85.0382 167.474 84.9542 167.048 84.9542 166.604C84.9542 165.932 85.1102 165.344 85.4222 164.84C85.7462 164.324 86.1902 163.922 86.7542 163.634C87.3182 163.346 87.9542 163.202 88.6622 163.202C89.3822 163.202 90.0182 163.346 90.5702 163.634C91.1342 163.922 91.5722 164.324 91.8842 164.84C92.2082 165.344 92.3702 165.932 92.3702 166.604C92.3702 167.048 92.2862 167.474 92.1182 167.882C91.9502 168.29 91.7042 168.644 91.3802 168.944C91.0562 169.244 90.6482 169.46 90.1562 169.592L90.1022 169.016C90.7022 169.16 91.2122 169.4 91.6322 169.736C92.0522 170.072 92.3702 170.48 92.5862 170.96C92.8142 171.428 92.9282 171.944 92.9282 172.508C92.9282 173.216 92.7542 173.852 92.4062 174.416C92.0582 174.968 91.5602 175.4 90.9122 175.712C90.2762 176.024 89.5262 176.18 88.6622 176.18ZM88.6622 174.308C89.1062 174.308 89.4962 174.218 89.8322 174.038C90.1802 173.858 90.4502 173.612 90.6422 173.3C90.8462 172.988 90.9482 172.634 90.9482 172.238C90.9482 171.83 90.8462 171.476 90.6422 171.176C90.4502 170.864 90.1802 170.618 89.8322 170.438C89.4962 170.258 89.1062 170.168 88.6622 170.168C88.2182 170.168 87.8222 170.258 87.4742 170.438C87.1382 170.618 86.8682 170.864 86.6642 171.176C86.4722 171.476 86.3762 171.83 86.3762 172.238C86.3762 172.634 86.4722 172.988 86.6642 173.3C86.8682 173.612 87.1382 173.858 87.4742 174.038C87.8222 174.218 88.2182 174.308 88.6622 174.308ZM88.6622 168.548C89.1902 168.548 89.6222 168.38 89.9582 168.044C90.2942 167.708 90.4622 167.276 90.4622 166.748C90.4622 166.22 90.2942 165.794 89.9582 165.47C89.6222 165.134 89.1902 164.966 88.6622 164.966C88.1462 164.966 87.7142 165.134 87.3662 165.47C87.0302 165.794 86.8622 166.22 86.8622 166.748C86.8622 167.276 87.0302 167.708 87.3662 168.044C87.7142 168.38 88.1462 168.548 88.6622 168.548ZM94.9736 177.344V165.92H96.2616V177.344H94.9736ZM95.6036 177.344V176.126H98.2776V177.344H95.6036ZM95.6036 167.138V165.92H98.2776V167.138H95.6036ZM102.531 176V166.48H104.141V176H102.531ZM99.339 167.67V166.2H107.333V167.67H99.339ZM110.196 176.14C109.626 176.14 109.118 176.014 108.67 175.762C108.231 175.51 107.886 175.165 107.634 174.726C107.391 174.278 107.27 173.765 107.27 173.186V169.28H108.81V173.116C108.81 173.443 108.861 173.723 108.964 173.956C109.076 174.18 109.234 174.353 109.44 174.474C109.654 174.595 109.906 174.656 110.196 174.656C110.644 174.656 110.984 174.525 111.218 174.264C111.46 173.993 111.582 173.611 111.582 173.116V169.28H113.122V173.186C113.122 173.774 112.996 174.292 112.744 174.74C112.501 175.179 112.16 175.524 111.722 175.776C111.283 176.019 110.774 176.14 110.196 176.14ZM118.072 176.14C117.4 176.14 116.794 175.991 116.252 175.692C115.72 175.384 115.296 174.964 114.978 174.432C114.67 173.9 114.516 173.303 114.516 172.64C114.516 171.977 114.67 171.385 114.978 170.862C115.286 170.33 115.702 169.91 116.224 169.602C116.756 169.294 117.344 169.14 117.988 169.14C118.614 169.14 119.164 169.285 119.64 169.574C120.126 169.863 120.504 170.26 120.774 170.764C121.054 171.268 121.194 171.842 121.194 172.486C121.194 172.598 121.185 172.715 121.166 172.836C121.157 172.948 121.138 173.074 121.11 173.214H115.594V171.954H120.312L119.738 172.458C119.72 172.047 119.64 171.702 119.5 171.422C119.36 171.142 119.16 170.927 118.898 170.778C118.646 170.629 118.334 170.554 117.96 170.554C117.568 170.554 117.228 170.638 116.938 170.806C116.649 170.974 116.425 171.212 116.266 171.52C116.108 171.819 116.028 172.178 116.028 172.598C116.028 173.018 116.112 173.387 116.28 173.704C116.448 174.021 116.686 174.269 116.994 174.446C117.302 174.614 117.657 174.698 118.058 174.698C118.404 174.698 118.721 174.637 119.01 174.516C119.309 174.395 119.561 174.217 119.766 173.984L120.746 174.978C120.42 175.361 120.023 175.65 119.556 175.846C119.09 176.042 118.595 176.14 118.072 176.14ZM124.319 177.344V165.92H125.607V177.344H124.319ZM122.303 177.344V176.126H124.977V177.344H122.303ZM122.303 167.138V165.92H124.977V167.138H122.303ZM130.843 173.158V171.702H135.589V173.158H130.843ZM140.309 174.776L144.953 169.844C145.337 169.436 145.649 169.07 145.889 168.746C146.129 168.422 146.303 168.116 146.411 167.828C146.519 167.54 146.573 167.246 146.573 166.946C146.573 166.382 146.387 165.944 146.015 165.632C145.655 165.308 145.193 165.146 144.629 165.146C144.029 165.146 143.501 165.296 143.045 165.596C142.589 165.896 142.181 166.364 141.821 167L140.381 165.812C140.873 164.96 141.479 164.318 142.199 163.886C142.919 163.442 143.753 163.22 144.701 163.22C145.481 163.22 146.165 163.376 146.753 163.688C147.341 164 147.797 164.438 148.121 165.002C148.445 165.554 148.607 166.196 148.607 166.928C148.607 167.456 148.541 167.93 148.409 168.35C148.289 168.758 148.079 169.172 147.779 169.592C147.479 170 147.065 170.48 146.537 171.032L142.973 174.722L140.309 174.776ZM140.309 176V174.776L142.091 174.146H148.859V176H140.309ZM152.369 176L156.059 170.834L156.797 170.384C156.677 170.648 156.521 170.882 156.329 171.086C156.149 171.29 155.909 171.446 155.609 171.554C155.309 171.662 154.925 171.716 154.457 171.716C153.737 171.716 153.077 171.548 152.477 171.212C151.877 170.864 151.397 170.384 151.037 169.772C150.677 169.16 150.497 168.452 150.497 167.648C150.497 166.832 150.695 166.088 151.091 165.416C151.499 164.744 152.039 164.21 152.711 163.814C153.383 163.418 154.133 163.22 154.961 163.22C155.801 163.22 156.557 163.418 157.229 163.814C157.901 164.198 158.429 164.72 158.813 165.38C159.209 166.028 159.407 166.76 159.407 167.576C159.407 168.728 159.005 169.892 158.201 171.068L154.763 176H152.369ZM154.961 170.096C155.417 170.096 155.825 169.988 156.185 169.772C156.545 169.556 156.827 169.262 157.031 168.89C157.235 168.518 157.337 168.104 157.337 167.648C157.337 167.168 157.235 166.742 157.031 166.37C156.827 165.998 156.545 165.704 156.185 165.488C155.825 165.272 155.417 165.164 154.961 165.164C154.505 165.164 154.097 165.272 153.737 165.488C153.377 165.704 153.089 165.998 152.873 166.37C152.669 166.742 152.567 167.168 152.567 167.648C152.567 168.116 152.669 168.536 152.873 168.908C153.089 169.268 153.377 169.556 153.737 169.772C154.109 169.988 154.517 170.096 154.961 170.096ZM161.393 177.344V165.92H162.681V177.344H161.393ZM162.023 177.344V176.126H164.697V177.344H162.023ZM162.023 167.138V165.92H164.697V167.138H162.023ZM169.006 176L165.786 166.2H167.368L169.79 173.746H169.37L171.736 166.2H172.856L175.222 173.746H174.802L177.224 166.2H178.806L175.586 176H174.466L172.086 168.468H172.506L170.126 176H169.006ZM182.448 176.14C181.776 176.14 181.169 175.991 180.628 175.692C180.096 175.384 179.671 174.964 179.354 174.432C179.046 173.9 178.892 173.303 178.892 172.64C178.892 171.977 179.046 171.385 179.354 170.862C179.662 170.33 180.077 169.91 180.6 169.602C181.132 169.294 181.72 169.14 182.364 169.14C182.989 169.14 183.54 169.285 184.016 169.574C184.501 169.863 184.879 170.26 185.15 170.764C185.43 171.268 185.57 171.842 185.57 172.486C185.57 172.598 185.56 172.715 185.542 172.836C185.532 172.948 185.514 173.074 185.486 173.214H179.97V171.954H184.688L184.114 172.458C184.095 172.047 184.016 171.702 183.876 171.422C183.736 171.142 183.535 170.927 183.274 170.778C183.022 170.629 182.709 170.554 182.336 170.554C181.944 170.554 181.603 170.638 181.314 170.806C181.024 170.974 180.8 171.212 180.642 171.52C180.483 171.819 180.404 172.178 180.404 172.598C180.404 173.018 180.488 173.387 180.656 173.704C180.824 174.021 181.062 174.269 181.37 174.446C181.678 174.614 182.032 174.698 182.434 174.698C182.779 174.698 183.096 174.637 183.386 174.516C183.684 174.395 183.936 174.217 184.142 173.984L185.122 174.978C184.795 175.361 184.398 175.65 183.932 175.846C183.465 176.042 182.97 176.14 182.448 176.14ZM189.898 176.14C189.291 176.14 188.741 175.986 188.246 175.678C187.761 175.37 187.373 174.955 187.084 174.432C186.804 173.9 186.664 173.307 186.664 172.654C186.664 171.991 186.804 171.399 187.084 170.876C187.373 170.344 187.761 169.924 188.246 169.616C188.741 169.299 189.291 169.14 189.898 169.14C190.411 169.14 190.864 169.252 191.256 169.476C191.657 169.691 191.975 169.989 192.208 170.372C192.441 170.755 192.558 171.189 192.558 171.674V173.606C192.558 174.091 192.441 174.525 192.208 174.908C191.984 175.291 191.671 175.594 191.27 175.818C190.869 176.033 190.411 176.14 189.898 176.14ZM190.15 174.684C190.533 174.684 190.864 174.6 191.144 174.432C191.433 174.255 191.657 174.012 191.816 173.704C191.975 173.396 192.054 173.041 192.054 172.64C192.054 172.239 191.975 171.884 191.816 171.576C191.657 171.268 191.433 171.03 191.144 170.862C190.864 170.685 190.533 170.596 190.15 170.596C189.777 170.596 189.445 170.685 189.156 170.862C188.876 171.03 188.652 171.268 188.484 171.576C188.325 171.884 188.246 172.239 188.246 172.64C188.246 173.041 188.325 173.396 188.484 173.704C188.652 174.012 188.876 174.255 189.156 174.432C189.445 174.6 189.777 174.684 190.15 174.684ZM193.496 176H191.956V174.194L192.222 172.556L191.956 170.932V165.92H193.496V176ZM197.095 177.344V165.92H198.383V177.344H197.095ZM195.079 177.344V176.126H197.753V177.344H195.079ZM195.079 167.138V165.92H197.753V167.138H195.079Z" fill="#383838"/>
</svg>
