<svg width="315" height="222" viewBox="0 0 315 222" fill="none" xmlns="http://www.w3.org/2000/svg">
<path d="M296 6.58051C298.761 6.58051 301 9.5274 301 13.161C301 9.5274 303.239 6.58051 306 6.58051C303.239 6.58051 301 3.63362 301 0C301 3.63362 298.761 6.58051 296 6.58051Z" fill="#FFBBD0"/>
<path d="M311.229 206.695C311.291 205.378 311.145 204.051 310.804 202.762L313.859 199.965L312.047 196.657L308.271 197.854C308.209 197.779 308.155 197.699 308.091 197.625C307.196 196.602 306.172 195.774 305.073 195.128L305.438 191.132L301.933 190L299.98 193.523C298.619 193.418 297.247 193.554 295.922 193.928L293.514 191.015L290.292 192.841L291.306 196.474C291.236 196.538 291.161 196.591 291.091 196.656C290.108 197.579 289.318 198.64 288.705 199.781L284.841 199.733L284 203.436L287.228 205.006C287.138 206.453 287.294 207.915 287.69 209.327L284.755 212.155L286.613 215.437L290.267 214.172C290.296 214.206 290.319 214.243 290.349 214.276C291.229 215.283 292.233 216.101 293.311 216.743L293.277 221.143L296.855 222L298.478 218.381C299.859 218.485 301.251 218.34 302.594 217.951L305.34 220.96L308.493 219.011L307.269 215.312C307.295 215.289 307.323 215.269 307.349 215.245C308.366 214.289 309.175 213.186 309.796 211.999L313.629 212.305L314.661 208.654L311.229 206.695ZM304.92 212.366C301.545 215.534 296.265 215.215 293.152 211.655C290.038 208.095 290.251 202.622 293.627 199.454C297.002 196.286 302.281 196.605 305.395 200.165C308.508 203.725 308.296 209.198 304.92 212.366Z" fill="#91C7F9"/>
<path d="M0 183.581C2.76106 183.581 5 186.527 5 190.161C5 186.527 7.23918 183.581 10 183.581C7.23894 183.581 5 180.634 5 177C5 180.634 2.76106 183.581 0 183.581Z" fill="#FFBBD0"/>
<path d="M40.4493 119.909C42.7265 119.543 44.2756 117.4 43.9094 115.123C43.5432 112.846 41.4003 111.297 39.1231 111.663C36.846 112.029 35.2969 114.172 35.6631 116.449C36.0293 118.726 38.1722 120.276 40.4493 119.909Z" fill="#87E6C8"/>
</svg>
