<svg width="908" height="179" viewBox="0 0 908 179" fill="none" xmlns="http://www.w3.org/2000/svg">
<path d="M902.628 154.137C902.724 152.074 902.496 149.996 901.963 147.979L906.745 143.601L903.907 138.421L897.997 140.295C897.899 140.178 897.816 140.053 897.715 139.937C896.313 138.335 894.711 137.04 892.99 136.028L893.562 129.772L888.074 128L885.017 133.515C882.886 133.35 880.739 133.563 878.664 134.149L874.894 129.589L869.851 132.448L871.438 138.136C871.328 138.235 871.21 138.319 871.102 138.421C869.562 139.866 868.326 141.526 867.366 143.313L861.317 143.237L860 149.034L865.054 151.492C864.913 153.758 865.157 156.046 865.776 158.257L861.183 162.685L864.09 167.823L869.81 165.841C869.856 165.895 869.893 165.952 869.939 166.005C871.317 167.58 872.889 168.862 874.576 169.867L874.523 176.755L880.124 178.097L882.665 172.431C884.828 172.594 887.007 172.366 889.109 171.757L893.408 176.469L898.344 173.417L896.428 167.627C896.468 167.59 896.513 167.559 896.553 167.521C898.146 166.026 899.412 164.298 900.383 162.439L906.385 162.919L908 157.203L902.628 154.137ZM892.751 163.015C887.467 167.974 879.202 167.475 874.328 161.902C869.453 156.329 869.786 147.759 875.071 142.8C880.355 137.841 888.62 138.34 893.494 143.914C898.368 149.487 898.035 158.055 892.751 163.015Z" fill="#91C7F9"/>
<path d="M99.439 50.0673C103.801 49.3658 106.769 45.2608 106.067 40.8986C105.366 36.5364 101.261 33.5688 96.8985 34.2703C92.5363 34.9718 89.5687 39.0768 90.2702 43.439C90.9718 47.8013 95.0767 50.7689 99.439 50.0673Z" fill="#87E6C8"/>
<path d="M0 166.432C4.79674 166.432 8.68642 171.552 8.68642 177.864C8.68642 171.552 12.5765 166.432 17.3728 166.432C12.5761 166.432 8.68642 161.313 8.68642 155C8.68642 161.313 4.79674 166.432 0 166.432Z" fill="#FFBBD0"/>
<path d="M821 9.13706C824.834 9.13706 827.942 13.2287 827.942 18.2741C827.942 13.2287 831.051 9.13706 834.885 9.13706C831.051 9.13706 827.942 5.04543 827.942 0C827.943 5.04543 824.834 9.13706 821 9.13706Z" fill="#FCCA65"/>
</svg>
