<svg width="191" height="45" viewBox="0 0 191 45" fill="none" xmlns="http://www.w3.org/2000/svg">
<path d="M31.0352 31.6241H26.4423C26.2731 31.6241 26.1227 31.5286 26.035 31.3785C25.9472 31.2216 25.941 31.0306 26.0162 30.8669C26.0287 30.8396 27.2004 28.2748 27.4511 27.0128C27.733 25.5735 27.9711 23.6089 27.5451 19.9595C27.4887 19.5025 27.4197 18.9636 27.332 18.3769H22.4571L23.0837 31.0716C23.09 31.2148 23.0461 31.3581 22.9521 31.4604C22.8581 31.5627 22.7328 31.6241 22.6012 31.6241H21.7616C21.7052 31.6241 21.6551 31.6173 21.605 31.5968C21.3355 31.4945 18.9733 30.5531 18.7164 28.9297C18.4908 27.5244 18.6976 20.2528 18.7101 19.939C18.7101 19.8435 18.7414 19.7548 18.7853 19.673C18.8041 19.6389 20.8906 16.0917 20.7904 13.9635C20.7027 12.0944 20.6149 8.41765 20.5836 7.067H18.0271C18.2652 8.37672 18.4532 9.90471 18.4093 11.3713C18.3529 13.3632 17.5509 15.2595 16.6674 16.7671C17.2501 18.3019 18.0459 19.6525 18.0584 19.673C18.1086 19.7548 18.1336 19.8435 18.1336 19.939C18.1399 20.246 18.3529 27.5176 18.1274 28.9297C18.0208 29.5982 17.5572 30.2189 16.7488 30.7851C16.6486 30.8601 16.5233 30.8874 16.398 30.8601C15.7776 30.7373 15.1385 30.5941 14.7061 30.4031C13.9229 30.0552 13.4154 29.1138 13.4154 28.0019V19.6389C13.4154 19.4956 13.4718 19.3524 13.5657 19.2569C13.5845 19.2364 14.5996 18.1927 15.5834 16.6306C15.2701 15.7029 15.0508 14.7343 15.0884 13.9089C15.1949 11.6169 15.3077 6.58268 15.3077 6.52811C15.3077 6.24161 15.527 6.01651 15.7902 6.01651H16.8178C16.6423 5.25251 16.4731 4.63858 16.3666 4.27704H9.72472C9.41769 5.3139 8.56552 8.49268 8.64698 11.3304C8.76603 15.3755 12.488 19.216 12.5256 19.2501C12.6196 19.3524 12.676 19.4888 12.676 19.6321V27.9951C12.676 29.107 12.1684 30.0484 11.3852 30.3963C10.909 30.6077 10.1633 30.7578 9.43649 30.901L9.04174 30.9829C8.77857 31.0375 8.52793 30.8533 8.4778 30.5668C8.42767 30.2803 8.59685 30.0074 8.86002 29.9529L9.26104 29.871C9.90644 29.7414 10.6333 29.5982 11.0218 29.4208C11.498 29.2093 11.711 28.5545 11.711 27.9883V19.8435C10.9591 19.0318 7.80108 15.3891 7.68203 11.3509C7.5755 7.72186 8.86629 3.73133 8.92268 3.5608C8.99161 3.34933 9.17332 3.2129 9.37383 3.2129H16.7112C16.9118 3.2129 17.0935 3.34933 17.1624 3.5608C17.1875 3.64265 17.5008 4.61129 17.8078 5.99604H21.041C21.3042 5.99604 21.5172 6.22115 21.5235 6.50765C21.5235 6.5554 21.6363 11.5964 21.7428 13.8884C21.8493 16.1327 20.051 19.407 19.6562 20.0959C19.5936 22.2719 19.4871 27.6745 19.6562 28.7318C19.7753 29.4822 21.0285 30.2394 21.8431 30.5668H22.0874L21.4608 17.8721C21.4546 17.7289 21.4984 17.5856 21.5924 17.4833C21.6864 17.381 21.8117 17.3196 21.9433 17.3196H27.1628C26.9749 16.1463 26.7556 14.8502 26.5362 13.5746C26.0914 10.9757 25.6778 8.52679 25.5964 7.40808C25.471 5.70272 25.4898 0.736728 25.4898 0.525264C25.4898 0.238764 25.7029 0.00683594 25.9723 0.00683594H36.3111C36.5743 0.00683594 36.7936 0.238764 36.7936 0.525264C36.7936 0.736728 36.8061 5.70272 36.6871 7.40808C36.6244 8.24029 36.38 9.81604 36.073 11.6374H43.5107C43.6861 11.6374 43.849 11.7397 43.9368 11.9102C44.0245 12.0807 44.012 12.2854 43.918 12.4491L38.5857 21.2828V29.8096L41.2048 30.4031C41.468 30.4645 41.6309 30.7373 41.5808 31.0238C41.5244 31.3035 41.2737 31.4877 41.0106 31.4331L38.0092 30.7578C37.7836 30.71 37.627 30.4918 37.627 30.2462V21.1396C37.627 21.0373 37.652 20.9349 37.7084 20.8531L42.6335 12.7015H35.9101C35.86 12.9948 35.8098 13.295 35.7597 13.5951C35.5216 15.0071 35.271 16.4533 35.0767 17.7152L36.969 20.8463C37.0192 20.9349 37.0505 21.0304 37.0505 21.1328V30.2394C37.0505 30.4849 36.8876 30.7032 36.6683 30.751L35.672 30.9761C35.4527 31.0238 35.2334 30.9079 35.1394 30.6896C34.682 29.6323 34.093 28.1725 33.9113 27.2311C33.4852 25.0687 33.4538 22.8518 33.8047 19.8299C33.8674 19.291 33.9551 18.6498 34.0679 17.9403L30.7532 12.4559C30.6592 12.2922 30.6467 12.0876 30.7344 11.917C30.8222 11.7465 30.9788 11.6442 31.1605 11.6442H35.1143C35.4276 9.77511 35.6845 8.15161 35.7472 7.33304C35.8412 5.98922 35.8537 2.40798 35.8537 1.05733H26.4736C26.4736 2.40115 26.4799 5.98922 26.5801 7.33304C26.6553 8.39718 27.0689 10.8256 27.5075 13.3905C27.733 14.7343 27.9711 16.0986 28.1591 17.3264H31.7056C31.8372 17.3264 31.9626 17.3878 32.0565 17.4901C32.1505 17.5925 32.1944 17.7357 32.1881 17.879L31.5365 31.1261C31.5239 31.4058 31.3109 31.6241 31.054 31.6241H31.0352ZM27.2067 30.5804H30.5778L31.1793 18.3769H28.297C28.3784 18.909 28.4411 19.4001 28.4912 19.8299C28.8421 22.8518 28.8108 25.0687 28.3847 27.2311C28.1967 28.1793 27.5889 29.6732 27.2004 30.5804H27.2067ZM34.8386 19.2432C34.801 19.5025 34.7697 19.7412 34.7446 19.9663C34.3185 23.6158 34.5504 25.5803 34.8386 27.0197C34.989 27.7837 35.4777 29.0183 35.8349 29.8778L36.073 29.8233V21.2965L34.8386 19.2501V19.2432ZM14.3741 19.864V28.0088C14.3741 28.5681 14.5871 29.2298 15.0633 29.4413C15.3578 29.5709 15.8591 29.6936 16.3792 29.796C16.8428 29.4413 17.1248 29.0729 17.1749 28.7523C17.3441 27.695 17.2313 22.2924 17.1749 20.1164C16.987 19.789 16.4857 18.8817 16.022 17.7766C15.3202 18.8067 14.6686 19.5434 14.3803 19.8572L14.3741 19.864ZM32.0315 12.6947L34.2872 16.4328C34.4439 15.4573 34.6256 14.4205 34.7948 13.3973C34.8324 13.1585 34.8762 12.9266 34.9138 12.6947H32.0252H32.0315ZM16.2538 7.067C16.2225 8.41765 16.1348 12.0944 16.0471 13.9635C16.0283 14.4205 16.1035 14.9389 16.2413 15.4778C16.8804 14.2363 17.4005 12.8038 17.4381 11.3372C17.482 9.89107 17.2815 8.35625 17.0308 7.067H16.2538Z" fill="#198E61"/>
<path d="M25.4572 44.6111C24.2479 44.6111 23.5523 44.0859 22.8255 43.5333C22.531 43.3082 22.2302 43.0831 21.8668 42.8648C18.8967 41.0981 1.0952 36.5823 0.913489 36.5346C0.568862 36.4459 0.35582 36.0707 0.437278 35.6955C0.518735 35.3203 0.863362 35.0884 1.20799 35.1771C1.94737 35.3613 19.3604 39.7884 22.4871 41.6438C22.9132 41.8962 23.2578 42.1554 23.5649 42.3873C24.2228 42.8853 24.6614 43.2195 25.4697 43.2195C26.278 43.2195 26.7104 42.8921 27.3746 42.3873C27.6816 42.1554 28.0262 41.8894 28.4523 41.6438C31.5728 39.7884 48.9858 35.3681 49.7314 35.1771C50.0761 35.0884 50.4207 35.3203 50.5022 35.6955C50.5836 36.0707 50.3706 36.4459 50.026 36.5346C49.8442 36.5823 32.0427 41.0981 29.0726 42.8648C28.7092 43.0831 28.4084 43.3082 28.114 43.5333C27.3808 44.0859 26.6916 44.6111 25.4823 44.6111H25.4572Z" fill="#198E61"/>
<path d="M23.5773 38.9364C23.5209 38.9364 23.4583 38.9227 23.4019 38.9023C17.8064 36.5148 8.72077 33.718 3.5075 32.4969C3.2506 32.4356 3.08142 32.1559 3.13781 31.8762C3.19421 31.5965 3.45111 31.4123 3.70801 31.4737C8.95887 32.7016 18.1134 35.5188 23.7528 37.9268C23.9971 38.0291 24.1224 38.3361 24.0222 38.6021C23.947 38.8068 23.7653 38.9364 23.5773 38.9364Z" fill="#198E61"/>
<path d="M23.4142 40.7566C23.3578 40.7566 23.3014 40.743 23.245 40.7225C17.449 38.335 8.03755 35.5383 2.64257 34.3172C2.38567 34.2558 2.21649 33.983 2.26661 33.6965C2.32301 33.41 2.57364 33.2326 2.83681 33.2872C8.26939 34.515 17.7498 37.3323 23.5834 39.7402C23.834 39.8426 23.9593 40.1427 23.8653 40.4156C23.7901 40.627 23.6084 40.7566 23.4142 40.7566Z" fill="#198E61"/>
<path d="M27.3403 38.9367C27.146 38.9367 26.9643 38.8139 26.8954 38.6024C26.8014 38.3364 26.9205 38.0294 27.1648 37.9271C32.8042 35.5191 41.9587 32.7019 47.2096 31.474C47.4727 31.4127 47.7234 31.59 47.7798 31.8765C47.8362 32.1562 47.6733 32.4359 47.4101 32.4973C42.1968 33.7183 33.1049 36.5151 27.5157 38.9026C27.4593 38.9299 27.3967 38.9367 27.3403 38.9367Z" fill="#198E61"/>
<path d="M27.5019 40.7576C27.3076 40.7576 27.1259 40.628 27.0507 40.4166C26.9567 40.1437 27.0821 39.8436 27.3327 39.7412C33.1726 37.3333 42.6467 34.516 48.0792 33.2882C48.3361 33.2268 48.593 33.411 48.6494 33.6975C48.7058 33.9771 48.5367 34.2568 48.2735 34.3182C42.8785 35.5392 33.4608 38.336 27.6711 40.7235C27.6147 40.744 27.5583 40.7576 27.5019 40.7576Z" fill="#198E61"/>
<path d="M70.6072 1.99316V4.21695H79.7554V6.77498H70.6072V8.09151H77.6877V17.5324H72.2426C74.5234 19.4969 76.5222 20.5065 80.5826 22.0618C79.8432 22.8394 79.2542 23.6921 78.897 24.7562C76.0711 23.6921 73.3579 22.3005 70.6009 19.5583V25.4043H67.894V19.6061C66.2335 21.0795 64.1407 22.9417 60.0741 24.8858C59.623 23.9036 59.0778 22.9963 58.2695 22.1709C60.7634 21.3182 63.2572 19.9744 66.0142 17.5392H61.3336V8.09833H67.894V6.7818H59.0528V4.22377H67.894V1.99999H70.6009L70.6072 1.99316ZM63.9026 10.3494V11.6182H67.894V10.3494H63.9026ZM63.9026 13.8147V15.1858H67.894V13.8147H63.9026ZM70.6072 10.3494V11.6182H74.9808V10.3494H70.6072ZM70.6072 13.8147V15.1858H74.9808V13.8147H70.6072Z" fill="#111111"/>
<path d="M106.906 7.96699V11.0707H98.3719C99.5624 15.0544 101.818 18.3697 104.575 20.7708C105.214 21.2892 105.979 21.8827 107.545 22.7899C106.668 23.5403 105.885 24.5226 105.214 25.6072C103.172 24.2088 99.1802 21.337 96.561 14.1472C94.3992 20.7708 90.7587 23.5676 87.1245 25.7368C86.6044 24.6999 85.9841 23.7176 85.1758 22.9195C87.5506 21.7804 89.8126 20.1228 91.6422 17.592C93.3779 15.1363 93.923 12.626 94.2113 11.0707H86.1783V7.96699H94.5434C94.6624 6.30939 94.6624 4.3721 94.6624 2.09375H97.9207C97.8706 4.31753 97.8017 6.36396 97.7077 7.96699H106.906Z" fill="#111111"/>
<path d="M69.7871 44.4278L71.5102 34.8164H71.8423L74.637 41.6037L77.4504 34.8164H77.7762L79.3239 44.4278H77.9704L77.0807 38.7251L74.7309 44.4278H74.3738L72.0491 38.7046L71.1406 44.4278H69.7871Z" fill="#111111"/>
<path d="M86.7594 38.4528H88.0376V44.4284H86.7594V43.8076C86.2017 44.517 85.5062 44.6125 85.1177 44.6125C83.4259 44.6125 82.4609 43.0777 82.4609 41.4338C82.4609 39.4896 83.6891 38.2959 85.1302 38.2959C85.5375 38.2959 86.2393 38.4119 86.7594 39.1486V38.4528ZM83.758 41.461C83.758 42.4979 84.3595 43.3642 85.2806 43.3642C86.0889 43.3642 86.8346 42.723 86.8346 41.4747C86.8346 40.2264 86.0952 39.5442 85.2806 39.5442C84.3595 39.5442 83.758 40.3969 83.758 41.461Z" fill="#111111"/>
<path d="M91.4824 38.4528H92.7607V38.9917C92.9048 38.8075 93.1116 38.6097 93.2933 38.4937C93.5439 38.3368 93.7883 38.2959 94.0765 38.2959C94.3898 38.2959 94.7282 38.3505 95.0791 38.5824L94.559 39.8444C94.2708 39.6465 94.0389 39.6329 93.9073 39.6329C93.6379 39.6329 93.3622 39.6738 93.1116 39.9603C92.7607 40.3696 92.7607 40.9426 92.7607 41.3383V44.4352H91.4824V38.4596V38.4528Z" fill="#111111"/>
<path d="M98.9072 38.4521V41.8697C98.9072 42.2244 98.9197 42.6337 99.1453 42.9475C99.3145 43.1862 99.6152 43.3567 99.9786 43.3567C100.342 43.3567 100.643 43.1862 100.812 42.9475C101.038 42.6337 101.05 42.2244 101.05 41.8697V38.4521H102.328V41.9174C102.328 42.6814 102.247 43.3226 101.739 43.8752C101.244 44.4141 100.568 44.6119 99.9536 44.6119C99.3959 44.6119 98.7129 44.4277 98.2179 43.8752C97.7104 43.3226 97.6289 42.6814 97.6289 41.9174V38.4521H98.9072Z" fill="#111111"/>
<path d="M105.762 38.4528H107.04V39.0053C107.586 38.3368 108.212 38.2959 108.525 38.2959C109.54 38.2959 109.973 38.8484 110.142 39.1076C110.349 39.4351 110.48 39.8444 110.48 40.7653V44.4284H109.202V41.1063C109.202 39.5851 108.682 39.5442 108.193 39.5442C107.623 39.5442 107.034 39.6329 107.034 41.5634V44.4284H105.756V38.4528H105.762Z" fill="#111111"/>
<path d="M119.506 41.4474C119.506 43.2755 118.228 44.6125 116.573 44.6125C114.919 44.6125 113.635 43.2824 113.635 41.4474C113.635 39.6124 114.913 38.2959 116.573 38.2959C118.234 38.2959 119.506 39.5988 119.506 41.4474ZM118.203 41.461C118.203 40.0968 117.382 39.5442 116.573 39.5442C115.765 39.5442 114.944 40.0968 114.944 41.461C114.944 42.607 115.571 43.3642 116.573 43.3642C117.576 43.3642 118.203 42.6139 118.203 41.461Z" fill="#111111"/>
<path d="M123.936 38.4521V41.8697C123.936 42.2244 123.949 42.6337 124.175 42.9475C124.344 43.1862 124.645 43.3567 125.008 43.3567C125.371 43.3567 125.672 43.1862 125.841 42.9475C126.067 42.6337 126.079 42.2244 126.079 41.8697V38.4521H127.358V41.9174C127.358 42.6814 127.276 43.3226 126.769 43.8752C126.274 44.4141 125.597 44.6119 124.983 44.6119C124.425 44.6119 123.742 44.4277 123.247 43.8752C122.74 43.3226 122.658 42.6814 122.658 41.9174V38.4521H123.936Z" fill="#111111"/>
<path d="M135.053 40.279C134.464 39.6582 133.893 39.5423 133.499 39.5423C132.897 39.5423 132.521 39.8151 132.283 40.0675C132.051 40.3267 131.813 40.777 131.813 41.4455C131.813 42.114 132.064 42.6119 132.308 42.878C132.596 43.1781 132.997 43.3623 133.467 43.3623C133.987 43.3623 134.601 43.1372 135.046 42.5983V44.1467C134.733 44.3582 134.225 44.6174 133.38 44.6174C132.471 44.6174 131.813 44.3377 131.293 43.7374C130.905 43.2941 130.51 42.5915 130.51 41.4932C130.51 40.395 130.942 39.6173 131.343 39.1807C131.775 38.7101 132.465 38.3008 133.549 38.3008C133.969 38.3008 134.464 38.369 135.046 38.7237V40.2858L135.053 40.279Z" fill="#111111"/>
<path d="M138.1 34.0771H139.378V38.9613C139.923 38.3542 140.525 38.2928 140.851 38.2928C141.853 38.2928 142.311 38.859 142.467 39.1045C142.806 39.6434 142.818 40.3392 142.818 40.7621V44.4252H141.54V40.8917C141.54 40.537 141.54 40.155 141.289 39.8549C141.145 39.6844 140.901 39.5411 140.575 39.5411C140.143 39.5411 139.804 39.7662 139.635 40.0391C139.453 40.3256 139.372 40.7758 139.372 41.5466V44.4252H138.094V34.0771H138.1Z" fill="#111111"/>
<path d="M146.909 35.0889C147.379 35.0889 147.73 35.4709 147.73 35.9825C147.73 36.4941 147.379 36.8761 146.909 36.8761C146.439 36.8761 146.088 36.4941 146.088 35.9825C146.088 35.4709 146.439 35.0889 146.909 35.0889ZM147.548 38.4518V44.4274H146.27V38.4518H147.548Z" fill="#111111"/>
<path d="M62.4459 34.8174C59.9082 34.8174 58.0723 36.8501 58.0723 39.6469C58.0723 42.4437 59.8079 44.4628 62.2892 44.4628C63.0474 44.4628 63.8808 44.2718 64.4823 43.9581L64.5512 43.9239L64.144 43.0644L64.0813 43.0986C63.6239 43.3373 62.9346 43.4874 62.2892 43.4874C60.3781 43.4874 58.9871 41.8707 58.9871 39.6469C58.9871 37.4231 60.4721 35.786 62.4396 35.786C64.4071 35.786 65.8044 37.2253 65.8044 39.2786C65.8044 40.6701 65.4159 41.5706 64.7204 41.591C64.4823 41.591 64.3382 41.2841 64.3382 40.9771V37.3413H63.3607V37.8733C62.9597 37.3072 62.4208 37.2185 62.1075 37.2185C60.9985 37.2185 60.0523 38.1326 60.0523 39.6265C60.0523 40.8952 60.7917 42.0685 62.095 42.0685C62.3707 42.0685 62.8281 41.9867 63.2354 41.5637C63.3294 41.4546 63.4171 41.3659 63.4422 41.3045C63.5362 42.0139 63.956 42.4846 64.7204 42.4846C65.6353 42.4846 66.7255 41.8298 66.7255 39.2717C66.7255 36.7137 64.9648 34.8037 62.4396 34.8037L62.4459 34.8174ZM62.2328 41.1203C61.5248 41.1203 61.0611 40.4518 61.0611 39.6606C61.0611 38.8693 61.5248 38.1871 62.2328 38.1871C62.8532 38.1871 63.4234 38.6715 63.4234 39.6742C63.4234 40.677 62.8532 41.1272 62.2328 41.1272V41.1203Z" fill="#111111"/>
<path d="M130.01 19.1151L133.939 5.30859H137.341L131.564 25.3977H128.82L124.941 11.7617L121.062 25.3977H118.293L112.516 5.30859H115.918L119.847 19.1151L123.644 5.97027H126.226L129.998 19.1151H130.01Z" fill="#111111"/>
<path d="M153.368 22.9336C151.576 25.1165 149.389 25.7168 147.328 25.7168C142.528 25.7168 139.658 22.3265 139.658 18.1996C139.658 14.0726 142.741 10.5664 146.958 10.5664C150.573 10.5664 153.97 13.0358 153.97 18.6293H142.898C142.898 20.9281 144.608 22.7358 147.484 22.7358C149.145 22.7358 150.385 22.0741 151.52 20.9554L153.368 22.9336ZM143.061 16.2486H150.655C150.154 14.0112 148.337 13.3768 146.964 13.3768C145.592 13.3768 143.75 14.0112 143.061 16.2486Z" fill="#111111"/>
<path d="M171.692 22.9336C169.9 25.1165 167.713 25.7168 165.652 25.7168C160.852 25.7168 157.982 22.3265 157.982 18.1996C157.982 14.0726 161.065 10.5664 165.289 10.5664C168.898 10.5664 172.3 13.0358 172.3 18.6293H161.228C161.228 20.9281 162.939 22.7358 165.815 22.7358C167.475 22.7358 168.716 22.0741 169.85 20.9554L171.699 22.9336H171.692ZM161.385 16.2486H168.979C168.478 14.0112 166.661 13.3768 165.289 13.3768C163.916 13.3768 162.074 14.0112 161.385 16.2486Z" fill="#111111"/>
<path d="M184.628 10.8803H188.212V11.31L183.569 17.538L185.574 20.9283C186.257 22.0197 186.683 22.5381 187.654 22.5381C187.942 22.5381 188.719 22.429 189.246 21.9992C189.246 21.9992 189.396 22.6814 189.728 23.4181C190.06 24.1548 190.392 24.4617 190.392 24.4617C189.283 25.635 187.861 25.7237 187.203 25.7237C185.173 25.7237 184.039 24.5163 183.117 23.0838L180.429 18.377V25.4099H177.184V4.65234H180.429V16.8831L184.621 10.8871L184.628 10.8803Z" fill="#111111"/>
</svg>
