<svg width="240" height="49" fill="none" xmlns="http://www.w3.org/2000/svg"><path d="M38.678 34.233h-5.802a.62.62 0 01-.514-.266.536.536 0 01-.024-.554c.016-.03 1.496-2.806 1.813-4.173.356-1.558.657-3.685.118-7.636A57.616 57.616 0 0034 19.89h-6.158l.791 13.745a.535.535 0 01-.166.421.653.653 0 01-.443.177h-1.061a.582.582 0 01-.198-.03c-.34-.11-3.325-1.13-3.65-2.887-.284-1.522-.023-9.395-.007-9.735 0-.103.04-.2.095-.288.024-.037 2.66-3.877 2.533-6.182-.11-2.023-.222-6.004-.261-7.467h-3.23c.3 1.418.538 3.073.483 4.66-.071 2.157-1.085 4.21-2.2 5.843a21.927 21.927 0 001.757 3.146.486.486 0 01.095.288c.008.333.277 8.206-.008 9.735-.135.724-.72 1.396-1.742 2.009-.127.081-.285.11-.443.081-.784-.133-1.591-.288-2.137-.495-.99-.377-1.631-1.396-1.631-2.6v-9.055c0-.155.071-.31.19-.413.024-.022 1.306-1.152 2.549-2.844-.396-1.004-.673-2.053-.626-2.947.135-2.481.277-7.932.277-7.991 0-.31.278-.554.61-.554h1.298a29.265 29.265 0 00-.57-1.883h-8.39c-.388 1.122-1.465 4.564-1.362 7.637.15 4.38 4.852 8.538 4.9 8.574a.57.57 0 01.19.414v9.055c0 1.204-.641 2.223-1.63 2.6-.602.229-1.544.391-2.463.546l-.498.089c-.333.06-.65-.14-.713-.45-.063-.31.15-.606.483-.665l.507-.089c.815-.14 1.733-.295 2.224-.487.602-.23.87-.938.87-1.551v-8.82c-.95-.878-4.939-4.822-5.09-9.194-.134-3.93 1.497-8.25 1.568-8.435a.603.603 0 01.57-.377h9.27c.253 0 .483.148.57.377.031.089.427 1.137.815 2.637h4.085c.332 0 .601.243.61.554 0 .051.142 5.51.276 7.991.135 2.43-2.137 5.975-2.636 6.721-.079 2.356-.213 8.206 0 9.35.15.813 1.734 1.633 2.763 1.987h.309l-.792-13.745a.534.534 0 01.166-.42.653.653 0 01.444-.178h6.593c-.237-1.27-.514-2.674-.791-4.055-.562-2.814-1.085-5.465-1.187-6.676-.159-1.847-.135-7.224-.135-7.453 0-.31.269-.561.61-.561h13.06c.333 0 .61.251.61.561 0 .23.016 5.606-.134 7.453-.08.9-.388 2.607-.776 4.579h9.396c.222 0 .428.11.538.295a.538.538 0 01-.023.584l-6.737 9.564v9.233l3.309.642c.332.067.538.362.475.672-.071.303-.388.503-.72.443l-3.792-.73a.573.573 0 01-.483-.555v-9.86c0-.11.032-.221.103-.31l6.222-8.826h-8.494l-.19.968c-.3 1.528-.617 3.094-.863 4.46l2.39 3.39c.064.097.104.2.104.31v9.86a.58.58 0 01-.483.555l-1.259.244a.62.62 0 01-.673-.31c-.577-1.145-1.322-2.726-1.551-3.745-.538-2.341-.578-4.742-.135-8.014.08-.583.19-1.278.333-2.046l-4.188-5.938a.538.538 0 01-.024-.583.615.615 0 01.539-.296h4.995c.396-2.024.72-3.781.8-4.668.118-1.455.134-5.332.134-6.795h-11.85c0 1.455.008 5.34.134 6.795.095 1.153.618 3.782 1.172 6.559.285 1.455.586 2.932.823 4.262h4.48c.167 0 .325.066.444.177.118.11.174.266.166.42l-.823 14.344c-.016.303-.285.54-.61.54h-.023zm-4.836-1.13H38.1l.76-13.213h-3.642c.103.576.182 1.108.246 1.573.443 3.272.403 5.672-.135 8.014-.237 1.026-1.005 2.644-1.496 3.626h.008zm9.642-12.275c-.048.28-.088.54-.12.783-.538 3.951-.245 6.078.12 7.637.19.827.807 2.164 1.258 3.095l.3-.06v-9.232l-1.559-2.216v-.007zM17.63 21.5v8.819c0 .605.27 1.322.87 1.55.373.141 1.006.274 1.663.385.586-.384.942-.783 1.006-1.13.213-1.145.07-6.994 0-9.35a22.901 22.901 0 01-1.457-2.534 21.06 21.06 0 01-2.074 2.253l-.008.007zm22.307-7.762l2.85 4.047c.198-1.056.427-2.179.641-3.287.047-.258.103-.51.15-.76H39.93h.008zM20.005 7.644c-.04 1.463-.15 5.444-.261 7.467-.024.495.07 1.056.245 1.64.807-1.344 1.464-2.895 1.512-4.483.055-1.566-.198-3.228-.515-4.624h-.981zM31.63 48.296c-1.528 0-2.406-.57-3.325-1.167a13.015 13.015 0 00-1.21-.724C23.341 44.492.852 39.602.623 39.55c-.436-.096-.705-.503-.602-.909.103-.406.538-.657.974-.561.934.2 22.932 4.993 26.882 7.002.538.273.974.554 1.362.805.83.539 1.385.9 2.406.9 1.021 0 1.567-.354 2.407-.9.387-.251.823-.54 1.361-.805 3.942-2.01 25.94-6.795 26.883-7.002.435-.096.87.155.973.561.103.406-.166.813-.602.909-.229.051-22.718 4.94-26.47 6.854-.46.236-.84.48-1.212.724-.926.598-1.796 1.167-3.324 1.167h-.032z" fill="#199A68"/><path d="M29.253 42.15a.776.776 0 01-.221-.036c-7.07-2.585-18.547-5.614-25.133-6.936-.325-.066-.538-.369-.467-.672.071-.303.396-.502.72-.436 6.634 1.33 18.199 4.38 25.323 6.987.309.111.467.444.34.732a.615.615 0 01-.562.361zm-.201 1.972a.721.721 0 01-.214-.037C21.516 41.5 9.626 38.472 2.81 37.15c-.324-.067-.538-.362-.475-.672.072-.31.388-.503.72-.443 6.864 1.329 18.84 4.38 26.21 6.987.317.11.475.435.357.73a.613.613 0 01-.57.37zm4.953-1.972a.588.588 0 01-.562-.361.556.556 0 01.34-.731c7.125-2.608 18.69-5.658 25.323-6.987.333-.067.65.125.72.436.072.302-.134.605-.466.672-6.586 1.322-18.072 4.35-25.133 6.935a.584.584 0 01-.222.037zm.205 1.972a.613.613 0 01-.57-.37c-.118-.294.04-.62.357-.73 7.378-2.608 19.347-5.658 26.21-6.987a.61.61 0 01.72.443c.071.303-.142.605-.475.672-6.816 1.322-18.713 4.35-26.027 6.935a.72.72 0 01-.214.037z" fill="#199A68"/><path d="M88.674 2.15v2.407h11.558v2.77H88.674v1.425h8.945v10.222H90.74c2.882 2.127 5.407 3.22 10.536 4.904-.934.843-1.678 1.766-2.129 2.918-3.57-1.152-6.998-2.659-10.48-5.628v6.33h-3.42V21.22c-2.098 1.595-4.742 3.611-9.88 5.716-.57-1.063-1.258-2.046-2.28-2.94 3.151-.923 6.302-2.378 9.785-5.014h-5.913V8.76h8.288V7.334h-11.17v-2.77h11.17V2.158h3.42l.007-.008zm-8.47 9.047v1.374h5.043v-1.374h-5.043zm0 3.752v1.485h5.043v-1.485h-5.043zm8.47-3.752v1.374H94.2v-1.374h-5.526zm0 3.752v1.485H94.2v-1.485h-5.526zm45.847-6.329v3.36h-10.782c1.504 4.314 4.354 7.903 7.837 10.503.807.561 1.773 1.204 3.752 2.186-1.108.813-2.098 1.876-2.945 3.05-2.58-1.513-7.623-4.623-10.931-12.408-2.731 7.172-7.331 10.2-11.922 12.549-.657-1.123-1.44-2.186-2.462-3.05 3-1.234 5.858-3.029 8.17-5.769 2.192-2.659 2.881-5.377 3.245-7.06h-10.148V8.62h10.568c.15-1.795.15-3.892.15-6.36h4.116c-.063 2.409-.15 4.624-.269 6.36h11.621zM87.623 48.097L89.8 37.69h.42l3.53 7.35 3.554-7.35h.412l1.955 10.407h-1.71l-1.124-6.175-2.968 6.175h-.451L90.48 41.9l-1.148 6.197h-1.71zm21.45-6.47h1.615v6.47h-1.615v-.672c-.705.768-1.583.871-2.074.871-2.137 0-3.356-1.661-3.356-3.441 0-2.105 1.551-3.398 3.372-3.398.514 0 1.401.126 2.058.923v-.753zm-3.792 3.257c0 1.123.76 2.06 1.924 2.06 1.021 0 1.963-.694 1.963-2.045 0-1.352-.934-2.09-1.963-2.09-1.164 0-1.924.923-1.924 2.075zm9.758-3.257h1.615v.583c.182-.199.443-.413.673-.539.316-.17.625-.214.989-.214.396 0 .824.06 1.267.31l-.657 1.367a1.543 1.543 0 00-.823-.23c-.341 0-.689.045-1.006.355-.443.443-.443 1.064-.443 1.492v3.353h-1.615v-6.477zm9.386 0v3.7c0 .384.016.828.301 1.167.214.259.594.443 1.053.443.459 0 .839-.184 1.053-.443.285-.34.301-.783.301-1.167v-3.7h1.614v3.752c0 .827-.102 1.521-.744 2.12-.625.583-1.48.797-2.256.797-.704 0-1.567-.2-2.192-.797-.642-.599-.744-1.293-.744-2.12v-3.752h1.614zm8.657 0h1.615v.598c.689-.724 1.48-.768 1.876-.768 1.282 0 1.829.598 2.042.879.262.355.428.798.428 1.795v3.966h-1.615V44.5c0-1.647-.657-1.691-1.274-1.691-.721 0-1.465.096-1.465 2.186v3.102h-1.615v-6.47h.008zm17.353 3.243c0 1.979-1.615 3.426-3.705 3.426s-3.712-1.44-3.712-3.427c0-1.986 1.614-3.412 3.712-3.412s3.705 1.41 3.705 3.412zm-1.647.014c0-1.477-1.037-2.075-2.058-2.075s-2.058.598-2.058 2.075c0 1.24.792 2.06 2.058 2.06 1.267 0 2.058-.812 2.058-2.06zm7.257-3.257v3.7c0 .384.015.828.3 1.167.214.259.594.443 1.053.443.459 0 .839-.184 1.053-.443.285-.34.301-.783.301-1.167v-3.7h1.615v3.752c0 .827-.103 1.521-.744 2.12-.626.583-1.481.797-2.257.797-.704 0-1.567-.2-2.192-.797-.641-.599-.744-1.293-.744-2.12v-3.752h1.615zm14.038 1.979c-.744-.672-1.465-.797-1.963-.797-.76 0-1.235.295-1.536.568-.293.28-.594.768-.594 1.492s.317 1.263.626 1.551c.364.325.87.525 1.464.525.657 0 1.433-.244 1.995-.828v1.677c-.396.229-1.037.51-2.106.51-1.148 0-1.979-.303-2.636-.953-.491-.48-.989-1.241-.989-2.43 0-1.19.546-2.031 1.053-2.504.546-.51 1.417-.953 2.786-.953.53 0 1.156.074 1.892.458v1.692l.008-.008zm3.857-6.714h1.614v5.288c.689-.657 1.449-.724 1.861-.724 1.266 0 1.844.613 2.042.879.427.583.443 1.337.443 1.795v3.966h-1.615V44.27c0-.384 0-.798-.316-1.123-.182-.184-.491-.34-.903-.34-.546 0-.973.244-1.187.54-.23.31-.333.797-.333 1.632v3.117h-1.614V36.892h.008zm11.117 1.093c.593 0 1.036.413 1.036.967s-.443.968-1.036.968c-.594 0-1.037-.414-1.037-.968 0-.553.443-.967 1.037-.967zm.807 3.641v6.47h-1.615v-6.47h1.615zM78.36 37.69c-3.207 0-5.526 2.202-5.526 5.23 0 3.028 2.193 5.214 5.327 5.214.958 0 2.011-.207 2.771-.547l.087-.036-.515-.931-.079.037c-.578.258-1.448.42-2.264.42-2.414 0-4.171-1.75-4.171-4.157 0-2.408 1.876-4.18 4.361-4.18 2.486 0 4.251 1.558 4.251 3.78 0 1.508-.49 2.482-1.37 2.505-.3 0-.482-.333-.482-.665v-3.937h-1.235V41c-.507-.613-1.187-.709-1.583-.709-1.401 0-2.597.99-2.597 2.608 0 1.373.934 2.644 2.581 2.644.348 0 .926-.089 1.44-.547.12-.118.23-.214.262-.28.119.768.649 1.277 1.615 1.277 1.155 0 2.533-.709 2.533-3.478 0-2.77-2.225-4.838-5.415-4.838l.008.015zm-.27 6.825c-.894 0-1.48-.724-1.48-1.58 0-.857.586-1.596 1.48-1.596.784 0 1.504.525 1.504 1.61 0 1.086-.72 1.573-1.504 1.573v-.007zm85.626-23.828l4.964-14.949h4.298L165.68 27.49h-3.468l-4.899-14.765-4.9 14.764h-3.499l-7.299-21.75h4.299l4.963 14.948 4.797-14.232h3.261l4.766 14.232h.015zm29.502 4.136c-2.263 2.363-5.026 3.013-7.63 3.013-6.064 0-9.69-3.67-9.69-8.14 0-4.468 3.895-8.264 9.222-8.264 4.568 0 8.858 2.674 8.858 8.73h-13.987c0 2.49 2.161 4.446 5.794 4.446 2.098 0 3.665-.716 5.098-1.927l2.335 2.142zm-13.021-7.239h9.594c-.633-2.422-2.929-3.109-4.663-3.109-1.733 0-4.06.687-4.931 3.11zm36.178 7.239c-2.264 2.363-5.027 3.013-7.631 3.013-6.064 0-9.689-3.67-9.689-8.14 0-4.468 3.895-8.264 9.23-8.264 4.559 0 8.858 2.674 8.858 8.73h-13.988c0 2.49 2.161 4.446 5.795 4.446 2.097 0 3.665-.716 5.098-1.927l2.335 2.142h-.008zm-13.022-7.239h9.594c-.633-2.422-2.929-3.109-4.662-3.109-1.734 0-4.061.687-4.932 3.11zm29.366-5.811h4.527v.465l-5.865 6.744 2.533 3.67c.863 1.182 1.401 1.743 2.628 1.743.364 0 1.346-.118 2.011-.583 0 0 .19.738.609 1.536.42.798.839 1.13.839 1.13-1.401 1.27-3.198 1.367-4.029 1.367-2.565 0-3.998-1.308-5.161-2.859l-3.396-5.096v7.615h-4.101V5.03h4.101v13.243l5.296-6.493.008-.007z" fill="#fff"/></svg>