<svg width="185" height="191" viewBox="0 0 185 191" fill="none" xmlns="http://www.w3.org/2000/svg">
<path d="M159.15 33.3131H153.503C153.302 33.3131 153.11 33.2149 152.995 33.0541C152.89 32.8934 152.88 32.688 152.967 32.5183C152.986 32.4915 154.431 29.7853 154.737 28.4546C155.092 26.9363 155.369 24.8643 154.852 21.0239C154.785 20.5416 154.699 19.97 154.584 19.3538H148.583L149.348 32.7416C149.348 32.8934 149.3 33.0452 149.186 33.1524C149.071 33.2596 148.918 33.3221 148.755 33.3221H147.721C147.654 33.3221 147.587 33.3131 147.53 33.2953C147.204 33.1881 144.294 32.1968 143.978 30.482C143.701 28.9994 143.959 21.3276 143.978 21.006C143.978 20.9078 144.017 20.8096 144.074 20.7292C144.103 20.6934 146.668 16.9513 146.544 14.7096C146.438 12.7358 146.324 8.85969 146.285 7.43964H143.146C143.442 8.82397 143.672 10.4316 143.615 11.9767C143.538 14.0755 142.562 16.076 141.47 17.6658C142.188 19.2823 143.165 20.7024 143.184 20.7292C143.241 20.8096 143.27 20.9078 143.28 21.006C143.289 21.3276 143.548 28.9994 143.28 30.482C143.146 31.1875 142.581 31.8395 141.585 32.4379C141.461 32.5183 141.308 32.5451 141.155 32.5183C140.389 32.3843 139.604 32.2414 139.068 32.036C138.101 31.6698 137.479 30.6785 137.479 29.4995V20.6756C137.479 20.5238 137.546 20.3809 137.67 20.2737C137.699 20.2558 138.943 19.1484 140.149 17.505C139.767 16.5315 139.499 15.5045 139.546 14.6381C139.68 12.2178 139.814 6.9127 139.814 6.85911C139.814 6.55546 140.082 6.32325 140.408 6.32325H141.671C141.451 5.51944 141.241 4.86747 141.116 4.49236H132.942C132.568 5.59089 131.515 8.94007 131.611 11.932C131.755 16.2011 136.34 20.2469 136.378 20.2826C136.493 20.3898 136.57 20.5327 136.57 20.6845V29.5085C136.57 30.6874 135.947 31.6787 134.981 32.0449C134.387 32.2682 133.478 32.429 132.588 32.5808L132.099 32.6701C131.774 32.7237 131.468 32.5272 131.41 32.2325C131.353 31.9288 131.563 31.643 131.879 31.5894L132.377 31.5001C133.171 31.3662 134.062 31.2054 134.54 31.0268C135.124 30.8035 135.392 30.1069 135.392 29.5174V20.9346C134.473 20.0861 130.577 16.2368 130.434 11.9767C130.3 8.1452 131.889 3.93863 131.956 3.76894C132.042 3.54566 132.262 3.40276 132.511 3.40276H141.537C141.786 3.40276 142.006 3.54566 142.093 3.76894C142.121 3.85825 142.514 4.8764 142.887 6.34111H146.869C147.195 6.34111 147.453 6.58225 147.463 6.87698C147.463 6.93056 147.597 12.2446 147.731 14.656C147.865 17.0228 145.653 20.4791 145.165 21.2025C145.089 23.4978 144.955 29.1959 145.165 30.3034C145.309 31.0982 146.85 31.8931 147.855 32.2325H148.161L147.396 18.8447C147.396 18.6929 147.443 18.541 147.558 18.4339C147.673 18.3267 147.826 18.2642 147.989 18.2642H154.412C154.182 17.0317 153.914 15.6652 153.646 14.3166C153.101 11.5748 152.593 8.99366 152.488 7.81475C152.335 6.01959 152.354 0.777009 152.354 0.553731C152.354 0.250072 152.622 0 152.947 0H165.669C165.994 0 166.262 0.250072 166.262 0.553731C166.262 0.777009 166.281 6.01066 166.128 7.81475C166.052 8.69 165.755 10.3512 165.372 12.2714H174.523C174.743 12.2714 174.944 12.3786 175.04 12.5572C175.136 12.7358 175.136 12.9502 175.011 13.1198L168.454 22.435V31.4287L171.68 32.0539C171.996 32.1164 172.207 32.4111 172.14 32.7058C172.073 33.0006 171.757 33.197 171.441 33.1345L167.746 32.42C167.468 32.3664 167.277 32.1432 167.277 31.8752V22.2653C167.277 22.1582 167.315 22.051 167.373 21.9617L173.432 13.3699H165.161C165.104 13.6825 165.037 13.9951 164.97 14.3166C164.673 15.8081 164.367 17.3264 164.128 18.6661L166.454 21.9706C166.521 22.0599 166.549 22.1671 166.549 22.2743V31.8842C166.549 32.1432 166.348 32.3754 166.08 32.429L164.855 32.6612C164.587 32.7148 164.319 32.5897 164.204 32.3575C163.639 31.2411 162.922 29.705 162.692 28.7136C162.165 26.4362 162.127 24.0962 162.567 20.9078C162.644 20.3362 162.759 19.6574 162.893 18.9162L158.815 13.1288C158.7 12.9591 158.681 12.7447 158.786 12.5661C158.892 12.3875 159.093 12.2803 159.303 12.2803H164.176C164.558 10.3065 164.874 8.60069 164.951 7.73437C165.066 6.31431 165.085 2.53644 165.075 1.11639H153.531C153.531 2.53644 153.541 6.31431 153.656 7.73437C153.751 8.85969 154.259 11.414 154.795 14.1201C155.072 15.5312 155.36 16.9781 155.599 18.2642H159.964C160.127 18.2642 160.28 18.3267 160.395 18.4339C160.509 18.541 160.567 18.6929 160.557 18.8447L159.753 32.813C159.734 33.1077 159.476 33.331 159.16 33.331L159.15 33.3131ZM154.441 32.2057H158.585L159.322 19.3359H155.781C155.876 19.8986 155.963 20.4166 156.02 20.8721C156.451 24.0605 156.413 26.4004 155.896 28.6779C155.666 29.6782 154.919 31.259 154.441 32.2057ZM163.831 20.2469C163.793 20.5148 163.754 20.7738 163.716 21.006C163.19 24.8554 163.477 26.9185 163.831 28.4367C164.013 29.2405 164.616 30.5445 165.056 31.4465L165.353 31.393V22.3993L163.831 20.238V20.2469ZM138.656 20.8989V29.4817C138.656 30.0711 138.915 30.7678 139.508 30.9911C139.872 31.125 140.485 31.2501 141.126 31.3662C141.691 30.991 142.035 30.607 142.102 30.2676C142.313 29.1512 142.179 23.4621 142.102 21.1668C141.872 20.8185 141.26 19.8629 140.686 18.7018C139.824 19.7825 139.02 20.5684 138.666 20.8989H138.656ZM160.385 13.3431L163.161 17.2907C163.362 16.2636 163.572 15.1651 163.793 14.0933C163.84 13.8433 163.888 13.5932 163.936 13.3521H160.385V13.3431ZM140.973 7.40391C140.934 8.82397 140.829 12.7001 140.714 14.6739C140.686 15.1561 140.781 15.7009 140.954 16.2725C141.738 14.9686 142.38 13.4503 142.428 11.9052C142.476 10.378 142.236 8.76145 141.93 7.40391H140.973Z" fill="#199A68"/>
<path d="M152.259 47.8432C150.68 47.8432 149.771 47.2537 148.813 46.6375C148.43 46.3874 148.038 46.1284 147.559 45.8873C143.673 43.9135 120.394 38.8406 120.164 38.7959C119.714 38.6977 119.437 38.2779 119.542 37.8582C119.647 37.4384 120.097 37.1794 120.547 37.2776C121.514 37.492 144.286 42.4488 148.363 44.5208C148.919 44.8066 149.369 45.1013 149.771 45.3603C150.632 45.923 151.197 46.2892 152.259 46.2892C153.322 46.2892 153.887 45.923 154.748 45.3603C155.15 45.1013 155.6 44.8066 156.155 44.5208C160.233 42.4398 183.005 37.4831 183.972 37.2776C184.422 37.1794 184.872 37.4384 184.977 37.8582C185.082 38.2779 184.804 38.6977 184.355 38.7959C184.115 38.8495 160.836 43.9135 156.959 45.8873C156.49 46.1284 156.088 46.3874 155.705 46.6375C154.748 47.2627 153.839 47.8432 152.259 47.8432Z" fill="#199A68"/>
<path d="M149.803 41.4852C149.727 41.4852 149.65 41.4763 149.573 41.4406C142.26 38.7612 130.372 35.6264 123.556 34.2599C123.221 34.1885 123.001 33.8759 123.078 33.5633C123.154 33.2507 123.489 33.0453 123.824 33.1168C130.688 34.4922 142.662 37.6538 150.033 40.351C150.358 40.4671 150.511 40.8065 150.387 41.1101C150.291 41.3423 150.052 41.4852 149.803 41.4852Z" fill="#199A68"/>
<path d="M149.594 43.5204C149.517 43.5204 149.441 43.5114 149.374 43.4846C141.793 40.8053 129.493 37.6705 122.428 36.304C122.084 36.2415 121.873 35.9289 121.94 35.6074C122.007 35.2859 122.342 35.0804 122.687 35.1519C129.789 36.5273 142.185 39.6889 149.814 42.3861C150.14 42.5022 150.302 42.8416 150.178 43.1453C150.082 43.3775 149.843 43.5204 149.594 43.5204Z" fill="#199A68"/>
<path d="M154.734 41.4855C154.486 41.4855 154.246 41.3426 154.151 41.1104C154.026 40.8068 154.179 40.4674 154.505 40.3513C161.875 37.6541 173.85 34.4924 180.713 33.1171C181.058 33.0545 181.383 33.251 181.46 33.5636C181.536 33.8762 181.316 34.1888 180.981 34.2602C174.166 35.6267 162.277 38.7615 154.964 41.4409C154.888 41.4677 154.811 41.4855 154.734 41.4855Z" fill="#199A68"/>
<path d="M154.932 43.5204C154.674 43.5204 154.444 43.3775 154.348 43.1453C154.224 42.8416 154.387 42.5022 154.712 42.3861C162.351 39.6889 174.737 36.5273 181.84 35.1519C182.175 35.0804 182.51 35.2859 182.586 35.6074C182.653 35.92 182.443 36.2326 182.098 36.304C175.043 37.6705 162.734 40.8053 155.153 43.4846C155.076 43.5114 154.999 43.5204 154.932 43.5204Z" fill="#199A68"/>
<path d="M28.3571 0.402344V4.62677H48.6404V9.49424H28.3571V12.0039H44.0554V29.9466H31.9849C37.0486 33.6798 41.4709 35.6 50.4783 38.5472C48.8414 40.0209 47.5301 41.6464 46.7356 43.6648C40.4658 41.6464 34.4546 38.9938 28.3475 33.778V44.8884H22.3363V33.8763C18.651 36.6806 14.0085 40.2174 5.00115 43.9059C4.00565 42.0393 2.78999 40.3156 1 38.7437C6.53268 37.1183 12.0654 34.564 18.182 29.9466H7.80578V12.0128H22.3458V9.50318H2.7517V4.6357H22.3554V0.402344H28.3667H28.3571ZM13.5012 16.2819V18.6933H22.3554V16.2819H13.5012ZM13.5012 22.8731V25.481H22.3554V22.8731H13.5012ZM28.3571 16.2819V18.6933H38.0537V16.2819H28.3571ZM28.3571 22.8731V25.481H38.0537V22.8731H28.3571Z" fill="#383838"/>
<path d="M108.816 11.7617V17.6652H89.9012C92.5335 25.2388 97.5398 31.5263 103.656 36.0991C105.083 37.0815 106.767 38.2158 110.242 39.9305C108.289 41.3595 106.557 43.2261 105.083 45.2892C100.555 42.6367 91.7008 37.1797 85.9001 23.5062C81.1044 36.0901 73.0447 41.4042 64.985 45.5304C63.8268 43.5655 62.458 41.6989 60.668 40.1717C65.9422 38.0103 70.9388 34.8577 74.9974 30.0438C78.8454 25.3728 80.0611 20.6036 80.6928 17.6563H62.8791V11.7528H81.4299C81.6979 8.60903 81.6979 4.92047 81.6979 0.588867H88.9153C88.81 4.8133 88.6473 8.69834 88.4367 11.7528H108.825L108.816 11.7617Z" fill="#383838"/>
<path d="M26.8299 135.617L30.1897 119.55H30.8406L36.2871 130.901L41.7815 119.55H42.4229L45.4477 135.617H42.8058L41.0732 126.078L36.4882 135.617H35.7894L31.2522 126.052L29.4718 135.617H26.8203H26.8299Z" fill="#383838"/>
<path d="M59.9612 125.626H62.4499V135.62H59.9612V134.575C58.8699 135.763 57.5203 135.924 56.7545 135.924C53.4521 135.924 51.5664 133.361 51.5664 130.61C51.5664 127.359 53.9594 125.367 56.7832 125.367C57.5681 125.367 58.9465 125.555 59.9612 126.787V125.626ZM54.103 130.663C54.103 132.396 55.2804 133.843 57.0799 133.843C58.6593 133.843 60.1047 132.771 60.1047 130.681C60.1047 128.591 58.6593 127.448 57.0799 127.448C55.2804 127.448 54.103 128.877 54.103 130.654V130.663Z" fill="#383838"/>
<path d="M69.1777 125.626H71.6665V126.528C71.9441 126.225 72.3557 125.885 72.7098 125.698C73.198 125.439 73.6766 125.367 74.2414 125.367C74.854 125.367 75.5145 125.465 76.2037 125.841L75.189 127.948C74.6338 127.618 74.1744 127.591 73.9159 127.591C73.3895 127.591 72.8534 127.662 72.3653 128.136C71.6761 128.824 71.6761 129.77 71.6761 130.44V135.611H69.1873V125.617L69.1777 125.626Z" fill="#383838"/>
<path d="M83.6606 125.624V131.349C83.6606 131.947 83.6893 132.626 84.1201 133.153C84.4455 133.555 85.0294 133.841 85.7473 133.841C86.4653 133.841 87.0492 133.555 87.3746 133.153C87.8054 132.626 87.8341 131.938 87.8341 131.349V125.624H90.3228V131.42C90.3228 132.697 90.1697 133.769 89.1837 134.698C88.217 135.6 86.8864 135.931 85.6995 135.931C84.6083 135.931 83.2777 135.627 82.311 134.698C81.325 133.769 81.1719 132.706 81.1719 131.42V125.624H83.6606Z" fill="#383838"/>
<path d="M97.043 125.625H99.5317V126.554C100.604 125.438 101.829 125.366 102.432 125.366C104.414 125.366 105.256 126.295 105.581 126.724C105.993 127.269 106.242 127.956 106.242 129.501V135.628H103.753V130.073C103.753 127.536 102.738 127.465 101.791 127.465C100.671 127.465 99.5317 127.608 99.5317 130.841V135.637H97.043V125.643V125.625Z" fill="#383838"/>
<path d="M123.856 130.636C123.856 133.699 121.358 135.923 118.132 135.923C114.907 135.923 112.408 133.69 112.408 130.636C112.408 127.581 114.907 125.366 118.132 125.366C121.358 125.366 123.856 127.545 123.856 130.636ZM121.31 130.662C121.31 128.385 119.712 127.456 118.132 127.456C116.553 127.456 114.954 128.385 114.954 130.662C114.954 132.583 116.17 133.842 118.132 133.842C120.095 133.842 121.31 132.583 121.31 130.662Z" fill="#383838"/>
<path d="M132.504 125.624V131.349C132.504 131.947 132.533 132.626 132.964 133.153C133.289 133.555 133.873 133.841 134.591 133.841C135.309 133.841 135.893 133.555 136.218 133.153C136.649 132.626 136.678 131.938 136.678 131.349V125.624H139.167V131.42C139.167 132.697 139.013 133.769 138.027 134.698C137.061 135.6 135.73 135.931 134.543 135.931C133.452 135.931 132.121 135.627 131.155 134.698C130.169 133.769 130.016 132.706 130.016 131.42V125.624H132.504Z" fill="#383838"/>
<path d="M154.183 128.69C153.043 127.645 151.924 127.457 151.158 127.457C149.99 127.457 149.253 127.913 148.793 128.332C148.344 128.761 147.884 129.52 147.884 130.637C147.884 131.753 148.372 132.584 148.851 133.03C149.406 133.53 150.201 133.834 151.119 133.834C152.134 133.834 153.331 133.45 154.192 132.557V135.147C153.579 135.504 152.594 135.933 150.938 135.933C149.157 135.933 147.884 135.459 146.869 134.459C146.104 133.727 145.338 132.539 145.338 130.708C145.338 128.877 146.18 127.573 146.965 126.841C147.807 126.055 149.157 125.367 151.263 125.367C152.077 125.367 153.043 125.483 154.192 126.082V128.69H154.183Z" fill="#383838"/>
<path d="M160.146 118.31H162.635V126.473C163.707 125.454 164.875 125.356 165.516 125.356C167.479 125.356 168.359 126.303 168.666 126.714C169.326 127.616 169.355 128.777 169.355 129.491V135.618H166.866V129.706C166.866 129.116 166.866 128.473 166.378 127.973C166.1 127.687 165.612 127.446 164.98 127.446C164.138 127.446 163.478 127.83 163.152 128.277C162.798 128.75 162.645 129.509 162.645 130.795V135.618H160.156V118.31H160.146Z" fill="#383838"/>
<path d="M177.325 119.999C178.234 119.999 178.924 120.642 178.924 121.491C178.924 122.339 178.234 122.982 177.325 122.982C176.416 122.982 175.727 122.339 175.727 121.491C175.727 120.642 176.406 119.999 177.325 119.999ZM178.569 125.626V135.62H176.081V125.626H178.569Z" fill="#383838"/>
<path d="M12.5012 119.55C7.55244 119.55 3.96289 122.944 3.96289 127.632C3.96289 132.321 7.35142 135.679 12.1949 135.679C13.669 135.679 15.3059 135.358 16.4736 134.831L16.6077 134.768L15.8227 133.339L15.6983 133.393C14.7985 133.795 13.4584 134.045 12.2045 134.045C8.47136 134.045 5.76245 131.339 5.76245 127.624C5.76245 123.908 8.6628 121.166 12.5012 121.166C16.3396 121.166 19.0677 123.569 19.0677 127.007C19.0677 129.338 18.3115 130.839 16.9523 130.874C16.4832 130.874 16.2056 130.365 16.2056 129.847V123.774H14.3008V124.667C13.5159 123.721 12.4629 123.569 11.8503 123.569C9.67745 123.569 7.8396 125.105 7.8396 127.597C7.8396 129.713 9.28499 131.687 11.8312 131.687C12.3672 131.687 13.2574 131.544 14.0519 130.848C14.2338 130.669 14.4061 130.517 14.4539 130.419C14.6358 131.607 15.459 132.393 16.9427 132.393C18.7327 132.393 20.8577 131.294 20.8577 127.016C20.8577 122.738 17.4213 119.55 12.5012 119.55ZM12.0896 130.097C10.7017 130.097 9.80188 128.981 9.80188 127.65C9.80188 126.32 10.7017 125.185 12.0896 125.185C13.3053 125.185 14.4156 125.989 14.4156 127.668C14.4156 129.347 13.3053 130.097 12.0896 130.097Z" fill="#383838"/>
<path d="M42.7525 91.3305L51.5684 64.796H59.1974L46.2463 103.414H40.101L31.4095 77.2103L22.7181 103.414H16.5058L3.55469 64.7871H11.1837L19.9996 91.3215L28.5188 66.0553H34.3099L42.7621 91.3215L42.7525 91.3305Z" fill="#383838"/>
<path d="M95.1361 98.6606C91.1158 102.849 86.2053 104.01 81.5915 104.01C70.8325 104.01 64.3809 97.4995 64.3809 89.5508C64.3809 81.6021 71.3015 74.877 80.7588 74.877C88.8568 74.877 96.4857 79.6194 96.4857 90.3814H71.6461C71.6461 94.7934 75.4941 98.2676 81.9361 98.2676C85.6597 98.2676 88.4452 96.9994 90.9818 94.847L95.1169 98.6516L95.1361 98.6606ZM72.0194 85.8087H89.0482C87.9283 81.5039 83.841 80.2892 80.7683 80.2892C77.6957 80.2892 73.551 81.5039 72.0194 85.8087Z" fill="#383838"/>
<path d="M136.228 98.6606C132.208 102.849 127.297 104.01 122.683 104.01C111.924 104.01 105.473 97.4995 105.473 89.5508C105.473 81.6021 112.393 74.877 121.851 74.877C129.949 74.877 137.578 79.6194 137.578 90.3814H112.738C112.738 94.7934 116.586 98.2676 123.028 98.2676C126.751 98.2676 129.537 96.9994 132.074 94.847L136.209 98.6516L136.228 98.6606ZM113.111 85.8087H130.14C129.02 81.5039 124.933 80.2892 121.86 80.2892C118.787 80.2892 114.643 81.5039 113.111 85.8087Z" fill="#383838"/>
<path d="M165.274 75.494H173.315V76.3245L162.91 88.3012L167.409 94.812C168.95 96.9108 169.888 97.9022 172.08 97.9022C172.731 97.9022 174.473 97.6968 175.66 96.8662C175.66 96.8662 175.995 98.179 176.742 99.5902C177.488 100.992 178.235 101.6 178.235 101.6C175.756 103.859 172.559 104.029 171.075 104.029C166.519 104.029 163.982 101.716 161.905 98.9561L155.874 89.9088V103.431H148.6V63.5352H155.874V87.0419L165.274 75.5118V75.494Z" fill="#383838"/>
<path d="M10.162 158.88H7.066C7.03 159.132 6.994 159.384 6.94 159.618C7.876 160.536 9.82 162.786 10.324 163.38L8.884 165.18C8.29 164.244 7.264 162.894 6.382 161.796C5.77 163.56 4.708 165.252 2.98 166.512C2.692 166.062 1.9 165.216 1.45 164.892C3.79 163.218 4.618 160.968 4.906 158.88H1.72V156.864H5.05V156.414V154.002H4.33C3.97 154.92 3.556 155.748 3.106 156.414C2.71 156.054 1.864 155.442 1.378 155.172C2.35 153.876 3.034 151.806 3.394 149.754L5.446 150.168C5.32 150.798 5.176 151.41 4.996 152.022H9.748V154.002H7.21V156.432V156.864H10.162V158.88ZM12.718 162.732H15.328V153.318H12.718V162.732ZM10.648 151.302H17.506V165.774H15.328V164.748H12.718V166.044H10.648V151.302ZM28.99 150.906C28.882 151.374 28.756 151.95 28.666 152.4C28.558 152.94 28.414 153.606 28.288 154.254C28.9 154.218 29.422 154.182 29.8 154.182C31.708 154.182 33.058 155.028 33.058 157.62C33.058 159.744 32.806 162.66 32.032 164.226C31.438 165.486 30.448 165.882 29.08 165.882C28.396 165.882 27.532 165.756 26.92 165.63L26.542 163.254C27.226 163.452 28.27 163.632 28.738 163.632C29.35 163.632 29.8 163.452 30.088 162.858C30.574 161.832 30.826 159.654 30.826 157.872C30.826 156.432 30.196 156.234 29.08 156.234C28.792 156.234 28.342 156.27 27.82 156.306C27.136 159.042 25.804 163.308 24.148 165.954L21.808 165.018C23.554 162.66 24.796 159.024 25.462 156.558C24.814 156.63 24.238 156.702 23.914 156.738C23.392 156.828 22.456 156.954 21.898 157.044L21.682 154.596C22.348 154.65 22.942 154.614 23.608 154.596C24.166 154.578 25.012 154.524 25.93 154.434C26.182 153.084 26.344 151.77 26.308 150.636L28.99 150.906ZM37 149.412C37.468 150.096 38.134 151.23 38.44 151.86L37.018 152.472C36.64 151.734 36.064 150.672 35.56 149.988L37 149.412ZM34.858 150.222C35.308 150.888 35.956 152.022 36.298 152.688L35.416 153.066C36.496 154.74 37.846 157.746 38.35 159.348L36.064 160.392C35.596 158.394 34.318 155.226 33.04 153.642L34.66 152.94C34.3 152.256 33.85 151.392 33.436 150.816L34.858 150.222ZM50.644 163.542V164.37H52.66V163.542H50.644ZM52.66 159.96V159.168H50.644V159.96H52.66ZM52.66 162.156V161.364H50.644V162.156H52.66ZM43.678 152.346V154.848H45.46V152.346H43.678ZM57.934 164.37V166.08H50.644V166.548H48.718V161.058C48.484 161.31 48.25 161.544 47.998 161.76C47.728 161.418 47.206 160.842 46.81 160.5H45.766V163.038C46.432 162.894 47.098 162.732 47.764 162.588L47.962 164.424C45.658 164.982 43.21 165.558 41.338 165.972L40.978 164.01L41.806 163.866V157.818H43.39V163.542L44.056 163.398V156.594H41.968V150.582H47.296V156.594H45.766V158.7H47.476V159.582C48.34 158.61 49.06 157.386 49.51 156.288H47.89V154.83H50.59V154.092H48.16V152.652H50.59V151.932H47.962V150.456H52.408V156.288H50.878L51.652 156.504C51.508 156.828 51.346 157.17 51.166 157.512H52.984C53.164 157.098 53.326 156.666 53.452 156.288H52.948V154.83H55.702V154.092H53.164V152.652H55.702V151.932H52.948V150.456H57.538V156.288H54.784L55.558 156.468C55.36 156.828 55.144 157.17 54.946 157.512H57.7V159.168H54.496V159.96H57.088V161.364H54.496V162.156H57.088V163.542H54.496V164.37H57.934ZM66.592 162.84V163.758C67.618 163.686 68.68 163.596 69.724 163.506C71.128 161.562 71.56 158.988 71.686 155.766H70.048V154.362H66.592V155.064H69.778V160.626H66.592V161.328H69.85V162.84H66.592ZM63.244 159.294H64.648V158.484H63.244V159.294ZM67.996 158.484H66.592V159.294H67.996V158.484ZM66.592 157.206H67.996V156.414H66.592V157.206ZM63.244 156.414V157.206H64.648V156.414H63.244ZM73.774 153.804H77.428C77.428 153.804 77.41 154.506 77.41 154.758C77.248 162.12 77.104 164.73 76.528 165.558C76.114 166.152 75.7 166.332 75.106 166.458C74.566 166.566 73.738 166.548 72.874 166.53C72.838 165.936 72.604 165.072 72.244 164.478C73.036 164.55 73.72 164.568 74.062 164.568C74.332 164.568 74.512 164.496 74.674 164.262C75.052 163.776 75.232 161.58 75.34 155.766H73.72C73.486 160.59 72.658 164.298 69.634 166.692C69.364 166.26 68.842 165.666 68.374 165.27C65.782 165.54 63.19 165.81 61.246 165.972L60.994 164.172C62.002 164.1 63.262 164.01 64.648 163.92V162.84H61.48V161.328H64.648V160.626H61.552V155.064H64.648V154.362H61.102V152.814H64.648V152.094C63.604 152.166 62.578 152.22 61.606 152.238C61.534 151.806 61.336 151.14 61.138 150.726C63.802 150.582 66.916 150.276 68.896 149.844L69.832 151.446C68.878 151.644 67.762 151.806 66.592 151.932V152.814H70.048V153.804H71.74C71.758 152.616 71.758 151.374 71.758 150.042H73.81C73.81 151.356 73.81 152.616 73.774 153.804ZM91.954 150.492C91.918 150.78 91.846 151.752 91.828 152.04C91.828 152.184 91.828 152.382 91.81 152.598C93.628 152.598 96.094 152.562 97.03 152.58L97.012 154.704C95.932 154.65 94.258 154.614 91.81 154.614C91.81 155.532 91.828 156.522 91.828 157.314C92.26 157.998 92.476 158.844 92.476 159.78C92.476 162.12 91.108 165.108 86.716 166.332L84.79 164.424C86.608 164.046 88.192 163.452 89.182 162.372C88.93 162.426 88.66 162.462 88.372 162.462C86.986 162.462 85.276 161.346 85.276 159.15C85.276 157.116 86.914 155.784 88.876 155.784C89.128 155.784 89.362 155.802 89.596 155.838C89.596 155.442 89.596 155.028 89.578 154.632C86.86 154.668 84.052 154.776 81.838 154.902L81.784 152.724C83.836 152.724 87.112 152.652 89.56 152.616C89.542 152.382 89.542 152.202 89.524 152.058C89.47 151.32 89.398 150.708 89.344 150.492H91.954ZM87.436 159.114C87.436 159.942 88.102 160.464 88.822 160.464C89.578 160.464 90.244 159.888 89.992 158.304C89.74 157.89 89.308 157.674 88.822 157.674C88.12 157.674 87.436 158.16 87.436 159.114ZM107.02 162.876C107.02 163.542 107.758 163.992 108.838 163.992C109.216 163.992 109.558 163.974 109.882 163.938C109.774 162.768 109.108 162.012 108.136 162.012C107.452 162.012 107.02 162.426 107.02 162.876ZM103.96 151.284C104.464 151.356 105.094 151.374 105.598 151.374C106.552 151.374 110.404 151.302 111.43 151.212C112.168 151.14 112.582 151.086 112.798 151.014L113.968 152.616C113.554 152.886 113.122 153.138 112.708 153.444C111.736 154.128 109.846 155.712 108.712 156.612C109.306 156.468 109.846 156.414 110.422 156.414C113.482 156.414 115.804 158.322 115.804 160.95C115.804 163.794 113.644 166.044 109.288 166.044C106.786 166.044 104.896 164.892 104.896 163.092C104.896 161.634 106.21 160.284 108.118 160.284C110.35 160.284 111.7 161.652 111.952 163.362C112.942 162.84 113.446 162.012 113.446 160.914C113.446 159.294 111.826 158.196 109.702 158.196C106.948 158.196 105.148 159.654 103.222 161.85L101.584 160.158C102.862 159.132 105.04 157.296 106.102 156.414C107.11 155.586 108.982 154.074 109.864 153.3C108.946 153.318 106.462 153.426 105.508 153.48C105.022 153.516 104.446 153.57 104.032 153.624L103.96 151.284ZM124.912 162.966C124.912 163.65 125.56 164.064 126.802 164.064C127.756 164.064 128.386 163.794 128.386 162.75C128.386 162.552 128.386 162.3 128.368 161.976C127.882 161.904 127.396 161.85 126.892 161.85C125.614 161.85 124.912 162.354 124.912 162.966ZM130.546 150.438C130.492 150.798 130.456 151.248 130.438 151.716C130.42 151.896 130.42 152.166 130.42 152.454C131.896 152.382 133.39 152.238 134.974 151.968L134.956 154.038C133.768 154.182 132.13 154.344 130.384 154.434C130.384 155.064 130.384 155.73 130.384 156.288C132.202 156.198 133.732 156.054 135.19 155.856L135.172 157.98C133.552 158.16 132.148 158.286 130.42 158.34C130.456 159.024 130.492 159.762 130.546 160.482C132.814 161.13 134.542 162.336 135.586 163.2L134.29 165.216C133.318 164.316 132.094 163.362 130.654 162.714C130.672 162.966 130.672 163.182 130.672 163.38C130.672 164.91 129.502 166.098 127.126 166.098C124.246 166.098 122.734 165 122.734 163.092C122.734 161.274 124.408 159.996 127.18 159.996C127.558 159.996 127.936 160.014 128.296 160.05C128.26 159.492 128.242 158.916 128.224 158.376C127.918 158.376 127.612 158.376 127.288 158.376C126.244 158.376 124.192 158.286 123.004 158.142L122.986 156.018C124.156 156.234 126.37 156.36 127.324 156.36C127.612 156.36 127.9 156.36 128.188 156.36C128.188 155.766 128.188 155.118 128.206 154.506C127.972 154.506 127.756 154.506 127.54 154.506C126.406 154.506 124.318 154.344 123.13 154.182L123.076 152.13C124.372 152.346 126.424 152.526 127.522 152.526C127.756 152.526 127.99 152.526 128.224 152.526C128.224 152.184 128.224 151.896 128.224 151.68C128.224 151.338 128.188 150.78 128.116 150.438H130.546ZM147.754 150.654C147.556 151.284 147.448 151.896 147.322 152.49C147.286 152.652 147.25 152.85 147.214 153.048C149.266 152.94 151.696 152.67 153.874 152.202L153.91 154.344C152.038 154.65 149.176 154.992 146.764 155.118C146.512 156.216 146.224 157.368 145.954 158.25C147.412 157.44 148.816 157.116 150.418 157.116C153.334 157.116 155.26 158.664 155.26 160.968C155.26 165.018 151.354 166.476 145.54 165.846L144.91 163.524C148.852 164.172 152.83 163.686 152.83 161.04C152.83 159.96 151.912 159.06 150.148 159.06C148.078 159.06 146.242 159.798 145.162 161.166C144.964 161.418 144.838 161.652 144.658 161.958L142.534 161.202C143.398 159.528 144.118 157.134 144.586 155.154C143.452 155.136 142.39 155.082 141.472 154.992V152.76C142.552 152.94 143.902 153.084 145 153.102C145.036 152.832 145.072 152.58 145.108 152.364C145.216 151.59 145.234 151.14 145.198 150.546L147.754 150.654ZM160.066 159.636C160.606 159.222 161.056 158.808 161.596 158.232C162.424 157.368 163.81 155.514 164.926 154.218C166.186 152.796 167.356 152.67 168.67 153.948C169.894 155.136 171.334 156.99 172.396 158.142C173.548 159.402 175.078 161.022 176.788 162.552L174.934 164.712C173.638 163.488 172.108 161.742 170.974 160.41C169.858 159.078 168.508 157.368 167.662 156.414C167.032 155.712 166.69 155.802 166.168 156.468C165.448 157.368 164.17 159.15 163.396 160.176C162.982 160.77 162.568 161.418 162.262 161.886L160.066 159.636Z" fill="#383838"/>
<path d="M0.678522 187.912L4.80652 183.528C5.14786 183.165 5.42519 182.84 5.63852 182.552C5.85186 182.264 6.00652 181.992 6.10252 181.736C6.19852 181.48 6.24652 181.219 6.24652 180.952C6.24652 180.451 6.08119 180.061 5.75052 179.784C5.43052 179.496 5.01986 179.352 4.51852 179.352C3.98519 179.352 3.51586 179.485 3.11052 179.752C2.70519 180.019 2.34252 180.435 2.02252 181L0.742522 179.944C1.17986 179.187 1.71852 178.616 2.35852 178.232C2.99852 177.837 3.73986 177.64 4.58252 177.64C5.27586 177.64 5.88386 177.779 6.40652 178.056C6.92919 178.333 7.33452 178.723 7.62252 179.224C7.91052 179.715 8.05452 180.285 8.05452 180.936C8.05452 181.405 7.99586 181.827 7.87852 182.2C7.77186 182.563 7.58519 182.931 7.31852 183.304C7.05186 183.667 6.68386 184.093 6.21452 184.584L3.04652 187.864L0.678522 187.912ZM0.678522 189V187.912L2.26252 187.352H8.27852V189H0.678522ZM14.4708 189.16C13.6281 189.16 12.8548 188.925 12.1508 188.456C11.4574 187.976 10.9028 187.304 10.4868 186.44C10.0708 185.576 9.86277 184.557 9.86277 183.384C9.86277 182.211 10.0654 181.197 10.4708 180.344C10.8868 179.48 11.4414 178.813 12.1348 178.344C12.8281 177.875 13.5961 177.64 14.4388 177.64C15.2921 177.64 16.0654 177.875 16.7588 178.344C17.4521 178.813 18.0014 179.48 18.4068 180.344C18.8228 181.197 19.0308 182.216 19.0308 183.4C19.0308 184.573 18.8228 185.592 18.4068 186.456C18.0014 187.32 17.4521 187.987 16.7588 188.456C16.0761 188.925 15.3134 189.16 14.4708 189.16ZM14.4388 187.432C14.9934 187.432 15.4734 187.283 15.8788 186.984C16.2841 186.685 16.5988 186.237 16.8228 185.64C17.0574 185.043 17.1748 184.291 17.1748 183.384C17.1748 182.488 17.0574 181.741 16.8228 181.144C16.5988 180.547 16.2788 180.104 15.8628 179.816C15.4574 179.517 14.9828 179.368 14.4388 179.368C13.8948 179.368 13.4148 179.517 12.9988 179.816C12.5934 180.104 12.2788 180.547 12.0548 181.144C11.8308 181.731 11.7188 182.477 11.7188 183.384C11.7188 184.291 11.8308 185.043 12.0548 185.64C12.2788 186.237 12.5934 186.685 12.9988 186.984C13.4148 187.283 13.8948 187.432 14.4388 187.432ZM20.4591 187.912L24.5871 183.528C24.9285 183.165 25.2058 182.84 25.4191 182.552C25.6325 182.264 25.7871 181.992 25.8831 181.736C25.9791 181.48 26.0271 181.219 26.0271 180.952C26.0271 180.451 25.8618 180.061 25.5311 179.784C25.2111 179.496 24.8005 179.352 24.2991 179.352C23.7658 179.352 23.2965 179.485 22.8911 179.752C22.4858 180.019 22.1231 180.435 21.8031 181L20.5231 179.944C20.9605 179.187 21.4991 178.616 22.1391 178.232C22.7791 177.837 23.5205 177.64 24.3631 177.64C25.0565 177.64 25.6645 177.779 26.1871 178.056C26.7098 178.333 27.1151 178.723 27.4031 179.224C27.6911 179.715 27.8351 180.285 27.8351 180.936C27.8351 181.405 27.7765 181.827 27.6591 182.2C27.5525 182.563 27.3658 182.931 27.0991 183.304C26.8325 183.667 26.4645 184.093 25.9951 184.584L22.8271 187.864L20.4591 187.912ZM20.4591 189V187.912L22.0431 187.352H28.0591V189H20.4591ZM32.9394 189.16C32.1607 189.16 31.4674 189.027 30.8594 188.76C30.2514 188.483 29.7394 188.083 29.3234 187.56L30.5714 186.312C30.7954 186.653 31.1101 186.925 31.5154 187.128C31.9314 187.331 32.3954 187.432 32.9074 187.432C33.3767 187.432 33.7874 187.347 34.1394 187.176C34.4914 187.005 34.7687 186.76 34.9714 186.44C35.1741 186.12 35.2754 185.741 35.2754 185.304C35.2754 184.845 35.1741 184.467 34.9714 184.168C34.7794 183.859 34.5181 183.629 34.1874 183.48C33.8674 183.32 33.5207 183.24 33.1474 183.24C32.7207 183.24 32.3367 183.288 31.9954 183.384C31.6647 183.48 31.3394 183.651 31.0194 183.896L31.0674 182.744C31.2381 182.52 31.4354 182.339 31.6594 182.2C31.8834 182.051 32.1447 181.939 32.4434 181.864C32.7421 181.789 33.0941 181.752 33.4994 181.752C34.2887 181.752 34.9501 181.917 35.4834 182.248C36.0274 182.579 36.4381 183.021 36.7154 183.576C36.9927 184.12 37.1314 184.728 37.1314 185.4C37.1314 186.125 36.9501 186.771 36.5874 187.336C36.2354 187.901 35.7447 188.349 35.1154 188.68C34.4861 189 33.7607 189.16 32.9394 189.16ZM31.0194 183.896L30.0114 182.888L30.5074 177.8H32.1874L31.6114 183.096L31.0194 183.896ZM30.8274 179.448L30.5074 177.8H36.5074V179.448H30.8274ZM39.9243 189.16C39.5829 189.16 39.3003 189.048 39.0763 188.824C38.8629 188.589 38.7563 188.307 38.7563 187.976C38.7563 187.635 38.8629 187.352 39.0763 187.128C39.3003 186.904 39.5829 186.792 39.9243 186.792C40.2656 186.792 40.5429 186.904 40.7563 187.128C40.9803 187.352 41.0923 187.635 41.0923 187.976C41.0923 188.307 40.9803 188.589 40.7563 188.824C40.5429 189.048 40.2656 189.16 39.9243 189.16ZM47.4383 189.16C46.5956 189.16 45.8223 188.925 45.1183 188.456C44.4249 187.976 43.8703 187.304 43.4543 186.44C43.0383 185.576 42.8303 184.557 42.8303 183.384C42.8303 182.211 43.0329 181.197 43.4383 180.344C43.8543 179.48 44.4089 178.813 45.1023 178.344C45.7956 177.875 46.5636 177.64 47.4063 177.64C48.2596 177.64 49.0329 177.875 49.7263 178.344C50.4196 178.813 50.9689 179.48 51.3743 180.344C51.7903 181.197 51.9983 182.216 51.9983 183.4C51.9983 184.573 51.7903 185.592 51.3743 186.456C50.9689 187.32 50.4196 187.987 49.7263 188.456C49.0436 188.925 48.2809 189.16 47.4383 189.16ZM47.4063 187.432C47.9609 187.432 48.4409 187.283 48.8463 186.984C49.2516 186.685 49.5663 186.237 49.7903 185.64C50.0249 185.043 50.1423 184.291 50.1423 183.384C50.1423 182.488 50.0249 181.741 49.7903 181.144C49.5663 180.547 49.2463 180.104 48.8303 179.816C48.4249 179.517 47.9503 179.368 47.4063 179.368C46.8623 179.368 46.3823 179.517 45.9663 179.816C45.5609 180.104 45.2463 180.547 45.0223 181.144C44.7983 181.731 44.6863 182.477 44.6863 183.384C44.6863 184.291 44.7983 185.043 45.0223 185.64C45.2463 186.237 45.5609 186.685 45.9663 186.984C46.3823 187.283 46.8623 187.432 47.4063 187.432ZM54.4321 189L58.5121 178.92H60.3361L56.3521 189H54.4321ZM52.8321 179.448V177.8H60.3361V178.92L59.5521 179.448H52.8321ZM62.353 189.16C62.0117 189.16 61.729 189.048 61.505 188.824C61.2917 188.589 61.185 188.307 61.185 187.976C61.185 187.635 61.2917 187.352 61.505 187.128C61.729 186.904 62.0117 186.792 62.353 186.792C62.6944 186.792 62.9717 186.904 63.185 187.128C63.409 187.352 63.521 187.635 63.521 187.976C63.521 188.307 63.409 188.589 63.185 188.824C62.9717 189.048 62.6944 189.16 62.353 189.16ZM68.9296 189.16C68.183 189.16 67.5056 189.027 66.8976 188.76C66.3003 188.483 65.7936 188.083 65.3776 187.56L66.6256 186.312C66.8496 186.653 67.1643 186.925 67.5696 187.128C67.975 187.331 68.4176 187.432 68.8976 187.432C69.3563 187.432 69.751 187.347 70.0816 187.176C70.4123 187.005 70.6683 186.765 70.8496 186.456C71.0416 186.147 71.1376 185.789 71.1376 185.384C71.1376 184.957 71.0416 184.595 70.8496 184.296C70.6683 183.997 70.4016 183.768 70.0496 183.608C69.7083 183.437 69.2923 183.352 68.8016 183.352C68.6096 183.352 68.4123 183.368 68.2096 183.4C68.007 183.421 67.8256 183.459 67.6656 183.512L68.4816 182.456C68.7056 182.371 68.9403 182.301 69.1856 182.248C69.4416 182.184 69.687 182.152 69.9216 182.152C70.4976 182.152 71.015 182.291 71.4736 182.568C71.943 182.845 72.311 183.235 72.5776 183.736C72.855 184.227 72.9936 184.808 72.9936 185.48C72.9936 186.205 72.823 186.845 72.4816 187.4C72.1403 187.955 71.6656 188.387 71.0576 188.696C70.4496 189.005 69.7403 189.16 68.9296 189.16ZM67.6656 183.512V182.424L70.6576 178.936L72.8656 178.888L69.7456 182.472L67.6656 183.512ZM65.9376 179.448V177.8H72.8656V178.888L71.2816 179.448H65.9376ZM79.2183 189.16C78.3756 189.16 77.6023 188.925 76.8983 188.456C76.2049 187.976 75.6503 187.304 75.2343 186.44C74.8183 185.576 74.6103 184.557 74.6103 183.384C74.6103 182.211 74.8129 181.197 75.2183 180.344C75.6343 179.48 76.1889 178.813 76.8823 178.344C77.5756 177.875 78.3436 177.64 79.1863 177.64C80.0396 177.64 80.8129 177.875 81.5063 178.344C82.1996 178.813 82.7489 179.48 83.1543 180.344C83.5703 181.197 83.7783 182.216 83.7783 183.4C83.7783 184.573 83.5703 185.592 83.1543 186.456C82.7489 187.32 82.1996 187.987 81.5063 188.456C80.8236 188.925 80.0609 189.16 79.2183 189.16ZM79.1863 187.432C79.7409 187.432 80.2209 187.283 80.6263 186.984C81.0316 186.685 81.3463 186.237 81.5703 185.64C81.8049 185.043 81.9223 184.291 81.9223 183.384C81.9223 182.488 81.8049 181.741 81.5703 181.144C81.3463 180.547 81.0263 180.104 80.6103 179.816C80.2049 179.517 79.7303 179.368 79.1863 179.368C78.6423 179.368 78.1623 179.517 77.7463 179.816C77.3409 180.104 77.0263 180.547 76.8023 181.144C76.5783 181.731 76.4663 182.477 76.4663 183.384C76.4663 184.291 76.5783 185.043 76.8023 185.64C77.0263 186.237 77.3409 186.685 77.7463 186.984C78.1623 187.283 78.6423 187.432 79.1863 187.432ZM85.6346 190.152V180.36H86.7386V190.152H85.6346ZM86.1746 190.152V189.108H88.4666V190.152H86.1746ZM86.1746 181.404V180.36H88.4666V181.404H86.1746ZM92.1605 189L89.4005 180.6H90.7565L92.8325 187.068H92.4725L94.5005 180.6H95.4605L97.4885 187.068H97.1285L99.2045 180.6H100.56L97.8005 189H96.8405L94.8005 182.544H95.1605L93.1205 189H92.1605ZM103.682 189.12C103.106 189.12 102.586 188.992 102.122 188.736C101.666 188.472 101.302 188.112 101.03 187.656C100.766 187.2 100.634 186.688 100.634 186.12C100.634 185.552 100.766 185.044 101.03 184.596C101.294 184.14 101.65 183.78 102.098 183.516C102.554 183.252 103.058 183.12 103.61 183.12C104.146 183.12 104.618 183.244 105.026 183.492C105.442 183.74 105.766 184.08 105.998 184.512C106.238 184.944 106.358 185.436 106.358 185.988C106.358 186.084 106.35 186.184 106.334 186.288C106.326 186.384 106.31 186.492 106.286 186.612H101.558V185.532H105.602L105.11 185.964C105.094 185.612 105.026 185.316 104.906 185.076C104.786 184.836 104.614 184.652 104.39 184.524C104.174 184.396 103.906 184.332 103.586 184.332C103.25 184.332 102.958 184.404 102.71 184.548C102.462 184.692 102.27 184.896 102.134 185.16C101.998 185.416 101.93 185.724 101.93 186.084C101.93 186.444 102.002 186.76 102.146 187.032C102.29 187.304 102.494 187.516 102.758 187.668C103.022 187.812 103.326 187.884 103.67 187.884C103.966 187.884 104.238 187.832 104.486 187.728C104.742 187.624 104.958 187.472 105.134 187.272L105.974 188.124C105.694 188.452 105.354 188.7 104.954 188.868C104.554 189.036 104.13 189.12 103.682 189.12ZM110.068 189.12C109.548 189.12 109.076 188.988 108.652 188.724C108.236 188.46 107.904 188.104 107.656 187.656C107.416 187.2 107.296 186.692 107.296 186.132C107.296 185.564 107.416 185.056 107.656 184.608C107.904 184.152 108.236 183.792 108.652 183.528C109.076 183.256 109.548 183.12 110.068 183.12C110.508 183.12 110.896 183.216 111.232 183.408C111.576 183.592 111.848 183.848 112.048 184.176C112.248 184.504 112.348 184.876 112.348 185.292V186.948C112.348 187.364 112.248 187.736 112.048 188.064C111.856 188.392 111.588 188.652 111.244 188.844C110.9 189.028 110.508 189.12 110.068 189.12ZM110.284 187.872C110.612 187.872 110.896 187.8 111.136 187.656C111.384 187.504 111.576 187.296 111.712 187.032C111.848 186.768 111.916 186.464 111.916 186.12C111.916 185.776 111.848 185.472 111.712 185.208C111.576 184.944 111.384 184.74 111.136 184.596C110.896 184.444 110.612 184.368 110.284 184.368C109.964 184.368 109.68 184.444 109.432 184.596C109.192 184.74 109 184.944 108.856 185.208C108.72 185.472 108.652 185.776 108.652 186.12C108.652 186.464 108.72 186.768 108.856 187.032C109 187.296 109.192 187.504 109.432 187.656C109.68 187.8 109.964 187.872 110.284 187.872ZM113.152 189H111.832V187.452L112.06 186.048L111.832 184.656V180.36H113.152V189ZM116.237 190.152V180.36H117.341V190.152H116.237ZM114.509 190.152V189.108H116.801V190.152H114.509ZM114.509 181.404V180.36H116.801V181.404H114.509ZM121.829 186.564V185.316H125.897V186.564H121.829ZM134.359 189.16C133.613 189.16 132.935 189.027 132.327 188.76C131.73 188.483 131.223 188.083 130.807 187.56L132.055 186.312C132.279 186.653 132.594 186.925 132.999 187.128C133.405 187.331 133.847 187.432 134.327 187.432C134.786 187.432 135.181 187.347 135.511 187.176C135.842 187.005 136.098 186.765 136.279 186.456C136.471 186.147 136.567 185.789 136.567 185.384C136.567 184.957 136.471 184.595 136.279 184.296C136.098 183.997 135.831 183.768 135.479 183.608C135.138 183.437 134.722 183.352 134.231 183.352C134.039 183.352 133.842 183.368 133.639 183.4C133.437 183.421 133.255 183.459 133.095 183.512L133.911 182.456C134.135 182.371 134.37 182.301 134.615 182.248C134.871 182.184 135.117 182.152 135.351 182.152C135.927 182.152 136.445 182.291 136.903 182.568C137.373 182.845 137.741 183.235 138.007 183.736C138.285 184.227 138.423 184.808 138.423 185.48C138.423 186.205 138.253 186.845 137.911 187.4C137.57 187.955 137.095 188.387 136.487 188.696C135.879 189.005 135.17 189.16 134.359 189.16ZM133.095 183.512V182.424L136.087 178.936L138.295 178.888L135.175 182.472L133.095 183.512ZM131.367 179.448V177.8H138.295V178.888L136.711 179.448H131.367ZM142.04 189V177.8H143.848V189H142.04ZM139.8 179.448V177.8H143.688V179.448H139.8ZM146.268 190.152V180.36H147.372V190.152H146.268ZM146.808 190.152V189.108H149.1V190.152H146.808ZM146.808 181.404V180.36H149.1V181.404H146.808ZM152.745 189V180.84H154.125V189H152.745ZM150.009 181.86V180.6H156.861V181.86H150.009ZM162.071 189V185.676C162.071 185.292 161.947 184.976 161.699 184.728C161.459 184.48 161.147 184.356 160.763 184.356C160.507 184.356 160.279 184.412 160.079 184.524C159.879 184.636 159.723 184.792 159.611 184.992C159.499 185.192 159.443 185.42 159.443 185.676L158.927 185.388C158.927 184.948 159.023 184.56 159.215 184.224C159.407 183.88 159.671 183.612 160.007 183.42C160.351 183.22 160.735 183.12 161.159 183.12C161.591 183.12 161.975 183.216 162.311 183.408C162.647 183.6 162.911 183.868 163.103 184.212C163.295 184.548 163.391 184.94 163.391 185.388V189H162.071ZM158.123 189V180.36H159.443V189H158.123ZM167.336 189.12C166.848 189.12 166.412 189.012 166.028 188.796C165.652 188.58 165.356 188.284 165.14 187.908C164.932 187.524 164.828 187.084 164.828 186.588V183.24H166.148V186.528C166.148 186.808 166.192 187.048 166.28 187.248C166.376 187.44 166.512 187.588 166.688 187.692C166.872 187.796 167.088 187.848 167.336 187.848C167.72 187.848 168.012 187.736 168.212 187.512C168.42 187.28 168.524 186.952 168.524 186.528V183.24H169.844V186.588C169.844 187.092 169.736 187.536 169.52 187.92C169.312 188.296 169.02 188.592 168.644 188.808C168.268 189.016 167.832 189.12 167.336 189.12ZM172.792 190.152V180.36H173.896V190.152H172.792ZM171.064 190.152V189.108H173.356V190.152H171.064ZM171.064 181.404V180.36H173.356V181.404H171.064Z" fill="#383838"/>
</svg>
