<svg width="925" height="388" fill="none" xmlns="http://www.w3.org/2000/svg"><path d="M164.812 214.712h-21.276c-.783 0-1.48-.407-1.886-1.047a2.237 2.237 0 01-.087-2.179c.058-.117 5.485-11.045 6.646-16.421 1.306-6.133 2.409-14.503.436-30.053a247.17 247.17 0 00-.987-6.743h-22.582l2.903 54.089c.029.61-.174 1.22-.61 1.656a2.31 2.31 0 01-1.625.698h-3.89c-.261 0-.493-.029-.725-.116-1.248-.436-12.191-4.447-13.381-11.364-1.045-5.988-.087-36.97-.029-38.307 0-.407.145-.785.348-1.133.087-.146 9.753-15.259 9.288-24.327-.406-7.964-.812-23.629-.957-29.384h-11.843c1.103 5.581 1.974 12.091 1.771 18.34-.261 8.486-3.977 16.566-8.07 22.989 2.7 6.54 6.386 12.294 6.444 12.382.233.348.349.726.349 1.133.029 1.308 1.016 32.29-.029 38.307-.494 2.848-2.642 5.493-6.386 7.905a2.116 2.116 0 01-1.625.32c-2.874-.524-5.835-1.134-7.837-1.948-3.628-1.482-5.98-5.493-5.98-10.23v-35.633c0-.61.262-1.22.697-1.627.087-.087 4.79-4.534 9.346-11.19-1.45-3.953-2.467-8.08-2.293-11.596.494-9.766 1.016-31.215 1.016-31.448 0-1.22 1.016-2.18 2.235-2.18h4.76a121.505 121.505 0 00-2.09-7.41H66.097c-1.423 4.417-5.37 17.961-4.993 30.051.552 17.235 17.793 33.598 17.967 33.744.435.436.697 1.017.697 1.627v35.633c0 4.737-2.352 8.748-5.98 10.23-2.206.901-5.66 1.541-9.026 2.151l-1.83.349a2.22 2.22 0 01-2.611-1.773 2.224 2.224 0 011.77-2.616l1.858-.349c2.99-.552 6.356-1.162 8.156-1.918 2.206-.901 3.193-3.691 3.193-6.103v-34.703c-3.483-3.458-18.112-18.979-18.664-36.185-.493-15.462 5.486-32.464 5.747-33.19a2.216 2.216 0 012.09-1.483H98.46c.929 0 1.77.581 2.09 1.482.116.35 1.567 4.476 2.989 10.376h14.977c1.219 0 2.206.959 2.235 2.18 0 .203.523 21.682 1.016 31.447.494 9.562-7.837 23.513-9.665 26.449-.29 9.271-.784 32.29 0 36.795.551 3.197 6.356 6.423 10.13 7.818h1.132l-2.903-54.088c-.029-.611.174-1.221.61-1.657a2.309 2.309 0 011.625-.697h24.178a1355.739 1355.739 0 00-2.902-15.957c-2.061-11.073-3.977-21.507-4.354-26.274-.581-7.266-.494-28.424-.494-29.325 0-1.22.987-2.209 2.235-2.209h47.892c1.219 0 2.235.988 2.235 2.209 0 .9.058 22.059-.493 29.325-.291 3.546-1.423 10.26-2.845 18.02h34.453c.813 0 1.568.436 1.974 1.163.406.726.348 1.598-.087 2.296l-24.701 37.638v36.33l12.133 2.528a2.247 2.247 0 011.741 2.645 2.266 2.266 0 01-2.641 1.744l-13.903-2.877c-1.045-.204-1.771-1.134-1.771-2.18V170.04c0-.436.117-.872.378-1.22l22.814-34.732h-31.144c-.233 1.25-.465 2.529-.697 3.808-1.103 6.016-2.264 12.177-3.164 17.554l8.766 13.341c.232.377.377.784.377 1.22v38.801c0 1.046-.755 1.976-1.77 2.18l-4.615.959c-1.016.203-2.032-.291-2.468-1.221-2.118-4.505-4.847-10.725-5.689-14.735-1.973-9.214-2.118-18.66-.493-31.535.29-2.296.697-5.028 1.219-8.051l-15.354-23.367c-.436-.698-.494-1.57-.087-2.296a2.223 2.223 0 011.973-1.163h18.315c1.452-7.963 2.642-14.881 2.932-18.368.435-5.726.493-20.984.493-26.74h-43.451c0 5.727.029 21.014.494 26.74.348 4.534 2.264 14.881 4.296 25.809 1.044 5.725 2.147 11.538 3.018 16.77h16.429c.609 0 1.19.261 1.625.697.435.436.638 1.046.609 1.657l-3.018 56.442a2.234 2.234 0 01-2.235 2.122h-.087zm-17.735-4.447h15.616l2.786-51.996h-13.351c.377 2.267.667 4.36.9 6.191 1.625 12.875 1.48 22.321-.494 31.535-.871 4.039-3.686 10.404-5.486 14.27h.029zm35.353-48.304a86.701 86.701 0 00-.435 3.08c-1.974 15.55-.9 23.92.435 30.053.697 3.255 2.961 8.515 4.615 12.177l1.103-.232v-36.33l-5.718-8.719v-.029zm-94.797 2.644v34.703c0 2.383.987 5.202 3.193 6.103 1.364.553 3.686 1.076 6.096 1.512 2.147-1.512 3.454-3.081 3.686-4.447.783-4.505.261-27.524 0-36.795a91.908 91.908 0 01-5.34-9.969 81.002 81.002 0 01-7.606 8.864l-.029.029zm81.794-30.546l10.449 15.927c.726-4.156 1.567-8.574 2.351-12.933.174-1.018.377-2.006.551-2.994h-13.38.029zm-73.086-23.978c-.145 5.755-.551 21.42-.958 29.384-.087 1.947.261 4.156.9 6.452 2.96-5.289 5.37-11.393 5.544-17.642.203-6.161-.726-12.701-1.887-18.194h-3.599zm42.638 159.969c-5.602 0-8.824-2.237-12.191-4.592-1.364-.959-2.758-1.918-4.441-2.848-13.758-7.528-96.219-26.768-97.06-26.971a2.97 2.97 0 01-2.207-3.575 2.965 2.965 0 013.57-2.209c3.426.785 84.087 19.647 98.571 27.553 1.973 1.075 3.57 2.179 4.992 3.168 3.048 2.121 5.079 3.545 8.824 3.545 3.744 0 5.747-1.395 8.823-3.545 1.423-.989 3.019-2.122 4.993-3.168 14.454-7.906 95.116-26.739 98.57-27.553a2.965 2.965 0 013.57 2.209 2.97 2.97 0 01-2.206 3.575c-.842.203-83.303 19.443-97.061 26.971-1.683.93-3.077 1.889-4.441 2.848-3.396 2.355-6.588 4.592-12.19 4.592h-.116z" fill="#199A68"/><path d="M130.26 245.869c-.261 0-.551-.058-.812-.145-25.92-10.173-68.007-22.089-92.156-27.292-1.19-.261-1.974-1.453-1.712-2.644.26-1.192 1.45-1.977 2.64-1.715 24.324 5.231 66.73 17.235 92.853 27.494 1.132.436 1.712 1.744 1.248 2.878-.348.872-1.19 1.424-2.061 1.424zm-.743 7.757c-.261 0-.523-.058-.784-.145-26.848-10.172-70.444-22.089-95.435-27.291a2.27 2.27 0 01-1.742-2.645 2.245 2.245 0 012.642-1.744c25.165 5.232 69.08 17.235 96.103 27.495a2.227 2.227 0 011.306 2.877 2.246 2.246 0 01-2.09 1.453zm18.181-7.756c-.9 0-1.742-.523-2.061-1.424-.435-1.133.116-2.441 1.248-2.877 26.123-10.26 68.529-22.263 92.852-27.495a2.205 2.205 0 012.642 1.715 2.222 2.222 0 01-1.713 2.645c-24.149 5.202-66.265 17.118-92.155 27.291-.262.116-.552.145-.813.145zm.747 7.756a2.248 2.248 0 01-2.09-1.454 2.227 2.227 0 011.307-2.877c27.051-10.259 70.938-22.263 96.102-27.494 1.191-.262 2.381.523 2.642 1.743.261 1.192-.523 2.384-1.742 2.645-24.991 5.203-68.616 17.119-95.435 27.291a2.461 2.461 0 01-.784.146z" fill="#199A68"/><path d="M348.125 88.461v9.475h42.377v10.899h-42.377v5.61h32.799v40.224h-25.223c10.565 8.371 19.824 12.672 38.633 19.299-3.425 3.313-6.154 6.946-7.808 11.48-13.091-4.534-25.658-10.463-38.43-22.147v24.908h-12.539v-24.704c-7.691 6.278-17.386 14.212-36.223 22.495-2.09-4.185-4.615-8.05-8.359-11.567 11.552-3.633 23.104-9.359 35.875-19.735h-21.682v-40.224h30.389v-5.61h-40.954V97.965h40.954V88.49h12.539l.029-.029zm-31.057 35.604v5.406h18.489v-5.406h-18.489zm0 14.764v5.842h18.489v-5.842h-18.489zm31.057-14.764v5.406h20.26v-5.406h-20.26zm0 14.764v5.842h20.26v-5.842h-20.26zm168.14-24.912v13.224h-39.532c5.515 16.974 15.964 31.099 28.735 41.329 2.96 2.209 6.502 4.738 13.758 8.603-4.064 3.197-7.692 7.383-10.798 12.004-9.462-5.958-27.951-18.194-40.084-48.828-10.013 28.221-26.877 40.138-43.712 49.38-2.409-4.418-5.282-8.603-9.027-12.003 11.001-4.854 21.479-11.917 29.955-22.699 8.04-10.463 10.565-21.159 11.9-27.786h-37.21v-13.224h38.748c.552-7.062.552-15.317.552-25.024h15.093c-.232 9.475-.551 18.194-.987 25.024h42.609zM344.32 269.268l7.982-40.951h1.539l12.945 28.919 13.032-28.919h1.51l7.169 40.951h-6.27l-4.121-24.297-10.885 24.297h-1.654l-10.769-24.385-4.208 24.385h-6.27zm78.623-25.463h5.921v25.461h-5.921v-2.645c-2.584 3.022-5.805 3.429-7.605 3.429-7.837 0-12.307-6.539-12.307-13.544 0-8.283 5.689-13.369 12.365-13.369 1.887 0 5.138.494 7.547 3.633v-2.965zm-13.904 12.818c0 4.417 2.787 8.109 7.054 8.109 3.744 0 7.198-2.732 7.198-8.051s-3.425-8.225-7.198-8.225c-4.267 0-7.054 3.633-7.054 8.167zm35.781-12.818h5.921v2.296c.668-.784 1.626-1.627 2.468-2.121 1.161-.669 2.293-.843 3.628-.843 1.451 0 3.018.232 4.644 1.221l-2.409 5.377c-1.335-.843-2.409-.901-3.019-.901-1.248 0-2.525.174-3.686 1.395-1.626 1.743-1.626 4.185-1.626 5.871v13.195h-5.921v-25.49zm34.398.001v14.561c0 1.511.058 3.255 1.103 4.592.784 1.017 2.177 1.744 3.86 1.744 1.684 0 3.077-.727 3.861-1.744 1.045-1.337 1.103-3.081 1.103-4.592v-14.561h5.921v14.764c0 3.256-.377 5.988-2.728 8.342-2.293 2.296-5.428 3.139-8.273 3.139-2.583 0-5.747-.785-8.04-3.139-2.351-2.354-2.728-5.086-2.728-8.342v-14.764h5.921zm31.749-.001h5.921v2.355c2.525-2.849 5.427-3.023 6.879-3.023 4.702 0 6.705 2.354 7.488 3.459.958 1.395 1.568 3.139 1.568 7.062v15.608h-5.922v-14.155c0-6.481-2.409-6.655-4.673-6.655-2.641 0-5.369.378-5.369 8.603v12.207h-5.921v-25.461h.029zm63.667 12.76c0 7.789-5.921 13.485-13.584 13.485-7.662 0-13.612-5.667-13.612-13.485 0-7.819 5.921-13.428 13.612-13.428 7.692 0 13.584 5.551 13.584 13.428zm-6.037.058c0-5.813-3.802-8.167-7.547-8.167-3.744 0-7.546 2.354-7.546 8.167 0 4.882 2.902 8.109 7.546 8.109s7.547-3.198 7.547-8.109zm26.562-12.817v14.561c0 1.511.058 3.255 1.103 4.592.784 1.017 2.177 1.744 3.861 1.744 1.683 0 3.076-.727 3.86-1.744 1.045-1.337 1.103-3.081 1.103-4.592v-14.561h5.921v14.764c0 3.256-.377 5.988-2.728 8.342-2.293 2.296-5.428 3.139-8.272 3.139-2.584 0-5.747-.785-8.04-3.139-2.351-2.354-2.729-5.086-2.729-8.342v-14.764h5.921zm51.492 7.789c-2.729-2.645-5.37-3.139-7.198-3.139-2.787 0-4.528 1.163-5.631 2.238-1.074 1.105-2.177 3.023-2.177 5.871 0 2.849 1.161 4.97 2.293 6.104 1.335 1.279 3.193 2.063 5.369 2.063 2.41 0 5.254-.959 7.315-3.255v6.598c-1.451.901-3.802 2.005-7.721 2.005-4.209 0-7.256-1.192-9.665-3.749-1.8-1.889-3.629-4.883-3.629-9.562 0-4.68 2.003-7.993 3.861-9.853 2.003-2.005 5.195-3.749 10.217-3.749 1.944 0 4.237.29 6.937 1.802v6.655l.029-.029zm14.12-26.425h5.921v20.81c2.526-2.587 5.312-2.848 6.821-2.848 4.644 0 6.763 2.412 7.489 3.458 1.567 2.296 1.625 5.261 1.625 7.063v15.607h-5.921v-15.055c0-1.511 0-3.139-1.161-4.418-.667-.726-1.799-1.337-3.309-1.337-2.003 0-3.57.96-4.354 2.122-.841 1.221-1.219 3.139-1.219 6.423v12.265h-5.921v-44.09h.029zm40.793 4.305c2.177 0 3.802 1.628 3.802 3.808 0 2.18-1.625 3.807-3.802 3.807s-3.802-1.627-3.802-3.807c0-2.18 1.625-3.808 3.802-3.808zm2.961 14.329v25.46h-5.922v-25.46h5.922zm-394.213-15.486c-11.755 0-20.259 8.661-20.259 20.577 0 11.916 8.04 20.519 19.534 20.519 3.512 0 7.372-.813 10.159-2.15l.319-.146-1.887-3.662-.29.146c-2.119 1.017-5.312 1.656-8.301 1.656-8.853 0-15.297-6.888-15.297-16.363s6.879-16.45 15.993-16.45 15.587 6.133 15.587 14.881c0 5.929-1.8 9.765-5.021 9.852-1.103 0-1.771-1.307-1.771-2.615v-15.491h-4.528v2.267c-1.858-2.413-4.354-2.791-5.805-2.791-5.137 0-9.52 3.895-9.52 10.26 0 5.406 3.425 10.405 9.462 10.405a7.62 7.62 0 005.283-2.151c.435-.465.841-.843.957-1.104.436 3.022 2.381 5.028 5.922 5.028 4.237 0 9.288-2.79 9.288-13.689 0-10.899-8.156-19.037-19.854-19.037l.029.058zm-.986 26.855c-3.28 0-5.428-2.848-5.428-6.22 0-3.371 2.148-6.277 5.428-6.277 2.873 0 5.514 2.063 5.514 6.335 0 4.273-2.641 6.191-5.514 6.191v-.029zm313.967-93.764l18.199-58.826h15.76l-26.761 85.594h-12.713l-17.967-58.099-17.967 58.099h-12.829l-26.761-85.594h15.761l18.199 58.826 17.589-56.007h11.958l17.474 56.007h.058zm108.191 16.271c-8.301 9.3-18.431 11.858-27.98 11.858-22.234 0-35.527-14.445-35.527-32.029 0-17.583 14.28-32.522 33.814-32.522 16.748 0 32.479 10.521 32.479 34.354h-51.287c0 9.794 7.924 17.496 21.246 17.496 7.692 0 13.439-2.819 18.692-7.586l8.563 8.429zm-47.747-28.483h35.179c-2.322-9.533-10.739-12.236-17.096-12.236-6.356 0-14.89 2.703-18.083 12.236zm132.634 28.483c-8.302 9.3-18.431 11.858-27.981 11.858-22.233 0-35.527-14.445-35.527-32.029 0-17.583 14.281-32.522 33.844-32.522 16.718 0 32.479 10.521 32.479 34.354h-51.288c0 9.794 7.924 17.496 21.247 17.496 7.692 0 13.439-2.819 18.692-7.586l8.563 8.429h-.029zm-47.747-28.483h35.179c-2.322-9.533-10.74-12.236-17.096-12.236-6.357 0-14.89 2.703-18.083 12.236zm107.673-22.868h16.602v1.831l-21.508 26.535 9.288 14.445c3.164 4.65 5.138 6.859 9.637 6.859 1.335 0 4.934-.465 7.372-2.296 0 0 .697 2.907 2.235 6.046 1.539 3.139 3.077 4.446 3.077 4.446-5.138 4.999-11.726 5.377-14.774 5.377-9.404 0-14.658-5.144-18.925-11.248L856.85 158.27v29.965h-15.036V99.793h15.036v52.112l19.418-25.547.029-.029zM321.52 32.8h-7.32c-.12.76-.2 1.52-.36 2.28 2 1.96 6.6 7.16 7.76 8.48l-2.56 3.2c-1.32-2-4-5.44-6.12-7.88C311.6 43 309.24 47 305 50.08c-.52-.8-1.88-2.28-2.64-2.84 5.64-4 7.48-9.44 8.08-14.44h-7.6v-3.52h7.84v-7.16h-2.44c-.84 2.2-1.88 4.2-2.96 5.8-.68-.64-2.16-1.64-3.04-2.16 2.28-2.92 3.84-7.6 4.76-12.28l3.56.68c-.32 1.52-.68 3.04-1.08 4.48h10.92v3.48h-5.96v7.16h7.08v3.52zm4.76 9.72h7.28V20.4h-7.28v22.12zm-3.6-25.64h14.64v31.68h-3.76V46h-7.28v3h-3.6V16.88zm43.84-1.04c-.2.84-.4 1.88-.6 2.76-.24 1.24-.6 3.16-.96 5.04 1.64-.16 3.12-.24 4.04-.24 3.84 0 6.8 1.56 6.8 7.16 0 4.72-.6 11.16-2.28 14.52-1.32 2.76-3.4 3.52-6.16 3.52-1.56 0-3.44-.28-4.76-.6l-.68-4.16c1.64.48 3.8.8 4.92.8 1.4 0 2.52-.36 3.28-1.88 1.2-2.52 1.76-7.6 1.76-11.76 0-3.44-1.56-4.04-4.08-4.04-.84 0-2.16.08-3.64.24-1.48 5.88-4.32 15.12-8.28 21.52l-4.12-1.64c4-5.4 6.88-14.04 8.28-19.48-1.8.2-3.44.4-4.36.52-1 .12-2.88.36-3.96.56l-.4-4.32c1.32.08 2.52.04 3.88 0 1.28-.04 3.44-.2 5.68-.4.6-2.96.96-6 .96-8.6l4.68.48zm18.24-3.04c1.04 1.48 2.56 4 3.32 5.44l-2.6 1.16c-.88-1.72-2.16-4-3.32-5.52l2.6-1.08zm-4.56 1.68c1 1.44 2.44 3.96 3.24 5.52l-2.56 1.08c2.44 3.6 5.44 10.08 6.6 13.52l-3.96 1.88c-1.12-4.28-4.16-11.28-6.96-14.64l3.72-1.64c.04.08.12.16.16.24-.76-1.56-1.88-3.56-2.84-4.88l2.6-1.08zm38.24 28.96v2.52h5.32v-2.52h-5.32zm5.32-7.52v-2.36h-5.32v2.36h5.32zm0 5v-2.48h-5.32v2.48h5.32zM403.4 18.4v6.52h5.08V18.4h-5.08zm31.88 27.56V49h-16.84v1.12h-3.4V37.08c-.68.76-1.36 1.48-2.04 2.12-.56-.68-1.64-1.8-2.4-2.36l.36-.32h-2.92V43l4.88-1.16.36 3.2c-5.08 1.28-10.36 2.6-14.4 3.6l-.64-3.44 1.92-.4V31.32H403v12.84l2-.44V28h-4.68V15.32h11.4V28h-3.68v5.32h4.2v1.88c2.04-2.32 3.76-5.24 4.76-7.8h-3.76v-2.68h6.52v-2.28h-5.84v-2.56h5.84v-2.24h-6.36v-2.68h9.56V27.4h-4l1.76.48c-.4.88-.84 1.76-1.32 2.68h4.88c.48-1.04 1-2.2 1.36-3.16h-1.32v-2.68h6.64v-2.28h-6.04v-2.56h6.04v-2.24h-6.6v-2.68h9.84V27.4h-6.92l1.96.52c-.52.88-1.04 1.8-1.52 2.64h6.8v3h-7.56v2.36h6.36v2.52h-6.36v2.48h6.36v2.52h-6.36v2.52h8.32zm23.16-4.08v2.72c2.48-.24 5.04-.48 7.56-.76 3.28-4.52 4.28-10.56 4.6-17.84h-4.24v-3h-7.92v2.08h7.44v12.04h-7.44v2.04h7.52v2.72h-7.52zm-7.52-7.2h4.12v-2.44h-4.12v2.44zm11.8-2.44h-4.28v2.44h4.28v-2.44zm-4.28-2.28h4.28v-2.44h-4.28v2.44zm-7.52-2.44v2.44h4.12v-2.44h-4.12zm23.32-4.96h8.28s-.04 1.28-.04 1.72c-.44 16.52-.8 22.2-2.08 23.92-.76 1.2-1.6 1.52-2.84 1.72-1.2.16-3.04.16-4.92.04-.08-1-.48-2.52-1.04-3.52 1.84.16 3.48.16 4.2.16.68 0 1.04-.12 1.44-.64.88-1.12 1.28-6.2 1.6-19.96h-4.72c-.52 10.64-2.32 19.12-9.2 24.4-.56-.84-1.8-2.16-2.68-2.76.24-.16.48-.36.72-.56-5.76.68-11.52 1.28-15.8 1.68l-.48-3.16c2.32-.16 5.2-.4 8.36-.68v-3.04h-7.28v-2.72h7.28v-2.04h-7.16V25.08h7.16V23h-8.24v-2.76h8.24V18c-2.44.2-4.88.32-7.12.4-.12-.76-.52-1.96-.88-2.68 5.92-.32 13-1.04 17.16-1.96l1.76 2.8c-2.12.44-4.76.84-7.52 1.12v2.56h8.08v2.32h4.2c.04-2.72.04-5.56.04-8.56h3.56c0 2.96-.04 5.84-.08 8.56zm44.32-7.48c-.12.52-.24 2.36-.24 2.92-.04.48-.04 1.2-.04 2h12l-.08 3.76c-2.36-.12-6.16-.2-11.96-.2.04 2.16.04 4.48.04 6.28.92 1.44 1.4 3.28 1.4 5.32 0 5.32-2.84 11.6-12.32 14.36l-3.4-3.36c4.72-1.04 8.4-2.8 10.32-5.88-.8.4-1.76.6-2.8.6-3.24 0-6.72-2.4-6.72-6.96 0-4.2 3.4-7.2 7.44-7.2.8 0 1.56.08 2.24.28 0-1.04-.04-2.24-.04-3.4-6.08.08-12.64.32-17.6.64l-.12-3.84c4.52-.08 11.96-.28 17.68-.36-.04-.88-.04-1.56-.08-2.04-.12-1.28-.24-2.52-.32-2.92h4.6zm-10.04 18.76c0 2.2 1.72 3.56 3.64 3.56 2.08 0 3.64-1.64 3.12-5.4-.64-1.32-1.8-1.92-3.12-1.92-1.84 0-3.64 1.36-3.64 3.76zm47.52 8.72c0 1.76 1.96 2.84 4.8 2.84 1 0 1.96-.04 2.84-.16-.32-2.92-2.08-4.96-4.72-4.96-1.68 0-2.92 1.08-2.92 2.28zm-5.84-25.48c1 .12 2.24.16 3.2.16 2.08 0 11.2-.24 13.36-.44 1.4-.12 2.12-.2 2.56-.36l2.2 2.88c-.84.52-1.68 1.08-2.52 1.72-2.04 1.52-6.96 5.68-9.8 8 1.6-.48 3.2-.68 4.8-.68 6.68 0 11.64 4.12 11.64 9.72 0 6.36-5.08 10.92-14.08 10.92-5.52 0-9.2-2.44-9.2-6.08 0-2.96 2.64-5.64 6.6-5.64 4.96 0 7.8 3.2 8.32 7 2.76-1.2 4.24-3.36 4.24-6.28 0-3.76-3.68-6.48-8.68-6.48-6.4 0-10.16 3-14.88 8.04l-2.92-2.96c3.12-2.56 8.12-6.76 10.48-8.72 2.24-1.84 6.88-5.68 8.88-7.44-2.12.08-9.04.4-11.12.52-1 .04-2.04.12-2.96.24l-.12-4.12zm49.52 25.56c0 1.72 1.52 2.92 4.96 2.92 2.24 0 3.96-.68 3.96-3.24 0-.56 0-1.36-.04-2.24-1.16-.24-2.4-.36-3.64-.36-3.4 0-5.24 1.32-5.24 2.92zM612.32 15c-.08.72-.16 1.6-.2 2.72-.04.48-.04 1.24-.08 2.12 3.44-.16 6.96-.52 10.52-1.12v3.68c-2.96.36-6.68.72-10.56.88v4.96c3.96-.16 7.48-.52 10.96-1l-.04 3.72c-3.68.44-7 .72-10.84.88.08 1.84.2 3.76.28 5.56 5.2 1.44 9.16 4.24 11.48 6.12l-2.32 3.56c-2.28-2.08-5.32-4.36-8.96-5.84.04.84.08 1.52.08 2.08 0 3.04-2.2 5.8-7.44 5.8-6 0-9.24-2.24-9.24-6.24 0-3.84 3.56-6.44 9.52-6.44 1.04 0 2 .08 2.96.16-.04-1.56-.12-3.2-.16-4.68h-2.2c-2.56 0-7-.2-9.76-.52l-.04-3.76c2.72.44 7.44.72 9.88.72h2.04v-4.92h-1.64c-2.64 0-7.44-.4-10.04-.72l-.04-3.64c2.68.48 7.48.88 10.04.88h1.72v-2.44c0-.68-.04-1.88-.2-2.52h4.28zm42.12.44c-.36 1.2-.56 2.52-.84 3.68-.08.52-.2 1.12-.36 1.8 4.68-.2 10.4-.8 15.28-1.88l.08 3.84c-4.48.76-10.88 1.44-16.12 1.68-.64 2.96-1.44 6.2-2.2 8.36 3.4-2.16 6.76-3 10.68-3 6.4 0 10.4 3.32 10.4 8.2 0 8.6-8.6 11.76-21.12 10.44l-1.08-4.04c9.08 1.32 18-.04 18-6.32 0-2.72-2.28-4.88-6.64-4.88-4.68 0-8.96 1.64-11.52 4.76-.44.56-.8 1.12-1.16 1.8l-3.76-1.32c2-3.88 3.6-9.44 4.6-13.92-2.64-.04-5.12-.16-7.32-.36v-3.92c2.28.4 5.44.68 7.88.68h.2c.12-.84.24-1.6.32-2.2.2-1.44.28-2.44.2-3.6l4.48.2zm32.48 20.16c1.08-.8 1.96-1.68 3.08-2.84 2.04-2.04 5.24-6.4 7.68-9.28 2.52-2.92 4.84-3.24 7.6-.48 2.52 2.52 5.64 6.56 8.12 9.2 2.48 2.72 6.24 6.68 9.92 9.96l-3.24 3.72c-2.96-2.8-6.52-6.76-9.16-9.84-2.56-2.92-5.56-6.76-7.44-8.88-1.56-1.72-2.32-1.44-3.6.12-1.76 2.2-4.84 6.44-6.76 8.8-.84 1.2-1.76 2.48-2.44 3.4l-3.76-3.88z" fill="#111"/><path d="M16.175 368.156h17.969V375H1.737l16.75-20.281a162.095 162.095 0 004.126-5.25c1.125-1.479 1.979-2.719 2.562-3.719 1.188-1.958 1.781-3.719 1.781-5.281 0-2.25-.791-4.136-2.375-5.657-1.583-1.52-3.541-2.281-5.875-2.281-4.875 0-7.666 2.886-8.375 8.657h-7.25c1.167-10.167 6.302-15.25 15.406-15.25 4.396 0 8.084 1.395 11.063 4.187 3 2.792 4.5 6.25 4.5 10.375 0 2.625-.698 5.198-2.094 7.719-.708 1.312-1.75 2.875-3.125 4.687-1.354 1.792-3.073 3.917-5.156 6.375l-7.5 8.875zm29.387-17.594c0-7.687 1.792-13.822 5.376-18.406 3.208-4.146 7.093-6.218 11.656-6.218 4.562 0 8.448 2.072 11.656 6.218 3.583 4.584 5.375 10.823 5.375 18.719 0 7.875-1.792 14.104-5.375 18.687-3.208 4.146-7.083 6.219-11.625 6.219s-8.438-2.073-11.688-6.219c-3.583-4.583-5.374-10.916-5.374-19zm7.157.032c0 5.354.927 9.802 2.781 13.344 1.854 3.479 4.219 5.218 7.094 5.218 2.854 0 5.218-1.739 7.093-5.218 1.876-3.459 2.813-7.823 2.813-13.094 0-5.271-.938-9.646-2.813-13.125-1.874-3.459-4.24-5.188-7.093-5.188-2.834 0-5.188 1.729-7.063 5.188-1.875 3.437-2.812 7.729-2.812 12.875zm48.856 17.562h17.969V375H87.138l16.749-20.281a161.537 161.537 0 004.125-5.25c1.125-1.479 1.98-2.719 2.563-3.719 1.187-1.958 1.781-3.719 1.781-5.281 0-2.25-.791-4.136-2.375-5.657-1.583-1.52-3.541-2.281-5.875-2.281-4.875 0-7.666 2.886-8.375 8.657h-7.25c1.167-10.167 6.302-15.25 15.406-15.25 4.396 0 8.084 1.395 11.063 4.187 3 2.792 4.5 6.25 4.5 10.375 0 2.625-.698 5.198-2.094 7.719-.708 1.312-1.75 2.875-3.125 4.687-1.354 1.792-3.073 3.917-5.156 6.375l-7.5 8.875zm57.794-6.625h5.125v6.625h-5.125V375h-7.282v-6.844H128.4l30.969-45v38.375zm-7.282 0v-16.156l-11.125 16.156h11.125zm23.95 9.969c0-1.167.428-2.177 1.282-3.031.854-.854 1.875-1.281 3.062-1.281 1.188 0 2.209.427 3.063 1.281.854.854 1.281 1.875 1.281 3.062 0 1.209-.427 2.24-1.281 3.094-.834.833-1.854 1.25-3.063 1.25-1.229 0-2.26-.417-3.094-1.25-.833-.833-1.25-1.875-1.25-3.125zm20.138-20.938c0-7.687 1.792-13.822 5.375-18.406 3.208-4.146 7.094-6.218 11.656-6.218 4.563 0 8.448 2.072 11.656 6.218 3.584 4.584 5.375 10.823 5.375 18.719 0 7.875-1.791 14.104-5.375 18.687-3.208 4.146-7.083 6.219-11.625 6.219-4.541 0-8.437-2.073-11.687-6.219-3.583-4.583-5.375-10.916-5.375-19zm7.156.032c0 5.354.927 9.802 2.781 13.344 1.855 3.479 4.219 5.218 7.094 5.218 2.854 0 5.219-1.739 7.094-5.218 1.875-3.459 2.812-7.823 2.812-13.094 0-5.271-.937-9.646-2.812-13.125-1.875-3.459-4.24-5.188-7.094-5.188-2.833 0-5.187 1.729-7.062 5.188-1.875 3.437-2.813 7.729-2.813 12.875zm57.888-17.032h-23.813v-6.812h35.969l-30.438 49.906-5.781-3.656 24.063-39.438zm12.043 37.938c0-1.167.428-2.177 1.282-3.031.854-.854 1.875-1.281 3.062-1.281 1.188 0 2.209.427 3.063 1.281.854.854 1.281 1.875 1.281 3.062 0 1.209-.427 2.24-1.281 3.094-.834.833-1.854 1.25-3.063 1.25-1.229 0-2.26-.417-3.094-1.25-.833-.833-1.25-1.875-1.25-3.125zm33.982-18.906v-6.219c3.083 0 5.156-.344 6.218-1.031 1.896-1.209 2.844-3.146 2.844-5.813 0-2.062-.687-3.739-2.062-5.031-1.354-1.312-3.115-1.969-5.282-1.969-2.02 0-3.583.49-4.687 1.469-1.063 1-1.854 2.688-2.375 5.062h-7.25c.75-4.541 2.292-7.864 4.625-9.968 2.333-2.125 5.594-3.188 9.781-3.188 4.229 0 7.677 1.25 10.344 3.75 2.667 2.479 4 5.677 4 9.594 0 4.417-1.75 7.854-5.25 10.312 4 2.355 6 6.178 6 11.469 0 4.334-1.458 7.875-4.375 10.625s-6.656 4.125-11.219 4.125c-5.812 0-10.125-2.135-12.937-6.406-1.167-1.792-1.907-4.271-2.219-7.437h7.031c.375 2.333 1.281 4.124 2.719 5.374 1.458 1.23 3.354 1.844 5.687 1.844 2.355 0 4.303-.781 5.844-2.344 1.542-1.604 2.313-3.635 2.313-6.093 0-3.25-1.157-5.563-3.469-6.938-1.354-.791-3.448-1.187-6.281-1.187zm28.856-2.032c0-7.687 1.792-13.822 5.375-18.406 3.208-4.146 7.094-6.218 11.656-6.218 4.563 0 8.448 2.072 11.656 6.218 3.584 4.584 5.375 10.823 5.375 18.719 0 7.875-1.791 14.104-5.375 18.687-3.208 4.146-7.083 6.219-11.625 6.219-4.541 0-8.437-2.073-11.687-6.219-3.583-4.583-5.375-10.916-5.375-19zm7.156.032c0 5.354.927 9.802 2.781 13.344 1.855 3.479 4.219 5.218 7.094 5.218 2.854 0 5.219-1.739 7.094-5.218 1.875-3.459 2.812-7.823 2.812-13.094 0-5.271-.937-9.646-2.812-13.125-1.875-3.459-4.24-5.188-7.094-5.188-2.833 0-5.187 1.729-7.062 5.188-1.875 3.437-2.813 7.729-2.813 12.875zm46.263-21.782v52.376h6.062v6.624h-13.219v-65.593h13.219v6.593h-6.062zm24.325 22.313V375h-7.032v-23.875h-3v-6.563h3v-11.156h7.032v11.156h5.468v6.563h-5.468zm20.481-6.563v17.469c0 5.042 1.99 7.563 5.969 7.563s5.968-2.521 5.968-7.563v-17.469h7.032v17.626c0 2.437-.302 4.541-.907 6.312-.583 1.583-1.593 3.01-3.031 4.281-2.375 2.063-5.396 3.094-9.062 3.094-3.646 0-6.657-1.031-9.032-3.094-1.458-1.271-2.489-2.698-3.093-4.281-.584-1.417-.875-3.521-.875-6.312v-17.626h7.031zm58.762 16.876h-21.812c.187 2.5 1 4.489 2.437 5.968 1.438 1.459 3.282 2.188 5.532 2.188 1.75 0 3.198-.417 4.343-1.25 1.125-.834 2.407-2.375 3.844-4.625l5.938 3.312c-.917 1.563-1.886 2.907-2.907 4.031a16.031 16.031 0 01-3.281 2.75 13.385 13.385 0 01-3.781 1.563c-1.354.333-2.823.5-4.406.5-4.542 0-8.188-1.458-10.938-4.375-2.75-2.938-4.125-6.833-4.125-11.688 0-4.812 1.334-8.708 4-11.687 2.688-2.937 6.25-4.406 10.688-4.406 4.479 0 8.021 1.427 10.625 4.281 2.583 2.833 3.875 6.76 3.875 11.781l-.032 1.657zm-7.218-5.75c-.979-3.75-3.344-5.626-7.094-5.626-.854 0-1.656.136-2.406.407-.75.25-1.438.625-2.063 1.125a7.002 7.002 0 00-1.562 1.75 8.17 8.17 0 00-1 2.344h14.125zm23.168 25.5v-52.376h-6.093v-6.593h13.218v65.593h-13.218v-6.624h6.093zm39.557-24.719h13.937v6.125h-13.937v-6.125zm42.806-5.907c0-7.687 1.792-13.822 5.375-18.406 3.208-4.146 7.094-6.218 11.656-6.218 4.563 0 8.448 2.072 11.656 6.218 3.584 4.584 5.375 10.823 5.375 18.719 0 7.875-1.791 14.104-5.375 18.687-3.208 4.146-7.083 6.219-11.625 6.219-4.541 0-8.437-2.073-11.687-6.219-3.583-4.583-5.375-10.916-5.375-19zm7.156.032c0 5.354.927 9.802 2.781 13.344 1.855 3.479 4.219 5.218 7.094 5.218 2.854 0 5.219-1.739 7.094-5.218 1.875-3.459 2.812-7.823 2.812-13.094 0-5.271-.937-9.646-2.812-13.125-1.875-3.459-4.24-5.188-7.094-5.188-2.833 0-5.187 1.729-7.062 5.188-1.875 3.437-2.813 7.729-2.813 12.875zm43.95-.688c-3.541-2.5-5.312-5.906-5.312-10.218 0-3.917 1.343-7.188 4.031-9.813 2.708-2.625 6.073-3.937 10.094-3.937 4 0 7.333 1.312 10 3.937 2.666 2.604 4 5.885 4 9.844 0 4.146-1.761 7.531-5.282 10.156 1.938 1.042 3.459 2.563 4.563 4.563 1.125 2 1.687 4.25 1.687 6.75 0 4.27-1.395 7.77-4.187 10.5-2.792 2.729-6.365 4.093-10.719 4.093-4.458 0-8.135-1.375-11.031-4.125-2.917-2.75-4.375-6.208-4.375-10.375 0-5.416 2.177-9.208 6.531-11.375zm1.531-10.25c0 2.063.698 3.792 2.094 5.188 1.417 1.416 3.125 2.125 5.125 2.125 1.979 0 3.677-.709 5.094-2.125 1.417-1.417 2.125-3.115 2.125-5.094s-.708-3.677-2.125-5.094c-1.417-1.416-3.115-2.125-5.094-2.125s-3.677.709-5.094 2.125c-1.416 1.417-2.125 3.084-2.125 5zm-.906 21.375c0 2.229.771 4.146 2.313 5.75 1.562 1.584 3.458 2.375 5.687 2.375 2.209 0 4.094-.781 5.656-2.344 1.563-1.583 2.344-3.479 2.344-5.687 0-2.229-.781-4.125-2.344-5.687-1.562-1.563-3.447-2.344-5.656-2.344-2.187 0-4.073.781-5.656 2.344-1.563 1.562-2.344 3.427-2.344 5.593zm36.481 10.469c0-1.167.428-2.177 1.282-3.031.854-.854 1.875-1.281 3.062-1.281 1.188 0 2.209.427 3.063 1.281.854.854 1.281 1.875 1.281 3.062 0 1.209-.427 2.24-1.281 3.094-.834.833-1.854 1.25-3.063 1.25-1.229 0-2.26-.417-3.094-1.25-.833-.833-1.25-1.875-1.25-3.125zm20.138-20.938c0-7.687 1.792-13.822 5.375-18.406 3.208-4.146 7.094-6.218 11.656-6.218 4.563 0 8.448 2.072 11.657 6.218 3.583 4.584 5.374 10.823 5.374 18.719 0 7.875-1.791 14.104-5.374 18.687-3.209 4.146-7.084 6.219-11.626 6.219-4.541 0-8.437-2.073-11.687-6.219-3.583-4.583-5.375-10.916-5.375-19zm7.156.032c0 5.354.927 9.802 2.782 13.344 1.854 3.479 4.218 5.218 7.093 5.218 2.854 0 5.219-1.739 7.094-5.218 1.875-3.459 2.813-7.823 2.813-13.094 0-5.271-.938-9.646-2.813-13.125-1.875-3.459-4.24-5.188-7.094-5.188-2.833 0-5.187 1.729-7.062 5.188-1.875 3.437-2.813 7.729-2.813 12.875zm45.232-17.032h-8.344l4-6.812h11.625V375h-7.281v-41.438zm38.793-4.75v52.376h6.063v6.624h-13.219v-65.593h13.219v6.593h-6.063zm24.325 22.313V375h-7.031v-23.875h-3v-6.563h3v-11.156h7.031v11.156h5.469v6.563h-5.469zm14.763-28.906h7.031v24.875c2.5-2.25 5.26-3.375 8.281-3.375 3.438 0 6.188 1.114 8.25 3.343 1.75 1.938 2.625 5.032 2.625 9.282V375h-7.031v-18c0-2.438-.438-4.198-1.313-5.281-.854-1.104-2.239-1.657-4.156-1.657-2.458 0-4.187.761-5.187 2.282-.979 1.541-1.469 4.187-1.469 7.937V375h-7.031v-52.781zm45.356 22.343v17.469c0 5.042 1.99 7.563 5.969 7.563s5.968-2.521 5.968-7.563v-17.469h7.032v17.626c0 2.437-.302 4.541-.906 6.312-.584 1.583-1.594 3.01-3.032 4.281-2.375 2.063-5.396 3.094-9.062 3.094-3.646 0-6.656-1.031-9.032-3.094-1.458-1.271-2.489-2.698-3.093-4.281-.584-1.417-.875-3.521-.875-6.312v-17.626h7.031zm36.075 36.626v-52.376h-6.094v-6.593h13.219v65.593h-13.219v-6.624h6.094z" fill="#242424"/></svg>