<svg width="333" height="129" fill="none" xmlns="http://www.w3.org/2000/svg"><path d="M71.122 74.344h-6.77a.7.7 0 01-.6-.357.812.812 0 01-.028-.743c.019-.04 1.746-3.766 2.115-5.6.416-2.09.767-4.945.139-10.247a88.102 88.102 0 00-.314-2.299h-7.185l.923 18.443a.777.777 0 01-.194.565.712.712 0 01-.517.238h-1.237a.597.597 0 01-.231-.04c-.397-.149-3.88-1.516-4.258-3.875-.332-2.041-.028-12.606-.009-13.062a.81.81 0 01.11-.386c.028-.05 3.104-5.203 2.956-8.295-.13-2.715-.258-8.057-.305-10.019H51.95c.351 1.903.628 4.123.564 6.253-.083 2.894-1.265 5.65-2.568 7.84a30.824 30.824 0 002.05 4.221.72.72 0 01.111.386c.01.447.324 11.01-.009 13.062-.157.971-.84 1.873-2.032 2.696-.147.109-.332.148-.517.109-.914-.179-1.856-.387-2.493-.664-1.155-.506-1.903-1.873-1.903-3.489v-12.15a.8.8 0 01.222-.554c.027-.03 1.524-1.547 2.974-3.816-.462-1.348-.785-2.755-.73-3.954.157-3.33.323-10.643.323-10.723 0-.416.323-.743.711-.743h1.515a43.66 43.66 0 00-.665-2.527h-9.79c-.452 1.506-1.708 6.124-1.588 10.247.175 5.877 5.661 11.456 5.717 11.506a.818.818 0 01.221.555v12.15c0 1.615-.748 2.982-1.902 3.488-.702.307-1.801.525-2.872.733l-.582.119c-.388.08-.757-.188-.831-.605-.074-.416.175-.812.563-.891l.591-.12c.951-.188 2.023-.396 2.595-.653.702-.308 1.016-1.259 1.016-2.082V57.23c-1.108-1.18-5.763-6.471-5.938-12.338-.157-5.273 1.745-11.07 1.828-11.318a.71.71 0 01.665-.505H50.01a.71.71 0 01.665.505c.037.12.499 1.526.951 3.538h4.766c.387 0 .701.327.71.744 0 .069.167 7.393.324 10.722.157 3.26-2.494 8.017-3.075 9.019-.093 3.16-.25 11.01 0 12.546.175 1.09 2.022 2.19 3.223 2.666h.36l-.924-18.443a.777.777 0 01.194-.565.712.712 0 01.517-.238h7.694c-.278-1.704-.6-3.587-.924-5.44-.656-3.776-1.265-7.334-1.385-8.96-.185-2.477-.157-9.691-.157-9.999 0-.416.314-.753.71-.753H78.9c.387 0 .71.337.71.753 0 .308.019 7.522-.157 10-.092 1.209-.452 3.498-.905 6.144H89.51c.258 0 .498.149.627.396a.813.813 0 01-.027.783L82.25 59.32v12.387l3.86.863c.389.089.629.485.555.902-.083.406-.453.673-.84.594l-4.424-.981c-.333-.07-.563-.386-.563-.743v-13.23c0-.149.036-.298.12-.416l7.258-11.843h-9.909c-.074.426-.148.862-.222 1.298-.35 2.051-.72 4.152-1.006 5.986l2.789 4.549c.074.128.12.267.12.416v13.23c0 .357-.24.674-.564.743l-1.468.327a.695.695 0 01-.785-.416c-.674-1.536-1.542-3.657-1.81-5.025-.628-3.141-.674-6.362-.157-10.752.092-.783.222-1.715.388-2.745l-4.886-7.968a.814.814 0 01-.027-.783.702.702 0 01.628-.396h5.827c.462-2.715.84-5.074.933-6.263.138-1.953.157-7.156.157-9.118H64.399c0 1.953.009 7.165.157 9.118.11 1.546.72 5.074 1.366 8.8.333 1.952.684 3.934.96 5.718h5.228c.194 0 .379.09.517.238a.777.777 0 01.194.565l-.96 19.245c-.019.406-.333.724-.711.724h-.028zm-5.643-1.517h4.969l.886-17.729h-4.248c.12.773.213 1.487.286 2.111.517 4.39.471 7.61-.157 10.752-.277 1.378-1.172 3.548-1.745 4.866h.01zm11.249-16.47c-.056.376-.102.723-.139 1.05-.628 5.302-.286 8.156.139 10.247.221 1.11.942 2.904 1.468 4.153l.351-.08V59.34l-1.82-2.973v-.01zm-30.163.901v11.833c0 .813.314 1.774 1.016 2.081.434.189 1.173.367 1.94.516.683-.516 1.099-1.05 1.172-1.517.25-1.536.084-9.385 0-12.546a32.106 32.106 0 01-1.699-3.399 27.153 27.153 0 01-2.42 3.023l-.009.01zM72.59 46.843l3.325 5.43c.23-1.416.499-2.923.748-4.41.056-.346.12-.683.176-1.02H72.58h.01zm-23.254-8.176c-.046 1.962-.176 7.304-.305 10.02-.028.663.083 1.416.286 2.2.942-1.804 1.709-3.886 1.764-6.016.065-2.101-.23-4.33-.6-6.204h-1.145zm13.566 54.546c-1.782 0-2.807-.763-3.879-1.566a14.914 14.914 0 00-1.413-.97c-4.377-2.568-30.615-9.128-30.883-9.198-.508-.128-.822-.673-.701-1.218.12-.545.628-.882 1.136-.754 1.09.268 26.754 6.7 31.363 9.395a16.56 16.56 0 011.588 1.08c.97.724 1.616 1.21 2.808 1.21 1.191 0 1.828-.476 2.807-1.21.453-.337.96-.723 1.589-1.08 4.599-2.695 30.264-9.117 31.363-9.395.508-.128 1.016.209 1.136.754.12.545-.194 1.09-.702 1.219-.268.069-26.505 6.63-30.883 9.196-.536.317-.979.644-1.413.971-1.08.803-2.096 1.566-3.879 1.566h-.037z" fill="#199A68"/><path d="M60.128 84.968a.798.798 0 01-.258-.05c-8.247-3.468-21.639-7.532-29.322-9.305-.38-.09-.628-.496-.545-.902.083-.407.461-.674.84-.585 7.74 1.784 21.232 5.877 29.544 9.375.36.149.545.595.397.981-.11.297-.379.486-.656.486zm-.236 2.645a.745.745 0 01-.25-.05c-8.542-3.468-22.414-7.531-30.365-9.305-.38-.09-.628-.486-.555-.902.084-.416.453-.674.84-.595 8.008 1.784 21.981 5.877 30.58 9.375.368.149.553.585.415.981-.111.308-.379.496-.665.496zm5.785-2.645a.688.688 0 01-.656-.485c-.139-.387.037-.833.397-.982 8.312-3.498 21.805-7.59 29.544-9.375.388-.089.757.169.84.585.083.407-.157.813-.545.902-7.683 1.774-21.084 5.837-29.322 9.306a.6.6 0 01-.258.05zm.237 2.645c-.286 0-.554-.188-.665-.496-.138-.396.047-.832.416-.98 8.607-3.499 22.571-7.592 30.578-9.376.379-.089.757.179.84.595.084.406-.166.813-.554.902-7.951 1.774-21.832 5.837-30.365 9.305a.743.743 0 01-.25.05z" fill="#199A68"/><path d="M129.449 31.295v3.231h13.484v3.716h-13.484v1.913h10.436v13.716h-8.026c3.362 2.854 6.308 4.32 12.293 6.58-1.09 1.13-1.958 2.368-2.485 3.914-4.165-1.545-8.164-3.567-12.227-7.551v8.493h-3.99v-8.424c-2.447 2.14-5.532 4.846-11.526 7.67-.665-1.426-1.468-2.744-2.659-3.943 3.675-1.24 7.351-3.191 11.415-6.73h-6.899V40.166h9.669v-1.913h-13.031v-3.716h13.031v-3.23h3.99l.009-.01zm-9.882 12.14v1.844h5.883v-1.844h-5.883zm0 5.035v1.992h5.883V48.47h-5.883zm9.882-5.035v1.844h6.446v-1.844h-6.446zm0 5.035v1.992h6.446V48.47h-6.446zm53.499-8.494v4.51H170.37c1.755 5.787 5.079 10.603 9.143 14.091.942.753 2.068 1.616 4.377 2.934-1.293 1.09-2.447 2.517-3.435 4.092-3.011-2.031-8.894-6.203-12.754-16.648-3.186 9.622-8.552 13.685-13.909 16.837-.766-1.507-1.68-2.934-2.872-4.093 3.5-1.655 6.834-4.063 9.531-7.74 2.558-3.568 3.362-7.214 3.787-9.474h-11.84v-4.509h12.329c.175-2.408.175-5.223.175-8.533h4.803c-.074 3.231-.176 6.204-.314 8.533h13.557zm-54.71 52.97l2.54-13.963h.489l4.119 9.86 4.147-9.86h.48l2.281 13.963H140.3l-1.312-8.285-3.463 8.285h-.526l-3.427-8.314-1.339 8.314h-1.995zm25.016-8.682h1.884v8.681h-1.884v-.901a2.998 2.998 0 01-2.419 1.169c-2.494 0-3.916-2.23-3.916-4.618 0-2.825 1.81-4.559 3.934-4.559.6 0 1.635.169 2.401 1.239v-1.01zm-4.423 4.37c0 1.507.886 2.765 2.244 2.765 1.191 0 2.29-.931 2.29-2.745 0-1.813-1.09-2.804-2.29-2.804-1.358 0-2.244 1.238-2.244 2.784zm11.385-4.37h1.884v.783c.212-.268.517-.555.785-.724.369-.227.729-.287 1.154-.287.462 0 .96.08 1.478.416l-.767 1.834c-.425-.288-.766-.308-.96-.308-.397 0-.804.06-1.173.476-.517.595-.517 1.427-.517 2.002v4.5h-1.884v-8.692zm10.944.001v4.965c0 .515.019 1.11.351 1.565.25.347.693.595 1.229.595.535 0 .979-.248 1.228-.595.332-.455.351-1.05.351-1.565v-4.965h1.884v5.034c0 1.11-.12 2.041-.868 2.844-.73.783-1.727 1.07-2.632 1.07-.822 0-1.829-.267-2.559-1.07-.748-.802-.868-1.734-.868-2.844v-5.034h1.884zm10.102-.001h1.884v.803c.804-.971 1.727-1.03 2.189-1.03 1.496 0 2.133.802 2.383 1.178.304.476.498 1.07.498 2.409v5.321h-1.884V88.12c0-2.21-.766-2.27-1.487-2.27-.84 0-1.708.13-1.708 2.934v4.162h-1.884v-8.68h.009zm20.258 4.351c0 2.656-1.884 4.598-4.322 4.598s-4.332-1.933-4.332-4.598c0-2.666 1.884-4.579 4.332-4.579 2.447 0 4.322 1.893 4.322 4.579zm-1.921.02c0-1.983-1.21-2.785-2.401-2.785-1.192 0-2.401.802-2.401 2.784 0 1.665.923 2.765 2.401 2.765 1.477 0 2.401-1.09 2.401-2.765zm8.452-4.37v4.965c0 .515.018 1.11.351 1.565.249.347.693.595 1.228.595.536 0 .979-.248 1.229-.595.332-.455.35-1.05.35-1.565v-4.965h1.884v5.034c0 1.11-.12 2.041-.868 2.844-.729.783-1.727 1.07-2.632 1.07-.822 0-1.828-.267-2.558-1.07-.748-.802-.868-1.734-.868-2.844v-5.034h1.884zm16.383 2.655c-.868-.901-1.708-1.07-2.29-1.07-.887 0-1.441.396-1.792.763-.341.377-.692 1.03-.692 2.002 0 .971.369 1.695.729 2.081a2.346 2.346 0 001.709.704c.766 0 1.671-.327 2.327-1.11v2.25c-.462.307-1.21.683-2.456.683-1.34 0-2.309-.406-3.076-1.278-.572-.644-1.154-1.665-1.154-3.26 0-1.596.637-2.726 1.228-3.36.637-.684 1.653-1.279 3.251-1.279.619 0 1.348.1 2.207.615v2.27l.009-.01zm4.493-9.01h1.884v7.095c.804-.882 1.691-.97 2.171-.97 1.477 0 2.152.822 2.382 1.178.499.783.518 1.794.518 2.409v5.321h-1.884V87.81c0-.515 0-1.07-.37-1.507-.212-.247-.572-.455-1.053-.455-.637 0-1.136.327-1.385.723-.268.416-.388 1.07-.388 2.19v4.182h-1.884V77.91h.009zm12.98 1.468c.692 0 1.21.555 1.21 1.298s-.518 1.298-1.21 1.298c-.693 0-1.21-.555-1.21-1.298s.517-1.298 1.21-1.298zm.942 4.886v8.68h-1.884v-8.68h1.884zm-125.431-5.281c-3.741 0-6.447 2.953-6.447 7.017 0 4.063 2.559 6.996 6.216 6.996 1.117 0 2.346-.277 3.232-.733l.102-.05-.601-1.248-.092.05c-.674.346-1.69.564-2.641.564-2.817 0-4.867-2.349-4.867-5.58 0-3.23 2.189-5.609 5.088-5.609 2.9 0 4.96 2.091 4.96 5.074 0 2.022-.573 3.33-1.598 3.36-.351 0-.563-.446-.563-.892V82.65h-1.441v.773a2.207 2.207 0 00-1.847-.951c-1.635 0-3.029 1.328-3.029 3.498 0 1.843 1.09 3.548 3.011 3.548.406 0 1.08-.12 1.68-.734.139-.158.268-.287.305-.376.139 1.03.757 1.714 1.884 1.714 1.348 0 2.955-.951 2.955-4.668 0-3.716-2.595-6.49-6.317-6.49l.01.02zm-.314 9.157c-1.044 0-1.727-.971-1.727-2.12 0-1.15.683-2.141 1.727-2.141.914 0 1.754.703 1.754 2.16 0 1.457-.84 2.111-1.754 2.111v-.01zm99.898-31.972l5.791-20.058h5.014l-8.515 29.186h-4.045l-5.716-19.81-5.717 19.81h-4.082l-8.515-29.186h5.015l5.79 20.058 5.597-19.096h3.805l5.56 19.096h.018zm34.425 5.549c-2.642 3.17-5.865 4.043-8.903 4.043-7.074 0-11.304-4.925-11.304-10.921 0-5.996 4.544-11.09 10.759-11.09 5.329 0 10.334 3.588 10.334 11.714h-16.319c0 3.34 2.522 5.966 6.761 5.966 2.447 0 4.276-.961 5.947-2.586l2.725 2.874zm-15.192-9.712h11.193c-.739-3.25-3.417-4.172-5.44-4.172-2.022 0-4.738.921-5.753 4.172zm42.201 9.712c-2.641 3.17-5.864 4.043-8.903 4.043-7.074 0-11.304-4.925-11.304-10.921 0-5.996 4.544-11.09 10.769-11.09 5.319 0 10.334 3.588 10.334 11.714h-16.319c0 3.34 2.521 5.966 6.76 5.966 2.448 0 4.276-.961 5.948-2.586l2.724 2.874h-.009zm-15.192-9.712h11.193c-.739-3.25-3.417-4.172-5.439-4.172-2.023 0-4.738.921-5.754 4.172zm34.26-7.797h5.282v.624l-6.843 9.048 2.955 4.925c1.007 1.586 1.635 2.339 3.066 2.339.425 0 1.57-.159 2.346-.783 0 0 .222.991.711 2.061.49 1.07.979 1.517.979 1.517-1.635 1.704-3.731 1.833-4.701 1.833-2.992 0-4.664-1.754-6.021-3.835l-3.962-6.838v10.217h-4.784V35.16h4.784v17.769l6.178-8.712.01-.01zM121.664 12.01h-2.572c-.042.268-.07.535-.126.802.703.689 2.319 2.516 2.726 2.98l-.899 1.124c-.464-.703-1.405-1.912-2.15-2.769-.464 1.448-1.293 2.853-2.783 3.935-.183-.28-.661-.8-.928-.998 1.982-1.405 2.629-3.316 2.839-5.073h-2.67v-1.237h2.755V8.258h-.858c-.295.773-.66 1.476-1.04 2.038-.239-.225-.759-.576-1.068-.759.801-1.026 1.349-2.67 1.673-4.314l1.251.239a25.851 25.851 0 01-.38 1.574h3.837v1.222h-2.094v2.516h2.487v1.237zm1.673 3.416h2.558V7.654h-2.558v7.772zm-1.265-9.009h5.144v11.131h-1.321v-.9h-2.558v1.055h-1.265V6.417zm15.403-.365c-.07.295-.14.66-.211.97-.084.435-.21 1.11-.337 1.77a16.096 16.096 0 011.419-.084c1.35 0 2.39.548 2.39 2.516 0 1.658-.211 3.92-.801 5.101-.464.97-1.195 1.237-2.165 1.237a7.774 7.774 0 01-1.672-.21l-.239-1.462c.576.168 1.335.28 1.729.28.491 0 .885-.126 1.152-.66.422-.885.618-2.67.618-4.132 0-1.208-.548-1.42-1.433-1.42-.295 0-.759.029-1.279.085-.52 2.066-1.518 5.313-2.909 7.561l-1.448-.576c1.406-1.897 2.417-4.933 2.909-6.844-.632.07-1.208.14-1.532.183a27.68 27.68 0 00-1.391.196l-.14-1.518c.463.029.885.014 1.363 0 .45-.014 1.208-.07 1.996-.14.21-1.04.337-2.108.337-3.022l1.644.169zm6.409-1.068c.365.52.899 1.405 1.166 1.911l-.913.408c-.309-.605-.759-1.406-1.167-1.94l.914-.38zm-1.602.59c.351.506.857 1.391 1.138 1.94l-.899.379c.857 1.265 1.911 3.542 2.318 4.75l-1.391.66c-.393-1.503-1.462-3.962-2.445-5.143l1.307-.576c.014.028.042.056.056.084-.267-.548-.661-1.25-.998-1.714l.914-.38zm13.435 10.175v.886h1.869v-.886h-1.869zm1.869-2.642v-.83h-1.869v.83h1.869zm0 1.757v-.872h-1.869v.872h1.869zm-7.153-7.913v2.291h1.785v-2.29h-1.785zm11.201 9.684v1.068h-5.917v.393h-1.194v-4.581c-.239.267-.478.52-.717.744-.197-.239-.576-.632-.843-.829l.126-.112h-1.026v2.277l1.715-.408.126 1.124c-1.785.45-3.64.914-5.059 1.265l-.225-1.208.675-.141v-4.736h.997v4.511l.703-.154v-5.524h-1.644V5.87h4.005v4.455h-1.293v1.87h1.476v.66a9.7 9.7 0 001.672-2.74h-1.321v-.942h2.291V8.37h-2.052v-.9h2.052v-.787h-2.235v-.941h3.359v4.37H155.9l.618.17c-.14.308-.295.617-.463.94h1.714c.169-.365.352-.772.478-1.11h-.464v-.941h2.333V8.37h-2.122v-.9h2.122v-.787h-2.319v-.941h3.458v4.37h-2.432l.689.183c-.183.31-.366.633-.534.928h2.389v1.054h-2.656v.829h2.234v.885h-2.234v.872h2.234v.885h-2.234v.886h2.923zm8.137-1.434v.956c.872-.085 1.771-.169 2.657-.267 1.152-1.588 1.503-3.71 1.616-6.268h-1.49V8.568h-2.783v.73h2.614v4.23h-2.614v.717h2.643v.956h-2.643zm-2.642-2.53h1.448v-.857h-1.448v.857zm4.146-.857h-1.504v.857h1.504v-.857zm-1.504-.801h1.504v-.857h-1.504v.857zm-2.642-.857v.857h1.448v-.857h-1.448zm8.194-1.743h2.909s-.014.45-.014.604c-.155 5.805-.281 7.8-.731 8.405-.267.421-.562.534-.998.604-.421.056-1.068.056-1.728.014-.029-.351-.169-.885-.366-1.237a16.93 16.93 0 001.476.056c.239 0 .365-.042.506-.224.309-.394.449-2.179.562-7.013h-1.658c-.183 3.738-.816 6.718-3.233 8.573-.197-.296-.632-.76-.942-.97.085-.056.169-.127.253-.197-2.023.239-4.047.45-5.551.59l-.169-1.11c.816-.056 1.827-.14 2.938-.239v-1.068h-2.558v-.956h2.558v-.716h-2.516v-4.23h2.516v-.731h-2.895v-.97h2.895V6.81c-.858.07-1.715.112-2.502.14a3.904 3.904 0 00-.309-.941c2.08-.113 4.568-.366 6.029-.689l.619.984a26.74 26.74 0 01-2.643.393v.9h2.839v.815h1.476c.014-.956.014-1.954.014-3.008h1.251c0 1.04-.014 2.052-.028 3.008zm15.572-2.628c-.043.183-.085.829-.085 1.026-.014.168-.014.421-.014.703h4.216l-.028 1.32c-.829-.042-2.164-.07-4.202-.07.014.76.014 1.574.014 2.207.323.506.492 1.152.492 1.869 0 1.87-.998 4.076-4.329 5.045l-1.194-1.18c1.658-.365 2.951-.984 3.626-2.066a2.21 2.21 0 01-.984.21c-1.138 0-2.361-.842-2.361-2.445 0-1.475 1.195-2.53 2.614-2.53.281 0 .548.029.787.099 0-.365-.014-.787-.014-1.195-2.136.028-4.441.113-6.184.225l-.042-1.349c1.588-.028 4.202-.098 6.212-.126-.014-.31-.014-.549-.028-.717-.042-.45-.085-.886-.113-1.026h1.617zm-3.528 6.591c0 .773.604 1.251 1.279 1.251.731 0 1.279-.576 1.096-1.897-.225-.464-.632-.675-1.096-.675-.647 0-1.279.478-1.279 1.321zm16.696 3.064c0 .618.689.998 1.687.998.351 0 .688-.014.998-.056-.113-1.026-.731-1.743-1.659-1.743-.59 0-1.026.38-1.026.801zm-2.052-8.952c.352.042.787.056 1.125.056.73 0 3.935-.085 4.694-.155.492-.042.745-.07.899-.126l.773 1.012c-.295.182-.59.379-.885.604-.717.534-2.446 1.996-3.443 2.81a5.82 5.82 0 011.686-.238c2.347 0 4.09 1.447 4.09 3.415 0 2.235-1.785 3.837-4.947 3.837-1.94 0-3.233-.858-3.233-2.136 0-1.04.928-1.982 2.319-1.982 1.743 0 2.741 1.124 2.923 2.46.97-.422 1.49-1.181 1.49-2.207 0-1.321-1.293-2.277-3.05-2.277-2.248 0-3.569 1.054-5.228 2.825l-1.026-1.04c1.097-.9 2.853-2.375 3.683-3.064.787-.646 2.417-1.996 3.12-2.614-.745.028-3.177.14-3.907.183a12 12 0 00-1.04.084l-.043-1.447zm17.399 8.98c0 .604.534 1.026 1.743 1.026.787 0 1.391-.239 1.391-1.138 0-.197 0-.478-.014-.787a6.363 6.363 0 00-1.279-.127c-1.194 0-1.841.464-1.841 1.026zm4.427-9.711c-.028.253-.056.562-.07.955-.014.17-.014.436-.028.745a30.874 30.874 0 003.696-.393v1.293a47.53 47.53 0 01-3.71.309v1.743a39.175 39.175 0 003.851-.352l-.014 1.307a47.64 47.64 0 01-3.809.31c.028.646.07 1.32.098 1.953 1.827.506 3.219 1.49 4.034 2.15l-.815 1.251c-.801-.73-1.869-1.532-3.148-2.052.014.295.028.534.028.731 0 1.068-.773 2.038-2.614 2.038-2.108 0-3.247-.787-3.247-2.193 0-1.349 1.251-2.262 3.345-2.262.365 0 .703.028 1.04.056-.014-.548-.042-1.124-.056-1.644h-.773c-.9 0-2.46-.07-3.429-.183l-.014-1.321c.955.154 2.614.253 3.471.253h.717V8.722h-.576c-.928 0-2.615-.14-3.528-.253l-.014-1.279c.942.169 2.628.31 3.527.31h.605v-.858c0-.239-.014-.66-.07-.885h1.503zm14.799.154c-.126.422-.197.886-.295 1.293-.028.183-.07.394-.126.633 1.644-.07 3.654-.281 5.368-.66l.028 1.348c-1.574.267-3.822.506-5.663.59-.225 1.04-.506 2.18-.773 2.938 1.194-.759 2.375-1.054 3.752-1.054 2.249 0 3.654 1.166 3.654 2.881 0 3.022-3.022 4.132-7.42 3.668l-.38-1.42c3.19.464 6.324-.013 6.324-2.22 0-.956-.801-1.714-2.333-1.714-1.644 0-3.148.576-4.047 1.672a4.081 4.081 0 00-.408.632l-1.321-.463c.703-1.364 1.265-3.317 1.616-4.891a34.608 34.608 0 01-2.571-.127V7.64c.801.14 1.911.239 2.768.239h.07c.043-.295.085-.562.113-.773.07-.506.098-.857.07-1.265l1.574.07zm11.412 7.084c.38-.281.689-.59 1.082-.998.717-.717 1.841-2.249 2.699-3.26.885-1.027 1.7-1.14 2.67-.17.885.886 1.982 2.305 2.853 3.233.871.956 2.192 2.347 3.485 3.5l-1.138 1.306c-1.04-.983-2.291-2.375-3.218-3.457-.9-1.026-1.954-2.375-2.615-3.12-.548-.604-.815-.506-1.264.042-.619.773-1.701 2.263-2.376 3.092-.295.422-.618.872-.857 1.195l-1.321-1.363z" fill="#111"/><path d="M27.023 122.861h5.616V125H22.512l5.234-6.338c.514-.631.944-1.178 1.29-1.641.35-.462.618-.849.8-1.162.371-.612.557-1.162.557-1.65 0-.703-.248-1.292-.743-1.768-.494-.475-1.106-.712-1.835-.712-1.524 0-2.396.901-2.618 2.705h-2.265c.364-3.177 1.969-4.766 4.814-4.766 1.374 0 2.526.436 3.457 1.309.938.872 1.406 1.953 1.406 3.242 0 .82-.218 1.624-.654 2.412-.221.41-.547.898-.976 1.465a46.89 46.89 0 01-1.612 1.992l-2.344 2.773zm9.184-5.498c0-2.402.56-4.319 1.68-5.752 1.002-1.295 2.216-1.943 3.642-1.943 1.426 0 2.64.648 3.643 1.943 1.12 1.433 1.68 3.382 1.68 5.85 0 2.461-.56 4.407-1.68 5.84-1.003 1.295-2.214 1.943-3.633 1.943-1.42 0-2.637-.648-3.652-1.943-1.12-1.433-1.68-3.412-1.68-5.938zm2.236.01c0 1.673.29 3.063.87 4.17.579 1.087 1.318 1.631 2.216 1.631.892 0 1.631-.544 2.217-1.631.586-1.081.879-2.445.879-4.092 0-1.647-.293-3.014-.879-4.101-.586-1.081-1.325-1.621-2.217-1.621-.885 0-1.62.54-2.207 1.621-.586 1.074-.879 2.415-.879 4.023zm15.268 5.488h5.615V125H49.2l5.235-6.338a49.48 49.48 0 001.289-1.641c.351-.462.618-.849.8-1.162.371-.612.557-1.162.557-1.65 0-.703-.247-1.292-.742-1.768-.495-.475-1.107-.712-1.836-.712-1.524 0-2.396.901-2.617 2.705H49.62c.365-3.177 1.97-4.766 4.815-4.766 1.373 0 2.526.436 3.457 1.309.937.872 1.406 1.953 1.406 3.242 0 .82-.218 1.624-.654 2.412-.222.41-.547.898-.977 1.465a46.89 46.89 0 01-1.611 1.992l-2.344 2.773zm18.06-2.07h1.602v2.07h-1.602V125h-2.275v-2.139h-7.402l9.678-14.062v11.992zm-2.275 0v-5.049l-3.477 5.049h3.477zm7.485 3.115c0-.364.133-.68.4-.947.267-.267.586-.4.957-.4s.69.133.957.4.4.586.4.957c0 .378-.133.7-.4.967-.26.26-.58.39-.957.39-.384 0-.706-.13-.967-.39a1.326 1.326 0 01-.39-.977zm6.292-6.543c0-2.402.56-4.319 1.68-5.752 1.003-1.295 2.217-1.943 3.643-1.943 1.425 0 2.64.648 3.642 1.943 1.12 1.433 1.68 3.382 1.68 5.85 0 2.461-.56 4.407-1.68 5.84-1.002 1.295-2.213 1.943-3.632 1.943-1.42 0-2.637-.648-3.653-1.943-1.12-1.433-1.68-3.412-1.68-5.938zm2.237.01c0 1.673.29 3.063.869 4.17.58 1.087 1.318 1.631 2.217 1.631.892 0 1.63-.544 2.216-1.631.586-1.081.88-2.445.88-4.092 0-1.647-.294-3.014-.88-4.101-.585-1.081-1.324-1.621-2.216-1.621-.886 0-1.621.54-2.207 1.621-.586 1.074-.88 2.415-.88 4.023zm18.09-5.322h-7.442v-2.129h11.24l-9.511 15.596-1.807-1.143 7.52-12.324zm3.763 11.855c0-.364.134-.68.401-.947.267-.267.586-.4.957-.4s.69.133.957.4.4.586.4.957c0 .378-.133.7-.4.967-.261.26-.58.39-.957.39-.384 0-.707-.13-.967-.39a1.324 1.324 0 01-.391-.977zm10.619-5.908v-1.943c.964 0 1.612-.108 1.944-.323.592-.377.888-.983.888-1.816 0-.645-.214-1.169-.644-1.572-.423-.41-.973-.615-1.65-.615-.632 0-1.12.153-1.465.459-.332.312-.58.839-.743 1.582h-2.265c.234-1.42.716-2.458 1.445-3.116.729-.664 1.748-.996 3.057-.996 1.321 0 2.399.391 3.232 1.172.834.775 1.25 1.774 1.25 2.998 0 1.38-.547 2.455-1.64 3.223 1.25.735 1.875 1.93 1.875 3.584 0 1.354-.456 2.461-1.368 3.32-.911.859-2.08 1.289-3.505 1.289-1.817 0-3.164-.667-4.043-2.002-.365-.56-.596-1.334-.694-2.324h2.198c.117.729.4 1.289.849 1.68.456.384 1.048.576 1.777.576.736 0 1.345-.244 1.827-.733.481-.501.722-1.136.722-1.904 0-1.016-.361-1.738-1.084-2.168-.423-.247-1.077-.371-1.963-.371zm9.018-.635c0-2.402.56-4.319 1.68-5.752 1.002-1.295 2.216-1.943 3.642-1.943 1.426 0 2.64.648 3.643 1.943 1.12 1.433 1.68 3.382 1.68 5.85 0 2.461-.56 4.407-1.68 5.84-1.003 1.295-2.214 1.943-3.633 1.943s-2.637-.648-3.652-1.943c-1.12-1.433-1.68-3.412-1.68-5.938zm2.236.01c0 1.673.29 3.063.869 4.17.58 1.087 1.319 1.631 2.217 1.631.892 0 1.631-.544 2.217-1.631.586-1.081.879-2.445.879-4.092 0-1.647-.293-3.014-.879-4.101-.586-1.081-1.325-1.621-2.217-1.621-.885 0-1.621.54-2.207 1.621-.586 1.074-.879 2.415-.879 4.023zm14.457-6.807v16.368h1.895v2.07h-4.131v-20.498h4.131v2.06h-1.895zm7.602 6.973V125h-2.197v-7.461h-.938v-2.051h.938v-3.486h2.197v3.486h1.709v2.051h-1.709zm6.4-2.051v5.459c0 1.576.622 2.364 1.866 2.364 1.243 0 1.865-.788 1.865-2.364v-5.459h2.197v5.508c0 .762-.094 1.419-.283 1.973-.182.495-.498.941-.947 1.338-.743.644-1.687.966-2.832.966-1.14 0-2.081-.322-2.823-.966-.455-.397-.778-.843-.967-1.338-.182-.443-.273-1.101-.273-1.973v-5.508h2.197zm18.364 5.274h-6.817c.059.781.313 1.403.762 1.865.449.456 1.025.684 1.728.684.547 0 1-.131 1.358-.391.351-.26.752-.742 1.201-1.445l1.855 1.035a7.57 7.57 0 01-.908 1.26 5.047 5.047 0 01-1.025.859 4.208 4.208 0 01-1.182.488 5.76 5.76 0 01-1.377.156c-1.419 0-2.558-.455-3.418-1.367-.859-.918-1.289-2.135-1.289-3.652 0-1.504.417-2.721 1.25-3.652.84-.918 1.953-1.377 3.34-1.377 1.4 0 2.507.446 3.32 1.337.808.886 1.211 2.113 1.211 3.682l-.009.518zm-2.256-1.797c-.306-1.172-1.045-1.758-2.217-1.758-.267 0-.518.042-.752.127a2.072 2.072 0 00-.645.352 2.212 2.212 0 00-.488.546 2.537 2.537 0 00-.312.733h4.414zm7.24 7.969v-16.368h-1.904v-2.06h4.131v20.498h-4.131v-2.07h1.904zm12.361-7.725h4.356v1.914h-4.356v-1.914zm13.377-1.846c0-2.402.56-4.319 1.68-5.752 1.003-1.295 2.217-1.943 3.643-1.943 1.425 0 2.639.648 3.642 1.943 1.12 1.433 1.68 3.382 1.68 5.85 0 2.461-.56 4.407-1.68 5.84-1.003 1.295-2.213 1.943-3.633 1.943-1.419 0-2.636-.648-3.652-1.943-1.12-1.433-1.68-3.412-1.68-5.938zm2.237.01c0 1.673.289 3.063.869 4.17.579 1.087 1.318 1.631 2.217 1.631.891 0 1.63-.544 2.216-1.631.586-1.081.879-2.445.879-4.092 0-1.647-.293-3.014-.879-4.101-.586-1.081-1.325-1.621-2.216-1.621-.886 0-1.622.54-2.208 1.621-.585 1.074-.878 2.415-.878 4.023zm13.734-.215c-1.107-.781-1.66-1.846-1.66-3.193 0-1.224.42-2.246 1.26-3.067.846-.82 1.897-1.23 3.154-1.23 1.25 0 2.292.41 3.125 1.23.833.814 1.25 1.84 1.25 3.077 0 1.295-.55 2.353-1.651 3.173a3.497 3.497 0 011.426 1.426c.352.625.528 1.328.528 2.11 0 1.334-.437 2.428-1.309 3.281-.872.853-1.989 1.279-3.35 1.279-1.393 0-2.542-.43-3.447-1.289-.911-.859-1.367-1.94-1.367-3.242 0-1.693.68-2.878 2.041-3.555zm.478-3.203c0 .645.219 1.185.655 1.621a2.18 2.18 0 001.601.664 2.17 2.17 0 001.592-.664 2.17 2.17 0 00.664-1.592c0-.618-.221-1.149-.664-1.591a2.17 2.17 0 00-1.592-.664c-.618 0-1.149.221-1.591.664-.443.442-.665.963-.665 1.562zm-.283 6.68c0 .696.241 1.295.723 1.797a2.407 2.407 0 001.777.742c.69 0 1.28-.244 1.768-.733a2.44 2.44 0 00.732-1.777c0-.697-.244-1.289-.732-1.777a2.407 2.407 0 00-1.768-.733c-.683 0-1.273.244-1.767.733a2.383 2.383 0 00-.733 1.748zm11.401 3.271c0-.364.133-.68.4-.947.267-.267.586-.4.957-.4s.69.133.957.4.4.586.4.957c0 .378-.133.7-.4.967-.26.26-.579.39-.957.39-.384 0-.706-.13-.967-.39a1.327 1.327 0 01-.39-.977zm6.293-6.543c0-2.402.56-4.319 1.679-5.752 1.003-1.295 2.217-1.943 3.643-1.943 1.426 0 2.64.648 3.642 1.943 1.12 1.433 1.68 3.382 1.68 5.85 0 2.461-.56 4.407-1.68 5.84-1.002 1.295-2.213 1.943-3.632 1.943-1.42 0-2.637-.648-3.653-1.943-1.119-1.433-1.679-3.412-1.679-5.938zm2.236.01c0 1.673.29 3.063.869 4.17.58 1.087 1.318 1.631 2.217 1.631.892 0 1.631-.544 2.217-1.631.586-1.081.879-2.445.879-4.092 0-1.647-.293-3.014-.879-4.101-.586-1.081-1.325-1.621-2.217-1.621-.886 0-1.621.54-2.207 1.621-.586 1.074-.879 2.415-.879 4.023zm14.135-5.322h-2.608l1.25-2.129h3.633V125h-2.275v-12.949zm12.123-1.485v16.368h1.894v2.07h-4.131v-20.498h4.131v2.06h-1.894zm7.601 6.973V125h-2.197v-7.461h-.937v-2.051h.937v-3.486h2.197v3.486h1.709v2.051h-1.709zm4.614-9.033h2.197v7.773c.781-.703 1.644-1.054 2.588-1.054 1.074 0 1.933.348 2.578 1.045.547.605.82 1.572.82 2.9V125h-2.197v-5.625c0-.762-.137-1.312-.41-1.65-.267-.345-.7-.518-1.299-.518-.768 0-1.309.238-1.621.713-.306.482-.459 1.309-.459 2.48v4.6h-2.197v-16.494zm14.173 6.982v5.459c0 1.576.622 2.364 1.866 2.364 1.243 0 1.865-.788 1.865-2.364v-5.459h2.197v5.508c0 .762-.094 1.419-.283 1.973-.182.495-.498.941-.947 1.338-.742.644-1.686.966-2.832.966-1.14 0-2.08-.322-2.823-.966-.455-.397-.778-.843-.966-1.338-.183-.443-.274-1.101-.274-1.973v-5.508h2.197zm11.274 11.446v-16.368h-1.904v-2.06h4.13v20.498h-4.13v-2.07h1.904z" fill="#242424"/></svg>