<svg width="180" height="42" fill="none" xmlns="http://www.w3.org/2000/svg"><path d="M29.006 29.529h-4.351a.45.45 0 01-.386-.23.522.522 0 01-.018-.478c.012-.025 1.122-2.42 1.36-3.6.267-1.343.492-3.178.089-6.587a65.04 65.04 0 00-.202-1.477h-4.62l.594 11.855a.5.5 0 01-.124.364.458.458 0 01-.333.153h-.795a.385.385 0 01-.149-.026c-.255-.096-2.493-.975-2.737-2.49-.213-1.313-.017-8.105-.006-8.398 0-.089.03-.172.072-.248.018-.032 1.995-3.345 1.9-5.332-.084-1.746-.167-5.18-.196-6.441H16.68c.226 1.223.404 2.65.362 4.02-.053 1.86-.813 3.631-1.65 5.039a19.812 19.812 0 001.318 2.714c.047.076.071.16.071.248.006.287.208 7.078-.006 8.397-.1.625-.54 1.204-1.306 1.733a.41.41 0 01-.332.07c-.588-.115-1.194-.248-1.603-.427-.742-.325-1.223-1.204-1.223-2.242v-7.81c0-.135.053-.268.142-.358.018-.019.98-.994 1.912-2.452-.297-.867-.505-1.771-.47-2.542.102-2.14.209-6.843.209-6.894 0-.267.207-.477.457-.477h.973a28.128 28.128 0 00-.427-1.625H8.815c-.291.968-1.099 3.937-1.021 6.588.112 3.777 3.639 7.364 3.675 7.396a.526.526 0 01.142.357v7.81c0 1.039-.48 1.918-1.223 2.243-.451.197-1.158.337-1.846.471l-.374.077c-.25.05-.487-.121-.535-.389-.047-.268.113-.522.362-.573l.38-.077c.612-.12 1.3-.254 1.669-.42.45-.198.653-.81.653-1.338v-7.607c-.713-.758-3.705-4.16-3.818-7.931-.1-3.39 1.122-7.117 1.176-7.276a.456.456 0 01.427-.325h6.953c.19 0 .362.128.427.325.024.077.32.981.612 2.275h3.063c.25 0 .451.21.457.477 0 .045.107 4.753.208 6.893.1 2.096-1.603 5.155-1.977 5.798-.06 2.032-.16 7.078 0 8.065.113.701 1.3 1.408 2.072 1.714h.231l-.593-11.856a.5.5 0 01.124-.363.458.458 0 01.333-.153h4.945a315.706 315.706 0 00-.593-3.498c-.422-2.427-.814-4.714-.89-5.759-.12-1.592-.102-6.23-.102-6.428A.47.47 0 0124.21 0h9.796c.25 0 .458.217.458.484 0 .198.011 4.836-.101 6.428-.06.778-.291 2.25-.582 3.95h7.047a.46.46 0 01.404.255c.083.16.071.35-.018.503l-5.053 8.25v7.964l2.482.554c.25.057.404.312.356.58-.053.261-.29.433-.54.382l-2.844-.63c-.213-.045-.362-.249-.362-.478v-8.505c0-.096.024-.191.077-.268l4.667-7.613h-6.37c-.048.274-.096.554-.143.835-.226 1.318-.463 2.669-.647 3.848l1.793 2.924a.535.535 0 01.077.267v8.505c0 .23-.154.434-.362.478l-.944.21a.447.447 0 01-.505-.267c-.433-.988-.991-2.351-1.164-3.23-.403-2.02-.433-4.09-.1-6.912a41.41 41.41 0 01.249-1.765l-3.14-5.122a.523.523 0 01-.018-.504.45.45 0 01.403-.254h3.746c.297-1.746.54-3.262.6-4.027.09-1.255.101-4.6.101-5.86h-8.888c0 1.254.006 4.605.101 5.86.072.994.463 3.262.879 5.657.214 1.255.44 2.53.617 3.676h3.36a.46.46 0 01.333.153.5.5 0 01.125.364l-.618 12.372c-.012.26-.213.465-.457.465h-.018zm-3.627-.975h3.194l.57-11.397h-2.731c.077.496.137.955.184 1.357.332 2.822.303 4.892-.1 6.912-.179.885-.755 2.28-1.123 3.128h.006zm7.231-10.588c-.035.242-.065.465-.089.675-.404 3.408-.184 5.243.09 6.587.142.714.605 1.867.943 2.67l.226-.051v-7.964l-1.17-1.911v-.006zm-19.39.58v7.606c0 .522.202 1.14.653 1.338.28.121.754.236 1.247.331.44-.331.706-.675.754-.975.16-.987.053-6.033 0-8.065a20.662 20.662 0 01-1.093-2.185 17.452 17.452 0 01-1.555 1.943l-.006.006zm16.73-6.696l2.138 3.49c.148-.91.32-1.879.48-2.834.036-.223.078-.44.114-.656h-2.738.006zM15.001 6.594c-.03 1.261-.113 4.695-.196 6.44-.018.427.054.912.184 1.415.606-1.16 1.099-2.497 1.134-3.867.042-1.35-.148-2.784-.386-3.988h-.736zm8.722 35.063c-1.146 0-1.805-.49-2.494-1.006a9.578 9.578 0 00-.908-.624C17.507 38.377.64 34.159.468 34.114c-.327-.082-.529-.433-.452-.783.078-.35.404-.567.73-.484.701.172 17.2 4.306 20.163 6.04.403.235.73.477 1.02.694.624.465 1.04.777 1.806.777s1.175-.306 1.805-.777c.29-.217.617-.465 1.02-.695 2.957-1.733 19.456-5.86 20.163-6.04.326-.082.653.135.73.485.077.35-.125.7-.451.783-.172.045-17.04 4.263-19.854 5.913a9.58 9.58 0 00-.908.624c-.694.516-1.348 1.006-2.493 1.006h-.024z" fill="#198E61"/><path d="M21.94 36.358a.513.513 0 01-.166-.032c-5.302-2.23-13.91-4.842-18.85-5.982a.493.493 0 01-.35-.58c.053-.261.296-.433.54-.376 4.975 1.147 13.649 3.778 18.992 6.027.232.095.35.382.255.63a.462.462 0 01-.421.313zm-.153 1.699a.48.48 0 01-.16-.031c-5.492-2.23-14.409-4.842-19.52-5.983-.244-.057-.405-.312-.357-.58.053-.267.29-.433.54-.382 5.148 1.147 14.13 3.778 19.658 6.027a.499.499 0 01.267.63.462.462 0 01-.428.32zm3.719-1.699a.443.443 0 01-.421-.312c-.09-.249.024-.535.255-.631 5.343-2.249 14.017-4.88 18.993-6.027.249-.057.486.109.54.376.053.261-.101.523-.35.58-4.94 1.14-13.555 3.752-18.85 5.982a.387.387 0 01-.167.032zm.154 1.7a.461.461 0 01-.428-.318.499.499 0 01.267-.63c5.533-2.25 14.51-4.88 19.657-6.028.244-.057.487.115.54.383a.491.491 0 01-.356.58c-5.112 1.14-14.035 3.752-19.52 5.981a.478.478 0 01-.16.032z" fill="#198E61"/><path d="M66.502 1.854v2.077h8.668v2.39h-8.668V7.55h6.71v8.817h-5.16c2.161 1.835 4.055 2.778 7.902 4.23-.7.727-1.259 1.523-1.597 2.517-2.678-.994-5.248-2.294-7.86-4.855v5.46h-2.565v-5.415c-1.574 1.376-3.557 3.115-7.41 4.93-.427-.917-.944-1.764-1.71-2.535 2.363-.796 4.726-2.051 7.339-4.326h-4.435V7.556h6.216v-1.23h-8.378V3.939h8.378V1.86h2.564l.006-.007zM60.15 9.66v1.185h3.782V9.659H60.15zm0 3.236v1.28h3.782v-1.28H60.15zm6.352-3.236v1.185h4.144V9.659h-4.144zm0 3.236v1.28h4.144v-1.28h-4.144zm34.393-5.463v2.899h-8.087a19.335 19.335 0 005.878 9.059c.606.484 1.33 1.038 2.814 1.886-.831.7-1.573 1.618-2.208 2.63-1.936-1.305-5.718-3.987-8.2-10.702-2.047 6.186-5.497 8.798-8.94 10.824-.493-.968-1.08-1.886-1.847-2.631 2.25-1.064 4.394-2.612 6.127-4.976 1.645-2.293 2.161-4.638 2.434-6.09h-7.61V7.433h7.925c.113-1.548.113-3.357.113-5.485h3.087a158.717 158.717 0 01-.202 5.485h8.716zm-35.17 34.054l1.633-8.976h.314l2.648 6.339 2.666-6.34h.308l1.467 8.977h-1.282l-.844-5.326-2.226 5.326h-.338l-2.203-5.345-.86 5.345h-1.283zm16.081-5.581h1.211v5.58h-1.21v-.58a1.928 1.928 0 01-1.556.753c-1.603 0-2.517-1.434-2.517-2.97 0-1.815 1.163-2.93 2.529-2.93.386 0 1.05.109 1.543.797v-.65zm-2.843 2.81c0 .968.57 1.777 1.442 1.777.766 0 1.472-.6 1.472-1.765 0-1.166-.7-1.803-1.472-1.803-.873 0-1.442.797-1.442 1.79zm7.318-2.81h1.211v.503c.137-.172.333-.357.505-.465.237-.147.469-.185.742-.185.297 0 .617.051.95.268l-.493 1.178a1.042 1.042 0 00-.617-.197c-.256 0-.517.038-.754.306-.333.382-.333.917-.333 1.287v2.892h-1.21v-5.587zm7.036 0v3.191c0 .332.012.714.226 1.007.16.223.445.382.79.382a.965.965 0 00.789-.382c.213-.293.225-.675.225-1.007v-3.191h1.212v3.236c0 .714-.078 1.313-.559 1.828-.469.504-1.11.689-1.692.689-.528 0-1.175-.172-1.644-.688-.481-.516-.558-1.115-.558-1.829v-3.236h1.21zm6.494 0h1.211v.516a1.723 1.723 0 011.407-.663c.962 0 1.372.516 1.532.758.196.306.321.688.321 1.548v3.422h-1.211v-3.103c0-1.42-.493-1.459-.956-1.459-.541 0-1.099.083-1.099 1.886v2.676h-1.21v-5.581h.005zm13.023 2.797c0 1.707-1.212 2.956-2.779 2.956s-2.784-1.243-2.784-2.956c0-1.714 1.211-2.944 2.784-2.944 1.573 0 2.779 1.217 2.779 2.944zm-1.235.012c0-1.274-.778-1.79-1.544-1.79s-1.544.516-1.544 1.79c0 1.07.594 1.778 1.544 1.778.95 0 1.544-.701 1.544-1.778zm5.434-2.809v3.191c0 .332.012.714.225 1.007a.965.965 0 00.79.382.965.965 0 00.79-.382c.213-.293.225-.675.225-1.007v-3.191h1.211v3.236c0 .714-.077 1.313-.558 1.828-.469.504-1.11.689-1.692.689-.528 0-1.175-.172-1.644-.688-.481-.516-.558-1.115-.558-1.829v-3.236h1.211zm10.532 1.706c-.558-.58-1.099-.688-1.473-.688-.57 0-.926.255-1.151.49-.22.242-.446.663-.446 1.287 0 .624.238 1.09.469 1.338.273.28.653.452 1.099.452.492 0 1.074-.21 1.496-.713v1.446c-.297.197-.778.44-1.579.44-.861 0-1.485-.262-1.977-.822-.369-.414-.743-1.07-.743-2.096s.41-1.752.79-2.16c.41-.44 1.063-.822 2.09-.822.398 0 .867.064 1.419.395v1.46l.006-.007zm2.888-5.792h1.211v4.561a1.81 1.81 0 011.395-.624c.95 0 1.383.529 1.532.758.32.503.332 1.153.332 1.548v3.421h-1.211v-3.3c0-.331 0-.688-.237-.968a.88.88 0 00-.677-.293c-.41 0-.73.21-.891.465-.172.268-.249.688-.249 1.408v2.688h-1.211V31.82h.006zm8.344.944c.445 0 .778.357.778.835s-.333.834-.778.834-.778-.356-.778-.834.333-.835.778-.835zm.606 3.141v5.58h-1.211v-5.58h1.211zM58.768 32.51c-2.404 0-4.144 1.9-4.144 4.511 0 2.612 1.645 4.498 3.996 4.498.718 0 1.508-.178 2.078-.471l.065-.032-.386-.803-.06.032c-.433.223-1.086.363-1.697.363-1.81 0-3.129-1.51-3.129-3.587s1.407-3.606 3.271-3.606c1.865 0 3.188 1.345 3.188 3.262 0 1.3-.368 2.14-1.027 2.16-.225 0-.362-.287-.362-.573v-3.396h-.926v.497a1.42 1.42 0 00-1.187-.612c-1.051 0-1.948.854-1.948 2.25 0 1.184.7 2.28 1.936 2.28.261 0 .694-.077 1.08-.471.09-.102.172-.185.196-.243.09.663.487 1.102 1.211 1.102.867 0 1.9-.611 1.9-3 0-2.39-1.668-4.173-4.06-4.173l.005.013zm-.202 5.887c-.67 0-1.11-.624-1.11-1.363s.44-1.376 1.11-1.376c.588 0 1.128.452 1.128 1.389 0 .936-.54 1.357-1.128 1.357v-.007zm64.221-20.551l3.722-12.894h3.224l-5.474 18.762h-2.601l-3.675-12.736-3.675 12.736h-2.624L106.21 4.952h3.224l3.723 12.894 3.598-12.276h2.446l3.574 12.276h.012zm22.13 3.566c-1.698 2.039-3.77 2.6-5.723 2.6-4.548 0-7.267-3.167-7.267-7.021 0-3.855 2.921-7.13 6.917-7.13 3.425 0 6.643 2.307 6.643 7.531h-10.49c0 2.147 1.62 3.835 4.345 3.835 1.574 0 2.749-.618 3.824-1.663l1.751 1.848zm-9.766-6.243h7.196c-.475-2.09-2.197-2.682-3.497-2.682-1.301 0-3.046.592-3.699 2.682zm27.129 6.243c-1.698 2.039-3.77 2.6-5.724 2.6-4.547 0-7.267-3.167-7.267-7.021 0-3.855 2.921-7.13 6.923-7.13 3.42 0 6.643 2.307 6.643 7.531h-10.49c0 2.147 1.621 3.835 4.346 3.835 1.573 0 2.748-.618 3.823-1.663l1.751 1.848h-.005zm-9.767-6.243h7.196c-.475-2.09-2.197-2.682-3.497-2.682-1.3 0-3.046.592-3.699 2.682zm22.025-5.014h3.396v.402l-4.399 5.816 1.899 3.167c.648 1.019 1.051 1.503 1.972 1.503.273 0 1.009-.102 1.508-.503 0 0 .142.637.457 1.325.314.688.629.975.629.975-1.051 1.095-2.399 1.178-3.022 1.178-1.924 0-2.998-1.127-3.871-2.465l-2.547-4.396v6.568h-3.075V4.34h3.075v11.423l3.972-5.6.006-.007z" fill="#111"/></svg>