<svg width="40" height="41" viewBox="0 0 40 41" fill="none" xmlns="http://www.w3.org/2000/svg">
<path d="M36.5882 28.3514C36.0208 28.0397 35.3084 28.247 34.9969 28.8142C34.6852 29.3815 34.8924 30.094 35.4597 30.4055C36.8556 31.1724 37.6562 32.0226 37.6562 32.738C37.6562 33.6131 36.4164 34.9694 32.9365 36.1516C29.4986 37.3197 24.9043 37.9629 20 37.9629C15.0957 37.9629 10.5014 37.3197 7.06352 36.1516C3.58359 34.9694 2.34375 33.6131 2.34375 32.738C2.34375 32.0226 3.14438 31.1724 4.54031 30.4054C5.10758 30.0939 5.31477 29.3814 5.00313 28.8141C4.69148 28.2469 3.97922 28.0397 3.4118 28.3513C1.85539 29.2064 0 30.6615 0 32.738C0 34.3297 1.09469 36.5991 6.30953 38.3708C9.98391 39.6192 14.8459 40.3067 20 40.3067C25.1541 40.3067 30.0161 39.6192 33.6905 38.3708C38.9053 36.5991 40 34.3297 40 32.738C40 30.6615 38.1446 29.2064 36.5882 28.3514Z" fill="white"/>
<path d="M11.1517 34.4576C13.5306 35.1296 16.6727 35.4998 19.9992 35.4998C23.3257 35.4998 26.4678 35.1297 28.8467 34.4576C31.7571 33.6355 33.2328 32.4453 33.2328 30.9205C33.2328 29.3955 31.7571 28.2055 28.8467 27.3834C28.2006 27.2009 27.498 27.0409 26.7509 26.9043C26.3452 27.6052 25.9202 28.3267 25.4757 29.069C26.3026 29.193 27.0789 29.3452 27.7839 29.5248C29.9258 30.0703 30.7083 30.6845 30.8691 30.9205C30.7082 31.1567 29.9259 31.7709 27.784 32.3163C25.7567 32.8327 23.1484 33.1272 20.4013 33.1535C20.2683 33.1634 20.1342 33.1689 19.9992 33.1689C19.8641 33.1689 19.7302 33.1634 19.597 33.1535C16.8499 33.1272 14.2416 32.8327 12.2144 32.3163C10.0725 31.7709 9.29008 31.1566 9.12922 30.9205C9.29008 30.6845 10.0726 30.0703 12.2145 29.5248C12.9195 29.3452 13.6958 29.193 14.5227 29.069C14.0783 28.3268 13.6532 27.6052 13.2475 26.9043C12.5005 27.0409 11.7977 27.2009 11.1517 27.3834C8.24133 28.2055 6.76562 29.3956 6.76562 30.9205C6.76563 32.4453 8.24133 33.6354 11.1517 34.4576Z" fill="white"/>
<path d="M19.9992 30.8249C21.0424 30.8249 21.99 30.2934 22.5342 29.403C26.3475 23.1641 30.893 14.9418 30.893 11.2003C30.893 5.19352 26.0061 0.306641 19.9992 0.306641C13.9923 0.306641 9.10547 5.19352 9.10547 11.2003C9.10547 14.9418 13.651 23.1641 17.4642 29.403C18.0084 30.2934 18.9561 30.8249 19.9992 30.8249ZM15.6205 10.4523C15.6205 8.03805 17.5848 6.07383 19.9992 6.07383C22.4136 6.07383 24.3779 8.03805 24.3779 10.4523C24.3779 12.8667 22.4136 14.8309 19.9992 14.8309C17.5848 14.8309 15.6205 12.8668 15.6205 10.4523Z" fill="white"/>
</svg>
